<svg id="Grupo_1101450" data-name="Grupo 1101450" xmlns="http://www.w3.org/2000/svg" xmlns:xlink="http://www.w3.org/1999/xlink" width="820" height="650" viewBox="0 0 820 650">
  <defs>
    <clipPath id="clip-path">
      <rect id="Rectángulo_396189" data-name="Rectángulo 396189" width="820" height="650" fill="none"/>
    </clipPath>
  </defs>
  <path id="Trazado_634837" data-name="Trazado 634837" d="M0,0H820V650H0Z" fill="#faebc4"/>
  <path id="Trazado_634838" data-name="Trazado 634838" d="M0,0H750.8V.689H0Z" transform="translate(34.59 18.331)" fill="#12263f"/>
  <path id="Trazado_634839" data-name="Trazado 634839" d="M0,0H750.8V.688H0Z" transform="translate(34.59 25.216)" fill="#12263f"/>
  <path id="Trazado_634840" data-name="Trazado 634840" d="M0,0H750.8V.689H0Z" transform="translate(34.59 32.1)" fill="#12263f"/>
  <path id="Trazado_634841" data-name="Trazado 634841" d="M0,0H750.8V.688H0Z" transform="translate(34.59 38.984)" fill="#12263f"/>
  <path id="Trazado_634842" data-name="Trazado 634842" d="M0,0H750.8V.688H0Z" transform="translate(34.59 45.868)" fill="#12263f"/>
  <g id="Grupo_1101449" data-name="Grupo 1101449">
    <g id="Grupo_1101448" data-name="Grupo 1101448" clip-path="url(#clip-path)">
      <path id="Trazado_634170" data-name="Trazado 634170" d="M48.574,42.015c3.1.02,5.624-1.536,5.636-3.477s-2.491-3.529-5.592-3.548-5.624,1.537-5.636,3.475,2.49,3.531,5.592,3.55M47.84,35.5c1.106-.28,2.342.841,2.76,2.5s-.141,3.233-1.247,3.51-2.344-.84-2.762-2.5.141-3.233,1.249-3.51" fill="#12263f"/>
      <rect id="Rectángulo_396159" data-name="Rectángulo 396159" width="750.797" height="0.663" transform="translate(34.589 111.1)" fill="#12263f"/>
      <rect id="Rectángulo_396160" data-name="Rectángulo 396160" width="750.797" height="0.663" transform="translate(34.589 117.731)" fill="#12263f"/>
      <rect id="Rectángulo_396161" data-name="Rectángulo 396161" width="750.797" height="0.663" transform="translate(34.589 124.362)" fill="#12263f"/>
      <rect id="Rectángulo_396162" data-name="Rectángulo 396162" width="750.797" height="0.663" transform="translate(34.589 130.993)" fill="#12263f"/>
      <rect id="Rectángulo_396163" data-name="Rectángulo 396163" width="750.797" height="0.663" transform="translate(34.589 137.624)" fill="#12263f"/>
      <path id="Trazado_634171" data-name="Trazado 634171" d="M51.989,108.45a.413.413,0,0,0-.412.414v20.028c-1.1-.93-3.132-1.034-5.053-.141-2.376,1.1-3.694,3.312-2.941,4.934s3.291,2.038,5.666.936c1.917-.892,3.145-2.5,3.152-3.944V108.864a.414.414,0,0,0-.413-.414m-3.453,24.8c-2.1,1.05-4.109,1.286-4.489.526s1.012-2.226,3.11-3.277,4.109-1.286,4.488-.526-1.01,2.227-3.109,3.277" fill="#12263f"/>
      <path id="Trazado_634172" data-name="Trazado 634172" d="M424.066,108.45a.413.413,0,0,0-.412.414v20.028c-1.1-.93-3.132-1.034-5.053-.141-2.376,1.1-3.694,3.312-2.941,4.934s3.291,2.038,5.666.936c1.917-.892,3.145-2.5,3.152-3.944V108.864a.414.414,0,0,0-.413-.414m-3.453,24.8c-2.1,1.05-4.109,1.286-4.489.526s1.012-2.226,3.11-3.277,4.109-1.286,4.488-.526-1.01,2.227-3.109,3.277" fill="#12263f"/>
      <rect id="Rectángulo_396164" data-name="Rectángulo 396164" width="750.797" height="0.671" transform="translate(34.589 202.765)" fill="#12263f"/>
      <rect id="Rectángulo_396165" data-name="Rectángulo 396165" width="750.797" height="0.671" transform="translate(34.589 209.475)" fill="#12263f"/>
      <rect id="Rectángulo_396166" data-name="Rectángulo 396166" width="750.797" height="0.671" transform="translate(34.589 216.185)" fill="#12263f"/>
      <rect id="Rectángulo_396167" data-name="Rectángulo 396167" width="750.797" height="0.671" transform="translate(34.589 222.894)" fill="#12263f"/>
      <rect id="Rectángulo_396168" data-name="Rectángulo 396168" width="750.797" height="0.671" transform="translate(34.589 229.604)" fill="#12263f"/>
      <path id="Trazado_634173" data-name="Trazado 634173" d="M43.184,225.976c.76,1.64,3.329,2.064,5.733.947,1.94-.9,3.183-2.531,3.19-3.99V200.858a.417.417,0,1,0-.834,0v20.267c-1.118-.941-3.169-1.045-5.113-.14-2.406,1.117-3.739,3.351-2.976,4.991" fill="#12263f"/>
      <path id="Trazado_634174" data-name="Trazado 634174" d="M228.33,225.976c.76,1.64,3.329,2.064,5.733.947,1.94-.9,3.183-2.531,3.19-3.99V200.858a.417.417,0,1,0-.834,0v20.267c-1.118-.941-3.169-1.045-5.113-.14-2.406,1.117-3.739,3.351-2.976,4.991" fill="#12263f"/>
      <path id="Trazado_634175" data-name="Trazado 634175" d="M415.476,225.717c.76,1.64,3.329,2.064,5.733.947,1.94-.9,3.183-2.531,3.19-3.99V200.6a.417.417,0,1,0-.834,0v20.267c-1.118-.941-3.169-1.045-5.113-.14-2.406,1.117-3.739,3.351-2.976,4.991" fill="#12263f"/>
      <path id="Trazado_634176" data-name="Trazado 634176" d="M600.657,225.976c.76,1.64,3.329,2.064,5.733.947,1.94-.9,3.183-2.531,3.19-3.99V200.858a.417.417,0,1,0-.834,0v20.267c-1.118-.941-3.169-1.045-5.113-.14-2.406,1.117-3.739,3.351-2.976,4.991" fill="#12263f"/>
      <rect id="Rectángulo_396169" data-name="Rectángulo 396169" width="750.797" height="0.668" transform="translate(34.589 294.045)" fill="#12263f"/>
      <rect id="Rectángulo_396170" data-name="Rectángulo 396170" width="750.797" height="0.668" transform="translate(34.589 300.722)" fill="#12263f"/>
      <rect id="Rectángulo_396171" data-name="Rectángulo 396171" width="750.797" height="0.668" transform="translate(34.589 307.398)" fill="#12263f"/>
      <rect id="Rectángulo_396172" data-name="Rectángulo 396172" width="750.797" height="0.667" transform="translate(34.589 314.075)" fill="#12263f"/>
      <rect id="Rectángulo_396173" data-name="Rectángulo 396173" width="750.797" height="0.667" transform="translate(34.589 320.752)" fill="#12263f"/>
      <path id="Trazado_634177" data-name="Trazado 634177" d="M330.313,292.169H50.591v19.282c-1.027-.864-2.909-.959-4.694-.129-2.209,1.025-3.432,3.077-2.732,4.581s3.057,1.895,5.263.87c1.781-.829,2.921-2.323,2.927-3.663V294.932h92.392v16.519c-1.022-.864-2.906-.959-4.691-.129-2.209,1.025-3.432,3.077-2.734,4.581s3.058,1.895,5.265.87c1.782-.829,2.921-2.323,2.927-3.663v-.028l-.007-18.15h91.226v16.519c-1.023-.864-2.906-.959-4.692-.129-2.208,1.025-3.432,3.077-2.733,4.581s3.058,1.895,5.264.87c1.782-.829,2.922-2.323,2.927-3.663v-.028l-.006-18.15h93.056v16.519c-1.022-.864-2.906-.959-4.691-.129-2.209,1.025-3.432,3.077-2.733,4.581s3.057,1.895,5.264.87c1.782-.829,2.921-2.323,2.927-3.663v-.028Z" fill="#12263f"/>
      <path id="Trazado_634178" data-name="Trazado 634178" d="M703.405,292.169H423.683v19.282c-1.027-.864-2.909-.959-4.694-.129-2.209,1.025-3.432,3.077-2.732,4.581s3.057,1.895,5.263.87c1.781-.829,2.921-2.323,2.927-3.663V294.932h92.392v16.519c-1.022-.864-2.906-.959-4.691-.129-2.209,1.025-3.432,3.077-2.734,4.581s3.058,1.895,5.265.87c1.782-.829,2.921-2.323,2.927-3.663v-.028l-.007-18.15h91.226v16.519c-1.023-.864-2.906-.959-4.692-.129-2.208,1.025-3.432,3.077-2.733,4.581s3.058,1.895,5.264.87c1.782-.829,2.922-2.323,2.927-3.663v-.028l-.006-18.15h93.056v16.519c-1.022-.864-2.906-.959-4.691-.129-2.209,1.025-3.432,3.077-2.733,4.581s3.057,1.895,5.264.87c1.782-.829,2.921-2.323,2.927-3.663v-.028Z" fill="#12263f"/>
      <rect id="Rectángulo_396174" data-name="Rectángulo 396174" width="750.797" height="0.646" transform="translate(34.589 387.299)" fill="#12263f"/>
      <rect id="Rectángulo_396175" data-name="Rectángulo 396175" width="750.797" height="0.646" transform="translate(34.589 393.757)" fill="#12263f"/>
      <rect id="Rectángulo_396176" data-name="Rectángulo 396176" width="750.797" height="0.646" transform="translate(34.589 400.216)" fill="#12263f"/>
      <rect id="Rectángulo_396177" data-name="Rectángulo 396177" width="750.797" height="0.646" transform="translate(34.589 406.675)" fill="#12263f"/>
      <rect id="Rectángulo_396178" data-name="Rectángulo 396178" width="750.797" height="0.646" transform="translate(34.589 413.134)" fill="#12263f"/>
      <path id="Trazado_634179" data-name="Trazado 634179" d="M191.281,383.313H51.411v21.353c-1.137-.956-3.223-1.062-5.2-.143-2.444,1.136-3.8,3.408-3.025,5.074s3.385,2.1,5.828.963c1.973-.917,3.237-2.572,3.244-4.056V391.345H97.526v13.321c-1.136-.956-3.22-1.062-5.2-.143-2.445,1.136-3.8,3.408-3.025,5.074s3.385,2.1,5.829.963c1.972-.917,3.235-2.572,3.241-4.056l0-.007v-.024l-.006-15.128h46.186v13.321c-1.135-.956-3.219-1.062-5.2-.143-2.446,1.136-3.8,3.408-3.025,5.074s3.385,2.1,5.829.963c1.972-.917,3.235-2.572,3.241-4.056l0-.007v-.024l-.006-15.128H190.44v13.321c-1.135-.956-3.22-1.062-5.2-.143-2.445,1.136-3.8,3.408-3.025,5.074s3.385,2.1,5.829.963c1.972-.917,3.235-2.572,3.241-4.056l0-.007v-.024l-.006-15.128m-99.7-3.061H52.26v-1.911H97.526v1.911Zm47.491,0h-40.7v-1.911h46.188v1.911Zm45.192,0H145.4v-1.911H190.44v1.911Zm7.018,0v-1.911" fill="#12263f"/>
      <path id="Trazado_634180" data-name="Trazado 634180" d="M376.533,383.313H236.663v21.353c-1.137-.956-3.223-1.062-5.2-.143-2.444,1.136-3.8,3.408-3.025,5.074s3.385,2.1,5.828.963c1.973-.917,3.237-2.572,3.244-4.056V391.345h45.266v13.321c-1.136-.956-3.22-1.062-5.2-.143-2.445,1.136-3.8,3.408-3.025,5.074s3.385,2.1,5.829.963c1.972-.917,3.235-2.572,3.241-4.056l0-.007v-.024l-.006-15.128h46.186v13.321c-1.135-.956-3.219-1.062-5.2-.143-2.446,1.136-3.8,3.408-3.025,5.074s3.385,2.1,5.829.963c1.972-.917,3.235-2.572,3.241-4.056l0-.007v-.024l-.006-15.128h45.039v13.321c-1.135-.956-3.22-1.062-5.2-.143-2.446,1.136-3.8,3.408-3.025,5.074s3.385,2.1,5.829.963c1.972-.917,3.235-2.572,3.241-4.056l0-.007v-.024l-.006-15.128m-99.7-3.061H237.512v-1.911h45.266v1.911Zm47.491,0h-40.7v-1.911h46.188v1.911Zm45.192,0H330.652v-1.911h45.041v1.911Zm7.018,0v-1.911" fill="#12263f"/>
      <path id="Trazado_634181" data-name="Trazado 634181" d="M563.154,383.313H423.284v21.353c-1.137-.956-3.223-1.062-5.2-.143-2.444,1.136-3.8,3.408-3.025,5.074s3.385,2.1,5.828.963c1.973-.917,3.237-2.572,3.244-4.056V391.345H469.4v13.321c-1.136-.956-3.22-1.062-5.2-.143-2.445,1.136-3.8,3.408-3.025,5.074s3.385,2.1,5.829.963c1.972-.917,3.235-2.572,3.241-4.056l0-.007v-.024l-.006-15.128h46.186v13.321c-1.135-.956-3.219-1.062-5.2-.143-2.446,1.136-3.8,3.408-3.025,5.074s3.385,2.1,5.829.963c1.972-.917,3.235-2.572,3.241-4.056l0-.007v-.024l-.006-15.128h45.039v13.321c-1.136-.956-3.22-1.062-5.2-.143-2.446,1.136-3.8,3.408-3.025,5.074s3.385,2.1,5.829.963c1.972-.917,3.235-2.572,3.241-4.056l0-.007v-.024l-.006-15.128m-99.7-3.061H424.133v-1.911H469.4v1.911Zm47.491,0h-40.7v-1.911h46.188v1.911Zm45.192,0H517.273v-1.911h45.041v1.911Zm7.018,0v-1.911" fill="#12263f"/>
      <path id="Trazado_634182" data-name="Trazado 634182" d="M748.776,383.313H608.906v21.353c-1.137-.956-3.223-1.062-5.2-.143-2.444,1.136-3.8,3.408-3.025,5.074s3.385,2.1,5.828.963c1.973-.917,3.237-2.572,3.244-4.056V391.345h45.266v13.321c-1.136-.956-3.22-1.062-5.2-.143-2.445,1.136-3.8,3.408-3.025,5.074s3.385,2.1,5.829.963c1.972-.917,3.235-2.572,3.241-4.056l0-.007v-.024l-.006-15.128h46.186v13.321c-1.135-.956-3.219-1.062-5.2-.143-2.446,1.136-3.8,3.408-3.025,5.074s3.385,2.1,5.829.963c1.972-.917,3.235-2.572,3.241-4.056l0-.007v-.024l-.006-15.128h45.039v13.321c-1.136-.956-3.22-1.062-5.2-.143-2.445,1.136-3.8,3.408-3.025,5.074s3.385,2.1,5.829.963c1.972-.917,3.235-2.572,3.241-4.056l0-.007v-.024l-.006-15.128m-99.7-3.061H609.755v-1.911h45.266v1.911Zm47.491,0h-40.7v-1.911h46.188v1.911Zm45.192,0H702.9v-1.911h45.041v1.911Zm7.018,0v-1.911" fill="#12263f"/>
      <rect id="Rectángulo_396179" data-name="Rectángulo 396179" width="750.797" height="0.62" transform="translate(34.589 483.481)" fill="#12263f"/>
      <rect id="Rectángulo_396180" data-name="Rectángulo 396180" width="750.797" height="0.62" transform="translate(34.589 489.676)" fill="#12263f"/>
      <rect id="Rectángulo_396181" data-name="Rectángulo 396181" width="750.797" height="0.62" transform="translate(34.589 495.871)" fill="#12263f"/>
      <rect id="Rectángulo_396182" data-name="Rectángulo 396182" width="750.797" height="0.619" transform="translate(34.589 502.067)" fill="#12263f"/>
      <rect id="Rectángulo_396183" data-name="Rectángulo 396183" width="750.797" height="0.619" transform="translate(34.589 508.263)" fill="#12263f"/>
      <path id="Trazado_634183" data-name="Trazado 634183" d="M401.223,490.04l-.005-14.366H237.536V499.24c-1.251-1.055-3.554-1.172-5.737-.158-2.7,1.253-4.192,3.761-3.337,5.6s3.734,2.317,6.432,1.063c2.178-1.012,3.571-2.839,3.578-4.476V490.04h22.452v9.2c-1.253-1.055-3.555-1.172-5.737-.158-2.7,1.253-4.192,3.761-3.34,5.6s3.738,2.317,6.434,1.063c2.178-1.012,3.573-2.839,3.58-4.476v-.034l0-11.194h22.467v9.2c-1.253-1.055-3.555-1.172-5.736-.158-2.7,1.253-4.192,3.761-3.341,5.6s3.738,2.317,6.434,1.063c2.178-1.012,3.573-2.839,3.58-4.476v-.034l0-11.194h21.731v9.045a4.343,4.343,0,0,0-2.468-.695,7.12,7.12,0,0,0-3.269.692c-2.7,1.253-4.192,3.761-3.34,5.6a3.617,3.617,0,0,0,3.551,1.754,7.152,7.152,0,0,0,3.111-.691c2.178-1.012,3.571-2.839,3.578-4.476V490.04h22.452v9.2c-1.253-1.055-3.555-1.172-5.736-.158-2.7,1.253-4.193,3.761-3.34,5.6s3.737,2.317,6.433,1.063c2.178-1.012,3.573-2.839,3.58-4.476v-.034l0-11.194h22.467v9.2c-1.252-1.055-3.555-1.172-5.736-.158-2.7,1.253-4.192,3.761-3.341,5.6s3.738,2.317,6.434,1.063c2.178-1.012,3.573-2.839,3.58-4.476v-.034l0-11.194h21.731v9.045a4.341,4.341,0,0,0-2.468-.695,7.125,7.125,0,0,0-3.269.692c-2.7,1.253-4.192,3.761-3.34,5.6a3.618,3.618,0,0,0,3.551,1.754,7.155,7.155,0,0,0,3.111-.691c2.179-1.012,3.571-2.839,3.578-4.476V490.04h22.452v9.2c-1.253-1.055-3.555-1.172-5.736-.158-2.7,1.253-4.192,3.761-3.341,5.6s3.738,2.317,6.434,1.063c2.178-1.012,3.573-2.839,3.58-4.476v-.034Zm-140.3-3.378H238.473v-2.124h22.452Zm0-5.5H238.473v-2.109h22.452Zm23.4,5.5H261.857v-2.124h22.469Zm0-5.5h-22.47v-2.109h22.471Zm22.665-2.109v2.109H285.257v-2.109Zm-21.732,7.611v-2.124h21.733v2.124Zm45.348,0H308.155v-2.124h22.452Zm0-5.5H308.155v-2.109h22.452Zm23.4,5.5H331.54v-2.124h22.469Zm0-5.5h-22.47v-2.109h22.471Zm22.665-2.109v2.109H354.939v-2.109Zm-21.732,7.611v-2.124h21.733v2.124Zm45.348,0H377.837v-2.124h22.452Zm0-5.5H377.837v-2.109h22.452Z" fill="#12263f"/>
      <path id="Trazado_634184" data-name="Trazado 634184" d="M586.845,490.04l0-14.366H423.158V499.24c-1.251-1.055-3.554-1.172-5.737-.158-2.7,1.253-4.192,3.761-3.337,5.6s3.734,2.317,6.432,1.063c2.178-1.012,3.571-2.839,3.578-4.476V490.04h22.452v9.2c-1.253-1.055-3.555-1.172-5.737-.158-2.7,1.253-4.192,3.761-3.34,5.6s3.738,2.317,6.433,1.063c2.179-1.012,3.574-2.839,3.581-4.476v-.034l0-11.194h22.467v9.2c-1.253-1.055-3.555-1.172-5.736-.158-2.7,1.253-4.192,3.761-3.341,5.6s3.738,2.317,6.434,1.063c2.178-1.012,3.573-2.839,3.58-4.476v-.034l0-11.194h21.731v9.045a4.343,4.343,0,0,0-2.468-.695,7.12,7.12,0,0,0-3.269.692c-2.7,1.253-4.192,3.761-3.34,5.6a3.617,3.617,0,0,0,3.551,1.754,7.155,7.155,0,0,0,3.111-.691c2.178-1.012,3.571-2.839,3.578-4.476V490.04h22.452v9.2c-1.253-1.055-3.555-1.172-5.736-.158-2.7,1.253-4.193,3.761-3.341,5.6s3.738,2.317,6.434,1.063c2.178-1.012,3.573-2.839,3.58-4.476v-.034l0-11.194H539.63v9.2c-1.253-1.055-3.555-1.172-5.736-.158-2.7,1.253-4.192,3.761-3.342,5.6s3.739,2.317,6.435,1.063c2.178-1.012,3.573-2.839,3.58-4.476v-.034l0-11.194h21.73v9.045a4.335,4.335,0,0,0-2.467-.695,7.132,7.132,0,0,0-3.27.692c-2.7,1.253-4.191,3.761-3.339,5.6a3.616,3.616,0,0,0,3.55,1.754,7.156,7.156,0,0,0,3.112-.691c2.179-1.012,3.571-2.839,3.578-4.476V490.04h22.453v9.2c-1.253-1.055-3.555-1.172-5.737-.158-2.7,1.253-4.191,3.761-3.341,5.6s3.739,2.317,6.435,1.063c2.177-1.012,3.573-2.839,3.58-4.476v-.034Zm-140.3-3.378H424.1v-2.124h22.452Zm0-5.5H424.1v-2.109h22.452Zm23.4,5.5H447.479v-2.124h22.469Zm0-5.5H447.477v-2.109h22.471Zm22.665-2.109v2.109H470.879v-2.109Zm-21.732,7.611v-2.124h21.733v2.124Zm45.348,0H493.777v-2.124h22.452Zm0-5.5H493.777v-2.109h22.452Zm23.4,5.5H517.161v-2.124H539.63Zm0-5.5H517.16v-2.109H539.63Zm22.664-2.109v2.109H540.561v-2.109Zm-21.731,7.611v-2.124h21.732v2.124Zm45.348,0H563.458v-2.124h22.453Zm0-5.5H563.458v-2.109h22.453Z" fill="#12263f"/>
      <path id="Trazado_634185" data-name="Trazado 634185" d="M772.466,490.04l-.005-14.366H608.779V499.24c-1.251-1.055-3.554-1.172-5.737-.158-2.7,1.253-4.192,3.761-3.337,5.6s3.734,2.317,6.432,1.063c2.178-1.012,3.571-2.839,3.578-4.476V490.04h22.452v9.2c-1.253-1.055-3.555-1.172-5.737-.158-2.7,1.253-4.192,3.761-3.34,5.6s3.738,2.317,6.433,1.063c2.179-1.012,3.574-2.839,3.581-4.476v-.034l0-11.194h22.467v9.2c-1.253-1.055-3.555-1.172-5.736-.158-2.7,1.253-4.192,3.761-3.341,5.6s3.738,2.317,6.434,1.063c2.178-1.012,3.573-2.839,3.58-4.476v-.034l0-11.194h21.731v9.045a4.343,4.343,0,0,0-2.468-.695,7.12,7.12,0,0,0-3.269.692c-2.7,1.253-4.192,3.761-3.34,5.6a3.617,3.617,0,0,0,3.551,1.754,7.155,7.155,0,0,0,3.111-.691c2.178-1.012,3.571-2.839,3.578-4.476V490.04H701.85v9.2c-1.253-1.055-3.555-1.172-5.736-.158-2.7,1.253-4.193,3.761-3.34,5.6s3.737,2.317,6.433,1.063c2.178-1.012,3.573-2.839,3.58-4.476v-.034l0-11.194h22.467v9.2c-1.252-1.055-3.555-1.172-5.736-.158-2.7,1.253-4.192,3.761-3.341,5.6s3.738,2.317,6.434,1.063c2.178-1.012,3.573-2.839,3.58-4.476v-.034l0-11.194h21.731v9.045a4.341,4.341,0,0,0-2.468-.695,7.125,7.125,0,0,0-3.269.692c-2.7,1.253-4.192,3.761-3.34,5.6a3.617,3.617,0,0,0,3.551,1.754,7.155,7.155,0,0,0,3.111-.691c2.179-1.012,3.571-2.839,3.578-4.476V490.04h22.452v9.2c-1.253-1.055-3.555-1.172-5.736-.158-2.7,1.253-4.192,3.761-3.341,5.6s3.738,2.317,6.434,1.063c2.178-1.012,3.573-2.839,3.58-4.476v-.034Zm-140.3-3.378H609.716v-2.124h22.452Zm0-5.5H609.716v-2.109h22.452Zm23.4,5.5H633.1v-2.124h22.469Zm0-5.5H633.1v-2.109h22.471Zm22.665-2.109v2.109H656.5v-2.109ZM656.5,486.662v-2.124h21.733v2.124Zm45.348,0H679.4v-2.124H701.85Zm0-5.5H679.4v-2.109H701.85Zm23.4,5.5H702.783v-2.124h22.469Zm0-5.5h-22.47v-2.109h22.471Zm22.665-2.109v2.109H726.182v-2.109Zm-21.732,7.611v-2.124h21.733v2.124Zm45.348,0H749.08v-2.124h22.452Zm0-5.5H749.08v-2.109h22.452Z" fill="#12263f"/>
      <path id="Trazado_634186" data-name="Trazado 634186" d="M214.972,490.04l-.005-14.366H51.285V499.24c-1.251-1.055-3.555-1.172-5.737-.158-2.7,1.253-4.193,3.761-3.337,5.6s3.734,2.317,6.432,1.063c2.178-1.012,3.571-2.839,3.578-4.476V490.04H74.674v9.2c-1.253-1.055-3.556-1.172-5.737-.158-2.7,1.253-4.192,3.761-3.34,5.6s3.738,2.317,6.434,1.063c2.178-1.012,3.573-2.839,3.58-4.476v-.034l0-11.194H98.075v9.2c-1.253-1.055-3.555-1.172-5.736-.158-2.7,1.253-4.192,3.761-3.341,5.6s3.738,2.317,6.434,1.063c2.178-1.012,3.573-2.839,3.58-4.476v-.034l0-11.194H120.74v9.045a4.343,4.343,0,0,0-2.468-.695,7.12,7.12,0,0,0-3.269.692c-2.7,1.253-4.192,3.761-3.34,5.6a3.617,3.617,0,0,0,3.551,1.754,7.152,7.152,0,0,0,3.111-.691c2.178-1.012,3.571-2.839,3.578-4.476V490.04h22.451v9.2c-1.252-1.055-3.554-1.172-5.735-.158-2.7,1.253-4.193,3.761-3.34,5.6s3.737,2.317,6.433,1.063c2.178-1.012,3.573-2.839,3.58-4.476v-.034l0-11.194h22.467v9.2c-1.252-1.055-3.555-1.172-5.736-.158-2.7,1.253-4.192,3.761-3.341,5.6s3.738,2.317,6.434,1.063c2.178-1.012,3.573-2.839,3.58-4.476v-.034l0-11.194h21.731v9.045a4.341,4.341,0,0,0-2.468-.695,7.125,7.125,0,0,0-3.269.692c-2.7,1.253-4.192,3.761-3.34,5.6a3.618,3.618,0,0,0,3.551,1.754,7.155,7.155,0,0,0,3.111-.691c2.179-1.012,3.571-2.839,3.578-4.476V490.04h22.452v9.2c-1.253-1.055-3.555-1.172-5.736-.158-2.7,1.253-4.192,3.761-3.341,5.6S208.7,507,211.4,505.744c2.178-1.012,3.572-2.839,3.58-4.476v-.034Zm-140.3-3.378H52.222v-2.124H74.674Zm0-5.5H52.222v-2.109H74.674Zm23.4,5.5H75.605v-2.124h22.47Zm0-5.5H75.605v-2.109H98.075Zm22.665-2.109v2.109H99.006v-2.109Zm-21.732,7.611v-2.124H120.74v2.124Zm45.347,0H121.9v-2.124h22.451Zm0-5.5H121.9v-2.109h22.451Zm23.4,5.5H145.289v-2.124h22.469Zm0-5.5H145.286v-2.109h22.471Zm22.665-2.109v2.109H168.688v-2.109Zm-21.732,7.611v-2.124h21.733v2.124Zm45.348,0H191.586v-2.124h22.452Zm0-5.5H191.586v-2.109h22.452Z" fill="#12263f"/>
      <rect id="Rectángulo_396184" data-name="Rectángulo 396184" width="750.797" height="0.653" transform="translate(34.589 582.89)" fill="#12263f"/>
      <rect id="Rectángulo_396185" data-name="Rectángulo 396185" width="750.797" height="0.652" transform="translate(34.589 589.414)" fill="#12263f"/>
      <rect id="Rectángulo_396186" data-name="Rectángulo 396186" width="750.797" height="0.652" transform="translate(34.589 595.937)" fill="#12263f"/>
      <rect id="Rectángulo_396187" data-name="Rectángulo 396187" width="750.797" height="0.652" transform="translate(34.589 602.459)" fill="#12263f"/>
      <rect id="Rectángulo_396188" data-name="Rectángulo 396188" width="750.797" height="0.652" transform="translate(34.589 608.983)" fill="#12263f"/>
      <path id="Trazado_634187" data-name="Trazado 634187" d="M230.6,570.775H54.992v28.866c-1.163-.978-3.3-1.087-5.322-.146-2.5,1.163-3.892,3.49-3.1,5.2s3.465,2.149,5.969.985c2.019-.938,3.312-2.633,3.319-4.153V589.208H66.369v10.433c-1.16-.978-3.3-1.087-5.321-.146-2.505,1.163-3.892,3.49-3.1,5.2s3.466,2.149,5.969.985c2.021-.938,3.313-2.633,3.319-4.153v-.031l0-12.284h11.23v10.433c-1.16-.978-3.3-1.087-5.322-.146-2.5,1.163-3.891,3.49-3.1,5.2s3.467,2.149,5.97.985c2.021-.938,3.313-2.633,3.319-4.153v-.031l0-12.284h10.6v10.406a3.835,3.835,0,0,0-2.328-.765,6.641,6.641,0,0,0-2.994.646c-2.5,1.163-3.892,3.49-3.1,5.2a3.319,3.319,0,0,0,3.209,1.633,6.691,6.691,0,0,0,2.8-.648c2.022-.938,3.313-2.633,3.319-4.153v-.031l0-12.284h10.469v10.433c-1.16-.978-3.295-1.087-5.321-.146-2.5,1.163-3.892,3.49-3.1,5.2s3.466,2.149,5.969.985c2.022-.938,3.313-2.633,3.319-4.153v-.031l0-12.284h11.23v10.433c-1.16-.978-3.3-1.087-5.322-.146-2.5,1.163-3.891,3.49-3.1,5.2s3.467,2.149,5.97.985c2.021-.938,3.313-2.633,3.319-4.153v-.031l0-12.284h10.6v10.406a3.835,3.835,0,0,0-2.328-.765,6.638,6.638,0,0,0-2.994.646c-2.5,1.163-3.892,3.49-3.1,5.2a3.319,3.319,0,0,0,3.209,1.633,6.7,6.7,0,0,0,2.8-.648c2.022-.938,3.313-2.633,3.319-4.153v-.031l0-12.284h10.469v10.433c-1.16-.978-3.3-1.087-5.321-.146-2.505,1.163-3.892,3.49-3.1,5.2s3.467,2.149,5.97.985c2.021-.938,3.313-2.633,3.319-4.153v-.031l0-12.284h11.23v10.433c-1.16-.978-3.3-1.087-5.322-.146-2.5,1.163-3.891,3.49-3.1,5.2s3.467,2.149,5.97.985c2.021-.938,3.313-2.633,3.319-4.153v-.031l0-12.284h10.6v10.406a3.837,3.837,0,0,0-2.328-.765,6.641,6.641,0,0,0-2.994.646c-2.5,1.163-3.892,3.49-3.1,5.2a3.319,3.319,0,0,0,3.209,1.633,6.7,6.7,0,0,0,2.8-.648c2.022-.938,3.313-2.633,3.319-4.153v-.031l0-12.284H171.2v10.433c-1.16-.978-3.3-1.087-5.321-.146-2.5,1.163-3.892,3.49-3.1,5.2s3.467,2.149,5.97.985c2.021-.938,3.313-2.633,3.319-4.153v-.031l0-12.284h11.23v10.433c-1.16-.978-3.3-1.087-5.322-.146-2.5,1.163-3.891,3.49-3.1,5.2s3.467,2.149,5.97.985c2.021-.938,3.312-2.633,3.319-4.153v-.031l0-12.284h10.593v10.4a3.848,3.848,0,0,0-2.327-.761,6.647,6.647,0,0,0-2.995.646c-2.5,1.163-3.892,3.49-3.1,5.2a3.319,3.319,0,0,0,3.212,1.633,6.7,6.7,0,0,0,2.8-.648c2.021-.938,3.313-2.633,3.319-4.153v-.031l0-12.284h10.463v10.433c-1.16-.978-3.3-1.087-5.321-.146-2.505,1.163-3.892,3.49-3.1,5.2s3.467,2.149,5.97.985c2.021-.938,3.313-2.633,3.319-4.153v-.031l0-12.284h11.23v10.433c-1.16-.978-3.3-1.087-5.322-.146-2.5,1.163-3.891,3.49-3.1,5.2s3.467,2.149,5.97.985c2.021-.938,3.312-2.633,3.319-4.153v-.031l0-12.284h10.64v10.433c-1.16-.978-3.295-1.087-5.322-.146-2.5,1.163-3.891,3.49-3.1,5.2s3.466,2.149,5.969.985c2.022-.938,3.313-2.633,3.319-4.153v-.031Zm-164.23,15.3H55.862V584.1H66.369Zm0-5.1H55.862V579H66.369Zm0-5.1H55.862v-1.957H66.369Zm12.1,10.208H67.236V584.1H78.467Zm0-5.1H67.234V579H78.467Zm0-5.1H67.233v-1.957H78.467Zm.863-1.957h10.6v1.957h-10.6Zm0,5.092h10.6v1.97h-10.6Zm0,7.073V584.1h10.6v1.969Zm21.977,0H90.841V584.1h10.47Zm0-5.1H90.84V579h10.472Zm0-5.1H90.838v-1.957h10.473Zm12.1,10.208H102.178V584.1h11.232Zm0-5.1H102.176V579h11.233Zm0-5.1H102.175v-1.957h11.235Zm.863-1.957h10.6v1.957h-10.6Zm0,5.092h10.6v1.97h-10.6Zm0,7.073V584.1h10.6v1.969Zm21.977,0h-10.47V584.1h10.471Zm0-5.1H125.782V579h10.472Zm0-5.1H125.78v-1.957h10.473Zm12.1,10.208H137.12V584.1h11.231Zm0-5.1H137.118V579h11.233Zm0-5.1H137.117v-1.957h11.235Zm.863-1.957h10.6v1.957h-10.6Zm0,5.092h10.6v1.97h-10.6Zm0,7.073V584.1h10.6v1.969Zm21.978,0h-10.47V584.1H171.2Zm0-5.1H160.724V579H171.2Zm0-5.1H160.722v-1.957H171.2Zm12.1,10.208H172.062V584.1h11.232Zm0-5.1H172.06V579h11.233Zm0-5.1H172.059v-1.957h11.235Zm.862-1.957h10.6v1.957h-10.6Zm0,5.092h10.6v1.97h-10.6Zm0,7.073V584.1h10.6v1.969Zm21.971,0H195.667V584.1h10.465Zm0-5.1H195.665V579h10.466Zm0-5.1H195.664v-1.957h10.467Zm12.1,10.208H207V584.1h11.232Zm0-5.1H207V579h11.233Zm0-5.1H206.995v-1.957h11.235Zm11.508,10.208H219.1V584.1h10.642Zm0-5.1H219.094V579h10.644Zm0-5.1H219.092v-1.957h10.646Z" fill="#12263f"/>
      <path id="Trazado_634188" data-name="Trazado 634188" d="M414.857,570.775H239.25v28.866c-1.163-.978-3.3-1.087-5.322-.146-2.5,1.163-3.892,3.49-3.1,5.2s3.465,2.149,5.969.985c2.019-.938,3.312-2.633,3.319-4.153V589.208h10.507v10.433c-1.16-.978-3.295-1.087-5.321-.146-2.505,1.163-3.892,3.49-3.1,5.2s3.466,2.149,5.969.985c2.021-.938,3.313-2.633,3.319-4.153v-.031l0-12.284h11.23v10.433c-1.16-.978-3.3-1.087-5.322-.146-2.5,1.163-3.891,3.49-3.1,5.2s3.467,2.149,5.97.985c2.021-.938,3.313-2.633,3.319-4.153v-.031l0-12.284h10.6v10.406a3.835,3.835,0,0,0-2.328-.765,6.641,6.641,0,0,0-2.994.646c-2.5,1.163-3.892,3.49-3.1,5.2a3.319,3.319,0,0,0,3.209,1.633,6.691,6.691,0,0,0,2.8-.648c2.022-.938,3.313-2.633,3.319-4.153v-.031l0-12.284h10.469v10.433c-1.16-.978-3.3-1.087-5.321-.146-2.5,1.163-3.892,3.49-3.1,5.2s3.466,2.149,5.969.985c2.022-.938,3.313-2.633,3.319-4.153v-.031l0-12.284h11.23v10.433c-1.16-.978-3.3-1.087-5.322-.146-2.5,1.163-3.891,3.49-3.1,5.2s3.467,2.149,5.97.985c2.021-.938,3.313-2.633,3.319-4.153v-.031l0-12.284h10.6v10.406a3.835,3.835,0,0,0-2.328-.765,6.638,6.638,0,0,0-2.994.646c-2.5,1.163-3.892,3.49-3.1,5.2a3.319,3.319,0,0,0,3.209,1.633,6.7,6.7,0,0,0,2.8-.648c2.022-.938,3.313-2.633,3.319-4.153v-.031l0-12.284h10.469v10.433c-1.16-.978-3.3-1.087-5.321-.146-2.505,1.163-3.892,3.49-3.1,5.2s3.467,2.149,5.97.985c2.021-.938,3.313-2.633,3.319-4.153v-.031l0-12.284h11.23v10.433c-1.16-.978-3.3-1.087-5.322-.146-2.5,1.163-3.891,3.49-3.1,5.2s3.467,2.149,5.97.985c2.021-.938,3.313-2.633,3.319-4.153v-.031l0-12.284h10.6v10.406a3.837,3.837,0,0,0-2.328-.765,6.641,6.641,0,0,0-2.994.646c-2.5,1.163-3.892,3.49-3.1,5.2a3.319,3.319,0,0,0,3.209,1.633,6.7,6.7,0,0,0,2.8-.648c2.022-.938,3.313-2.633,3.319-4.153v-.031l0-12.284h10.469v10.433c-1.16-.978-3.3-1.087-5.321-.146-2.5,1.163-3.892,3.49-3.1,5.2s3.467,2.149,5.97.985c2.021-.938,3.313-2.633,3.319-4.153v-.031l0-12.284h11.23v10.433c-1.16-.978-3.3-1.087-5.322-.146-2.5,1.163-3.891,3.49-3.1,5.2s3.467,2.149,5.97.985c2.021-.938,3.312-2.633,3.319-4.153v-.031l0-12.284h10.593v10.4a3.848,3.848,0,0,0-2.327-.761,6.647,6.647,0,0,0-2.995.646c-2.5,1.163-3.892,3.49-3.1,5.2a3.319,3.319,0,0,0,3.212,1.633,6.7,6.7,0,0,0,2.8-.648c2.021-.938,3.313-2.633,3.319-4.153v-.031l0-12.284h10.463v10.433c-1.16-.978-3.3-1.087-5.321-.146-2.505,1.163-3.892,3.49-3.1,5.2s3.467,2.149,5.97.985c2.021-.938,3.313-2.633,3.319-4.153v-.031l0-12.284h11.23v10.433c-1.16-.978-3.3-1.087-5.322-.146-2.5,1.163-3.891,3.49-3.1,5.2s3.467,2.149,5.97.985c2.021-.938,3.312-2.633,3.319-4.153v-.031l0-12.284h10.64v10.433c-1.16-.978-3.295-1.087-5.322-.146-2.5,1.163-3.891,3.49-3.1,5.2s3.466,2.149,5.969.985c2.022-.938,3.313-2.633,3.319-4.153v-.031Zm-164.23,15.3H240.12V584.1h10.507Zm0-5.1H240.12V579h10.507Zm0-5.1H240.12v-1.957h10.507Zm12.1,10.208H251.494V584.1h11.231Zm0-5.1H251.492V579h11.233Zm0-5.1H251.491v-1.957h11.235Zm.863-1.957h10.6v1.957h-10.6Zm0,5.092h10.6v1.97h-10.6Zm0,7.073V584.1h10.6v1.969Zm21.977,0H275.1V584.1h10.47Zm0-5.1H275.1V579h10.472Zm0-5.1H275.1v-1.957h10.473Zm12.1,10.208H286.436V584.1h11.232Zm0-5.1H286.434V579h11.233Zm0-5.1H286.433v-1.957h11.235Zm.863-1.957h10.6v1.957h-10.6Zm0,5.092h10.6v1.97h-10.6Zm0,7.073V584.1h10.6v1.969Zm21.977,0h-10.47V584.1h10.471Zm0-5.1H310.04V579h10.472Zm0-5.1H310.038v-1.957h10.473Zm12.1,10.208H321.378V584.1h11.231Zm0-5.1H321.376V579h11.233Zm0-5.1H321.375v-1.957h11.235Zm.863-1.957h10.6v1.957h-10.6Zm0,5.092h10.6v1.97h-10.6Zm0,7.073V584.1h10.6v1.969Zm21.978,0h-10.47V584.1h10.47Zm0-5.1H344.982V579h10.472Zm0-5.1H344.98v-1.957h10.473Zm12.1,10.208H356.32V584.1h11.232Zm0-5.1H356.318V579h11.233Zm0-5.1H356.317v-1.957h11.235Zm.862-1.957h10.6v1.957h-10.6Zm0,5.092h10.6v1.97h-10.6Zm0,7.073V584.1h10.6v1.969Zm21.971,0H379.925V584.1h10.465Zm0-5.1H379.923V579h10.466Zm0-5.1H379.922v-1.957h10.467Zm12.1,10.208H391.256V584.1h11.232Zm0-5.1H391.254V579h11.233Zm0-5.1H391.253v-1.957h11.235Zm11.508,10.208H403.354V584.1h10.642Zm0-5.1H403.352V579h10.644Zm0-5.1H403.35v-1.957h10.646Z" fill="#12263f"/>
      <path id="Trazado_634189" data-name="Trazado 634189" d="M601.144,570.775H425.537v28.866c-1.163-.978-3.3-1.087-5.322-.146-2.5,1.163-3.892,3.49-3.1,5.2s3.465,2.149,5.969.985c2.019-.938,3.312-2.633,3.319-4.153V589.208h10.507v10.433c-1.16-.978-3.3-1.087-5.321-.146-2.5,1.163-3.892,3.49-3.1,5.2s3.466,2.149,5.969.985c2.021-.938,3.313-2.633,3.319-4.153v-.031l0-12.284h11.23v10.433c-1.16-.978-3.3-1.087-5.322-.146-2.5,1.163-3.891,3.49-3.1,5.2s3.467,2.149,5.97.985c2.021-.938,3.313-2.633,3.319-4.153v-.031l0-12.284h10.6v10.406a3.835,3.835,0,0,0-2.328-.765,6.641,6.641,0,0,0-2.994.646c-2.5,1.163-3.892,3.49-3.1,5.2a3.319,3.319,0,0,0,3.209,1.633,6.691,6.691,0,0,0,2.8-.648c2.022-.938,3.313-2.633,3.319-4.153v-.031l0-12.284h10.469v10.433c-1.16-.978-3.295-1.087-5.321-.146-2.505,1.163-3.892,3.49-3.1,5.2s3.466,2.149,5.969.985c2.022-.938,3.313-2.633,3.319-4.153v-.031l0-12.284h11.23v10.433c-1.16-.978-3.3-1.087-5.322-.146-2.5,1.163-3.891,3.49-3.1,5.2s3.467,2.149,5.97.985c2.021-.938,3.313-2.633,3.319-4.153v-.031l0-12.284h10.6v10.406a3.835,3.835,0,0,0-2.328-.765,6.638,6.638,0,0,0-2.994.646c-2.5,1.163-3.892,3.49-3.1,5.2a3.319,3.319,0,0,0,3.209,1.633,6.694,6.694,0,0,0,2.8-.648c2.022-.938,3.313-2.633,3.319-4.153v-.031l0-12.284H506.8v10.433c-1.16-.978-3.3-1.087-5.321-.146-2.505,1.163-3.892,3.49-3.1,5.2s3.467,2.149,5.97.985c2.021-.938,3.313-2.633,3.319-4.153v-.031l0-12.284H518.9v10.433c-1.16-.978-3.3-1.087-5.322-.146-2.5,1.163-3.891,3.49-3.1,5.2s3.467,2.149,5.97.985c2.021-.938,3.313-2.633,3.32-4.153v-.031l0-12.284h10.6v10.406a3.837,3.837,0,0,0-2.328-.765,6.634,6.634,0,0,0-2.993.646c-2.505,1.163-3.893,3.49-3.1,5.2a3.319,3.319,0,0,0,3.209,1.633,6.7,6.7,0,0,0,2.8-.648c2.022-.938,3.313-2.633,3.319-4.153v-.031l0-12.284H541.74v10.433c-1.16-.978-3.3-1.087-5.321-.146-2.505,1.163-3.892,3.49-3.1,5.2s3.467,2.149,5.97.985c2.021-.938,3.313-2.633,3.319-4.153v-.031l0-12.284h11.231v10.433c-1.161-.978-3.3-1.087-5.323-.146-2.5,1.163-3.891,3.49-3.1,5.2s3.467,2.149,5.97.985c2.021-.938,3.312-2.633,3.319-4.153v-.031l0-12.284H565.3v10.4a3.848,3.848,0,0,0-2.327-.761,6.648,6.648,0,0,0-2.995.646c-2.5,1.163-3.892,3.49-3.1,5.2a3.319,3.319,0,0,0,3.212,1.633,6.7,6.7,0,0,0,2.8-.648c2.021-.938,3.313-2.633,3.319-4.153v-.031l0-12.284h10.462v10.433c-1.16-.978-3.3-1.087-5.321-.146-2.505,1.163-3.891,3.49-3.1,5.2s3.467,2.149,5.97.985c2.021-.938,3.313-2.633,3.319-4.153v-.031l0-12.284h11.23v10.433c-1.16-.978-3.3-1.087-5.322-.146-2.5,1.163-3.891,3.49-3.1,5.2s3.467,2.149,5.97.985c2.021-.938,3.312-2.633,3.319-4.153v-.031l0-12.284h10.64v10.433c-1.16-.978-3.295-1.087-5.322-.146-2.5,1.163-3.891,3.49-3.1,5.2s3.466,2.149,5.969.985c2.022-.938,3.313-2.633,3.319-4.153v-.031Zm-164.23,15.3H426.407V584.1h10.507Zm0-5.1H426.407V579h10.507Zm0-5.1H426.407v-1.957h10.507Zm12.1,10.208H437.781V584.1h11.231Zm0-5.1H437.779V579h11.233Zm0-5.1H437.778v-1.957h11.235Zm.863-1.957h10.6v1.957h-10.6Zm0,5.092h10.6v1.97h-10.6Zm0,7.073V584.1h10.6v1.969Zm21.977,0h-10.47V584.1h10.47Zm0-5.1H461.385V579h10.472Zm0-5.1H461.383v-1.957h10.473Zm12.1,10.208H472.723V584.1h11.232Zm0-5.1H472.721V579h11.233Zm0-5.1H472.72v-1.957h11.235Zm.863-1.957h10.6v1.957h-10.6Zm0,5.092h10.6v1.97h-10.6Zm0,7.073V584.1h10.6v1.969Zm21.977,0h-10.47V584.1H506.8Zm0-5.1H496.327V579H506.8Zm0-5.1H496.325v-1.957H506.8Zm12.1,10.208H507.665V584.1H518.9Zm0-5.1H507.663V579H518.9Zm0-5.1H507.662v-1.957H518.9Zm.863-1.957h10.6v1.957h-10.6Zm0,5.092h10.6v1.97h-10.6Zm0,7.073V584.1h10.6v1.969Zm21.978,0H531.27V584.1h10.47Zm0-5.1H531.269V579H541.74Zm0-5.1H531.267v-1.957H541.74Zm12.1,10.208H542.607V584.1h11.233Zm0-5.1H542.6V579h11.234Zm0-5.1H542.6v-1.957h11.236Zm.861-1.957h10.6v1.957H554.7Zm0,5.092h10.6v1.97H554.7Zm0,7.073V584.1h10.6v1.969Zm21.971,0H566.212V584.1h10.465Zm0-5.1H566.21V579h10.466Zm0-5.1H566.209v-1.957h10.467Zm12.1,10.208H577.543V584.1h11.232Zm0-5.1H577.541V579h11.233Zm0-5.1H577.54v-1.957h11.235Zm11.508,10.208H589.641V584.1h10.642Zm0-5.1H589.639V579h10.644Zm0-5.1H589.637v-1.957h10.646Z" fill="#12263f"/>
      <path id="Trazado_634190" data-name="Trazado 634190" d="M785.4,570.775H609.795v28.866c-1.163-.978-3.3-1.087-5.322-.146-2.5,1.163-3.892,3.49-3.1,5.2s3.465,2.149,5.969.985c2.019-.938,3.312-2.633,3.319-4.153V589.208h10.507v10.433c-1.16-.978-3.295-1.087-5.321-.146-2.505,1.163-3.892,3.49-3.1,5.2s3.466,2.149,5.969.985c2.021-.938,3.313-2.633,3.319-4.153v-.031l0-12.284h11.23v10.433c-1.16-.978-3.3-1.087-5.322-.146-2.5,1.163-3.891,3.49-3.1,5.2s3.467,2.149,5.97.985c2.021-.938,3.313-2.633,3.319-4.153v-.031l0-12.284h10.6v10.406a3.835,3.835,0,0,0-2.328-.765,6.641,6.641,0,0,0-2.994.646c-2.5,1.163-3.892,3.49-3.1,5.2a3.319,3.319,0,0,0,3.209,1.633,6.691,6.691,0,0,0,2.8-.648c2.022-.938,3.313-2.633,3.319-4.153v-.031l0-12.284h10.469v10.433c-1.16-.978-3.3-1.087-5.321-.146-2.505,1.163-3.892,3.49-3.1,5.2s3.466,2.149,5.969.985c2.022-.938,3.313-2.633,3.319-4.153v-.031l0-12.284h11.23v10.433c-1.16-.978-3.3-1.087-5.322-.146-2.5,1.163-3.891,3.49-3.1,5.2s3.467,2.149,5.97.985c2.021-.938,3.313-2.633,3.319-4.153v-.031l0-12.284h10.6v10.406a3.835,3.835,0,0,0-2.328-.765,6.638,6.638,0,0,0-2.994.646c-2.5,1.163-3.892,3.49-3.1,5.2a3.319,3.319,0,0,0,3.209,1.633,6.7,6.7,0,0,0,2.8-.648c2.022-.938,3.313-2.633,3.319-4.153v-.031l0-12.284h10.469v10.433c-1.16-.978-3.3-1.087-5.321-.146-2.505,1.163-3.892,3.49-3.1,5.2s3.467,2.149,5.97.985c2.021-.938,3.313-2.633,3.319-4.153v-.031l0-12.284h11.23v10.433c-1.16-.978-3.3-1.087-5.322-.146-2.5,1.163-3.891,3.49-3.1,5.2s3.467,2.149,5.97.985c2.021-.938,3.313-2.633,3.319-4.153v-.031l0-12.284h10.6v10.406a3.837,3.837,0,0,0-2.328-.765,6.641,6.641,0,0,0-2.994.646c-2.5,1.163-3.892,3.49-3.1,5.2a3.319,3.319,0,0,0,3.209,1.633,6.7,6.7,0,0,0,2.8-.648c2.022-.938,3.313-2.633,3.319-4.153v-.031l0-12.284H726v10.433c-1.16-.978-3.3-1.087-5.321-.146-2.505,1.163-3.892,3.49-3.1,5.2s3.467,2.149,5.97.985c2.021-.938,3.313-2.633,3.319-4.153v-.031l0-12.284H738.1v10.433c-1.16-.978-3.3-1.087-5.322-.146-2.5,1.163-3.891,3.49-3.1,5.2s3.467,2.149,5.97.985c2.021-.938,3.312-2.633,3.319-4.153v-.031l0-12.284h10.593v10.4a3.848,3.848,0,0,0-2.327-.761,6.648,6.648,0,0,0-2.995.646c-2.5,1.163-3.892,3.49-3.1,5.2a3.319,3.319,0,0,0,3.212,1.633,6.7,6.7,0,0,0,2.8-.648c2.021-.938,3.313-2.633,3.319-4.153v-.031l0-12.284h10.463v10.433c-1.16-.978-3.3-1.087-5.321-.146-2.505,1.163-3.892,3.49-3.1,5.2s3.467,2.149,5.97.985c2.021-.938,3.313-2.633,3.319-4.153v-.031l0-12.284h11.23v10.433c-1.16-.978-3.3-1.087-5.322-.146-2.5,1.163-3.891,3.49-3.1,5.2s3.467,2.149,5.97.985c2.021-.938,3.312-2.633,3.319-4.153v-.031l0-12.284h10.64v10.433c-1.16-.978-3.295-1.087-5.322-.146-2.5,1.163-3.891,3.49-3.1,5.2s3.466,2.149,5.969.985c2.022-.938,3.313-2.633,3.319-4.153v-.031Zm-164.23,15.3H610.665V584.1h10.507Zm0-5.1H610.665V579h10.507Zm0-5.1H610.665v-1.957h10.507Zm12.1,10.208H622.039V584.1H633.27Zm0-5.1H622.037V579H633.27Zm0-5.1H622.036v-1.957H633.27Zm.863-1.957h10.6v1.957h-10.6Zm0,5.092h10.6v1.97h-10.6Zm0,7.073V584.1h10.6v1.969Zm21.977,0h-10.47V584.1h10.47Zm0-5.1H645.643V579h10.472Zm0-5.1H645.641v-1.957h10.473Zm12.1,10.208H656.981V584.1h11.232Zm0-5.1H656.979V579h11.233Zm0-5.1H656.978v-1.957h11.235Zm.863-1.957h10.6v1.957h-10.6Zm0,5.092h10.6v1.97h-10.6Zm0,7.073V584.1h10.6v1.969Zm21.977,0h-10.47V584.1h10.471Zm0-5.1H680.585V579h10.472Zm0-5.1H680.583v-1.957h10.473Zm12.1,10.208H691.923V584.1h11.231Zm0-5.1H691.921V579h11.233Zm0-5.1H691.92v-1.957h11.235Zm.863-1.957h10.6v1.957h-10.6Zm0,5.092h10.6v1.97h-10.6Zm0,7.073V584.1h10.6v1.969Zm21.978,0h-10.47V584.1H726Zm0-5.1H715.527V579H726Zm0-5.1H715.525v-1.957H726Zm12.1,10.208H726.865V584.1H738.1Zm0-5.1H726.863V579H738.1Zm0-5.1H726.862v-1.957H738.1Zm.862-1.957h10.6v1.957h-10.6Zm0,5.092h10.6v1.97h-10.6Zm0,7.073V584.1h10.6v1.969Zm21.971,0H750.47V584.1h10.465Zm0-5.1H750.468V579h10.466Zm0-5.1H750.467v-1.957h10.467Zm12.1,10.208H761.8V584.1h11.232Zm0-5.1H761.8V579h11.233Zm0-5.1H761.8v-1.957h11.235Zm11.508,10.208H773.9V584.1H784.54Zm0-5.1H773.9V579H784.54Zm0-5.1H773.9v-1.957H784.54Z" fill="#12263f"/>
    </g>
  </g>
  <path id="Trazado_634843" data-name="Trazado 634843" d="M5.336-4.375h-2.2V0H1.156V-11.375h4a4.653,4.653,0,0,1,3.039.884,3.126,3.126,0,0,1,1.07,2.557,3.2,3.2,0,0,1-.551,1.912A3.5,3.5,0,0,1,7.18-4.838L9.734-.1V0H7.617Zm-2.2-1.594H5.164a2.259,2.259,0,0,0,1.563-.5,1.757,1.757,0,0,0,.563-1.379,1.871,1.871,0,0,0-.52-1.414,2.207,2.207,0,0,0-1.551-.516H3.133ZM14.68.156A3.928,3.928,0,0,1,11.754-.98a4.124,4.124,0,0,1-1.121-3.027v-.234A5.072,5.072,0,0,1,11.121-6.5a3.716,3.716,0,0,1,1.371-1.551,3.625,3.625,0,0,1,1.969-.555,3.318,3.318,0,0,1,2.668,1.1,4.658,4.658,0,0,1,.941,3.117v.766H12.547a2.539,2.539,0,0,0,.7,1.656,2.1,2.1,0,0,0,1.543.609,2.571,2.571,0,0,0,2.125-1.055l1.023.977A3.418,3.418,0,0,1,16.582-.262,4.244,4.244,0,0,1,14.68.156Zm-.227-7.242a1.6,1.6,0,0,0-1.262.547,2.835,2.835,0,0,0-.613,1.523H16.2v-.141A2.307,2.307,0,0,0,15.688-6.6,1.586,1.586,0,0,0,14.453-7.086Zm4.734,2.8a5.026,5.026,0,0,1,.906-3.137,2.9,2.9,0,0,1,2.43-1.184,2.759,2.759,0,0,1,2.172.938V-12h1.9V0H24.875l-.094-.875A2.8,2.8,0,0,1,22.508.156a2.887,2.887,0,0,1-2.4-1.2A5.21,5.21,0,0,1,19.188-4.289Zm1.9.164a3.519,3.519,0,0,0,.5,2.012,1.61,1.61,0,0,0,1.41.723A1.793,1.793,0,0,0,24.7-2.43V-6.039a1.766,1.766,0,0,0-1.687-1.016,1.622,1.622,0,0,0-1.422.73A3.918,3.918,0,0,0,21.086-4.125Zm7.133-.18a4.984,4.984,0,0,1,.492-2.238,3.6,3.6,0,0,1,1.383-1.531,3.9,3.9,0,0,1,2.047-.535,3.692,3.692,0,0,1,2.777,1.1A4.333,4.333,0,0,1,36.07-4.586l.008.445a5.029,5.029,0,0,1-.48,2.234A3.551,3.551,0,0,1,34.223-.383a3.925,3.925,0,0,1-2.066.539,3.667,3.667,0,0,1-2.863-1.191,4.563,4.563,0,0,1-1.074-3.176Zm1.9.164A3.406,3.406,0,0,0,30.656-2.1a1.752,1.752,0,0,0,1.5.738,1.733,1.733,0,0,0,1.5-.75,3.762,3.762,0,0,0,.535-2.2,3.362,3.362,0,0,0-.551-2.031,1.759,1.759,0,0,0-1.5-.75,1.743,1.743,0,0,0-1.477.738A3.691,3.691,0,0,0,30.117-4.141Zm9.328-4.312.055.977a3.039,3.039,0,0,1,2.461-1.133q2.641,0,2.688,3.023V0h-1.9V-5.477A1.741,1.741,0,0,0,42.4-6.668a1.462,1.462,0,0,0-1.137-.387,1.829,1.829,0,0,0-1.711,1.039V0h-1.9V-8.453Zm6.781,4.164a5.026,5.026,0,0,1,.906-3.137,2.9,2.9,0,0,1,2.43-1.184,2.759,2.759,0,0,1,2.172.938V-12h1.9V0H51.914L51.82-.875A2.8,2.8,0,0,1,49.547.156a2.887,2.887,0,0,1-2.4-1.2A5.21,5.21,0,0,1,46.227-4.289Zm1.9.164a3.519,3.519,0,0,0,.5,2.012,1.61,1.61,0,0,0,1.41.723,1.793,1.793,0,0,0,1.7-1.039V-6.039a1.766,1.766,0,0,0-1.687-1.016,1.622,1.622,0,0,0-1.422.73A3.919,3.919,0,0,0,48.125-4.125ZM60.664,0a2.93,2.93,0,0,1-.219-.789,2.955,2.955,0,0,1-2.219.945A2.982,2.982,0,0,1,56.148-.57a2.325,2.325,0,0,1-.8-1.8,2.4,2.4,0,0,1,1-2.074,4.865,4.865,0,0,1,2.871-.723h1.164v-.555a1.481,1.481,0,0,0-.367-1.051A1.456,1.456,0,0,0,58.9-7.164a1.672,1.672,0,0,0-1.062.324,1,1,0,0,0-.414.824h-1.9a2.107,2.107,0,0,1,.461-1.3,3.071,3.071,0,0,1,1.254-.949,4.4,4.4,0,0,1,1.77-.344,3.547,3.547,0,0,1,2.367.746,2.661,2.661,0,0,1,.906,2.1v3.813a4.321,4.321,0,0,0,.32,1.82V0ZM58.578-1.367a2.16,2.16,0,0,0,1.059-.273,1.827,1.827,0,0,0,.746-.734V-3.969H59.359a2.8,2.8,0,0,0-1.586.367,1.189,1.189,0,0,0-.531,1.039,1.109,1.109,0,0,0,.363.871A1.407,1.407,0,0,0,58.578-1.367Z" transform="translate(37.526 67.312)"/>
  <path id="Trazado_634844" data-name="Trazado 634844" d="M1.156,0V-11.375h3.9a4.76,4.76,0,0,1,2.938.773A2.724,2.724,0,0,1,9-8.3a2.456,2.456,0,0,1-.422,1.406,2.715,2.715,0,0,1-1.234.969A2.511,2.511,0,0,1,8.77-4.98a2.742,2.742,0,0,1,.5,1.66A3.028,3.028,0,0,1,8.246-.859,4.467,4.467,0,0,1,5.3,0ZM3.133-5.133v3.555h2.2a2.124,2.124,0,0,0,1.453-.461A1.618,1.618,0,0,0,7.3-3.32,1.623,1.623,0,0,0,5.492-5.133Zm0-1.453H5.07A2.241,2.241,0,0,0,6.512-7a1.432,1.432,0,0,0,.52-1.184,1.452,1.452,0,0,0-.48-1.219,2.426,2.426,0,0,0-1.5-.375H3.133ZM13.086,0h-1.9V-12h1.9ZM20.2,0a2.93,2.93,0,0,1-.219-.789,2.955,2.955,0,0,1-2.219.945A2.982,2.982,0,0,1,15.688-.57a2.325,2.325,0,0,1-.8-1.8,2.4,2.4,0,0,1,1-2.074,4.865,4.865,0,0,1,2.871-.723h1.164v-.555a1.481,1.481,0,0,0-.367-1.051,1.456,1.456,0,0,0-1.117-.395,1.672,1.672,0,0,0-1.062.324,1,1,0,0,0-.414.824h-1.9a2.107,2.107,0,0,1,.461-1.3,3.071,3.071,0,0,1,1.254-.949,4.4,4.4,0,0,1,1.77-.344,3.547,3.547,0,0,1,2.367.746,2.661,2.661,0,0,1,.906,2.1v3.813a4.321,4.321,0,0,0,.32,1.82V0ZM18.117-1.367a2.159,2.159,0,0,0,1.059-.273,1.827,1.827,0,0,0,.746-.734V-3.969H18.9a2.8,2.8,0,0,0-1.586.367,1.189,1.189,0,0,0-.531,1.039,1.109,1.109,0,0,0,.363.871A1.407,1.407,0,0,0,18.117-1.367ZM25.57-8.453l.055.977a3.039,3.039,0,0,1,2.461-1.133q2.641,0,2.688,3.023V0h-1.9V-5.477a1.741,1.741,0,0,0-.348-1.191,1.462,1.462,0,0,0-1.137-.387A1.829,1.829,0,0,0,25.68-6.016V0h-1.9V-8.453ZM36.18-1.359a1.716,1.716,0,0,0,1.18-.414,1.415,1.415,0,0,0,.5-1.023h1.789a2.789,2.789,0,0,1-.492,1.473,3.228,3.228,0,0,1-1.25,1.082,3.725,3.725,0,0,1-1.7.4A3.6,3.6,0,0,1,33.391-.992a4.555,4.555,0,0,1-1.039-3.172v-.2a4.479,4.479,0,0,1,1.031-3.09A3.571,3.571,0,0,1,36.2-8.609a3.473,3.473,0,0,1,2.457.879,3.148,3.148,0,0,1,1,2.309H37.859a1.738,1.738,0,0,0-.5-1.2,1.6,1.6,0,0,0-1.184-.469,1.671,1.671,0,0,0-1.422.668,3.408,3.408,0,0,0-.508,2.027v.3a3.465,3.465,0,0,0,.5,2.051A1.669,1.669,0,0,0,36.18-1.359ZM46.133,0a2.93,2.93,0,0,1-.219-.789A2.955,2.955,0,0,1,43.7.156,2.982,2.982,0,0,1,41.617-.57a2.325,2.325,0,0,1-.8-1.8,2.4,2.4,0,0,1,1-2.074,4.865,4.865,0,0,1,2.871-.723h1.164v-.555a1.481,1.481,0,0,0-.367-1.051,1.456,1.456,0,0,0-1.117-.395A1.672,1.672,0,0,0,43.3-6.84a1,1,0,0,0-.414.824h-1.9a2.107,2.107,0,0,1,.461-1.3,3.071,3.071,0,0,1,1.254-.949,4.4,4.4,0,0,1,1.77-.344,3.547,3.547,0,0,1,2.367.746,2.661,2.661,0,0,1,.906,2.1v3.813a4.321,4.321,0,0,0,.32,1.82V0ZM44.047-1.367a2.16,2.16,0,0,0,1.059-.273,1.827,1.827,0,0,0,.746-.734V-3.969H44.828a2.8,2.8,0,0,0-1.586.367,1.189,1.189,0,0,0-.531,1.039,1.109,1.109,0,0,0,.363.871A1.407,1.407,0,0,0,44.047-1.367Zm9.7-3.258a11.9,11.9,0,0,1,.484-3.426,9.4,9.4,0,0,1,1.422-2.9,5.646,5.646,0,0,1,1.984-1.793l.375,1.109A5.8,5.8,0,0,0,56.23-9.082a11.424,11.424,0,0,0-.746,3.926l-.008.672a12.42,12.42,0,0,0,.668,4.223,6.224,6.224,0,0,0,1.871,2.824l-.375,1.055a5.655,5.655,0,0,1-1.988-1.8,9.4,9.4,0,0,1-1.422-2.9A12.374,12.374,0,0,1,53.75-4.625ZM66.828,0H59.18V-1.3l3.789-4.133a9.435,9.435,0,0,0,1.168-1.527,2.475,2.475,0,0,0,.348-1.23,1.87,1.87,0,0,0-.457-1.312,1.585,1.585,0,0,0-1.23-.5,1.827,1.827,0,0,0-1.43.563,2.212,2.212,0,0,0-.508,1.539h-1.9a3.721,3.721,0,0,1,.473-1.871,3.255,3.255,0,0,1,1.352-1.293,4.3,4.3,0,0,1,2.027-.461,3.848,3.848,0,0,1,2.613.832,2.888,2.888,0,0,1,.957,2.3,3.9,3.9,0,0,1-.48,1.785,10.151,10.151,0,0,1-1.574,2.121L61.547-1.516h5.281Zm5.227-4.5a11.754,11.754,0,0,1-.477,3.348,9.485,9.485,0,0,1-1.445,2.938,5.66,5.66,0,0,1-2.023,1.832l-.375-1.055A6,6,0,0,0,69.59-.207a12.3,12.3,0,0,0,.684-4.254v-.18A12.484,12.484,0,0,0,69.68-8.6a6.98,6.98,0,0,0-1.7-2.863l-.242-.219.375-1.062a5.6,5.6,0,0,1,1.938,1.719,9.326,9.326,0,0,1,1.438,2.762,11.5,11.5,0,0,1,.563,3.152Z" transform="translate(37.526 161.728)"/>
  <path id="Trazado_634845" data-name="Trazado 634845" d="M10.18,0H8.2L3.133-8.07V0H1.156V-11.375H3.133l5.086,8.1v-8.1H10.18Zm5.875.156A3.928,3.928,0,0,1,13.129-.98a4.124,4.124,0,0,1-1.121-3.027v-.234A5.072,5.072,0,0,1,12.5-6.5a3.716,3.716,0,0,1,1.371-1.551,3.625,3.625,0,0,1,1.969-.555,3.318,3.318,0,0,1,2.668,1.1,4.658,4.658,0,0,1,.941,3.117v.766H13.922a2.539,2.539,0,0,0,.7,1.656,2.1,2.1,0,0,0,1.543.609,2.571,2.571,0,0,0,2.125-1.055l1.023.977A3.418,3.418,0,0,1,17.957-.262,4.244,4.244,0,0,1,16.055.156Zm-.227-7.242a1.6,1.6,0,0,0-1.262.547,2.835,2.835,0,0,0-.613,1.523H17.57v-.141A2.307,2.307,0,0,0,17.063-6.6,1.586,1.586,0,0,0,15.828-7.086Zm4.758,2.8a4.944,4.944,0,0,1,.926-3.145,2.971,2.971,0,0,1,2.457-1.176A2.784,2.784,0,0,1,26.242-7.6l.086-.852h1.711v8.2A3.406,3.406,0,0,1,27,2.367a3.943,3.943,0,0,1-2.793.961,4.5,4.5,0,0,1-1.816-.387A3.227,3.227,0,0,1,21.047,1.93l.9-1.141A2.713,2.713,0,0,0,24.1,1.828a2.1,2.1,0,0,0,1.492-.512,1.961,1.961,0,0,0,.547-1.5v-.57a2.8,2.8,0,0,1-2.187.914,2.964,2.964,0,0,1-2.426-1.18A5.1,5.1,0,0,1,20.586-4.289Zm1.891.164a3.4,3.4,0,0,0,.52,2,1.671,1.671,0,0,0,1.441.73,1.827,1.827,0,0,0,1.7-.984V-6.094a1.8,1.8,0,0,0-1.687-.961A1.677,1.677,0,0,0,23-6.312,3.811,3.811,0,0,0,22.477-4.125ZM34.414-6.719a4.7,4.7,0,0,0-.773-.062,1.741,1.741,0,0,0-1.758,1V0h-1.9V-8.453H31.8l.047.945a2.139,2.139,0,0,1,1.906-1.1,1.777,1.777,0,0,1,.672.109ZM40.19,0a2.93,2.93,0,0,1-.219-.789,2.955,2.955,0,0,1-2.219.945A2.982,2.982,0,0,1,35.674-.57a2.325,2.325,0,0,1-.8-1.8,2.4,2.4,0,0,1,1-2.074,4.865,4.865,0,0,1,2.871-.723h1.164v-.555a1.481,1.481,0,0,0-.367-1.051,1.456,1.456,0,0,0-1.117-.395,1.672,1.672,0,0,0-1.062.324,1,1,0,0,0-.414.824h-1.9a2.107,2.107,0,0,1,.461-1.3,3.071,3.071,0,0,1,1.254-.949,4.4,4.4,0,0,1,1.77-.344,3.547,3.547,0,0,1,2.367.746,2.661,2.661,0,0,1,.906,2.1v3.813a4.321,4.321,0,0,0,.32,1.82V0ZM38.1-1.367a2.16,2.16,0,0,0,1.059-.273,1.827,1.827,0,0,0,.746-.734V-3.969H38.885A2.8,2.8,0,0,0,37.3-3.6a1.189,1.189,0,0,0-.531,1.039,1.109,1.109,0,0,0,.363.871A1.407,1.407,0,0,0,38.1-1.367Zm9.7-3.258a11.9,11.9,0,0,1,.484-3.426,9.4,9.4,0,0,1,1.422-2.9A5.646,5.646,0,0,1,51.7-12.742l.375,1.109a5.8,5.8,0,0,0-1.785,2.551,11.424,11.424,0,0,0-.746,3.926l-.008.672A12.42,12.42,0,0,0,50.2-.262a6.224,6.224,0,0,0,1.871,2.824L51.7,3.617a5.655,5.655,0,0,1-1.988-1.8,9.4,9.4,0,0,1-1.422-2.9A12.374,12.374,0,0,1,47.807-4.625Zm11.852.57h1.414v1.523H59.658V0h-1.9V-2.531H52.846l-.055-1.156L57.7-11.375h1.961Zm-4.875,0H57.76V-8.8l-.141.25ZM66.112-4.5a11.754,11.754,0,0,1-.477,3.348A9.485,9.485,0,0,1,64.19,1.785a5.66,5.66,0,0,1-2.023,1.832l-.375-1.055a6,6,0,0,0,1.855-2.77,12.3,12.3,0,0,0,.684-4.254v-.18A12.484,12.484,0,0,0,63.737-8.6a6.98,6.98,0,0,0-1.7-2.863l-.242-.219.375-1.062A5.6,5.6,0,0,1,64.1-11.023a9.326,9.326,0,0,1,1.438,2.762A11.5,11.5,0,0,1,66.1-5.109Z" transform="translate(37.526 252.144)"/>
  <path id="Trazado_634846" data-name="Trazado 634846" d="M9.836-3.7A4.107,4.107,0,0,1,8.492-.863,4.581,4.581,0,0,1,5.375.156,4.436,4.436,0,0,1,2.98-.488a4.231,4.231,0,0,1-1.6-1.832A6.611,6.611,0,0,1,.8-5.078V-6.141a6.659,6.659,0,0,1,.57-2.836A4.3,4.3,0,0,1,3-10.867a4.566,4.566,0,0,1,2.465-.664A4.4,4.4,0,0,1,8.5-10.512,4.26,4.26,0,0,1,9.836-7.625H7.867a2.81,2.81,0,0,0-.715-1.77,2.363,2.363,0,0,0-1.684-.543A2.308,2.308,0,0,0,3.488-9a4.709,4.709,0,0,0-.707,2.764v1.009a5,5,0,0,0,.66,2.815,2.191,2.191,0,0,0,1.934.97,2.555,2.555,0,0,0,1.75-.523A2.729,2.729,0,0,0,7.867-3.7Zm1.227-.6a4.984,4.984,0,0,1,.492-2.238,3.6,3.6,0,0,1,1.383-1.531,3.9,3.9,0,0,1,2.047-.535,3.692,3.692,0,0,1,2.777,1.1,4.333,4.333,0,0,1,1.152,2.922l.008.445a5.029,5.029,0,0,1-.48,2.234A3.551,3.551,0,0,1,17.066-.383,3.925,3.925,0,0,1,15,.156a3.667,3.667,0,0,1-2.863-1.191,4.563,4.563,0,0,1-1.074-3.176Zm1.9.164A3.406,3.406,0,0,0,13.5-2.1a1.752,1.752,0,0,0,1.5.738,1.733,1.733,0,0,0,1.5-.75,3.762,3.762,0,0,0,.535-2.2,3.362,3.362,0,0,0-.551-2.031,1.759,1.759,0,0,0-1.5-.75,1.743,1.743,0,0,0-1.477.738A3.691,3.691,0,0,0,12.961-4.141ZM24.953-6.719a4.7,4.7,0,0,0-.773-.062,1.741,1.741,0,0,0-1.758,1V0h-1.9V-8.453h1.813l.047.945a2.139,2.139,0,0,1,1.906-1.1,1.777,1.777,0,0,1,.672.109Zm4.379,5.359a1.716,1.716,0,0,0,1.18-.414,1.415,1.415,0,0,0,.5-1.023H32.8a2.789,2.789,0,0,1-.492,1.473,3.228,3.228,0,0,1-1.25,1.082,3.725,3.725,0,0,1-1.7.4A3.6,3.6,0,0,1,26.543-.992,4.555,4.555,0,0,1,25.5-4.164v-.2a4.479,4.479,0,0,1,1.031-3.09,3.571,3.571,0,0,1,2.813-1.16,3.473,3.473,0,0,1,2.457.879,3.148,3.148,0,0,1,1,2.309H31.012a1.738,1.738,0,0,0-.5-1.2,1.6,1.6,0,0,0-1.184-.469,1.671,1.671,0,0,0-1.422.668A3.408,3.408,0,0,0,27.4-4.391v.3a3.465,3.465,0,0,0,.5,2.051A1.669,1.669,0,0,0,29.333-1.359Zm6.773-6.172a2.971,2.971,0,0,1,2.352-1.078q2.7,0,2.742,3.086V0H39.3V-5.453a1.669,1.669,0,0,0-.379-1.238,1.549,1.549,0,0,0-1.113-.363,1.829,1.829,0,0,0-1.7,1.016V0h-1.9V-12h1.9ZM46.84.156A3.928,3.928,0,0,1,43.915-.98a4.124,4.124,0,0,1-1.121-3.027v-.234A5.072,5.072,0,0,1,43.282-6.5a3.716,3.716,0,0,1,1.371-1.551,3.625,3.625,0,0,1,1.969-.555,3.318,3.318,0,0,1,2.668,1.1,4.658,4.658,0,0,1,.941,3.117v.766H44.708a2.539,2.539,0,0,0,.7,1.656,2.1,2.1,0,0,0,1.543.609,2.571,2.571,0,0,0,2.125-1.055l1.023.977A3.418,3.418,0,0,1,48.743-.262,4.244,4.244,0,0,1,46.84.156Zm-.227-7.242a1.6,1.6,0,0,0-1.262.547,2.835,2.835,0,0,0-.613,1.523h3.617v-.141A2.307,2.307,0,0,0,47.848-6.6,1.586,1.586,0,0,0,46.614-7.086ZM56.754,0a2.93,2.93,0,0,1-.219-.789,2.955,2.955,0,0,1-2.219.945A2.982,2.982,0,0,1,52.239-.57a2.325,2.325,0,0,1-.8-1.8,2.4,2.4,0,0,1,1-2.074,4.865,4.865,0,0,1,2.871-.723h1.164v-.555a1.481,1.481,0,0,0-.367-1.051,1.456,1.456,0,0,0-1.117-.395,1.672,1.672,0,0,0-1.062.324,1,1,0,0,0-.414.824h-1.9a2.107,2.107,0,0,1,.461-1.3,3.071,3.071,0,0,1,1.254-.949,4.4,4.4,0,0,1,1.77-.344,3.547,3.547,0,0,1,2.367.746,2.661,2.661,0,0,1,.906,2.1v3.813a4.321,4.321,0,0,0,.32,1.82V0ZM54.668-1.367a2.16,2.16,0,0,0,1.059-.273,1.827,1.827,0,0,0,.746-.734V-3.969H55.45a2.8,2.8,0,0,0-1.586.367,1.189,1.189,0,0,0-.531,1.039,1.109,1.109,0,0,0,.363.871A1.407,1.407,0,0,0,54.668-1.367Zm9.7-3.258a11.9,11.9,0,0,1,.484-3.426,9.4,9.4,0,0,1,1.422-2.9,5.646,5.646,0,0,1,1.984-1.793l.375,1.109a5.8,5.8,0,0,0-1.785,2.551,11.424,11.424,0,0,0-.746,3.926l-.008.672a12.42,12.42,0,0,0,.668,4.223,6.224,6.224,0,0,0,1.871,2.824l-.375,1.055a5.655,5.655,0,0,1-1.988-1.8,9.4,9.4,0,0,1-1.422-2.9A12.374,12.374,0,0,1,64.372-4.625Zm12.594-3.75a2.644,2.644,0,0,1-.43,1.488,2.98,2.98,0,0,1-1.172,1.027,3.246,3.246,0,0,1,1.371,1.133,2.858,2.858,0,0,1,.48,1.625A2.984,2.984,0,0,1,76.2-.723a3.986,3.986,0,0,1-2.7.879,4,4,0,0,1-2.715-.883A2.982,2.982,0,0,1,69.762-3.1a2.891,2.891,0,0,1,.484-1.641,3.111,3.111,0,0,1,1.359-1.117,2.964,2.964,0,0,1-1.16-1.027,2.662,2.662,0,0,1-.426-1.488,2.959,2.959,0,0,1,.938-2.3,3.622,3.622,0,0,1,2.531-.852,3.633,3.633,0,0,1,2.539.852A2.959,2.959,0,0,1,76.965-8.375ZM75.317-3.2a1.875,1.875,0,0,0-.5-1.363,1.771,1.771,0,0,0-1.332-.52,1.752,1.752,0,0,0-1.324.516,1.889,1.889,0,0,0-.5,1.367,1.83,1.83,0,0,0,.488,1.336,1.8,1.8,0,0,0,1.348.5,1.8,1.8,0,0,0,1.34-.484A1.836,1.836,0,0,0,75.317-3.2ZM75.075-8.3a1.765,1.765,0,0,0-.43-1.223,1.474,1.474,0,0,0-1.156-.48,1.486,1.486,0,0,0-1.148.457A1.766,1.766,0,0,0,71.919-8.3a1.759,1.759,0,0,0,.426,1.242A1.492,1.492,0,0,0,73.5-6.6a1.492,1.492,0,0,0,1.152-.461A1.759,1.759,0,0,0,75.075-8.3Zm7.6,3.8A11.754,11.754,0,0,1,82.2-1.152a9.485,9.485,0,0,1-1.445,2.938,5.66,5.66,0,0,1-2.023,1.832l-.375-1.055a6,6,0,0,0,1.855-2.77A12.3,12.3,0,0,0,80.9-4.461v-.18A12.484,12.484,0,0,0,80.3-8.6a6.98,6.98,0,0,0-1.7-2.863l-.242-.219.375-1.062a5.6,5.6,0,0,1,1.938,1.719,9.326,9.326,0,0,1,1.438,2.762,11.5,11.5,0,0,1,.563,3.152Z" transform="translate(37.526 340.56)"/>
  <path id="Trazado_634847" data-name="Trazado 634847" d="M7.1-2.93a1.374,1.374,0,0,0-.527-1.156,6.345,6.345,0,0,0-1.9-.82,9.186,9.186,0,0,1-2.187-.922A2.919,2.919,0,0,1,.93-8.375a2.772,2.772,0,0,1,1.121-2.266,4.538,4.538,0,0,1,2.91-.891,4.916,4.916,0,0,1,2.117.438A3.475,3.475,0,0,1,8.539-9.848,3.2,3.2,0,0,1,9.07-8.055H7.1a1.782,1.782,0,0,0-.559-1.395,2.305,2.305,0,0,0-1.6-.5,2.408,2.408,0,0,0-1.5.414,1.379,1.379,0,0,0-.535,1.156A1.247,1.247,0,0,0,3.484-7.34a6.66,6.66,0,0,0,1.906.813,8.768,8.768,0,0,1,2.133.9A3.392,3.392,0,0,1,8.7-4.473a3.011,3.011,0,0,1,.375,1.527A2.707,2.707,0,0,1,7.988-.684a4.727,4.727,0,0,1-2.957.84A5.557,5.557,0,0,1,2.762-.3,3.812,3.812,0,0,1,1.152-1.562,3.144,3.144,0,0,1,.578-3.437H2.555a1.84,1.84,0,0,0,.641,1.5,2.805,2.805,0,0,0,1.836.531,2.437,2.437,0,0,0,1.551-.418A1.349,1.349,0,0,0,7.1-2.93ZM14.352.156A3.928,3.928,0,0,1,11.426-.98,4.124,4.124,0,0,1,10.3-4.008v-.234A5.072,5.072,0,0,1,10.793-6.5a3.716,3.716,0,0,1,1.371-1.551,3.625,3.625,0,0,1,1.969-.555,3.318,3.318,0,0,1,2.668,1.1,4.658,4.658,0,0,1,.941,3.117v.766H12.219a2.539,2.539,0,0,0,.7,1.656,2.1,2.1,0,0,0,1.543.609,2.571,2.571,0,0,0,2.125-1.055l1.023.977A3.418,3.418,0,0,1,16.254-.262,4.244,4.244,0,0,1,14.352.156Zm-.227-7.242a1.6,1.6,0,0,0-1.262.547,2.835,2.835,0,0,0-.613,1.523h3.617v-.141A2.307,2.307,0,0,0,15.359-6.6,1.586,1.586,0,0,0,14.125-7.086ZM21-8.453l.055.883a3.042,3.042,0,0,1,2.438-1.039,2.337,2.337,0,0,1,2.32,1.3,3,3,0,0,1,2.594-1.3,2.636,2.636,0,0,1,2.082.773,3.405,3.405,0,0,1,.7,2.281V0h-1.9V-5.5a1.681,1.681,0,0,0-.352-1.18,1.539,1.539,0,0,0-1.164-.375,1.581,1.581,0,0,0-1.059.348,1.833,1.833,0,0,0-.574.91L26.148,0h-1.9V-5.562a1.354,1.354,0,0,0-1.523-1.492,1.671,1.671,0,0,0-1.617.93V0h-1.9V-8.453ZM35.156,0h-1.9V-8.453h1.9ZM33.141-10.648a1.008,1.008,0,0,1,.277-.727,1.048,1.048,0,0,1,.793-.289,1.061,1.061,0,0,1,.8.289,1,1,0,0,1,.281.727.977.977,0,0,1-.281.715,1.069,1.069,0,0,1-.8.285,1.056,1.056,0,0,1-.793-.285A.984.984,0,0,1,33.141-10.648ZM40.7-1.359a1.716,1.716,0,0,0,1.18-.414,1.415,1.415,0,0,0,.5-1.023h1.789a2.789,2.789,0,0,1-.492,1.473,3.228,3.228,0,0,1-1.25,1.082,3.725,3.725,0,0,1-1.7.4A3.6,3.6,0,0,1,37.906-.992a4.555,4.555,0,0,1-1.039-3.172v-.2A4.479,4.479,0,0,1,37.9-7.449a3.571,3.571,0,0,1,2.813-1.16,3.473,3.473,0,0,1,2.457.879,3.148,3.148,0,0,1,1,2.309H42.375a1.738,1.738,0,0,0-.5-1.2A1.6,1.6,0,0,0,40.7-7.086a1.671,1.671,0,0,0-1.422.668,3.408,3.408,0,0,0-.508,2.027v.3a3.465,3.465,0,0,0,.5,2.051A1.669,1.669,0,0,0,40.7-1.359ZM45.242-4.3a4.984,4.984,0,0,1,.492-2.238,3.6,3.6,0,0,1,1.383-1.531,3.9,3.9,0,0,1,2.047-.535,3.692,3.692,0,0,1,2.777,1.1,4.333,4.333,0,0,1,1.152,2.922l.008.445a5.029,5.029,0,0,1-.48,2.234A3.551,3.551,0,0,1,51.246-.383,3.925,3.925,0,0,1,49.18.156a3.667,3.667,0,0,1-2.863-1.191,4.563,4.563,0,0,1-1.074-3.176Zm1.9.164A3.406,3.406,0,0,0,47.68-2.1a1.752,1.752,0,0,0,1.5.738,1.733,1.733,0,0,0,1.5-.75,3.762,3.762,0,0,0,.535-2.2,3.362,3.362,0,0,0-.551-2.031,1.759,1.759,0,0,0-1.5-.75,1.743,1.743,0,0,0-1.477.738A3.691,3.691,0,0,0,47.141-4.141ZM59.133-6.719a4.7,4.7,0,0,0-.773-.062,1.741,1.741,0,0,0-1.758,1V0H54.7V-8.453h1.813l.047.945a2.139,2.139,0,0,1,1.906-1.1,1.777,1.777,0,0,1,.672.109Zm4.4,5.359a1.716,1.716,0,0,0,1.18-.414,1.415,1.415,0,0,0,.5-1.023H67A2.789,2.789,0,0,1,66.5-1.324a3.228,3.228,0,0,1-1.25,1.082,3.725,3.725,0,0,1-1.7.4A3.6,3.6,0,0,1,60.739-.992,4.555,4.555,0,0,1,59.7-4.164v-.2a4.479,4.479,0,0,1,1.031-3.09,3.571,3.571,0,0,1,2.813-1.16A3.473,3.473,0,0,1,66-7.73a3.148,3.148,0,0,1,1,2.309H65.208a1.738,1.738,0,0,0-.5-1.2,1.6,1.6,0,0,0-1.184-.469,1.671,1.671,0,0,0-1.422.668A3.408,3.408,0,0,0,61.6-4.391v.3a3.465,3.465,0,0,0,.5,2.051A1.669,1.669,0,0,0,63.528-1.359ZM70.3-7.531a2.971,2.971,0,0,1,2.352-1.078q2.7,0,2.742,3.086V0H73.5V-5.453a1.669,1.669,0,0,0-.379-1.238A1.549,1.549,0,0,0,72-7.055a1.829,1.829,0,0,0-1.7,1.016V0H68.4V-12h1.9ZM81.036.156A3.928,3.928,0,0,1,78.11-.98a4.124,4.124,0,0,1-1.121-3.027v-.234A5.072,5.072,0,0,1,77.477-6.5a3.716,3.716,0,0,1,1.371-1.551,3.625,3.625,0,0,1,1.969-.555,3.318,3.318,0,0,1,2.668,1.1,4.658,4.658,0,0,1,.941,3.117v.766H78.9a2.539,2.539,0,0,0,.7,1.656,2.1,2.1,0,0,0,1.543.609A2.571,2.571,0,0,0,83.27-2.414l1.023.977A3.418,3.418,0,0,1,82.938-.262,4.244,4.244,0,0,1,81.036.156ZM80.81-7.086a1.6,1.6,0,0,0-1.262.547,2.835,2.835,0,0,0-.613,1.523h3.617v-.141A2.307,2.307,0,0,0,82.044-6.6,1.586,1.586,0,0,0,80.81-7.086ZM90.95,0a2.93,2.93,0,0,1-.219-.789,2.955,2.955,0,0,1-2.219.945A2.982,2.982,0,0,1,86.435-.57a2.325,2.325,0,0,1-.8-1.8,2.4,2.4,0,0,1,1-2.074A4.865,4.865,0,0,1,89.5-5.164h1.164v-.555A1.481,1.481,0,0,0,90.3-6.77a1.456,1.456,0,0,0-1.117-.395,1.672,1.672,0,0,0-1.062.324,1,1,0,0,0-.414.824h-1.9a2.107,2.107,0,0,1,.461-1.3,3.071,3.071,0,0,1,1.254-.949,4.4,4.4,0,0,1,1.77-.344,3.547,3.547,0,0,1,2.367.746,2.661,2.661,0,0,1,.906,2.1v3.813a4.321,4.321,0,0,0,.32,1.82V0ZM88.864-1.367a2.159,2.159,0,0,0,1.059-.273,1.827,1.827,0,0,0,.746-.734V-3.969H89.645A2.8,2.8,0,0,0,88.06-3.6a1.189,1.189,0,0,0-.531,1.039,1.109,1.109,0,0,0,.363.871A1.407,1.407,0,0,0,88.864-1.367Zm9.7-3.258a11.9,11.9,0,0,1,.484-3.426,9.4,9.4,0,0,1,1.422-2.9,5.646,5.646,0,0,1,1.984-1.793l.375,1.109a5.8,5.8,0,0,0-1.785,2.551,11.424,11.424,0,0,0-.746,3.926l-.008.672a12.42,12.42,0,0,0,.668,4.223,6.224,6.224,0,0,0,1.871,2.824l-.375,1.055a5.655,5.655,0,0,1-1.988-1.8,9.4,9.4,0,0,1-1.422-2.9A12.374,12.374,0,0,1,98.567-4.625ZM109.138,0h-1.891V-9.138l-2.789.951V-9.781l4.438-1.633h.242ZM119-11.43v1.57h-.234a3.768,3.768,0,0,0-2.547.875,3.661,3.661,0,0,0-1.133,2.414,3.083,3.083,0,0,1,2.336-.961A2.912,2.912,0,0,1,119.8-6.469a4.185,4.185,0,0,1,.871,2.742,3.912,3.912,0,0,1-1.02,2.809A3.519,3.519,0,0,1,116.974.156,3.438,3.438,0,0,1,114.212-1.1a4.948,4.948,0,0,1-1.059-3.3v-.648a6.962,6.962,0,0,1,1.457-4.687,5.224,5.224,0,0,1,4.191-1.7ZM116.958-6a2,2,0,0,0-1.145.352,2.055,2.055,0,0,0-.762.938v.578a3.405,3.405,0,0,0,.531,2.012,1.62,1.62,0,0,0,1.375.746,1.6,1.6,0,0,0,1.336-.633,2.635,2.635,0,0,0,.492-1.664,2.673,2.673,0,0,0-.5-1.68A1.594,1.594,0,0,0,116.958-6Zm9.008,1.5a11.754,11.754,0,0,1-.477,3.348,9.485,9.485,0,0,1-1.445,2.938,5.66,5.66,0,0,1-2.023,1.832l-.375-1.055A6,6,0,0,0,123.5-.207a12.3,12.3,0,0,0,.684-4.254v-.18a12.484,12.484,0,0,0-.594-3.957,6.98,6.98,0,0,0-1.7-2.863l-.242-.219.375-1.062a5.6,5.6,0,0,1,1.938,1.719A9.326,9.326,0,0,1,125.4-8.262a11.5,11.5,0,0,1,.563,3.152Z" transform="translate(37.526 434.976)"/>
  <path id="Trazado_634848" data-name="Trazado 634848" d="M7.711-4.82H3.133V0H1.156V-11.375H8.383v1.594H3.133V-6.4H7.711Zm6.84,3.992a2.944,2.944,0,0,1-2.375.984,2.624,2.624,0,0,1-2.082-.8,3.423,3.423,0,0,1-.707-2.328V-8.453h1.9V-3q0,1.609,1.336,1.609a1.876,1.876,0,0,0,1.867-.992v-6.07h1.9V0H14.6ZM23.059-2.3a.861.861,0,0,0-.418-.773,4.445,4.445,0,0,0-1.387-.469,7.129,7.129,0,0,1-1.617-.516,2.158,2.158,0,0,1-1.422-1.992,2.25,2.25,0,0,1,.922-1.828,3.644,3.644,0,0,1,2.344-.734,3.792,3.792,0,0,1,2.449.75,2.38,2.38,0,0,1,.934,1.945h-1.9a1.17,1.17,0,0,0-.406-.91,1.557,1.557,0,0,0-1.078-.363,1.682,1.682,0,0,0-1.02.289.911.911,0,0,0-.395.773.769.769,0,0,0,.367.68,5.049,5.049,0,0,0,1.484.488,7.027,7.027,0,0,1,1.754.586,2.484,2.484,0,0,1,.945.816A2.082,2.082,0,0,1,24.926-2.4a2.2,2.2,0,0,1-.945,1.848A4.031,4.031,0,0,1,21.5.156a4.371,4.371,0,0,1-1.852-.375A3.047,3.047,0,0,1,18.387-1.25a2.441,2.441,0,0,1-.453-1.414h1.844a1.338,1.338,0,0,0,.508,1.035,1.973,1.973,0,0,0,1.242.363,1.92,1.92,0,0,0,1.141-.285A.883.883,0,0,0,23.059-2.3ZM31.629,0a2.93,2.93,0,0,1-.219-.789,2.955,2.955,0,0,1-2.219.945A2.982,2.982,0,0,1,27.113-.57a2.325,2.325,0,0,1-.8-1.8,2.4,2.4,0,0,1,1-2.074,4.865,4.865,0,0,1,2.871-.723h1.164v-.555a1.481,1.481,0,0,0-.367-1.051,1.456,1.456,0,0,0-1.117-.395A1.672,1.672,0,0,0,28.8-6.84a1,1,0,0,0-.414.824h-1.9a2.107,2.107,0,0,1,.461-1.3A3.071,3.071,0,0,1,28.2-8.266a4.4,4.4,0,0,1,1.77-.344,3.547,3.547,0,0,1,2.367.746,2.661,2.661,0,0,1,.906,2.1v3.813a4.321,4.321,0,0,0,.32,1.82V0ZM29.543-1.367A2.159,2.159,0,0,0,30.6-1.641a1.827,1.827,0,0,0,.746-.734V-3.969H30.324a2.8,2.8,0,0,0-1.586.367,1.189,1.189,0,0,0-.531,1.039,1.109,1.109,0,0,0,.363.871A1.407,1.407,0,0,0,29.543-1.367Zm9.7-3.258a11.9,11.9,0,0,1,.484-3.426,9.4,9.4,0,0,1,1.422-2.9,5.646,5.646,0,0,1,1.984-1.793l.375,1.109a5.8,5.8,0,0,0-1.785,2.551,11.424,11.424,0,0,0-.746,3.926l-.008.672a12.42,12.42,0,0,0,.668,4.223,6.224,6.224,0,0,0,1.871,2.824l-.375,1.055a5.655,5.655,0,0,1-1.988-1.8,9.4,9.4,0,0,1-1.422-2.9A12.374,12.374,0,0,1,39.246-4.625Zm7.625-1.93h1.156a2.069,2.069,0,0,0,1.387-.453A1.617,1.617,0,0,0,49.926-8.3,1.762,1.762,0,0,0,49.5-9.559a1.714,1.714,0,0,0-1.3-.449,1.813,1.813,0,0,0-1.258.441,1.475,1.475,0,0,0-.492,1.152h-1.9a2.874,2.874,0,0,1,.465-1.594,3.123,3.123,0,0,1,1.3-1.121,4.225,4.225,0,0,1,1.863-.4,3.912,3.912,0,0,1,2.676.855A3,3,0,0,1,51.824-8.3a2.417,2.417,0,0,1-.488,1.441,3.062,3.062,0,0,1-1.262,1.02A2.791,2.791,0,0,1,51.5-4.828a2.759,2.759,0,0,1,.488,1.641A3.055,3.055,0,0,1,50.938-.75a4.08,4.08,0,0,1-2.762.906,4.049,4.049,0,0,1-2.687-.875,2.882,2.882,0,0,1-1.047-2.328h1.9a1.588,1.588,0,0,0,.5,1.219,1.911,1.911,0,0,0,1.355.469,1.971,1.971,0,0,0,1.391-.469A1.758,1.758,0,0,0,50.1-3.187a1.776,1.776,0,0,0-.531-1.383,2.271,2.271,0,0,0-1.578-.484H46.871ZM61.418,0H53.77V-1.3l3.789-4.133a9.435,9.435,0,0,0,1.168-1.527,2.475,2.475,0,0,0,.348-1.23,1.87,1.87,0,0,0-.457-1.312,1.585,1.585,0,0,0-1.23-.5,1.827,1.827,0,0,0-1.43.563,2.212,2.212,0,0,0-.508,1.539h-1.9a3.721,3.721,0,0,1,.473-1.871,3.255,3.255,0,0,1,1.352-1.293,4.3,4.3,0,0,1,2.027-.461,3.848,3.848,0,0,1,2.613.832,2.888,2.888,0,0,1,.957,2.3,3.9,3.9,0,0,1-.48,1.785,10.151,10.151,0,0,1-1.574,2.121L56.137-1.516h5.281Zm5.227-4.5a11.754,11.754,0,0,1-.477,3.348,9.485,9.485,0,0,1-1.445,2.938A5.66,5.66,0,0,1,62.7,3.617l-.375-1.055A6,6,0,0,0,64.18-.207a12.3,12.3,0,0,0,.684-4.254v-.18A12.484,12.484,0,0,0,64.27-8.6a6.98,6.98,0,0,0-1.7-2.863l-.242-.219.375-1.062a5.6,5.6,0,0,1,1.937,1.719,9.326,9.326,0,0,1,1.438,2.762,11.5,11.5,0,0,1,.563,3.152Z" transform="translate(37.526 529.392)"/>
  <path id="Trazado_634849" data-name="Trazado 634849" d="M7.1-2.93a1.374,1.374,0,0,0-.527-1.156,6.345,6.345,0,0,0-1.9-.82,9.186,9.186,0,0,1-2.187-.922A2.919,2.919,0,0,1,.93-8.375a2.772,2.772,0,0,1,1.121-2.266,4.538,4.538,0,0,1,2.91-.891,4.916,4.916,0,0,1,2.117.438A3.475,3.475,0,0,1,8.539-9.848,3.2,3.2,0,0,1,9.07-8.055H7.1a1.782,1.782,0,0,0-.559-1.395,2.305,2.305,0,0,0-1.6-.5,2.408,2.408,0,0,0-1.5.414,1.379,1.379,0,0,0-.535,1.156A1.247,1.247,0,0,0,3.484-7.34a6.66,6.66,0,0,0,1.906.813,8.768,8.768,0,0,1,2.133.9A3.392,3.392,0,0,1,8.7-4.473a3.011,3.011,0,0,1,.375,1.527A2.707,2.707,0,0,1,7.988-.684a4.727,4.727,0,0,1-2.957.84A5.557,5.557,0,0,1,2.762-.3,3.812,3.812,0,0,1,1.152-1.562,3.144,3.144,0,0,1,.578-3.437H2.555a1.84,1.84,0,0,0,.641,1.5,2.805,2.805,0,0,0,1.836.531,2.437,2.437,0,0,0,1.551-.418A1.349,1.349,0,0,0,7.1-2.93ZM14.352.156A3.928,3.928,0,0,1,11.426-.98,4.124,4.124,0,0,1,10.3-4.008v-.234A5.072,5.072,0,0,1,10.793-6.5a3.716,3.716,0,0,1,1.371-1.551,3.625,3.625,0,0,1,1.969-.555,3.318,3.318,0,0,1,2.668,1.1,4.658,4.658,0,0,1,.941,3.117v.766H12.219a2.539,2.539,0,0,0,.7,1.656,2.1,2.1,0,0,0,1.543.609,2.571,2.571,0,0,0,2.125-1.055l1.023.977A3.418,3.418,0,0,1,16.254-.262,4.244,4.244,0,0,1,14.352.156Zm-.227-7.242a1.6,1.6,0,0,0-1.262.547,2.835,2.835,0,0,0-.613,1.523h3.617v-.141A2.307,2.307,0,0,0,15.359-6.6,1.586,1.586,0,0,0,14.125-7.086ZM21-8.453l.055.883a3.042,3.042,0,0,1,2.438-1.039,2.337,2.337,0,0,1,2.32,1.3,3,3,0,0,1,2.594-1.3,2.636,2.636,0,0,1,2.082.773,3.405,3.405,0,0,1,.7,2.281V0h-1.9V-5.5a1.681,1.681,0,0,0-.352-1.18,1.539,1.539,0,0,0-1.164-.375,1.581,1.581,0,0,0-1.059.348,1.833,1.833,0,0,0-.574.91L26.148,0h-1.9V-5.562a1.354,1.354,0,0,0-1.523-1.492,1.671,1.671,0,0,0-1.617.93V0h-1.9V-8.453ZM35.156,0h-1.9V-8.453h1.9ZM33.141-10.648a1.008,1.008,0,0,1,.277-.727,1.048,1.048,0,0,1,.793-.289,1.061,1.061,0,0,1,.8.289,1,1,0,0,1,.281.727.977.977,0,0,1-.281.715,1.069,1.069,0,0,1-.8.285,1.056,1.056,0,0,1-.793-.285A.984.984,0,0,1,33.141-10.648ZM37.891,0V-7.047H36.6V-8.453h1.289v-.773a2.9,2.9,0,0,1,.781-2.172,2.993,2.993,0,0,1,2.188-.766,4.388,4.388,0,0,1,1.063.141l-.047,1.484a3.739,3.739,0,0,0-.727-.062,1.219,1.219,0,0,0-1.359,1.4v.75h1.719v1.406H39.789V0ZM48.016-.828a2.944,2.944,0,0,1-2.375.984,2.624,2.624,0,0,1-2.082-.8,3.423,3.423,0,0,1-.707-2.328V-8.453h1.9V-3q0,1.609,1.336,1.609a1.876,1.876,0,0,0,1.867-.992v-6.07h1.9V0H48.063ZM56.523-2.3a.861.861,0,0,0-.418-.773,4.445,4.445,0,0,0-1.387-.469A7.129,7.129,0,0,1,53.1-4.055,2.158,2.158,0,0,1,51.68-6.047,2.25,2.25,0,0,1,52.6-7.875a3.644,3.644,0,0,1,2.344-.734,3.792,3.792,0,0,1,2.449.75,2.38,2.38,0,0,1,.934,1.945h-1.9a1.17,1.17,0,0,0-.406-.91,1.557,1.557,0,0,0-1.078-.363,1.682,1.682,0,0,0-1.02.289.911.911,0,0,0-.395.773.769.769,0,0,0,.367.68,5.049,5.049,0,0,0,1.484.488,7.027,7.027,0,0,1,1.754.586,2.484,2.484,0,0,1,.945.816A2.082,2.082,0,0,1,58.391-2.4a2.2,2.2,0,0,1-.945,1.848,4.031,4.031,0,0,1-2.477.707,4.371,4.371,0,0,1-1.852-.375A3.047,3.047,0,0,1,51.852-1.25,2.441,2.441,0,0,1,51.4-2.664h1.844a1.338,1.338,0,0,0,.508,1.035,1.973,1.973,0,0,0,1.242.363,1.92,1.92,0,0,0,1.141-.285A.883.883,0,0,0,56.523-2.3ZM65.094,0a2.93,2.93,0,0,1-.219-.789,2.955,2.955,0,0,1-2.219.945A2.982,2.982,0,0,1,60.578-.57a2.325,2.325,0,0,1-.8-1.8,2.4,2.4,0,0,1,1-2.074,4.865,4.865,0,0,1,2.871-.723h1.164v-.555a1.481,1.481,0,0,0-.367-1.051,1.456,1.456,0,0,0-1.117-.395,1.672,1.672,0,0,0-1.062.324,1,1,0,0,0-.414.824h-1.9a2.107,2.107,0,0,1,.461-1.3,3.071,3.071,0,0,1,1.254-.949,4.4,4.4,0,0,1,1.77-.344,3.547,3.547,0,0,1,2.367.746,2.661,2.661,0,0,1,.906,2.1v3.813a4.321,4.321,0,0,0,.32,1.82V0ZM63.008-1.367a2.16,2.16,0,0,0,1.059-.273,1.827,1.827,0,0,0,.746-.734V-3.969H63.789A2.8,2.8,0,0,0,62.2-3.6a1.189,1.189,0,0,0-.531,1.039,1.109,1.109,0,0,0,.363.871A1.407,1.407,0,0,0,63.008-1.367Zm9.7-3.258A11.9,11.9,0,0,1,73.2-8.051a9.4,9.4,0,0,1,1.422-2.9A5.646,5.646,0,0,1,76.6-12.742l.375,1.109a5.8,5.8,0,0,0-1.785,2.551,11.424,11.424,0,0,0-.746,3.926l-.008.672a12.42,12.42,0,0,0,.668,4.223,6.224,6.224,0,0,0,1.871,2.824L76.6,3.617a5.655,5.655,0,0,1-1.988-1.8,9.4,9.4,0,0,1-1.422-2.9A12.374,12.374,0,0,1,72.711-4.625Zm11.336-6.8v1.57h-.234a3.768,3.768,0,0,0-2.547.875A3.661,3.661,0,0,0,80.133-6.57a3.083,3.083,0,0,1,2.336-.961,2.912,2.912,0,0,1,2.379,1.063,4.185,4.185,0,0,1,.871,2.742A3.912,3.912,0,0,1,84.7-.918,3.519,3.519,0,0,1,82.023.156,3.438,3.438,0,0,1,79.262-1.1,4.948,4.948,0,0,1,78.2-4.4v-.648A6.962,6.962,0,0,1,79.66-9.734a5.224,5.224,0,0,1,4.191-1.7ZM82.008-6a2,2,0,0,0-1.145.352,2.055,2.055,0,0,0-.762.938v.578a3.405,3.405,0,0,0,.531,2.012,1.62,1.62,0,0,0,1.375.746,1.6,1.6,0,0,0,1.336-.633,2.635,2.635,0,0,0,.492-1.664,2.673,2.673,0,0,0-.5-1.68A1.594,1.594,0,0,0,82.008-6ZM93.656-4.055H95.07v1.523H93.656V0h-1.9V-2.531H86.844l-.055-1.156L91.7-11.375h1.961Zm-4.875,0h2.977V-8.8l-.141.25ZM100.109-4.5a11.754,11.754,0,0,1-.477,3.348,9.485,9.485,0,0,1-1.445,2.938,5.66,5.66,0,0,1-2.023,1.832l-.375-1.055a6,6,0,0,0,1.855-2.77,12.3,12.3,0,0,0,.684-4.254v-.18A12.484,12.484,0,0,0,97.734-8.6a6.98,6.98,0,0,0-1.7-2.863l-.242-.219.375-1.062A5.6,5.6,0,0,1,98.1-11.023a9.326,9.326,0,0,1,1.438,2.762,11.5,11.5,0,0,1,.563,3.152Z" transform="translate(37.526 633.808)"/>
</svg>
