<svg xmlns="http://www.w3.org/2000/svg" xmlns:xlink="http://www.w3.org/1999/xlink" width="1030" height="507.005" viewBox="0 0 1030 507.005">
  <defs>
    <clipPath id="clip-path">
      <rect id="Rectángulo_396142" data-name="Rectángulo 396142" width="17.822" height="11.635" fill="none"/>
    </clipPath>
    <clipPath id="clip-path-2">
      <rect id="Rectángulo_396145" data-name="Rectángulo 396145" width="16.136" height="47.862" fill="none"/>
    </clipPath>
    <clipPath id="clip-path-3">
      <rect id="Rectángulo_396146" data-name="Rectángulo 396146" width="16.314" height="48.391" fill="none"/>
    </clipPath>
    <clipPath id="clip-path-4">
      <rect id="Rectángulo_396147" data-name="Rectángulo 396147" width="12.318" height="33.097" fill="none"/>
    </clipPath>
    <clipPath id="clip-path-5">
      <rect id="Rectángulo_396148" data-name="Rectángulo 396148" width="29.601" height="47.862" fill="none"/>
    </clipPath>
    <clipPath id="clip-path-6">
      <rect id="Rectángulo_396149" data-name="Rectángulo 396149" width="11.304" height="21.823" fill="none"/>
    </clipPath>
    <clipPath id="clip-path-7">
      <rect id="Rectángulo_396150" data-name="Rectángulo 396150" width="26.482" height="53.778" fill="none"/>
    </clipPath>
    <clipPath id="clip-path-8">
      <rect id="Rectángulo_396151" data-name="Rectángulo 396151" width="24.121" height="57.966" fill="none"/>
    </clipPath>
    <clipPath id="clip-path-9">
      <rect id="Rectángulo_396152" data-name="Rectángulo 396152" width="21.314" height="58.719" fill="none"/>
    </clipPath>
  </defs>
  <g id="Grupo_1101445" data-name="Grupo 1101445" transform="translate(-180.5 -2401.673)">
    <g id="Grupo_1101444" data-name="Grupo 1101444" transform="translate(180.5 2401.673)">
      <path id="Trazado_634773" data-name="Trazado 634773" d="M0,0H1029.5V5H0Z" fill="#f8e5b1"/>
      <path id="Trazado_634774" data-name="Trazado 634774" d="M0,0H1029.5V50H0Z" transform="translate(0 5)" fill="#e0e5ef"/>
      <path id="Trazado_634775" data-name="Trazado 634775" d="M11.654,0H8.587L4.052-7.963V0H.967V-12.8H4.052L8.578-4.834V-12.8h3.076ZM13.1-4.843a5.613,5.613,0,0,1,.554-2.536A3.96,3.96,0,0,1,15.24-9.088a4.791,4.791,0,0,1,2.435-.6,4.373,4.373,0,0,1,3.366,1.323,5.076,5.076,0,0,1,1.23,3.6v.105a4.925,4.925,0,0,1-1.235,3.529A4.384,4.384,0,0,1,17.692.176a4.434,4.434,0,0,1-3.261-1.217,4.761,4.761,0,0,1-1.327-3.3Zm2.962.185a3.538,3.538,0,0,0,.413,1.934,1.376,1.376,0,0,0,1.222.615q1.582,0,1.617-2.435v-.3q0-2.558-1.635-2.558-1.485,0-1.608,2.206ZM26.376-9.51l.1,1.116a3.27,3.27,0,0,1,2.716-1.292,2.407,2.407,0,0,1,2.435,1.433,3.165,3.165,0,0,1,2.795-1.433q2.892,0,2.971,3.5V0H34.418V-6a1.813,1.813,0,0,0-.246-1.063,1.048,1.048,0,0,0-.9-.334,1.4,1.4,0,0,0-1.31.782l.009.123V0H29V-5.985a1.906,1.906,0,0,0-.237-1.081,1.045,1.045,0,0,0-.905-.334,1.42,1.42,0,0,0-1.3.782V0H23.6V-9.51ZM47.909-4.676a5.8,5.8,0,0,1-.967,3.595A3.238,3.238,0,0,1,44.218.176,2.81,2.81,0,0,1,41.88-.976L41.757,0H39.1V-13.5h2.962v4.755a2.711,2.711,0,0,1,2.136-.94,3.239,3.239,0,0,1,2.742,1.274,5.826,5.826,0,0,1,.967,3.586Zm-2.971-.189a3.866,3.866,0,0,0-.365-1.952A1.229,1.229,0,0,0,43.453-7.4a1.418,1.418,0,0,0-1.389.763v3.773a1.426,1.426,0,0,0,1.406.755A1.258,1.258,0,0,0,44.8-3.127,7.309,7.309,0,0,0,44.938-4.865ZM54.967-6.829l-.976-.07a1.752,1.752,0,0,0-1.793.879V0H49.236V-9.51h2.777l.1,1.222a2.294,2.294,0,0,1,2.083-1.4,2.888,2.888,0,0,1,.826.105Zm5.5,7a4.889,4.889,0,0,1-3.542-1.305,4.507,4.507,0,0,1-1.354-3.4v-.246a5.84,5.84,0,0,1,.541-2.575,3.955,3.955,0,0,1,1.578-1.727,4.763,4.763,0,0,1,2.461-.611,4.117,4.117,0,0,1,3.164,1.244,4.887,4.887,0,0,1,1.16,3.467v1.151H58.588a2.135,2.135,0,0,0,.694,1.257,2.066,2.066,0,0,0,1.389.457,2.662,2.662,0,0,0,2.2-.984l1.354,1.6A3.784,3.784,0,0,1,62.653-.277,5.3,5.3,0,0,1,60.469.176ZM60.135-7.4q-1.3,0-1.547,1.723h2.988v-.229a1.467,1.467,0,0,0-.36-1.1A1.434,1.434,0,0,0,60.135-7.4Z" transform="translate(132.5 36)" fill="#12263f"/>
      <path id="Trazado_634776" data-name="Trazado 634776" d="M9.026-5.1H4.052V0H.967V-12.8H9.527v2.382H4.052v2.944H9.026ZM13.8,0H10.828V-9.51H13.8ZM10.652-11.962A1.322,1.322,0,0,1,11.109-13a1.724,1.724,0,0,1,1.187-.4,1.724,1.724,0,0,1,1.187.4,1.322,1.322,0,0,1,.457,1.037,1.322,1.322,0,0,1-.457,1.037,1.724,1.724,0,0,1-1.187.4,1.724,1.724,0,0,1-1.187-.4A1.322,1.322,0,0,1,10.652-11.962Zm4.623,7.137a6.421,6.421,0,0,1,.475-2.549,3.821,3.821,0,0,1,1.362-1.709,3.591,3.591,0,0,1,2.065-.6,2.855,2.855,0,0,1,2.32,1L21.6-9.51h2.689V-.36a4.009,4.009,0,0,1-.584,2.184,3.75,3.75,0,0,1-1.692,1.424,6.219,6.219,0,0,1-2.566.5,5.365,5.365,0,0,1-2.026-.4,3.657,3.657,0,0,1-1.5-1.028L17.165.58a2.716,2.716,0,0,0,2.18.976A1.764,1.764,0,0,0,21.313-.466v-.3a2.781,2.781,0,0,1-2.153.94,3.437,3.437,0,0,1-2.812-1.332A5.517,5.517,0,0,1,15.275-4.72Zm2.971.185a3.383,3.383,0,0,0,.439,1.85,1.386,1.386,0,0,0,1.23.681,1.573,1.573,0,0,0,1.4-.642v-4a1.534,1.534,0,0,0-1.38-.65,1.4,1.4,0,0,0-1.239.708A3.858,3.858,0,0,0,18.246-4.641ZM31.641-1.028A3.054,3.054,0,0,1,29.1.176a3,3,0,0,1-2.369-.91,3.826,3.826,0,0,1-.8-2.615V-9.51H28.89v6.179a1.065,1.065,0,0,0,1.187,1.222,1.548,1.548,0,0,0,1.45-.729V-9.51h2.979V0H31.729Zm10.239-5.8L40.9-6.9a1.752,1.752,0,0,0-1.793.879V0H36.149V-9.51h2.777l.1,1.222a2.294,2.294,0,0,1,2.083-1.4,2.888,2.888,0,0,1,.826.105ZM48.041,0a3.344,3.344,0,0,1-.281-.853A2.754,2.754,0,0,1,45.475.176a3.374,3.374,0,0,1-2.285-.813,2.588,2.588,0,0,1-.94-2.043,2.66,2.66,0,0,1,1.143-2.338,5.821,5.821,0,0,1,3.322-.791h.914v-.5q0-1.316-1.134-1.316a.927.927,0,0,0-1.055,1.042H42.478a2.655,2.655,0,0,1,1.173-2.239,4.931,4.931,0,0,1,2.993-.86,4.323,4.323,0,0,1,2.874.888A3.086,3.086,0,0,1,50.6-6.363v4.21a4.311,4.311,0,0,0,.4,2V0ZM46.187-1.934a1.652,1.652,0,0,0,.918-.237,1.487,1.487,0,0,0,.523-.536V-4.228h-.861q-1.547,0-1.547,1.389a.848.848,0,0,0,.272.655A.986.986,0,0,0,46.187-1.934Z" transform="translate(361.691 36)" fill="#12263f"/>
      <path id="Trazado_634777" data-name="Trazado 634777" d="M7.567-3.4a1.268,1.268,0,0,0-.479-1.055,5.954,5.954,0,0,0-1.683-.782,16.147,16.147,0,0,1-1.969-.782Q.949-7.242.949-9.378a3.011,3.011,0,0,1,.62-1.876A4.008,4.008,0,0,1,3.322-12.52a6.823,6.823,0,0,1,2.549-.453,5.969,5.969,0,0,1,2.474.492,3.917,3.917,0,0,1,1.7,1.4A3.661,3.661,0,0,1,10.652-9H7.576A1.547,1.547,0,0,0,7.1-10.213a1.867,1.867,0,0,0-1.3-.431,2.106,2.106,0,0,0-1.305.365,1.119,1.119,0,0,0-.479.927,1.127,1.127,0,0,0,.527.892A6.65,6.65,0,0,0,6.4-7.633a11.36,11.36,0,0,1,2.18.918,3.663,3.663,0,0,1,2.074,3.3A3.125,3.125,0,0,1,9.387-.782,5.629,5.629,0,0,1,5.915.176,6.888,6.888,0,0,1,3.1-.382,4.247,4.247,0,0,1,1.2-1.912,3.985,3.985,0,0,1,.563-4.148H3.656a1.963,1.963,0,0,0,.532,1.516,2.513,2.513,0,0,0,1.727.488,1.985,1.985,0,0,0,1.208-.33A1.088,1.088,0,0,0,7.567-3.4ZM15.223,0H12.252V-9.51h2.971ZM12.076-11.962A1.322,1.322,0,0,1,12.533-13a1.724,1.724,0,0,1,1.187-.4,1.724,1.724,0,0,1,1.187.4,1.322,1.322,0,0,1,.457,1.037,1.322,1.322,0,0,1-.457,1.037,1.724,1.724,0,0,1-1.187.4,1.724,1.724,0,0,1-1.187-.4A1.322,1.322,0,0,1,12.076-11.962ZM20.171,0H17.2V-13.5h2.971ZM26.6.176a4.889,4.889,0,0,1-3.542-1.305,4.507,4.507,0,0,1-1.354-3.4v-.246a5.84,5.84,0,0,1,.541-2.575,3.955,3.955,0,0,1,1.578-1.727,4.763,4.763,0,0,1,2.461-.611,4.117,4.117,0,0,1,3.164,1.244A4.887,4.887,0,0,1,30.6-4.975v1.151H24.715a2.135,2.135,0,0,0,.694,1.257,2.066,2.066,0,0,0,1.389.457A2.662,2.662,0,0,0,29-3.094l1.354,1.6A3.784,3.784,0,0,1,28.78-.277,5.3,5.3,0,0,1,26.6.176ZM26.262-7.4q-1.3,0-1.547,1.723H27.7v-.229a1.467,1.467,0,0,0-.36-1.1A1.434,1.434,0,0,0,26.262-7.4ZM34.515-9.51l.1,1.116a3.225,3.225,0,0,1,2.716-1.292,2.713,2.713,0,0,1,2.219.888,4.226,4.226,0,0,1,.76,2.672V0H37.336V-6a1.6,1.6,0,0,0-.29-1.059A1.342,1.342,0,0,0,35.991-7.4a1.413,1.413,0,0,0-1.292.686V0H31.737V-9.51Zm11.452,7.4a1.317,1.317,0,0,0,.967-.338,1.241,1.241,0,0,0,.334-.945h2.777A3.288,3.288,0,0,1,48.924-.826a4.168,4.168,0,0,1-2.887,1,4.22,4.22,0,0,1-3.27-1.3,5.125,5.125,0,0,1-1.2-3.6v-.123A5.792,5.792,0,0,1,42.1-7.4a3.872,3.872,0,0,1,1.534-1.7,4.573,4.573,0,0,1,2.373-.593,4.116,4.116,0,0,1,2.944,1.028,3.647,3.647,0,0,1,1.09,2.786H47.268A1.626,1.626,0,0,0,46.907-7a1.244,1.244,0,0,0-.967-.4q-1.151,0-1.345,1.468a10.357,10.357,0,0,0-.062,1.283,4.068,4.068,0,0,0,.343,1.986A1.187,1.187,0,0,0,45.967-2.109ZM54.422,0H51.451V-9.51h2.971ZM51.275-11.962A1.322,1.322,0,0,1,51.732-13a1.724,1.724,0,0,1,1.187-.4,1.724,1.724,0,0,1,1.187.4,1.322,1.322,0,0,1,.457,1.037,1.322,1.322,0,0,1-.457,1.037,1.724,1.724,0,0,1-1.187.4,1.724,1.724,0,0,1-1.187-.4A1.322,1.322,0,0,1,51.275-11.962Zm4.6,7.119a5.613,5.613,0,0,1,.554-2.536,3.96,3.96,0,0,1,1.591-1.709,4.791,4.791,0,0,1,2.435-.6,4.373,4.373,0,0,1,3.366,1.323,5.076,5.076,0,0,1,1.23,3.6v.105a4.925,4.925,0,0,1-1.235,3.529A4.384,4.384,0,0,1,60.469.176a4.434,4.434,0,0,1-3.261-1.217,4.761,4.761,0,0,1-1.327-3.3Zm2.962.185a3.538,3.538,0,0,0,.413,1.934,1.376,1.376,0,0,0,1.222.615q1.582,0,1.617-2.435v-.3q0-2.558-1.635-2.558-1.485,0-1.608,2.206Z" transform="translate(606.906 36)" fill="#12263f"/>
      <path id="Trazado_634778" data-name="Trazado 634778" d="M5.933-3.48,8.481-12.8h3.445L7.62,0H4.245L-.026-12.8H3.393ZM17.675,0a3.344,3.344,0,0,1-.281-.853A2.754,2.754,0,0,1,15.108.176a3.374,3.374,0,0,1-2.285-.813,2.588,2.588,0,0,1-.94-2.043,2.66,2.66,0,0,1,1.143-2.338,5.821,5.821,0,0,1,3.322-.791h.914v-.5q0-1.316-1.134-1.316a.927.927,0,0,0-1.055,1.042H12.111a2.655,2.655,0,0,1,1.173-2.239,4.931,4.931,0,0,1,2.993-.86,4.323,4.323,0,0,1,2.874.888,3.086,3.086,0,0,1,1.081,2.435v4.21a4.311,4.311,0,0,0,.4,2V0ZM15.82-1.934a1.652,1.652,0,0,0,.918-.237,1.487,1.487,0,0,0,.523-.536V-4.228H16.4q-1.547,0-1.547,1.389a.848.848,0,0,0,.272.655A.986.986,0,0,0,15.82-1.934ZM25,0H22.025V-13.5H25Zm1.45-4.843A5.613,5.613,0,0,1,27-7.378a3.96,3.96,0,0,1,1.591-1.709,4.791,4.791,0,0,1,2.435-.6,4.373,4.373,0,0,1,3.366,1.323,5.076,5.076,0,0,1,1.23,3.6v.105a4.925,4.925,0,0,1-1.235,3.529A4.384,4.384,0,0,1,31.043.176a4.434,4.434,0,0,1-3.261-1.217,4.761,4.761,0,0,1-1.327-3.3Zm2.962.185a3.538,3.538,0,0,0,.413,1.934,1.376,1.376,0,0,0,1.222.615q1.582,0,1.617-2.435v-.3q0-2.558-1.635-2.558-1.485,0-1.608,2.206ZM42.68-6.829,41.7-6.9a1.752,1.752,0,0,0-1.793.879V0H36.949V-9.51h2.777l.1,1.222a2.294,2.294,0,0,1,2.083-1.4,2.888,2.888,0,0,1,.826.105Z" transform="translate(846 36)" fill="#12263f"/>
      <path id="Trazado_634779" data-name="Trazado 634779" d="M1028.5,0H0" transform="translate(1 120.501)" fill="none" stroke="#e1e1e1" stroke-width="1"/>
      <path id="Trazado_634780" data-name="Trazado 634780" d="M1028.5,0H0" transform="translate(1 183.501)" fill="none" stroke="#e1e1e1" stroke-width="1"/>
      <path id="Trazado_634781" data-name="Trazado 634781" d="M1028.5,0H0" transform="translate(1 248.501)" fill="none" stroke="#e1e1e1" stroke-width="1"/>
      <path id="Trazado_634782" data-name="Trazado 634782" d="M0,0V451.673" transform="translate(514.75 54.827)" fill="none" stroke="#e1e1e1" stroke-width="1"/>
      <path id="Trazado_634783" data-name="Trazado 634783" d="M0,0V451.673" transform="translate(772.125 54.827)" fill="none" stroke="#e1e1e1" stroke-width="1"/>
      <path id="Trazado_634784" data-name="Trazado 634784" d="M0,0V452" transform="translate(1029.5 54.827)" fill="none" stroke="#e1e1e1" stroke-width="1"/>
      <path id="Trazado_634785" data-name="Trazado 634785" d="M0,0V451.673" transform="translate(258.205 54.827)" fill="none" stroke="#e1e1e1" stroke-width="1"/>
      <path id="Trazado_634786" data-name="Trazado 634786" d="M0,0V451.673" transform="translate(1.5 54.827)" fill="none" stroke="#e1e1e1" stroke-width="1"/>
      <path id="Trazado_634787" data-name="Trazado 634787" d="M5.492-4.6H2.82V0H1.313V-11.375H5.078a4.457,4.457,0,0,1,2.957.875A3.148,3.148,0,0,1,9.07-7.953,3.062,3.062,0,0,1,8.5-6.1a3.428,3.428,0,0,1-1.6,1.18L9.57-.094V0H7.961ZM2.82-5.828h2.3A2.6,2.6,0,0,0,6.9-6.407a1.959,1.959,0,0,0,.66-1.55,2.062,2.062,0,0,0-.629-1.62,2.663,2.663,0,0,0-1.816-.571H2.82ZM14.453.156a3.693,3.693,0,0,1-2.8-1.129,4.19,4.19,0,0,1-1.078-3.02v-.266a5.073,5.073,0,0,1,.48-2.246A3.748,3.748,0,0,1,12.4-8.051a3.378,3.378,0,0,1,1.871-.559,3.166,3.166,0,0,1,2.563,1.086,4.7,4.7,0,0,1,.914,3.109v.6H12.023a3,3,0,0,0,.73,2.02,2.3,2.3,0,0,0,1.777.77,2.517,2.517,0,0,0,1.3-.312,3.259,3.259,0,0,0,.93-.828l.883.688A3.55,3.55,0,0,1,14.453.156Zm-.18-7.578a1.928,1.928,0,0,0-1.469.637A3.1,3.1,0,0,0,12.07-5H16.3v-.109a2.753,2.753,0,0,0-.594-1.707A1.815,1.815,0,0,0,14.273-7.422ZM19.07-4.3a4.952,4.952,0,0,1,.922-3.129,2.915,2.915,0,0,1,2.414-1.184,2.932,2.932,0,0,1,2.352,1.016V-12H26.2V0H24.875L24.8-.906A2.943,2.943,0,0,1,22.391.156,2.887,2.887,0,0,1,20-1.047a5.008,5.008,0,0,1-.926-3.141Zm1.445.164a3.749,3.749,0,0,0,.594,2.25,1.92,1.92,0,0,0,1.641.813A2.108,2.108,0,0,0,24.758-2.3V-6.187a2.125,2.125,0,0,0-1.992-1.2,1.929,1.929,0,0,0-1.656.82A4.128,4.128,0,0,0,20.516-4.133ZM28.063-4.3a4.993,4.993,0,0,1,.488-2.234A3.643,3.643,0,0,1,29.91-8.07,3.7,3.7,0,0,1,31.9-8.609a3.565,3.565,0,0,1,2.793,1.2,4.6,4.6,0,0,1,1.066,3.18v.1a5.036,5.036,0,0,1-.473,2.215A3.589,3.589,0,0,1,33.934-.391a3.743,3.743,0,0,1-2.02.547,3.556,3.556,0,0,1-2.785-1.2A4.575,4.575,0,0,1,28.063-4.2Zm1.453.172a3.616,3.616,0,0,0,.652,2.258,2.088,2.088,0,0,0,1.746.852,2.075,2.075,0,0,0,1.75-.863A3.955,3.955,0,0,0,34.313-4.3a3.61,3.61,0,0,0-.66-2.254A2.1,2.1,0,0,0,31.9-7.422a2.075,2.075,0,0,0-1.727.852A3.925,3.925,0,0,0,29.516-4.133Zm9.422-4.32.047,1.063a3.08,3.08,0,0,1,2.531-1.219q2.68,0,2.7,3.023V0H42.773V-5.594a1.946,1.946,0,0,0-.418-1.352,1.675,1.675,0,0,0-1.277-.437,2.086,2.086,0,0,0-1.234.375,2.546,2.546,0,0,0-.828.984V0H37.57V-8.453ZM46.047-4.3a4.952,4.952,0,0,1,.922-3.129,2.915,2.915,0,0,1,2.414-1.184,2.932,2.932,0,0,1,2.352,1.016V-12H53.18V0H51.852l-.07-.906A2.943,2.943,0,0,1,49.367.156a2.887,2.887,0,0,1-2.395-1.2,5.008,5.008,0,0,1-.926-3.141Zm1.445.164a3.749,3.749,0,0,0,.594,2.25,1.92,1.92,0,0,0,1.641.813A2.108,2.108,0,0,0,51.734-2.3V-6.187a2.125,2.125,0,0,0-1.992-1.2,1.929,1.929,0,0,0-1.656.82A4.128,4.128,0,0,0,47.492-4.133ZM60.641,0a3.036,3.036,0,0,1-.2-.891A3.225,3.225,0,0,1,58.031.156,2.984,2.984,0,0,1,55.98-.551a2.287,2.287,0,0,1-.8-1.793,2.39,2.39,0,0,1,1-2.051,4.733,4.733,0,0,1,2.824-.73h1.406v-.664A1.623,1.623,0,0,0,59.961-7a1.821,1.821,0,0,0-1.336-.449,2.107,2.107,0,0,0-1.3.391,1.151,1.151,0,0,0-.523.945H55.352A2,2,0,0,1,55.8-7.332a3.066,3.066,0,0,1,1.219-.934,4.1,4.1,0,0,1,1.691-.344A3.342,3.342,0,0,1,61-7.879a2.635,2.635,0,0,1,.859,2.012v3.891a4.757,4.757,0,0,0,.3,1.852V0Zm-2.4-1.1a2.54,2.54,0,0,0,1.289-.352,2.127,2.127,0,0,0,.883-.914V-4.1H59.281q-2.656,0-2.656,1.555a1.316,1.316,0,0,0,.453,1.063A1.742,1.742,0,0,0,58.242-1.1Z" transform="translate(12.5 94.327)" fill="#12263f"/>
      <path id="Trazado_634788" data-name="Trazado 634788" d="M-28.406-3.82h1.578v1.18h-1.578V0h-1.453V-2.641h-5.18v-.852l5.094-7.883h1.539Zm-4.992,0h3.539V-9.4l-.172.313Zm13.945-6.68v2.047h1.578v1.117h-1.578v5.249a1.173,1.173,0,0,0,.211.763.888.888,0,0,0,.719.254,3.5,3.5,0,0,0,.688-.094V0a4.215,4.215,0,0,1-1.109.155A1.8,1.8,0,0,1-20.406-.43,2.517,2.517,0,0,1-20.9-2.094V-7.336h-1.539V-8.453H-20.9V-10.5ZM-14.617,0h-1.445V-8.453h1.445ZM-16.18-10.7a.863.863,0,0,1,.215-.594.807.807,0,0,1,.637-.242.819.819,0,0,1,.641.242.854.854,0,0,1,.219.594.826.826,0,0,1-.219.586.834.834,0,0,1-.641.234.821.821,0,0,1-.637-.234A.834.834,0,0,1-16.18-10.7ZM-8.8.156a3.693,3.693,0,0,1-2.8-1.129,4.19,4.19,0,0,1-1.078-3.02v-.266a5.073,5.073,0,0,1,.48-2.246,3.748,3.748,0,0,1,1.344-1.547,3.378,3.378,0,0,1,1.871-.559A3.166,3.166,0,0,1-6.414-7.523,4.7,4.7,0,0,1-5.5-4.414v.6h-5.727a3,3,0,0,0,.73,2.02,2.3,2.3,0,0,0,1.777.77,2.517,2.517,0,0,0,1.3-.312,3.259,3.259,0,0,0,.93-.828l.883.688A3.55,3.55,0,0,1-8.8.156Zm-.18-7.578a1.928,1.928,0,0,0-1.469.637A3.1,3.1,0,0,0-11.18-5h4.234v-.109a2.753,2.753,0,0,0-.594-1.707A1.815,1.815,0,0,0-8.977-7.422Zm6.508-1.031.039.938A3.122,3.122,0,0,1,.078-8.609,2.417,2.417,0,0,1,2.492-7.25a3.2,3.2,0,0,1,1.1-.984,3.242,3.242,0,0,1,1.6-.375q2.781,0,2.828,2.945V0H6.57V-5.578a1.941,1.941,0,0,0-.414-1.355,1.823,1.823,0,0,0-1.391-.449A1.916,1.916,0,0,0,3.43-6.9a1.949,1.949,0,0,0-.617,1.293V0H1.359V-5.539a1.613,1.613,0,0,0-1.8-1.844A1.934,1.934,0,0,0-2.391-6.172V0H-3.836V-8.453Zm19.8,4.32a5.062,5.062,0,0,1-.883,3.109A2.829,2.829,0,0,1,14.063.156,3.1,3.1,0,0,1,11.641-.82V3.25H10.2v-11.7h1.32l.07.938a2.977,2.977,0,0,1,2.453-1.094,2.882,2.882,0,0,1,2.41,1.148,5.117,5.117,0,0,1,.887,3.2ZM15.891-4.3a3.735,3.735,0,0,0-.609-2.258,1.963,1.963,0,0,0-1.672-.828,2.125,2.125,0,0,0-1.969,1.164V-2.18a2.129,2.129,0,0,0,1.984,1.156,1.954,1.954,0,0,0,1.652-.824A4.077,4.077,0,0,0,15.891-4.3Zm2.9-.008a4.993,4.993,0,0,1,.488-2.234A3.643,3.643,0,0,1,20.637-8.07a3.7,3.7,0,0,1,1.988-.539,3.565,3.565,0,0,1,2.793,1.2,4.6,4.6,0,0,1,1.066,3.18v.1a5.036,5.036,0,0,1-.473,2.215A3.589,3.589,0,0,1,24.66-.391a3.743,3.743,0,0,1-2.02.547,3.556,3.556,0,0,1-2.785-1.2A4.575,4.575,0,0,1,18.789-4.2Zm1.453.172a3.616,3.616,0,0,0,.652,2.258,2.088,2.088,0,0,0,1.746.852,2.075,2.075,0,0,0,1.75-.863A3.955,3.955,0,0,0,25.039-4.3a3.61,3.61,0,0,0-.66-2.254,2.1,2.1,0,0,0-1.754-.863A2.075,2.075,0,0,0,20.9-6.57,3.925,3.925,0,0,0,20.242-4.133ZM33.219-2.242a1.064,1.064,0,0,0-.441-.91,4.249,4.249,0,0,0-1.539-.559A7.277,7.277,0,0,1,29.5-4.273a2.479,2.479,0,0,1-.953-.781,1.869,1.869,0,0,1-.309-1.078,2.193,2.193,0,0,1,.879-1.758,3.432,3.432,0,0,1,2.246-.719,3.532,3.532,0,0,1,2.332.742,2.357,2.357,0,0,1,.895,1.9H33.133a1.3,1.3,0,0,0-.5-1.023,1.888,1.888,0,0,0-1.27-.43,1.976,1.976,0,0,0-1.234.344,1.082,1.082,0,0,0-.445.9.877.877,0,0,0,.414.789,5.1,5.1,0,0,0,1.5.508,7.8,7.8,0,0,1,1.754.578,2.558,2.558,0,0,1,1,.809,1.988,1.988,0,0,1,.324,1.152,2.163,2.163,0,0,1-.906,1.816,3.8,3.8,0,0,1-2.352.684,4.257,4.257,0,0,1-1.8-.359,2.922,2.922,0,0,1-1.223-1A2.42,2.42,0,0,1,27.945-2.6h1.445a1.5,1.5,0,0,0,.582,1.152,2.258,2.258,0,0,0,1.434.426,2.331,2.331,0,0,0,1.316-.332A1.02,1.02,0,0,0,33.219-2.242Z" transform="translate(867 97.327)" fill="#12263f"/>
      <path id="Trazado_634789" data-name="Trazado 634789" d="M1.32,0V-11.375H5.039a4.317,4.317,0,0,1,2.785.766,2.759,2.759,0,0,1,.934,2.266A2.31,2.31,0,0,1,8.3-6.934a2.938,2.938,0,0,1-1.234.949A2.638,2.638,0,0,1,8.527-5a2.814,2.814,0,0,1,.535,1.723A3.042,3.042,0,0,1,8.07-.875,4.1,4.1,0,0,1,5.266,0Zm1.5-5.32v4.094H5.3A2.385,2.385,0,0,0,6.949-1.77a1.907,1.907,0,0,0,.605-1.5q0-2.055-2.234-2.055Zm0-1.2H5.086A2.375,2.375,0,0,0,6.66-7.017a1.654,1.654,0,0,0,.59-1.339A1.626,1.626,0,0,0,6.7-9.722a2.686,2.686,0,0,0-1.664-.427H2.82ZM12.625,0H11.18V-12h1.445Zm7.531,0a3.036,3.036,0,0,1-.2-.891A3.225,3.225,0,0,1,17.547.156,2.984,2.984,0,0,1,15.5-.551a2.287,2.287,0,0,1-.8-1.793,2.39,2.39,0,0,1,1-2.051,4.733,4.733,0,0,1,2.824-.73H19.93v-.664A1.623,1.623,0,0,0,19.477-7a1.821,1.821,0,0,0-1.336-.449,2.108,2.108,0,0,0-1.3.391,1.151,1.151,0,0,0-.523.945H14.867a2,2,0,0,1,.449-1.223,3.066,3.066,0,0,1,1.219-.934,4.1,4.1,0,0,1,1.691-.344,3.342,3.342,0,0,1,2.289.73,2.635,2.635,0,0,1,.859,2.012v3.891a4.757,4.757,0,0,0,.3,1.852V0Zm-2.4-1.1a2.54,2.54,0,0,0,1.289-.352,2.127,2.127,0,0,0,.883-.914V-4.1H18.8q-2.656,0-2.656,1.555a1.316,1.316,0,0,0,.453,1.063A1.742,1.742,0,0,0,17.758-1.1Zm7.25-7.352.047,1.063a3.08,3.08,0,0,1,2.531-1.219q2.68,0,2.7,3.023V0H28.844V-5.594a1.946,1.946,0,0,0-.418-1.352,1.675,1.675,0,0,0-1.277-.437,2.086,2.086,0,0,0-1.234.375,2.546,2.546,0,0,0-.828.984V0H23.641V-8.453Zm10.852,7.43a2.082,2.082,0,0,0,1.352-.469,1.649,1.649,0,0,0,.641-1.172h1.367a2.621,2.621,0,0,1-.5,1.383,3.293,3.293,0,0,1-1.23,1.047,3.55,3.55,0,0,1-1.629.391A3.482,3.482,0,0,1,33.113-1a4.59,4.59,0,0,1-1.02-3.152v-.242a5.089,5.089,0,0,1,.453-2.2,3.451,3.451,0,0,1,1.3-1.492,3.7,3.7,0,0,1,2-.531,3.39,3.39,0,0,1,2.363.852,3.043,3.043,0,0,1,1,2.211H37.852a1.992,1.992,0,0,0-.621-1.348,1.932,1.932,0,0,0-1.379-.527,2.023,2.023,0,0,0-1.707.793,3.724,3.724,0,0,0-.605,2.293v.273a3.65,3.65,0,0,0,.6,2.25A2.033,2.033,0,0,0,35.859-1.023ZM46.063,0a3.036,3.036,0,0,1-.2-.891A3.225,3.225,0,0,1,43.453.156,2.984,2.984,0,0,1,41.4-.551a2.287,2.287,0,0,1-.8-1.793,2.39,2.39,0,0,1,1-2.051,4.733,4.733,0,0,1,2.824-.73h1.406v-.664A1.623,1.623,0,0,0,45.383-7a1.821,1.821,0,0,0-1.336-.449,2.107,2.107,0,0,0-1.3.391,1.151,1.151,0,0,0-.523.945H40.773a2,2,0,0,1,.449-1.223,3.066,3.066,0,0,1,1.219-.934,4.1,4.1,0,0,1,1.691-.344,3.342,3.342,0,0,1,2.289.73,2.635,2.635,0,0,1,.859,2.012v3.891a4.757,4.757,0,0,0,.3,1.852V0Zm-2.4-1.1a2.54,2.54,0,0,0,1.289-.352,2.127,2.127,0,0,0,.883-.914V-4.1H44.7q-2.656,0-2.656,1.555A1.316,1.316,0,0,0,42.5-1.484,1.742,1.742,0,0,0,43.664-1.1Z" transform="translate(12.5 158.327)" fill="#12263f"/>
      <path id="Trazado_634790" data-name="Trazado 634790" d="M-27.055,0h-7.453V-1.039l3.938-4.375a9.354,9.354,0,0,0,1.207-1.613,2.693,2.693,0,0,0,.332-1.285,2.041,2.041,0,0,0-.539-1.461,1.885,1.885,0,0,0-1.437-.57,2.232,2.232,0,0,0-1.676.613,2.343,2.343,0,0,0-.6,1.707h-1.445a3.355,3.355,0,0,1,1.012-2.539,3.751,3.751,0,0,1,2.707-.969A3.6,3.6,0,0,1-28.5-10.7a2.838,2.838,0,0,1,.922,2.215q0,1.68-2.141,4l-3.047,3.3h5.711Zm7.6-10.5v2.047h1.578v1.117h-1.578v5.249a1.173,1.173,0,0,0,.211.763.888.888,0,0,0,.719.254,3.5,3.5,0,0,0,.688-.094V0a4.215,4.215,0,0,1-1.109.155A1.8,1.8,0,0,1-20.406-.43,2.517,2.517,0,0,1-20.9-2.094V-7.336h-1.539V-8.453H-20.9V-10.5ZM-14.617,0h-1.445V-8.453h1.445ZM-16.18-10.7a.863.863,0,0,1,.215-.594.807.807,0,0,1,.637-.242.819.819,0,0,1,.641.242.854.854,0,0,1,.219.594.826.826,0,0,1-.219.586.834.834,0,0,1-.641.234.821.821,0,0,1-.637-.234A.834.834,0,0,1-16.18-10.7ZM-8.8.156a3.693,3.693,0,0,1-2.8-1.129,4.19,4.19,0,0,1-1.078-3.02v-.266a5.073,5.073,0,0,1,.48-2.246,3.748,3.748,0,0,1,1.344-1.547,3.378,3.378,0,0,1,1.871-.559A3.166,3.166,0,0,1-6.414-7.523,4.7,4.7,0,0,1-5.5-4.414v.6h-5.727a3,3,0,0,0,.73,2.02,2.3,2.3,0,0,0,1.777.77,2.517,2.517,0,0,0,1.3-.312,3.259,3.259,0,0,0,.93-.828l.883.688A3.55,3.55,0,0,1-8.8.156Zm-.18-7.578a1.928,1.928,0,0,0-1.469.637A3.1,3.1,0,0,0-11.18-5h4.234v-.109a2.753,2.753,0,0,0-.594-1.707A1.815,1.815,0,0,0-8.977-7.422Zm6.508-1.031.039.938A3.122,3.122,0,0,1,.078-8.609,2.417,2.417,0,0,1,2.492-7.25a3.2,3.2,0,0,1,1.1-.984,3.242,3.242,0,0,1,1.6-.375q2.781,0,2.828,2.945V0H6.57V-5.578a1.941,1.941,0,0,0-.414-1.355,1.823,1.823,0,0,0-1.391-.449A1.916,1.916,0,0,0,3.43-6.9a1.949,1.949,0,0,0-.617,1.293V0H1.359V-5.539a1.613,1.613,0,0,0-1.8-1.844A1.934,1.934,0,0,0-2.391-6.172V0H-3.836V-8.453Zm19.8,4.32a5.062,5.062,0,0,1-.883,3.109A2.829,2.829,0,0,1,14.063.156,3.1,3.1,0,0,1,11.641-.82V3.25H10.2v-11.7h1.32l.07.938a2.977,2.977,0,0,1,2.453-1.094,2.882,2.882,0,0,1,2.41,1.148,5.117,5.117,0,0,1,.887,3.2ZM15.891-4.3a3.735,3.735,0,0,0-.609-2.258,1.963,1.963,0,0,0-1.672-.828,2.125,2.125,0,0,0-1.969,1.164V-2.18a2.129,2.129,0,0,0,1.984,1.156,1.954,1.954,0,0,0,1.652-.824A4.077,4.077,0,0,0,15.891-4.3Zm2.9-.008a4.993,4.993,0,0,1,.488-2.234A3.643,3.643,0,0,1,20.637-8.07a3.7,3.7,0,0,1,1.988-.539,3.565,3.565,0,0,1,2.793,1.2,4.6,4.6,0,0,1,1.066,3.18v.1a5.036,5.036,0,0,1-.473,2.215A3.589,3.589,0,0,1,24.66-.391a3.743,3.743,0,0,1-2.02.547,3.556,3.556,0,0,1-2.785-1.2A4.575,4.575,0,0,1,18.789-4.2Zm1.453.172a3.616,3.616,0,0,0,.652,2.258,2.088,2.088,0,0,0,1.746.852,2.075,2.075,0,0,0,1.75-.863A3.955,3.955,0,0,0,25.039-4.3a3.61,3.61,0,0,0-.66-2.254,2.1,2.1,0,0,0-1.754-.863A2.075,2.075,0,0,0,20.9-6.57,3.925,3.925,0,0,0,20.242-4.133ZM33.219-2.242a1.064,1.064,0,0,0-.441-.91,4.249,4.249,0,0,0-1.539-.559A7.277,7.277,0,0,1,29.5-4.273a2.479,2.479,0,0,1-.953-.781,1.869,1.869,0,0,1-.309-1.078,2.193,2.193,0,0,1,.879-1.758,3.432,3.432,0,0,1,2.246-.719,3.532,3.532,0,0,1,2.332.742,2.357,2.357,0,0,1,.895,1.9H33.133a1.3,1.3,0,0,0-.5-1.023,1.888,1.888,0,0,0-1.27-.43,1.976,1.976,0,0,0-1.234.344,1.082,1.082,0,0,0-.445.9.877.877,0,0,0,.414.789,5.1,5.1,0,0,0,1.5.508,7.8,7.8,0,0,1,1.754.578,2.558,2.558,0,0,1,1,.809,1.988,1.988,0,0,1,.324,1.152,2.163,2.163,0,0,1-.906,1.816,3.8,3.8,0,0,1-2.352.684,4.257,4.257,0,0,1-1.8-.359,2.922,2.922,0,0,1-1.223-1A2.42,2.42,0,0,1,27.945-2.6h1.445a1.5,1.5,0,0,0,.582,1.152,2.258,2.258,0,0,0,1.434.426,2.331,2.331,0,0,0,1.316-.332A1.02,1.02,0,0,0,33.219-2.242Z" transform="translate(867 161.327)" fill="#12263f"/>
      <path id="Trazado_634791" data-name="Trazado 634791" d="M10.063,0H8.555L2.828-8.766V0H1.32V-11.375H2.828L8.57-2.57v-8.8h1.492Zm5.945.156a3.693,3.693,0,0,1-2.8-1.129,4.19,4.19,0,0,1-1.078-3.02v-.266a5.073,5.073,0,0,1,.48-2.246,3.748,3.748,0,0,1,1.344-1.547,3.378,3.378,0,0,1,1.871-.559,3.166,3.166,0,0,1,2.563,1.086A4.7,4.7,0,0,1,19.3-4.414v.6H13.578a3,3,0,0,0,.73,2.02,2.3,2.3,0,0,0,1.777.77,2.517,2.517,0,0,0,1.3-.312,3.259,3.259,0,0,0,.93-.828l.883.688A3.55,3.55,0,0,1,16.008.156Zm-.18-7.578a1.928,1.928,0,0,0-1.469.637A3.1,3.1,0,0,0,13.625-5h4.234v-.109a2.753,2.753,0,0,0-.594-1.707A1.815,1.815,0,0,0,15.828-7.422Zm4.8,3.125a4.968,4.968,0,0,1,.914-3.145,2.923,2.923,0,0,1,2.422-1.168,2.908,2.908,0,0,1,2.414,1.094l.07-.937h1.32V-.2A3.439,3.439,0,0,1,26.8,2.383a3.589,3.589,0,0,1-2.613.945A4.348,4.348,0,0,1,22.4,2.938a3.08,3.08,0,0,1-1.336-1.07L21.813,1a2.826,2.826,0,0,0,2.273,1.148,2.214,2.214,0,0,0,1.645-.594,2.269,2.269,0,0,0,.59-1.672V-.844a2.971,2.971,0,0,1-2.367,1,2.887,2.887,0,0,1-2.4-1.2A5.224,5.224,0,0,1,20.633-4.3Zm1.453.164a3.79,3.79,0,0,0,.586,2.246,1.9,1.9,0,0,0,1.641.816A2.117,2.117,0,0,0,26.32-2.312V-6.172a2.142,2.142,0,0,0-1.992-1.211,1.921,1.921,0,0,0-1.648.82A4.128,4.128,0,0,0,22.086-4.133ZM34.039-7.156a4.331,4.331,0,0,0-.711-.055A1.9,1.9,0,0,0,31.4-6V0H29.953V-8.453h1.406l.023.977A2.251,2.251,0,0,1,33.4-8.609a1.477,1.477,0,0,1,.641.109ZM40.273,0a3.036,3.036,0,0,1-.2-.891A3.225,3.225,0,0,1,37.664.156a2.984,2.984,0,0,1-2.051-.707,2.287,2.287,0,0,1-.8-1.793,2.39,2.39,0,0,1,1-2.051,4.733,4.733,0,0,1,2.824-.73h1.406v-.664A1.623,1.623,0,0,0,39.594-7a1.821,1.821,0,0,0-1.336-.449,2.107,2.107,0,0,0-1.3.391,1.151,1.151,0,0,0-.523.945H34.984a2,2,0,0,1,.449-1.223,3.066,3.066,0,0,1,1.219-.934,4.1,4.1,0,0,1,1.691-.344,3.342,3.342,0,0,1,2.289.73,2.635,2.635,0,0,1,.859,2.012v3.891a4.757,4.757,0,0,0,.3,1.852V0Zm-2.4-1.1a2.54,2.54,0,0,0,1.289-.352,2.127,2.127,0,0,0,.883-.914V-4.1H38.914q-2.656,0-2.656,1.555a1.316,1.316,0,0,0,.453,1.063A1.742,1.742,0,0,0,37.875-1.1Z" transform="translate(12.5 223.327)" fill="#12263f"/>
      <path id="Trazado_634792" data-name="Trazado 634792" d="M-25.633,0h-1.453V-9.633L-30-8.562V-9.875l4.141-1.555h.227Zm10.3-10.5v2.047h1.578v1.117h-1.578v5.249a1.173,1.173,0,0,0,.211.763.888.888,0,0,0,.719.254,3.5,3.5,0,0,0,.688-.094V0A4.215,4.215,0,0,1-14.82.156,1.8,1.8,0,0,1-16.281-.43a2.517,2.517,0,0,1-.492-1.664V-7.336h-1.539V-8.453h1.539V-10.5ZM-10.492,0h-1.445V-8.453h1.445Zm-1.562-10.7a.863.863,0,0,1,.215-.594.807.807,0,0,1,.637-.242.819.819,0,0,1,.641.242.854.854,0,0,1,.219.594.826.826,0,0,1-.219.586.834.834,0,0,1-.641.234.821.821,0,0,1-.637-.234A.834.834,0,0,1-12.055-10.7ZM-4.672.156a3.693,3.693,0,0,1-2.8-1.129,4.19,4.19,0,0,1-1.078-3.02v-.266A5.073,5.073,0,0,1-8.066-6.5,3.748,3.748,0,0,1-6.723-8.051a3.378,3.378,0,0,1,1.871-.559A3.166,3.166,0,0,1-2.289-7.523a4.7,4.7,0,0,1,.914,3.109v.6H-7.1a3,3,0,0,0,.73,2.02,2.3,2.3,0,0,0,1.777.77,2.517,2.517,0,0,0,1.3-.312,3.259,3.259,0,0,0,.93-.828l.883.688A3.55,3.55,0,0,1-4.672.156Zm-.18-7.578a1.928,1.928,0,0,0-1.469.637A3.1,3.1,0,0,0-7.055-5H-2.82v-.109a2.753,2.753,0,0,0-.594-1.707A1.815,1.815,0,0,0-4.852-7.422ZM1.656-8.453l.039.938A3.122,3.122,0,0,1,4.2-8.609,2.417,2.417,0,0,1,6.617-7.25a3.2,3.2,0,0,1,1.1-.984,3.242,3.242,0,0,1,1.6-.375q2.781,0,2.828,2.945V0H10.7V-5.578a1.941,1.941,0,0,0-.414-1.355,1.823,1.823,0,0,0-1.391-.449,1.916,1.916,0,0,0-1.336.48,1.949,1.949,0,0,0-.617,1.293V0H5.484V-5.539a1.613,1.613,0,0,0-1.8-1.844A1.934,1.934,0,0,0,1.734-6.172V0H.289V-8.453Zm19.8,4.32a5.062,5.062,0,0,1-.883,3.109A2.829,2.829,0,0,1,18.188.156,3.1,3.1,0,0,1,15.766-.82V3.25H14.32v-11.7h1.32l.07.938a2.977,2.977,0,0,1,2.453-1.094,2.882,2.882,0,0,1,2.41,1.148,5.117,5.117,0,0,1,.887,3.2ZM20.016-4.3a3.735,3.735,0,0,0-.609-2.258,1.963,1.963,0,0,0-1.672-.828,2.125,2.125,0,0,0-1.969,1.164V-2.18A2.129,2.129,0,0,0,17.75-1.023,1.954,1.954,0,0,0,19.4-1.848,4.077,4.077,0,0,0,20.016-4.3Zm2.9-.008A4.993,4.993,0,0,1,23.4-6.539,3.643,3.643,0,0,1,24.762-8.07a3.7,3.7,0,0,1,1.988-.539,3.565,3.565,0,0,1,2.793,1.2,4.6,4.6,0,0,1,1.066,3.18v.1a5.036,5.036,0,0,1-.473,2.215A3.589,3.589,0,0,1,28.785-.391a3.743,3.743,0,0,1-2.02.547,3.556,3.556,0,0,1-2.785-1.2A4.575,4.575,0,0,1,22.914-4.2Zm1.453.172a3.616,3.616,0,0,0,.652,2.258,2.088,2.088,0,0,0,1.746.852,2.075,2.075,0,0,0,1.75-.863A3.955,3.955,0,0,0,29.164-4.3a3.61,3.61,0,0,0-.66-2.254,2.1,2.1,0,0,0-1.754-.863,2.075,2.075,0,0,0-1.727.852A3.925,3.925,0,0,0,24.367-4.133Z" transform="translate(867 225.327)" fill="#12263f"/>
      <path id="Trazado_634793" data-name="Trazado 634793" d="M1028.5,0H0" transform="translate(1 313.503)" fill="none" stroke="#e1e1e1" stroke-width="1"/>
      <path id="Trazado_634794" data-name="Trazado 634794" d="M1028.5,0H0" transform="translate(1 376.503)" fill="none" stroke="#e1e1e1" stroke-width="1"/>
      <path id="Trazado_634795" data-name="Trazado 634795" d="M1028.5,0H0" transform="translate(1 441.503)" fill="none" stroke="#e1e1e1" stroke-width="1"/>
      <path id="Trazado_634796" data-name="Trazado 634796" d="M9.688-3.609A4.185,4.185,0,0,1,8.355-.824a4.365,4.365,0,0,1-2.98.98,4.008,4.008,0,0,1-3.23-1.445A5.815,5.815,0,0,1,.93-5.156V-6.25A6.481,6.481,0,0,1,1.5-9.039,4.231,4.231,0,0,1,3.1-10.887a4.47,4.47,0,0,1,2.406-.645A4.11,4.11,0,0,1,8.414-10.52a4.235,4.235,0,0,1,1.273,2.8H8.18a3.268,3.268,0,0,0-.848-1.975A2.565,2.565,0,0,0,5.508-10.3,2.684,2.684,0,0,0,3.254-9.241a4.882,4.882,0,0,0-.816,3.026v1.1a5.018,5.018,0,0,0,.773,2.948A2.5,2.5,0,0,0,5.375-1.07a2.887,2.887,0,0,0,1.918-.566A3.143,3.143,0,0,0,8.18-3.609Zm1.438-.7a4.993,4.993,0,0,1,.488-2.234A3.643,3.643,0,0,1,12.973-8.07a3.7,3.7,0,0,1,1.988-.539,3.565,3.565,0,0,1,2.793,1.2,4.6,4.6,0,0,1,1.066,3.18v.1a5.036,5.036,0,0,1-.473,2.215A3.589,3.589,0,0,1,17-.391a3.743,3.743,0,0,1-2.02.547,3.556,3.556,0,0,1-2.785-1.2A4.575,4.575,0,0,1,11.125-4.2Zm1.453.172a3.616,3.616,0,0,0,.652,2.258,2.088,2.088,0,0,0,1.746.852,2.075,2.075,0,0,0,1.75-.863A3.955,3.955,0,0,0,17.375-4.3a3.61,3.61,0,0,0-.66-2.254,2.1,2.1,0,0,0-1.754-.863,2.075,2.075,0,0,0-1.727.852A3.925,3.925,0,0,0,12.578-4.133ZM24.719-7.156a4.331,4.331,0,0,0-.711-.055A1.9,1.9,0,0,0,22.078-6V0H20.633V-8.453h1.406l.023.977a2.251,2.251,0,0,1,2.016-1.133,1.477,1.477,0,0,1,.641.109Zm4.57,6.133a2.082,2.082,0,0,0,1.352-.469,1.649,1.649,0,0,0,.641-1.172h1.367a2.621,2.621,0,0,1-.5,1.383,3.293,3.293,0,0,1-1.23,1.047,3.55,3.55,0,0,1-1.629.391A3.482,3.482,0,0,1,26.543-1a4.59,4.59,0,0,1-1.02-3.152v-.242a5.089,5.089,0,0,1,.453-2.2,3.451,3.451,0,0,1,1.3-1.492,3.7,3.7,0,0,1,2-.531,3.39,3.39,0,0,1,2.363.852,3.043,3.043,0,0,1,1,2.211H31.281a1.992,1.992,0,0,0-.621-1.348,1.932,1.932,0,0,0-1.379-.527,2.023,2.023,0,0,0-1.707.793,3.724,3.724,0,0,0-.605,2.293v.273a3.65,3.65,0,0,0,.6,2.25A2.033,2.033,0,0,0,29.289-1.023Zm6.43-6.406a3.073,3.073,0,0,1,2.5-1.18q2.68,0,2.7,3.023V0H39.477V-5.594a1.946,1.946,0,0,0-.418-1.352,1.675,1.675,0,0,0-1.277-.437,2.086,2.086,0,0,0-1.234.375,2.546,2.546,0,0,0-.828.984V0H34.273V-12h1.445ZM46.594.156A3.693,3.693,0,0,1,43.8-.973a4.19,4.19,0,0,1-1.078-3.02v-.266A5.073,5.073,0,0,1,43.2-6.5a3.748,3.748,0,0,1,1.344-1.547,3.378,3.378,0,0,1,1.871-.559,3.166,3.166,0,0,1,2.563,1.086,4.7,4.7,0,0,1,.914,3.109v.6H44.164a3,3,0,0,0,.73,2.02,2.3,2.3,0,0,0,1.777.77,2.517,2.517,0,0,0,1.3-.312,3.259,3.259,0,0,0,.93-.828l.883.688A3.55,3.55,0,0,1,46.594.156Zm-.18-7.578a1.928,1.928,0,0,0-1.469.637A3.1,3.1,0,0,0,44.211-5h4.234v-.109a2.753,2.753,0,0,0-.594-1.707A1.815,1.815,0,0,0,46.414-7.422ZM56.781,0a3.036,3.036,0,0,1-.2-.891A3.225,3.225,0,0,1,54.172.156a2.984,2.984,0,0,1-2.051-.707,2.287,2.287,0,0,1-.8-1.793,2.39,2.39,0,0,1,1-2.051,4.733,4.733,0,0,1,2.824-.73h1.406v-.664A1.623,1.623,0,0,0,56.1-7a1.821,1.821,0,0,0-1.336-.449,2.107,2.107,0,0,0-1.3.391,1.151,1.151,0,0,0-.523.945H51.492a2,2,0,0,1,.449-1.223,3.066,3.066,0,0,1,1.219-.934,4.1,4.1,0,0,1,1.691-.344,3.342,3.342,0,0,1,2.289.73A2.635,2.635,0,0,1,58-5.867v3.891a4.757,4.757,0,0,0,.3,1.852V0Zm-2.4-1.1a2.54,2.54,0,0,0,1.289-.352,2.127,2.127,0,0,0,.883-.914V-4.1H55.422q-2.656,0-2.656,1.555a1.316,1.316,0,0,0,.453,1.063A1.742,1.742,0,0,0,54.383-1.1Z" transform="translate(12.5 287.327)" fill="#12263f"/>
      <path id="Trazado_634797" data-name="Trazado 634797" d="M-33.422,0h-1.453V-9.633l-2.914,1.07V-9.875l4.141-1.555h.227Zm4.672.977h-1.242l4.75-12.352h1.234ZM-15.141,0h-7.453V-1.039l3.938-4.375a9.354,9.354,0,0,0,1.207-1.613,2.693,2.693,0,0,0,.332-1.285,2.041,2.041,0,0,0-.539-1.461,1.885,1.885,0,0,0-1.437-.57,2.232,2.232,0,0,0-1.676.613,2.343,2.343,0,0,0-.6,1.707h-1.445A3.355,3.355,0,0,1-21.8-10.562a3.751,3.751,0,0,1,2.707-.969,3.6,3.6,0,0,1,2.508.832,2.838,2.838,0,0,1,.922,2.215q0,1.68-2.141,4l-3.047,3.3h5.711Zm7.6-10.5v2.047h1.578v1.117H-7.539v5.249a1.173,1.173,0,0,0,.211.763.888.888,0,0,0,.719.254,3.5,3.5,0,0,0,.688-.094V0A4.215,4.215,0,0,1-7.031.156,1.8,1.8,0,0,1-8.492-.43a2.517,2.517,0,0,1-.492-1.664V-7.336h-1.539V-8.453h1.539V-10.5ZM-2.7,0H-4.148V-8.453H-2.7ZM-4.266-10.7a.863.863,0,0,1,.215-.594.807.807,0,0,1,.637-.242.819.819,0,0,1,.641.242.854.854,0,0,1,.219.594.826.826,0,0,1-.219.586.834.834,0,0,1-.641.234.821.821,0,0,1-.637-.234A.834.834,0,0,1-4.266-10.7ZM3.117.156A3.693,3.693,0,0,1,.32-.973,4.19,4.19,0,0,1-.758-3.992v-.266A5.073,5.073,0,0,1-.277-6.5,3.748,3.748,0,0,1,1.066-8.051a3.378,3.378,0,0,1,1.871-.559A3.166,3.166,0,0,1,5.5-7.523a4.7,4.7,0,0,1,.914,3.109v.6H.688a3,3,0,0,0,.73,2.02,2.3,2.3,0,0,0,1.777.77,2.517,2.517,0,0,0,1.3-.312,3.259,3.259,0,0,0,.93-.828l.883.688A3.55,3.55,0,0,1,3.117.156Zm-.18-7.578a1.928,1.928,0,0,0-1.469.637A3.1,3.1,0,0,0,.734-5H4.969v-.109a2.753,2.753,0,0,0-.594-1.707A1.815,1.815,0,0,0,2.938-7.422ZM9.445-8.453l.039.938a3.122,3.122,0,0,1,2.508-1.094A2.417,2.417,0,0,1,14.406-7.25a3.2,3.2,0,0,1,1.1-.984,3.242,3.242,0,0,1,1.6-.375q2.781,0,2.828,2.945V0H18.484V-5.578a1.941,1.941,0,0,0-.414-1.355,1.823,1.823,0,0,0-1.391-.449,1.916,1.916,0,0,0-1.336.48,1.949,1.949,0,0,0-.617,1.293V0H13.273V-5.539a1.613,1.613,0,0,0-1.8-1.844A1.934,1.934,0,0,0,9.523-6.172V0H8.078V-8.453Zm19.8,4.32a5.062,5.062,0,0,1-.883,3.109A2.829,2.829,0,0,1,25.977.156,3.1,3.1,0,0,1,23.555-.82V3.25H22.109v-11.7h1.32l.07.938a2.977,2.977,0,0,1,2.453-1.094,2.882,2.882,0,0,1,2.41,1.148,5.117,5.117,0,0,1,.887,3.2ZM27.8-4.3A3.735,3.735,0,0,0,27.2-6.555a1.963,1.963,0,0,0-1.672-.828,2.125,2.125,0,0,0-1.969,1.164V-2.18a2.129,2.129,0,0,0,1.984,1.156,1.954,1.954,0,0,0,1.652-.824A4.077,4.077,0,0,0,27.8-4.3ZM30.7-4.3a4.993,4.993,0,0,1,.488-2.234A3.643,3.643,0,0,1,32.551-8.07a3.7,3.7,0,0,1,1.988-.539,3.565,3.565,0,0,1,2.793,1.2A4.6,4.6,0,0,1,38.4-4.234v.1a5.036,5.036,0,0,1-.473,2.215A3.589,3.589,0,0,1,36.574-.391a3.743,3.743,0,0,1-2.02.547,3.556,3.556,0,0,1-2.785-1.2A4.575,4.575,0,0,1,30.7-4.2Zm1.453.172a3.616,3.616,0,0,0,.652,2.258,2.088,2.088,0,0,0,1.746.852,2.075,2.075,0,0,0,1.75-.863A3.955,3.955,0,0,0,36.953-4.3a3.61,3.61,0,0,0-.66-2.254,2.1,2.1,0,0,0-1.754-.863,2.075,2.075,0,0,0-1.727.852A3.925,3.925,0,0,0,32.156-4.133Z" transform="translate(867 289.327)" fill="#12263f"/>
      <path id="Trazado_634798" data-name="Trazado 634798" d="M4.672-5.07A7.053,7.053,0,0,1,1.863-6.434a2.6,2.6,0,0,1-.879-2,2.751,2.751,0,0,1,1.074-2.223,4.269,4.269,0,0,1,2.793-.879,4.66,4.66,0,0,1,2.09.453,3.436,3.436,0,0,1,1.422,1.25,3.2,3.2,0,0,1,.5,1.742H7.359A2.08,2.08,0,0,0,6.7-9.713,2.669,2.669,0,0,0,4.852-10.3a2.732,2.732,0,0,0-1.73.489A1.632,1.632,0,0,0,2.5-8.458,1.468,1.468,0,0,0,3.09-7.28,5.785,5.785,0,0,0,5.1-6.4a9.316,9.316,0,0,1,2.219.88A3.367,3.367,0,0,1,8.5-4.4a2.861,2.861,0,0,1,.387,1.508A2.658,2.658,0,0,1,7.813-.676,4.6,4.6,0,0,1,4.93.156,5.347,5.347,0,0,1,2.742-.293a3.681,3.681,0,0,1-1.566-1.23A3,3,0,0,1,.625-3.3H2.133a1.959,1.959,0,0,0,.762,1.629,3.207,3.207,0,0,0,2.035.6,2.948,2.948,0,0,0,1.82-.484,1.573,1.573,0,0,0,.633-1.32A1.545,1.545,0,0,0,6.8-4.168,6.755,6.755,0,0,0,4.672-5.07ZM14.094.156A3.693,3.693,0,0,1,11.3-.973a4.19,4.19,0,0,1-1.078-3.02v-.266A5.073,5.073,0,0,1,10.7-6.5a3.748,3.748,0,0,1,1.344-1.547,3.378,3.378,0,0,1,1.871-.559,3.166,3.166,0,0,1,2.563,1.086,4.7,4.7,0,0,1,.914,3.109v.6H11.664a3,3,0,0,0,.73,2.02,2.3,2.3,0,0,0,1.777.77,2.517,2.517,0,0,0,1.3-.312,3.259,3.259,0,0,0,.93-.828l.883.688A3.55,3.55,0,0,1,14.094.156Zm-.18-7.578a1.928,1.928,0,0,0-1.469.637A3.1,3.1,0,0,0,11.711-5h4.234v-.109a2.753,2.753,0,0,0-.594-1.707A1.815,1.815,0,0,0,13.914-7.422Zm6.508-1.031.039.938a3.122,3.122,0,0,1,2.508-1.094A2.417,2.417,0,0,1,25.383-7.25a3.2,3.2,0,0,1,1.1-.984,3.242,3.242,0,0,1,1.6-.375q2.781,0,2.828,2.945V0H29.461V-5.578a1.941,1.941,0,0,0-.414-1.355,1.823,1.823,0,0,0-1.391-.449,1.916,1.916,0,0,0-1.336.48A1.949,1.949,0,0,0,25.7-5.609V0H24.25V-5.539a1.613,1.613,0,0,0-1.8-1.844A1.934,1.934,0,0,0,20.5-6.172V0H19.055V-8.453ZM34.656,0H33.211V-8.453h1.445ZM33.094-10.7a.863.863,0,0,1,.215-.594.807.807,0,0,1,.637-.242.819.819,0,0,1,.641.242.854.854,0,0,1,.219.594.826.826,0,0,1-.219.586.834.834,0,0,1-.641.234.821.821,0,0,1-.637-.234A.834.834,0,0,1,33.094-10.7Zm7.266,9.672a2.082,2.082,0,0,0,1.352-.469,1.649,1.649,0,0,0,.641-1.172h1.367a2.621,2.621,0,0,1-.5,1.383,3.293,3.293,0,0,1-1.23,1.047,3.55,3.55,0,0,1-1.629.391A3.482,3.482,0,0,1,37.613-1a4.59,4.59,0,0,1-1.02-3.152v-.242a5.089,5.089,0,0,1,.453-2.2,3.451,3.451,0,0,1,1.3-1.492,3.7,3.7,0,0,1,2-.531,3.39,3.39,0,0,1,2.363.852,3.043,3.043,0,0,1,1,2.211H42.352a1.992,1.992,0,0,0-.621-1.348,1.932,1.932,0,0,0-1.379-.527,2.023,2.023,0,0,0-1.707.793,3.724,3.724,0,0,0-.605,2.293v.273a3.65,3.65,0,0,0,.6,2.25A2.033,2.033,0,0,0,40.359-1.023Zm4.6-3.281a4.993,4.993,0,0,1,.488-2.234A3.643,3.643,0,0,1,46.809-8.07,3.7,3.7,0,0,1,48.8-8.609a3.565,3.565,0,0,1,2.793,1.2,4.6,4.6,0,0,1,1.066,3.18v.1a5.036,5.036,0,0,1-.473,2.215A3.589,3.589,0,0,1,50.832-.391a3.743,3.743,0,0,1-2.02.547,3.556,3.556,0,0,1-2.785-1.2A4.575,4.575,0,0,1,44.961-4.2Zm1.453.172a3.616,3.616,0,0,0,.652,2.258,2.088,2.088,0,0,0,1.746.852,2.075,2.075,0,0,0,1.75-.863A3.955,3.955,0,0,0,51.211-4.3a3.61,3.61,0,0,0-.66-2.254A2.1,2.1,0,0,0,48.8-7.422a2.075,2.075,0,0,0-1.727.852A3.925,3.925,0,0,0,46.414-4.133ZM58.555-7.156a4.331,4.331,0,0,0-.711-.055A1.9,1.9,0,0,0,55.914-6V0H54.469V-8.453h1.406l.023.977a2.251,2.251,0,0,1,2.016-1.133,1.477,1.477,0,0,1,.641.109Zm4.57,6.133a2.082,2.082,0,0,0,1.352-.469,1.649,1.649,0,0,0,.641-1.172h1.367a2.621,2.621,0,0,1-.5,1.383,3.293,3.293,0,0,1-1.23,1.047,3.55,3.55,0,0,1-1.629.391A3.482,3.482,0,0,1,60.379-1a4.59,4.59,0,0,1-1.02-3.152v-.242a5.089,5.089,0,0,1,.453-2.2,3.451,3.451,0,0,1,1.3-1.492,3.7,3.7,0,0,1,2-.531,3.39,3.39,0,0,1,2.363.852,3.043,3.043,0,0,1,1,2.211H65.117A1.992,1.992,0,0,0,64.5-6.895a1.932,1.932,0,0,0-1.379-.527,2.023,2.023,0,0,0-1.707.793A3.724,3.724,0,0,0,60.8-4.336v.273a3.65,3.65,0,0,0,.6,2.25A2.033,2.033,0,0,0,63.125-1.023Zm6.43-6.406a3.073,3.073,0,0,1,2.5-1.18q2.68,0,2.7,3.023V0H73.313V-5.594a1.946,1.946,0,0,0-.418-1.352,1.675,1.675,0,0,0-1.277-.437,2.086,2.086,0,0,0-1.234.375,2.546,2.546,0,0,0-.828.984V0H68.109V-12h1.445ZM80.43.156a3.693,3.693,0,0,1-2.8-1.129,4.19,4.19,0,0,1-1.078-3.02v-.266a5.073,5.073,0,0,1,.48-2.246,3.748,3.748,0,0,1,1.344-1.547,3.378,3.378,0,0,1,1.871-.559,3.166,3.166,0,0,1,2.563,1.086,4.7,4.7,0,0,1,.914,3.109v.6H78a3,3,0,0,0,.73,2.02,2.3,2.3,0,0,0,1.777.77,2.517,2.517,0,0,0,1.3-.312,3.259,3.259,0,0,0,.93-.828l.883.688A3.55,3.55,0,0,1,80.43.156Zm-.18-7.578a1.928,1.928,0,0,0-1.469.637A3.1,3.1,0,0,0,78.047-5h4.234v-.109a2.753,2.753,0,0,0-.594-1.707A1.815,1.815,0,0,0,80.25-7.422ZM90.617,0a3.036,3.036,0,0,1-.2-.891A3.225,3.225,0,0,1,88.008.156a2.984,2.984,0,0,1-2.051-.707,2.288,2.288,0,0,1-.8-1.793,2.39,2.39,0,0,1,1-2.051,4.733,4.733,0,0,1,2.824-.73h1.406v-.664A1.623,1.623,0,0,0,89.938-7,1.821,1.821,0,0,0,88.6-7.445a2.108,2.108,0,0,0-1.3.391,1.151,1.151,0,0,0-.523.945H85.328a2,2,0,0,1,.449-1.223A3.066,3.066,0,0,1,87-8.266a4.1,4.1,0,0,1,1.691-.344,3.342,3.342,0,0,1,2.289.73,2.635,2.635,0,0,1,.859,2.012v3.891a4.757,4.757,0,0,0,.3,1.852V0Zm-2.4-1.1a2.54,2.54,0,0,0,1.289-.352,2.127,2.127,0,0,0,.883-.914V-4.1H89.258Q86.6-4.1,86.6-2.547a1.316,1.316,0,0,0,.453,1.063A1.742,1.742,0,0,0,88.219-1.1Z" transform="translate(12.5 352.327)" fill="#12263f"/>
      <path id="Trazado_634799" data-name="Trazado 634799" d="M-33.422,0h-1.453V-9.633l-2.914,1.07V-9.875l4.141-1.555h.227Zm4.672.977h-1.242l4.75-12.352h1.234Zm12.258-4.8h1.578v1.18h-1.578V0h-1.453V-2.641h-5.18v-.852l5.094-7.883h1.539Zm-4.992,0h3.539V-9.4l-.172.313ZM-7.539-10.5v2.047h1.578v1.117H-7.539v5.249a1.173,1.173,0,0,0,.211.763.888.888,0,0,0,.719.254,3.5,3.5,0,0,0,.688-.094V0A4.215,4.215,0,0,1-7.031.156,1.8,1.8,0,0,1-8.492-.43a2.517,2.517,0,0,1-.492-1.664V-7.336h-1.539V-8.453h1.539V-10.5ZM-2.7,0H-4.148V-8.453H-2.7ZM-4.266-10.7a.863.863,0,0,1,.215-.594.807.807,0,0,1,.637-.242.819.819,0,0,1,.641.242.854.854,0,0,1,.219.594.826.826,0,0,1-.219.586.834.834,0,0,1-.641.234.821.821,0,0,1-.637-.234A.834.834,0,0,1-4.266-10.7ZM3.117.156A3.693,3.693,0,0,1,.32-.973,4.19,4.19,0,0,1-.758-3.992v-.266A5.073,5.073,0,0,1-.277-6.5,3.748,3.748,0,0,1,1.066-8.051a3.378,3.378,0,0,1,1.871-.559A3.166,3.166,0,0,1,5.5-7.523a4.7,4.7,0,0,1,.914,3.109v.6H.688a3,3,0,0,0,.73,2.02,2.3,2.3,0,0,0,1.777.77,2.517,2.517,0,0,0,1.3-.312,3.259,3.259,0,0,0,.93-.828l.883.688A3.55,3.55,0,0,1,3.117.156Zm-.18-7.578a1.928,1.928,0,0,0-1.469.637A3.1,3.1,0,0,0,.734-5H4.969v-.109a2.753,2.753,0,0,0-.594-1.707A1.815,1.815,0,0,0,2.938-7.422ZM9.445-8.453l.039.938a3.122,3.122,0,0,1,2.508-1.094A2.417,2.417,0,0,1,14.406-7.25a3.2,3.2,0,0,1,1.1-.984,3.242,3.242,0,0,1,1.6-.375q2.781,0,2.828,2.945V0H18.484V-5.578a1.941,1.941,0,0,0-.414-1.355,1.823,1.823,0,0,0-1.391-.449,1.916,1.916,0,0,0-1.336.48,1.949,1.949,0,0,0-.617,1.293V0H13.273V-5.539a1.613,1.613,0,0,0-1.8-1.844A1.934,1.934,0,0,0,9.523-6.172V0H8.078V-8.453Zm19.8,4.32a5.062,5.062,0,0,1-.883,3.109A2.829,2.829,0,0,1,25.977.156,3.1,3.1,0,0,1,23.555-.82V3.25H22.109v-11.7h1.32l.07.938a2.977,2.977,0,0,1,2.453-1.094,2.882,2.882,0,0,1,2.41,1.148,5.117,5.117,0,0,1,.887,3.2ZM27.8-4.3A3.735,3.735,0,0,0,27.2-6.555a1.963,1.963,0,0,0-1.672-.828,2.125,2.125,0,0,0-1.969,1.164V-2.18a2.129,2.129,0,0,0,1.984,1.156,1.954,1.954,0,0,0,1.652-.824A4.077,4.077,0,0,0,27.8-4.3ZM30.7-4.3a4.993,4.993,0,0,1,.488-2.234A3.643,3.643,0,0,1,32.551-8.07a3.7,3.7,0,0,1,1.988-.539,3.565,3.565,0,0,1,2.793,1.2A4.6,4.6,0,0,1,38.4-4.234v.1a5.036,5.036,0,0,1-.473,2.215A3.589,3.589,0,0,1,36.574-.391a3.743,3.743,0,0,1-2.02.547,3.556,3.556,0,0,1-2.785-1.2A4.575,4.575,0,0,1,30.7-4.2Zm1.453.172a3.616,3.616,0,0,0,.652,2.258,2.088,2.088,0,0,0,1.746.852,2.075,2.075,0,0,0,1.75-.863A3.955,3.955,0,0,0,36.953-4.3a3.61,3.61,0,0,0-.66-2.254,2.1,2.1,0,0,0-1.754-.863,2.075,2.075,0,0,0-1.727.852A3.925,3.925,0,0,0,32.156-4.133Z" transform="translate(867 353.327)" fill="#12263f"/>
      <path id="Trazado_634800" data-name="Trazado 634800" d="M7.594-5.023H2.82V0H1.32V-11.375H8.367v1.227H2.82v3.9H7.594ZM14.984-.836a3.07,3.07,0,0,1-2.477.992,2.628,2.628,0,0,1-2.059-.785,3.4,3.4,0,0,1-.715-2.324v-5.5H11.18v5.461q0,1.922,1.563,1.922a2.163,2.163,0,0,0,2.2-1.234V-8.453h1.445V0H15.016Zm8.523-1.406a1.064,1.064,0,0,0-.441-.91,4.249,4.249,0,0,0-1.539-.559,7.277,7.277,0,0,1-1.742-.562,2.479,2.479,0,0,1-.953-.781,1.869,1.869,0,0,1-.309-1.078A2.193,2.193,0,0,1,19.4-7.891a3.432,3.432,0,0,1,2.246-.719,3.532,3.532,0,0,1,2.332.742,2.357,2.357,0,0,1,.895,1.9H23.422a1.3,1.3,0,0,0-.5-1.023,1.888,1.888,0,0,0-1.27-.43,1.976,1.976,0,0,0-1.234.344,1.082,1.082,0,0,0-.445.9.877.877,0,0,0,.414.789,5.1,5.1,0,0,0,1.5.508,7.8,7.8,0,0,1,1.754.578,2.558,2.558,0,0,1,1,.809,1.988,1.988,0,0,1,.324,1.152,2.163,2.163,0,0,1-.906,1.816A3.8,3.8,0,0,1,21.7.156,4.257,4.257,0,0,1,19.9-.2a2.922,2.922,0,0,1-1.223-1A2.42,2.42,0,0,1,18.234-2.6H19.68a1.5,1.5,0,0,0,.582,1.152,2.258,2.258,0,0,0,1.434.426,2.331,2.331,0,0,0,1.316-.332A1.02,1.02,0,0,0,23.508-2.242ZM32.055,0a3.036,3.036,0,0,1-.2-.891A3.225,3.225,0,0,1,29.445.156a2.984,2.984,0,0,1-2.051-.707,2.287,2.287,0,0,1-.8-1.793,2.39,2.39,0,0,1,1-2.051,4.733,4.733,0,0,1,2.824-.73h1.406v-.664A1.623,1.623,0,0,0,31.375-7a1.821,1.821,0,0,0-1.336-.449,2.108,2.108,0,0,0-1.3.391,1.151,1.151,0,0,0-.523.945H26.766a2,2,0,0,1,.449-1.223,3.066,3.066,0,0,1,1.219-.934,4.1,4.1,0,0,1,1.691-.344,3.342,3.342,0,0,1,2.289.73,2.635,2.635,0,0,1,.859,2.012v3.891a4.757,4.757,0,0,0,.3,1.852V0Zm-2.4-1.1a2.54,2.54,0,0,0,1.289-.352,2.127,2.127,0,0,0,.883-.914V-4.1H30.7q-2.656,0-2.656,1.555a1.316,1.316,0,0,0,.453,1.063A1.742,1.742,0,0,0,29.656-1.1Z" transform="translate(12.5 416.327)" fill="#12263f"/>
      <path id="Trazado_634801" data-name="Trazado 634801" d="M-33.422,0h-1.453V-9.633l-2.914,1.07V-9.875l4.141-1.555h.227Zm4.672.977h-1.242l4.75-12.352h1.234ZM-15.7-8.406a2.641,2.641,0,0,1-.449,1.516,3.057,3.057,0,0,1-1.215,1.039,3.26,3.26,0,0,1,1.41,1.117,2.811,2.811,0,0,1,.52,1.664,2.972,2.972,0,0,1-1,2.352,3.827,3.827,0,0,1-2.621.875,3.81,3.81,0,0,1-2.629-.879,2.986,2.986,0,0,1-.988-2.348,2.9,2.9,0,0,1,.5-1.664,3.136,3.136,0,0,1,1.395-1.125,2.981,2.981,0,0,1-1.2-1.039A2.679,2.679,0,0,1-22.4-8.406a2.94,2.94,0,0,1,.922-2.281,3.458,3.458,0,0,1,2.43-.844,3.461,3.461,0,0,1,2.426.844A2.934,2.934,0,0,1-15.7-8.406Zm-1.18,5.3a2.1,2.1,0,0,0-.605-1.555,2.147,2.147,0,0,0-1.582-.6,2.11,2.11,0,0,0-1.566.594,2.12,2.12,0,0,0-.59,1.563,2.019,2.019,0,0,0,.574,1.523,2.2,2.2,0,0,0,1.6.555,2.2,2.2,0,0,0,1.594-.559A2.014,2.014,0,0,0-16.875-3.1Zm-2.172-7.242a1.865,1.865,0,0,0-1.379.527,1.937,1.937,0,0,0-.527,1.434,1.928,1.928,0,0,0,.52,1.4,1.844,1.844,0,0,0,1.387.535A1.844,1.844,0,0,0-17.66-6.98a1.928,1.928,0,0,0,.52-1.4A1.929,1.929,0,0,0-17.68-9.8,1.839,1.839,0,0,0-19.047-10.344ZM-7.539-10.5v2.047h1.578v1.117H-7.539v5.249a1.173,1.173,0,0,0,.211.763.888.888,0,0,0,.719.254,3.5,3.5,0,0,0,.688-.094V0A4.215,4.215,0,0,1-7.031.156,1.8,1.8,0,0,1-8.492-.43a2.517,2.517,0,0,1-.492-1.664V-7.336h-1.539V-8.453h1.539V-10.5ZM-2.7,0H-4.148V-8.453H-2.7ZM-4.266-10.7a.863.863,0,0,1,.215-.594.807.807,0,0,1,.637-.242.819.819,0,0,1,.641.242.854.854,0,0,1,.219.594.826.826,0,0,1-.219.586.834.834,0,0,1-.641.234.821.821,0,0,1-.637-.234A.834.834,0,0,1-4.266-10.7ZM3.117.156A3.693,3.693,0,0,1,.32-.973,4.19,4.19,0,0,1-.758-3.992v-.266A5.073,5.073,0,0,1-.277-6.5,3.748,3.748,0,0,1,1.066-8.051a3.378,3.378,0,0,1,1.871-.559A3.166,3.166,0,0,1,5.5-7.523a4.7,4.7,0,0,1,.914,3.109v.6H.688a3,3,0,0,0,.73,2.02,2.3,2.3,0,0,0,1.777.77,2.517,2.517,0,0,0,1.3-.312,3.259,3.259,0,0,0,.93-.828l.883.688A3.55,3.55,0,0,1,3.117.156Zm-.18-7.578a1.928,1.928,0,0,0-1.469.637A3.1,3.1,0,0,0,.734-5H4.969v-.109a2.753,2.753,0,0,0-.594-1.707A1.815,1.815,0,0,0,2.938-7.422ZM9.445-8.453l.039.938a3.122,3.122,0,0,1,2.508-1.094A2.417,2.417,0,0,1,14.406-7.25a3.2,3.2,0,0,1,1.1-.984,3.242,3.242,0,0,1,1.6-.375q2.781,0,2.828,2.945V0H18.484V-5.578a1.941,1.941,0,0,0-.414-1.355,1.823,1.823,0,0,0-1.391-.449,1.916,1.916,0,0,0-1.336.48,1.949,1.949,0,0,0-.617,1.293V0H13.273V-5.539a1.613,1.613,0,0,0-1.8-1.844A1.934,1.934,0,0,0,9.523-6.172V0H8.078V-8.453Zm19.8,4.32a5.062,5.062,0,0,1-.883,3.109A2.829,2.829,0,0,1,25.977.156,3.1,3.1,0,0,1,23.555-.82V3.25H22.109v-11.7h1.32l.07.938a2.977,2.977,0,0,1,2.453-1.094,2.882,2.882,0,0,1,2.41,1.148,5.117,5.117,0,0,1,.887,3.2ZM27.8-4.3A3.735,3.735,0,0,0,27.2-6.555a1.963,1.963,0,0,0-1.672-.828,2.125,2.125,0,0,0-1.969,1.164V-2.18a2.129,2.129,0,0,0,1.984,1.156,1.954,1.954,0,0,0,1.652-.824A4.077,4.077,0,0,0,27.8-4.3ZM30.7-4.3a4.993,4.993,0,0,1,.488-2.234A3.643,3.643,0,0,1,32.551-8.07a3.7,3.7,0,0,1,1.988-.539,3.565,3.565,0,0,1,2.793,1.2A4.6,4.6,0,0,1,38.4-4.234v.1a5.036,5.036,0,0,1-.473,2.215A3.589,3.589,0,0,1,36.574-.391a3.743,3.743,0,0,1-2.02.547,3.556,3.556,0,0,1-2.785-1.2A4.575,4.575,0,0,1,30.7-4.2Zm1.453.172a3.616,3.616,0,0,0,.652,2.258,2.088,2.088,0,0,0,1.746.852,2.075,2.075,0,0,0,1.75-.863A3.955,3.955,0,0,0,36.953-4.3a3.61,3.61,0,0,0-.66-2.254,2.1,2.1,0,0,0-1.754-.863,2.075,2.075,0,0,0-1.727.852A3.925,3.925,0,0,0,32.156-4.133Z" transform="translate(867 417.327)" fill="#12263f"/>
      <path id="Trazado_634802" data-name="Trazado 634802" d="M1028.5,0H0" transform="translate(1 506.505)" fill="none" stroke="#e1e1e1" stroke-width="1"/>
      <path id="Trazado_634803" data-name="Trazado 634803" d="M4.672-5.07A7.053,7.053,0,0,1,1.863-6.434a2.6,2.6,0,0,1-.879-2,2.751,2.751,0,0,1,1.074-2.223,4.269,4.269,0,0,1,2.793-.879,4.66,4.66,0,0,1,2.09.453,3.436,3.436,0,0,1,1.422,1.25,3.2,3.2,0,0,1,.5,1.742H7.359A2.08,2.08,0,0,0,6.7-9.713,2.669,2.669,0,0,0,4.852-10.3a2.732,2.732,0,0,0-1.73.489A1.632,1.632,0,0,0,2.5-8.458,1.468,1.468,0,0,0,3.09-7.28,5.785,5.785,0,0,0,5.1-6.4a9.316,9.316,0,0,1,2.219.88A3.367,3.367,0,0,1,8.5-4.4a2.861,2.861,0,0,1,.387,1.508A2.658,2.658,0,0,1,7.813-.676,4.6,4.6,0,0,1,4.93.156,5.347,5.347,0,0,1,2.742-.293a3.681,3.681,0,0,1-1.566-1.23A3,3,0,0,1,.625-3.3H2.133a1.959,1.959,0,0,0,.762,1.629,3.207,3.207,0,0,0,2.035.6,2.948,2.948,0,0,0,1.82-.484,1.573,1.573,0,0,0,.633-1.32A1.545,1.545,0,0,0,6.8-4.168,6.755,6.755,0,0,0,4.672-5.07ZM14.094.156A3.693,3.693,0,0,1,11.3-.973a4.19,4.19,0,0,1-1.078-3.02v-.266A5.073,5.073,0,0,1,10.7-6.5a3.748,3.748,0,0,1,1.344-1.547,3.378,3.378,0,0,1,1.871-.559,3.166,3.166,0,0,1,2.563,1.086,4.7,4.7,0,0,1,.914,3.109v.6H11.664a3,3,0,0,0,.73,2.02,2.3,2.3,0,0,0,1.777.77,2.517,2.517,0,0,0,1.3-.312,3.259,3.259,0,0,0,.93-.828l.883.688A3.55,3.55,0,0,1,14.094.156Zm-.18-7.578a1.928,1.928,0,0,0-1.469.637A3.1,3.1,0,0,0,11.711-5h4.234v-.109a2.753,2.753,0,0,0-.594-1.707A1.815,1.815,0,0,0,13.914-7.422Zm6.508-1.031.039.938a3.122,3.122,0,0,1,2.508-1.094A2.417,2.417,0,0,1,25.383-7.25a3.2,3.2,0,0,1,1.1-.984,3.242,3.242,0,0,1,1.6-.375q2.781,0,2.828,2.945V0H29.461V-5.578a1.941,1.941,0,0,0-.414-1.355,1.823,1.823,0,0,0-1.391-.449,1.916,1.916,0,0,0-1.336.48A1.949,1.949,0,0,0,25.7-5.609V0H24.25V-5.539a1.613,1.613,0,0,0-1.8-1.844A1.934,1.934,0,0,0,20.5-6.172V0H19.055V-8.453ZM34.656,0H33.211V-8.453h1.445ZM33.094-10.7a.863.863,0,0,1,.215-.594.807.807,0,0,1,.637-.242.819.819,0,0,1,.641.242.854.854,0,0,1,.219.594.826.826,0,0,1-.219.586.834.834,0,0,1-.641.234.821.821,0,0,1-.637-.234A.834.834,0,0,1,33.094-10.7ZM37.68,0V-7.336H36.344V-8.453H37.68V-9.32a2.878,2.878,0,0,1,.727-2.1,2.745,2.745,0,0,1,2.055-.742,3.816,3.816,0,0,1,.992.132l-.078,1.165a4.151,4.151,0,0,0-.781-.07,1.41,1.41,0,0,0-1.086.411,1.669,1.669,0,0,0-.383,1.18v.893h1.8v1.117h-1.8V0ZM47.742-.836a3.07,3.07,0,0,1-2.477.992,2.628,2.628,0,0,1-2.059-.785,3.4,3.4,0,0,1-.715-2.324v-5.5h1.445v5.461q0,1.922,1.563,1.922A2.163,2.163,0,0,0,47.7-2.3V-8.453h1.445V0H47.773Zm8.523-1.406a1.064,1.064,0,0,0-.441-.91,4.249,4.249,0,0,0-1.539-.559,7.277,7.277,0,0,1-1.742-.562,2.479,2.479,0,0,1-.953-.781,1.869,1.869,0,0,1-.309-1.078,2.193,2.193,0,0,1,.879-1.758,3.432,3.432,0,0,1,2.246-.719,3.532,3.532,0,0,1,2.332.742,2.357,2.357,0,0,1,.895,1.9H56.18a1.3,1.3,0,0,0-.5-1.023,1.888,1.888,0,0,0-1.27-.43,1.976,1.976,0,0,0-1.234.344,1.082,1.082,0,0,0-.445.9.877.877,0,0,0,.414.789,5.1,5.1,0,0,0,1.5.508,7.8,7.8,0,0,1,1.754.578,2.558,2.558,0,0,1,1,.809,1.988,1.988,0,0,1,.324,1.152A2.163,2.163,0,0,1,56.8-.527a3.8,3.8,0,0,1-2.352.684,4.257,4.257,0,0,1-1.8-.359,2.922,2.922,0,0,1-1.223-1A2.42,2.42,0,0,1,50.992-2.6h1.445a1.5,1.5,0,0,0,.582,1.152,2.258,2.258,0,0,0,1.434.426,2.331,2.331,0,0,0,1.316-.332A1.02,1.02,0,0,0,56.266-2.242ZM64.813,0a3.036,3.036,0,0,1-.2-.891A3.225,3.225,0,0,1,62.2.156a2.984,2.984,0,0,1-2.051-.707,2.287,2.287,0,0,1-.8-1.793,2.39,2.39,0,0,1,1-2.051,4.733,4.733,0,0,1,2.824-.73h1.406v-.664A1.623,1.623,0,0,0,64.133-7,1.821,1.821,0,0,0,62.8-7.445a2.107,2.107,0,0,0-1.3.391,1.151,1.151,0,0,0-.523.945H59.523a2,2,0,0,1,.449-1.223,3.066,3.066,0,0,1,1.219-.934,4.1,4.1,0,0,1,1.691-.344,3.342,3.342,0,0,1,2.289.73,2.635,2.635,0,0,1,.859,2.012v3.891a4.757,4.757,0,0,0,.3,1.852V0Zm-2.4-1.1A2.54,2.54,0,0,0,63.7-1.453a2.127,2.127,0,0,0,.883-.914V-4.1H63.453Q60.8-4.1,60.8-2.547a1.316,1.316,0,0,0,.453,1.063A1.742,1.742,0,0,0,62.414-1.1Z" transform="translate(12.5 480.327)" fill="#12263f"/>
      <path id="Trazado_634804" data-name="Trazado 634804" d="M-37.914,0h-1.453V-9.633l-2.914,1.07V-9.875l4.141-1.555h.227Zm4.672.977h-1.242l4.75-12.352H-28.5ZM-22.336,0h-1.453V-9.633L-26.7-8.562V-9.875l4.141-1.555h.227Zm9.906-11.383v1.227H-12.7a3.805,3.805,0,0,0-2.687,1A4.161,4.161,0,0,0-16.539-6.43a3.085,3.085,0,0,1,2.453-1.031,2.95,2.95,0,0,1,2.371,1.047,4.038,4.038,0,0,1,.887,2.7A4.025,4.025,0,0,1-11.785-.9,3.3,3.3,0,0,1-14.352.156,3.247,3.247,0,0,1-17-1.1a4.97,4.97,0,0,1-1.016-3.23v-.555a7.488,7.488,0,0,1,1.34-4.8,4.921,4.921,0,0,1,3.988-1.7Zm-1.9,5.125a2.306,2.306,0,0,0-1.367.445A2.32,2.32,0,0,0-16.562-4.7v.531A3.731,3.731,0,0,0-15.93-1.9a1.9,1.9,0,0,0,1.578.859,1.838,1.838,0,0,0,1.535-.719,2.982,2.982,0,0,0,.559-1.883,2.983,2.983,0,0,0-.566-1.895A1.816,1.816,0,0,0-14.328-6.258ZM-3.047-10.5v2.047h1.578v1.117H-3.047v5.249a1.173,1.173,0,0,0,.211.763.888.888,0,0,0,.719.254,3.5,3.5,0,0,0,.688-.094V0A4.215,4.215,0,0,1-2.539.156,1.8,1.8,0,0,1-4-.43a2.517,2.517,0,0,1-.492-1.664V-7.336H-6.031V-8.453h1.539V-10.5ZM1.789,0H.344V-8.453H1.789ZM.227-10.7a.863.863,0,0,1,.215-.594.807.807,0,0,1,.637-.242.819.819,0,0,1,.641.242.854.854,0,0,1,.219.594.826.826,0,0,1-.219.586.834.834,0,0,1-.641.234.821.821,0,0,1-.637-.234A.834.834,0,0,1,.227-10.7ZM7.609.156a3.693,3.693,0,0,1-2.8-1.129,4.19,4.19,0,0,1-1.078-3.02v-.266A5.073,5.073,0,0,1,4.215-6.5,3.748,3.748,0,0,1,5.559-8.051,3.378,3.378,0,0,1,7.43-8.609,3.166,3.166,0,0,1,9.992-7.523a4.7,4.7,0,0,1,.914,3.109v.6H5.18a3,3,0,0,0,.73,2.02,2.3,2.3,0,0,0,1.777.77,2.517,2.517,0,0,0,1.3-.312,3.259,3.259,0,0,0,.93-.828l.883.688A3.55,3.55,0,0,1,7.609.156ZM7.43-7.422a1.928,1.928,0,0,0-1.469.637A3.1,3.1,0,0,0,5.227-5H9.461v-.109a2.753,2.753,0,0,0-.594-1.707A1.815,1.815,0,0,0,7.43-7.422Zm6.508-1.031.039.938a3.122,3.122,0,0,1,2.508-1.094A2.417,2.417,0,0,1,18.9-7.25,3.2,3.2,0,0,1,20-8.234a3.242,3.242,0,0,1,1.6-.375q2.781,0,2.828,2.945V0H22.977V-5.578a1.941,1.941,0,0,0-.414-1.355,1.823,1.823,0,0,0-1.391-.449,1.916,1.916,0,0,0-1.336.48,1.949,1.949,0,0,0-.617,1.293V0H17.766V-5.539a1.613,1.613,0,0,0-1.8-1.844,1.934,1.934,0,0,0-1.945,1.211V0H12.57V-8.453Zm19.8,4.32a5.062,5.062,0,0,1-.883,3.109A2.829,2.829,0,0,1,30.469.156,3.1,3.1,0,0,1,28.047-.82V3.25H26.6v-11.7h1.32l.07.938a2.977,2.977,0,0,1,2.453-1.094,2.882,2.882,0,0,1,2.41,1.148,5.117,5.117,0,0,1,.887,3.2ZM32.3-4.3a3.735,3.735,0,0,0-.609-2.258,1.963,1.963,0,0,0-1.672-.828,2.125,2.125,0,0,0-1.969,1.164V-2.18a2.129,2.129,0,0,0,1.984,1.156,1.954,1.954,0,0,0,1.652-.824A4.077,4.077,0,0,0,32.3-4.3ZM35.2-4.3a4.993,4.993,0,0,1,.488-2.234A3.643,3.643,0,0,1,37.043-8.07a3.7,3.7,0,0,1,1.988-.539,3.565,3.565,0,0,1,2.793,1.2,4.6,4.6,0,0,1,1.066,3.18v.1a5.036,5.036,0,0,1-.473,2.215A3.589,3.589,0,0,1,41.066-.391a3.743,3.743,0,0,1-2.02.547,3.556,3.556,0,0,1-2.785-1.2A4.575,4.575,0,0,1,35.2-4.2Zm1.453.172A3.616,3.616,0,0,0,37.3-1.875a2.088,2.088,0,0,0,1.746.852,2.075,2.075,0,0,0,1.75-.863A3.955,3.955,0,0,0,41.445-4.3a3.61,3.61,0,0,0-.66-2.254,2.1,2.1,0,0,0-1.754-.863A2.075,2.075,0,0,0,37.3-6.57,3.925,3.925,0,0,0,36.648-4.133Z" transform="translate(867 480.327)" fill="#12263f"/>
      <g id="Grupo_1101425" data-name="Grupo 1101425" transform="translate(374.564 82.945)">
        <g id="Grupo_1101424" data-name="Grupo 1101424" clip-path="url(#clip-path)">
          <path id="Trazado_634158" data-name="Trazado 634158" d="M8.948,0C4.028-.029.02,2.548,0,5.761S3.953,11.6,8.876,11.635,17.8,9.087,17.822,5.877,13.871.031,8.948,0M10.11,10.794C8.354,11.26,6.394,9.4,5.73,6.654S5.955,1.3,7.712.841s3.72,1.391,4.383,4.14-.226,5.353-1.985,5.813" transform="translate(0 0)" fill="#12263f"/>
        </g>
      </g>
      <g id="Grupo_1101426" data-name="Grupo 1101426" transform="translate(625.78 88.217)">
        <rect id="Rectángulo_396143" data-name="Rectángulo 396143" width="17.719" height="7.183" transform="translate(5.865 0.601)" fill="#12263f"/>
        <rect id="Rectángulo_396144" data-name="Rectángulo 396144" width="29.45" height="1.201" fill="#12263f"/>
      </g>
      <g id="Grupo_1101427" data-name="Grupo 1101427" transform="translate(655.23 159.001) rotate(180)">
        <rect id="Rectángulo_396143-2" data-name="Rectángulo 396143" width="17.719" height="5.998" transform="translate(5.865 0.502)" fill="#12263f"/>
        <rect id="Rectángulo_396144-2" data-name="Rectángulo 396144" width="29.45" height="1.003" fill="#12263f"/>
      </g>
      <g id="Grupo_1101429" data-name="Grupo 1101429" transform="translate(375.5 128.57)">
        <g id="Grupo_1101428" data-name="Grupo 1101428" clip-path="url(#clip-path-2)">
          <path id="Trazado_634159" data-name="Trazado 634159" d="M15.4,0a.736.736,0,0,0-.735.738V36.526c-1.976-1.661-5.6-1.847-9.03-.251-4.245,1.973-6.6,5.918-5.255,8.816S6.259,48.732,10.5,46.763c3.425-1.593,5.62-4.471,5.633-7.046V.738A.739.739,0,0,0,15.4,0M9.228,44.31c-3.753,1.877-7.343,2.3-8.021.94S3.015,41.272,6.764,39.4s7.342-2.3,8.02-.94-1.805,3.979-5.556,5.855" transform="translate(0 0)" fill="#12263f"/>
        </g>
      </g>
      <g id="Grupo_1101431" data-name="Grupo 1101431" transform="translate(375.488 191.569)">
        <g id="Grupo_1101430" data-name="Grupo 1101430" clip-path="url(#clip-path-3)">
          <path id="Trazado_634160" data-name="Trazado 634160" d="M10.62,47.276c3.463-1.611,5.682-4.52,5.692-7.123l0-.009V.747a.745.745,0,1,0-1.49,0V36.923c-1.991-1.678-5.658-1.862-9.126-.249C1.4,38.666-.979,42.658.384,45.586s5.943,3.686,10.236,1.69" transform="translate(0 0)" fill="#12263f"/>
        </g>
      </g>
      <g id="Grupo_1101433" data-name="Grupo 1101433" transform="translate(635.075 199.216)">
        <g id="Grupo_1101432" data-name="Grupo 1101432" clip-path="url(#clip-path-4)">
          <path id="Trazado_634161" data-name="Trazado 634161" d="M3.672,0s8.646,4.855,8.646,9.238-5.923,5.684-5.923,8.527,6.1,7.876,5.568,8.409c-.652.653-6.75-2.606-8.055-1.3-2.31,2.309,2.015,7.459,1.3,8.171S0,27.238,0,24.16s1.54-3.315,3.672-2.6A32.7,32.7,0,0,1,9,24.279S1.3,19.187,1.3,15.4s5.8-3.672,5.8-7.226C7.105,4.975,3.672,0,3.672,0" transform="translate(0 0)" fill="#00000c"/>
        </g>
      </g>
      <g id="Grupo_1101435" data-name="Grupo 1101435" transform="translate(369.675 257.042)">
        <g id="Grupo_1101434" data-name="Grupo 1101434" clip-path="url(#clip-path-5)">
          <path id="Trazado_634162" data-name="Trazado 634162" d="M29.6,25.488c0-6.109-2.578-9.03-7.668-12.558-4.481-3.106-5.549-9.2-5.8-11.425V.737a.737.737,0,1,0-1.474,0V36.526c-1.972-1.661-5.592-1.848-9.029-.251C1.388,38.249-.968,42.193.38,45.091S6.26,48.733,10.5,46.763c3.429-1.593,5.619-4.471,5.632-7.046l0-.011V11.482c1.008,4.733,12.756,6.167,12.756,14.662a22.017,22.017,0,0,1-2.121,9.407A18.549,18.549,0,0,0,29.6,25.488" transform="translate(0 0)" fill="#12263f"/>
        </g>
      </g>
      <g id="Grupo_1101437" data-name="Grupo 1101437" transform="translate(635.183 273.001)">
        <g id="Grupo_1101436" data-name="Grupo 1101436" clip-path="url(#clip-path-6)">
          <path id="Trazado_634163" data-name="Trazado 634163" d="M10.114.322,9.541,2.028c-1.307,2.211-3.672,4.2-5.252,4.2,0,0,2.183-.194,2.183-2.9A3.127,3.127,0,0,0,3.123.245,3.28,3.28,0,0,0,0,3.443a3.246,3.246,0,0,0,3.462,3.5A8.933,8.933,0,0,0,8.542,5L3.169,21a.621.621,0,0,0,.387.787.6.6,0,0,0,.2.033.621.621,0,0,0,.587-.422L11.29.72a.562.562,0,0,0-.373-.658.64.64,0,0,0-.8.26" transform="translate(0 0)" fill="#00000c"/>
        </g>
      </g>
      <g id="Grupo_1101439" data-name="Grupo 1101439" transform="translate(370.702 317.058)">
        <g id="Grupo_1101438" data-name="Grupo 1101438" clip-path="url(#clip-path-7)">
          <path id="Trazado_634164" data-name="Trazado 634164" d="M26.482,23.053c0-5.463-2.309-8.074-6.864-11.234C15.612,9.042,14.656,3.592,14.435,1.6V.659a.659.659,0,1,0-1.319,0V43.636c-1.765-1.485-5.005-1.652-8.076-.225-3.8,1.766-5.905,5.3-4.7,7.888s5.26,3.257,9.057,1.5c3.064-1.425,5.028-4,5.038-6.3V21.233c.716,3.356,7.456,4.858,10.23,9.118a14.2,14.2,0,0,1-.719,1.708,11.281,11.281,0,0,0,.848-1.5,7.126,7.126,0,0,1,1.049,3.793,19.7,19.7,0,0,1-1.9,8.416,16.574,16.574,0,0,0,2.535-9,12.211,12.211,0,0,0-.938-5.047,17.621,17.621,0,0,0,.938-5.663m-6.864-.524c-4.005-2.779-4.961-8.227-5.182-10.222V10.527c.9,4.231,11.409,5.513,11.409,13.116A19.594,19.594,0,0,1,25.3,28.2c-1.112-2.16-3.008-3.825-5.679-5.674" transform="translate(0 0)" fill="#12263f"/>
        </g>
      </g>
      <g id="Grupo_1101441" data-name="Grupo 1101441" transform="translate(371.68 380.059)">
        <g id="Grupo_1101440" data-name="Grupo 1101440" clip-path="url(#clip-path-8)">
          <path id="Trazado_634165" data-name="Trazado 634165" d="M23.355,26.076a15.958,15.958,0,0,0,.766-4.886c0-4.978-2.1-7.356-6.252-10.232-3.65-2.528-4.521-7.493-4.721-9.307V.6a.6.6,0,0,0-1.2,0v48.13c-1.608-1.353-4.558-1.5-7.358-.2C1.13,50.133-.786,53.347.308,55.708S5.1,58.675,8.557,57.071c2.794-1.3,4.582-3.644,4.59-5.741l0-.009v-23c.662,3.1,6.973,4.461,9.426,8.473a13.857,13.857,0,0,1-.763,1.868,10.449,10.449,0,0,0,.9-1.639,6.526,6.526,0,0,1,.831,3.244,17.934,17.934,0,0,1-1.729,7.666,15.088,15.088,0,0,0,2.311-8.2,11.334,11.334,0,0,0-.766-4.387,15.967,15.967,0,0,0,.766-4.886,11.34,11.34,0,0,0-.766-4.387m.184-4.351a18.007,18.007,0,0,1-.421,3.825c-1-2.042-2.755-3.592-5.249-5.319-3.65-2.529-4.521-7.494-4.721-9.308V9.778C13.971,13.635,23.54,14.8,23.54,21.725M17.869,29.5c-3.65-2.531-4.521-7.493-4.721-9.31V19.051c.662,3.1,6.973,4.462,9.426,8.474a13.785,13.785,0,0,1-.763,1.868,10.573,10.573,0,0,0,.9-1.637A6.507,6.507,0,0,1,23.54,31a18,18,0,0,1-.421,3.825c-1-2.042-2.755-3.592-5.249-5.319" transform="translate(0)" fill="#12263f"/>
        </g>
      </g>
      <g id="Grupo_1101443" data-name="Grupo 1101443" transform="translate(371.032 444.278)">
        <g id="Grupo_1101442" data-name="Grupo 1101442" clip-path="url(#clip-path-9)">
          <path id="Trazado_634166" data-name="Trazado 634166" d="M20.673,22.77a14.185,14.185,0,0,0,.642-4.221c0-4.4-1.856-6.5-5.522-9.042-3.226-2.235-4-6.622-4.173-8.226V.531a.531.531,0,0,0-1.062,0V50.556c-1.42-1.2-4.026-1.33-6.5-.181C1,51.8-.7,54.637.274,56.724s4.233,2.622,7.29,1.2c2.469-1.148,4.047-3.22,4.055-5.073,0,0,0,0,0-.009V32.524c.585,2.756,6.225,3.958,8.365,7.551a12.73,12.73,0,0,1-.709,1.762A9.726,9.726,0,0,0,20.11,40.3a5.728,5.728,0,0,1,.694,2.785,15.853,15.853,0,0,1-1.527,6.773,13.347,13.347,0,0,0,2.038-7.246,10.1,10.1,0,0,0-.642-3.8,14.189,14.189,0,0,0,.642-4.221,10.105,10.105,0,0,0-.642-3.8,14.189,14.189,0,0,0,.642-4.219,10.1,10.1,0,0,0-.642-3.8m.131-3.749a15.732,15.732,0,0,1-.348,3.26c-.882-1.83-2.44-3.211-4.663-4.752C12.567,15.29,11.8,10.9,11.62,9.3V8.464C12.346,11.872,20.8,12.9,20.8,19.021m0,16.042a15.764,15.764,0,0,1-.348,3.259c-.882-1.832-2.44-3.214-4.663-4.754-3.226-2.236-4-6.622-4.173-8.227v-.833c.585,2.753,6.225,3.957,8.365,7.548a12.506,12.506,0,0,1-.709,1.761,9.617,9.617,0,0,0,.833-1.539,5.723,5.723,0,0,1,.694,2.787m-5.011-9.517c-3.226-2.235-4-6.622-4.173-8.226v-.835c.585,2.753,6.225,3.957,8.365,7.548a12.573,12.573,0,0,1-.709,1.763,9.726,9.726,0,0,0,.833-1.541,5.739,5.739,0,0,1,.694,2.787,15.76,15.76,0,0,1-.348,3.26c-.882-1.83-2.44-3.211-4.663-4.756" transform="translate(0 0)" fill="#12263f"/>
        </g>
      </g>
      <path id="Trazado_634167" data-name="Trazado 634167" d="M14.268,12.467a.633.633,0,0,0-.8.4L12.882,14.6c-1.332,2.254-3.742,4.28-5.351,4.28,0,0,2.223-.2,2.223-2.953a3.185,3.185,0,0,0-3.411-3.142A3.342,3.342,0,0,0,3.16,16.043a3.306,3.306,0,0,0,3.527,3.565,9.11,9.11,0,0,0,5.178-1.977L9.309,25.246c-1.375,1.983-3.483,3.641-4.938,3.641,0,0,2.223-.2,2.223-2.952a3.185,3.185,0,0,0-3.411-3.143A3.342,3.342,0,0,0,0,26.05a3.307,3.307,0,0,0,3.527,3.566,8.857,8.857,0,0,0,4.915-1.788l-4.129,12.3a.632.632,0,0,0,.395.8.6.6,0,0,0,.2.034.631.631,0,0,0,.6-.43l9.153-27.266a.635.635,0,0,0-.4-.8" transform="translate(633.992 323.569)" fill="#00000c"/>
      <path id="Trazado_634168" data-name="Trazado 634168" d="M68.685,6.384a.669.669,0,0,0-.849.419l-1.213,3.579c-1.448,1.9-3.478,3.421-4.911,3.421,0,0,2.351-.211,2.351-3.122a3.369,3.369,0,0,0-3.608-3.325A3.534,3.534,0,0,0,57.09,10.8a3.5,3.5,0,0,0,3.73,3.77,9.138,9.138,0,0,0,4.973-1.739l-2.3,6.787c-1.42,2.34-3.915,4.42-5.593,4.42,0,0,2.352-.21,2.352-3.122a3.369,3.369,0,0,0-3.608-3.324A3.534,3.534,0,0,0,53.28,21.04a3.5,3.5,0,0,0,3.729,3.77,9.576,9.576,0,0,0,5.421-2.052L59.879,30.29c-1.452,2.157-3.746,3.987-5.32,3.987,0,0,2.351-.209,2.351-3.122A3.369,3.369,0,0,0,53.3,27.831a3.534,3.534,0,0,0-3.364,3.446,3.5,3.5,0,0,0,3.729,3.77,9.422,9.422,0,0,0,5.254-1.93L54.5,46.166a.667.667,0,1,0,1.264.428L69.1,7.232a.67.67,0,0,0-.418-.848" transform="translate(581.086 383.869)" fill="#00000c"/>
      <path id="Trazado_634169" data-name="Trazado 634169" d="M123.1.036a.689.689,0,0,0-.874.432l-1.356,4c-1.5,2.032-3.662,3.683-5.177,3.683,0,0,2.42-.216,2.42-3.214a3.469,3.469,0,0,0-3.715-3.423,3.64,3.64,0,0,0-3.463,3.548,3.6,3.6,0,0,0,3.839,3.881,9.482,9.482,0,0,0,5.2-1.847l-2.692,7.944c-1.5,2.09-3.72,3.809-5.266,3.809,0,0,2.421-.216,2.421-3.214a3.468,3.468,0,0,0-3.714-3.422,3.639,3.639,0,0,0-3.464,3.548,3.6,3.6,0,0,0,3.839,3.881,9.568,9.568,0,0,0,5.265-1.888l-2.382,7.026c-1.436,2.5-4.11,4.767-5.888,4.767,0,0,2.421-.216,2.421-3.214a3.468,3.468,0,0,0-3.714-3.422,3.639,3.639,0,0,0-3.464,3.547,3.6,3.6,0,0,0,3.84,3.882,9.933,9.933,0,0,0,5.655-2.167l-2.7,7.963c-1.494,2.223-3.858,4.109-5.48,4.109,0,0,2.421-.216,2.421-3.214a3.467,3.467,0,0,0-3.714-3.421,3.638,3.638,0,0,0-3.464,3.547,3.6,3.6,0,0,0,3.839,3.881,9.7,9.7,0,0,0,5.411-1.989l-4.554,13.436a.687.687,0,1,0,1.3.44L123.525.909a.69.69,0,0,0-.43-.873" transform="translate(528.992 448.088)" fill="#00000c"/>
    </g>
  </g>
</svg>
