<svg xmlns="http://www.w3.org/2000/svg" xmlns:xlink="http://www.w3.org/1999/xlink" width="120" height="120" viewBox="0 0 120 120">
  <defs>
    <clipPath id="clip-path">
      <path id="Trazado_610742" data-name="Trazado 610742" d="M130,61.713a59.921,59.921,0,1,0,15.2-1.962A59.99,59.99,0,0,0,130,61.713" transform="translate(-85.163 -59.751)" fill="none" stroke="#624b7e" stroke-width="1"/>
    </clipPath>
    <clipPath id="clip-path-2">
      <rect id="Rectángulo_396111" data-name="Rectángulo 396111" width="76.714" height="21.162" transform="translate(0 0)" fill="none"/>
    </clipPath>
  </defs>
  <g id="Grupo_1073773" data-name="Grupo 1073773" transform="translate(-757 -4900)">
    <g id="Grupo_1073765" data-name="Grupo 1073765" transform="translate(757 4900)">
      <g id="Grupo_1073704" data-name="Grupo 1073704">
        <g id="Grupo_1073463" data-name="Grupo 1073463" clip-path="url(#clip-path)">
          <line id="Línea_2945" data-name="Línea 2945" x1="141.717" y2="37.022" transform="translate(-26.188 -14.426)" fill="none" stroke="#624b7e" stroke-miterlimit="10" stroke-width="1.728"/>
          <line id="Línea_2946" data-name="Línea 2946" x1="141.716" y2="37.022" transform="translate(-23.944 -5.837)" fill="none" stroke="#624b7e" stroke-miterlimit="10" stroke-width="1.728"/>
          <line id="Línea_2947" data-name="Línea 2947" x1="141.716" y2="37.023" transform="translate(-21.7 2.751)" fill="none" stroke="#624b7e" stroke-miterlimit="10" stroke-width="1.728"/>
          <line id="Línea_2948" data-name="Línea 2948" x1="141.718" y2="37.023" transform="translate(-19.455 11.34)" fill="none" stroke="#624b7e" stroke-miterlimit="10" stroke-width="1.728"/>
          <line id="Línea_2949" data-name="Línea 2949" x1="141.716" y2="37.024" transform="translate(-17.211 19.929)" fill="none" stroke="#624b7e" stroke-miterlimit="10" stroke-width="1.728"/>
          <line id="Línea_2950" data-name="Línea 2950" x1="141.716" y2="37.023" transform="translate(-14.969 28.518)" fill="none" stroke="#624b7e" stroke-miterlimit="10" stroke-width="1.728"/>
          <line id="Línea_2951" data-name="Línea 2951" x1="141.717" y2="37.022" transform="translate(-12.724 37.108)" fill="none" stroke="#624b7e" stroke-miterlimit="10" stroke-width="1.728"/>
          <line id="Línea_2952" data-name="Línea 2952" x1="141.718" y2="37.022" transform="translate(-10.48 45.697)" fill="none" stroke="#624b7e" stroke-miterlimit="10" stroke-width="1.728"/>
          <line id="Línea_2953" data-name="Línea 2953" x1="141.716" y2="37.023" transform="translate(-8.237 54.285)" fill="none" stroke="#624b7e" stroke-miterlimit="10" stroke-width="1.728"/>
          <line id="Línea_2954" data-name="Línea 2954" x1="141.715" y2="37.023" transform="translate(-5.993 62.874)" fill="none" stroke="#624b7e" stroke-miterlimit="10" stroke-width="1.728"/>
          <line id="Línea_2955" data-name="Línea 2955" x1="141.716" y2="37.022" transform="translate(-3.749 71.464)" fill="none" stroke="#624b7e" stroke-miterlimit="10" stroke-width="1.728"/>
          <line id="Línea_2956" data-name="Línea 2956" x1="141.716" y2="37.022" transform="translate(-1.505 80.054)" fill="none" stroke="#624b7e" stroke-miterlimit="10" stroke-width="1.728"/>
          <line id="Línea_2957" data-name="Línea 2957" x1="141.718" y2="37.024" transform="translate(0.761 88.73)" fill="none" stroke="#624b7e" stroke-miterlimit="10" stroke-width="1.728"/>
          <line id="Línea_2958" data-name="Línea 2958" x1="141.717" y2="37.022" transform="translate(2.94 97.072)" fill="none" stroke="#624b7e" stroke-miterlimit="10" stroke-width="1.728"/>
          <line id="Línea_2959" data-name="Línea 2959" x1="141.717" y2="37.022" transform="translate(-27.38 -18.99)" fill="none" stroke="#624b7e" stroke-miterlimit="10" stroke-width="1.728"/>
          <line id="Línea_2960" data-name="Línea 2960" x1="141.716" y2="37.022" transform="translate(-25.136 -10.401)" fill="none" stroke="#624b7e" stroke-miterlimit="10" stroke-width="1.728"/>
          <line id="Línea_2961" data-name="Línea 2961" x1="141.716" y2="37.023" transform="translate(-22.892 -1.813)" fill="none" stroke="#624b7e" stroke-miterlimit="10" stroke-width="1.728"/>
          <line id="Línea_2962" data-name="Línea 2962" x1="141.718" y2="37.023" transform="translate(-20.648 6.776)" fill="none" stroke="#624b7e" stroke-miterlimit="10" stroke-width="1.728"/>
          <line id="Línea_2963" data-name="Línea 2963" x1="141.716" y2="37.023" transform="translate(-18.404 15.365)" fill="none" stroke="#624b7e" stroke-miterlimit="10" stroke-width="1.728"/>
          <line id="Línea_2964" data-name="Línea 2964" x1="141.716" y2="37.024" transform="translate(-16.162 23.954)" fill="none" stroke="#624b7e" stroke-miterlimit="10" stroke-width="1.728"/>
          <line id="Línea_2965" data-name="Línea 2965" x1="141.716" y2="37.021" transform="translate(-13.917 32.544)" fill="none" stroke="#624b7e" stroke-miterlimit="10" stroke-width="1.728"/>
          <line id="Línea_2966" data-name="Línea 2966" x1="141.718" y2="37.022" transform="translate(-11.673 41.132)" fill="none" stroke="#624b7e" stroke-miterlimit="10" stroke-width="1.728"/>
          <line id="Línea_2967" data-name="Línea 2967" x1="141.716" y2="37.022" transform="translate(-9.429 49.721)" fill="none" stroke="#624b7e" stroke-miterlimit="10" stroke-width="1.728"/>
          <line id="Línea_2968" data-name="Línea 2968" x1="141.715" y2="37.022" transform="translate(-7.186 58.31)" fill="none" stroke="#624b7e" stroke-miterlimit="10" stroke-width="1.728"/>
          <line id="Línea_2969" data-name="Línea 2969" x1="141.715" y2="37.022" transform="translate(-4.941 66.9)" fill="none" stroke="#624b7e" stroke-miterlimit="10" stroke-width="1.728"/>
          <line id="Línea_2970" data-name="Línea 2970" x1="141.716" y2="37.022" transform="translate(-2.698 75.489)" fill="none" stroke="#624b7e" stroke-miterlimit="10" stroke-width="1.728"/>
          <line id="Línea_2971" data-name="Línea 2971" x1="141.717" y2="37.023" transform="translate(-0.432 84.166)" fill="none" stroke="#624b7e" stroke-miterlimit="10" stroke-width="1.728"/>
          <line id="Línea_2972" data-name="Línea 2972" x1="141.716" y2="37.021" transform="translate(1.748 92.508)" fill="none" stroke="#624b7e" stroke-miterlimit="10" stroke-width="1.728"/>
        </g>
      </g>
      <g id="Grupo_1073705" data-name="Grupo 1073705" transform="translate(9.797 9.795)">
        <path id="Trazado_608385" data-name="Trazado 608385" d="M50.33,0A50.166,50.166,0,1,1,0,50.166,50.248,50.248,0,0,1,50.33,0Z" transform="translate(0 0)" fill="#fff"/>
      </g>
      <g id="Grupo_1073706" data-name="Grupo 1073706" transform="translate(97.541 39.055)">
        <path id="Trazado_611008" data-name="Trazado 611008" d="M7.807,23.89,20.6,10.78,0,5.99Z" transform="translate(0 -4.861)" fill="#474747"/>
        <path id="Trazado_611009" data-name="Trazado 611009" d="M15.041,16.829,28.765,3.886,7.771,0Z" transform="translate(-6.307 0)" fill="#79cbbf"/>
      </g>
      <g id="Grupo_1073707" data-name="Grupo 1073707" transform="translate(0 87.567)">
        <path id="Trazado_610799" data-name="Trazado 610799" d="M0,2.743,5.78,13.015l7.926-6.252,4.948,8.8,7.929-6.253,4.958,8.8,9.26-7.3L39.008,8.533l-6.6,5.2-4.958-8.8-7.927,6.251-4.948-8.8L6.644,8.645,2.524,1.323Z" transform="translate(0 -0.94)" fill="#474747"/>
        <path id="Trazado_610800" data-name="Trazado 610800" d="M12.91,0,10.387,1.42l5.779,10.272L24.092,5.44l4.947,8.8,7.93-6.253,4.957,8.8,9.26-7.3L49.394,7.211l-6.6,5.2-4.958-8.8L29.9,9.867l-4.948-8.8L17.03,7.323Z" transform="translate(-7.379 0)" fill="#fff4a9"/>
      </g>
      <path id="Trazado_611010" data-name="Trazado 611010" d="M19.556,9.623,5.175,2.789l-.329,8.785Z" transform="translate(5.712 13.709)" fill="none" stroke="#fd3cae" stroke-miterlimit="10" stroke-width="2"/>
    </g>
    <g id="Grupo_1101365" data-name="Grupo 1101365" transform="translate(777.286 4950.419)">
      <g id="Grupo_1101364" data-name="Grupo 1101364" clip-path="url(#clip-path-2)">
        <path id="Trazado_634023" data-name="Trazado 634023" d="M10.617,15.853a6,6,0,0,1-1.545.178q-1.947,0-2.446-1.165A4.821,4.821,0,0,1,2.993,16.1a3.589,3.589,0,0,1-2.149-.6A2.063,2.063,0,0,1,0,13.7a2.826,2.826,0,0,1,1.235-2.458,9.918,9.918,0,0,1,4.323-1.223l.95-.119V8.739A8.158,8.158,0,0,0,6.2,5.96a1.2,1.2,0,0,0-1.223-.712A1.837,1.837,0,0,0,3.8,5.5a.574.574,0,0,0-.189.57c.046.213.126.5.237.842a2.957,2.957,0,0,1,.166.832A1.7,1.7,0,0,1,3.5,8.99a1.684,1.684,0,0,1-1.235.51,1.724,1.724,0,0,1-1.247-.51A1.685,1.685,0,0,1,.5,7.742,2.5,2.5,0,0,1,1.745,5.663,6.563,6.563,0,0,1,5.474,4.8a5.17,5.17,0,0,1,3.54.974A4.565,4.565,0,0,1,10.07,9.215V13.49a2.556,2.556,0,0,0,.309,1.579q.309.321,1.14.13v.238a2.073,2.073,0,0,1-.9.416M3.966,14.618a1.851,1.851,0,0,0,1.271.487,1.585,1.585,0,0,0,1.271-.713V10.355l-.855.118a2.941,2.941,0,0,0-1.77.831A2.356,2.356,0,0,0,3.3,13.228a2.162,2.162,0,0,0,.665,1.39" fill="#12263f"/>
        <path id="Trazado_634024" data-name="Trazado 634024" d="M17.695,15.437h1.187v.476H12.945v-.476h1.187V.475H12.945V0h4.75Z" fill="#12263f"/>
        <path id="Trazado_634025" data-name="Trazado 634025" d="M25.294,15.437h1.188v.476H20.544v-.476h1.187V.475H20.544V0h4.75Z" fill="#12263f"/>
        <path id="Trazado_634026" data-name="Trazado 634026" d="M38.643,11.163H31.47q.237,4.18,3.254,4.179a5.4,5.4,0,0,0,1.84-.38,3.027,3.027,0,0,0,1.508-1.068l.333.237a3.8,3.8,0,0,1-1.782,1.449,6.03,6.03,0,0,1-2.5.57,9.288,9.288,0,0,1-2.246-.249,6.747,6.747,0,0,1-1.947-.844,3.926,3.926,0,0,1-1.485-1.781,6.979,6.979,0,0,1-.534-2.874A5.365,5.365,0,0,1,29.5,6.139,5.659,5.659,0,0,1,33.358,4.75a5.1,5.1,0,0,1,3.776,1.52q1.508,1.52,1.509,4.893m-7.2-.476h3.872a14.128,14.128,0,0,0-.464-3.824q-.462-1.638-1.484-1.638T31.9,6.8a13.209,13.209,0,0,0-.452,3.622Z" fill="#12263f"/>
        <path id="Trazado_634027" data-name="Trazado 634027" d="M43.274,13.7q0,.666.855.761h4.085a3.9,3.9,0,0,1,2.945.9,2.454,2.454,0,0,1,.582,2.233,4.192,4.192,0,0,1-1.627,2.446,5.876,5.876,0,0,1-3.8,1.117q-4.441,0-5.7-1.307a1.52,1.52,0,0,1-.4-1.223,1.788,1.788,0,0,1,.522-1.14,2.424,2.424,0,0,1,1.021-.606,2,2,0,0,1-.759-1.591,2.687,2.687,0,0,1,.582-1.7,4.779,4.779,0,0,1,1.341-1.2,3.627,3.627,0,0,1-2.731-3.587,3.3,3.3,0,0,1,1.769-2.98,7.655,7.655,0,0,1,4-1.058,7.153,7.153,0,0,1,2.137.333,2.866,2.866,0,0,1-.546-1.757,2.264,2.264,0,0,1,.7-1.7A2.427,2.427,0,0,1,50.007.973a2.112,2.112,0,0,1,1.592.558,1.762,1.762,0,0,1,.533,1.247,1.7,1.7,0,0,1-.415,1.164,1.505,1.505,0,0,1-2.173.023,1.368,1.368,0,0,1-.4-.913,1.731,1.731,0,0,1,.178-.808,1.966,1.966,0,0,0,.178-.392c-.047-.253-.206-.324-.475-.214a1.509,1.509,0,0,0-.7.677,2.3,2.3,0,0,0-.3,1.176,2.411,2.411,0,0,0,1.163,2.09A3.494,3.494,0,0,1,51.23,8.739a3.358,3.358,0,0,1-1.686,3.053,7.489,7.489,0,0,1-3.99,1.033,7.368,7.368,0,0,1-1.972-.238,2.159,2.159,0,0,0-.308,1.116m4.8,3.848h-3.99a4.166,4.166,0,0,1-1.923-.4,2.446,2.446,0,0,0,.866,2.624,5.311,5.311,0,0,0,3.29.914,5.582,5.582,0,0,0,3.467-1.044,1.579,1.579,0,0,0,.713-.951q.071-.474-.546-.808a4.108,4.108,0,0,0-1.877-.332m-.4-8.8a5.565,5.565,0,0,0-.475-2.767,1.571,1.571,0,0,0-1.413-.736A1.456,1.456,0,0,0,44.413,6a6.09,6.09,0,0,0-.427,2.742,6.193,6.193,0,0,0,.452,2.8,1.466,1.466,0,0,0,1.366.808,1.526,1.526,0,0,0,1.388-.784,5.865,5.865,0,0,0,.475-2.814" fill="#12263f"/>
        <path id="Trazado_634028" data-name="Trazado 634028" d="M59.448,15.913H53.511v-.476H54.7V5.463H53.511V4.988h4.75V7.814a4.406,4.406,0,0,1,.772-1.9,2.709,2.709,0,0,1,1.234-.974A3.95,3.95,0,0,1,61.573,4.7a3.332,3.332,0,0,1,1.212.225,1.55,1.55,0,0,1,.867.9,1.75,1.75,0,0,1,.024,1.353,1.662,1.662,0,0,1-.915.962,1.518,1.518,0,0,1-1.2.071,1.56,1.56,0,0,1-.784-.582,2.593,2.593,0,0,1-.332-.7q-.239-.879-.642-.878-.452,0-1,1.555a9.882,9.882,0,0,0-.545,3.289v4.536h1.187Z" fill="#12263f"/>
        <path id="Trazado_634029" data-name="Trazado 634029" d="M70.658,16.15a6.347,6.347,0,0,1-4.085-1.472,5.06,5.06,0,0,1-1.829-4.18,6.041,6.041,0,0,1,.534-2.59A4.68,4.68,0,0,1,66.7,6.1a6.8,6.8,0,0,1,1.913-1.009,6.481,6.481,0,0,1,2.089-.345,6.6,6.6,0,0,1,2.1.345A6.777,6.777,0,0,1,74.731,6.1a4.771,4.771,0,0,1,1.437,1.8,5.868,5.868,0,0,1,.546,2.566,5.716,5.716,0,0,1-.546,2.542A4.766,4.766,0,0,1,74.719,14.8a6.6,6.6,0,0,1-4.061,1.353M68.9,14.476a1.831,1.831,0,0,0,1.805,1.2,1.876,1.876,0,0,0,1.829-1.211,10.539,10.539,0,0,0,.547-4,10.633,10.633,0,0,0-.547-4.013,1.875,1.875,0,0,0-1.829-1.224A1.832,1.832,0,0,0,68.9,6.449a11.111,11.111,0,0,0-.522,4.025,10.909,10.909,0,0,0,.522,4" fill="#12263f"/>
      </g>
    </g>
  </g>
</svg>
