<svg xmlns="http://www.w3.org/2000/svg" xmlns:xlink="http://www.w3.org/1999/xlink" width="120" height="120" viewBox="0 0 120 120">
  <defs>
    <clipPath id="clip-path">
      <path id="Trazado_610742" data-name="Trazado 610742" d="M130,61.713a59.921,59.921,0,1,0,15.2-1.962A59.99,59.99,0,0,0,130,61.713" transform="translate(-85.163 -59.751)" fill="none" stroke="#624b7e" stroke-width="1"/>
    </clipPath>
  </defs>
  <g id="Grupo_1101664" data-name="Grupo 1101664" transform="translate(-180 -1181)">
    <g id="Grupo_1073773" data-name="Grupo 1073773" transform="translate(-577 -3719)">
      <g id="Grupo_1073765" data-name="Grupo 1073765" transform="translate(757 4900)">
        <g id="Grupo_1073704" data-name="Grupo 1073704">
          <g id="Grupo_1073463" data-name="Grupo 1073463" clip-path="url(#clip-path)">
            <line id="Línea_2945" data-name="Línea 2945" x1="141.717" y2="37.022" transform="translate(-26.188 -14.426)" fill="none" stroke="#624b7e" stroke-miterlimit="10" stroke-width="1.728"/>
            <line id="Línea_2946" data-name="Línea 2946" x1="141.716" y2="37.022" transform="translate(-23.944 -5.837)" fill="none" stroke="#624b7e" stroke-miterlimit="10" stroke-width="1.728"/>
            <line id="Línea_2947" data-name="Línea 2947" x1="141.716" y2="37.023" transform="translate(-21.7 2.751)" fill="none" stroke="#624b7e" stroke-miterlimit="10" stroke-width="1.728"/>
            <line id="Línea_2948" data-name="Línea 2948" x1="141.718" y2="37.023" transform="translate(-19.455 11.34)" fill="none" stroke="#624b7e" stroke-miterlimit="10" stroke-width="1.728"/>
            <line id="Línea_2949" data-name="Línea 2949" x1="141.716" y2="37.024" transform="translate(-17.211 19.929)" fill="none" stroke="#624b7e" stroke-miterlimit="10" stroke-width="1.728"/>
            <line id="Línea_2950" data-name="Línea 2950" x1="141.716" y2="37.023" transform="translate(-14.969 28.518)" fill="none" stroke="#624b7e" stroke-miterlimit="10" stroke-width="1.728"/>
            <line id="Línea_2951" data-name="Línea 2951" x1="141.717" y2="37.022" transform="translate(-12.724 37.108)" fill="none" stroke="#624b7e" stroke-miterlimit="10" stroke-width="1.728"/>
            <line id="Línea_2952" data-name="Línea 2952" x1="141.718" y2="37.022" transform="translate(-10.48 45.697)" fill="none" stroke="#624b7e" stroke-miterlimit="10" stroke-width="1.728"/>
            <line id="Línea_2953" data-name="Línea 2953" x1="141.716" y2="37.023" transform="translate(-8.237 54.285)" fill="none" stroke="#624b7e" stroke-miterlimit="10" stroke-width="1.728"/>
            <line id="Línea_2954" data-name="Línea 2954" x1="141.715" y2="37.023" transform="translate(-5.993 62.874)" fill="none" stroke="#624b7e" stroke-miterlimit="10" stroke-width="1.728"/>
            <line id="Línea_2955" data-name="Línea 2955" x1="141.716" y2="37.022" transform="translate(-3.749 71.464)" fill="none" stroke="#624b7e" stroke-miterlimit="10" stroke-width="1.728"/>
            <line id="Línea_2956" data-name="Línea 2956" x1="141.716" y2="37.022" transform="translate(-1.505 80.054)" fill="none" stroke="#624b7e" stroke-miterlimit="10" stroke-width="1.728"/>
            <line id="Línea_2957" data-name="Línea 2957" x1="141.718" y2="37.024" transform="translate(0.761 88.73)" fill="none" stroke="#624b7e" stroke-miterlimit="10" stroke-width="1.728"/>
            <line id="Línea_2958" data-name="Línea 2958" x1="141.717" y2="37.022" transform="translate(2.94 97.072)" fill="none" stroke="#624b7e" stroke-miterlimit="10" stroke-width="1.728"/>
            <line id="Línea_2959" data-name="Línea 2959" x1="141.717" y2="37.022" transform="translate(-27.38 -18.99)" fill="none" stroke="#624b7e" stroke-miterlimit="10" stroke-width="1.728"/>
            <line id="Línea_2960" data-name="Línea 2960" x1="141.716" y2="37.022" transform="translate(-25.136 -10.401)" fill="none" stroke="#624b7e" stroke-miterlimit="10" stroke-width="1.728"/>
            <line id="Línea_2961" data-name="Línea 2961" x1="141.716" y2="37.023" transform="translate(-22.892 -1.813)" fill="none" stroke="#624b7e" stroke-miterlimit="10" stroke-width="1.728"/>
            <line id="Línea_2962" data-name="Línea 2962" x1="141.718" y2="37.023" transform="translate(-20.648 6.776)" fill="none" stroke="#624b7e" stroke-miterlimit="10" stroke-width="1.728"/>
            <line id="Línea_2963" data-name="Línea 2963" x1="141.716" y2="37.023" transform="translate(-18.404 15.365)" fill="none" stroke="#624b7e" stroke-miterlimit="10" stroke-width="1.728"/>
            <line id="Línea_2964" data-name="Línea 2964" x1="141.716" y2="37.024" transform="translate(-16.162 23.954)" fill="none" stroke="#624b7e" stroke-miterlimit="10" stroke-width="1.728"/>
            <line id="Línea_2965" data-name="Línea 2965" x1="141.716" y2="37.021" transform="translate(-13.917 32.544)" fill="none" stroke="#624b7e" stroke-miterlimit="10" stroke-width="1.728"/>
            <line id="Línea_2966" data-name="Línea 2966" x1="141.718" y2="37.022" transform="translate(-11.673 41.132)" fill="none" stroke="#624b7e" stroke-miterlimit="10" stroke-width="1.728"/>
            <line id="Línea_2967" data-name="Línea 2967" x1="141.716" y2="37.022" transform="translate(-9.429 49.721)" fill="none" stroke="#624b7e" stroke-miterlimit="10" stroke-width="1.728"/>
            <line id="Línea_2968" data-name="Línea 2968" x1="141.715" y2="37.022" transform="translate(-7.186 58.31)" fill="none" stroke="#624b7e" stroke-miterlimit="10" stroke-width="1.728"/>
            <line id="Línea_2969" data-name="Línea 2969" x1="141.715" y2="37.022" transform="translate(-4.941 66.9)" fill="none" stroke="#624b7e" stroke-miterlimit="10" stroke-width="1.728"/>
            <line id="Línea_2970" data-name="Línea 2970" x1="141.716" y2="37.022" transform="translate(-2.698 75.489)" fill="none" stroke="#624b7e" stroke-miterlimit="10" stroke-width="1.728"/>
            <line id="Línea_2971" data-name="Línea 2971" x1="141.717" y2="37.023" transform="translate(-0.432 84.166)" fill="none" stroke="#624b7e" stroke-miterlimit="10" stroke-width="1.728"/>
            <line id="Línea_2972" data-name="Línea 2972" x1="141.716" y2="37.021" transform="translate(1.748 92.508)" fill="none" stroke="#624b7e" stroke-miterlimit="10" stroke-width="1.728"/>
          </g>
        </g>
        <g id="Grupo_1073705" data-name="Grupo 1073705" transform="translate(9.797 9.795)">
          <path id="Trazado_608385" data-name="Trazado 608385" d="M50.33,0A50.166,50.166,0,1,1,0,50.166,50.248,50.248,0,0,1,50.33,0Z" transform="translate(0 0)" fill="#fff"/>
        </g>
        <g id="Grupo_1073706" data-name="Grupo 1073706" transform="translate(97.541 39.055)">
          <path id="Trazado_611008" data-name="Trazado 611008" d="M7.807,23.89,20.6,10.78,0,5.99Z" transform="translate(0 -4.861)" fill="#474747"/>
          <path id="Trazado_611009" data-name="Trazado 611009" d="M15.041,16.829,28.765,3.886,7.771,0Z" transform="translate(-6.307 0)" fill="#79cbbf"/>
        </g>
        <g id="Grupo_1073707" data-name="Grupo 1073707" transform="translate(0 87.567)">
          <path id="Trazado_610799" data-name="Trazado 610799" d="M0,2.743,5.78,13.015l7.926-6.252,4.948,8.8,7.929-6.253,4.958,8.8,9.26-7.3L39.008,8.533l-6.6,5.2-4.958-8.8-7.927,6.251-4.948-8.8L6.644,8.645,2.524,1.323Z" transform="translate(0 -0.94)" fill="#474747"/>
          <path id="Trazado_610800" data-name="Trazado 610800" d="M12.91,0,10.387,1.42l5.779,10.272L24.092,5.44l4.947,8.8,7.93-6.253,4.957,8.8,9.26-7.3L49.394,7.211l-6.6,5.2-4.958-8.8L29.9,9.867l-4.948-8.8L17.03,7.323Z" transform="translate(-7.379 0)" fill="#fff4a9"/>
        </g>
        <path id="Trazado_611010" data-name="Trazado 611010" d="M19.556,9.623,5.175,2.789l-.329,8.785Z" transform="translate(5.712 13.709)" fill="none" stroke="#fd3cae" stroke-miterlimit="10" stroke-width="2"/>
      </g>
    </g>
    <path id="Trazado_634666" data-name="Trazado 634666" d="M-25.1-11.591l-2.463,8.442-.254,1.028a1.6,1.6,0,0,0-.038.279.376.376,0,0,0,.108.267.309.309,0,0,0,.222.114,1.34,1.34,0,0,0,.736-.406,10.147,10.147,0,0,0,.914-1.168l.444.229A7.272,7.272,0,0,1-27.352-.4a3.634,3.634,0,0,1-2.2.755,1.511,1.511,0,0,1-1.1-.375,1.271,1.271,0,0,1-.381-.946,7.863,7.863,0,0,1,.406-1.841l.3-1.028A12.522,12.522,0,0,1-33.16-.254a2.691,2.691,0,0,1-1.676.609A1.778,1.778,0,0,1-36.524-.6a4.462,4.462,0,0,1-.521-2.165,9.849,9.849,0,0,1,1.092-4.107A10.207,10.207,0,0,1-33.084-10.6a4.5,4.5,0,0,1,2.742-1.168,1.585,1.585,0,0,1,1.143.413,2.8,2.8,0,0,1,.635,1.5l.457-1.562Zm-4.062,2.412a2.67,2.67,0,0,0-.317-1.485.726.726,0,0,0-.622-.317,1.235,1.235,0,0,0-.812.381,9.517,9.517,0,0,0-1.834,3.193,11.3,11.3,0,0,0-.984,4.158,1.652,1.652,0,0,0,.222.971.619.619,0,0,0,.489.3,1.609,1.609,0,0,0,1.155-.66,10.3,10.3,0,0,0,1.511-2.3A9.7,9.7,0,0,0-29.161-9.179Zm12.835-8.43-4.2,14.295A8.381,8.381,0,0,0-20.9-1.727a.392.392,0,0,0,.108.279.32.32,0,0,0,.235.114.647.647,0,0,0,.432-.178,7.092,7.092,0,0,0,1.358-1.676l.5.229A9.509,9.509,0,0,1-20.643-.2a2.919,2.919,0,0,1-1.7.559A1.9,1.9,0,0,1-23.677-.1a1.416,1.416,0,0,1-.5-1.085,6.16,6.16,0,0,1,.3-1.511L-20.439-14.4a5.95,5.95,0,0,0,.279-1.282.552.552,0,0,0-.267-.482,1.7,1.7,0,0,0-1.079-.216l.14-.482,4.278-.749Zm7.224,0L-13.3-3.313a8.381,8.381,0,0,0-.368,1.587.392.392,0,0,0,.108.279.32.32,0,0,0,.235.114.647.647,0,0,0,.432-.178A7.092,7.092,0,0,0-11.54-3.187l.5.229A9.509,9.509,0,0,1-13.419-.2a2.919,2.919,0,0,1-1.7.559A1.9,1.9,0,0,1-16.453-.1a1.416,1.416,0,0,1-.5-1.085,6.16,6.16,0,0,1,.3-1.511L-13.216-14.4a5.95,5.95,0,0,0,.279-1.282.552.552,0,0,0-.267-.482,1.7,1.7,0,0,0-1.079-.216l.14-.482,4.278-.749Zm3.06,12.848A10.28,10.28,0,0,0-6.157-3.4,2.1,2.1,0,0,0-5.6-1.879a1.962,1.962,0,0,0,1.479.571,4.077,4.077,0,0,0,1.784-.432A9.186,9.186,0,0,0-.267-3.25l.381.343A10.134,10.134,0,0,1-2.729-.394a6.323,6.323,0,0,1-3.06.749A3.578,3.578,0,0,1-8.722-.66a3.652,3.652,0,0,1-.812-2.349A8.213,8.213,0,0,1-8.322-7.173a9.311,9.311,0,0,1,3.3-3.339,8.071,8.071,0,0,1,4.2-1.257,2.288,2.288,0,0,1,1.612.508,1.676,1.676,0,0,1,.546,1.282A3.425,3.425,0,0,1,.8-8.176,6.061,6.061,0,0,1-1.054-6.252a8.814,8.814,0,0,1-2.5,1.111A14.122,14.122,0,0,1-6.043-4.761Zm.114-.66A6.523,6.523,0,0,0-4.2-5.872,3.99,3.99,0,0,0-2.99-6.786,5.732,5.732,0,0,0-1.968-8.373a4.393,4.393,0,0,0,.432-1.8.769.769,0,0,0-.2-.559.668.668,0,0,0-.5-.2,2.046,2.046,0,0,0-1.371.851A12.117,12.117,0,0,0-5.929-5.421Zm17.418-5.573h3.377L14.46-9.6H12.708a2.993,2.993,0,0,1,.406,1.422,3.867,3.867,0,0,1-.628,2.133,4.363,4.363,0,0,1-1.854,1.562A6.248,6.248,0,0,1,7.909-3.9a7.349,7.349,0,0,1-.87-.057Q6.563-4.012,6-4.113a3.929,3.929,0,0,0-1.054.686A.562.562,0,0,0,4.8-3.06a.5.5,0,0,0,.19.394,2.144,2.144,0,0,0,.978.432,24.24,24.24,0,0,1,3.415.9A4.121,4.121,0,0,1,11.089-.127a2.792,2.792,0,0,1,.578,1.777,3.5,3.5,0,0,1-1.46,2.774,7.1,7.1,0,0,1-4.52,1.187A8.061,8.061,0,0,1,1.143,4.6,2.117,2.117,0,0,1,.089,2.844,1.963,1.963,0,0,1,.781,1.409,6.791,6.791,0,0,1,3.745.241,3.4,3.4,0,0,1,2.7-.546a1.633,1.633,0,0,1-.368-1,2.012,2.012,0,0,1,.679-1.5A7.282,7.282,0,0,1,5.294-4.329,3.881,3.881,0,0,1,3.5-5.6a3.074,3.074,0,0,1-.552-1.822,3.719,3.719,0,0,1,.667-2.1A4.763,4.763,0,0,1,5.58-11.146a6.853,6.853,0,0,1,2.99-.622,6.941,6.941,0,0,1,1.917.241A3.541,3.541,0,0,1,11.489-10.994Zm-2.653-.152a1.48,1.48,0,0,0-1.054.406,5.076,5.076,0,0,0-1.2,2.082,8.338,8.338,0,0,0-.514,2.768,1.329,1.329,0,0,0,.362.984,1.216,1.216,0,0,0,.9.362,1.277,1.277,0,0,0,.9-.355A5.683,5.683,0,0,0,9.483-7.128,8.514,8.514,0,0,0,10.017-9.9a1.219,1.219,0,0,0-.343-.9A1.14,1.14,0,0,0,8.836-11.146ZM4.456.533A3.947,3.947,0,0,0,2.812,1.549a1.85,1.85,0,0,0-.438,1.181,1.885,1.885,0,0,0,.87,1.492,4.588,4.588,0,0,0,2.774.667,3.647,3.647,0,0,0,2.3-.578,1.7,1.7,0,0,0,.711-1.352,1.294,1.294,0,0,0-.654-1.117,9.2,9.2,0,0,0-2.507-.9Q5,.711,4.456.533Zm16.136-12.3L18.675-4.634q2.361-5.218,3.555-6.424a2.06,2.06,0,0,1,1.473-.711,1.08,1.08,0,0,1,.863.387,1.644,1.644,0,0,1,.33,1.1,3.476,3.476,0,0,1-.6,2.069,1.063,1.063,0,0,1-.851.533.818.818,0,0,1-.762-.47,2.4,2.4,0,0,0-.355-.552.337.337,0,0,0-.216-.083.558.558,0,0,0-.267.076,2.833,2.833,0,0,0-.73.743,12.067,12.067,0,0,0-1.111,1.974q-.66,1.384-1.028,2.342A36.07,36.07,0,0,0,17.951,0H14.879l2.095-8.417A6.78,6.78,0,0,0,17.2-9.661a1,1,0,0,0-.121-.533.71.71,0,0,0-.33-.279,2.686,2.686,0,0,0-.87-.089L16-10.931l3.834-.838Zm12.5,0a4,4,0,0,1,1.885.463,3.138,3.138,0,0,1,1.333,1.289,3.751,3.751,0,0,1,.451,1.828,8.369,8.369,0,0,1-1.149,4.113A8.874,8.874,0,0,1,32.589-.832,7.025,7.025,0,0,1,28.806.355,3.449,3.449,0,0,1,26.133-.673a3.577,3.577,0,0,1-.946-2.514,7.865,7.865,0,0,1,.7-3.307,9.827,9.827,0,0,1,1.79-2.691,9.062,9.062,0,0,1,2.495-1.866A6.36,6.36,0,0,1,33.1-11.769Zm-.521.673a1.623,1.623,0,0,0-1.117.394,10.613,10.613,0,0,0-2.006,3.739,15.1,15.1,0,0,0-1.117,5.3,1.358,1.358,0,0,0,.355.965,1.11,1.11,0,0,0,.838.381,1.363,1.363,0,0,0,.876-.3,6.94,6.94,0,0,0,1.371-2.05,18.166,18.166,0,0,0,1.333-3.517,13.578,13.578,0,0,0,.521-3.523,1.5,1.5,0,0,0-.317-1.022A.956.956,0,0,0,32.576-11.1Z" transform="translate(240.58 1249.5)" fill="#12263f"/>
  </g>
</svg>
