<svg id="Grupo_1101539" data-name="Grupo 1101539" xmlns="http://www.w3.org/2000/svg" xmlns:xlink="http://www.w3.org/1999/xlink" width="400" height="121.343" viewBox="0 0 400 121.343">
  <defs>
    <clipPath id="clip-path">
      <rect id="Rectángulo_396353" data-name="Rectángulo 396353" width="400" height="121.343" fill="none"/>
    </clipPath>
  </defs>
  <path id="Trazado_634504" data-name="Trazado 634504" d="M0,0H400V121.343H0Z" fill="#eadff7"/>
  <rect id="Rectángulo_396342" data-name="Rectángulo 396342" width="377.187" height="0.711" transform="translate(14.022 44.772)" fill="#12263f"/>
  <rect id="Rectángulo_396343" data-name="Rectángulo 396343" width="377.187" height="0.711" transform="translate(14.022 51.877)" fill="#12263f"/>
  <rect id="Rectángulo_396344" data-name="Rectángulo 396344" width="377.187" height="0.71" transform="translate(14.022 58.984)" fill="#12263f"/>
  <rect id="Rectángulo_396345" data-name="Rectángulo 396345" width="377.187" height="0.711" transform="translate(14.022 66.089)" fill="#12263f"/>
  <rect id="Rectángulo_396346" data-name="Rectángulo 396346" width="377.187" height="0.711" transform="translate(14.022 73.196)" fill="#12263f"/>
  <rect id="Rectángulo_396347" data-name="Rectángulo 396347" width="2.572" height="29.135" transform="translate(388.638 44.772)" fill="#12263f"/>
  <g id="Grupo_1101538" data-name="Grupo 1101538">
    <g id="Grupo_1101537" data-name="Grupo 1101537" clip-path="url(#clip-path)">
      <path id="Trazado_634412" data-name="Trazado 634412" d="M27.683,67.97c-1.195-3.914-5.1-6.61-8.557-6.069-.393-1.881-.772-3.695-1.115-5.34,3.582-3.613,6.616-8.051,4.889-16.312-.506-2.42-2.024-6.577-3.337-6.3-5.67,1.185-4.4,13.836-4.4,13.836s.339,1.627.873,4.181C11.457,56.878,6.085,62,7.447,68.519,8.777,74.88,14.537,79.305,20.76,78c.235-.05.464-.106.687-.166l1.059,5.069c.679,3.25-.774,6.656-3.678,7.263-3.3.69-4-1.4-4-1.4s.464.336,1.7.076A3.225,3.225,0,0,0,18.4,85.341c-.325-1.556-1.772-3.234-3.57-2.858a3.466,3.466,0,0,0-2.835,4.434c.26,1.244,2.256,5.51,7.1,4.5,5.947-1.243,4.559-7.881,4.285-9.195-.063-.3-.435-2.081-.978-4.678,4.9-1.784,6.291-6.285,5.288-9.573M16.452,49.1c-.8-3.8,1.039-9.526,3.6-10.061,1.175-.245,1.73,1.371,1.73,1.371.788,3.771-1.75,7.182-4.917,10.658-.215-1.028-.36-1.722-.411-1.968m3.676,27.954c-7.191,1.5-10.065-5.691-10.065-5.691-1.422-6.8,2.986-10.011,7.11-13.978l.992,4.749c-3.251,1.069-6.033,4.791-4.444,8.85,1.271,3.25,4.8,2.591,4.8,2.591a4.207,4.207,0,0,1-3.2-2.355c-1.131-2.7.809-5.051,3.51-5.9.855,4.094,1.713,8.2,2.39,11.438a10.188,10.188,0,0,1-1.094.292m2.027-.663c-.663-3.17-1.516-7.252-2.36-11.292,2.847-.351,5.184,3.039,5.463,4.379.252,1.2.735,5.094-3.1,6.913" fill="#12263f"/>
      <path id="Trazado_634413" data-name="Trazado 634413" d="M53.154,72.224c.617,1.3,2.694,1.631,4.64.749a3.948,3.948,0,0,0,2.581-3.154V52.366a.338.338,0,0,0-.676,0V68.389a4.1,4.1,0,0,0-4.139-.111c-1.945.884-3.023,2.65-2.407,3.946" fill="#12263f"/>
      <path id="Trazado_634414" data-name="Trazado 634414" d="M101.211,54.667c-.617-1.3-2.694-1.631-4.64-.749a3.946,3.946,0,0,0-2.581,3.154V74.525a.338.338,0,0,0,.676,0V58.5a4.1,4.1,0,0,0,4.139.111c1.945-.884,3.022-2.65,2.407-3.946" fill="#12263f"/>
      <path id="Trazado_634415" data-name="Trazado 634415" d="M132.819,63.13c0,3.877-5.488,4.531-5.958,6.691V58.475a4.274,4.274,0,0,0,4.093.031c1.983-.9,3.084-2.7,2.454-4.023s-2.747-1.662-4.729-.764a4.028,4.028,0,0,0-2.631,3.216v17.79a.34.34,0,0,0,.344.336.334.334,0,0,0,.063-.012.33.33,0,0,0,.064.012.34.34,0,0,0,.343-.336v-.35c.115-1.017.614-3.8,2.707-5.215,2.378-1.609,3.582-2.943,3.582-5.73a8.33,8.33,0,0,0-1.322-4.593,9.859,9.859,0,0,1,.991,4.293" fill="#12263f"/>
      <rect id="Rectángulo_396348" data-name="Rectángulo 396348" width="0.789" height="28.779" transform="translate(82.951 45.127)" fill="#12263f"/>
      <rect id="Rectángulo_396349" data-name="Rectángulo 396349" width="0.789" height="28.779" transform="translate(179.811 45.127)" fill="#12263f"/>
      <rect id="Rectángulo_396350" data-name="Rectángulo 396350" width="0.789" height="28.779" transform="translate(253.568 45.127)" fill="#12263f"/>
      <rect id="Rectángulo_396351" data-name="Rectángulo 396351" width="0.789" height="28.779" transform="translate(337.728 45.127)" fill="#12263f"/>
      <rect id="Rectángulo_396352" data-name="Rectángulo 396352" width="0.789" height="28.779" transform="translate(385.173 45.127)" fill="#12263f"/>
      <path id="Trazado_634416" data-name="Trazado 634416" d="M188.031,68.69a.347.347,0,0,0,.347-.348V51.453a4.142,4.142,0,0,0,4.261.119c2-.931,3.115-2.793,2.48-4.16s-2.775-1.719-4.777-.79a4.151,4.151,0,0,0-2.658,3.326V68.342a.349.349,0,0,0,.348.348m2.912-20.91c1.771-.886,3.465-1.085,3.785-.444s-.853,1.877-2.622,2.764-3.465,1.085-3.785.443.852-1.878,2.622-2.763" fill="#12263f"/>
      <path id="Trazado_634417" data-name="Trazado 634417" d="M42.294,61.223c0-1.236-.787-3.786-3.186-3.786a4.336,4.336,0,0,0-3.61,1.611v-9.7a.3.3,0,0,0-.6,0V68.54a.3.3,0,0,0,.3.3.257.257,0,0,0,.068-.014c1.005-.122,7.028-3.41,7.028-7.6M35.5,68.1V60.242a7.444,7.444,0,0,1,2.636-.943,1.946,1.946,0,0,1,1.912,2.074c0,3.642-3.511,6.084-4.548,6.727" fill="#12263f"/>
      <path id="Trazado_634418" data-name="Trazado 634418" d="M50.579,48.428c0-1.236-.787-3.786-3.187-3.786a4.337,4.337,0,0,0-3.61,1.611v-9.7a.3.3,0,0,0-.6,0v19.19a.3.3,0,0,0,.3.3.249.249,0,0,0,.068-.014c1.005-.122,7.029-3.41,7.029-7.6m-6.8,6.877V47.447a7.444,7.444,0,0,1,2.636-.943,1.946,1.946,0,0,1,1.912,2.074c0,3.642-3.511,6.084-4.548,6.727" fill="#12263f"/>
      <path id="Trazado_634419" data-name="Trazado 634419" d="M104.779,54.725a1.273,1.273,0,1,1-1.273-1.273,1.273,1.273,0,0,1,1.273,1.273" fill="#12263f"/>
      <path id="Trazado_634420" data-name="Trazado 634420" d="M149.341,47.924c-.617-1.3-2.694-1.631-4.64-.749a3.948,3.948,0,0,0-2.581,3.154V67.782a.338.338,0,0,0,.676,0V51.759a4.1,4.1,0,0,0,4.139.111c1.945-.884,3.023-2.65,2.407-3.946" fill="#12263f"/>
      <path id="Trazado_634421" data-name="Trazado 634421" d="M166.055,47.924c-.617-1.3-2.694-1.631-4.64-.749a3.948,3.948,0,0,0-2.581,3.154V67.782a.338.338,0,0,0,.676,0V51.759a4.1,4.1,0,0,0,4.139.111c1.945-.884,3.023-2.65,2.407-3.946" fill="#12263f"/>
      <path id="Trazado_634422" data-name="Trazado 634422" d="M223.444,50.221c-.617-1.3-2.694-1.631-4.64-.749a3.948,3.948,0,0,0-2.581,3.154V70.079a.338.338,0,0,0,.676,0V54.056a4.1,4.1,0,0,0,4.139.111c1.945-.884,3.023-2.65,2.407-3.946" fill="#12263f"/>
      <path id="Trazado_634423" data-name="Trazado 634423" d="M244.89,43.952c-.617-1.3-2.694-1.631-4.64-.749a3.948,3.948,0,0,0-2.581,3.154V63.81a.338.338,0,0,0,.676,0V47.787a4.1,4.1,0,0,0,4.139.111c1.945-.884,3.023-2.65,2.407-3.946" fill="#12263f"/>
      <path id="Trazado_634424" data-name="Trazado 634424" d="M266.121,43.952c-.617-1.3-2.694-1.631-4.64-.749a3.948,3.948,0,0,0-2.581,3.154V63.81a.339.339,0,0,0,.677,0V47.787a4.1,4.1,0,0,0,4.138.111c1.945-.884,3.023-2.65,2.407-3.946" fill="#12263f"/>
      <path id="Trazado_634425" data-name="Trazado 634425" d="M269.69,44.01a1.273,1.273,0,1,1-1.273-1.273,1.273,1.273,0,0,1,1.273,1.273" fill="#12263f"/>
      <path id="Trazado_634426" data-name="Trazado 634426" d="M290.511,52.954c0,3.877-5.488,4.531-5.958,6.691V48.3a4.274,4.274,0,0,0,4.093.031c1.983-.9,3.084-2.7,2.454-4.023s-2.747-1.662-4.729-.764a4.028,4.028,0,0,0-2.631,3.216v17.79a.34.34,0,0,0,.344.336.334.334,0,0,0,.063-.012.33.33,0,0,0,.064.012.34.34,0,0,0,.343-.336V64.2c.115-1.017.614-3.8,2.707-5.215,2.378-1.609,3.582-2.943,3.582-5.73a8.335,8.335,0,0,0-1.322-4.594,9.867,9.867,0,0,1,.991,4.294" fill="#12263f"/>
      <path id="Trazado_634427" data-name="Trazado 634427" d="M304.941,47.924c-.617-1.3-2.694-1.631-4.64-.749a3.948,3.948,0,0,0-2.581,3.154V67.782a.338.338,0,0,0,.676,0V51.759a4.1,4.1,0,0,0,4.139.111c1.945-.884,3.023-2.65,2.407-3.946" fill="#12263f"/>
      <path id="Trazado_634428" data-name="Trazado 634428" d="M323.43,53.83c-.617-1.3-2.694-1.631-4.64-.749a3.948,3.948,0,0,0-2.581,3.154V73.688a.338.338,0,0,0,.676,0V57.665a4.1,4.1,0,0,0,4.139.111c1.945-.884,3.023-2.65,2.407-3.946" fill="#12263f"/>
      <path id="Trazado_634429" data-name="Trazado 634429" d="M348.444,75.174a.347.347,0,0,0,.347-.348V57.937a4.142,4.142,0,0,0,4.261.119c2-.931,3.115-2.793,2.48-4.16s-2.775-1.719-4.777-.79a4.152,4.152,0,0,0-2.658,3.326V74.826a.349.349,0,0,0,.348.348m2.912-20.91c1.771-.886,3.465-1.085,3.785-.444s-.853,1.877-2.622,2.764-3.465,1.085-3.785.443.852-1.878,2.622-2.763" fill="#12263f"/>
      <path id="Trazado_634430" data-name="Trazado 634430" d="M213.983,41.061a16.716,16.716,0,0,0-1.374-1.121l-.773-.58-.963-.653c-.684-.482-1.511-.975-2.427-1.541-.9-.587-1.98-1.109-3.108-1.747-1.145-.609-2.428-1.184-3.771-1.843-1.379-.587-2.848-1.207-4.4-1.837-1.588-.554-3.229-1.2-4.977-1.784-1.765-.528-3.586-1.135-5.5-1.657-1.929-.473-3.9-1.027-5.961-1.5l-6.364-1.289q-3.285-.509-6.7-1.041c-4.572-.558-9.3-1.086-14.137-1.327l-3.633-.237c-1.217-.053-2.441-.056-3.664-.086-2.44-.031-4.926-.131-7.345-.107l-7.4.144-1.842.04-1.821.119-3.625.235-3.6.233-3.555.378c-2.355.267-4.694.442-6.962.843l-3.384.523c-1.118.174-2.228.328-3.311.564-2.169.448-4.308.821-6.362,1.3-2.044.52-4.044.992-5.962,1.51-1.9.575-3.748,1.094-5.5,1.66-1.732.621-3.411,1.178-4.98,1.777-1.552.639-3.055,1.184-4.417,1.808a73.9,73.9,0,0,0-6.94,3.481c-.935.533-1.764,1.024-2.465,1.482-.715.438-1.3.846-1.771,1.18-.946.665-1.415,1.071-1.415,1.071s.441-.435,1.344-1.164c.451-.365,1.009-.814,1.7-1.3.342-.246.7-.521,1.1-.793L69,36.968a74.844,74.844,0,0,1,6.815-3.849c1.344-.7,2.829-1.321,4.366-2.044,1.556-.681,3.234-1.29,4.965-1.984,1.751-.636,3.6-1.226,5.5-1.876,1.921-.59,3.932-1.108,5.988-1.69,2.066-.539,4.217-.972,6.4-1.481,1.09-.27,2.209-.45,3.337-.639l3.415-.581c2.291-.441,4.649-.656,7.026-.963l3.59-.437,3.651-.257,3.68-.256,1.848-.128,1.844-.05,7.4-.179c2.521-.013,4.974.1,7.454.145,1.236.036,2.471.046,3.7.105l3.671.258c4.884.253,9.659.907,14.273,1.529l6.761,1.178,6.408,1.467c2.066.536,4.059,1.133,5.991,1.681,1.919.6,3.742,1.277,5.506,1.873,1.744.656,3.391,1.354,4.962,1.994,1.543.713,2.995,1.412,4.355,2.072,1.326.732,2.588,1.374,3.712,2.044,1.108.7,2.163,1.276,3.045,1.913.9.612,1.7,1.152,2.353,1.687l.921.717q.406.348.737.633a16.837,16.837,0,0,1,1.3,1.211" fill="#12263f"/>
      <path id="Trazado_634431" data-name="Trazado 634431" d="M351.112,41.061a14.1,14.1,0,0,0-1.159-.945l-.652-.49-.811-.55c-.578-.407-1.275-.822-2.047-1.3-.761-.5-1.67-.935-2.621-1.472-.965-.514-2.047-1-3.179-1.555-1.164-.495-2.4-1.018-3.714-1.549-1.338-.467-2.723-1.014-4.2-1.5-1.489-.445-3.024-.957-4.639-1.4-1.627-.4-3.293-.865-5.027-1.263L317.7,27.948l-5.652-.878c-3.855-.471-7.844-.916-11.92-1.119l-3.064-.2c-1.026-.044-2.058-.047-3.09-.073-2.057-.026-4.153-.11-6.193-.09l-6.239.122-1.553.034-1.536.1-3.056.2-3.033.2-3,.318c-1.986.225-3.958.373-5.871.711l-2.853.441c-.942.146-1.879.277-2.792.476-1.829.377-3.633.692-5.365,1.1-1.723.438-3.41.837-5.027,1.273-1.6.485-3.161.922-4.639,1.4-1.461.524-2.877.994-4.2,1.5-1.309.539-2.576,1-3.725,1.525a62.241,62.241,0,0,0-5.851,2.935c-.789.45-1.488.864-2.079,1.25-.6.369-1.1.713-1.493,1-.8.561-1.194.9-1.194.9s.372-.367,1.133-.981c.381-.308.851-.687,1.431-1.1.289-.207.593-.44.929-.669l1.089-.7a62.634,62.634,0,0,1,5.747-3.246c1.132-.589,2.385-1.114,3.681-1.724,1.312-.574,2.727-1.087,4.186-1.673,1.477-.536,3.036-1.033,4.64-1.582,1.62-.5,3.316-.933,5.05-1.425,1.742-.454,3.556-.819,5.4-1.248.919-.228,1.862-.38,2.814-.539l2.879-.491c1.932-.371,3.921-.552,5.925-.811l3.027-.369,3.079-.216,3.1-.216,1.559-.108,1.554-.042,6.24-.152c2.126-.01,4.2.085,6.286.123,1.043.03,2.083.038,3.12.088l3.1.218c4.118.214,8.144.765,12.035,1.289l5.7.994,5.4,1.237c1.743.451,3.423.955,5.053,1.418,1.617.5,3.155,1.076,4.642,1.579,1.471.553,2.86,1.141,4.185,1.681,1.3.6,2.525,1.19,3.672,1.747,1.118.618,2.183,1.159,3.13,1.724.935.59,1.824,1.076,2.567,1.613.757.516,1.434.971,1.985,1.423l.776.6.622.533a14.126,14.126,0,0,1,1.1,1.022" fill="#12263f"/>
      <path id="Trazado_634432" data-name="Trazado 634432" d="M368.721,48.392s4.717,2.649,4.717,5.04-3.231,3.1-3.231,4.652,3.328,4.3,3.037,4.587c-.356.356-3.682-1.422-4.394-.71-1.26,1.26,1.1,4.069.712,4.457s-2.844-3.166-2.844-4.846.84-1.808,2-1.42a17.806,17.806,0,0,1,2.907,1.485s-4.2-2.777-4.2-4.845,3.164-2,3.164-3.942c0-1.744-1.873-4.458-1.873-4.458" fill="#12263f"/>
    </g>
  </g>
</svg>
