<svg xmlns="http://www.w3.org/2000/svg" xmlns:xlink="http://www.w3.org/1999/xlink" width="139.02" height="139.398" viewBox="0 0 139.02 139.398">
  <defs>
    <clipPath id="clip-path">
      <path id="Trazado_610742" data-name="Trazado 610742" d="M137.107,62.03a69.352,69.352,0,1,0,17.608-2.279,69.7,69.7,0,0,0-17.608,2.279" transform="translate(-85.163 -59.751)" fill="none" stroke="#624b7e" stroke-width="1"/>
    </clipPath>
    <clipPath id="clip-path-2">
      <rect id="Rectángulo_378825" data-name="Rectángulo 378825" width="44.671" height="67.944" fill="none"/>
    </clipPath>
  </defs>
  <g id="Grupo_1073780" data-name="Grupo 1073780" transform="translate(-322.49 -6391)">
    <g id="Grupo_1073730" data-name="Grupo 1073730" transform="translate(322.49 6391)">
      <g id="Grupo_1073704" data-name="Grupo 1073704">
        <g id="Grupo_1073463" data-name="Grupo 1073463" clip-path="url(#clip-path)">
          <line id="Línea_2945" data-name="Línea 2945" x1="164.179" y2="43.007" transform="translate(-30.339 -16.758)" fill="none" stroke="#624b7e" stroke-miterlimit="10" stroke-width="1.728"/>
          <line id="Línea_2946" data-name="Línea 2946" x1="164.178" y2="43.007" transform="translate(-27.739 -6.781)" fill="none" stroke="#624b7e" stroke-miterlimit="10" stroke-width="1.728"/>
          <line id="Línea_2947" data-name="Línea 2947" x1="164.178" y2="43.008" transform="translate(-25.139 3.196)" fill="none" stroke="#624b7e" stroke-miterlimit="10" stroke-width="1.728"/>
          <line id="Línea_2948" data-name="Línea 2948" x1="164.18" y2="43.008" transform="translate(-22.539 13.173)" fill="none" stroke="#624b7e" stroke-miterlimit="10" stroke-width="1.728"/>
          <line id="Línea_2949" data-name="Línea 2949" x1="164.178" y2="43.009" transform="translate(-19.939 23.151)" fill="none" stroke="#624b7e" stroke-miterlimit="10" stroke-width="1.728"/>
          <line id="Línea_2950" data-name="Línea 2950" x1="164.178" y2="43.008" transform="translate(-17.342 33.128)" fill="none" stroke="#624b7e" stroke-miterlimit="10" stroke-width="1.728"/>
          <line id="Línea_2951" data-name="Línea 2951" x1="164.179" y2="43.007" transform="translate(-14.741 43.106)" fill="none" stroke="#624b7e" stroke-miterlimit="10" stroke-width="1.728"/>
          <line id="Línea_2952" data-name="Línea 2952" x1="164.18" y2="43.007" transform="translate(-12.141 53.083)" fill="none" stroke="#624b7e" stroke-miterlimit="10" stroke-width="1.728"/>
          <line id="Línea_2953" data-name="Línea 2953" x1="164.178" y2="43.008" transform="translate(-9.542 63.06)" fill="none" stroke="#624b7e" stroke-miterlimit="10" stroke-width="1.728"/>
          <line id="Línea_2954" data-name="Línea 2954" x1="164.177" y2="43.007" transform="translate(-6.943 73.038)" fill="none" stroke="#624b7e" stroke-miterlimit="10" stroke-width="1.728"/>
          <line id="Línea_2955" data-name="Línea 2955" x1="164.178" y2="43.007" transform="translate(-4.343 83.016)" fill="none" stroke="#624b7e" stroke-miterlimit="10" stroke-width="1.728"/>
          <line id="Línea_2956" data-name="Línea 2956" x1="164.178" y2="43.006" transform="translate(-1.744 92.995)" fill="none" stroke="#624b7e" stroke-miterlimit="10" stroke-width="1.728"/>
          <line id="Línea_2957" data-name="Línea 2957" x1="164.18" y2="43.009" transform="translate(0.881 103.073)" fill="none" stroke="#624b7e" stroke-miterlimit="10" stroke-width="1.728"/>
          <line id="Línea_2958" data-name="Línea 2958" x1="164.179" y2="43.006" transform="translate(3.407 112.764)" fill="none" stroke="#624b7e" stroke-miterlimit="10" stroke-width="1.728"/>
          <line id="Línea_2959" data-name="Línea 2959" x1="164.179" y2="43.007" transform="translate(-31.72 -22.06)" fill="none" stroke="#624b7e" stroke-miterlimit="10" stroke-width="1.728"/>
          <line id="Línea_2960" data-name="Línea 2960" x1="164.178" y2="43.007" transform="translate(-29.12 -12.083)" fill="none" stroke="#624b7e" stroke-miterlimit="10" stroke-width="1.728"/>
          <line id="Línea_2961" data-name="Línea 2961" x1="164.178" y2="43.007" transform="translate(-26.521 -2.106)" fill="none" stroke="#624b7e" stroke-miterlimit="10" stroke-width="1.728"/>
          <line id="Línea_2962" data-name="Línea 2962" x1="164.18" y2="43.008" transform="translate(-23.921 7.872)" fill="none" stroke="#624b7e" stroke-miterlimit="10" stroke-width="1.728"/>
          <line id="Línea_2963" data-name="Línea 2963" x1="164.178" y2="43.008" transform="translate(-21.321 17.849)" fill="none" stroke="#624b7e" stroke-miterlimit="10" stroke-width="1.728"/>
          <line id="Línea_2964" data-name="Línea 2964" x1="164.178" y2="43.009" transform="translate(-18.723 27.826)" fill="none" stroke="#624b7e" stroke-miterlimit="10" stroke-width="1.728"/>
          <line id="Línea_2965" data-name="Línea 2965" x1="164.178" y2="43.006" transform="translate(-16.123 37.804)" fill="none" stroke="#624b7e" stroke-miterlimit="10" stroke-width="1.728"/>
          <line id="Línea_2966" data-name="Línea 2966" x1="164.18" y2="43.007" transform="translate(-13.523 47.781)" fill="none" stroke="#624b7e" stroke-miterlimit="10" stroke-width="1.728"/>
          <line id="Línea_2967" data-name="Línea 2967" x1="164.178" y2="43.007" transform="translate(-10.924 57.758)" fill="none" stroke="#624b7e" stroke-miterlimit="10" stroke-width="1.728"/>
          <line id="Línea_2968" data-name="Línea 2968" x1="164.177" y2="43.007" transform="translate(-8.325 67.736)" fill="none" stroke="#624b7e" stroke-miterlimit="10" stroke-width="1.728"/>
          <line id="Línea_2969" data-name="Línea 2969" x1="164.177" y2="43.006" transform="translate(-5.724 77.715)" fill="none" stroke="#624b7e" stroke-miterlimit="10" stroke-width="1.728"/>
          <line id="Línea_2970" data-name="Línea 2970" x1="164.178" y2="43.006" transform="translate(-3.125 87.692)" fill="none" stroke="#624b7e" stroke-miterlimit="10" stroke-width="1.728"/>
          <line id="Línea_2971" data-name="Línea 2971" x1="164.18" y2="43.008" transform="translate(-0.5 97.772)" fill="none" stroke="#624b7e" stroke-miterlimit="10" stroke-width="1.728"/>
          <line id="Línea_2972" data-name="Línea 2972" x1="164.178" y2="43.006" transform="translate(2.025 107.462)" fill="none" stroke="#624b7e" stroke-miterlimit="10" stroke-width="1.728"/>
        </g>
      </g>
      <g id="Grupo_1073705" data-name="Grupo 1073705" transform="translate(11.302 11.3)">
        <path id="Trazado_608385" data-name="Trazado 608385" d="M58.354,0A58.354,58.354,0,1,1,0,58.354,58.354,58.354,0,0,1,58.354,0Z" fill="#fff"/>
      </g>
      <g id="Grupo_1073706" data-name="Grupo 1073706" transform="translate(113.11 45.427)">
        <path id="Trazado_611008" data-name="Trazado 611008" d="M9.007,26.64,23.763,11.516,0,5.99Z" transform="translate(0 -4.687)" fill="#474747"/>
        <path id="Trazado_611009" data-name="Trazado 611009" d="M16.158,19.415,31.992,4.484,7.771,0Z" transform="translate(-6.082 0)" fill="#79cbbf"/>
      </g>
      <g id="Grupo_1073707" data-name="Grupo 1073707" transform="translate(0 101.98)">
        <path id="Trazado_610799" data-name="Trazado 610799" d="M0,2.961,6.668,14.811,15.812,7.6,21.52,17.747l9.148-7.213,5.72,10.15,10.683-8.418L45,9.641l-7.62,6L31.663,5.494l-9.145,7.211L16.809,2.557,7.665,9.77,2.912,1.323Z" transform="translate(0 -0.881)" fill="#474747"/>
        <path id="Trazado_610800" data-name="Trazado 610800" d="M13.3,0,10.387,1.638l6.667,11.851L26.2,6.276l5.708,10.149,9.148-7.214,5.719,10.15,10.684-8.418L55.389,8.319l-7.62,6L42.05,4.172,32.9,11.383,27.2,1.235,18.051,8.448Z" transform="translate(-6.917 0)" fill="#fff4a9"/>
      </g>
      <path id="Trazado_611010" data-name="Trazado 611010" d="M21.817,10.674,5.225,2.789l-.38,10.135Z" transform="translate(7.335 16.244)" fill="none" stroke="#fd3cae" stroke-miterlimit="10" stroke-width="2"/>
    </g>
    <g id="Grupo_1101353" data-name="Grupo 1101353" transform="translate(369.664 6426.728)">
      <g id="Grupo_1074730" data-name="Grupo 1074730" clip-path="url(#clip-path-2)">
        <path id="Trazado_612643" data-name="Trazado 612643" d="M25.648,171.872c1.352,4.612-2.739,9.87-9.139,11.743s-12.682-.341-14.032-4.951,2.739-9.868,9.139-11.744,12.681.341,14.033,4.952" transform="translate(-1.561 -116.996)" fill="#00b1f1"/>
        <path id="Trazado_612644" data-name="Trazado 612644" d="M10.4,183.4a13.781,13.781,0,0,1-4.577-.749,8.29,8.29,0,0,1-5.533-5.342,8.289,8.289,0,0,1,1.774-7.484A15.329,15.329,0,0,1,9.87,164.75c6.734-1.974,13.395.447,14.845,5.4h0a8.3,8.3,0,0,1-1.774,7.485,15.316,15.316,0,0,1-7.809,5.07,16.873,16.873,0,0,1-4.734.7m4.209-18.033a15.575,15.575,0,0,0-4.368.641,14.018,14.018,0,0,0-7.144,4.621,7.022,7.022,0,0,0-1.551,6.311,7.022,7.022,0,0,0,4.712,4.475,14,14,0,0,0,8.508.031,14,14,0,0,0,7.144-4.617,7.027,7.027,0,0,0,1.551-6.313c-.941-3.21-4.545-5.15-8.852-5.15" transform="translate(0 -115.455)" fill="#482080"/>
        <path id="Trazado_612645" data-name="Trazado 612645" d="M82.174,58.408V2.212s1,2.717,5.022,3.639c5.327,1.222,14.648,4.55,14.648,13.474" transform="translate(-57.828 -1.557)" fill="#fff"/>
        <path id="Trazado_612646" data-name="Trazado 612646" d="M80.619,57.506a.655.655,0,0,1-.655-.655V.655A.655.655,0,0,1,81.233.429c.036.093.959,2.4,4.554,3.226,5.661,1.3,15.157,4.859,15.157,14.113a.655.655,0,0,1-1.31,0c0-8.346-8.859-11.625-14.14-12.836a8.5,8.5,0,0,1-4.221-2.219V56.851a.655.655,0,0,1-.655.655" transform="translate(-56.273 0)" fill="#482080"/>
      </g>
    </g>
  </g>
</svg>
