<svg xmlns="http://www.w3.org/2000/svg" xmlns:xlink="http://www.w3.org/1999/xlink" width="120" height="120" viewBox="0 0 120 120">
  <defs>
    <clipPath id="clip-path">
      <path id="Trazado_610742" data-name="Trazado 610742" d="M130,61.713a59.921,59.921,0,1,0,15.2-1.962A59.99,59.99,0,0,0,130,61.713" transform="translate(-85.163 -59.751)" fill="none" stroke="#624b7e" stroke-width="1"/>
    </clipPath>
  </defs>
  <g id="Grupo_1101587" data-name="Grupo 1101587" transform="translate(3375 7549)">
    <g id="Grupo_1073779" data-name="Grupo 1073779" transform="translate(-3375 -7549)">
      <g id="Grupo_1073765" data-name="Grupo 1073765" transform="translate(0)">
        <g id="Grupo_1073704" data-name="Grupo 1073704">
          <g id="Grupo_1073463" data-name="Grupo 1073463" clip-path="url(#clip-path)">
            <line id="Línea_2945" data-name="Línea 2945" x1="141.717" y2="37.022" transform="translate(-26.188 -14.426)" fill="none" stroke="#624b7e" stroke-miterlimit="10" stroke-width="1.728"/>
            <line id="Línea_2946" data-name="Línea 2946" x1="141.716" y2="37.022" transform="translate(-23.944 -5.837)" fill="none" stroke="#624b7e" stroke-miterlimit="10" stroke-width="1.728"/>
            <line id="Línea_2947" data-name="Línea 2947" x1="141.716" y2="37.023" transform="translate(-21.7 2.751)" fill="none" stroke="#624b7e" stroke-miterlimit="10" stroke-width="1.728"/>
            <line id="Línea_2948" data-name="Línea 2948" x1="141.718" y2="37.023" transform="translate(-19.455 11.34)" fill="none" stroke="#624b7e" stroke-miterlimit="10" stroke-width="1.728"/>
            <line id="Línea_2949" data-name="Línea 2949" x1="141.716" y2="37.024" transform="translate(-17.211 19.929)" fill="none" stroke="#624b7e" stroke-miterlimit="10" stroke-width="1.728"/>
            <line id="Línea_2950" data-name="Línea 2950" x1="141.716" y2="37.023" transform="translate(-14.969 28.518)" fill="none" stroke="#624b7e" stroke-miterlimit="10" stroke-width="1.728"/>
            <line id="Línea_2951" data-name="Línea 2951" x1="141.717" y2="37.022" transform="translate(-12.724 37.108)" fill="none" stroke="#624b7e" stroke-miterlimit="10" stroke-width="1.728"/>
            <line id="Línea_2952" data-name="Línea 2952" x1="141.718" y2="37.022" transform="translate(-10.48 45.697)" fill="none" stroke="#624b7e" stroke-miterlimit="10" stroke-width="1.728"/>
            <line id="Línea_2953" data-name="Línea 2953" x1="141.716" y2="37.023" transform="translate(-8.237 54.285)" fill="none" stroke="#624b7e" stroke-miterlimit="10" stroke-width="1.728"/>
            <line id="Línea_2954" data-name="Línea 2954" x1="141.715" y2="37.023" transform="translate(-5.993 62.874)" fill="none" stroke="#624b7e" stroke-miterlimit="10" stroke-width="1.728"/>
            <line id="Línea_2955" data-name="Línea 2955" x1="141.716" y2="37.022" transform="translate(-3.749 71.464)" fill="none" stroke="#624b7e" stroke-miterlimit="10" stroke-width="1.728"/>
            <line id="Línea_2956" data-name="Línea 2956" x1="141.716" y2="37.022" transform="translate(-1.505 80.054)" fill="none" stroke="#624b7e" stroke-miterlimit="10" stroke-width="1.728"/>
            <line id="Línea_2957" data-name="Línea 2957" x1="141.718" y2="37.024" transform="translate(0.761 88.73)" fill="none" stroke="#624b7e" stroke-miterlimit="10" stroke-width="1.728"/>
            <line id="Línea_2958" data-name="Línea 2958" x1="141.717" y2="37.022" transform="translate(2.94 97.072)" fill="none" stroke="#624b7e" stroke-miterlimit="10" stroke-width="1.728"/>
            <line id="Línea_2959" data-name="Línea 2959" x1="141.717" y2="37.022" transform="translate(-27.38 -18.99)" fill="none" stroke="#624b7e" stroke-miterlimit="10" stroke-width="1.728"/>
            <line id="Línea_2960" data-name="Línea 2960" x1="141.716" y2="37.022" transform="translate(-25.136 -10.401)" fill="none" stroke="#624b7e" stroke-miterlimit="10" stroke-width="1.728"/>
            <line id="Línea_2961" data-name="Línea 2961" x1="141.716" y2="37.023" transform="translate(-22.892 -1.813)" fill="none" stroke="#624b7e" stroke-miterlimit="10" stroke-width="1.728"/>
            <line id="Línea_2962" data-name="Línea 2962" x1="141.718" y2="37.023" transform="translate(-20.648 6.776)" fill="none" stroke="#624b7e" stroke-miterlimit="10" stroke-width="1.728"/>
            <line id="Línea_2963" data-name="Línea 2963" x1="141.716" y2="37.023" transform="translate(-18.404 15.365)" fill="none" stroke="#624b7e" stroke-miterlimit="10" stroke-width="1.728"/>
            <line id="Línea_2964" data-name="Línea 2964" x1="141.716" y2="37.024" transform="translate(-16.162 23.954)" fill="none" stroke="#624b7e" stroke-miterlimit="10" stroke-width="1.728"/>
            <line id="Línea_2965" data-name="Línea 2965" x1="141.716" y2="37.021" transform="translate(-13.917 32.544)" fill="none" stroke="#624b7e" stroke-miterlimit="10" stroke-width="1.728"/>
            <line id="Línea_2966" data-name="Línea 2966" x1="141.718" y2="37.022" transform="translate(-11.673 41.132)" fill="none" stroke="#624b7e" stroke-miterlimit="10" stroke-width="1.728"/>
            <line id="Línea_2967" data-name="Línea 2967" x1="141.716" y2="37.022" transform="translate(-9.429 49.721)" fill="none" stroke="#624b7e" stroke-miterlimit="10" stroke-width="1.728"/>
            <line id="Línea_2968" data-name="Línea 2968" x1="141.715" y2="37.022" transform="translate(-7.186 58.31)" fill="none" stroke="#624b7e" stroke-miterlimit="10" stroke-width="1.728"/>
            <line id="Línea_2969" data-name="Línea 2969" x1="141.715" y2="37.022" transform="translate(-4.941 66.9)" fill="none" stroke="#624b7e" stroke-miterlimit="10" stroke-width="1.728"/>
            <line id="Línea_2970" data-name="Línea 2970" x1="141.716" y2="37.022" transform="translate(-2.698 75.489)" fill="none" stroke="#624b7e" stroke-miterlimit="10" stroke-width="1.728"/>
            <line id="Línea_2971" data-name="Línea 2971" x1="141.717" y2="37.023" transform="translate(-0.432 84.166)" fill="none" stroke="#624b7e" stroke-miterlimit="10" stroke-width="1.728"/>
            <line id="Línea_2972" data-name="Línea 2972" x1="141.716" y2="37.021" transform="translate(1.748 92.508)" fill="none" stroke="#624b7e" stroke-miterlimit="10" stroke-width="1.728"/>
          </g>
        </g>
        <g id="Grupo_1073705" data-name="Grupo 1073705" transform="translate(9.797 9.795)">
          <path id="Trazado_608385" data-name="Trazado 608385" d="M50.33,0A50.166,50.166,0,1,1,0,50.166,50.248,50.248,0,0,1,50.33,0Z" transform="translate(0 0)" fill="#fff"/>
        </g>
        <g id="Grupo_1073706" data-name="Grupo 1073706" transform="translate(97.541 39.055)">
          <path id="Trazado_611008" data-name="Trazado 611008" d="M7.807,23.89,20.6,10.78,0,5.99Z" transform="translate(0 -4.861)" fill="#474747"/>
          <path id="Trazado_611009" data-name="Trazado 611009" d="M15.041,16.829,28.765,3.886,7.771,0Z" transform="translate(-6.307 0)" fill="#79cbbf"/>
        </g>
        <g id="Grupo_1073707" data-name="Grupo 1073707" transform="translate(0 87.567)">
          <path id="Trazado_610799" data-name="Trazado 610799" d="M0,2.743,5.78,13.015l7.926-6.252,4.948,8.8,7.929-6.253,4.958,8.8,9.26-7.3L39.008,8.533l-6.6,5.2-4.958-8.8-7.927,6.251-4.948-8.8L6.644,8.645,2.524,1.323Z" transform="translate(0 -0.94)" fill="#474747"/>
          <path id="Trazado_610800" data-name="Trazado 610800" d="M12.91,0,10.387,1.42l5.779,10.272L24.092,5.44l4.947,8.8,7.93-6.253,4.957,8.8,9.26-7.3L49.394,7.211l-6.6,5.2-4.958-8.8L29.9,9.867l-4.948-8.8L17.03,7.323Z" transform="translate(-7.379 0)" fill="#fff4a9"/>
        </g>
        <path id="Trazado_611010" data-name="Trazado 611010" d="M19.556,9.623,5.175,2.789l-.329,8.785Z" transform="translate(5.712 13.709)" fill="none" stroke="#fd3cae" stroke-miterlimit="10" stroke-width="2"/>
      </g>
      <g id="Grupo_1101354" data-name="Grupo 1101354" transform="translate(25.847 22.532)">
        <path id="Trazado_634005" data-name="Trazado 634005" d="M102.493,46.1a49.65,49.65,0,0,0-2.128-8.429,20.95,20.95,0,0,1-.477-2.6c-.142-.924-.284-1.884-.452-2.732a63.238,63.238,0,0,1-1.016-7.419c0-.137.036-.508.076-.884.218-1.985.665-6.093-.65-9.648a14.583,14.583,0,0,0-7.109-8.17c-.914-.457-3.113-1.366-5.438-2.331s-5.423-2.239-6-2.585l-.95-.965a1.016,1.016,0,0,0-1.437,1.432l1.016,1.016c.361.366,1.417.843,6.637,3,2.189.909,4.458,1.843,5.306,2.27a12.578,12.578,0,0,1,6.093,7.063c1.148,3.047.736,6.865.538,8.7-.056.508-.091.853-.091,1.1A64.119,64.119,0,0,0,97.43,32.73c.162.8.3,1.737.437,2.635a13.309,13.309,0,0,0,.67,3.2,52.839,52.839,0,0,1,1.935,7.815c.508,3.427,0,17.452,0,17.594a1.016,1.016,0,0,0,.975,1.051h.041a1.016,1.016,0,0,0,1.016-.98C102.523,63.466,103.006,49.7,102.493,46.1Z" transform="translate(-37.732 -0.03)" fill="#12263f"/>
        <path id="Trazado_634006" data-name="Trazado 634006" d="M103.182,76.278c-.122-.843-.269-1.828-.427-2.864a86.243,86.243,0,0,1-1.087-8.673c0-1.249-1.076-4.814-2.595-9.719-.67-2.153-1.427-4.57-1.467-5.007a1.016,1.016,0,0,0-2.031,0A28.187,28.187,0,0,0,96.9,54.87C95.291,58.648,94.56,66.264,94.56,68.3c0,.589.107,1.488.229,2.539a30.415,30.415,0,0,1,.279,3.047c0,4.306.066,8.5.559,9.968a40.364,40.364,0,0,1,.975,4.418,1.016,1.016,0,0,0,1.016.848.936.936,0,0,0,.168,0,1.016,1.016,0,0,0,.838-1.168,41.3,41.3,0,0,0-1.056-4.722c-.452-1.366-.452-7.15-.452-9.328a31.481,31.481,0,0,0-.3-3.306c-.112-.9-.218-1.828-.218-2.3a54.074,54.074,0,0,1,1.351-10.049,45.71,45.71,0,0,1,1.7,6.494c0,1.63.589,5.53,1.107,8.978.157,1.016.3,2.006.427,2.844.508,3.554,2.473,11.45,2.539,11.786a1.016,1.016,0,0,0,.985.767,1.042,1.042,0,0,0,.249-.03,1.016,1.016,0,0,0,.741-1.234c-.01-.076-2.016-8.114-2.508-11.572Z" transform="translate(-46.546 -24.115)" fill="#12263f"/>
        <path id="Trazado_634007" data-name="Trazado 634007" d="M25.827,1.727A1.02,1.02,0,0,0,24.374.3l-.965.965c-.559.345-3.712,1.65-6.027,2.6S12.858,5.739,11.944,6.2a14.583,14.583,0,0,0-7.109,8.17c-1.28,3.509-.843,7.642-.625,9.627.041.381.076.746.076.884A63.239,63.239,0,0,1,3.271,32.3c-.168.848-.31,1.808-.452,2.732a21.88,21.88,0,0,1-.472,2.6A51.934,51.934,0,0,0,.235,46.062c-.508,3.6-.03,17.366,0,17.95a1.016,1.016,0,0,0,1.016.98h.041a1.016,1.016,0,0,0,.975-1.051c0-.142-.508-14.167,0-17.594A52.824,52.824,0,0,1,4.2,38.531a13.374,13.374,0,0,0,.67-3.2c.132-.9.274-1.833.437-2.635a64.118,64.118,0,0,0,1.016-7.815c0-.249-.036-.589-.091-1.1-.2-1.833-.609-5.636.538-8.7a12.578,12.578,0,0,1,6.093-7.063c.848-.4,3.123-1.361,5.311-2.27,5.22-2.158,6.276-2.635,6.637-3Z" transform="translate(-0.002 0.008)" fill="#12263f"/>
        <path id="Trazado_634008" data-name="Trazado 634008" d="M21.581,50.016a1.016,1.016,0,0,0-2.031,0c-.046.452-.8,2.894-1.473,5.047-1.523,4.905-2.595,8.47-2.595,9.719,0,1.478-.6,5.464-1.087,8.673-.157,1.016-.3,2.031-.427,2.864-.508,3.458-2.5,11.5-2.539,11.572a1.016,1.016,0,0,0,.787,1.193,1.04,1.04,0,0,0,.249.03,1.016,1.016,0,0,0,.985-.767c.081-.335,2.031-8.221,2.539-11.786.122-.838.269-1.813.427-2.844.508-3.448,1.107-7.348,1.107-8.978a45.709,45.709,0,0,1,1.7-6.494A54.073,54.073,0,0,1,20.566,68.3c0,.467-.107,1.4-.218,2.3a31.482,31.482,0,0,0-.289,3.29c0,2.178,0,7.962-.452,9.328a41.3,41.3,0,0,0-1.056,4.722,1.016,1.016,0,0,0,.838,1.168.934.934,0,0,0,.168,0,1.016,1.016,0,0,0,1.016-.848,40.363,40.363,0,0,1,.975-4.418c.508-1.473.559-5.662.559-9.968a30.415,30.415,0,0,1,.269-3.031c.122-1.046.228-1.945.228-2.539,0-2.031-.706-9.648-2.341-13.426a28.422,28.422,0,0,0,1.32-4.854Z" transform="translate(-5.618 -24.115)" fill="#12263f"/>
        <path id="Trazado_634009" data-name="Trazado 634009" d="M78.581,20.121a1.016,1.016,0,0,0,0,1.437,10.663,10.663,0,0,1,0,15.076,1.014,1.014,0,1,0,1.437,1.432,12.694,12.694,0,0,0,0-17.945,1.016,1.016,0,0,0-1.437,0Z" transform="translate(-38.534 -9.753)" fill="#12263f"/>
        <path id="Trazado_634010" data-name="Trazado 634010" d="M44.189,21.583a1.016,1.016,0,0,0-1.432-1.437,12.694,12.694,0,0,0,0,17.95,1.016,1.016,0,0,0,1.437-1.437,10.663,10.663,0,0,1-.005-15.076Z" transform="translate(-19.218 -9.783)" fill="#12263f"/>
        <path id="Trazado_634011" data-name="Trazado 634011" d="M73.668,34.478a8.348,8.348,0,0,0-3.742-11.171,1.017,1.017,0,0,0-.9,1.823,6.317,6.317,0,0,1,2.828,8.455,1.013,1.013,0,0,0,1.818.894Z" transform="translate(-33.697 -11.416)" fill="#12263f"/>
        <path id="Trazado_634012" data-name="Trazado 634012" d="M53.132,39.569a6.312,6.312,0,0,1-2.823-8.454,1.016,1.016,0,0,0-1.818-.909,8.333,8.333,0,0,0,3.737,11.171,1.015,1.015,0,0,0,.9-1.818Z" transform="translate(-23.438 -14.587)" fill="#12263f"/>
        <path id="Trazado_634013" data-name="Trazado 634013" d="M61.9,30.505a4.063,4.063,0,0,0-3.626,7.271,4.016,4.016,0,0,0,1.8.427,4.062,4.062,0,0,0,3.859-5.352A4.006,4.006,0,0,0,61.9,30.505Zm0,4.54a.989.989,0,1,0-.01,0Z" transform="translate(-27.579 -14.801)" fill="#12263f"/>
      </g>
    </g>
  </g>
</svg>
