<svg id="Grupo_1093882" data-name="Grupo 1093882" xmlns="http://www.w3.org/2000/svg" xmlns:xlink="http://www.w3.org/1999/xlink" width="116.417" height="137.8" viewBox="0 0 116.417 137.8">
  <defs>
    <clipPath id="clip-path">
      <rect id="Rectángulo_391714" data-name="Rectángulo 391714" width="116.417" height="137.8" fill="none"/>
    </clipPath>
  </defs>
  <g id="Grupo_1093879" data-name="Grupo 1093879" clip-path="url(#clip-path)">
    <path id="Trazado_627885" data-name="Trazado 627885" d="M1.809,9.385c5.464-7.3,45.971-.042,83.284,44.161l4.923-6.917C52.7,2.427,12.195-4.836,6.732,2.468Z" fill="#8b64b9"/>
    <path id="Trazado_627886" data-name="Trazado 627886" d="M99.477,104.419s3.5,2.928,6.241,2.572c4.388-.57,15.316-14.3,8.536-29.593C109.382,66.409,95.148,50.48,91.59,46.589a1.041,1.041,0,0,0-1.573.04c-1.2,1.456-4.795,5.124-5.9,6.394a1.036,1.036,0,0,0-.008,1.36c2.445,2.85,11.548,13.71,14.45,20.632Z" fill="#333132"/>
    <path id="Trazado_627887" data-name="Trazado 627887" d="M81.375,85.74c-3.118,11.393,1.354,22.393,9.452,24.427s16.266-1.418,19.874-17.06c3.8-16.489-1.354-22.393-9.452-24.427S85.82,69.5,81.375,85.74" fill="#c07cd9"/>
    <path id="Trazado_627888" data-name="Trazado 627888" d="M85.815,74.945a23.769,23.769,0,0,1,5.733,10.08c2,8.4-.96,17.1-6.072,22.034-3.653-3.688-6.612-12.142-4.1-21.319a39.815,39.815,0,0,1,4.44-10.795" fill="#333132"/>
    <path id="Trazado_627889" data-name="Trazado 627889" d="M41.967,99.148a25.007,25.007,0,1,0,17.2-30.9,25.007,25.007,0,0,0-17.2,30.9" fill="#c07cd9"/>
    <path id="Trazado_627890" data-name="Trazado 627890" d="M46.259,73.148C32.893,62.165,20.906,50.309,17.539,46.927a1.579,1.579,0,0,1-.168-2.031l4.923-6.917a1.577,1.577,0,0,1,2.472-.129C44.9,61.014,77.23,81,77.23,81l0,0a18.8,18.8,0,1,1-26.971,8.9,14.387,14.387,0,0,0-4-16.755" fill="#333132"/>
    <path id="Trazado_627891" data-name="Trazado 627891" d="M1.809,9.385C-6.664,21.258,17.37,44.9,17.37,44.9l4.923-6.917S-1.741,14.342,6.732,2.468Z" fill="#8b64b9"/>
    <path id="Trazado_627892" data-name="Trazado 627892" d="M71.5,101.766c8.411,15.545-5.614,29.867-19.756,33.936-13.891,4-32.566.37-41.148-11.788-12.7-17.99,3.989-34.9,8.957-40.371,5.921-6.516,8-13.779,5.972-19.592C22.752,55.992,13.368,51.1,5.463,57.733c-5.011,4.207-4.73,12.693,0,16.224" fill="none" stroke="#333132" stroke-linecap="round" stroke-linejoin="round" stroke-width="1.085"/>
    <path id="Trazado_627893" data-name="Trazado 627893" d="M12.258,81.017h0a1.8,1.8,0,0,1-2.546,0L3.495,74.8a1.8,1.8,0,0,1,2.546-2.546l6.217,6.217a1.8,1.8,0,0,1,0,2.546" fill="#333132"/>
    <path id="Trazado_627894" data-name="Trazado 627894" d="M15.978,84.538h0a1,1,0,0,1-1.415,0l-3.456-3.455a1,1,0,1,1,1.416-1.416l3.455,3.456a1,1,0,0,1,0,1.415" fill="#c07cd9"/>
  </g>
</svg>
