<svg xmlns="http://www.w3.org/2000/svg" xmlns:xlink="http://www.w3.org/1999/xlink" width="69" height="69" viewBox="0 0 69 69">
  <defs>
    <clipPath id="clip-path">
      <rect id="Rect치ngulo_396455" data-name="Rect치ngulo 396455" width="66.93" height="50.02" fill="none"/>
    </clipPath>
    <clipPath id="clip-path-3">
      <rect id="Rect치ngulo_396453" data-name="Rect치ngulo 396453" width="59.694" height="50.02" fill="none"/>
    </clipPath>
  </defs>
  <g id="Grupo_1101663" data-name="Grupo 1101663" transform="translate(-196 -3911)">
    <circle id="Elipse_5842" data-name="Elipse 5842" cx="34.5" cy="34.5" r="34.5" transform="translate(196 3911)" fill="#624b7e"/>
    <g id="Grupo_1101661" data-name="Grupo 1101661" transform="translate(198.07 3917.6)">
      <g id="Grupo_1101660" data-name="Grupo 1101660" clip-path="url(#clip-path)">
        <path id="Trazado_634636" data-name="Trazado 634636" d="M66.4,35.642l-2.362.531-1.6.359-6.231,1.4-2.962.669-6.16,1.383-2.967.669-14.677,3.3-2.961.664v.005L20.314,46.01l-2.967.669-6.231,1.4-3.966.891-.733-3.248-.728-3.247,6.977-1.57,45.3-10.191,4.436-1,2.54-.571.733,3.247Z" transform="translate(-3.811 -19.527)" fill="#edc638"/>
        <g id="Grupo_1101659" data-name="Grupo 1101659">
          <g id="Grupo_1101658" data-name="Grupo 1101658" clip-path="url(#clip-path)">
            <path id="Trazado_634637" data-name="Trazado 634637" d="M59.664,3.124,56.211,3.9,47.868,5.776,11.105,14.048.416,16.455.047,14.822A1.911,1.911,0,0,1,1.488,12.54L55.256.44,57.018.046a1.909,1.909,0,0,1,2.277,1.446Z" transform="translate(0 0)" fill="#70aec2"/>
            <path id="Trazado_634638" data-name="Trazado 634638" d="M61.97,15.963l-2.54.571-4.436,1L9.7,27.723l-6.977,1.57-.733-3.248L1.261,22.8,11.95,20.391l36.762-8.272,8.343-1.874,3.453-.777.733,3.248Z" transform="translate(-0.845 -6.343)" fill="#70aec2"/>
            <path id="Trazado_634639" data-name="Trazado 634639" d="M78.1,87.688,76,78.345l-3.394.763L16.75,91.675l1.707,7.592.394,1.751a1.911,1.911,0,0,0,2.283,1.441L76.658,89.965A1.908,1.908,0,0,0,78.1,87.688M29.467,100.558l1.6-4.054,2.693-6.855L59.765,83.8l4.948,4.643,3.6,3.378Z" transform="translate(-11.221 -52.486)" fill="#edc638"/>
            <path id="Trazado_634640" data-name="Trazado 634640" d="M74.526,71.753l-3.394.762L15.272,85.083l-.728-3.247,6.971-1.57,45.3-10.191,4.1-.925,2.875-.644Z" transform="translate(-9.744 -45.894)" fill="#70aec2"/>
            <path id="Trazado_634641" data-name="Trazado 634641" d="M70.826,55.322l-2.875.644-4.1.925-45.3,10.191-6.971,1.57L10.845,65.4l-.728-3.248,3.966-.89,6.231-1.4,2.967-.669,6.16-1.382v-.005l2.961-.664,14.677-3.3,2.967-.669,6.16-1.382,2.961-.669,6.231-1.4,1.6-.359,2.362-.531.733,3.247Z" transform="translate(-6.777 -32.711)" fill="#70aec2"/>
            <path id="Trazado_634642" data-name="Trazado 634642" d="M85.574,94.859l-26.011,5.852-4.291,10.912,38.852-8.741Z" transform="translate(-37.029 -63.549)" fill="#fff"/>
            <path id="Trazado_634643" data-name="Trazado 634643" d="M33.787,22.022,69.1,14.076a.74.74,0,0,1,.885.56l.477,2.121a.741.741,0,0,1-.56.885L34.589,25.587a.74.74,0,0,1-.885-.56l-.477-2.121a.74.74,0,0,1,.56-.885" transform="translate(-22.248 -9.418)" fill="#fff"/>
            <path id="Trazado_634644" data-name="Trazado 634644" d="M32.132,55.844l34.275-7.712a8.733,8.733,0,0,0-3.834-17.04L28.3,38.8a8.733,8.733,0,1,0,3.834,17.04" transform="translate(-14.39 -20.686)" fill="#787bcc"/>
            <path id="Trazado_634645" data-name="Trazado 634645" d="M121.8,48.686a6.194,6.194,0,1,1,7.4,4.684,6.194,6.194,0,0,1-7.4-4.684" transform="translate(-81.493 -27.555)" fill="#84caca"/>
            <path id="Trazado_634646" data-name="Trazado 634646" d="M130.942,54.176a2.96,2.96,0,0,1-.046-1.042,2.921,2.921,0,0,1,.35-1.144,3.014,3.014,0,0,1,1.508-1.392,3.047,3.047,0,0,1,.576-.2,2.9,2.9,0,0,1,.589-.079,3.177,3.177,0,0,1,1.975.621,2.928,2.928,0,0,1,.806.885,2.954,2.954,0,0,1,.451,2,2.928,2.928,0,0,1-.35,1.144,3.087,3.087,0,0,1-1.521,1.395,2.225,2.225,0,0,1-.564.194,3.055,3.055,0,0,1-.6.069,3.014,3.014,0,0,1-1.959-.612,2.923,2.923,0,0,1-.806-.885,2.958,2.958,0,0,1-.405-.961" transform="translate(-87.675 -33.713)" fill="#7679c8"/>
            <path id="Trazado_634647" data-name="Trazado 634647" d="M140.235,66.878l-.225-1,1.169-.263.225,1a2.224,2.224,0,0,1-.564.194,3.056,3.056,0,0,1-.605.069" transform="translate(-93.798 -43.957)" fill="#fff"/>
            <path id="Trazado_634648" data-name="Trazado 634648" d="M145.855,61.177l.35-1.144.986.3a2.923,2.923,0,0,1-.35,1.144Z" transform="translate(-97.714 -40.218)" fill="#fff"/>
            <path id="Trazado_634649" data-name="Trazado 634649" d="M143.789,52.9l.76-.7a2.924,2.924,0,0,1,.806.885l-.76.7Z" transform="translate(-96.33 -34.975)" fill="#fff"/>
            <path id="Trazado_634650" data-name="Trazado 634650" d="M136.8,51.6l-.225-1a3,3,0,0,1,.576-.2,2.907,2.907,0,0,1,.59-.079l.228,1.014Z" transform="translate(-91.499 -33.714)" fill="#fff"/>
            <path id="Trazado_634651" data-name="Trazado 634651" d="M130.95,56.52a2.926,2.926,0,0,1,.35-1.144l.986.3-.362,1.148Z" transform="translate(-87.728 -37.098)" fill="#fff"/>
            <path id="Trazado_634652" data-name="Trazado 634652" d="M132.316,63.5l.748-.694.819.882-.76.7a2.926,2.926,0,0,1-.806-.885" transform="translate(-88.643 -42.077)" fill="#fff"/>
            <path id="Trazado_634653" data-name="Trazado 634653" d="M40.7,66.931a6.194,6.194,0,1,1,7.4,4.683,6.194,6.194,0,0,1-7.4-4.683" transform="translate(-27.166 -39.778)" fill="#84caca"/>
            <path id="Trazado_634654" data-name="Trazado 634654" d="M49.849,72.421a3.309,3.309,0,0,1,.3-2.187,3.014,3.014,0,0,1,1.508-1.392,3.058,3.058,0,0,1,.577-.2,2.928,2.928,0,0,1,.589-.079,3.178,3.178,0,0,1,1.975.622,3.309,3.309,0,0,1,1.211,1.846,2.962,2.962,0,0,1,.046,1.042,2.922,2.922,0,0,1-.35,1.144,3.086,3.086,0,0,1-1.521,1.395,2.206,2.206,0,0,1-.563.194,3.061,3.061,0,0,1-.605.069,3.015,3.015,0,0,1-1.959-.612,3.311,3.311,0,0,1-1.211-1.846" transform="translate(-33.347 -45.935)" fill="#7679c8"/>
            <path id="Trazado_634655" data-name="Trazado 634655" d="M59.141,85.123l-.225-1,1.169-.263.225,1a2.213,2.213,0,0,1-.563.194,3.035,3.035,0,0,1-.605.068" transform="translate(-39.47 -56.18)" fill="#fff"/>
            <path id="Trazado_634656" data-name="Trazado 634656" d="M64.762,79.423l.35-1.144.986.3a2.922,2.922,0,0,1-.35,1.144Z" transform="translate(-43.387 -52.442)" fill="#fff"/>
            <path id="Trazado_634657" data-name="Trazado 634657" d="M62.7,71.148l.76-.7a2.928,2.928,0,0,1,.806.885l-.761.7Z" transform="translate(-42.002 -47.198)" fill="#fff"/>
            <path id="Trazado_634658" data-name="Trazado 634658" d="M55.71,69.845l-.225-1a3.056,3.056,0,0,1,.576-.2,2.93,2.93,0,0,1,.589-.079l.228,1.015Z" transform="translate(-37.171 -45.936)" fill="#fff"/>
            <path id="Trazado_634659" data-name="Trazado 634659" d="M49.857,74.765a2.924,2.924,0,0,1,.35-1.145l.986.3-.362,1.147Z" transform="translate(-33.401 -49.321)" fill="#fff"/>
            <path id="Trazado_634660" data-name="Trazado 634660" d="M51.222,81.747l.748-.694.819.882-.761.7a2.93,2.93,0,0,1-.806-.885" transform="translate(-34.316 -54.3)" fill="#fff"/>
            <g id="Grupo_1101657" data-name="Grupo 1101657" transform="translate(7.236)" opacity="0.07">
              <g id="Grupo_1101656" data-name="Grupo 1101656">
                <g id="Grupo_1101655" data-name="Grupo 1101655" clip-path="url(#clip-path-3)">
                  <path id="Trazado_634661" data-name="Trazado 634661" d="M80.124,37.479,24.6,49.973a1.911,1.911,0,0,1-2.282-1.441l-.394-1.751a28.338,28.338,0,0,1,6.706-1.742c1.97-.324,3.94-.66,5.9-1.022a318,318,0,0,0,33.649-8.062c1.023-.307,2.046-.614,3.069-.931a8.094,8.094,0,0,0,2.993-1.4c1.72-1.481,1.913-4.042,1.859-6.313-.006-.231-.012-.457-.023-.689q-.061-1.687-.215-3.366a63.157,63.157,0,0,0-.948-6.609,63.4,63.4,0,0,0-1.64-6.456c-.221-.725-.459-1.44-.708-2.155C72.26,7.174,71.529,5.6,70.9,3.9A18.177,18.177,0,0,1,69.943.441L71.7.047a1.908,1.908,0,0,1,2.277,1.446l.369,1.632.733,3.248.728,3.247.733,3.248.728,3.247.733,3.248.728,3.248.733,3.248,2.1,9.343a1.908,1.908,0,0,1-1.446,2.277" transform="translate(-21.923 0)"/>
                </g>
              </g>
            </g>
          </g>
        </g>
      </g>
    </g>
  </g>
</svg>
