<svg xmlns="http://www.w3.org/2000/svg" xmlns:xlink="http://www.w3.org/1999/xlink" width="820" height="403.786" viewBox="0 0 820 403.786">
  <defs>
    <clipPath id="clip-path">
      <rect id="Rectángulo_391757" data-name="Rectángulo 391757" width="407.747" height="303.555" fill="none"/>
    </clipPath>
    <clipPath id="clip-path-2">
      <rect id="Rectángulo_391737" data-name="Rectángulo 391737" width="448.865" height="21.264" fill="none"/>
    </clipPath>
    <clipPath id="clip-path-3">
      <rect id="Rectángulo_391746" data-name="Rectángulo 391746" width="38.014" height="9.026" fill="none"/>
    </clipPath>
    <clipPath id="clip-path-5">
      <rect id="Rectángulo_391750" data-name="Rectángulo 391750" width="38.013" height="9.026" fill="none"/>
    </clipPath>
    <clipPath id="clip-path-8">
      <rect id="Rectángulo_391756" data-name="Rectángulo 391756" width="448.865" height="9.026" fill="none"/>
    </clipPath>
    <clipPath id="clip-path-9">
      <rect id="Rectángulo_391762" data-name="Rectángulo 391762" width="494.859" height="375.787" transform="translate(0 18)" fill="none"/>
    </clipPath>
    <clipPath id="clip-path-10">
      <rect id="Rectángulo_391759" data-name="Rectángulo 391759" width="155.848" height="270.025" fill="none"/>
    </clipPath>
    <clipPath id="clip-path-11">
      <rect id="Rectángulo_391761" data-name="Rectángulo 391761" width="223.268" height="270.025" fill="none"/>
    </clipPath>
  </defs>
  <g id="Grupo_1101590" data-name="Grupo 1101590" transform="translate(-390 -1367.483)">
    <path id="Trazado_627920" data-name="Trazado 627920" d="M0,0H820V403.785H0Z" transform="translate(390 1367.484)" fill="#1c534a"/>
    <path id="Trazado_611002" data-name="Trazado 611002" d="M810.17-7.167v106.6a221.864,221.864,0,0,0-26.958,76.6H719.835A174.324,174.324,0,0,1,745.4,127.989c6.017-8.011,12.891-15.859,15.556-25.154s-.214-20.665-9.847-25.269c-13.814-6.607-29.815,3.943-41.134,13.5a981.424,981.424,0,0,1-117.309,84.968H437.417c3.132-2.568,6.336-5.069,9.5-7.575A581.643,581.643,0,0,0,536.049,80.9c8.539-10.454,16.9-21.728,18.479-34.5s-5.852-27.277-19.985-30.865C510.487,9.43,493.3,35.423,471.292,45.858c-26.59,12.611-64.839-3.32-70.306-29.274-3.517-16.688,4.671-33.294,9.385-49.752s4.588-36.653-10.693-47.151c-11.863-8.155-29.375-7.345-42.92-1.5S332.74-65.984,322.6-56.214Q252.439,11.356,182.28,78.932c-16.182,15.591-35.068,32.331-59.163,33.131-33.409,1.116-57.558-30.041-60.333-59.09C58.866,11.917,83.137-27.4,113.117-59.252s66.3-59.066,93.665-92.643c11-13.487,20.485-31.967,9.984-45.752-8.6-11.293-27.43-13.435-42.019-8.768s-26.078,14.474-37.579,23.592c-43.288,34.31-93.22,62.214-147,82.275v-53.691C.33-160.05,10.243-166.1,19.9-172c28.254-17.263,55.371-35.925,82.846-54.146H364.132c-5.27,5.821-10.957,11.35-16.534,16.482q-62.46,57.437-124.92,114.879c-8.044,7.4-16.292,15.078-20.347,24.641S199.5-48.553,208.359-41.9c15.539,11.657,38.942-.211,54.5-11.854q76.43-57.171,152.855-114.348c8.907-6.66,18.116-13.482,29.255-16.707s24.8-2.027,32.6,5.62c8.017,7.848,7.627,19.587,6.781,30.075q-4.995,61.951-10,123.9c25.721-10.1,50.9-21.225,76.642-31.287,30.205-11.81,106.243-31.66,76.373,24.843-7.528,14.24-15.71,28.781-16.534,44.443s7.984,32.973,24.99,38.09c18.974,5.711,38.64-5.165,55.652-14.45A437.78,437.78,0,0,1,810.148-7.167Z" transform="translate(399.83 1594.396)" fill="#99e8dc" opacity="0.441"/>
    <g id="Grupo_1093916" data-name="Grupo 1093916" transform="translate(584.209 1399.507)">
      <g id="Grupo_1093915" data-name="Grupo 1093915" clip-path="url(#clip-path)">
        <g id="Grupo_1093896" data-name="Grupo 1093896" transform="translate(-13.654 282.29)" opacity="0.3">
          <g id="Grupo_1093895" data-name="Grupo 1093895">
            <g id="Grupo_1093894" data-name="Grupo 1093894" clip-path="url(#clip-path-2)">
              <rect id="Rectángulo_391736" data-name="Rectángulo 391736" width="448.864" height="21.265" transform="translate(0.001 -0.001)"/>
            </g>
          </g>
        </g>
        <path id="Trazado_627905" data-name="Trazado 627905" d="M72.129,13.707h55.842V38.715c-2.152,0-4.174.082-6.183-.027-1.522-.081-2.064.287-2.067,1.79-.034,16.731-.2,33.461-.227,50.192q-.074,52.737-.045,105.475c0,2.626.076,2.69,2.9,2.682,1.843-.006,3.685,0,5.652,0V313.956H72.179V198.9c2.008-.086,4.017-.18,6.027-.255,3.177-.122,3.4-.309,3.4-3.132q-.123-77.1-.255-154.192c0-.862,0-1.724,0-2.778H72.129Z" transform="translate(-18.42 -26.324)" fill="#fff" fill-rule="evenodd"/>
        <path id="Trazado_627906" data-name="Trazado 627906" d="M257.2,198.826V313.966h-57.66V198.889c2.159-.085,4.345-.171,6.533-.261,2.5-.1,2.886-.454,2.883-2.768q-.049-68.978-.109-137.957c-.007-6.18-.067-12.356-.11-18.536a5.173,5.173,0,0,0-.159-.818h-9.036V13.717h57.574V38.705c-3.78,0-7.416-.021-11.051.008-1.6.013-3.77-.411-4.631.354s-.476,2.758-.479,4.215q-.144,76.687-.253,153.377c0,1.93.27,2.163,2.383,2.165,4.655,0,9.308,0,14.116,0" transform="translate(34.561 -26.319)" fill="#fff" fill-rule="evenodd"/>
        <path id="Trazado_627907" data-name="Trazado 627907" d="M214.516,198.9V313.967h-58.4V13.715h58.361V38.489c-.723.04-1.409.11-2.1.115-7.841.041-15.683.11-23.526.075-1.55-.007-2.036.345-2.039,1.814-.042,20.779-.2,41.556-.236,62.334q-.081,46.672-.037,93.341c0,2.594.078,2.656,2.929,2.655q11.583-.006,23.169,0c.582,0,1.167.044,1.872.074" transform="translate(16.506 -26.32)" fill="#fff" fill-rule="evenodd"/>
        <path id="Trazado_627908" data-name="Trazado 627908" d="M113.74,313.945V198.82c.733,0,1.424,0,2.115,0,7.9-.064,15.8-.1,23.7-.2,2.731-.031,3.06-.392,3.055-2.932q-.123-77.095-.251-154.188c0-.92,0-1.842,0-2.884h-28.5v-24.9h56.826V313.945Z" transform="translate(-1.117 -26.32)" fill="#fff" fill-rule="evenodd"/>
        <path id="Trazado_627909" data-name="Trazado 627909" d="M86.463,13.756V38.591c-.8,0-1.5,0-2.206,0l-22.811.1c-2.544.011-2.6.006-2.612,2.4Q58.681,78,58.572,114.914q-.072,40.6-.027,81.208c0,2.624.078,2.687,2.9,2.684q11.676-.008,23.35,0c.525,0,1.052.041,1.7.069V313.938H30.271V13.756Z" transform="translate(-35.827 -26.303)" fill="#fff" fill-rule="evenodd"/>
        <path id="Trazado_627910" data-name="Trazado 627910" d="M340.965,313.984h-56.2V198.814c.692,0,1.329,0,1.964,0,7.661-.062,15.324-.1,22.983-.2,2.86-.034,3.18-.381,3.176-2.99q-.125-77.095-.255-154.192c0-2.959-.018-2.953-3.363-2.927q-11.133.085-22.267.161c-.653.006-1.307,0-2.163,0V13.732h56.121Z" transform="translate(70.004 -26.313)" fill="#fff" fill-rule="evenodd"/>
        <path id="Trazado_627911" data-name="Trazado 627911" d="M299.3,313.981H242.4V198.815c.692,0,1.331.007,1.968,0,5.326-.061,10.653-.1,15.978-.2,2.615-.045,2.995-.438,2.993-2.825q-.028-56.838-.065-113.675c-.016-14.106-.133-28.212-.144-42.318,0-1.211-.562-1.335-1.611-1.32-5.508.072-11.014.11-16.521.159-.773.007-1.545,0-2.523,0V13.729h56.84V38.706c-2.423,0-4.737.075-7.045-.027-1.478-.065-1.935.36-1.938,1.734-.051,20.886-.207,41.773-.244,62.658q-.079,46.5-.035,93.007c0,2.713.041,2.747,3.014,2.738,2.025-.006,4.051,0,6.241,0Z" transform="translate(52.384 -26.314)" fill="#fff" fill-rule="evenodd"/>
        <rect id="Rectángulo_391738" data-name="Rectángulo 391738" width="36.757" height="300.119" transform="translate(-45.375 -12.525)" fill="#fff"/>
        <rect id="Rectángulo_391739" data-name="Rectángulo 391739" width="27.329" height="300.432" transform="translate(414.044 -12.788)" fill="#fff"/>
        <rect id="Rectángulo_391740" data-name="Rectángulo 391740" width="35.111" height="156.058" transform="translate(103.647 14.115)" fill="#454545"/>
        <rect id="Rectángulo_391741" data-name="Rectángulo 391741" width="35.042" height="156.101" transform="translate(277.94 14.115)" fill="#454545"/>
        <rect id="Rectángulo_391742" data-name="Rectángulo 391742" width="34.988" height="156.157" transform="translate(345.126 14.065)" fill="#454545"/>
        <rect id="Rectángulo_391743" data-name="Rectángulo 391743" width="35.049" height="156.099" transform="translate(25.397 14.113)" fill="#454545"/>
        <rect id="Rectángulo_391744" data-name="Rectángulo 391744" width="35.051" height="156.023" transform="translate(205.719 14.161)" fill="#454545"/>
        <g id="Grupo_1093899" data-name="Grupo 1093899" transform="translate(344.2 168.838)" opacity="0.5">
          <g id="Grupo_1093898" data-name="Grupo 1093898">
            <g id="Grupo_1093897" data-name="Grupo 1093897" clip-path="url(#clip-path-3)">
              <rect id="Rectángulo_391745" data-name="Rectángulo 391745" width="38.014" height="9.026" fill="#454545"/>
            </g>
          </g>
        </g>
        <g id="Grupo_1093902" data-name="Grupo 1093902" transform="translate(276.117 168.838)" opacity="0.5">
          <g id="Grupo_1093901" data-name="Grupo 1093901">
            <g id="Grupo_1093900" data-name="Grupo 1093900" clip-path="url(#clip-path-3)">
              <rect id="Rectángulo_391747" data-name="Rectángulo 391747" width="38.014" height="9.026" fill="#454545"/>
            </g>
          </g>
        </g>
        <g id="Grupo_1093905" data-name="Grupo 1093905" transform="translate(204.54 168.838)" opacity="0.5">
          <g id="Grupo_1093904" data-name="Grupo 1093904">
            <g id="Grupo_1093903" data-name="Grupo 1093903" clip-path="url(#clip-path-5)">
              <rect id="Rectángulo_391749" data-name="Rectángulo 391749" width="38.014" height="9.026" transform="translate(-0.001)" fill="#454545"/>
            </g>
          </g>
        </g>
        <g id="Grupo_1093908" data-name="Grupo 1093908" transform="translate(102.415 168.838)" opacity="0.5">
          <g id="Grupo_1093907" data-name="Grupo 1093907">
            <g id="Grupo_1093906" data-name="Grupo 1093906" clip-path="url(#clip-path-5)">
              <rect id="Rectángulo_391751" data-name="Rectángulo 391751" width="38.013" height="9.026" transform="translate(0)" fill="#454545"/>
            </g>
          </g>
        </g>
        <g id="Grupo_1093911" data-name="Grupo 1093911" transform="translate(23.995 168.838)" opacity="0.5">
          <g id="Grupo_1093910" data-name="Grupo 1093910">
            <g id="Grupo_1093909" data-name="Grupo 1093909" clip-path="url(#clip-path-5)">
              <rect id="Rectángulo_391753" data-name="Rectángulo 391753" width="38.013" height="9.026" transform="translate(0.001)" fill="#454545"/>
            </g>
          </g>
        </g>
        <g id="Grupo_1093914" data-name="Grupo 1093914" transform="translate(-13.654 278.62)" opacity="0.3">
          <g id="Grupo_1093913" data-name="Grupo 1093913">
            <g id="Grupo_1093912" data-name="Grupo 1093912" clip-path="url(#clip-path-8)">
              <rect id="Rectángulo_391755" data-name="Rectángulo 391755" width="448.864" height="9.026" transform="translate(0.001 0)"/>
            </g>
          </g>
        </g>
        <path id="Trazado_627912" data-name="Trazado 627912" d="M1.478,11.738h2.97q31.788.008,63.577.014,193.961.064,387.922.14c10.835.006,21.669.122,32.506.222,3.486.031,3.9.473,3.9,3.649q-.017,116.552-.042,233.1-.011,32.562-.11,65.124c0,.329.011.657,0,.984-.093,1.965-.66,2.468-2.788,2.468q-96.262.017-192.523.03-145.832.013-291.663.01c-1.257,0-2.515-.04-3.77-.031C.394,317.456,0,317.008,0,316.038c.088-19.9.207-39.791.217-59.689Q.263,149.394.248,42.438c0-7.873-.069-15.748.082-23.618a49.052,49.052,0,0,1,1.148-7.082m100.645,2.788V39.36h9.219c0,1.053,0,1.916,0,2.778q.127,77.095.253,154.192c.006,2.823-.217,3.01-3.4,3.132-2.01.076-4.02.169-6.026.255V314.775h55.82V199.644c-1.968,0-3.81-.006-5.652,0-2.822.008-2.9-.055-2.9-2.682q.017-52.735.047-105.475c.023-16.731.193-33.461.225-50.192,0-1.5.545-1.87,2.067-1.79,2.01.109,4.031.027,6.183.027V14.526ZM340.172,199.648c-4.807,0-9.459,0-14.115,0-2.114,0-2.387-.235-2.384-2.166q.117-76.689.255-153.377c0-1.455-.374-3.456.477-4.214s3.034-.341,4.631-.354c3.634-.03,7.27-.01,11.052-.01V14.539H282.514V39.372h9.035a5.156,5.156,0,0,1,.16.818c.042,6.179.1,12.356.109,18.536q.066,68.976.109,137.955c0,2.315-.379,2.666-2.883,2.768-2.187.089-4.374.177-6.531.262V314.789h57.659Zm-60.735.069c-.705-.03-1.29-.074-1.872-.074q-11.587-.006-23.17,0c-2.85,0-2.931-.061-2.928-2.655q.011-46.668.035-93.341c.035-20.777.2-41.555.238-62.334,0-1.468.487-1.821,2.039-1.814,7.842.035,15.685-.034,23.526-.075.685,0,1.372-.075,2.094-.115V14.537h-58.36V314.789h58.4Zm-118.4,115.05h56.944V14.539H161.155v24.9h28.5c0,1.043,0,1.964,0,2.884q.125,77.093.249,154.188c0,2.54-.324,2.9-3.054,2.932-7.9.095-15.8.137-23.7.2-.691,0-1.38,0-2.115,0ZM99.051,14.6H42.859V314.778H99.081V199.712c-.65-.028-1.177-.068-1.7-.069q-11.674,0-23.349,0c-2.819,0-2.9-.061-2.9-2.684q.006-40.606.025-81.208.064-36.913.263-73.825c.01-2.391.068-2.386,2.611-2.4q11.4-.049,22.811-.1c.7,0,1.4,0,2.207,0ZM459.384,314.813V14.563h-56.12V39.5c.855,0,1.509,0,2.162,0q11.133-.076,22.268-.16c3.343-.027,3.358-.033,3.363,2.925q.13,77.1.253,154.192c0,2.609-.314,2.956-3.176,2.992-7.66.092-15.321.134-22.982.2-.634,0-1.273,0-1.965,0v115.17Zm-59.281,0V199.643c-2.19,0-4.215,0-6.241,0-2.972.008-3.016-.026-3.014-2.738q.011-46.5.037-93.007c.035-20.885.191-41.772.242-62.658,0-1.375.462-1.8,1.94-1.734,2.308.1,4.621.027,7.044.027V14.557H343.271V39.466c.977,0,1.749.006,2.522,0,5.509-.048,11.014-.086,16.523-.159,1.048-.016,1.611.109,1.611,1.32.01,14.106.127,28.212.143,42.318q.062,56.838.065,113.675c0,2.387-.378,2.779-2.992,2.825-5.326.1-10.653.137-15.978.2-.639.008-1.277,0-1.969,0V314.809ZM3.04,314.737H39.8V14.618H3.04Zm459.419.05h27.329V14.354H462.459Zm-310.4-117.471h35.111V41.257H152.061ZM361.4,41.258H326.354v156.1H361.4ZM393.54,197.365h34.988V41.207H393.54ZM108.861,41.255H73.812v156.1h35.049ZM254.134,197.327h35.051V41.3H254.134Z" transform="translate(-48.415 -27.142)" fill-rule="evenodd"/>
      </g>
    </g>
    <g id="Grupo_1093924" data-name="Grupo 1093924" transform="translate(535.794 1367.483)">
      <g id="Grupo_1093923" data-name="Grupo 1093923" clip-path="url(#clip-path-9)">
        <g id="Grupo_1093919" data-name="Grupo 1093919" transform="translate(54.078 36.679)" opacity="0.5" style="mix-blend-mode: multiply;isolation: isolate">
          <g id="Grupo_1093918" data-name="Grupo 1093918">
            <g id="Grupo_1093917" data-name="Grupo 1093917" clip-path="url(#clip-path-10)">
              <rect id="Rectángulo_391758" data-name="Rectángulo 391758" width="155.849" height="270.025" transform="translate(0)" fill="#99e8dc"/>
            </g>
          </g>
        </g>
        <g id="Grupo_1093922" data-name="Grupo 1093922" transform="translate(228.164 36.679)" opacity="0.5" style="mix-blend-mode: multiply;isolation: isolate">
          <g id="Grupo_1093921" data-name="Grupo 1093921">
            <g id="Grupo_1093920" data-name="Grupo 1093920" clip-path="url(#clip-path-11)">
              <rect id="Rectángulo_391760" data-name="Rectángulo 391760" width="223.267" height="270.025" transform="translate(0.001)" fill="#cbb1eb"/>
            </g>
          </g>
        </g>
        <path id="Trazado_627913" data-name="Trazado 627913" d="M83.438,253.928A24.025,24.025,0,1,1,59.414,229.9a24.024,24.024,0,0,1,24.024,24.024" transform="translate(41.817 95.604)" fill="#f8e5b1"/>
        <path id="Trazado_627914" data-name="Trazado 627914" d="M124.6,253.928A24.025,24.025,0,1,1,100.574,229.9,24.024,24.024,0,0,1,124.6,253.928" transform="translate(59.657 95.604)" fill="#f8e5b1"/>
        <path id="Trazado_627915" data-name="Trazado 627915" d="M165.571,253.928A24.025,24.025,0,1,1,141.547,229.9a24.024,24.024,0,0,1,24.024,24.024" transform="translate(78.684 95.604)" fill="#dac8f1"/>
        <path id="Trazado_627916" data-name="Trazado 627916" d="M211.121,253.928A24.025,24.025,0,1,1,187.1,229.9a24.024,24.024,0,0,1,24.024,24.024" transform="translate(92.134 95.604)" fill="#f8e5b1"/>
        <path id="Trazado_627917" data-name="Trazado 627917" d="M252.281,253.928A24.025,24.025,0,1,1,228.257,229.9a24.024,24.024,0,0,1,24.024,24.024" transform="translate(109.974 95.604)" fill="#f8e5b1"/>
        <path id="Trazado_627918" data-name="Trazado 627918" d="M293.254,253.928A24.025,24.025,0,1,1,269.23,229.9a24.024,24.024,0,0,1,24.024,24.024" transform="translate(129.001 95.604)" fill="#f8e5b1"/>
        <path id="Trazado_627919" data-name="Trazado 627919" d="M332.956,253.928A24.025,24.025,0,1,1,308.932,229.9a24.024,24.024,0,0,1,24.024,24.024" transform="translate(148.299 95.604)" fill="#dac8f1"/>
      </g>
    </g>
    <path id="Trazado_634703" data-name="Trazado 634703" d="M0,0H715V403.786H0Z" transform="translate(436 1367.483)" fill="none"/>
    <path id="Trazado_634704" data-name="Trazado 634704" d="M8.92,12.175a5.731,5.731,0,0,1,1-3.542,3.237,3.237,0,0,1,2.729-1.318A2.913,2.913,0,0,1,14.94,8.352V3.5h2.549V17H15.2l-.123-1.011a2.989,2.989,0,0,1-2.443,1.187,3.228,3.228,0,0,1-2.694-1.323A5.916,5.916,0,0,1,8.92,12.175Zm2.54.189a3.754,3.754,0,0,0,.466,2.051,1.517,1.517,0,0,0,1.354.713,1.7,1.7,0,0,0,1.661-.995V10.375A1.675,1.675,0,0,0,13.3,9.38Q11.46,9.38,11.46,12.364Zm7.6-.207a5.64,5.64,0,0,1,.545-2.522,3.989,3.989,0,0,1,1.569-1.714,4.577,4.577,0,0,1,2.377-.606A4.33,4.33,0,0,1,26.7,8.492a4.727,4.727,0,0,1,1.358,3.2l.018.65a4.97,4.97,0,0,1-1.222,3.511,4.247,4.247,0,0,1-3.278,1.323,4.268,4.268,0,0,1-3.283-1.318,5.058,5.058,0,0,1-1.226-3.586Zm2.54.18a3.555,3.555,0,0,0,.51,2.073,1.831,1.831,0,0,0,2.9.009,3.89,3.89,0,0,0,.519-2.267,3.519,3.519,0,0,0-.519-2.06,1.686,1.686,0,0,0-1.459-.731,1.658,1.658,0,0,0-1.441.726A3.955,3.955,0,0,0,21.6,12.338Z" transform="translate(592 1652.96)" fill="#12263f"/>
    <path id="Trazado_634705" data-name="Trazado 634705" d="M16.755,9.872a6.9,6.9,0,0,0-.914-.07,1.86,1.86,0,0,0-1.89.976V17h-2.54V7.49h2.4l.07,1.134A2.354,2.354,0,0,1,16,7.314a2.662,2.662,0,0,1,.791.114Zm5.432,7.3a4.668,4.668,0,0,1-3.406-1.283,4.561,4.561,0,0,1-1.314-3.419v-.246a5.745,5.745,0,0,1,.554-2.562,4.064,4.064,0,0,1,1.569-1.74,4.4,4.4,0,0,1,2.316-.611,3.947,3.947,0,0,1,3.072,1.23A5,5,0,0,1,26.1,12.034v1.037H20.042a2.36,2.36,0,0,0,.743,1.494,2.245,2.245,0,0,0,1.569.563,2.742,2.742,0,0,0,2.294-1.063l1.248,1.4a3.813,3.813,0,0,1-1.547,1.261A5.075,5.075,0,0,1,22.187,17.176ZM21.9,9.362a1.587,1.587,0,0,0-1.226.512,2.651,2.651,0,0,0-.6,1.466H23.6v-.2a1.891,1.891,0,0,0-.457-1.311A1.638,1.638,0,0,0,21.9,9.362Z" transform="translate(646 1652.96)" fill="#12263f"/>
    <path id="Trazado_634706" data-name="Trazado 634706" d="M11.9,7.49,12,8.606a3.27,3.27,0,0,1,2.716-1.292,2.407,2.407,0,0,1,2.435,1.433,3.165,3.165,0,0,1,2.795-1.433q2.892,0,2.971,3.5V17H19.946V11A1.813,1.813,0,0,0,19.7,9.934a1.048,1.048,0,0,0-.9-.334,1.4,1.4,0,0,0-1.31.782l.009.123V17H14.532V11.015a1.906,1.906,0,0,0-.237-1.081,1.045,1.045,0,0,0-.905-.334,1.42,1.42,0,0,0-1.3.782V17H9.126V7.49ZM27.733,17H24.762V7.49h2.971ZM24.586,5.038A1.322,1.322,0,0,1,25.043,4a1.943,1.943,0,0,1,2.373,0,1.322,1.322,0,0,1,.457,1.037,1.322,1.322,0,0,1-.457,1.037,1.943,1.943,0,0,1-2.373,0A1.322,1.322,0,0,1,24.586,5.038Z" transform="translate(706 1654.96)" fill="#12263f"/>
    <path id="Trazado_634707" data-name="Trazado 634707" d="M12.119,17V9.354H10.7V7.49h1.415V6.682A3.283,3.283,0,0,1,13.038,4.2a3.557,3.557,0,0,1,2.571-.883,5.938,5.938,0,0,1,1.292.176L16.874,5.46a3.238,3.238,0,0,0-.773-.079q-1.433,0-1.433,1.345V7.49h1.89V9.354h-1.89V17Zm11.268,0a2.821,2.821,0,0,1-.255-.853,3.073,3.073,0,0,1-2.4,1.028,3.376,3.376,0,0,1-2.316-.809,2.6,2.6,0,0,1-.918-2.039,2.687,2.687,0,0,1,1.121-2.32,5.529,5.529,0,0,1,3.239-.817h1.169v-.545a1.567,1.567,0,0,0-.338-1.055,1.331,1.331,0,0,0-1.068-.4,1.513,1.513,0,0,0-1.006.308,1.045,1.045,0,0,0-.365.844h-2.54a2.551,2.551,0,0,1,.51-1.529,3.37,3.37,0,0,1,1.441-1.1,5.253,5.253,0,0,1,2.092-.4,4.15,4.15,0,0,1,2.791.883,3.09,3.09,0,0,1,1.033,2.483V14.8a4.546,4.546,0,0,0,.378,2.048V17Zm-2.1-1.767a2.188,2.188,0,0,0,1.037-.25,1.645,1.645,0,0,0,.7-.672V12.676h-.949q-1.907,0-2.03,1.318l-.009.149a1.017,1.017,0,0,0,.334.782A1.3,1.3,0,0,0,21.286,15.233Z" transform="translate(770 1652.96)" fill="#12263f"/>
    <path id="Trazado_634708" data-name="Trazado 634708" d="M12.523,14.372a.818.818,0,0,0-.461-.734,5.241,5.241,0,0,0-1.481-.479q-3.393-.712-3.393-2.883a2.613,2.613,0,0,1,1.05-2.114,4.237,4.237,0,0,1,2.747-.848,4.56,4.56,0,0,1,2.9.853,2.687,2.687,0,0,1,1.085,2.215h-2.54a1.229,1.229,0,0,0-.352-.9,1.488,1.488,0,0,0-1.1-.356,1.52,1.52,0,0,0-.993.29.916.916,0,0,0-.352.738.783.783,0,0,0,.4.681,4.114,4.114,0,0,0,1.349.448,11.019,11.019,0,0,1,1.6.426,2.628,2.628,0,0,1,2.013,2.558,2.481,2.481,0,0,1-1.116,2.1,4.815,4.815,0,0,1-2.883.8,5.029,5.029,0,0,1-2.123-.426,3.561,3.561,0,0,1-1.455-1.169,2.716,2.716,0,0,1-.527-1.6H9.3a1.326,1.326,0,0,0,.5,1.037,1.987,1.987,0,0,0,1.248.36,1.839,1.839,0,0,0,1.1-.277A.861.861,0,0,0,12.523,14.372Zm3.709-2.215a5.64,5.64,0,0,1,.545-2.522,3.989,3.989,0,0,1,1.569-1.714,4.577,4.577,0,0,1,2.377-.606,4.33,4.33,0,0,1,3.142,1.178,4.727,4.727,0,0,1,1.358,3.2l.018.65a4.97,4.97,0,0,1-1.222,3.511,4.247,4.247,0,0,1-3.278,1.323,4.268,4.268,0,0,1-3.283-1.318,5.058,5.058,0,0,1-1.226-3.586Zm2.54.18a3.555,3.555,0,0,0,.51,2.073,1.831,1.831,0,0,0,2.9.009,3.89,3.89,0,0,0,.519-2.267,3.519,3.519,0,0,0-.519-2.06,1.686,1.686,0,0,0-1.459-.731,1.658,1.658,0,0,0-1.441.726A3.955,3.955,0,0,0,18.772,12.338ZM29.486,17H26.938V3.5h2.549Z" transform="translate(830 1652.96)" fill="#12263f"/>
    <path id="Trazado_634709" data-name="Trazado 634709" d="M14.945,17H12.4V3.5h2.549Zm7.6,0a2.821,2.821,0,0,1-.255-.853,3.073,3.073,0,0,1-2.4,1.028,3.376,3.376,0,0,1-2.316-.809,2.6,2.6,0,0,1-.918-2.039,2.687,2.687,0,0,1,1.121-2.32,5.529,5.529,0,0,1,3.239-.817h1.169v-.545a1.567,1.567,0,0,0-.338-1.055,1.331,1.331,0,0,0-1.068-.4,1.513,1.513,0,0,0-1.006.308,1.045,1.045,0,0,0-.365.844H16.87a2.551,2.551,0,0,1,.51-1.529,3.37,3.37,0,0,1,1.441-1.1,5.253,5.253,0,0,1,2.092-.4A4.15,4.15,0,0,1,23.7,8.2a3.09,3.09,0,0,1,1.033,2.483V14.8a4.546,4.546,0,0,0,.378,2.048V17Zm-2.1-1.767a2.188,2.188,0,0,0,1.037-.25,1.645,1.645,0,0,0,.7-.672V12.676h-.949q-1.907,0-2.03,1.318l-.009.149a1.017,1.017,0,0,0,.334.782A1.3,1.3,0,0,0,20.447,15.233Z" transform="translate(888 1652.96)" fill="#12263f"/>
    <path id="Trazado_634710" data-name="Trazado 634710" d="M17.612,14.372a.818.818,0,0,0-.461-.734,5.241,5.241,0,0,0-1.481-.479q-3.393-.712-3.393-2.883a2.613,2.613,0,0,1,1.05-2.114,4.237,4.237,0,0,1,2.747-.848,4.56,4.56,0,0,1,2.9.853,2.687,2.687,0,0,1,1.085,2.215h-2.54a1.229,1.229,0,0,0-.352-.9,1.488,1.488,0,0,0-1.1-.356,1.52,1.52,0,0,0-.993.29.916.916,0,0,0-.352.738.783.783,0,0,0,.4.681,4.114,4.114,0,0,0,1.349.448,11.019,11.019,0,0,1,1.6.426,2.628,2.628,0,0,1,2.013,2.558,2.481,2.481,0,0,1-1.116,2.1,4.815,4.815,0,0,1-2.883.8,5.029,5.029,0,0,1-2.123-.426,3.561,3.561,0,0,1-1.455-1.169,2.716,2.716,0,0,1-.527-1.6h2.408a1.326,1.326,0,0,0,.5,1.037,1.987,1.987,0,0,0,1.248.36,1.839,1.839,0,0,0,1.1-.277A.861.861,0,0,0,17.612,14.372ZM24.4,17H21.849V7.49H24.4ZM21.7,5.029a1.251,1.251,0,0,1,.382-.94,1.648,1.648,0,0,1,2.079,0,1.244,1.244,0,0,1,.387.94,1.247,1.247,0,0,1-.391.949,1.629,1.629,0,0,1-2.065,0A1.247,1.247,0,0,1,21.7,5.029Z" transform="translate(948 1652.96)" fill="#12263f"/>
    <path id="Trazado_634711" data-name="Trazado 634711" d="M28.168,15H25.91V6.3l-2.7.836V5.3l4.711-1.687h.242ZM13.957,21.469v2.078H15.4V25.2H13.957v4.219a1.007,1.007,0,0,0,.18.672.9.9,0,0,0,.688.2,3.6,3.6,0,0,0,.664-.055v1.711a4.648,4.648,0,0,1-1.367.2,2.156,2.156,0,0,1-2.422-2.4V25.2H10.465V23.547H11.7V21.469ZM16.074,27.7a5.013,5.013,0,0,1,.484-2.242,3.546,3.546,0,0,1,1.395-1.523,4.069,4.069,0,0,1,2.113-.539,3.849,3.849,0,0,1,2.793,1.047,4.2,4.2,0,0,1,1.207,2.844l.016.578A4.418,4.418,0,0,1,23,30.98a3.775,3.775,0,0,1-2.914,1.176,3.793,3.793,0,0,1-2.918-1.172,4.5,4.5,0,0,1-1.09-3.187Zm2.258.16a3.16,3.16,0,0,0,.453,1.843,1.628,1.628,0,0,0,2.578.008,3.457,3.457,0,0,0,.461-2.015,3.128,3.128,0,0,0-.461-1.831,1.5,1.5,0,0,0-1.3-.649,1.474,1.474,0,0,0-1.281.646A3.516,3.516,0,0,0,18.332,27.856Zm9.219-4.309.07.977a2.951,2.951,0,0,1,2.43-1.133,2.453,2.453,0,0,1,2,.789,3.682,3.682,0,0,1,.672,2.359V32H30.465V26.594a1.465,1.465,0,0,0-.312-1.043,1.4,1.4,0,0,0-1.039-.324,1.553,1.553,0,0,0-1.43.813V32H25.426V23.547ZM34.082,27.7a5.013,5.013,0,0,1,.484-2.242,3.546,3.546,0,0,1,1.395-1.523,4.069,4.069,0,0,1,2.113-.539,3.849,3.849,0,0,1,2.793,1.047,4.2,4.2,0,0,1,1.207,2.844l.016.578A4.418,4.418,0,0,1,41,30.98a4.209,4.209,0,0,1-5.832,0,4.5,4.5,0,0,1-1.09-3.187Zm2.258.16a3.16,3.16,0,0,0,.453,1.843,1.628,1.628,0,0,0,2.578.008,3.457,3.457,0,0,0,.461-2.015,3.128,3.128,0,0,0-.461-1.831,1.5,1.5,0,0,0-1.3-.649,1.474,1.474,0,0,0-1.281.646A3.516,3.516,0,0,0,36.34,27.856Z" transform="translate(610 1693.96)" fill="#12263f"/>
    <path id="Trazado_634712" data-name="Trazado 634712" d="M28.168,15H25.91V6.3l-2.7.836V5.3l4.711-1.687h.242ZM13.957,21.469v2.078H15.4V25.2H13.957v4.219a1.007,1.007,0,0,0,.18.672.9.9,0,0,0,.688.2,3.6,3.6,0,0,0,.664-.055v1.711a4.648,4.648,0,0,1-1.367.2,2.156,2.156,0,0,1-2.422-2.4V25.2H10.465V23.547H11.7V21.469ZM16.074,27.7a5.013,5.013,0,0,1,.484-2.242,3.546,3.546,0,0,1,1.395-1.523,4.069,4.069,0,0,1,2.113-.539,3.849,3.849,0,0,1,2.793,1.047,4.2,4.2,0,0,1,1.207,2.844l.016.578A4.418,4.418,0,0,1,23,30.98a3.775,3.775,0,0,1-2.914,1.176,3.793,3.793,0,0,1-2.918-1.172,4.5,4.5,0,0,1-1.09-3.187Zm2.258.16a3.16,3.16,0,0,0,.453,1.843,1.628,1.628,0,0,0,2.578.008,3.457,3.457,0,0,0,.461-2.015,3.128,3.128,0,0,0-.461-1.831,1.5,1.5,0,0,0-1.3-.649,1.474,1.474,0,0,0-1.281.646A3.516,3.516,0,0,0,18.332,27.856Zm9.219-4.309.07.977a2.951,2.951,0,0,1,2.43-1.133,2.453,2.453,0,0,1,2,.789,3.682,3.682,0,0,1,.672,2.359V32H30.465V26.594a1.465,1.465,0,0,0-.312-1.043,1.4,1.4,0,0,0-1.039-.324,1.553,1.553,0,0,0-1.43.813V32H25.426V23.547ZM34.082,27.7a5.013,5.013,0,0,1,.484-2.242,3.546,3.546,0,0,1,1.395-1.523,4.069,4.069,0,0,1,2.113-.539,3.849,3.849,0,0,1,2.793,1.047,4.2,4.2,0,0,1,1.207,2.844l.016.578A4.418,4.418,0,0,1,41,30.98a4.209,4.209,0,0,1-5.832,0,4.5,4.5,0,0,1-1.09-3.187Zm2.258.16a3.16,3.16,0,0,0,.453,1.843,1.628,1.628,0,0,0,2.578.008,3.457,3.457,0,0,0,.461-2.015,3.128,3.128,0,0,0-.461-1.831,1.5,1.5,0,0,0-1.3-.649,1.474,1.474,0,0,0-1.281.646A3.516,3.516,0,0,0,36.34,27.856Z" transform="translate(669 1693.96)" fill="#12263f"/>
    <path id="Trazado_634713" data-name="Trazado 634713" d="M20.59,15H18.332V6.3l-2.7.836V5.3l4.711-1.687h.242Zm4.5.977H23.41L27.6,3.625h1.68ZM38.059,15h-7.8V13.453l3.68-3.922a9.078,9.078,0,0,0,1.121-1.445,2.322,2.322,0,0,0,.363-1.172,1.738,1.738,0,0,0-.383-1.191,1.382,1.382,0,0,0-1.094-.434,1.49,1.49,0,0,0-1.207.527A2.089,2.089,0,0,0,32.3,7.2H30.035a3.729,3.729,0,0,1,.5-1.9,3.5,3.5,0,0,1,1.4-1.348,4.262,4.262,0,0,1,2.055-.488,4.036,4.036,0,0,1,2.73.844A2.985,2.985,0,0,1,37.691,6.7a3.825,3.825,0,0,1-.437,1.719,9.551,9.551,0,0,1-1.5,2.039L33.168,13.18h4.891Zm-24.1,6.469v2.078H15.4V25.2H13.957v4.219a1.007,1.007,0,0,0,.18.672.9.9,0,0,0,.688.2,3.6,3.6,0,0,0,.664-.055v1.711a4.648,4.648,0,0,1-1.367.2,2.156,2.156,0,0,1-2.422-2.4V25.2H10.465V23.547H11.7V21.469ZM16.074,27.7a5.013,5.013,0,0,1,.484-2.242,3.546,3.546,0,0,1,1.395-1.523,4.069,4.069,0,0,1,2.113-.539,3.849,3.849,0,0,1,2.793,1.047,4.2,4.2,0,0,1,1.207,2.844l.016.578A4.418,4.418,0,0,1,23,30.98a3.775,3.775,0,0,1-2.914,1.176,3.793,3.793,0,0,1-2.918-1.172,4.5,4.5,0,0,1-1.09-3.187Zm2.258.16a3.16,3.16,0,0,0,.453,1.843,1.628,1.628,0,0,0,2.578.008,3.457,3.457,0,0,0,.461-2.015,3.128,3.128,0,0,0-.461-1.831,1.5,1.5,0,0,0-1.3-.649,1.474,1.474,0,0,0-1.281.646A3.516,3.516,0,0,0,18.332,27.856Zm9.219-4.309.07.977a2.951,2.951,0,0,1,2.43-1.133,2.453,2.453,0,0,1,2,.789,3.682,3.682,0,0,1,.672,2.359V32H30.465V26.594a1.465,1.465,0,0,0-.312-1.043,1.4,1.4,0,0,0-1.039-.324,1.553,1.553,0,0,0-1.43.813V32H25.426V23.547ZM34.082,27.7a5.013,5.013,0,0,1,.484-2.242,3.546,3.546,0,0,1,1.395-1.523,4.069,4.069,0,0,1,2.113-.539,3.849,3.849,0,0,1,2.793,1.047,4.2,4.2,0,0,1,1.207,2.844l.016.578A4.418,4.418,0,0,1,41,30.98a4.209,4.209,0,0,1-5.832,0,4.5,4.5,0,0,1-1.09-3.187Zm2.258.16a3.16,3.16,0,0,0,.453,1.843,1.628,1.628,0,0,0,2.578.008,3.457,3.457,0,0,0,.461-2.015,3.128,3.128,0,0,0-.461-1.831,1.5,1.5,0,0,0-1.3-.649,1.474,1.474,0,0,0-1.281.646A3.516,3.516,0,0,0,36.34,27.856Z" transform="translate(730 1693.96)" fill="#12263f"/>
    <path id="Trazado_634714" data-name="Trazado 634714" d="M28.168,15H25.91V6.3l-2.7.836V5.3l4.711-1.687h.242ZM13.957,21.469v2.078H15.4V25.2H13.957v4.219a1.007,1.007,0,0,0,.18.672.9.9,0,0,0,.688.2,3.6,3.6,0,0,0,.664-.055v1.711a4.648,4.648,0,0,1-1.367.2,2.156,2.156,0,0,1-2.422-2.4V25.2H10.465V23.547H11.7V21.469ZM16.074,27.7a5.013,5.013,0,0,1,.484-2.242,3.546,3.546,0,0,1,1.395-1.523,4.069,4.069,0,0,1,2.113-.539,3.849,3.849,0,0,1,2.793,1.047,4.2,4.2,0,0,1,1.207,2.844l.016.578A4.418,4.418,0,0,1,23,30.98a3.775,3.775,0,0,1-2.914,1.176,3.793,3.793,0,0,1-2.918-1.172,4.5,4.5,0,0,1-1.09-3.187Zm2.258.16a3.16,3.16,0,0,0,.453,1.843,1.628,1.628,0,0,0,2.578.008,3.457,3.457,0,0,0,.461-2.015,3.128,3.128,0,0,0-.461-1.831,1.5,1.5,0,0,0-1.3-.649,1.474,1.474,0,0,0-1.281.646A3.516,3.516,0,0,0,18.332,27.856Zm9.219-4.309.07.977a2.951,2.951,0,0,1,2.43-1.133,2.453,2.453,0,0,1,2,.789,3.682,3.682,0,0,1,.672,2.359V32H30.465V26.594a1.465,1.465,0,0,0-.312-1.043,1.4,1.4,0,0,0-1.039-.324,1.553,1.553,0,0,0-1.43.813V32H25.426V23.547ZM34.082,27.7a5.013,5.013,0,0,1,.484-2.242,3.546,3.546,0,0,1,1.395-1.523,4.069,4.069,0,0,1,2.113-.539,3.849,3.849,0,0,1,2.793,1.047,4.2,4.2,0,0,1,1.207,2.844l.016.578A4.418,4.418,0,0,1,41,30.98a4.209,4.209,0,0,1-5.832,0,4.5,4.5,0,0,1-1.09-3.187Zm2.258.16a3.16,3.16,0,0,0,.453,1.843,1.628,1.628,0,0,0,2.578.008,3.457,3.457,0,0,0,.461-2.015,3.128,3.128,0,0,0-.461-1.831,1.5,1.5,0,0,0-1.3-.649,1.474,1.474,0,0,0-1.281.646A3.516,3.516,0,0,0,36.34,27.856Z" transform="translate(789 1693.96)" fill="#12263f"/>
    <path id="Trazado_634715" data-name="Trazado 634715" d="M28.168,15H25.91V6.3l-2.7.836V5.3l4.711-1.687h.242ZM13.957,21.469v2.078H15.4V25.2H13.957v4.219a1.007,1.007,0,0,0,.18.672.9.9,0,0,0,.688.2,3.6,3.6,0,0,0,.664-.055v1.711a4.648,4.648,0,0,1-1.367.2,2.156,2.156,0,0,1-2.422-2.4V25.2H10.465V23.547H11.7V21.469ZM16.074,27.7a5.013,5.013,0,0,1,.484-2.242,3.546,3.546,0,0,1,1.395-1.523,4.069,4.069,0,0,1,2.113-.539,3.849,3.849,0,0,1,2.793,1.047,4.2,4.2,0,0,1,1.207,2.844l.016.578A4.418,4.418,0,0,1,23,30.98a3.775,3.775,0,0,1-2.914,1.176,3.793,3.793,0,0,1-2.918-1.172,4.5,4.5,0,0,1-1.09-3.187Zm2.258.16a3.16,3.16,0,0,0,.453,1.843,1.628,1.628,0,0,0,2.578.008,3.457,3.457,0,0,0,.461-2.015,3.128,3.128,0,0,0-.461-1.831,1.5,1.5,0,0,0-1.3-.649,1.474,1.474,0,0,0-1.281.646A3.516,3.516,0,0,0,18.332,27.856Zm9.219-4.309.07.977a2.951,2.951,0,0,1,2.43-1.133,2.453,2.453,0,0,1,2,.789,3.682,3.682,0,0,1,.672,2.359V32H30.465V26.594a1.465,1.465,0,0,0-.312-1.043,1.4,1.4,0,0,0-1.039-.324,1.553,1.553,0,0,0-1.43.813V32H25.426V23.547ZM34.082,27.7a5.013,5.013,0,0,1,.484-2.242,3.546,3.546,0,0,1,1.395-1.523,4.069,4.069,0,0,1,2.113-.539,3.849,3.849,0,0,1,2.793,1.047,4.2,4.2,0,0,1,1.207,2.844l.016.578A4.418,4.418,0,0,1,41,30.98a4.209,4.209,0,0,1-5.832,0,4.5,4.5,0,0,1-1.09-3.187Zm2.258.16a3.16,3.16,0,0,0,.453,1.843,1.628,1.628,0,0,0,2.578.008,3.457,3.457,0,0,0,.461-2.015,3.128,3.128,0,0,0-.461-1.831,1.5,1.5,0,0,0-1.3-.649,1.474,1.474,0,0,0-1.281.646A3.516,3.516,0,0,0,36.34,27.856Z" transform="translate(848 1693.96)" fill="#12263f"/>
    <path id="Trazado_634716" data-name="Trazado 634716" d="M28.168,15H25.91V6.3l-2.7.836V5.3l4.711-1.687h.242ZM13.957,21.469v2.078H15.4V25.2H13.957v4.219a1.007,1.007,0,0,0,.18.672.9.9,0,0,0,.688.2,3.6,3.6,0,0,0,.664-.055v1.711a4.648,4.648,0,0,1-1.367.2,2.156,2.156,0,0,1-2.422-2.4V25.2H10.465V23.547H11.7V21.469ZM16.074,27.7a5.013,5.013,0,0,1,.484-2.242,3.546,3.546,0,0,1,1.395-1.523,4.069,4.069,0,0,1,2.113-.539,3.849,3.849,0,0,1,2.793,1.047,4.2,4.2,0,0,1,1.207,2.844l.016.578A4.418,4.418,0,0,1,23,30.98a3.775,3.775,0,0,1-2.914,1.176,3.793,3.793,0,0,1-2.918-1.172,4.5,4.5,0,0,1-1.09-3.187Zm2.258.16a3.16,3.16,0,0,0,.453,1.843,1.628,1.628,0,0,0,2.578.008,3.457,3.457,0,0,0,.461-2.015,3.128,3.128,0,0,0-.461-1.831,1.5,1.5,0,0,0-1.3-.649,1.474,1.474,0,0,0-1.281.646A3.516,3.516,0,0,0,18.332,27.856Zm9.219-4.309.07.977a2.951,2.951,0,0,1,2.43-1.133,2.453,2.453,0,0,1,2,.789,3.682,3.682,0,0,1,.672,2.359V32H30.465V26.594a1.465,1.465,0,0,0-.312-1.043,1.4,1.4,0,0,0-1.039-.324,1.553,1.553,0,0,0-1.43.813V32H25.426V23.547ZM34.082,27.7a5.013,5.013,0,0,1,.484-2.242,3.546,3.546,0,0,1,1.395-1.523,4.069,4.069,0,0,1,2.113-.539,3.849,3.849,0,0,1,2.793,1.047,4.2,4.2,0,0,1,1.207,2.844l.016.578A4.418,4.418,0,0,1,41,30.98a4.209,4.209,0,0,1-5.832,0,4.5,4.5,0,0,1-1.09-3.187Zm2.258.16a3.16,3.16,0,0,0,.453,1.843,1.628,1.628,0,0,0,2.578.008,3.457,3.457,0,0,0,.461-2.015,3.128,3.128,0,0,0-.461-1.831,1.5,1.5,0,0,0-1.3-.649,1.474,1.474,0,0,0-1.281.646A3.516,3.516,0,0,0,36.34,27.856Z" transform="translate(907 1693.96)" fill="#12263f"/>
    <path id="Trazado_634717" data-name="Trazado 634717" d="M20.59,15H18.332V6.3l-2.7.836V5.3l4.711-1.687h.242Zm4.5.977H23.41L27.6,3.625h1.68ZM38.059,15h-7.8V13.453l3.68-3.922a9.078,9.078,0,0,0,1.121-1.445,2.322,2.322,0,0,0,.363-1.172,1.738,1.738,0,0,0-.383-1.191,1.382,1.382,0,0,0-1.094-.434,1.49,1.49,0,0,0-1.207.527A2.089,2.089,0,0,0,32.3,7.2H30.035a3.729,3.729,0,0,1,.5-1.9,3.5,3.5,0,0,1,1.4-1.348,4.262,4.262,0,0,1,2.055-.488,4.036,4.036,0,0,1,2.73.844A2.985,2.985,0,0,1,37.691,6.7a3.825,3.825,0,0,1-.437,1.719,9.551,9.551,0,0,1-1.5,2.039L33.168,13.18h4.891Zm-24.1,6.469v2.078H15.4V25.2H13.957v4.219a1.007,1.007,0,0,0,.18.672.9.9,0,0,0,.688.2,3.6,3.6,0,0,0,.664-.055v1.711a4.648,4.648,0,0,1-1.367.2,2.156,2.156,0,0,1-2.422-2.4V25.2H10.465V23.547H11.7V21.469ZM16.074,27.7a5.013,5.013,0,0,1,.484-2.242,3.546,3.546,0,0,1,1.395-1.523,4.069,4.069,0,0,1,2.113-.539,3.849,3.849,0,0,1,2.793,1.047,4.2,4.2,0,0,1,1.207,2.844l.016.578A4.418,4.418,0,0,1,23,30.98a3.775,3.775,0,0,1-2.914,1.176,3.793,3.793,0,0,1-2.918-1.172,4.5,4.5,0,0,1-1.09-3.187Zm2.258.16a3.16,3.16,0,0,0,.453,1.843,1.628,1.628,0,0,0,2.578.008,3.457,3.457,0,0,0,.461-2.015,3.128,3.128,0,0,0-.461-1.831,1.5,1.5,0,0,0-1.3-.649,1.474,1.474,0,0,0-1.281.646A3.516,3.516,0,0,0,18.332,27.856Zm9.219-4.309.07.977a2.951,2.951,0,0,1,2.43-1.133,2.453,2.453,0,0,1,2,.789,3.682,3.682,0,0,1,.672,2.359V32H30.465V26.594a1.465,1.465,0,0,0-.312-1.043,1.4,1.4,0,0,0-1.039-.324,1.553,1.553,0,0,0-1.43.813V32H25.426V23.547ZM34.082,27.7a5.013,5.013,0,0,1,.484-2.242,3.546,3.546,0,0,1,1.395-1.523,4.069,4.069,0,0,1,2.113-.539,3.849,3.849,0,0,1,2.793,1.047,4.2,4.2,0,0,1,1.207,2.844l.016.578A4.418,4.418,0,0,1,41,30.98a4.209,4.209,0,0,1-5.832,0,4.5,4.5,0,0,1-1.09-3.187Zm2.258.16a3.16,3.16,0,0,0,.453,1.843,1.628,1.628,0,0,0,2.578.008,3.457,3.457,0,0,0,.461-2.015,3.128,3.128,0,0,0-.461-1.831,1.5,1.5,0,0,0-1.3-.649,1.474,1.474,0,0,0-1.281.646A3.516,3.516,0,0,0,36.34,27.856Z" transform="translate(966 1693.96)" fill="#12263f"/>
  </g>
</svg>
