<svg id="Grupo_1101533" data-name="Grupo 1101533" xmlns="http://www.w3.org/2000/svg" xmlns:xlink="http://www.w3.org/1999/xlink" width="1030" height="242.686" viewBox="0 0 1030 242.686">
  <defs>
    <clipPath id="clip-path">
      <rect id="Rectángulo_396339" data-name="Rectángulo 396339" width="1030" height="242.686" fill="none"/>
    </clipPath>
  </defs>
  <path id="Trazado_634503" data-name="Trazado 634503" d="M0,0H1030V242.686H0Z" fill="#eadff7"/>
  <rect id="Rectángulo_396328" data-name="Rectángulo 396328" width="866.338" height="1.632" transform="translate(85.613 92.372)" fill="#12263f"/>
  <rect id="Rectángulo_396329" data-name="Rectángulo 396329" width="866.338" height="1.632" transform="translate(85.613 108.692)" fill="#12263f"/>
  <rect id="Rectángulo_396330" data-name="Rectángulo 396330" width="866.338" height="1.632" transform="translate(85.613 125.014)" fill="#12263f"/>
  <rect id="Rectángulo_396331" data-name="Rectángulo 396331" width="866.338" height="1.633" transform="translate(85.613 141.335)" fill="#12263f"/>
  <rect id="Rectángulo_396332" data-name="Rectángulo 396332" width="866.338" height="1.632" transform="translate(85.613 157.657)" fill="#12263f"/>
  <rect id="Rectángulo_396333" data-name="Rectángulo 396333" width="5.907" height="66.918" transform="translate(946.044 92.371)" fill="#12263f"/>
  <g id="Grupo_1101532" data-name="Grupo 1101532">
    <g id="Grupo_1101531" data-name="Grupo 1101531" clip-path="url(#clip-path)">
      <path id="Trazado_634391" data-name="Trazado 634391" d="M116.991,145.654c-2.745-8.991-11.707-15.184-19.655-13.94-.9-4.321-1.773-8.488-2.562-12.265,8.228-8.3,15.2-18.491,11.23-37.467-1.161-5.558-4.648-15.106-7.665-14.476-13.023,2.722-10.1,31.779-10.1,31.779s.78,3.735,2.006,9.6c-10.525,11.29-22.863,23.051-19.734,38.027,3.052,14.611,16.283,24.774,30.577,21.787.541-.114,1.065-.243,1.577-.381,1.22,5.838,2.113,10.116,2.433,11.643,1.56,7.464-1.778,15.289-8.448,16.682-7.585,1.585-9.192-3.216-9.192-3.216s1.067.771,3.917.176c2.3-.481,5.032-4.48,4.285-8.054s-4.071-7.427-8.2-6.563c-4.447.928-7.722,4.394-6.513,10.182.6,2.859,5.183,12.657,16.3,10.334,13.659-2.854,10.473-18.1,9.842-21.118-.144-.687-1-4.781-2.246-10.745,11.257-4.1,14.451-14.437,12.147-21.987m-25.8-43.339c-1.826-8.734,2.388-21.881,8.265-23.109,2.7-.564,3.973,3.147,3.973,3.147,1.81,8.663-4.02,16.5-11.293,24.482-.493-2.361-.827-3.957-.945-4.52m8.444,64.2c-16.517,3.451-23.118-13.07-23.118-13.07-3.265-15.626,6.86-22.994,16.33-32.106.722,3.454,1.491,7.135,2.28,10.909-7.468,2.455-13.856,11-10.208,20.327,2.919,7.463,11.033,5.949,11.033,5.949s-5.349-.619-7.355-5.409c-2.6-6.194,1.858-11.6,8.061-13.541,1.965,9.4,3.935,18.83,5.489,26.271a23.236,23.236,0,0,1-2.512.67M104.293,165c-1.522-7.28-3.482-16.656-5.421-25.936,6.539-.805,11.906,6.981,12.549,10.057.578,2.763,1.686,11.7-7.128,15.879" fill="#12263f"/>
      <path id="Trazado_634392" data-name="Trazado 634392" d="M175.492,155.426c1.418,2.979,6.187,3.747,10.656,1.72,3.609-1.638,5.918-4.6,5.93-7.244l0-.012V109.816a.777.777,0,0,0-1.553,0v36.8c-2.074-1.709-5.888-1.9-9.506-.256-4.468,2.03-6.944,6.087-5.529,9.064" fill="#12263f"/>
      <path id="Trazado_634393" data-name="Trazado 634393" d="M285.871,115.1c-1.418-2.979-6.187-3.747-10.656-1.72-3.609,1.638-5.918,4.6-5.93,7.244l0,.012v40.074a.777.777,0,0,0,1.553,0v-36.8c2.074,1.709,5.888,1.9,9.506.256,4.468-2.03,6.944-6.087,5.529-9.064" fill="#12263f"/>
      <path id="Trazado_634394" data-name="Trazado 634394" d="M358.469,134.538c0,8.9-12.6,10.407-13.685,15.368v-26.06c2.165,1.546,5.865,1.677,9.4.072,4.555-2.069,7.084-6.2,5.637-9.242s-6.308-3.817-10.861-1.753c-3.678,1.671-6.028,4.688-6.042,7.386l0,.012v40.848a.781.781,0,0,0,.788.773.382.382,0,0,1,.292,0,.781.781,0,0,0,.788-.773v-.8c.264-2.336,1.411-8.721,6.218-11.976,5.462-3.7,8.227-6.76,8.227-13.163a19.14,19.14,0,0,0-3.035-10.549,22.665,22.665,0,0,1,2.275,9.861" fill="#12263f"/>
      <rect id="Rectángulo_396334" data-name="Rectángulo 396334" width="1.813" height="66.102" transform="translate(243.932 93.187)" fill="#12263f"/>
      <rect id="Rectángulo_396335" data-name="Rectángulo 396335" width="1.813" height="66.102" transform="translate(466.402 93.187)" fill="#12263f"/>
      <rect id="Rectángulo_396336" data-name="Rectángulo 396336" width="1.813" height="66.102" transform="translate(635.811 93.187)" fill="#12263f"/>
      <rect id="Rectángulo_396337" data-name="Rectángulo 396337" width="1.813" height="66.102" transform="translate(829.113 93.187)" fill="#12263f"/>
      <rect id="Rectángulo_396338" data-name="Rectángulo 396338" width="1.813" height="66.102" transform="translate(938.085 93.187)" fill="#12263f"/>
      <path id="Trazado_634395" data-name="Trazado 634395" d="M485.284,147.309a.8.8,0,0,0,.8-.8v-38.79c2.14,1.8,6.066,2,9.786.272,4.6-2.138,7.155-6.415,5.7-9.555s-6.374-3.947-10.973-1.813c-3.712,1.727-6.091,4.847-6.105,7.638l0,.011v42.237a.8.8,0,0,0,.8.8m6.687-48.028c4.068-2.034,7.959-2.491,8.695-1.019s-1.961,4.311-6.024,6.347-7.958,2.492-8.693,1.019,1.957-4.314,6.022-6.347" fill="#12263f"/>
      <path id="Trazado_634396" data-name="Trazado 634396" d="M150.55,130.158c0-2.84-1.808-8.7-7.318-8.7-4.749,0-7.227,2.308-8.292,3.7V102.887a.689.689,0,0,0-1.378,0v44.077a.688.688,0,0,0,.689.689.585.585,0,0,0,.156-.032c2.308-.281,16.143-7.833,16.143-17.463m-15.61,15.795V127.9c1.311-.7,4.281-2.165,6.054-2.165a4.469,4.469,0,0,1,4.391,4.764c0,8.364-8.063,13.973-10.445,15.45" fill="#12263f"/>
      <path id="Trazado_634397" data-name="Trazado 634397" d="M169.577,100.769c0-2.84-1.807-8.7-7.319-8.7-4.749,0-7.226,2.309-8.292,3.7V73.5a.688.688,0,1,0-1.377,0v44.077a.688.688,0,0,0,.689.689.61.61,0,0,0,.155-.032c2.309-.281,16.144-7.833,16.144-17.463m-15.611,15.8V98.515c1.311-.7,4.281-2.165,6.055-2.165a4.469,4.469,0,0,1,4.39,4.764c0,8.364-8.062,13.973-10.445,15.45" fill="#12263f"/>
      <path id="Trazado_634398" data-name="Trazado 634398" d="M294.067,115.232a2.925,2.925,0,1,1-2.925-2.925,2.926,2.926,0,0,1,2.925,2.925" fill="#12263f"/>
      <path id="Trazado_634399" data-name="Trazado 634399" d="M396.42,99.611c-1.418-2.979-6.187-3.747-10.656-1.72-3.609,1.638-5.918,4.6-5.93,7.244l0,.012v40.074a.777.777,0,0,0,1.553,0v-36.8c2.074,1.709,5.888,1.9,9.506.256,4.468-2.03,6.944-6.087,5.529-9.064" fill="#12263f"/>
      <path id="Trazado_634400" data-name="Trazado 634400" d="M434.808,99.611c-1.418-2.979-6.187-3.747-10.656-1.72-3.609,1.638-5.918,4.6-5.93,7.244l0,.012v40.074a.777.777,0,0,0,1.553,0v-36.8c2.074,1.709,5.888,1.9,9.506.256,4.468-2.03,6.944-6.087,5.529-9.064" fill="#12263f"/>
      <path id="Trazado_634401" data-name="Trazado 634401" d="M566.62,104.887c-1.418-2.979-6.187-3.747-10.656-1.72-3.609,1.638-5.918,4.6-5.93,7.244l0,.012V150.5a.777.777,0,0,0,1.553,0v-36.8c2.074,1.709,5.888,1.9,9.506.256,4.468-2.03,6.944-6.087,5.529-9.064" fill="#12263f"/>
      <path id="Trazado_634402" data-name="Trazado 634402" d="M615.88,90.488c-1.418-2.979-6.187-3.747-10.656-1.72-3.609,1.638-5.918,4.6-5.93,7.244l0,.012V136.1a.777.777,0,0,0,1.553,0V99.3c2.074,1.709,5.888,1.9,9.506.256,4.468-2.03,6.944-6.087,5.529-9.064" fill="#12263f"/>
      <path id="Trazado_634403" data-name="Trazado 634403" d="M664.644,90.488c-1.418-2.979-6.187-3.747-10.656-1.72-3.609,1.638-5.918,4.6-5.93,7.244l0,.012V136.1a.777.777,0,0,0,1.553,0V99.3c2.074,1.709,5.888,1.9,9.506.256,4.468-2.03,6.944-6.087,5.529-9.064" fill="#12263f"/>
      <path id="Trazado_634404" data-name="Trazado 634404" d="M672.841,90.622a2.925,2.925,0,1,1-2.925-2.925,2.925,2.925,0,0,1,2.925,2.925" fill="#12263f"/>
      <path id="Trazado_634405" data-name="Trazado 634405" d="M720.664,111.165c0,8.9-12.6,10.407-13.685,15.368v-26.06c2.165,1.546,5.865,1.677,9.4.072,4.555-2.069,7.084-6.2,5.637-9.242s-6.308-3.817-10.861-1.753c-3.678,1.671-6.028,4.688-6.042,7.386l0,.012V137.8a.781.781,0,0,0,.788.773.382.382,0,0,1,.292,0,.781.781,0,0,0,.788-.773v-.8c.264-2.336,1.411-8.721,6.218-11.976,5.462-3.7,8.227-6.76,8.227-13.163a19.14,19.14,0,0,0-3.035-10.549,22.665,22.665,0,0,1,2.275,9.861" fill="#12263f"/>
      <path id="Trazado_634406" data-name="Trazado 634406" d="M753.807,99.611c-1.418-2.979-6.187-3.747-10.656-1.72-3.609,1.638-5.918,4.6-5.93,7.244l0,.012v40.074a.777.777,0,0,0,1.553,0v-36.8c2.074,1.709,5.888,1.9,9.506.256,4.468-2.03,6.944-6.087,5.529-9.064" fill="#12263f"/>
      <path id="Trazado_634407" data-name="Trazado 634407" d="M796.273,113.176c-1.419-2.979-6.187-3.747-10.656-1.72-3.609,1.638-5.918,4.6-5.93,7.244l0,.012v40.074a.777.777,0,0,0,1.553,0v-36.8c2.074,1.709,5.888,1.9,9.506.256,4.468-2.03,6.944-6.087,5.529-9.064" fill="#12263f"/>
      <path id="Trazado_634408" data-name="Trazado 634408" d="M853.727,162.2a.8.8,0,0,0,.8-.8v-38.79c2.14,1.8,6.066,2,9.786.272,4.6-2.138,7.155-6.415,5.7-9.555s-6.374-3.947-10.973-1.813c-3.712,1.727-6.091,4.847-6.105,7.638l0,.011V161.4a.8.8,0,0,0,.8.8m6.687-48.028c4.068-2.034,7.959-2.491,8.7-1.019s-1.961,4.311-6.024,6.347-7.958,2.492-8.693,1.019,1.957-4.314,6.022-6.347" fill="#12263f"/>
      <path id="Trazado_634409" data-name="Trazado 634409" d="M544.89,83.848a38.029,38.029,0,0,0-3.157-2.575l-1.775-1.333q-1.017-.688-2.211-1.5c-1.572-1.108-3.472-2.24-5.574-3.541-2.073-1.349-4.549-2.546-7.139-4.011-2.63-1.4-5.577-2.721-8.661-4.234-3.169-1.349-6.542-2.773-10.114-4.219-3.646-1.272-7.417-2.764-11.43-4.1-4.055-1.211-8.237-2.6-12.635-3.805-4.432-1.086-8.971-2.358-13.693-3.442L453.884,48.13q-7.543-1.168-15.393-2.391c-10.5-1.282-21.367-2.494-32.47-3.049l-8.345-.543c-2.794-.122-5.6-.128-8.416-.2-5.6-.072-11.313-.3-16.869-.247l-16.995.333-4.23.091-4.182.272-8.326.54q-4.147.269-8.26.537-4.105.432-8.166.867c-5.409.613-10.781,1.015-15.991,1.937l-7.771,1.2c-2.568.4-5.119.754-7.605,1.3-4.982,1.029-9.9,1.886-14.614,2.989-4.694,1.194-9.287,2.279-13.692,3.467-4.36,1.322-8.61,2.512-12.637,3.813-3.98,1.427-7.837,2.705-11.44,4.081-3.565,1.469-7.016,2.721-10.145,4.153a169.637,169.637,0,0,0-15.938,8c-2.149,1.225-4.052,2.353-5.662,3.406-1.643,1-2.985,1.942-4.068,2.71-2.174,1.527-3.25,2.459-3.25,2.459s1.012-1,3.085-2.673c1.037-.839,2.318-1.87,3.9-2.985.786-.564,1.612-1.2,2.529-1.821l2.966-1.921a171.245,171.245,0,0,1,15.653-8.842c3.085-1.6,6.5-3.033,10.026-4.7,3.574-1.563,7.428-2.962,11.4-4.557C253,54.9,257.25,53.539,261.62,52.045c4.411-1.353,9.031-2.543,13.753-3.881,4.746-1.237,9.686-2.232,14.705-3.4,2.5-.621,5.072-1.033,7.663-1.468l7.843-1.335c5.262-1.013,10.679-1.5,16.138-2.211l8.245-1,8.387-.59,8.452-.588,4.246-.3,4.234-.114q8.478-.207,17-.412c5.792-.028,11.425.231,17.122.334,2.839.083,5.674.1,8.5.24q4.229.3,8.433.593c11.217.583,22.184,2.084,32.783,3.512l15.528,2.706q7.531,1.723,14.717,3.371c4.747,1.229,9.324,2.6,13.762,3.86,4.406,1.371,8.594,2.932,12.646,4.3,4.006,1.506,7.789,3.109,11.4,4.579,3.543,1.638,6.879,3.243,10,4.759,3.046,1.682,5.945,3.157,8.526,4.695,2.545,1.608,4.967,2.931,6.992,4.394,2.06,1.4,3.906,2.645,5.405,3.876.763.592,1.469,1.143,2.115,1.646l1.7,1.452a38.834,38.834,0,0,1,2.987,2.783" fill="#12263f"/>
      <path id="Trazado_634410" data-name="Trazado 634410" d="M859.853,83.848a31.994,31.994,0,0,0-2.662-2.172l-1.5-1.123q-.856-.581-1.864-1.264c-1.326-.934-2.928-1.889-4.7-2.985-1.748-1.138-3.835-2.148-6.019-3.383-2.218-1.18-4.7-2.294-7.3-3.57-2.672-1.137-5.517-2.338-8.528-3.557-3.075-1.073-6.255-2.331-9.639-3.457-3.419-1.022-6.946-2.2-10.654-3.209-3.737-.915-7.565-1.988-11.547-2.9l-12.325-2.5q-6.361-.986-12.98-2.016c-8.856-1.082-18.017-2.1-27.38-2.571l-7.037-.458c-2.356-.1-4.726-.108-7.1-.167-4.724-.06-9.539-.253-14.224-.208l-14.331.28-3.567.078-3.527.229-7.021.455q-3.5.226-6.965.453-3.461.365-6.886.731c-4.56.517-9.091.856-13.484,1.633l-6.553,1.013c-2.165.336-4.316.636-6.412,1.092-4.2.867-8.345,1.59-12.324,2.52-3.958,1.007-7.831,1.922-11.545,2.924-3.677,1.115-7.26,2.118-10.657,3.215-3.355,1.2-6.607,2.282-9.646,3.442-3.006,1.238-5.916,2.294-8.555,3.5a143.449,143.449,0,0,0-13.44,6.742c-1.811,1.033-3.416,1.984-4.774,2.872-1.385.847-2.517,1.638-3.43,2.285-1.834,1.288-2.741,2.074-2.741,2.074s.854-.843,2.6-2.254c.874-.708,1.955-1.577,3.287-2.517.663-.476,1.36-1.009,2.133-1.536q1.179-.762,2.5-1.62a144.288,144.288,0,0,1,13.2-7.455c2.6-1.352,5.479-2.558,8.455-3.96,3.014-1.318,6.264-2.5,9.616-3.842,3.393-1.231,6.973-2.374,10.658-3.634,3.72-1.141,7.615-2.144,11.6-3.272,4-1.044,8.168-1.882,12.4-2.868,2.112-.524,4.278-.872,6.463-1.238l6.613-1.126c4.437-.854,9.005-1.269,13.608-1.864l6.953-.847,7.072-.5q3.549-.249,7.128-.5l3.58-.249,3.57-.1q7.149-.174,14.332-.348c4.883-.023,9.634.2,14.438.282,2.394.07,4.785.088,7.165.2q3.566.25,7.11.5c9.459.491,18.708,1.757,27.644,2.961l13.094,2.282L796.165,53.2c4,1.037,7.862,2.195,11.6,3.256,3.716,1.155,7.247,2.472,10.664,3.627,3.378,1.27,6.568,2.622,9.611,3.861,2.988,1.382,5.8,2.735,8.434,4.013,2.569,1.419,5.013,2.662,7.19,3.959,2.146,1.356,4.188,2.472,5.9,3.705,1.737,1.186,3.293,2.231,4.558,3.269q.965.749,1.783,1.388.789.673,1.429,1.225a32.661,32.661,0,0,1,2.519,2.346" fill="#12263f"/>
      <path id="Trazado_634411" data-name="Trazado 634411" d="M900.3,100.687s10.834,6.084,10.834,11.576-7.422,7.122-7.422,10.684,7.645,9.869,6.977,10.537c-.817.818-8.458-3.266-10.094-1.632-2.894,2.894,2.525,9.346,1.636,10.239s-6.533-7.274-6.533-11.131,1.93-4.154,4.6-3.263a40.931,40.931,0,0,1,6.678,3.413s-9.644-6.381-9.644-11.129,7.268-4.6,7.268-9.054c0-4.007-4.3-10.24-4.3-10.24" fill="#12263f"/>
    </g>
  </g>
</svg>
