<svg id="Grupo_1101453" data-name="Grupo 1101453" xmlns="http://www.w3.org/2000/svg" xmlns:xlink="http://www.w3.org/1999/xlink" width="400" height="392.535" viewBox="0 0 400 392.535">
  <defs>
    <clipPath id="clip-path">
      <rect id="Rectángulo_396226" data-name="Rectángulo 396226" width="400" height="392.535" fill="none"/>
    </clipPath>
  </defs>
  <path id="Trazado_634850" data-name="Trazado 634850" d="M0,0H400V392.534H0Z" transform="translate(0 0.001)" fill="#faebc4"/>
  <path id="Trazado_634851" data-name="Trazado 634851" d="M0,0H386.934V.355H0Z" transform="translate(5.518 16.088)" fill="#12263f"/>
  <path id="Trazado_634852" data-name="Trazado 634852" d="M0,0H386.934V.355H0Z" transform="translate(5.518 19.636)" fill="#12263f"/>
  <path id="Trazado_634853" data-name="Trazado 634853" d="M0,0H386.934V.355H0Z" transform="translate(5.518 23.184)" fill="#12263f"/>
  <path id="Trazado_634854" data-name="Trazado 634854" d="M0,0H386.934V.355H0Z" transform="translate(5.518 26.731)" fill="#12263f"/>
  <path id="Trazado_634855" data-name="Trazado 634855" d="M0,0H386.934V.355H0Z" transform="translate(5.518 30.279)" fill="#12263f"/>
  <g id="Grupo_1101452" data-name="Grupo 1101452">
    <g id="Grupo_1101451" data-name="Grupo 1101451" clip-path="url(#clip-path)">
      <path id="Trazado_634191" data-name="Trazado 634191" d="M12.724,28.293c1.6.01,2.9-.792,2.9-1.792s-1.284-1.819-2.882-1.829-2.9.793-2.9,1.792,1.284,1.819,2.882,1.829m-.378-3.359c.57-.145,1.207.433,1.423,1.289s-.073,1.666-.643,1.809S11.918,27.6,11.7,26.743s.073-1.666.644-1.809" fill="#12263f"/>
      <rect id="Rectángulo_396196" data-name="Rectángulo 396196" width="386.934" height="0.342" transform="translate(5.518 70.897)" fill="#12263f"/>
      <rect id="Rectángulo_396197" data-name="Rectángulo 396197" width="386.934" height="0.342" transform="translate(5.518 74.314)" fill="#12263f"/>
      <rect id="Rectángulo_396198" data-name="Rectángulo 396198" width="386.934" height="0.342" transform="translate(5.518 77.732)" fill="#12263f"/>
      <rect id="Rectángulo_396199" data-name="Rectángulo 396199" width="386.934" height="0.342" transform="translate(5.518 81.149)" fill="#12263f"/>
      <rect id="Rectángulo_396200" data-name="Rectángulo 396200" width="386.934" height="0.342" transform="translate(5.518 84.567)" fill="#12263f"/>
      <path id="Trazado_634192" data-name="Trazado 634192" d="M14.485,69.531a.213.213,0,0,0-.213.214V80.066a2.528,2.528,0,0,0-2.6-.071c-1.224.569-1.9,1.706-1.515,2.541s1.7,1.05,2.92.484A2.542,2.542,0,0,0,14.7,80.986V69.745a.214.214,0,0,0-.212-.214M12.7,82.311c-1.082.541-2.118.663-2.314.271s.522-1.147,1.6-1.689,2.118-.663,2.313-.271-.52,1.149-1.6,1.689" fill="#12263f"/>
      <path id="Trazado_634193" data-name="Trazado 634193" d="M206.241,69.531a.213.213,0,0,0-.213.214V80.066a2.528,2.528,0,0,0-2.6-.071c-1.224.569-1.9,1.706-1.515,2.541s1.7,1.05,2.92.484a2.542,2.542,0,0,0,1.624-2.034V69.745a.214.214,0,0,0-.212-.214m-1.78,12.78c-1.082.541-2.118.663-2.314.271s.522-1.147,1.6-1.689,2.118-.663,2.313-.271-.52,1.149-1.6,1.689" fill="#12263f"/>
      <rect id="Rectángulo_396201" data-name="Rectángulo 396201" width="386.934" height="0.346" transform="translate(5.518 126.138)" fill="#12263f"/>
      <rect id="Rectángulo_396202" data-name="Rectángulo 396202" width="386.934" height="0.346" transform="translate(5.518 129.596)" fill="#12263f"/>
      <rect id="Rectángulo_396203" data-name="Rectángulo 396203" width="386.934" height="0.346" transform="translate(5.518 133.054)" fill="#12263f"/>
      <rect id="Rectángulo_396204" data-name="Rectángulo 396204" width="386.934" height="0.346" transform="translate(5.518 136.512)" fill="#12263f"/>
      <rect id="Rectángulo_396205" data-name="Rectángulo 396205" width="386.934" height="0.346" transform="translate(5.518 139.97)" fill="#12263f"/>
      <path id="Trazado_634194" data-name="Trazado 634194" d="M9.947,138.1c.392.845,1.716,1.064,2.955.488a2.563,2.563,0,0,0,1.643-2.056V125.155a.215.215,0,0,0-.43,0V135.6a2.561,2.561,0,0,0-2.635-.072c-1.24.576-1.927,1.727-1.534,2.572" fill="#12263f"/>
      <path id="Trazado_634195" data-name="Trazado 634195" d="M105.365,138.1c.392.845,1.716,1.064,2.955.488a2.563,2.563,0,0,0,1.643-2.056V125.155a.215.215,0,0,0-.43,0V135.6a2.561,2.561,0,0,0-2.635-.072c-1.24.576-1.927,1.727-1.534,2.572" fill="#12263f"/>
      <path id="Trazado_634196" data-name="Trazado 634196" d="M201.813,137.967c.392.845,1.716,1.063,2.955.488a2.563,2.563,0,0,0,1.643-2.056V125.022a.215.215,0,1,0-.43,0v10.445a2.561,2.561,0,0,0-2.635-.072c-1.24.576-1.927,1.727-1.534,2.572" fill="#12263f"/>
      <path id="Trazado_634197" data-name="Trazado 634197" d="M297.249,138.1c.392.845,1.716,1.064,2.955.488a2.563,2.563,0,0,0,1.643-2.056V125.155a.215.215,0,0,0-.43,0V135.6a2.561,2.561,0,0,0-2.635-.072c-1.24.576-1.927,1.727-1.534,2.572" fill="#12263f"/>
      <rect id="Rectángulo_396206" data-name="Rectángulo 396206" width="386.934" height="0.344" transform="translate(5.518 177.181)" fill="#12263f"/>
      <rect id="Rectángulo_396207" data-name="Rectángulo 396207" width="386.934" height="0.344" transform="translate(5.518 180.622)" fill="#12263f"/>
      <rect id="Rectángulo_396208" data-name="Rectángulo 396208" width="386.934" height="0.344" transform="translate(5.518 184.063)" fill="#12263f"/>
      <rect id="Rectángulo_396209" data-name="Rectángulo 396209" width="386.934" height="0.344" transform="translate(5.518 187.503)" fill="#12263f"/>
      <rect id="Rectángulo_396210" data-name="Rectángulo 396210" width="386.934" height="0.344" transform="translate(5.518 190.944)" fill="#12263f"/>
      <path id="Trazado_634198" data-name="Trazado 634198" d="M157.923,176.214H13.764v9.937a2.351,2.351,0,0,0-2.419-.066c-1.138.528-1.768,1.586-1.407,2.361s1.575.977,2.712.448a2.353,2.353,0,0,0,1.508-1.888v-9.368H61.775v8.513a2.349,2.349,0,0,0-2.418-.066c-1.138.528-1.769,1.586-1.409,2.361s1.576.977,2.713.448a2.352,2.352,0,0,0,1.509-1.888v-.014l0-9.354h47.014v8.513a2.348,2.348,0,0,0-2.418-.066c-1.138.528-1.768,1.586-1.408,2.361s1.576.977,2.713.448a2.351,2.351,0,0,0,1.508-1.888v-.014l0-9.354h47.958v8.513a2.347,2.347,0,0,0-2.417-.066c-1.139.528-1.769,1.586-1.409,2.361s1.576.977,2.713.448a2.354,2.354,0,0,0,1.509-1.888v-.014Z" fill="#12263f"/>
      <path id="Trazado_634199" data-name="Trazado 634199" d="M350.2,176.214H206.043v9.937a2.351,2.351,0,0,0-2.419-.066c-1.138.528-1.768,1.586-1.407,2.361s1.575.977,2.712.448a2.353,2.353,0,0,0,1.508-1.888v-9.368h47.616v8.513a2.349,2.349,0,0,0-2.418-.066c-1.138.528-1.769,1.586-1.409,2.361s1.576.977,2.713.448a2.352,2.352,0,0,0,1.509-1.888v-.014l0-9.354H301.46v8.513a2.348,2.348,0,0,0-2.418-.066c-1.138.528-1.768,1.586-1.408,2.361s1.576.977,2.713.448a2.351,2.351,0,0,0,1.508-1.888v-.014l0-9.354H349.81v8.513a2.347,2.347,0,0,0-2.417-.066c-1.139.528-1.769,1.586-1.409,2.361s1.576.977,2.713.448a2.354,2.354,0,0,0,1.509-1.888v-.014Z" fill="#12263f"/>
      <rect id="Rectángulo_396211" data-name="Rectángulo 396211" width="386.934" height="0.333" transform="translate(5.518 230.24)" fill="#12263f"/>
      <rect id="Rectángulo_396212" data-name="Rectángulo 396212" width="386.934" height="0.333" transform="translate(5.518 233.569)" fill="#12263f"/>
      <rect id="Rectángulo_396213" data-name="Rectángulo 396213" width="386.934" height="0.333" transform="translate(5.518 236.898)" fill="#12263f"/>
      <rect id="Rectángulo_396214" data-name="Rectángulo 396214" width="386.934" height="0.333" transform="translate(5.518 240.226)" fill="#12263f"/>
      <rect id="Rectángulo_396215" data-name="Rectángulo 396215" width="386.934" height="0.333" transform="translate(5.518 243.555)" fill="#12263f"/>
      <path id="Trazado_634200" data-name="Trazado 634200" d="M86.271,228.186H14.187v11a2.607,2.607,0,0,0-2.68-.074c-1.259.585-1.958,1.756-1.559,2.615s1.745,1.082,3,.5a2.607,2.607,0,0,0,1.672-2.09v-7.812H37.953v6.865a2.6,2.6,0,0,0-2.678-.074c-1.261.585-1.959,1.756-1.559,2.615s1.744,1.082,3,.5a2.6,2.6,0,0,0,1.67-2.09v-.016l0-7.8h23.8v6.865a2.6,2.6,0,0,0-2.678-.074c-1.261.585-1.959,1.756-1.559,2.615s1.744,1.082,3,.5a2.6,2.6,0,0,0,1.67-2.09v-.016l0-7.8H85.837v6.865a2.6,2.6,0,0,0-2.678-.074c-1.26.585-1.958,1.756-1.559,2.615s1.745,1.082,3,.5a2.6,2.6,0,0,0,1.671-2.09v-.016l0-7.8m-51.384-1.578H14.624v-.985H37.953v.985Zm24.476,0H38.387v-.985h23.8v.985Zm23.29,0H62.625v-.985H85.837v.985Zm3.617,0v-.985" fill="#12263f"/>
      <path id="Trazado_634201" data-name="Trazado 634201" d="M181.743,228.186H109.659v11a2.607,2.607,0,0,0-2.68-.074c-1.259.585-1.958,1.756-1.559,2.615s1.745,1.082,3,.5a2.607,2.607,0,0,0,1.672-2.09v-7.812h23.329v6.865a2.6,2.6,0,0,0-2.678-.074c-1.261.585-1.959,1.756-1.559,2.615s1.744,1.082,3,.5a2.6,2.6,0,0,0,1.67-2.09v-.016l0-7.8h23.8v6.865a2.6,2.6,0,0,0-2.678-.074c-1.261.585-1.959,1.756-1.559,2.615s1.744,1.082,3,.5a2.6,2.6,0,0,0,1.67-2.09v-.016l0-7.8h23.211v6.865a2.6,2.6,0,0,0-2.678-.074c-1.26.585-1.958,1.756-1.559,2.615s1.745,1.082,3,.5a2.6,2.6,0,0,0,1.671-2.09v-.016l0-7.8m-51.384-1.578H110.1v-.985h23.329v.985Zm24.476,0H133.859v-.985h23.8v.985Zm23.29,0H158.1v-.985h23.212v.985Zm3.617,0v-.985" fill="#12263f"/>
      <path id="Trazado_634202" data-name="Trazado 634202" d="M277.921,228.186H205.837v11a2.607,2.607,0,0,0-2.68-.074c-1.259.585-1.958,1.756-1.559,2.615s1.745,1.082,3,.5a2.607,2.607,0,0,0,1.672-2.09v-7.812H229.6v6.865a2.6,2.6,0,0,0-2.678-.074c-1.261.585-1.959,1.756-1.559,2.615s1.744,1.082,3,.5a2.6,2.6,0,0,0,1.67-2.09v-.016l0-7.8h23.8v6.865a2.6,2.6,0,0,0-2.678-.074c-1.261.585-1.959,1.756-1.559,2.615s1.744,1.082,3,.5a2.6,2.6,0,0,0,1.67-2.09v-.016l0-7.8h23.211v6.865a2.6,2.6,0,0,0-2.678-.074c-1.26.585-1.958,1.756-1.559,2.615s1.745,1.082,3,.5a2.6,2.6,0,0,0,1.671-2.09v-.016l0-7.8m-51.384-1.578H206.274v-.985H229.6v.985Zm24.476,0H230.037v-.985h23.8v.985Zm23.29,0h-20.03v-.985h23.212v.985Zm3.617,0v-.985" fill="#12263f"/>
      <path id="Trazado_634203" data-name="Trazado 634203" d="M373.584,228.186H301.5v11a2.607,2.607,0,0,0-2.68-.074c-1.259.585-1.958,1.756-1.559,2.615s1.745,1.082,3,.5a2.607,2.607,0,0,0,1.672-2.09v-7.812h23.329v6.865a2.6,2.6,0,0,0-2.678-.074c-1.261.585-1.959,1.756-1.559,2.615s1.744,1.082,3,.5a2.6,2.6,0,0,0,1.67-2.09v-.016l0-7.8h23.8v6.865a2.6,2.6,0,0,0-2.678-.074c-1.261.585-1.959,1.756-1.559,2.615s1.744,1.082,3,.5a2.6,2.6,0,0,0,1.67-2.09v-.016l0-7.8H373.15v6.865a2.6,2.6,0,0,0-2.678-.074c-1.26.585-1.958,1.756-1.559,2.615s1.745,1.082,3,.5a2.6,2.6,0,0,0,1.671-2.09v-.016l0-7.8M322.2,230.748H301.937v-.985h23.329v.985Zm24.476,0H325.7v-.985h23.8v.985Zm23.29,0h-20.03v-.985H373.15v.985Zm3.617,0v-.985" fill="#12263f"/>
      <rect id="Rectángulo_396216" data-name="Rectángulo 396216" width="386.934" height="0.319" transform="translate(5.518 281.81)" fill="#12263f"/>
      <rect id="Rectángulo_396217" data-name="Rectángulo 396217" width="386.934" height="0.319" transform="translate(5.518 285.003)" fill="#12263f"/>
      <rect id="Rectángulo_396218" data-name="Rectángulo 396218" width="386.934" height="0.319" transform="translate(5.518 288.195)" fill="#12263f"/>
      <rect id="Rectángulo_396219" data-name="Rectángulo 396219" width="386.934" height="0.319" transform="translate(5.518 291.388)" fill="#12263f"/>
      <rect id="Rectángulo_396220" data-name="Rectángulo 396220" width="386.934" height="0.319" transform="translate(5.518 294.581)" fill="#12263f"/>
      <path id="Trazado_634204" data-name="Trazado 634204" d="M194.468,285.189l0-7.4H110.109v12.145a2.874,2.874,0,0,0-2.957-.081c-1.39.645-2.16,1.938-1.72,2.885s1.925,1.194,3.315.548a2.874,2.874,0,0,0,1.844-2.307v-5.787h11.571v4.742a2.874,2.874,0,0,0-2.957-.081c-1.39.645-2.16,1.938-1.721,2.885s1.926,1.194,3.315.548a2.879,2.879,0,0,0,1.846-2.307v-.018l0-5.769h11.579v4.742a2.874,2.874,0,0,0-2.957-.081c-1.39.645-2.16,1.938-1.721,2.885s1.926,1.194,3.316.548a2.876,2.876,0,0,0,1.844-2.307v-.018l0-5.769h11.2v4.662a2.23,2.23,0,0,0-1.271-.358,3.653,3.653,0,0,0-1.685.357c-1.391.645-2.161,1.938-1.721,2.885a1.863,1.863,0,0,0,1.83.9,3.691,3.691,0,0,0,1.6-.356,2.876,2.876,0,0,0,1.844-2.307v-5.787h11.571v4.742a2.872,2.872,0,0,0-2.956-.081c-1.39.645-2.16,1.938-1.721,2.885s1.926,1.194,3.315.548a2.875,2.875,0,0,0,1.845-2.307v-.018l0-5.769h11.578v4.742a2.872,2.872,0,0,0-2.956-.081c-1.39.645-2.16,1.938-1.721,2.885s1.926,1.194,3.315.548a2.875,2.875,0,0,0,1.845-2.307v-.018l0-5.769h11.2v4.662a2.231,2.231,0,0,0-1.272-.358,3.649,3.649,0,0,0-1.684.357c-1.391.645-2.161,1.938-1.722,2.885a1.864,1.864,0,0,0,1.83.9,3.7,3.7,0,0,0,1.6-.356,2.878,2.878,0,0,0,1.844-2.307v-5.787h11.571v4.742a2.872,2.872,0,0,0-2.956-.081c-1.391.645-2.161,1.938-1.722,2.885s1.926,1.194,3.316.548a2.877,2.877,0,0,0,1.845-2.307v-.018Zm-72.305-1.74H110.592v-1.1h11.571Zm0-2.836H110.592v-1.087h11.571Zm12.06,2.836h-11.58v-1.1h11.58Zm0-2.836H122.642v-1.087h11.581Zm11.68-1.087v1.087H134.7v-1.087Zm-11.2,3.923v-1.1h11.2v1.1Zm23.371,0H146.5v-1.1h11.571Zm0-2.836H146.5v-1.087h11.571Zm12.06,2.836H158.555v-1.1h11.579Zm0-2.836h-11.58v-1.087h11.58Zm11.681-1.087v1.087h-11.2v-1.087Zm-11.2,3.923v-1.1h11.2v1.1Zm23.371,0H182.415v-1.1h11.571Zm0-2.836H182.415v-1.087h11.571Z" fill="#12263f"/>
      <path id="Trazado_634205" data-name="Trazado 634205" d="M290.131,285.189l0-7.4H205.772v12.145a2.874,2.874,0,0,0-2.957-.081c-1.39.645-2.16,1.938-1.72,2.885s1.925,1.194,3.315.548a2.874,2.874,0,0,0,1.844-2.307v-5.787h11.571v4.742a2.874,2.874,0,0,0-2.957-.081c-1.39.645-2.16,1.938-1.721,2.885s1.926,1.194,3.315.548a2.879,2.879,0,0,0,1.846-2.307v-.018l0-5.769h11.579v4.742a2.874,2.874,0,0,0-2.957-.081c-1.39.645-2.16,1.938-1.721,2.885s1.926,1.194,3.316.548a2.879,2.879,0,0,0,1.845-2.307v-.018l0-5.769h11.2v4.662a2.23,2.23,0,0,0-1.271-.358,3.653,3.653,0,0,0-1.685.357c-1.391.645-2.161,1.938-1.721,2.885a1.863,1.863,0,0,0,1.83.9,3.691,3.691,0,0,0,1.6-.356,2.876,2.876,0,0,0,1.844-2.307v-5.787h11.571v4.742a2.872,2.872,0,0,0-2.956-.081c-1.39.645-2.16,1.938-1.721,2.885s1.926,1.194,3.315.548a2.875,2.875,0,0,0,1.845-2.307v-.018l0-5.769H265.8v4.742a2.874,2.874,0,0,0-2.957-.081c-1.39.645-2.16,1.938-1.721,2.885s1.926,1.194,3.315.548a2.875,2.875,0,0,0,1.845-2.307v-.018l0-5.769h11.2v4.662a2.231,2.231,0,0,0-1.272-.358,3.649,3.649,0,0,0-1.684.357c-1.391.645-2.161,1.938-1.722,2.885a1.864,1.864,0,0,0,1.83.9,3.7,3.7,0,0,0,1.6-.356,2.878,2.878,0,0,0,1.844-2.307v-5.787h11.571v4.742a2.872,2.872,0,0,0-2.956-.081c-1.391.645-2.161,1.938-1.722,2.885s1.926,1.194,3.316.548a2.877,2.877,0,0,0,1.845-2.307v-.018Zm-72.305-1.74H206.255v-1.1h11.571Zm0-2.836H206.255v-1.087h11.571Zm12.06,2.836h-11.58v-1.1h11.58Zm0-2.836H218.3v-1.087h11.581Zm11.68-1.087v1.087h-11.2v-1.087Zm-11.2,3.923v-1.1h11.2v1.1Zm23.371,0H242.166v-1.1h11.571Zm0-2.836H242.166v-1.087h11.571Zm12.061,2.836h-11.58v-1.1H265.8Zm0-2.836H254.217v-1.087H265.8Zm11.68-1.087v1.087h-11.2v-1.087Zm-11.2,3.923v-1.1h11.2v1.1Zm23.371,0H278.078v-1.1h11.571Zm0-2.836H278.078v-1.087h11.571Z" fill="#12263f"/>
      <path id="Trazado_634206" data-name="Trazado 634206" d="M385.794,285.189l0-7.4H301.435v12.145a2.874,2.874,0,0,0-2.957-.081c-1.39.645-2.16,1.938-1.72,2.885s1.925,1.194,3.315.548a2.874,2.874,0,0,0,1.844-2.307v-5.787h11.571v4.742a2.874,2.874,0,0,0-2.957-.081c-1.39.645-2.16,1.938-1.721,2.885s1.926,1.194,3.315.548a2.876,2.876,0,0,0,1.845-2.307v-.018l0-5.769h11.579v4.742a2.874,2.874,0,0,0-2.957-.081c-1.39.645-2.16,1.938-1.721,2.885s1.926,1.194,3.316.548a2.876,2.876,0,0,0,1.844-2.307v-.018l0-5.769h11.2v4.662a2.23,2.23,0,0,0-1.271-.358,3.653,3.653,0,0,0-1.685.357c-1.391.645-2.161,1.938-1.721,2.885a1.863,1.863,0,0,0,1.83.9,3.691,3.691,0,0,0,1.6-.356,2.876,2.876,0,0,0,1.844-2.307v-5.787H349.4v4.742a2.872,2.872,0,0,0-2.956-.081c-1.39.645-2.16,1.938-1.721,2.885s1.926,1.194,3.315.548a2.875,2.875,0,0,0,1.845-2.307v-.018l0-5.769H361.46v4.742a2.872,2.872,0,0,0-2.956-.081c-1.39.645-2.16,1.938-1.721,2.885s1.926,1.194,3.315.548a2.875,2.875,0,0,0,1.845-2.307v-.018l0-5.769h11.2v4.662a2.231,2.231,0,0,0-1.272-.358,3.649,3.649,0,0,0-1.684.357c-1.391.645-2.161,1.938-1.722,2.885a1.864,1.864,0,0,0,1.83.9,3.7,3.7,0,0,0,1.6-.356,2.878,2.878,0,0,0,1.844-2.307v-5.787h11.571v4.742a2.872,2.872,0,0,0-2.956-.081c-1.391.645-2.161,1.938-1.722,2.885s1.926,1.194,3.316.548a2.877,2.877,0,0,0,1.845-2.307v-5.787Zm-72.3-1.74H301.918v-1.1h11.571Zm0-2.836H301.918v-1.087h11.571Zm12.06,2.836h-11.58v-1.1h11.58Zm0-2.836H313.968v-1.087h11.581Zm11.68-1.087v1.087h-11.2v-1.087Zm-11.2,3.923v-1.1h11.2v1.1Zm23.371,0H337.829v-1.1H349.4Zm0-2.836H337.829v-1.087H349.4Zm12.06,2.836H349.881v-1.1H361.46Zm0-2.836H349.88v-1.087h11.58Zm11.681-1.087v1.087h-11.2v-1.087Zm-11.2,3.923v-1.1h11.2v1.1Zm23.371,0H373.741v-1.1h11.571Zm0-2.836H373.741v-1.087h11.571Z" fill="#12263f"/>
      <path id="Trazado_634207" data-name="Trazado 634207" d="M98.481,285.189l0-7.4H14.122v12.145a2.874,2.874,0,0,0-2.957-.081c-1.39.645-2.16,1.938-1.72,2.885s1.925,1.194,3.315.548a2.874,2.874,0,0,0,1.844-2.307v-5.787H26.176v4.742a2.874,2.874,0,0,0-2.957-.081c-1.39.645-2.16,1.938-1.721,2.885s1.926,1.194,3.315.548a2.879,2.879,0,0,0,1.846-2.307v-.018l0-5.769H38.236v4.742a2.874,2.874,0,0,0-2.957-.081c-1.39.645-2.16,1.938-1.721,2.885s1.926,1.194,3.316.548a2.879,2.879,0,0,0,1.845-2.307v-.018l0-5.769h11.2v4.662a2.23,2.23,0,0,0-1.271-.358,3.653,3.653,0,0,0-1.685.357c-1.391.645-2.161,1.938-1.721,2.885a1.863,1.863,0,0,0,1.83.9,3.691,3.691,0,0,0,1.6-.356,2.876,2.876,0,0,0,1.844-2.307v-5.787H62.087v4.742a2.872,2.872,0,0,0-2.956-.081c-1.39.645-2.16,1.938-1.721,2.885s1.926,1.194,3.315.548a2.875,2.875,0,0,0,1.845-2.307v-.018l0-5.769H74.148v4.742a2.874,2.874,0,0,0-2.957-.081c-1.39.645-2.16,1.938-1.721,2.885s1.926,1.194,3.315.548a2.875,2.875,0,0,0,1.845-2.307v-.018l0-5.769h11.2v4.662a2.231,2.231,0,0,0-1.272-.358,3.649,3.649,0,0,0-1.684.357c-1.391.645-2.161,1.938-1.722,2.885a1.864,1.864,0,0,0,1.83.9,3.7,3.7,0,0,0,1.6-.356,2.878,2.878,0,0,0,1.844-2.307v-5.787H98v4.742a2.872,2.872,0,0,0-2.956-.081c-1.391.645-2.161,1.938-1.722,2.885s1.926,1.194,3.316.548a2.877,2.877,0,0,0,1.845-2.307v-.018Zm-72.305-1.74H14.6v-1.1H26.176Zm0-2.836H14.6v-1.087H26.176Zm12.06,2.836H26.656v-1.1h11.58Zm0-2.836H26.655v-1.087H38.236Zm11.68-1.087v1.087h-11.2v-1.087Zm-11.2,3.923v-1.1h11.2v1.1Zm23.371,0H50.516v-1.1H62.087Zm0-2.836H50.516v-1.087H62.087Zm12.061,2.836H62.568v-1.1h11.58Zm0-2.836H62.567v-1.087H74.148Zm11.68-1.087v1.087h-11.2v-1.087Zm-11.2,3.923v-1.1h11.2v1.1Zm23.371,0H86.428v-1.1H98Zm0-2.836H86.428v-1.087H98Z" fill="#12263f"/>
      <rect id="Rectángulo_396221" data-name="Rectángulo 396221" width="386.934" height="0.336" transform="translate(5.518 334.042)" fill="#12263f"/>
      <rect id="Rectángulo_396222" data-name="Rectángulo 396222" width="386.934" height="0.336" transform="translate(5.518 337.403)" fill="#12263f"/>
      <rect id="Rectángulo_396223" data-name="Rectángulo 396223" width="386.934" height="0.336" transform="translate(5.518 340.765)" fill="#12263f"/>
      <rect id="Rectángulo_396224" data-name="Rectángulo 396224" width="386.934" height="0.336" transform="translate(5.518 344.127)" fill="#12263f"/>
      <rect id="Rectángulo_396225" data-name="Rectángulo 396225" width="386.934" height="0.336" transform="translate(5.518 347.488)" fill="#12263f"/>
      <path id="Trazado_634208" data-name="Trazado 634208" d="M106.534,327.8h-90.5v14.877a2.668,2.668,0,0,0-2.743-.075c-1.291.6-2.006,1.8-1.6,2.677s1.785,1.108,3.076.508a2.669,2.669,0,0,0,1.71-2.14V337.3H21.9v5.377a2.665,2.665,0,0,0-2.742-.075c-1.291.6-2.006,1.8-1.6,2.677s1.786,1.108,3.076.508a2.666,2.666,0,0,0,1.711-2.14V337.3h5.788v5.377a2.667,2.667,0,0,0-2.743-.075c-1.29.6-2.005,1.8-1.6,2.677s1.786,1.108,3.076.508a2.668,2.668,0,0,0,1.711-2.14V337.3h5.463v5.363a1.979,1.979,0,0,0-1.2-.394,3.4,3.4,0,0,0-1.543.333c-1.291.6-2.006,1.8-1.6,2.677a1.71,1.71,0,0,0,1.654.842,3.441,3.441,0,0,0,1.443-.334,2.665,2.665,0,0,0,1.71-2.14v-.016l0-6.331h5.4v5.377a2.667,2.667,0,0,0-2.743-.075c-1.29.6-2.005,1.8-1.6,2.677s1.786,1.108,3.076.508a2.668,2.668,0,0,0,1.711-2.14V337.3h5.788v5.377A2.667,2.667,0,0,0,43.4,342.6c-1.291.6-2.005,1.8-1.6,2.677s1.787,1.108,3.077.508a2.665,2.665,0,0,0,1.71-2.14V337.3h5.463v5.363a1.979,1.979,0,0,0-1.2-.394,3.4,3.4,0,0,0-1.543.333c-1.291.6-2.006,1.8-1.6,2.677a1.711,1.711,0,0,0,1.654.842,3.442,3.442,0,0,0,1.444-.334,2.665,2.665,0,0,0,1.71-2.14v-.016l0-6.331h5.4v5.377a2.667,2.667,0,0,0-2.743-.075c-1.29.6-2,1.8-1.6,2.677s1.787,1.108,3.077.508a2.668,2.668,0,0,0,1.711-2.14V337.3h5.787v5.377A2.665,2.665,0,0,0,61.4,342.6c-1.291.6-2.005,1.8-1.6,2.677s1.787,1.108,3.077.508a2.667,2.667,0,0,0,1.71-2.14V337.3h5.462v5.363a1.976,1.976,0,0,0-1.2-.394,3.4,3.4,0,0,0-1.543.333c-1.291.6-2.006,1.8-1.6,2.677a1.711,1.711,0,0,0,1.654.842,3.442,3.442,0,0,0,1.444-.334,2.665,2.665,0,0,0,1.71-2.14v-.016l0-6.331h5.395v5.377a2.665,2.665,0,0,0-2.742-.075c-1.291.6-2.005,1.8-1.6,2.677s1.787,1.108,3.077.508a2.665,2.665,0,0,0,1.71-2.14V337.3h5.787v5.377a2.665,2.665,0,0,0-2.742-.075c-1.291.6-2.006,1.8-1.6,2.677s1.787,1.108,3.077.508a2.667,2.667,0,0,0,1.71-2.14V337.3h5.459v5.361a1.982,1.982,0,0,0-1.2-.392,3.4,3.4,0,0,0-1.544.333c-1.29.6-2,1.8-1.6,2.677a1.712,1.712,0,0,0,1.656.842,3.45,3.45,0,0,0,1.445-.334,2.667,2.667,0,0,0,1.71-2.14V337.3h5.392v5.377a2.665,2.665,0,0,0-2.742-.075c-1.291.6-2.006,1.8-1.6,2.677s1.787,1.108,3.076.508a2.666,2.666,0,0,0,1.711-2.14V337.3h5.787v5.377a2.667,2.667,0,0,0-2.743-.075c-1.29.6-2,1.8-1.6,2.677s1.786,1.108,3.076.508a2.666,2.666,0,0,0,1.711-2.14V337.3h5.484v5.377a2.667,2.667,0,0,0-2.743-.075c-1.29.6-2,1.8-1.6,2.677s1.786,1.108,3.076.508a2.666,2.666,0,0,0,1.711-2.14v-.016ZM21.9,335.682H16.481v-1.015H21.9Zm0-2.63H16.481v-1.016H21.9Zm0-2.631H16.481v-1.008H21.9Zm6.235,5.261H22.343v-1.015h5.789Zm0-2.63H22.342v-1.016h5.789Zm0-2.631h-5.79v-1.008h5.79Zm.444-1.008h5.466v1.008H28.576Zm0,2.623h5.465v1.016H28.577Zm0,3.646v-1.015h5.464v1.015Zm11.327,0h-5.4v-1.015h5.4Zm0-2.63h-5.4v-1.016h5.4Zm0-2.631h-5.4v-1.008h5.4Zm6.235,5.261H40.351v-1.015h5.789Zm0-2.63H40.35v-1.016h5.79Zm0-2.631h-5.79v-1.008h5.791Zm.444-1.008h5.466v1.008H46.584Zm0,2.623h5.465v1.016H46.585Zm0,3.646v-1.015h5.464v1.015Zm11.327,0h-5.4v-1.015h5.4Zm0-2.63h-5.4v-1.016h5.4Zm0-2.631h-5.4v-1.008h5.4Zm6.234,5.261H58.358v-1.015h5.788Zm0-2.63H58.358v-1.016h5.789Zm0-2.631H58.357v-1.008h5.79Zm.445-1.008h5.465v1.008H64.591Zm0,2.623h5.464v1.016H64.592Zm0,3.646v-1.015h5.463v1.015Zm11.326,0H70.524v-1.015h5.4Zm0-2.63h-5.4v-1.016h5.4Zm0-2.631h-5.4v-1.008h5.4Zm6.235,5.261H76.366v-1.015h5.788Zm0-2.63H76.365v-1.016h5.789Zm0-2.631H76.365v-1.008h5.79Zm.445-1.008h5.462v1.008H82.6Zm0,2.623h5.461v1.016H82.6Zm0,3.646v-1.015h5.46v1.015Zm11.323,0H88.531v-1.015h5.393Zm0-2.63H88.531v-1.016h5.394Zm0-2.631H88.53v-1.008h5.394Zm6.235,5.261H94.371v-1.015h5.788Zm0-2.63H94.37v-1.016h5.789Zm0-2.631h-5.79v-1.008h5.79Zm5.931,5.261h-5.484v-1.015h5.485Zm0-2.63h-5.485v-1.016h5.485Zm0-2.631H100.6v-1.008h5.486Z" fill="#12263f"/>
      <path id="Trazado_634209" data-name="Trazado 634209" d="M201.494,327.8h-90.5v14.877a2.668,2.668,0,0,0-2.743-.075c-1.291.6-2.006,1.8-1.6,2.677s1.785,1.108,3.076.508a2.669,2.669,0,0,0,1.71-2.14V337.3h5.415v5.377a2.665,2.665,0,0,0-2.742-.075c-1.291.6-2.006,1.8-1.6,2.677s1.786,1.108,3.076.508a2.666,2.666,0,0,0,1.711-2.14V337.3h5.788v5.377a2.667,2.667,0,0,0-2.743-.075c-1.29.6-2,1.8-1.6,2.677s1.786,1.108,3.076.508a2.668,2.668,0,0,0,1.711-2.14V337.3H129v5.363a1.979,1.979,0,0,0-1.2-.394,3.4,3.4,0,0,0-1.543.333c-1.291.6-2.006,1.8-1.6,2.677a1.711,1.711,0,0,0,1.654.842,3.441,3.441,0,0,0,1.443-.334,2.665,2.665,0,0,0,1.71-2.14v-.016l0-6.331h5.4v5.377a2.667,2.667,0,0,0-2.743-.075c-1.29.6-2.005,1.8-1.6,2.677s1.786,1.108,3.076.508a2.668,2.668,0,0,0,1.711-2.14V337.3H141.1v5.377a2.667,2.667,0,0,0-2.743-.075c-1.291.6-2.005,1.8-1.6,2.677s1.787,1.108,3.077.508a2.665,2.665,0,0,0,1.71-2.14V337.3h5.463v5.363a1.979,1.979,0,0,0-1.2-.394,3.4,3.4,0,0,0-1.543.333c-1.291.6-2.006,1.8-1.6,2.677a1.711,1.711,0,0,0,1.654.842,3.442,3.442,0,0,0,1.444-.334,2.665,2.665,0,0,0,1.71-2.14v-.016l0-6.331h5.4v5.377a2.667,2.667,0,0,0-2.743-.075c-1.29.6-2.005,1.8-1.6,2.677s1.787,1.108,3.077.508a2.668,2.668,0,0,0,1.711-2.14V337.3h5.787v5.377a2.665,2.665,0,0,0-2.742-.075c-1.291.6-2.005,1.8-1.6,2.677s1.787,1.108,3.077.508a2.667,2.667,0,0,0,1.71-2.14V337.3h5.462v5.363a1.976,1.976,0,0,0-1.2-.394,3.4,3.4,0,0,0-1.543.333c-1.291.6-2.006,1.8-1.6,2.677a1.711,1.711,0,0,0,1.654.842,3.442,3.442,0,0,0,1.444-.334,2.665,2.665,0,0,0,1.71-2.14v-.016l0-6.331h5.4v5.377a2.665,2.665,0,0,0-2.742-.075c-1.291.6-2,1.8-1.6,2.677s1.787,1.108,3.077.508a2.665,2.665,0,0,0,1.71-2.14V337.3h5.787v5.377a2.665,2.665,0,0,0-2.742-.075c-1.291.6-2.006,1.8-1.6,2.677s1.787,1.108,3.077.508a2.667,2.667,0,0,0,1.71-2.14V337.3h5.459v5.361a1.982,1.982,0,0,0-1.2-.392,3.4,3.4,0,0,0-1.544.333c-1.29.6-2.005,1.8-1.6,2.677a1.712,1.712,0,0,0,1.656.842,3.45,3.45,0,0,0,1.445-.334,2.667,2.667,0,0,0,1.71-2.14v-.016l0-6.331h5.392v5.377a2.665,2.665,0,0,0-2.742-.075c-1.291.6-2.006,1.8-1.6,2.677s1.787,1.108,3.076.508a2.666,2.666,0,0,0,1.711-2.14V337.3h5.787v5.377a2.665,2.665,0,0,0-2.742-.075c-1.291.6-2.006,1.8-1.6,2.677s1.786,1.108,3.076.508a2.666,2.666,0,0,0,1.711-2.14V337.3h5.484v5.377a2.667,2.667,0,0,0-2.743-.075c-1.29.6-2.005,1.8-1.6,2.677s1.786,1.108,3.076.508a2.666,2.666,0,0,0,1.711-2.14v-.016Zm-84.638,7.885h-5.415v-1.015h5.415Zm0-2.63h-5.415v-1.016h5.415Zm0-2.631h-5.415v-1.008h5.415Zm6.235,5.261H117.3v-1.015h5.789Zm0-2.63H117.3v-1.016h5.789Zm0-2.631H117.3v-1.008h5.79Zm.444-1.008H129v1.008h-5.465Zm0,2.623H129v1.016h-5.464Zm0,3.646v-1.015H129v1.015Zm11.327,0h-5.4v-1.015h5.4Zm0-2.63h-5.4v-1.016h5.4Zm0-2.631h-5.4v-1.008h5.4Zm6.235,5.261h-5.788v-1.015H141.1Zm0-2.63H135.31v-1.016h5.79Zm0-2.631h-5.79v-1.008H141.1Zm.444-1.008h5.466v1.008h-5.465Zm0,2.623h5.465v1.016h-5.464Zm0,3.646v-1.015h5.464v1.015Zm11.327,0h-5.4v-1.015h5.4Zm0-2.63h-5.4v-1.016h5.4Zm0-2.631h-5.4v-1.008h5.4Zm6.234,5.261h-5.788v-1.015h5.788Zm0-2.63h-5.788v-1.016h5.789Zm0-2.631h-5.789v-1.008h5.79Zm.445-1.008h5.465v1.008h-5.465Zm0,2.623h5.464v1.016h-5.464Zm0,3.646v-1.015h5.463v1.015Zm11.326,0h-5.4v-1.015h5.4Zm0-2.63h-5.4v-1.016h5.4Zm0-2.631h-5.4v-1.008h5.4Zm6.235,5.261h-5.788v-1.015h5.788Zm0-2.63h-5.789v-1.016h5.789Zm0-2.631h-5.789v-1.008h5.79Zm.445-1.008h5.462v1.008h-5.462Zm0,2.623h5.461v1.016H177.56Zm0,3.646v-1.015h5.46v1.015Zm11.323,0h-5.393v-1.015h5.393Zm0-2.63h-5.393v-1.016h5.394Zm0-2.631H183.49v-1.008h5.394Zm6.235,5.261h-5.788v-1.015h5.788Zm0-2.63H189.33v-1.016h5.789Zm0-2.631h-5.79v-1.008h5.79Zm5.931,5.261h-5.484v-1.015h5.485Zm0-2.63h-5.485v-1.016h5.485Zm0-2.631h-5.486v-1.008h5.486Z" fill="#12263f"/>
      <path id="Trazado_634210" data-name="Trazado 634210" d="M297.5,327.8H207v14.877a2.668,2.668,0,0,0-2.743-.075c-1.291.6-2.006,1.8-1.6,2.677s1.785,1.108,3.076.508a2.669,2.669,0,0,0,1.71-2.14V337.3h5.415v5.377a2.665,2.665,0,0,0-2.742-.075c-1.291.6-2.006,1.8-1.6,2.677s1.786,1.108,3.076.508a2.666,2.666,0,0,0,1.711-2.14V337.3H219.1v5.377a2.667,2.667,0,0,0-2.743-.075c-1.29.6-2.005,1.8-1.6,2.677s1.786,1.108,3.076.508a2.668,2.668,0,0,0,1.711-2.14V337.3h5.463v5.363a1.979,1.979,0,0,0-1.2-.394,3.4,3.4,0,0,0-1.543.333c-1.291.6-2.006,1.8-1.6,2.677a1.71,1.71,0,0,0,1.654.842,3.441,3.441,0,0,0,1.443-.334,2.665,2.665,0,0,0,1.71-2.14v-.016l0-6.331h5.4v5.377a2.667,2.667,0,0,0-2.743-.075c-1.29.6-2.005,1.8-1.6,2.677s1.786,1.108,3.076.508a2.668,2.668,0,0,0,1.711-2.14V337.3H237.1v5.377a2.667,2.667,0,0,0-2.743-.075c-1.291.6-2.005,1.8-1.6,2.677s1.787,1.108,3.077.508a2.665,2.665,0,0,0,1.71-2.14V337.3h5.463v5.363a1.979,1.979,0,0,0-1.2-.394,3.4,3.4,0,0,0-1.543.333c-1.291.6-2.006,1.8-1.6,2.677a1.712,1.712,0,0,0,1.654.842,3.442,3.442,0,0,0,1.444-.334,2.665,2.665,0,0,0,1.71-2.14v-.016l0-6.331h5.4v5.377a2.667,2.667,0,0,0-2.743-.075c-1.29.6-2,1.8-1.6,2.677s1.787,1.108,3.077.508a2.668,2.668,0,0,0,1.711-2.14V337.3h5.787v5.377a2.665,2.665,0,0,0-2.742-.075c-1.291.6-2,1.8-1.6,2.677s1.787,1.108,3.077.508a2.667,2.667,0,0,0,1.71-2.14V337.3h5.462v5.363a1.976,1.976,0,0,0-1.2-.394,3.4,3.4,0,0,0-1.543.333c-1.291.6-2.006,1.8-1.6,2.677a1.71,1.71,0,0,0,1.654.842,3.442,3.442,0,0,0,1.444-.334,2.665,2.665,0,0,0,1.71-2.14v-.016l0-6.331h5.4v5.377a2.665,2.665,0,0,0-2.742-.075c-1.291.6-2.005,1.8-1.6,2.677s1.787,1.108,3.077.508a2.665,2.665,0,0,0,1.71-2.14V337.3h5.787v5.377a2.665,2.665,0,0,0-2.742-.075c-1.291.6-2.006,1.8-1.6,2.677s1.787,1.108,3.077.508a2.667,2.667,0,0,0,1.71-2.14V337.3h5.459v5.361a1.982,1.982,0,0,0-1.2-.392,3.4,3.4,0,0,0-1.544.333c-1.29.6-2.005,1.8-1.6,2.677a1.712,1.712,0,0,0,1.656.842,3.45,3.45,0,0,0,1.445-.334,2.667,2.667,0,0,0,1.71-2.14v-.016l0-6.331h5.392v5.377a2.665,2.665,0,0,0-2.742-.075c-1.291.6-2.006,1.8-1.6,2.677s1.787,1.108,3.076.508a2.666,2.666,0,0,0,1.711-2.14V337.3h5.787v5.377a2.665,2.665,0,0,0-2.742-.075c-1.291.6-2.006,1.8-1.6,2.677s1.786,1.108,3.076.508a2.666,2.666,0,0,0,1.711-2.14V337.3h5.484v5.377a2.667,2.667,0,0,0-2.743-.075c-1.29.6-2,1.8-1.6,2.677s1.786,1.108,3.076.508a2.666,2.666,0,0,0,1.711-2.14v-.016Zm-84.638,7.885h-5.415v-1.015h5.415Zm0-2.63h-5.415v-1.016h5.415Zm0-2.631h-5.415v-1.008h5.415Zm6.235,5.261h-5.788v-1.015H219.1Zm0-2.63h-5.789v-1.016H219.1Zm0-2.631h-5.79v-1.008h5.79Zm.444-1.008h5.466v1.008h-5.465Zm0,2.623h5.465v1.016h-5.464Zm0,3.646v-1.015h5.464v1.015Zm11.327,0h-5.4v-1.015h5.4Zm0-2.63h-5.4v-1.016h5.4Zm0-2.631h-5.4v-1.008h5.4Zm6.235,5.261h-5.788v-1.015H237.1Zm0-2.63h-5.789v-1.016h5.79Zm0-2.631h-5.79v-1.008H237.1Zm.444-1.008h5.466v1.008H237.55Zm0,2.623h5.465v1.016h-5.464Zm0,3.646v-1.015h5.464v1.015Zm11.327,0h-5.4v-1.015h5.4Zm0-2.63h-5.4v-1.016h5.4Zm0-2.631h-5.4v-1.008h5.4Zm6.234,5.261h-5.788v-1.015h5.788Zm0-2.63h-5.788v-1.016h5.789Zm0-2.631h-5.789v-1.008h5.79Zm.445-1.008h5.465v1.008h-5.465Zm0,2.623h5.464v1.016h-5.464Zm0,3.646v-1.015h5.463v1.015Zm11.326,0h-5.4v-1.015h5.4Zm0-2.63h-5.4v-1.016h5.4Zm0-2.631h-5.4v-1.008h5.4Zm6.235,5.261h-5.788v-1.015h5.788Zm0-2.63h-5.789v-1.016h5.789Zm0-2.631h-5.789v-1.008h5.79Zm.445-1.008h5.462v1.008h-5.462Zm0,2.623h5.461v1.016h-5.461Zm0,3.646v-1.015h5.46v1.015Zm11.323,0H279.5v-1.015h5.393Zm0-2.63H279.5v-1.016h5.394Zm0-2.631H279.5v-1.008h5.394Zm6.235,5.261h-5.788v-1.015h5.788Zm0-2.63h-5.789v-1.016h5.789Zm0-2.631h-5.79v-1.008h5.79Zm5.931,5.261h-5.484v-1.015h5.485Zm0-2.63h-5.485v-1.016h5.485Zm0-2.631H291.57v-1.008h5.486Z" fill="#12263f"/>
      <path id="Trazado_634211" data-name="Trazado 634211" d="M392.46,327.8h-90.5v14.877a2.668,2.668,0,0,0-2.743-.075c-1.291.6-2.006,1.8-1.6,2.677s1.785,1.108,3.076.508a2.669,2.669,0,0,0,1.71-2.14V337.3h5.415v5.377a2.665,2.665,0,0,0-2.742-.075c-1.291.6-2.006,1.8-1.6,2.677s1.786,1.108,3.076.508a2.666,2.666,0,0,0,1.711-2.14V337.3h5.788v5.377a2.667,2.667,0,0,0-2.743-.075c-1.29.6-2.005,1.8-1.6,2.677s1.786,1.108,3.076.508a2.668,2.668,0,0,0,1.711-2.14V337.3h5.463v5.363a1.979,1.979,0,0,0-1.2-.394,3.4,3.4,0,0,0-1.543.333c-1.291.6-2.006,1.8-1.6,2.677a1.711,1.711,0,0,0,1.654.842,3.441,3.441,0,0,0,1.443-.334,2.665,2.665,0,0,0,1.71-2.14v-.016l0-6.331h5.4v5.377a2.667,2.667,0,0,0-2.743-.075c-1.29.6-2.005,1.8-1.6,2.677s1.786,1.108,3.076.508a2.668,2.668,0,0,0,1.711-2.14V337.3h5.788v5.377a2.667,2.667,0,0,0-2.743-.075c-1.291.6-2.005,1.8-1.6,2.677s1.787,1.108,3.077.508a2.665,2.665,0,0,0,1.71-2.14V337.3h5.463v5.363a1.979,1.979,0,0,0-1.2-.394,3.4,3.4,0,0,0-1.543.333c-1.291.6-2.006,1.8-1.6,2.677a1.711,1.711,0,0,0,1.654.842,3.442,3.442,0,0,0,1.444-.334,2.665,2.665,0,0,0,1.71-2.14v-.016l0-6.331h5.4v5.377a2.667,2.667,0,0,0-2.743-.075c-1.29.6-2.005,1.8-1.6,2.677s1.787,1.108,3.077.508a2.668,2.668,0,0,0,1.711-2.14V337.3h5.787v5.377a2.665,2.665,0,0,0-2.742-.075c-1.291.6-2,1.8-1.6,2.677s1.787,1.108,3.077.508a2.667,2.667,0,0,0,1.71-2.14V337.3h5.462v5.363a1.976,1.976,0,0,0-1.2-.394,3.4,3.4,0,0,0-1.543.333c-1.291.6-2.006,1.8-1.6,2.677a1.71,1.71,0,0,0,1.654.842,3.442,3.442,0,0,0,1.444-.334,2.665,2.665,0,0,0,1.71-2.14v-.016l0-6.331h5.395v5.377a2.665,2.665,0,0,0-2.742-.075c-1.291.6-2.005,1.8-1.6,2.677s1.787,1.108,3.077.508a2.665,2.665,0,0,0,1.71-2.14V337.3h5.787v5.377a2.665,2.665,0,0,0-2.742-.075c-1.291.6-2.006,1.8-1.6,2.677s1.787,1.108,3.077.508a2.667,2.667,0,0,0,1.71-2.14V337.3h5.459v5.361a1.982,1.982,0,0,0-1.2-.392,3.4,3.4,0,0,0-1.544.333c-1.29.6-2,1.8-1.6,2.677a1.712,1.712,0,0,0,1.656.842,3.45,3.45,0,0,0,1.445-.334,2.667,2.667,0,0,0,1.71-2.14v-.016l0-6.331h5.392v5.377a2.665,2.665,0,0,0-2.742-.075c-1.291.6-2.006,1.8-1.6,2.677s1.787,1.108,3.076.508a2.666,2.666,0,0,0,1.711-2.14V337.3h5.787v5.377a2.665,2.665,0,0,0-2.742-.075c-1.291.6-2.006,1.8-1.6,2.677s1.786,1.108,3.076.508a2.666,2.666,0,0,0,1.711-2.14V337.3h5.484v5.377a2.667,2.667,0,0,0-2.743-.075c-1.29.6-2.005,1.8-1.6,2.677s1.786,1.108,3.076.508a2.666,2.666,0,0,0,1.711-2.14v-.016Zm-84.638,7.885h-5.415v-1.015h5.415Zm0-2.63h-5.415v-1.016h5.415Zm0-2.631h-5.415v-1.008h5.415Zm6.235,5.261h-5.788v-1.015h5.789Zm0-2.63h-5.789v-1.016h5.789Zm0-2.631h-5.79v-1.008h5.79Zm.444-1.008h5.466v1.008H314.5Zm0,2.623h5.465v1.016H314.5Zm0,3.646v-1.015h5.464v1.015Zm11.327,0h-5.4v-1.015h5.4Zm0-2.63h-5.4v-1.016h5.4Zm0-2.631h-5.4v-1.008h5.4Zm6.235,5.261h-5.788v-1.015h5.789Zm0-2.63h-5.789v-1.016h5.79Zm0-2.631h-5.79v-1.008h5.791Zm.444-1.008h5.466v1.008H332.51Zm0,2.623h5.465v1.016h-5.464Zm0,3.646v-1.015h5.464v1.015Zm11.327,0h-5.4v-1.015h5.4Zm0-2.63h-5.4v-1.016h5.4Zm0-2.631h-5.4v-1.008h5.4Zm6.234,5.261h-5.788v-1.015h5.788Zm0-2.63h-5.788v-1.016h5.789Zm0-2.631h-5.789v-1.008h5.79Zm.445-1.008h5.465v1.008h-5.465Zm0,2.623h5.464v1.016h-5.464Zm0,3.646v-1.015h5.463v1.015Zm11.326,0H356.45v-1.015h5.4Zm0-2.63h-5.4v-1.016h5.4Zm0-2.631h-5.4v-1.008h5.4Zm6.235,5.261h-5.788v-1.015h5.788Zm0-2.63h-5.789v-1.016h5.789Zm0-2.631h-5.789v-1.008h5.79Zm.445-1.008h5.462v1.008h-5.462Zm0,2.623h5.461v1.016h-5.461Zm0,3.646v-1.015h5.46v1.015Zm11.323,0h-5.393v-1.015h5.393Zm0-2.63h-5.393v-1.016h5.394Zm0-2.631h-5.394v-1.008h5.394Zm6.235,5.261H380.3v-1.015h5.788Zm0-2.63H380.3v-1.016h5.789Zm0-2.631H380.3v-1.008h5.79Zm5.931,5.261h-5.484v-1.015h5.485Zm0-2.63h-5.485v-1.016h5.485Zm0-2.631H386.53v-1.008h5.486Z" fill="#12263f"/>
    </g>
  </g>
  <path id="Trazado_634856" data-name="Trazado 634856" d="M5.336-4.375h-2.2V0H1.156V-11.375h4a4.653,4.653,0,0,1,3.039.884,3.126,3.126,0,0,1,1.07,2.557,3.2,3.2,0,0,1-.551,1.912A3.5,3.5,0,0,1,7.18-4.838L9.734-.1V0H7.617Zm-2.2-1.594H5.164a2.259,2.259,0,0,0,1.563-.5,1.757,1.757,0,0,0,.563-1.379,1.871,1.871,0,0,0-.52-1.414,2.207,2.207,0,0,0-1.551-.516H3.133ZM14.68.156A3.928,3.928,0,0,1,11.754-.98a4.124,4.124,0,0,1-1.121-3.027v-.234A5.072,5.072,0,0,1,11.121-6.5a3.716,3.716,0,0,1,1.371-1.551,3.625,3.625,0,0,1,1.969-.555,3.318,3.318,0,0,1,2.668,1.1,4.658,4.658,0,0,1,.941,3.117v.766H12.547a2.539,2.539,0,0,0,.7,1.656,2.1,2.1,0,0,0,1.543.609,2.571,2.571,0,0,0,2.125-1.055l1.023.977A3.418,3.418,0,0,1,16.582-.262,4.244,4.244,0,0,1,14.68.156Zm-.227-7.242a1.6,1.6,0,0,0-1.262.547,2.835,2.835,0,0,0-.613,1.523H16.2v-.141A2.307,2.307,0,0,0,15.688-6.6,1.586,1.586,0,0,0,14.453-7.086Zm4.734,2.8a5.026,5.026,0,0,1,.906-3.137,2.9,2.9,0,0,1,2.43-1.184,2.759,2.759,0,0,1,2.172.938V-12h1.9V0H24.875l-.094-.875A2.8,2.8,0,0,1,22.508.156a2.887,2.887,0,0,1-2.4-1.2A5.21,5.21,0,0,1,19.188-4.289Zm1.9.164a3.519,3.519,0,0,0,.5,2.012,1.61,1.61,0,0,0,1.41.723A1.793,1.793,0,0,0,24.7-2.43V-6.039a1.766,1.766,0,0,0-1.687-1.016,1.622,1.622,0,0,0-1.422.73A3.918,3.918,0,0,0,21.086-4.125Zm7.133-.18a4.984,4.984,0,0,1,.492-2.238,3.6,3.6,0,0,1,1.383-1.531,3.9,3.9,0,0,1,2.047-.535,3.692,3.692,0,0,1,2.777,1.1A4.333,4.333,0,0,1,36.07-4.586l.008.445a5.029,5.029,0,0,1-.48,2.234A3.551,3.551,0,0,1,34.223-.383a3.925,3.925,0,0,1-2.066.539,3.667,3.667,0,0,1-2.863-1.191,4.563,4.563,0,0,1-1.074-3.176Zm1.9.164A3.406,3.406,0,0,0,30.656-2.1a1.752,1.752,0,0,0,1.5.738,1.733,1.733,0,0,0,1.5-.75,3.762,3.762,0,0,0,.535-2.2,3.362,3.362,0,0,0-.551-2.031,1.759,1.759,0,0,0-1.5-.75,1.743,1.743,0,0,0-1.477.738A3.691,3.691,0,0,0,30.117-4.141Zm9.328-4.312.055.977a3.039,3.039,0,0,1,2.461-1.133q2.641,0,2.688,3.023V0h-1.9V-5.477A1.741,1.741,0,0,0,42.4-6.668a1.462,1.462,0,0,0-1.137-.387,1.829,1.829,0,0,0-1.711,1.039V0h-1.9V-8.453Zm6.781,4.164a5.026,5.026,0,0,1,.906-3.137,2.9,2.9,0,0,1,2.43-1.184,2.759,2.759,0,0,1,2.172.938V-12h1.9V0H51.914L51.82-.875A2.8,2.8,0,0,1,49.547.156a2.887,2.887,0,0,1-2.4-1.2A5.21,5.21,0,0,1,46.227-4.289Zm1.9.164a3.519,3.519,0,0,0,.5,2.012,1.61,1.61,0,0,0,1.41.723,1.793,1.793,0,0,0,1.7-1.039V-6.039a1.766,1.766,0,0,0-1.687-1.016,1.622,1.622,0,0,0-1.422.73A3.919,3.919,0,0,0,48.125-4.125ZM60.664,0a2.93,2.93,0,0,1-.219-.789,2.955,2.955,0,0,1-2.219.945A2.982,2.982,0,0,1,56.148-.57a2.325,2.325,0,0,1-.8-1.8,2.4,2.4,0,0,1,1-2.074,4.865,4.865,0,0,1,2.871-.723h1.164v-.555a1.481,1.481,0,0,0-.367-1.051A1.456,1.456,0,0,0,58.9-7.164a1.672,1.672,0,0,0-1.062.324,1,1,0,0,0-.414.824h-1.9a2.107,2.107,0,0,1,.461-1.3,3.071,3.071,0,0,1,1.254-.949,4.4,4.4,0,0,1,1.77-.344,3.547,3.547,0,0,1,2.367.746,2.661,2.661,0,0,1,.906,2.1v3.813a4.321,4.321,0,0,0,.32,1.82V0ZM58.578-1.367a2.16,2.16,0,0,0,1.059-.273,1.827,1.827,0,0,0,.746-.734V-3.969H59.359a2.8,2.8,0,0,0-1.586.367,1.189,1.189,0,0,0-.531,1.039,1.109,1.109,0,0,0,.363.871A1.407,1.407,0,0,0,58.578-1.367Z" transform="translate(7.613 50.341)"/>
  <path id="Trazado_634857" data-name="Trazado 634857" d="M1.156,0V-11.375h3.9a4.76,4.76,0,0,1,2.938.773A2.724,2.724,0,0,1,9-8.3a2.456,2.456,0,0,1-.422,1.406,2.715,2.715,0,0,1-1.234.969A2.511,2.511,0,0,1,8.77-4.98a2.742,2.742,0,0,1,.5,1.66A3.028,3.028,0,0,1,8.246-.859,4.467,4.467,0,0,1,5.3,0ZM3.133-5.133v3.555h2.2a2.124,2.124,0,0,0,1.453-.461A1.618,1.618,0,0,0,7.3-3.32,1.623,1.623,0,0,0,5.492-5.133Zm0-1.453H5.07A2.241,2.241,0,0,0,6.512-7a1.432,1.432,0,0,0,.52-1.184,1.452,1.452,0,0,0-.48-1.219,2.426,2.426,0,0,0-1.5-.375H3.133ZM13.086,0h-1.9V-12h1.9ZM20.2,0a2.93,2.93,0,0,1-.219-.789,2.955,2.955,0,0,1-2.219.945A2.982,2.982,0,0,1,15.688-.57a2.325,2.325,0,0,1-.8-1.8,2.4,2.4,0,0,1,1-2.074,4.865,4.865,0,0,1,2.871-.723h1.164v-.555a1.481,1.481,0,0,0-.367-1.051,1.456,1.456,0,0,0-1.117-.395,1.672,1.672,0,0,0-1.062.324,1,1,0,0,0-.414.824h-1.9a2.107,2.107,0,0,1,.461-1.3,3.071,3.071,0,0,1,1.254-.949,4.4,4.4,0,0,1,1.77-.344,3.547,3.547,0,0,1,2.367.746,2.661,2.661,0,0,1,.906,2.1v3.813a4.321,4.321,0,0,0,.32,1.82V0ZM18.117-1.367a2.159,2.159,0,0,0,1.059-.273,1.827,1.827,0,0,0,.746-.734V-3.969H18.9a2.8,2.8,0,0,0-1.586.367,1.189,1.189,0,0,0-.531,1.039,1.109,1.109,0,0,0,.363.871A1.407,1.407,0,0,0,18.117-1.367ZM25.57-8.453l.055.977a3.039,3.039,0,0,1,2.461-1.133q2.641,0,2.688,3.023V0h-1.9V-5.477a1.741,1.741,0,0,0-.348-1.191,1.462,1.462,0,0,0-1.137-.387A1.829,1.829,0,0,0,25.68-6.016V0h-1.9V-8.453ZM36.18-1.359a1.716,1.716,0,0,0,1.18-.414,1.415,1.415,0,0,0,.5-1.023h1.789a2.789,2.789,0,0,1-.492,1.473,3.228,3.228,0,0,1-1.25,1.082,3.725,3.725,0,0,1-1.7.4A3.6,3.6,0,0,1,33.391-.992a4.555,4.555,0,0,1-1.039-3.172v-.2a4.479,4.479,0,0,1,1.031-3.09A3.571,3.571,0,0,1,36.2-8.609a3.473,3.473,0,0,1,2.457.879,3.148,3.148,0,0,1,1,2.309H37.859a1.738,1.738,0,0,0-.5-1.2,1.6,1.6,0,0,0-1.184-.469,1.671,1.671,0,0,0-1.422.668,3.408,3.408,0,0,0-.508,2.027v.3a3.465,3.465,0,0,0,.5,2.051A1.669,1.669,0,0,0,36.18-1.359ZM46.133,0a2.93,2.93,0,0,1-.219-.789A2.955,2.955,0,0,1,43.7.156,2.982,2.982,0,0,1,41.617-.57a2.325,2.325,0,0,1-.8-1.8,2.4,2.4,0,0,1,1-2.074,4.865,4.865,0,0,1,2.871-.723h1.164v-.555a1.481,1.481,0,0,0-.367-1.051,1.456,1.456,0,0,0-1.117-.395A1.672,1.672,0,0,0,43.3-6.84a1,1,0,0,0-.414.824h-1.9a2.107,2.107,0,0,1,.461-1.3,3.071,3.071,0,0,1,1.254-.949,4.4,4.4,0,0,1,1.77-.344,3.547,3.547,0,0,1,2.367.746,2.661,2.661,0,0,1,.906,2.1v3.813a4.321,4.321,0,0,0,.32,1.82V0ZM44.047-1.367a2.16,2.16,0,0,0,1.059-.273,1.827,1.827,0,0,0,.746-.734V-3.969H44.828a2.8,2.8,0,0,0-1.586.367,1.189,1.189,0,0,0-.531,1.039,1.109,1.109,0,0,0,.363.871A1.407,1.407,0,0,0,44.047-1.367Zm9.7-3.258a11.9,11.9,0,0,1,.484-3.426,9.4,9.4,0,0,1,1.422-2.9,5.646,5.646,0,0,1,1.984-1.793l.375,1.109A5.8,5.8,0,0,0,56.23-9.082a11.424,11.424,0,0,0-.746,3.926l-.008.672a12.42,12.42,0,0,0,.668,4.223,6.224,6.224,0,0,0,1.871,2.824l-.375,1.055a5.655,5.655,0,0,1-1.988-1.8,9.4,9.4,0,0,1-1.422-2.9A12.374,12.374,0,0,1,53.75-4.625ZM66.828,0H59.18V-1.3l3.789-4.133a9.435,9.435,0,0,0,1.168-1.527,2.475,2.475,0,0,0,.348-1.23,1.87,1.87,0,0,0-.457-1.312,1.585,1.585,0,0,0-1.23-.5,1.827,1.827,0,0,0-1.43.563,2.212,2.212,0,0,0-.508,1.539h-1.9a3.721,3.721,0,0,1,.473-1.871,3.255,3.255,0,0,1,1.352-1.293,4.3,4.3,0,0,1,2.027-.461,3.848,3.848,0,0,1,2.613.832,2.888,2.888,0,0,1,.957,2.3,3.9,3.9,0,0,1-.48,1.785,10.151,10.151,0,0,1-1.574,2.121L61.547-1.516h5.281Zm5.227-4.5a11.754,11.754,0,0,1-.477,3.348,9.485,9.485,0,0,1-1.445,2.938,5.66,5.66,0,0,1-2.023,1.832l-.375-1.055A6,6,0,0,0,69.59-.207a12.3,12.3,0,0,0,.684-4.254v-.18A12.484,12.484,0,0,0,69.68-8.6a6.98,6.98,0,0,0-1.7-2.863l-.242-.219.375-1.062a5.6,5.6,0,0,1,1.938,1.719,9.326,9.326,0,0,1,1.438,2.762,11.5,11.5,0,0,1,.563,3.152Z" transform="translate(7.613 102.805)"/>
  <path id="Trazado_634858" data-name="Trazado 634858" d="M10.18,0H8.2L3.133-8.07V0H1.156V-11.375H3.133l5.086,8.1v-8.1H10.18Zm5.875.156A3.928,3.928,0,0,1,13.129-.98a4.124,4.124,0,0,1-1.121-3.027v-.234A5.072,5.072,0,0,1,12.5-6.5a3.716,3.716,0,0,1,1.371-1.551,3.625,3.625,0,0,1,1.969-.555,3.318,3.318,0,0,1,2.668,1.1,4.658,4.658,0,0,1,.941,3.117v.766H13.922a2.539,2.539,0,0,0,.7,1.656,2.1,2.1,0,0,0,1.543.609,2.571,2.571,0,0,0,2.125-1.055l1.023.977A3.418,3.418,0,0,1,17.957-.262,4.244,4.244,0,0,1,16.055.156Zm-.227-7.242a1.6,1.6,0,0,0-1.262.547,2.835,2.835,0,0,0-.613,1.523H17.57v-.141A2.307,2.307,0,0,0,17.063-6.6,1.586,1.586,0,0,0,15.828-7.086Zm4.758,2.8a4.944,4.944,0,0,1,.926-3.145,2.971,2.971,0,0,1,2.457-1.176A2.784,2.784,0,0,1,26.242-7.6l.086-.852h1.711v8.2A3.406,3.406,0,0,1,27,2.367a3.943,3.943,0,0,1-2.793.961,4.5,4.5,0,0,1-1.816-.387A3.227,3.227,0,0,1,21.047,1.93l.9-1.141A2.713,2.713,0,0,0,24.1,1.828a2.1,2.1,0,0,0,1.492-.512,1.961,1.961,0,0,0,.547-1.5v-.57a2.8,2.8,0,0,1-2.187.914,2.964,2.964,0,0,1-2.426-1.18A5.1,5.1,0,0,1,20.586-4.289Zm1.891.164a3.4,3.4,0,0,0,.52,2,1.671,1.671,0,0,0,1.441.73,1.827,1.827,0,0,0,1.7-.984V-6.094a1.8,1.8,0,0,0-1.687-.961A1.677,1.677,0,0,0,23-6.312,3.811,3.811,0,0,0,22.477-4.125ZM34.414-6.719a4.7,4.7,0,0,0-.773-.062,1.741,1.741,0,0,0-1.758,1V0h-1.9V-8.453H31.8l.047.945a2.139,2.139,0,0,1,1.906-1.1,1.777,1.777,0,0,1,.672.109ZM40.19,0a2.93,2.93,0,0,1-.219-.789,2.955,2.955,0,0,1-2.219.945A2.982,2.982,0,0,1,35.674-.57a2.325,2.325,0,0,1-.8-1.8,2.4,2.4,0,0,1,1-2.074,4.865,4.865,0,0,1,2.871-.723h1.164v-.555a1.481,1.481,0,0,0-.367-1.051,1.456,1.456,0,0,0-1.117-.395,1.672,1.672,0,0,0-1.062.324,1,1,0,0,0-.414.824h-1.9a2.107,2.107,0,0,1,.461-1.3,3.071,3.071,0,0,1,1.254-.949,4.4,4.4,0,0,1,1.77-.344,3.547,3.547,0,0,1,2.367.746,2.661,2.661,0,0,1,.906,2.1v3.813a4.321,4.321,0,0,0,.32,1.82V0ZM38.1-1.367a2.16,2.16,0,0,0,1.059-.273,1.827,1.827,0,0,0,.746-.734V-3.969H38.885A2.8,2.8,0,0,0,37.3-3.6a1.189,1.189,0,0,0-.531,1.039,1.109,1.109,0,0,0,.363.871A1.407,1.407,0,0,0,38.1-1.367Zm9.7-3.258a11.9,11.9,0,0,1,.484-3.426,9.4,9.4,0,0,1,1.422-2.9A5.646,5.646,0,0,1,51.7-12.742l.375,1.109a5.8,5.8,0,0,0-1.785,2.551,11.424,11.424,0,0,0-.746,3.926l-.008.672A12.42,12.42,0,0,0,50.2-.262a6.224,6.224,0,0,0,1.871,2.824L51.7,3.617a5.655,5.655,0,0,1-1.988-1.8,9.4,9.4,0,0,1-1.422-2.9A12.374,12.374,0,0,1,47.807-4.625Zm11.852.57h1.414v1.523H59.658V0h-1.9V-2.531H52.846l-.055-1.156L57.7-11.375h1.961Zm-4.875,0H57.76V-8.8l-.141.25ZM66.112-4.5a11.754,11.754,0,0,1-.477,3.348A9.485,9.485,0,0,1,64.19,1.785a5.66,5.66,0,0,1-2.023,1.832l-.375-1.055a6,6,0,0,0,1.855-2.77,12.3,12.3,0,0,0,.684-4.254v-.18A12.484,12.484,0,0,0,63.737-8.6a6.98,6.98,0,0,0-1.7-2.863l-.242-.219.375-1.062A5.6,5.6,0,0,1,64.1-11.023a9.326,9.326,0,0,1,1.438,2.762A11.5,11.5,0,0,1,66.1-5.109Z" transform="translate(7.613 155.269)"/>
  <path id="Trazado_634859" data-name="Trazado 634859" d="M9.836-3.7A4.107,4.107,0,0,1,8.492-.863,4.581,4.581,0,0,1,5.375.156,4.436,4.436,0,0,1,2.98-.488a4.231,4.231,0,0,1-1.6-1.832A6.611,6.611,0,0,1,.8-5.078V-6.141a6.659,6.659,0,0,1,.57-2.836A4.3,4.3,0,0,1,3-10.867a4.566,4.566,0,0,1,2.465-.664A4.4,4.4,0,0,1,8.5-10.512,4.26,4.26,0,0,1,9.836-7.625H7.867a2.81,2.81,0,0,0-.715-1.77,2.363,2.363,0,0,0-1.684-.543A2.308,2.308,0,0,0,3.488-9a4.709,4.709,0,0,0-.707,2.764v1.009a5,5,0,0,0,.66,2.815,2.191,2.191,0,0,0,1.934.97,2.555,2.555,0,0,0,1.75-.523A2.729,2.729,0,0,0,7.867-3.7Zm1.227-.6a4.984,4.984,0,0,1,.492-2.238,3.6,3.6,0,0,1,1.383-1.531,3.9,3.9,0,0,1,2.047-.535,3.692,3.692,0,0,1,2.777,1.1,4.333,4.333,0,0,1,1.152,2.922l.008.445a5.029,5.029,0,0,1-.48,2.234A3.551,3.551,0,0,1,17.066-.383,3.925,3.925,0,0,1,15,.156a3.667,3.667,0,0,1-2.863-1.191,4.563,4.563,0,0,1-1.074-3.176Zm1.9.164A3.406,3.406,0,0,0,13.5-2.1a1.752,1.752,0,0,0,1.5.738,1.733,1.733,0,0,0,1.5-.75,3.762,3.762,0,0,0,.535-2.2,3.362,3.362,0,0,0-.551-2.031,1.759,1.759,0,0,0-1.5-.75,1.743,1.743,0,0,0-1.477.738A3.691,3.691,0,0,0,12.961-4.141ZM24.953-6.719a4.7,4.7,0,0,0-.773-.062,1.741,1.741,0,0,0-1.758,1V0h-1.9V-8.453h1.813l.047.945a2.139,2.139,0,0,1,1.906-1.1,1.777,1.777,0,0,1,.672.109Zm4.379,5.359a1.716,1.716,0,0,0,1.18-.414,1.415,1.415,0,0,0,.5-1.023H32.8a2.789,2.789,0,0,1-.492,1.473,3.228,3.228,0,0,1-1.25,1.082,3.725,3.725,0,0,1-1.7.4A3.6,3.6,0,0,1,26.543-.992,4.555,4.555,0,0,1,25.5-4.164v-.2a4.479,4.479,0,0,1,1.031-3.09,3.571,3.571,0,0,1,2.813-1.16,3.473,3.473,0,0,1,2.457.879,3.148,3.148,0,0,1,1,2.309H31.012a1.738,1.738,0,0,0-.5-1.2,1.6,1.6,0,0,0-1.184-.469,1.671,1.671,0,0,0-1.422.668A3.408,3.408,0,0,0,27.4-4.391v.3a3.465,3.465,0,0,0,.5,2.051A1.669,1.669,0,0,0,29.333-1.359Zm6.773-6.172a2.971,2.971,0,0,1,2.352-1.078q2.7,0,2.742,3.086V0H39.3V-5.453a1.669,1.669,0,0,0-.379-1.238,1.549,1.549,0,0,0-1.113-.363,1.829,1.829,0,0,0-1.7,1.016V0h-1.9V-12h1.9ZM46.84.156A3.928,3.928,0,0,1,43.915-.98a4.124,4.124,0,0,1-1.121-3.027v-.234A5.072,5.072,0,0,1,43.282-6.5a3.716,3.716,0,0,1,1.371-1.551,3.625,3.625,0,0,1,1.969-.555,3.318,3.318,0,0,1,2.668,1.1,4.658,4.658,0,0,1,.941,3.117v.766H44.708a2.539,2.539,0,0,0,.7,1.656,2.1,2.1,0,0,0,1.543.609,2.571,2.571,0,0,0,2.125-1.055l1.023.977A3.418,3.418,0,0,1,48.743-.262,4.244,4.244,0,0,1,46.84.156Zm-.227-7.242a1.6,1.6,0,0,0-1.262.547,2.835,2.835,0,0,0-.613,1.523h3.617v-.141A2.307,2.307,0,0,0,47.848-6.6,1.586,1.586,0,0,0,46.614-7.086ZM56.754,0a2.93,2.93,0,0,1-.219-.789,2.955,2.955,0,0,1-2.219.945A2.982,2.982,0,0,1,52.239-.57a2.325,2.325,0,0,1-.8-1.8,2.4,2.4,0,0,1,1-2.074,4.865,4.865,0,0,1,2.871-.723h1.164v-.555a1.481,1.481,0,0,0-.367-1.051,1.456,1.456,0,0,0-1.117-.395,1.672,1.672,0,0,0-1.062.324,1,1,0,0,0-.414.824h-1.9a2.107,2.107,0,0,1,.461-1.3,3.071,3.071,0,0,1,1.254-.949,4.4,4.4,0,0,1,1.77-.344,3.547,3.547,0,0,1,2.367.746,2.661,2.661,0,0,1,.906,2.1v3.813a4.321,4.321,0,0,0,.32,1.82V0ZM54.668-1.367a2.16,2.16,0,0,0,1.059-.273,1.827,1.827,0,0,0,.746-.734V-3.969H55.45a2.8,2.8,0,0,0-1.586.367,1.189,1.189,0,0,0-.531,1.039,1.109,1.109,0,0,0,.363.871A1.407,1.407,0,0,0,54.668-1.367Zm9.7-3.258a11.9,11.9,0,0,1,.484-3.426,9.4,9.4,0,0,1,1.422-2.9,5.646,5.646,0,0,1,1.984-1.793l.375,1.109a5.8,5.8,0,0,0-1.785,2.551,11.424,11.424,0,0,0-.746,3.926l-.008.672a12.42,12.42,0,0,0,.668,4.223,6.224,6.224,0,0,0,1.871,2.824l-.375,1.055a5.655,5.655,0,0,1-1.988-1.8,9.4,9.4,0,0,1-1.422-2.9A12.374,12.374,0,0,1,64.372-4.625Zm12.594-3.75a2.644,2.644,0,0,1-.43,1.488,2.98,2.98,0,0,1-1.172,1.027,3.246,3.246,0,0,1,1.371,1.133,2.858,2.858,0,0,1,.48,1.625A2.984,2.984,0,0,1,76.2-.723a3.986,3.986,0,0,1-2.7.879,4,4,0,0,1-2.715-.883A2.982,2.982,0,0,1,69.762-3.1a2.891,2.891,0,0,1,.484-1.641,3.111,3.111,0,0,1,1.359-1.117,2.964,2.964,0,0,1-1.16-1.027,2.662,2.662,0,0,1-.426-1.488,2.959,2.959,0,0,1,.938-2.3,3.622,3.622,0,0,1,2.531-.852,3.633,3.633,0,0,1,2.539.852A2.959,2.959,0,0,1,76.965-8.375ZM75.317-3.2a1.875,1.875,0,0,0-.5-1.363,1.771,1.771,0,0,0-1.332-.52,1.752,1.752,0,0,0-1.324.516,1.889,1.889,0,0,0-.5,1.367,1.83,1.83,0,0,0,.488,1.336,1.8,1.8,0,0,0,1.348.5,1.8,1.8,0,0,0,1.34-.484A1.836,1.836,0,0,0,75.317-3.2ZM75.075-8.3a1.765,1.765,0,0,0-.43-1.223,1.474,1.474,0,0,0-1.156-.48,1.486,1.486,0,0,0-1.148.457A1.766,1.766,0,0,0,71.919-8.3a1.759,1.759,0,0,0,.426,1.242A1.492,1.492,0,0,0,73.5-6.6a1.492,1.492,0,0,0,1.152-.461A1.759,1.759,0,0,0,75.075-8.3Zm7.6,3.8A11.754,11.754,0,0,1,82.2-1.152a9.485,9.485,0,0,1-1.445,2.938,5.66,5.66,0,0,1-2.023,1.832l-.375-1.055a6,6,0,0,0,1.855-2.77A12.3,12.3,0,0,0,80.9-4.461v-.18A12.484,12.484,0,0,0,80.3-8.6a6.98,6.98,0,0,0-1.7-2.863l-.242-.219.375-1.062a5.6,5.6,0,0,1,1.938,1.719,9.326,9.326,0,0,1,1.438,2.762,11.5,11.5,0,0,1,.563,3.152Z" transform="translate(7.613 207.732)"/>
  <path id="Trazado_634860" data-name="Trazado 634860" d="M7.1-2.93a1.374,1.374,0,0,0-.527-1.156,6.345,6.345,0,0,0-1.9-.82,9.186,9.186,0,0,1-2.187-.922A2.919,2.919,0,0,1,.93-8.375a2.772,2.772,0,0,1,1.121-2.266,4.538,4.538,0,0,1,2.91-.891,4.916,4.916,0,0,1,2.117.438A3.475,3.475,0,0,1,8.539-9.848,3.2,3.2,0,0,1,9.07-8.055H7.1a1.782,1.782,0,0,0-.559-1.395,2.305,2.305,0,0,0-1.6-.5,2.408,2.408,0,0,0-1.5.414,1.379,1.379,0,0,0-.535,1.156A1.247,1.247,0,0,0,3.484-7.34a6.66,6.66,0,0,0,1.906.813,8.768,8.768,0,0,1,2.133.9A3.392,3.392,0,0,1,8.7-4.473a3.011,3.011,0,0,1,.375,1.527A2.707,2.707,0,0,1,7.988-.684a4.727,4.727,0,0,1-2.957.84A5.557,5.557,0,0,1,2.762-.3,3.812,3.812,0,0,1,1.152-1.562,3.144,3.144,0,0,1,.578-3.437H2.555a1.84,1.84,0,0,0,.641,1.5,2.805,2.805,0,0,0,1.836.531,2.437,2.437,0,0,0,1.551-.418A1.349,1.349,0,0,0,7.1-2.93ZM14.352.156A3.928,3.928,0,0,1,11.426-.98,4.124,4.124,0,0,1,10.3-4.008v-.234A5.072,5.072,0,0,1,10.793-6.5a3.716,3.716,0,0,1,1.371-1.551,3.625,3.625,0,0,1,1.969-.555,3.318,3.318,0,0,1,2.668,1.1,4.658,4.658,0,0,1,.941,3.117v.766H12.219a2.539,2.539,0,0,0,.7,1.656,2.1,2.1,0,0,0,1.543.609,2.571,2.571,0,0,0,2.125-1.055l1.023.977A3.418,3.418,0,0,1,16.254-.262,4.244,4.244,0,0,1,14.352.156Zm-.227-7.242a1.6,1.6,0,0,0-1.262.547,2.835,2.835,0,0,0-.613,1.523h3.617v-.141A2.307,2.307,0,0,0,15.359-6.6,1.586,1.586,0,0,0,14.125-7.086ZM21-8.453l.055.883a3.042,3.042,0,0,1,2.438-1.039,2.337,2.337,0,0,1,2.32,1.3,3,3,0,0,1,2.594-1.3,2.636,2.636,0,0,1,2.082.773,3.405,3.405,0,0,1,.7,2.281V0h-1.9V-5.5a1.681,1.681,0,0,0-.352-1.18,1.539,1.539,0,0,0-1.164-.375,1.581,1.581,0,0,0-1.059.348,1.833,1.833,0,0,0-.574.91L26.148,0h-1.9V-5.562a1.354,1.354,0,0,0-1.523-1.492,1.671,1.671,0,0,0-1.617.93V0h-1.9V-8.453ZM35.156,0h-1.9V-8.453h1.9ZM33.141-10.648a1.008,1.008,0,0,1,.277-.727,1.048,1.048,0,0,1,.793-.289,1.061,1.061,0,0,1,.8.289,1,1,0,0,1,.281.727.977.977,0,0,1-.281.715,1.069,1.069,0,0,1-.8.285,1.056,1.056,0,0,1-.793-.285A.984.984,0,0,1,33.141-10.648ZM40.7-1.359a1.716,1.716,0,0,0,1.18-.414,1.415,1.415,0,0,0,.5-1.023h1.789a2.789,2.789,0,0,1-.492,1.473,3.228,3.228,0,0,1-1.25,1.082,3.725,3.725,0,0,1-1.7.4A3.6,3.6,0,0,1,37.906-.992a4.555,4.555,0,0,1-1.039-3.172v-.2A4.479,4.479,0,0,1,37.9-7.449a3.571,3.571,0,0,1,2.813-1.16,3.473,3.473,0,0,1,2.457.879,3.148,3.148,0,0,1,1,2.309H42.375a1.738,1.738,0,0,0-.5-1.2A1.6,1.6,0,0,0,40.7-7.086a1.671,1.671,0,0,0-1.422.668,3.408,3.408,0,0,0-.508,2.027v.3a3.465,3.465,0,0,0,.5,2.051A1.669,1.669,0,0,0,40.7-1.359ZM45.242-4.3a4.984,4.984,0,0,1,.492-2.238,3.6,3.6,0,0,1,1.383-1.531,3.9,3.9,0,0,1,2.047-.535,3.692,3.692,0,0,1,2.777,1.1,4.333,4.333,0,0,1,1.152,2.922l.008.445a5.029,5.029,0,0,1-.48,2.234A3.551,3.551,0,0,1,51.246-.383,3.925,3.925,0,0,1,49.18.156a3.667,3.667,0,0,1-2.863-1.191,4.563,4.563,0,0,1-1.074-3.176Zm1.9.164A3.406,3.406,0,0,0,47.68-2.1a1.752,1.752,0,0,0,1.5.738,1.733,1.733,0,0,0,1.5-.75,3.762,3.762,0,0,0,.535-2.2,3.362,3.362,0,0,0-.551-2.031,1.759,1.759,0,0,0-1.5-.75,1.743,1.743,0,0,0-1.477.738A3.691,3.691,0,0,0,47.141-4.141ZM59.133-6.719a4.7,4.7,0,0,0-.773-.062,1.741,1.741,0,0,0-1.758,1V0H54.7V-8.453h1.813l.047.945a2.139,2.139,0,0,1,1.906-1.1,1.777,1.777,0,0,1,.672.109Zm4.4,5.359a1.716,1.716,0,0,0,1.18-.414,1.415,1.415,0,0,0,.5-1.023H67A2.789,2.789,0,0,1,66.5-1.324a3.228,3.228,0,0,1-1.25,1.082,3.725,3.725,0,0,1-1.7.4A3.6,3.6,0,0,1,60.739-.992,4.555,4.555,0,0,1,59.7-4.164v-.2a4.479,4.479,0,0,1,1.031-3.09,3.571,3.571,0,0,1,2.813-1.16A3.473,3.473,0,0,1,66-7.73a3.148,3.148,0,0,1,1,2.309H65.208a1.738,1.738,0,0,0-.5-1.2,1.6,1.6,0,0,0-1.184-.469,1.671,1.671,0,0,0-1.422.668A3.408,3.408,0,0,0,61.6-4.391v.3a3.465,3.465,0,0,0,.5,2.051A1.669,1.669,0,0,0,63.528-1.359ZM70.3-7.531a2.971,2.971,0,0,1,2.352-1.078q2.7,0,2.742,3.086V0H73.5V-5.453a1.669,1.669,0,0,0-.379-1.238A1.549,1.549,0,0,0,72-7.055a1.829,1.829,0,0,0-1.7,1.016V0H68.4V-12h1.9ZM81.036.156A3.928,3.928,0,0,1,78.11-.98a4.124,4.124,0,0,1-1.121-3.027v-.234A5.072,5.072,0,0,1,77.477-6.5a3.716,3.716,0,0,1,1.371-1.551,3.625,3.625,0,0,1,1.969-.555,3.318,3.318,0,0,1,2.668,1.1,4.658,4.658,0,0,1,.941,3.117v.766H78.9a2.539,2.539,0,0,0,.7,1.656,2.1,2.1,0,0,0,1.543.609A2.571,2.571,0,0,0,83.27-2.414l1.023.977A3.418,3.418,0,0,1,82.938-.262,4.244,4.244,0,0,1,81.036.156ZM80.81-7.086a1.6,1.6,0,0,0-1.262.547,2.835,2.835,0,0,0-.613,1.523h3.617v-.141A2.307,2.307,0,0,0,82.044-6.6,1.586,1.586,0,0,0,80.81-7.086ZM90.95,0a2.93,2.93,0,0,1-.219-.789,2.955,2.955,0,0,1-2.219.945A2.982,2.982,0,0,1,86.435-.57a2.325,2.325,0,0,1-.8-1.8,2.4,2.4,0,0,1,1-2.074A4.865,4.865,0,0,1,89.5-5.164h1.164v-.555A1.481,1.481,0,0,0,90.3-6.77a1.456,1.456,0,0,0-1.117-.395,1.672,1.672,0,0,0-1.062.324,1,1,0,0,0-.414.824h-1.9a2.107,2.107,0,0,1,.461-1.3,3.071,3.071,0,0,1,1.254-.949,4.4,4.4,0,0,1,1.77-.344,3.547,3.547,0,0,1,2.367.746,2.661,2.661,0,0,1,.906,2.1v3.813a4.321,4.321,0,0,0,.32,1.82V0ZM88.864-1.367a2.159,2.159,0,0,0,1.059-.273,1.827,1.827,0,0,0,.746-.734V-3.969H89.645A2.8,2.8,0,0,0,88.06-3.6a1.189,1.189,0,0,0-.531,1.039,1.109,1.109,0,0,0,.363.871A1.407,1.407,0,0,0,88.864-1.367Zm9.7-3.258a11.9,11.9,0,0,1,.484-3.426,9.4,9.4,0,0,1,1.422-2.9,5.646,5.646,0,0,1,1.984-1.793l.375,1.109a5.8,5.8,0,0,0-1.785,2.551,11.424,11.424,0,0,0-.746,3.926l-.008.672a12.42,12.42,0,0,0,.668,4.223,6.224,6.224,0,0,0,1.871,2.824l-.375,1.055a5.655,5.655,0,0,1-1.988-1.8,9.4,9.4,0,0,1-1.422-2.9A12.374,12.374,0,0,1,98.567-4.625ZM109.138,0h-1.891V-9.138l-2.789.951V-9.781l4.438-1.633h.242ZM119-11.43v1.57h-.234a3.768,3.768,0,0,0-2.547.875,3.661,3.661,0,0,0-1.133,2.414,3.083,3.083,0,0,1,2.336-.961A2.912,2.912,0,0,1,119.8-6.469a4.185,4.185,0,0,1,.871,2.742,3.912,3.912,0,0,1-1.02,2.809A3.519,3.519,0,0,1,116.974.156,3.438,3.438,0,0,1,114.212-1.1a4.948,4.948,0,0,1-1.059-3.3v-.648a6.962,6.962,0,0,1,1.457-4.687,5.224,5.224,0,0,1,4.191-1.7ZM116.958-6a2,2,0,0,0-1.145.352,2.055,2.055,0,0,0-.762.938v.578a3.405,3.405,0,0,0,.531,2.012,1.62,1.62,0,0,0,1.375.746,1.6,1.6,0,0,0,1.336-.633,2.635,2.635,0,0,0,.492-1.664,2.673,2.673,0,0,0-.5-1.68A1.594,1.594,0,0,0,116.958-6Zm9.008,1.5a11.754,11.754,0,0,1-.477,3.348,9.485,9.485,0,0,1-1.445,2.938,5.66,5.66,0,0,1-2.023,1.832l-.375-1.055A6,6,0,0,0,123.5-.207a12.3,12.3,0,0,0,.684-4.254v-.18a12.484,12.484,0,0,0-.594-3.957,6.98,6.98,0,0,0-1.7-2.863l-.242-.219.375-1.062a5.6,5.6,0,0,1,1.938,1.719A9.326,9.326,0,0,1,125.4-8.262a11.5,11.5,0,0,1,.563,3.152Z" transform="translate(7.613 260.197)"/>
  <path id="Trazado_634861" data-name="Trazado 634861" d="M7.711-4.82H3.133V0H1.156V-11.375H8.383v1.594H3.133V-6.4H7.711Zm6.84,3.992a2.944,2.944,0,0,1-2.375.984,2.624,2.624,0,0,1-2.082-.8,3.423,3.423,0,0,1-.707-2.328V-8.453h1.9V-3q0,1.609,1.336,1.609a1.876,1.876,0,0,0,1.867-.992v-6.07h1.9V0H14.6ZM23.059-2.3a.861.861,0,0,0-.418-.773,4.445,4.445,0,0,0-1.387-.469,7.129,7.129,0,0,1-1.617-.516,2.158,2.158,0,0,1-1.422-1.992,2.25,2.25,0,0,1,.922-1.828,3.644,3.644,0,0,1,2.344-.734,3.792,3.792,0,0,1,2.449.75,2.38,2.38,0,0,1,.934,1.945h-1.9a1.17,1.17,0,0,0-.406-.91,1.557,1.557,0,0,0-1.078-.363,1.682,1.682,0,0,0-1.02.289.911.911,0,0,0-.395.773.769.769,0,0,0,.367.68,5.049,5.049,0,0,0,1.484.488,7.027,7.027,0,0,1,1.754.586,2.484,2.484,0,0,1,.945.816A2.082,2.082,0,0,1,24.926-2.4a2.2,2.2,0,0,1-.945,1.848A4.031,4.031,0,0,1,21.5.156a4.371,4.371,0,0,1-1.852-.375A3.047,3.047,0,0,1,18.387-1.25a2.441,2.441,0,0,1-.453-1.414h1.844a1.338,1.338,0,0,0,.508,1.035,1.973,1.973,0,0,0,1.242.363,1.92,1.92,0,0,0,1.141-.285A.883.883,0,0,0,23.059-2.3ZM31.629,0a2.93,2.93,0,0,1-.219-.789,2.955,2.955,0,0,1-2.219.945A2.982,2.982,0,0,1,27.113-.57a2.325,2.325,0,0,1-.8-1.8,2.4,2.4,0,0,1,1-2.074,4.865,4.865,0,0,1,2.871-.723h1.164v-.555a1.481,1.481,0,0,0-.367-1.051,1.456,1.456,0,0,0-1.117-.395A1.672,1.672,0,0,0,28.8-6.84a1,1,0,0,0-.414.824h-1.9a2.107,2.107,0,0,1,.461-1.3A3.071,3.071,0,0,1,28.2-8.266a4.4,4.4,0,0,1,1.77-.344,3.547,3.547,0,0,1,2.367.746,2.661,2.661,0,0,1,.906,2.1v3.813a4.321,4.321,0,0,0,.32,1.82V0ZM29.543-1.367A2.159,2.159,0,0,0,30.6-1.641a1.827,1.827,0,0,0,.746-.734V-3.969H30.324a2.8,2.8,0,0,0-1.586.367,1.189,1.189,0,0,0-.531,1.039,1.109,1.109,0,0,0,.363.871A1.407,1.407,0,0,0,29.543-1.367Zm9.7-3.258a11.9,11.9,0,0,1,.484-3.426,9.4,9.4,0,0,1,1.422-2.9,5.646,5.646,0,0,1,1.984-1.793l.375,1.109a5.8,5.8,0,0,0-1.785,2.551,11.424,11.424,0,0,0-.746,3.926l-.008.672a12.42,12.42,0,0,0,.668,4.223,6.224,6.224,0,0,0,1.871,2.824l-.375,1.055a5.655,5.655,0,0,1-1.988-1.8,9.4,9.4,0,0,1-1.422-2.9A12.374,12.374,0,0,1,39.246-4.625Zm7.625-1.93h1.156a2.069,2.069,0,0,0,1.387-.453A1.617,1.617,0,0,0,49.926-8.3,1.762,1.762,0,0,0,49.5-9.559a1.714,1.714,0,0,0-1.3-.449,1.813,1.813,0,0,0-1.258.441,1.475,1.475,0,0,0-.492,1.152h-1.9a2.874,2.874,0,0,1,.465-1.594,3.123,3.123,0,0,1,1.3-1.121,4.225,4.225,0,0,1,1.863-.4,3.912,3.912,0,0,1,2.676.855A3,3,0,0,1,51.824-8.3a2.417,2.417,0,0,1-.488,1.441,3.062,3.062,0,0,1-1.262,1.02A2.791,2.791,0,0,1,51.5-4.828a2.759,2.759,0,0,1,.488,1.641A3.055,3.055,0,0,1,50.938-.75a4.08,4.08,0,0,1-2.762.906,4.049,4.049,0,0,1-2.687-.875,2.882,2.882,0,0,1-1.047-2.328h1.9a1.588,1.588,0,0,0,.5,1.219,1.911,1.911,0,0,0,1.355.469,1.971,1.971,0,0,0,1.391-.469A1.758,1.758,0,0,0,50.1-3.187a1.776,1.776,0,0,0-.531-1.383,2.271,2.271,0,0,0-1.578-.484H46.871ZM61.418,0H53.77V-1.3l3.789-4.133a9.435,9.435,0,0,0,1.168-1.527,2.475,2.475,0,0,0,.348-1.23,1.87,1.87,0,0,0-.457-1.312,1.585,1.585,0,0,0-1.23-.5,1.827,1.827,0,0,0-1.43.563,2.212,2.212,0,0,0-.508,1.539h-1.9a3.721,3.721,0,0,1,.473-1.871,3.255,3.255,0,0,1,1.352-1.293,4.3,4.3,0,0,1,2.027-.461,3.848,3.848,0,0,1,2.613.832,2.888,2.888,0,0,1,.957,2.3,3.9,3.9,0,0,1-.48,1.785,10.151,10.151,0,0,1-1.574,2.121L56.137-1.516h5.281Zm5.227-4.5a11.754,11.754,0,0,1-.477,3.348,9.485,9.485,0,0,1-1.445,2.938A5.66,5.66,0,0,1,62.7,3.617l-.375-1.055A6,6,0,0,0,64.18-.207a12.3,12.3,0,0,0,.684-4.254v-.18A12.484,12.484,0,0,0,64.27-8.6a6.98,6.98,0,0,0-1.7-2.863l-.242-.219.375-1.062a5.6,5.6,0,0,1,1.937,1.719,9.326,9.326,0,0,1,1.438,2.762,11.5,11.5,0,0,1,.563,3.152Z" transform="translate(7.613 312.661)"/>
  <path id="Trazado_634862" data-name="Trazado 634862" d="M7.1-2.93a1.374,1.374,0,0,0-.527-1.156,6.345,6.345,0,0,0-1.9-.82,9.186,9.186,0,0,1-2.187-.922A2.919,2.919,0,0,1,.93-8.375a2.772,2.772,0,0,1,1.121-2.266,4.538,4.538,0,0,1,2.91-.891,4.916,4.916,0,0,1,2.117.438A3.475,3.475,0,0,1,8.539-9.848,3.2,3.2,0,0,1,9.07-8.055H7.1a1.782,1.782,0,0,0-.559-1.395,2.305,2.305,0,0,0-1.6-.5,2.408,2.408,0,0,0-1.5.414,1.379,1.379,0,0,0-.535,1.156A1.247,1.247,0,0,0,3.484-7.34a6.66,6.66,0,0,0,1.906.813,8.768,8.768,0,0,1,2.133.9A3.392,3.392,0,0,1,8.7-4.473a3.011,3.011,0,0,1,.375,1.527A2.707,2.707,0,0,1,7.988-.684a4.727,4.727,0,0,1-2.957.84A5.557,5.557,0,0,1,2.762-.3,3.812,3.812,0,0,1,1.152-1.562,3.144,3.144,0,0,1,.578-3.437H2.555a1.84,1.84,0,0,0,.641,1.5,2.805,2.805,0,0,0,1.836.531,2.437,2.437,0,0,0,1.551-.418A1.349,1.349,0,0,0,7.1-2.93ZM14.352.156A3.928,3.928,0,0,1,11.426-.98,4.124,4.124,0,0,1,10.3-4.008v-.234A5.072,5.072,0,0,1,10.793-6.5a3.716,3.716,0,0,1,1.371-1.551,3.625,3.625,0,0,1,1.969-.555,3.318,3.318,0,0,1,2.668,1.1,4.658,4.658,0,0,1,.941,3.117v.766H12.219a2.539,2.539,0,0,0,.7,1.656,2.1,2.1,0,0,0,1.543.609,2.571,2.571,0,0,0,2.125-1.055l1.023.977A3.418,3.418,0,0,1,16.254-.262,4.244,4.244,0,0,1,14.352.156Zm-.227-7.242a1.6,1.6,0,0,0-1.262.547,2.835,2.835,0,0,0-.613,1.523h3.617v-.141A2.307,2.307,0,0,0,15.359-6.6,1.586,1.586,0,0,0,14.125-7.086ZM21-8.453l.055.883a3.042,3.042,0,0,1,2.438-1.039,2.337,2.337,0,0,1,2.32,1.3,3,3,0,0,1,2.594-1.3,2.636,2.636,0,0,1,2.082.773,3.405,3.405,0,0,1,.7,2.281V0h-1.9V-5.5a1.681,1.681,0,0,0-.352-1.18,1.539,1.539,0,0,0-1.164-.375,1.581,1.581,0,0,0-1.059.348,1.833,1.833,0,0,0-.574.91L26.148,0h-1.9V-5.562a1.354,1.354,0,0,0-1.523-1.492,1.671,1.671,0,0,0-1.617.93V0h-1.9V-8.453ZM35.156,0h-1.9V-8.453h1.9ZM33.141-10.648a1.008,1.008,0,0,1,.277-.727,1.048,1.048,0,0,1,.793-.289,1.061,1.061,0,0,1,.8.289,1,1,0,0,1,.281.727.977.977,0,0,1-.281.715,1.069,1.069,0,0,1-.8.285,1.056,1.056,0,0,1-.793-.285A.984.984,0,0,1,33.141-10.648ZM37.891,0V-7.047H36.6V-8.453h1.289v-.773a2.9,2.9,0,0,1,.781-2.172,2.993,2.993,0,0,1,2.188-.766,4.388,4.388,0,0,1,1.063.141l-.047,1.484a3.739,3.739,0,0,0-.727-.062,1.219,1.219,0,0,0-1.359,1.4v.75h1.719v1.406H39.789V0ZM48.016-.828a2.944,2.944,0,0,1-2.375.984,2.624,2.624,0,0,1-2.082-.8,3.423,3.423,0,0,1-.707-2.328V-8.453h1.9V-3q0,1.609,1.336,1.609a1.876,1.876,0,0,0,1.867-.992v-6.07h1.9V0H48.063ZM56.523-2.3a.861.861,0,0,0-.418-.773,4.445,4.445,0,0,0-1.387-.469A7.129,7.129,0,0,1,53.1-4.055,2.158,2.158,0,0,1,51.68-6.047,2.25,2.25,0,0,1,52.6-7.875a3.644,3.644,0,0,1,2.344-.734,3.792,3.792,0,0,1,2.449.75,2.38,2.38,0,0,1,.934,1.945h-1.9a1.17,1.17,0,0,0-.406-.91,1.557,1.557,0,0,0-1.078-.363,1.682,1.682,0,0,0-1.02.289.911.911,0,0,0-.395.773.769.769,0,0,0,.367.68,5.049,5.049,0,0,0,1.484.488,7.027,7.027,0,0,1,1.754.586,2.484,2.484,0,0,1,.945.816A2.082,2.082,0,0,1,58.391-2.4a2.2,2.2,0,0,1-.945,1.848,4.031,4.031,0,0,1-2.477.707,4.371,4.371,0,0,1-1.852-.375A3.047,3.047,0,0,1,51.852-1.25,2.441,2.441,0,0,1,51.4-2.664h1.844a1.338,1.338,0,0,0,.508,1.035,1.973,1.973,0,0,0,1.242.363,1.92,1.92,0,0,0,1.141-.285A.883.883,0,0,0,56.523-2.3ZM65.094,0a2.93,2.93,0,0,1-.219-.789,2.955,2.955,0,0,1-2.219.945A2.982,2.982,0,0,1,60.578-.57a2.325,2.325,0,0,1-.8-1.8,2.4,2.4,0,0,1,1-2.074,4.865,4.865,0,0,1,2.871-.723h1.164v-.555a1.481,1.481,0,0,0-.367-1.051,1.456,1.456,0,0,0-1.117-.395,1.672,1.672,0,0,0-1.062.324,1,1,0,0,0-.414.824h-1.9a2.107,2.107,0,0,1,.461-1.3,3.071,3.071,0,0,1,1.254-.949,4.4,4.4,0,0,1,1.77-.344,3.547,3.547,0,0,1,2.367.746,2.661,2.661,0,0,1,.906,2.1v3.813a4.321,4.321,0,0,0,.32,1.82V0ZM63.008-1.367a2.16,2.16,0,0,0,1.059-.273,1.827,1.827,0,0,0,.746-.734V-3.969H63.789A2.8,2.8,0,0,0,62.2-3.6a1.189,1.189,0,0,0-.531,1.039,1.109,1.109,0,0,0,.363.871A1.407,1.407,0,0,0,63.008-1.367Zm9.7-3.258A11.9,11.9,0,0,1,73.2-8.051a9.4,9.4,0,0,1,1.422-2.9A5.646,5.646,0,0,1,76.6-12.742l.375,1.109a5.8,5.8,0,0,0-1.785,2.551,11.424,11.424,0,0,0-.746,3.926l-.008.672a12.42,12.42,0,0,0,.668,4.223,6.224,6.224,0,0,0,1.871,2.824L76.6,3.617a5.655,5.655,0,0,1-1.988-1.8,9.4,9.4,0,0,1-1.422-2.9A12.374,12.374,0,0,1,72.711-4.625Zm11.336-6.8v1.57h-.234a3.768,3.768,0,0,0-2.547.875A3.661,3.661,0,0,0,80.133-6.57a3.083,3.083,0,0,1,2.336-.961,2.912,2.912,0,0,1,2.379,1.063,4.185,4.185,0,0,1,.871,2.742A3.912,3.912,0,0,1,84.7-.918,3.519,3.519,0,0,1,82.023.156,3.438,3.438,0,0,1,79.262-1.1,4.948,4.948,0,0,1,78.2-4.4v-.648A6.962,6.962,0,0,1,79.66-9.734a5.224,5.224,0,0,1,4.191-1.7ZM82.008-6a2,2,0,0,0-1.145.352,2.055,2.055,0,0,0-.762.938v.578a3.405,3.405,0,0,0,.531,2.012,1.62,1.62,0,0,0,1.375.746,1.6,1.6,0,0,0,1.336-.633,2.635,2.635,0,0,0,.492-1.664,2.673,2.673,0,0,0-.5-1.68A1.594,1.594,0,0,0,82.008-6ZM93.656-4.055H95.07v1.523H93.656V0h-1.9V-2.531H86.844l-.055-1.156L91.7-11.375h1.961Zm-4.875,0h2.977V-8.8l-.141.25ZM100.109-4.5a11.754,11.754,0,0,1-.477,3.348,9.485,9.485,0,0,1-1.445,2.938,5.66,5.66,0,0,1-2.023,1.832l-.375-1.055a6,6,0,0,0,1.855-2.77,12.3,12.3,0,0,0,.684-4.254v-.18A12.484,12.484,0,0,0,97.734-8.6a6.98,6.98,0,0,0-1.7-2.863l-.242-.219.375-1.062A5.6,5.6,0,0,1,98.1-11.023a9.326,9.326,0,0,1,1.438,2.762,11.5,11.5,0,0,1,.563,3.152Z" transform="translate(7.613 365.125)"/>
</svg>
