<svg id="Grupo_1101569" data-name="Grupo 1101569" xmlns="http://www.w3.org/2000/svg" xmlns:xlink="http://www.w3.org/1999/xlink" width="400" height="232.781" viewBox="0 0 400 232.781">
  <defs>
    <clipPath id="clip-path">
      <rect id="Rectángulo_396395" data-name="Rectángulo 396395" width="400" height="232.781" fill="none"/>
    </clipPath>
  </defs>
  <path id="Trazado_634876" data-name="Trazado 634876" d="M0,0H400V232.781H0Z" fill="#c2f1ea"/>
  <path id="Trazado_634877" data-name="Trazado 634877" d="M0,0H382.14V.559H0Z" transform="translate(8.321 107.957)" fill="#12263f"/>
  <path id="Trazado_634878" data-name="Trazado 634878" d="M0,0H2.024V8.979H0Z" transform="translate(388.438 182.657)" fill="#12263f"/>
  <path id="Trazado_634879" data-name="Trazado 634879" d="M0,0H.621V8.87H0Z" transform="translate(385.711 182.766)" fill="#12263f"/>
  <path id="Trazado_634880" data-name="Trazado 634880" d="M0,0H.622V8.87H0Z" transform="translate(390.461 103.576)" fill="#12263f"/>
  <path id="Trazado_634881" data-name="Trazado 634881" d="M0,0H.621V8.87H0Z" transform="translate(311.964 103.576)" fill="#12263f"/>
  <path id="Trazado_634882" data-name="Trazado 634882" d="M0,0H.622V8.87H0Z" transform="translate(201.866 103.576)" fill="#12263f"/>
  <path id="Trazado_634883" data-name="Trazado 634883" d="M0,0H.621V8.87H0Z" transform="translate(106.577 103.576)" fill="#12263f"/>
  <g id="Grupo_1101568" data-name="Grupo 1101568">
    <g id="Grupo_1101567" data-name="Grupo 1101567" clip-path="url(#clip-path)">
      <path id="Trazado_634478" data-name="Trazado 634478" d="M72.2,107.708c.486,1.02,2.12,1.284,3.651.589a3.106,3.106,0,0,0,2.031-2.481V92.082a.266.266,0,0,0-.532,0V104.69A3.229,3.229,0,0,0,74.1,104.6c-1.531.695-2.379,2.085-1.894,3.105" fill="#12263f"/>
      <path id="Trazado_634479" data-name="Trazado 634479" d="M34.715,107.708c.486,1.02,2.12,1.284,3.651.589a3.106,3.106,0,0,0,2.031-2.481V92.082a.266.266,0,0,0-.532,0V104.69a3.229,3.229,0,0,0-3.257-.087c-1.531.695-2.379,2.085-1.894,3.105" fill="#12263f"/>
      <path id="Trazado_634480" data-name="Trazado 634480" d="M165.453,107.708c.486,1.02,2.12,1.284,3.651.589a3.106,3.106,0,0,0,2.031-2.481V92.082a.266.266,0,0,0-.532,0V104.69a3.229,3.229,0,0,0-3.257-.087c-1.531.695-2.379,2.085-1.894,3.105" fill="#12263f"/>
      <path id="Trazado_634481" data-name="Trazado 634481" d="M317.969,107.708c.486,1.02,2.12,1.284,3.651.589a3.106,3.106,0,0,0,2.031-2.481V92.082a.266.266,0,0,0-.532,0V104.69a3.229,3.229,0,0,0-3.257-.087c-1.531.695-2.379,2.085-1.894,3.105" fill="#12263f"/>
      <path id="Trazado_634482" data-name="Trazado 634482" d="M145.341,91.991h-26.3v12.656a2.994,2.994,0,0,0-3.081-.084c-1.45.672-2.252,2.019-1.793,3.007s2.006,1.244,3.454.57a3,3,0,0,0,1.922-2.4V93.805h25.3v10.842a2.99,2.99,0,0,0-3.079-.084c-1.45.672-2.253,2.019-1.794,3.007s2.007,1.244,3.455.57a3,3,0,0,0,1.922-2.4v-.018Z" fill="#12263f"/>
      <path id="Trazado_634483" data-name="Trazado 634483" d="M239.879,91.991h-26.3v12.656a2.994,2.994,0,0,0-3.081-.084c-1.45.672-2.252,2.019-1.793,3.007s2.006,1.244,3.454.57a3,3,0,0,0,1.922-2.4V93.805h25.3v10.842a2.99,2.99,0,0,0-3.079-.084c-1.45.672-2.253,2.019-1.794,3.007s2.007,1.244,3.455.57a3,3,0,0,0,1.922-2.4v-.018Z" fill="#12263f"/>
      <path id="Trazado_634484" data-name="Trazado 634484" d="M292.026,91.991h-26.3v12.656a2.994,2.994,0,0,0-3.081-.084c-1.45.672-2.252,2.019-1.793,3.007s2.006,1.244,3.454.57a3,3,0,0,0,1.922-2.4V93.805h25.3v10.842a2.99,2.99,0,0,0-3.079-.084c-1.45.672-2.253,2.019-1.794,3.007s2.007,1.244,3.455.57a2.992,2.992,0,0,0,1.921-2.4v-.018Z" fill="#12263f"/>
      <path id="Trazado_634485" data-name="Trazado 634485" d="M96.159,85.626c8.268,0,13.844-1.466,16.92-4.51a6.881,6.881,0,0,0,2.308-4.623h1.153a6.879,6.879,0,0,0,2.307,4.623c3.077,3.044,8.653,4.51,16.921,4.51h47.107c10.767,0,18.651,4.4,18.651,10.259v1.8h-1.154v-1.8c0-5.523-7.5-9.582-17.5-9.582H135.768c-8.653,0-14.613-1.579-17.882-4.849a6.815,6.815,0,0,1-1.923-3.608,6.8,6.8,0,0,1-1.923,3.608c-3.268,3.27-9.229,4.849-17.881,4.849H49.052c-10.191,0-17.5,4.059-17.5,9.582v1.8H30.4v-1.8c0-5.862,7.883-10.259,18.651-10.259Z"/>
      <path id="Trazado_634486" data-name="Trazado 634486" d="M271.088,85.626c8.268,0,13.844-1.466,16.92-4.51a6.881,6.881,0,0,0,2.308-4.623h1.153a6.879,6.879,0,0,0,2.307,4.623c3.077,3.044,8.653,4.51,16.921,4.51H357.8c10.767,0,18.651,4.4,18.651,10.259v1.8H375.3v-1.8c0-5.523-7.5-9.582-17.5-9.582H310.7c-8.653,0-14.613-1.579-17.882-4.849a6.815,6.815,0,0,1-1.923-3.608,6.807,6.807,0,0,1-1.922,3.608c-3.269,3.27-9.23,4.849-17.882,4.849H223.981c-10.191,0-17.5,4.059-17.5,9.582v1.8H205.33v-1.8c0-5.862,7.883-10.259,18.651-10.259Z"/>
      <path id="Trazado_634487" data-name="Trazado 634487" d="M96.159,160.117c8.268,0,13.844-1.466,16.92-4.51a6.879,6.879,0,0,0,2.308-4.623h1.153a6.877,6.877,0,0,0,2.307,4.623c3.077,3.044,8.653,4.51,16.921,4.51h47.107c10.767,0,18.651,4.4,18.651,10.26v1.8h-1.154v-1.8c0-5.524-7.5-9.583-17.5-9.583H135.768c-8.653,0-14.613-1.579-17.882-4.849a6.812,6.812,0,0,1-1.923-3.608,6.8,6.8,0,0,1-1.923,3.608c-3.268,3.27-9.229,4.849-17.881,4.849H49.052c-10.191,0-17.5,4.059-17.5,9.583v1.8H30.4v-1.8c0-5.863,7.883-10.26,18.651-10.26Z"/>
      <path id="Trazado_634488" data-name="Trazado 634488" d="M271.088,160.117c8.268,0,13.844-1.466,16.92-4.51a6.879,6.879,0,0,0,2.308-4.623h1.153a6.877,6.877,0,0,0,2.307,4.623c3.077,3.044,8.653,4.51,16.921,4.51H357.8c10.767,0,18.651,4.4,18.651,10.26v1.8H375.3v-1.8c0-5.524-7.5-9.583-17.5-9.583H310.7c-8.653,0-14.613-1.579-17.882-4.849a6.812,6.812,0,0,1-1.923-3.608,6.8,6.8,0,0,1-1.922,3.608c-3.269,3.27-9.23,4.849-17.882,4.849H223.981c-10.191,0-17.5,4.059-17.5,9.583v1.8H205.33v-1.8c0-5.863,7.883-10.26,18.651-10.26Z"/>
      <path id="Trazado_634489" data-name="Trazado 634489" d="M355.769,95.59s4.477,2.514,4.477,4.784-3.067,2.943-3.067,4.415,3.159,4.078,2.883,4.354c-.337.338-3.5-1.35-4.171-.675-1.2,1.2,1.044,3.863.676,4.232s-2.7-3.006-2.7-4.6.8-1.716,1.9-1.348a16.877,16.877,0,0,1,2.76,1.41s-3.986-2.637-3.986-4.6,3-1.9,3-3.742c0-1.655-1.778-4.231-1.778-4.231" fill="#12263f"/>
      <path id="Trazado_634490" data-name="Trazado 634490" d="M26.656,105.876a34.653,34.653,0,0,0-2.895,3.076,5.473,5.473,0,0,0-1.126,2.874h.4a1.418,1.418,0,0,1,1.466-1.307,5.829,5.829,0,0,1,2.172.752,6.052,6.052,0,0,0,2.643.754,1.944,1.944,0,0,0,1.728-.895,3.82,3.82,0,0,0,.593-2.161,5.25,5.25,0,0,0-.161-1.265h-.2a1.2,1.2,0,0,1-.383.8,1.369,1.369,0,0,1-.682.342,5.777,5.777,0,0,1-.926.061,6.382,6.382,0,0,1-1.538-.261,6.771,6.771,0,0,0-1.738-.262,1.879,1.879,0,0,0-1.246.4,2.952,2.952,0,0,1,1.216-.955,16.412,16.412,0,0,1,1.749-.723,15.4,15.4,0,0,0,1.749-.734,3.591,3.591,0,0,0,1.407-1.246,3.527,3.527,0,0,0,.553-2.011,2.548,2.548,0,0,0-1.327-2.27,5.993,5.993,0,0,0-3.226-.824,4.692,4.692,0,0,0-2.954.824,2.5,2.5,0,0,0-1.055,2.05,1.87,1.87,0,0,0,.442,1.285,1.43,1.43,0,0,0,1.124.5,1.472,1.472,0,0,0,1.076-.381,1.242,1.242,0,0,0,.393-.924,1.3,1.3,0,0,0-.272-.865,1.234,1.234,0,0,0-.584-.412,2.451,2.451,0,0,1-.582-.251.531.531,0,0,1-.272-.492c0-.222.187-.418.564-.593a2.933,2.933,0,0,1,1.246-.261,1.953,1.953,0,0,1,1.608.664,2.422,2.422,0,0,1,.542,1.586,3.4,3.4,0,0,1-.462,1.73,6.581,6.581,0,0,1-1.044,1.386" transform="translate(-3.431 -4.599)" fill="#12263f"/>
      <path id="Trazado_634491" data-name="Trazado 634491" d="M31.585,115.367v1.327H30.1v-8.421H28.086l-5.708,8.421v.4h4.7v2.471H25.775v.4H31.4v-.4H30.1V117.1h1.488v1.366h.462v-3.1Zm-4.5,1.327H22.9l4.181-6.21Z" transform="translate(-3.576 0.027)" fill="#12263f"/>
      <rect id="Rectángulo_396387" data-name="Rectángulo 396387" width="2.024" height="8.979" transform="translate(15.172 103.224)" fill="#12263f"/>
      <rect id="Rectángulo_396388" data-name="Rectángulo 396388" width="2.024" height="8.979" transform="translate(11.836 103.224)" fill="#12263f"/>
      <rect id="Rectángulo_396389" data-name="Rectángulo 396389" width="382.14" height="0.559" transform="translate(8.322 186.821)" fill="#12263f"/>
      <rect id="Rectángulo_396390" data-name="Rectángulo 396390" width="0.621" height="8.869" transform="translate(299.965 182.142)" fill="#12263f"/>
      <rect id="Rectángulo_396391" data-name="Rectángulo 396391" width="0.621" height="8.869" transform="translate(215.632 182.441)" fill="#12263f"/>
      <rect id="Rectángulo_396392" data-name="Rectángulo 396392" width="0.621" height="8.869" transform="translate(113.602 182.441)" fill="#12263f"/>
      <path id="Trazado_634492" data-name="Trazado 634492" d="M73.854,188.133c.486,1.02,2.12,1.284,3.651.589a3.106,3.106,0,0,0,2.031-2.481V172.507a.266.266,0,0,0-.532,0v12.608a3.229,3.229,0,0,0-3.257-.087c-1.531.7-2.379,2.085-1.894,3.1" fill="#12263f"/>
      <path id="Trazado_634493" data-name="Trazado 634493" d="M34.715,188.133c.486,1.02,2.12,1.284,3.651.589a3.106,3.106,0,0,0,2.031-2.481V172.507a.266.266,0,0,0-.532,0v12.608a3.229,3.229,0,0,0-3.257-.087c-1.531.7-2.379,2.085-1.894,3.1" fill="#12263f"/>
      <path id="Trazado_634494" data-name="Trazado 634494" d="M177.236,188.133c.486,1.02,2.12,1.284,3.651.589a3.106,3.106,0,0,0,2.031-2.481V172.507a.266.266,0,0,0-.532,0v12.608a3.229,3.229,0,0,0-3.257-.087c-1.531.7-2.379,2.085-1.894,3.1" fill="#12263f"/>
      <path id="Trazado_634495" data-name="Trazado 634495" d="M220.855,188.133c.486,1.02,2.12,1.284,3.651.589a3.106,3.106,0,0,0,2.031-2.481V172.507a.266.266,0,0,0-.532,0v12.608a3.229,3.229,0,0,0-3.257-.087c-1.531.7-2.379,2.085-1.894,3.1" fill="#12263f"/>
      <path id="Trazado_634496" data-name="Trazado 634496" d="M260.961,188.133c.486,1.02,2.12,1.284,3.651.589a3.106,3.106,0,0,0,2.031-2.481V172.507a.266.266,0,0,0-.532,0v12.608a3.229,3.229,0,0,0-3.257-.087c-1.531.7-2.379,2.085-1.894,3.1" fill="#12263f"/>
      <path id="Trazado_634497" data-name="Trazado 634497" d="M305.862,188.133c.486,1.02,2.12,1.284,3.651.589a3.106,3.106,0,0,0,2.031-2.481V172.507a.266.266,0,0,0-.532,0v12.608a3.229,3.229,0,0,0-3.257-.087c-1.531.7-2.379,2.085-1.894,3.1" fill="#12263f"/>
      <path id="Trazado_634498" data-name="Trazado 634498" d="M151.908,172.585h-26.3v12.656a2.994,2.994,0,0,0-3.081-.084c-1.45.672-2.252,2.019-1.793,3.007s2.006,1.244,3.454.57a3,3,0,0,0,1.922-2.4V174.4h25.3v10.842a2.99,2.99,0,0,0-3.079-.084c-1.45.672-2.253,2.019-1.794,3.007s2.007,1.244,3.455.57a2.992,2.992,0,0,0,1.921-2.4v-.018Z" fill="#12263f"/>
      <path id="Trazado_634499" data-name="Trazado 634499" d="M347.341,174.453s4.477,2.514,4.477,4.784-3.067,2.943-3.067,4.415,3.159,4.078,2.883,4.354c-.337.338-3.495-1.35-4.171-.675-1.2,1.2,1.043,3.863.676,4.232s-2.7-3.006-2.7-4.6.8-1.716,1.9-1.348a16.876,16.876,0,0,1,2.76,1.41s-3.986-2.637-3.986-4.6,3-1.9,3-3.742c0-1.655-1.778-4.231-1.778-4.231" fill="#12263f"/>
      <rect id="Rectángulo_396393" data-name="Rectángulo 396393" width="2.024" height="8.979" transform="translate(15.172 182.087)" fill="#12263f"/>
      <rect id="Rectángulo_396394" data-name="Rectángulo 396394" width="2.024" height="8.979" transform="translate(11.836 182.087)" fill="#12263f"/>
      <path id="Trazado_634634" data-name="Trazado 634634" d="M26.656,105.876a34.653,34.653,0,0,0-2.895,3.076,5.473,5.473,0,0,0-1.126,2.874h.4a1.418,1.418,0,0,1,1.466-1.307,5.829,5.829,0,0,1,2.172.752,6.052,6.052,0,0,0,2.643.754,1.944,1.944,0,0,0,1.728-.895,3.82,3.82,0,0,0,.593-2.161,5.25,5.25,0,0,0-.161-1.265h-.2a1.2,1.2,0,0,1-.383.8,1.369,1.369,0,0,1-.682.342,5.777,5.777,0,0,1-.926.061,6.382,6.382,0,0,1-1.538-.261,6.771,6.771,0,0,0-1.738-.262,1.879,1.879,0,0,0-1.246.4,2.952,2.952,0,0,1,1.216-.955,16.412,16.412,0,0,1,1.749-.723,15.4,15.4,0,0,0,1.749-.734,3.591,3.591,0,0,0,1.407-1.246,3.527,3.527,0,0,0,.553-2.011,2.548,2.548,0,0,0-1.327-2.27,5.993,5.993,0,0,0-3.226-.824,4.692,4.692,0,0,0-2.954.824,2.5,2.5,0,0,0-1.055,2.05,1.87,1.87,0,0,0,.442,1.285,1.43,1.43,0,0,0,1.124.5,1.472,1.472,0,0,0,1.076-.381,1.242,1.242,0,0,0,.393-.924,1.3,1.3,0,0,0-.272-.865,1.234,1.234,0,0,0-.584-.412,2.451,2.451,0,0,1-.582-.251.531.531,0,0,1-.272-.492c0-.222.187-.418.564-.593a2.933,2.933,0,0,1,1.246-.261,1.953,1.953,0,0,1,1.608.664,2.422,2.422,0,0,1,.542,1.586,3.4,3.4,0,0,1-.462,1.73,6.581,6.581,0,0,1-1.044,1.386" transform="translate(-3.726 74.263)" fill="#12263f"/>
      <path id="Trazado_634635" data-name="Trazado 634635" d="M31.585,115.367v1.327H30.1v-8.421H28.086l-5.708,8.421v.4h4.7v2.471H25.775v.4H31.4v-.4H30.1V117.1h1.488v1.366h.462v-3.1Zm-4.5,1.327H22.9l4.181-6.21Z" transform="translate(-3.87 78.89)" fill="#12263f"/>
    </g>
  </g>
  <path id="Trazado_634884" data-name="Trazado 634884" d="M3.359-4.008V0H1.016V-11.375H5.453a5.134,5.134,0,0,1,2.254.469A3.454,3.454,0,0,1,9.2-9.574a3.714,3.714,0,0,1,.523,1.965A3.266,3.266,0,0,1,8.582-4.973a4.767,4.767,0,0,1-3.168.965Zm0-1.9H5.453a2.059,2.059,0,0,0,1.418-.437,1.591,1.591,0,0,0,.488-1.25,1.876,1.876,0,0,0-.492-1.352,1.839,1.839,0,0,0-1.359-.531H3.359Zm12.578-.43a6.134,6.134,0,0,0-.812-.062,1.654,1.654,0,0,0-1.68.867V0H11.188V-8.453H13.32l.063,1.008a2.092,2.092,0,0,1,1.883-1.164,2.366,2.366,0,0,1,.7.1ZM20.766.156A4.15,4.15,0,0,1,17.738-.984,4.054,4.054,0,0,1,16.57-4.023v-.219a5.106,5.106,0,0,1,.492-2.277,3.612,3.612,0,0,1,1.395-1.547,3.914,3.914,0,0,1,2.059-.543,3.508,3.508,0,0,1,2.73,1.094,4.444,4.444,0,0,1,1,3.1v.922H18.859a2.1,2.1,0,0,0,.66,1.328,2,2,0,0,0,1.395.5,2.437,2.437,0,0,0,2.039-.945l1.109,1.242A3.389,3.389,0,0,1,22.688-.246,4.511,4.511,0,0,1,20.766.156Zm-.258-6.945a1.411,1.411,0,0,0-1.09.455,2.357,2.357,0,0,0-.535,1.3h3.141v-.181a1.681,1.681,0,0,0-.406-1.165A1.456,1.456,0,0,0,20.508-6.789Zm4.688,2.5a4.954,4.954,0,0,1,.926-3.133,3,3,0,0,1,2.5-1.187,2.631,2.631,0,0,1,2.164.953l.094-.8h2.047V-.281a3.613,3.613,0,0,1-.5,1.93A3.236,3.236,0,0,1,31,2.9a4.985,4.985,0,0,1-2.141.43,4.635,4.635,0,0,1-1.812-.371A3.217,3.217,0,0,1,25.711,2l1-1.375a2.645,2.645,0,0,0,2.047.945,1.936,1.936,0,0,0,1.4-.48,1.8,1.8,0,0,0,.5-1.363V-.727A2.612,2.612,0,0,1,28.6.156a2.992,2.992,0,0,1-2.465-1.191A4.953,4.953,0,0,1,25.2-4.2Zm2.258.168a3.085,3.085,0,0,0,.461,1.8,1.466,1.466,0,0,0,1.266.653,1.568,1.568,0,0,0,1.477-.775V-6A1.564,1.564,0,0,0,29.2-6.773a1.476,1.476,0,0,0-1.277.665A3.477,3.477,0,0,0,27.453-4.121ZM39.719-.859A2.831,2.831,0,0,1,37.406.156a2.67,2.67,0,0,1-2.074-.781,3.335,3.335,0,0,1-.73-2.289V-8.453h2.258v5.467q0,1.322,1.2,1.322a1.63,1.63,0,0,0,1.578-.8V-8.453h2.266V0H39.781Zm5.969-7.594.07.977a2.951,2.951,0,0,1,2.43-1.133,2.453,2.453,0,0,1,2,.789,3.682,3.682,0,0,1,.672,2.359V0H48.6V-5.406a1.465,1.465,0,0,0-.312-1.043,1.4,1.4,0,0,0-1.039-.324,1.553,1.553,0,0,0-1.43.813V0H43.563V-8.453Zm9.586-2.078v2.078h1.445V-6.8H55.273v4.219a1.007,1.007,0,0,0,.18.672.9.9,0,0,0,.688.2,3.6,3.6,0,0,0,.664-.055V-.047a4.648,4.648,0,0,1-1.367.2,2.156,2.156,0,0,1-2.422-2.4V-6.8H51.781V-8.453h1.234v-2.078ZM62.875,0a2.507,2.507,0,0,1-.227-.758,2.732,2.732,0,0,1-2.133.914,3,3,0,0,1-2.059-.719,2.312,2.312,0,0,1-.816-1.812,2.389,2.389,0,0,1,1-2.062,4.915,4.915,0,0,1,2.879-.727h1.039v-.484a1.393,1.393,0,0,0-.3-.937,1.183,1.183,0,0,0-.949-.352,1.345,1.345,0,0,0-.895.273.929.929,0,0,0-.324.75H57.828a2.268,2.268,0,0,1,.453-1.359,3,3,0,0,1,1.281-.98,4.669,4.669,0,0,1,1.859-.355,3.689,3.689,0,0,1,2.48.785,2.747,2.747,0,0,1,.918,2.207v3.664a4.041,4.041,0,0,0,.336,1.82V0ZM61.008-1.57a1.945,1.945,0,0,0,.922-.223,1.462,1.462,0,0,0,.625-.6V-3.844h-.844q-1.7,0-1.8,1.172l-.008.133a.9.9,0,0,0,.3.7A1.153,1.153,0,0,0,61.008-1.57Z" transform="translate(79.538 71.303)" fill="#12263f"/>
  <path id="Trazado_634885" data-name="Trazado 634885" d="M3.359-4.008V0H1.016V-11.375H5.453a5.134,5.134,0,0,1,2.254.469A3.454,3.454,0,0,1,9.2-9.574a3.714,3.714,0,0,1,.523,1.965A3.266,3.266,0,0,1,8.582-4.973a4.767,4.767,0,0,1-3.168.965Zm0-1.9H5.453a2.059,2.059,0,0,0,1.418-.437,1.591,1.591,0,0,0,.488-1.25,1.876,1.876,0,0,0-.492-1.352,1.839,1.839,0,0,0-1.359-.531H3.359Zm12.578-.43a6.134,6.134,0,0,0-.812-.062,1.654,1.654,0,0,0-1.68.867V0H11.188V-8.453H13.32l.063,1.008a2.092,2.092,0,0,1,1.883-1.164,2.366,2.366,0,0,1,.7.1ZM20.766.156A4.15,4.15,0,0,1,17.738-.984,4.054,4.054,0,0,1,16.57-4.023v-.219a5.106,5.106,0,0,1,.492-2.277,3.612,3.612,0,0,1,1.395-1.547,3.914,3.914,0,0,1,2.059-.543,3.508,3.508,0,0,1,2.73,1.094,4.444,4.444,0,0,1,1,3.1v.922H18.859a2.1,2.1,0,0,0,.66,1.328,2,2,0,0,0,1.395.5,2.437,2.437,0,0,0,2.039-.945l1.109,1.242A3.389,3.389,0,0,1,22.688-.246,4.511,4.511,0,0,1,20.766.156Zm-.258-6.945a1.411,1.411,0,0,0-1.09.455,2.357,2.357,0,0,0-.535,1.3h3.141v-.181a1.681,1.681,0,0,0-.406-1.165A1.456,1.456,0,0,0,20.508-6.789Zm4.688,2.5a4.954,4.954,0,0,1,.926-3.133,3,3,0,0,1,2.5-1.187,2.631,2.631,0,0,1,2.164.953l.094-.8h2.047V-.281a3.613,3.613,0,0,1-.5,1.93A3.236,3.236,0,0,1,31,2.9a4.985,4.985,0,0,1-2.141.43,4.635,4.635,0,0,1-1.812-.371A3.217,3.217,0,0,1,25.711,2l1-1.375a2.645,2.645,0,0,0,2.047.945,1.936,1.936,0,0,0,1.4-.48,1.8,1.8,0,0,0,.5-1.363V-.727A2.612,2.612,0,0,1,28.6.156a2.992,2.992,0,0,1-2.465-1.191A4.953,4.953,0,0,1,25.2-4.2Zm2.258.168a3.085,3.085,0,0,0,.461,1.8,1.466,1.466,0,0,0,1.266.653,1.568,1.568,0,0,0,1.477-.775V-6A1.564,1.564,0,0,0,29.2-6.773a1.476,1.476,0,0,0-1.277.665A3.477,3.477,0,0,0,27.453-4.121ZM39.719-.859A2.831,2.831,0,0,1,37.406.156a2.67,2.67,0,0,1-2.074-.781,3.335,3.335,0,0,1-.73-2.289V-8.453h2.258v5.467q0,1.322,1.2,1.322a1.63,1.63,0,0,0,1.578-.8V-8.453h2.266V0H39.781Zm5.969-7.594.07.977a2.951,2.951,0,0,1,2.43-1.133,2.453,2.453,0,0,1,2,.789,3.682,3.682,0,0,1,.672,2.359V0H48.6V-5.406a1.465,1.465,0,0,0-.312-1.043,1.4,1.4,0,0,0-1.039-.324,1.553,1.553,0,0,0-1.43.813V0H43.563V-8.453Zm9.586-2.078v2.078h1.445V-6.8H55.273v4.219a1.007,1.007,0,0,0,.18.672.9.9,0,0,0,.688.2,3.6,3.6,0,0,0,.664-.055V-.047a4.648,4.648,0,0,1-1.367.2,2.156,2.156,0,0,1-2.422-2.4V-6.8H51.781V-8.453h1.234v-2.078ZM62.875,0a2.507,2.507,0,0,1-.227-.758,2.732,2.732,0,0,1-2.133.914,3,3,0,0,1-2.059-.719,2.312,2.312,0,0,1-.816-1.812,2.389,2.389,0,0,1,1-2.062,4.915,4.915,0,0,1,2.879-.727h1.039v-.484a1.393,1.393,0,0,0-.3-.937,1.183,1.183,0,0,0-.949-.352,1.345,1.345,0,0,0-.895.273.929.929,0,0,0-.324.75H57.828a2.268,2.268,0,0,1,.453-1.359,3,3,0,0,1,1.281-.98,4.669,4.669,0,0,1,1.859-.355,3.689,3.689,0,0,1,2.48.785,2.747,2.747,0,0,1,.918,2.207v3.664a4.041,4.041,0,0,0,.336,1.82V0ZM61.008-1.57a1.945,1.945,0,0,0,.922-.223,1.462,1.462,0,0,0,.625-.6V-3.844h-.844q-1.7,0-1.8,1.172l-.008.133a.9.9,0,0,0,.3.7A1.153,1.153,0,0,0,61.008-1.57Z" transform="translate(77.89 148.263)" fill="#12263f"/>
  <path id="Trazado_634886" data-name="Trazado 634886" d="M5.227-4.164H3.359V0H1.016V-11.375H5.242a4.778,4.778,0,0,1,3.109.9A3.1,3.1,0,0,1,9.445-7.937,3.5,3.5,0,0,1,8.941-6,3.437,3.437,0,0,1,7.414-4.758L9.875-.109V0H7.359Zm-1.867-1.9H5.25a1.936,1.936,0,0,0,1.367-.449A1.606,1.606,0,0,0,7.1-7.75a1.719,1.719,0,0,0-.457-1.266,1.9,1.9,0,0,0-1.4-.461H3.359ZM14.969.156A4.15,4.15,0,0,1,11.941-.984a4.054,4.054,0,0,1-1.168-3.039v-.219a5.106,5.106,0,0,1,.492-2.277A3.612,3.612,0,0,1,12.66-8.066a3.914,3.914,0,0,1,2.059-.543,3.508,3.508,0,0,1,2.73,1.094,4.444,4.444,0,0,1,1,3.1v.922H13.063a2.1,2.1,0,0,0,.66,1.328,2,2,0,0,0,1.395.5,2.437,2.437,0,0,0,2.039-.945l1.109,1.242A3.389,3.389,0,0,1,16.891-.246,4.511,4.511,0,0,1,14.969.156Zm-.258-6.945a1.411,1.411,0,0,0-1.09.455,2.357,2.357,0,0,0-.535,1.3h3.141v-.181a1.681,1.681,0,0,0-.406-1.165A1.456,1.456,0,0,0,14.711-6.789ZM24.3-2.336a.727.727,0,0,0-.41-.652,4.659,4.659,0,0,0-1.316-.426q-3.016-.633-3.016-2.562A2.323,2.323,0,0,1,20.5-7.855a3.766,3.766,0,0,1,2.441-.754,4.053,4.053,0,0,1,2.574.758,2.388,2.388,0,0,1,.965,1.969H24.219a1.092,1.092,0,0,0-.312-.8A1.322,1.322,0,0,0,22.93-7a1.351,1.351,0,0,0-.883.258.814.814,0,0,0-.312.656.7.7,0,0,0,.355.605,3.657,3.657,0,0,0,1.2.4,9.8,9.8,0,0,1,1.422.379A2.336,2.336,0,0,1,26.5-2.43a2.2,2.2,0,0,1-.992,1.871,4.28,4.28,0,0,1-2.562.715,4.47,4.47,0,0,1-1.887-.379,3.166,3.166,0,0,1-1.293-1.039A2.414,2.414,0,0,1,19.3-2.687h2.141a1.179,1.179,0,0,0,.445.922,1.766,1.766,0,0,0,1.109.32,1.635,1.635,0,0,0,.98-.246A.766.766,0,0,0,24.3-2.336ZM35.563-4.148a5.07,5.07,0,0,1-.887,3.129A2.843,2.843,0,0,1,32.281.156a2.633,2.633,0,0,1-2.07-.891V3.25H27.953v-11.7h2.094l.078.828a2.654,2.654,0,0,1,2.141-.984A2.862,2.862,0,0,1,34.7-7.453a5.207,5.207,0,0,1,.867,3.188ZM33.3-4.312a3.327,3.327,0,0,0-.418-1.82,1.361,1.361,0,0,0-1.215-.641,1.478,1.478,0,0,0-1.461.813V-2.5a1.5,1.5,0,0,0,1.477.836Q33.3-1.664,33.3-4.312ZM42.023-.859A2.831,2.831,0,0,1,39.711.156a2.67,2.67,0,0,1-2.074-.781,3.335,3.335,0,0,1-.73-2.289V-8.453h2.258v5.467q0,1.322,1.2,1.322a1.63,1.63,0,0,0,1.578-.8V-8.453h2.266V0H42.086ZM49.8.156A4.15,4.15,0,0,1,46.777-.984a4.054,4.054,0,0,1-1.168-3.039v-.219A5.106,5.106,0,0,1,46.1-6.52,3.612,3.612,0,0,1,47.5-8.066a3.914,3.914,0,0,1,2.059-.543,3.508,3.508,0,0,1,2.73,1.094,4.444,4.444,0,0,1,1,3.1v.922H47.9a2.1,2.1,0,0,0,.66,1.328,2,2,0,0,0,1.395.5,2.437,2.437,0,0,0,2.039-.945L53.1-1.367A3.389,3.389,0,0,1,51.727-.246,4.511,4.511,0,0,1,49.8.156Zm-.258-6.945a1.411,1.411,0,0,0-1.09.455,2.357,2.357,0,0,0-.535,1.3h3.141v-.181a1.681,1.681,0,0,0-.406-1.165A1.456,1.456,0,0,0,49.547-6.789Zm9.594,4.453a.727.727,0,0,0-.41-.652,4.659,4.659,0,0,0-1.316-.426Q54.4-4.047,54.4-5.977a2.323,2.323,0,0,1,.934-1.879,3.766,3.766,0,0,1,2.441-.754,4.053,4.053,0,0,1,2.574.758,2.388,2.388,0,0,1,.965,1.969H59.055a1.092,1.092,0,0,0-.312-.8A1.322,1.322,0,0,0,57.766-7a1.351,1.351,0,0,0-.883.258.814.814,0,0,0-.312.656.7.7,0,0,0,.355.605,3.657,3.657,0,0,0,1.2.4,9.8,9.8,0,0,1,1.422.379A2.336,2.336,0,0,1,61.336-2.43a2.2,2.2,0,0,1-.992,1.871,4.28,4.28,0,0,1-2.562.715,4.47,4.47,0,0,1-1.887-.379A3.166,3.166,0,0,1,54.6-1.262a2.414,2.414,0,0,1-.469-1.426h2.141a1.179,1.179,0,0,0,.445.922,1.766,1.766,0,0,0,1.109.32,1.635,1.635,0,0,0,.98-.246A.766.766,0,0,0,59.141-2.336Zm6.352-8.2v2.078h1.445V-6.8H65.492v4.219a1.007,1.007,0,0,0,.18.672.9.9,0,0,0,.688.2,3.6,3.6,0,0,0,.664-.055V-.047a4.648,4.648,0,0,1-1.367.2,2.156,2.156,0,0,1-2.422-2.4V-6.8H62V-8.453h1.234v-2.078ZM73.094,0a2.507,2.507,0,0,1-.227-.758,2.732,2.732,0,0,1-2.133.914,3,3,0,0,1-2.059-.719,2.312,2.312,0,0,1-.816-1.812,2.389,2.389,0,0,1,1-2.062,4.915,4.915,0,0,1,2.879-.727h1.039v-.484a1.393,1.393,0,0,0-.3-.937,1.183,1.183,0,0,0-.949-.352,1.345,1.345,0,0,0-.895.273.929.929,0,0,0-.324.75H68.047A2.268,2.268,0,0,1,68.5-7.273a3,3,0,0,1,1.281-.98,4.669,4.669,0,0,1,1.859-.355,3.689,3.689,0,0,1,2.48.785,2.747,2.747,0,0,1,.918,2.207v3.664a4.041,4.041,0,0,0,.336,1.82V0ZM71.227-1.57a1.945,1.945,0,0,0,.922-.223,1.462,1.462,0,0,0,.625-.6V-3.844H71.93q-1.7,0-1.8,1.172l-.008.133a.9.9,0,0,0,.3.7A1.153,1.153,0,0,0,71.227-1.57Z" transform="translate(249.874 71.303)" fill="#12263f"/>
  <path id="Trazado_634887" data-name="Trazado 634887" d="M5.227-4.164H3.359V0H1.016V-11.375H5.242a4.778,4.778,0,0,1,3.109.9A3.1,3.1,0,0,1,9.445-7.937,3.5,3.5,0,0,1,8.941-6,3.437,3.437,0,0,1,7.414-4.758L9.875-.109V0H7.359Zm-1.867-1.9H5.25a1.936,1.936,0,0,0,1.367-.449A1.606,1.606,0,0,0,7.1-7.75a1.719,1.719,0,0,0-.457-1.266,1.9,1.9,0,0,0-1.4-.461H3.359ZM14.969.156A4.15,4.15,0,0,1,11.941-.984a4.054,4.054,0,0,1-1.168-3.039v-.219a5.106,5.106,0,0,1,.492-2.277A3.612,3.612,0,0,1,12.66-8.066a3.914,3.914,0,0,1,2.059-.543,3.508,3.508,0,0,1,2.73,1.094,4.444,4.444,0,0,1,1,3.1v.922H13.063a2.1,2.1,0,0,0,.66,1.328,2,2,0,0,0,1.395.5,2.437,2.437,0,0,0,2.039-.945l1.109,1.242A3.389,3.389,0,0,1,16.891-.246,4.511,4.511,0,0,1,14.969.156Zm-.258-6.945a1.411,1.411,0,0,0-1.09.455,2.357,2.357,0,0,0-.535,1.3h3.141v-.181a1.681,1.681,0,0,0-.406-1.165A1.456,1.456,0,0,0,14.711-6.789ZM24.3-2.336a.727.727,0,0,0-.41-.652,4.659,4.659,0,0,0-1.316-.426q-3.016-.633-3.016-2.562A2.323,2.323,0,0,1,20.5-7.855a3.766,3.766,0,0,1,2.441-.754,4.053,4.053,0,0,1,2.574.758,2.388,2.388,0,0,1,.965,1.969H24.219a1.092,1.092,0,0,0-.312-.8A1.322,1.322,0,0,0,22.93-7a1.351,1.351,0,0,0-.883.258.814.814,0,0,0-.312.656.7.7,0,0,0,.355.605,3.657,3.657,0,0,0,1.2.4,9.8,9.8,0,0,1,1.422.379A2.336,2.336,0,0,1,26.5-2.43a2.2,2.2,0,0,1-.992,1.871,4.28,4.28,0,0,1-2.562.715,4.47,4.47,0,0,1-1.887-.379,3.166,3.166,0,0,1-1.293-1.039A2.414,2.414,0,0,1,19.3-2.687h2.141a1.179,1.179,0,0,0,.445.922,1.766,1.766,0,0,0,1.109.32,1.635,1.635,0,0,0,.98-.246A.766.766,0,0,0,24.3-2.336ZM35.563-4.148a5.07,5.07,0,0,1-.887,3.129A2.843,2.843,0,0,1,32.281.156a2.633,2.633,0,0,1-2.07-.891V3.25H27.953v-11.7h2.094l.078.828a2.654,2.654,0,0,1,2.141-.984A2.862,2.862,0,0,1,34.7-7.453a5.207,5.207,0,0,1,.867,3.188ZM33.3-4.312a3.327,3.327,0,0,0-.418-1.82,1.361,1.361,0,0,0-1.215-.641,1.478,1.478,0,0,0-1.461.813V-2.5a1.5,1.5,0,0,0,1.477.836Q33.3-1.664,33.3-4.312ZM42.023-.859A2.831,2.831,0,0,1,39.711.156a2.67,2.67,0,0,1-2.074-.781,3.335,3.335,0,0,1-.73-2.289V-8.453h2.258v5.467q0,1.322,1.2,1.322a1.63,1.63,0,0,0,1.578-.8V-8.453h2.266V0H42.086ZM49.8.156A4.15,4.15,0,0,1,46.777-.984a4.054,4.054,0,0,1-1.168-3.039v-.219A5.106,5.106,0,0,1,46.1-6.52,3.612,3.612,0,0,1,47.5-8.066a3.914,3.914,0,0,1,2.059-.543,3.508,3.508,0,0,1,2.73,1.094,4.444,4.444,0,0,1,1,3.1v.922H47.9a2.1,2.1,0,0,0,.66,1.328,2,2,0,0,0,1.395.5,2.437,2.437,0,0,0,2.039-.945L53.1-1.367A3.389,3.389,0,0,1,51.727-.246,4.511,4.511,0,0,1,49.8.156Zm-.258-6.945a1.411,1.411,0,0,0-1.09.455,2.357,2.357,0,0,0-.535,1.3h3.141v-.181a1.681,1.681,0,0,0-.406-1.165A1.456,1.456,0,0,0,49.547-6.789Zm9.594,4.453a.727.727,0,0,0-.41-.652,4.659,4.659,0,0,0-1.316-.426Q54.4-4.047,54.4-5.977a2.323,2.323,0,0,1,.934-1.879,3.766,3.766,0,0,1,2.441-.754,4.053,4.053,0,0,1,2.574.758,2.388,2.388,0,0,1,.965,1.969H59.055a1.092,1.092,0,0,0-.312-.8A1.322,1.322,0,0,0,57.766-7a1.351,1.351,0,0,0-.883.258.814.814,0,0,0-.312.656.7.7,0,0,0,.355.605,3.657,3.657,0,0,0,1.2.4,9.8,9.8,0,0,1,1.422.379A2.336,2.336,0,0,1,61.336-2.43a2.2,2.2,0,0,1-.992,1.871,4.28,4.28,0,0,1-2.562.715,4.47,4.47,0,0,1-1.887-.379A3.166,3.166,0,0,1,54.6-1.262a2.414,2.414,0,0,1-.469-1.426h2.141a1.179,1.179,0,0,0,.445.922,1.766,1.766,0,0,0,1.109.32,1.635,1.635,0,0,0,.98-.246A.766.766,0,0,0,59.141-2.336Zm6.352-8.2v2.078h1.445V-6.8H65.492v4.219a1.007,1.007,0,0,0,.18.672.9.9,0,0,0,.688.2,3.6,3.6,0,0,0,.664-.055V-.047a4.648,4.648,0,0,1-1.367.2,2.156,2.156,0,0,1-2.422-2.4V-6.8H62V-8.453h1.234v-2.078ZM73.094,0a2.507,2.507,0,0,1-.227-.758,2.732,2.732,0,0,1-2.133.914,3,3,0,0,1-2.059-.719,2.312,2.312,0,0,1-.816-1.812,2.389,2.389,0,0,1,1-2.062,4.915,4.915,0,0,1,2.879-.727h1.039v-.484a1.393,1.393,0,0,0-.3-.937,1.183,1.183,0,0,0-.949-.352,1.345,1.345,0,0,0-.895.273.929.929,0,0,0-.324.75H68.047A2.268,2.268,0,0,1,68.5-7.273a3,3,0,0,1,1.281-.98,4.669,4.669,0,0,1,1.859-.355,3.689,3.689,0,0,1,2.48.785,2.747,2.747,0,0,1,.918,2.207v3.664a4.041,4.041,0,0,0,.336,1.82V0ZM71.227-1.57a1.945,1.945,0,0,0,.922-.223,1.462,1.462,0,0,0,.625-.6V-3.844H71.93q-1.7,0-1.8,1.172l-.008.133a.9.9,0,0,0,.3.7A1.153,1.153,0,0,0,71.227-1.57Z" transform="translate(250.882 148.263)" fill="#12263f"/>
  <path id="Trazado_634888" data-name="Trazado 634888" d="M3.779-4.509V0H1.143V-12.8H6.135a5.776,5.776,0,0,1,2.536.527,3.886,3.886,0,0,1,1.683,1.5,4.178,4.178,0,0,1,.589,2.21A3.674,3.674,0,0,1,9.655-5.594,5.363,5.363,0,0,1,6.091-4.509Zm0-2.136H6.135a2.316,2.316,0,0,0,1.6-.492,1.79,1.79,0,0,0,.549-1.406,2.111,2.111,0,0,0-.554-1.521,2.068,2.068,0,0,0-1.529-.6H3.779Zm14.15-.483a6.9,6.9,0,0,0-.914-.07,1.86,1.86,0,0,0-1.89.976V0h-2.54V-9.51h2.4l.07,1.134a2.354,2.354,0,0,1,2.118-1.31,2.662,2.662,0,0,1,.791.114Zm5.432,7.3a4.668,4.668,0,0,1-3.406-1.283,4.561,4.561,0,0,1-1.314-3.419v-.246A5.745,5.745,0,0,1,19.2-7.334a4.064,4.064,0,0,1,1.569-1.74,4.4,4.4,0,0,1,2.316-.611,3.947,3.947,0,0,1,3.072,1.23,5,5,0,0,1,1.121,3.489v1.037H21.217a2.36,2.36,0,0,0,.743,1.494,2.245,2.245,0,0,0,1.569.563,2.742,2.742,0,0,0,2.294-1.063l1.248,1.4A3.813,3.813,0,0,1,25.523-.277,5.075,5.075,0,0,1,23.361.176Zm-.29-7.813a1.587,1.587,0,0,0-1.226.512,2.651,2.651,0,0,0-.6,1.466h3.533v-.2a1.891,1.891,0,0,0-.457-1.311A1.638,1.638,0,0,0,23.071-7.638Zm5.273,2.813A5.573,5.573,0,0,1,29.386-8.35a3.375,3.375,0,0,1,2.808-1.336,2.96,2.96,0,0,1,2.435,1.072l.105-.9h2.3V-.316a4.064,4.064,0,0,1-.567,2.171,3.641,3.641,0,0,1-1.6,1.406,5.608,5.608,0,0,1-2.408.483,5.215,5.215,0,0,1-2.039-.417,3.619,3.619,0,0,1-1.5-1.077L30.05.7a2.975,2.975,0,0,0,2.3,1.063,2.178,2.178,0,0,0,1.573-.541,2.027,2.027,0,0,0,.563-1.534v-.51a2.938,2.938,0,0,1-2.312.993A3.366,3.366,0,0,1,29.4-1.165,5.572,5.572,0,0,1,28.345-4.72Zm2.54.189A3.47,3.47,0,0,0,31.4-2.607a1.65,1.65,0,0,0,1.424.735,1.764,1.764,0,0,0,1.661-.871V-6.749a1.76,1.76,0,0,0-1.644-.871,1.66,1.66,0,0,0-1.437.748A3.911,3.911,0,0,0,30.885-4.636Zm13.8,3.669a3.185,3.185,0,0,1-2.6,1.143A3,3,0,0,1,39.749-.7a3.752,3.752,0,0,1-.822-2.575V-9.51h2.54v6.151q0,1.487,1.354,1.487a1.834,1.834,0,0,0,1.775-.9V-9.51h2.549V0H44.754ZM51.4-9.51l.079,1.1a3.32,3.32,0,0,1,2.733-1.274,2.759,2.759,0,0,1,2.25.888,4.142,4.142,0,0,1,.756,2.654V0h-2.54V-6.082a1.648,1.648,0,0,0-.352-1.173,1.574,1.574,0,0,0-1.169-.365,1.747,1.747,0,0,0-1.608.914V0h-2.54V-9.51Zm10.784-2.338V-9.51h1.626v1.863H62.183V-2.9a1.133,1.133,0,0,0,.2.756,1.015,1.015,0,0,0,.773.229,4.051,4.051,0,0,0,.747-.062V-.053a5.229,5.229,0,0,1-1.538.229,2.425,2.425,0,0,1-2.725-2.7V-7.646H58.254V-9.51h1.389v-2.338ZM70.734,0a2.821,2.821,0,0,1-.255-.853A3.073,3.073,0,0,1,68.08.176a3.376,3.376,0,0,1-2.316-.809,2.6,2.6,0,0,1-.918-2.039,2.687,2.687,0,0,1,1.121-2.32,5.529,5.529,0,0,1,3.239-.817h1.169v-.545a1.567,1.567,0,0,0-.338-1.055,1.331,1.331,0,0,0-1.068-.4,1.513,1.513,0,0,0-1.006.308,1.045,1.045,0,0,0-.365.844h-2.54a2.551,2.551,0,0,1,.51-1.529,3.37,3.37,0,0,1,1.441-1.1,5.253,5.253,0,0,1,2.092-.4A4.15,4.15,0,0,1,71.89-8.8a3.09,3.09,0,0,1,1.033,2.483V-2.2A4.546,4.546,0,0,0,73.3-.149V0Zm-2.1-1.767a2.188,2.188,0,0,0,1.037-.25,1.645,1.645,0,0,0,.7-.672V-4.324h-.949q-1.907,0-2.03,1.318l-.009.149a1.017,1.017,0,0,0,.334.782A1.3,1.3,0,0,0,68.634-1.767ZM84.3-4.456H79.348V-6.5H84.3ZM96.161-7.128a6.9,6.9,0,0,0-.914-.07,1.86,1.86,0,0,0-1.89.976V0h-2.54V-9.51h2.4l.07,1.134a2.354,2.354,0,0,1,2.118-1.31,2.662,2.662,0,0,1,.791.114Zm5.432,7.3a4.668,4.668,0,0,1-3.406-1.283,4.561,4.561,0,0,1-1.314-3.419v-.246a5.745,5.745,0,0,1,.554-2.562A4.064,4.064,0,0,1,99-9.075a4.4,4.4,0,0,1,2.316-.611,3.947,3.947,0,0,1,3.072,1.23A5,5,0,0,1,105.5-4.966v1.037H99.448a2.36,2.36,0,0,0,.743,1.494,2.245,2.245,0,0,0,1.569.563,2.742,2.742,0,0,0,2.294-1.063l1.248,1.4a3.813,3.813,0,0,1-1.547,1.261A5.075,5.075,0,0,1,101.593.176Zm-.29-7.813a1.587,1.587,0,0,0-1.226.512,2.651,2.651,0,0,0-.6,1.466h3.533v-.2a1.891,1.891,0,0,0-.457-1.311A1.638,1.638,0,0,0,101.3-7.638ZM112.1-2.628a.818.818,0,0,0-.461-.734,5.241,5.241,0,0,0-1.481-.479q-3.393-.712-3.393-2.883a2.613,2.613,0,0,1,1.05-2.114,4.237,4.237,0,0,1,2.747-.848,4.56,4.56,0,0,1,2.9.853,2.687,2.687,0,0,1,1.085,2.215H112a1.229,1.229,0,0,0-.352-.9,1.488,1.488,0,0,0-1.1-.356,1.52,1.52,0,0,0-.993.29.916.916,0,0,0-.352.738.783.783,0,0,0,.4.681,4.114,4.114,0,0,0,1.349.448,11.019,11.019,0,0,1,1.6.426,2.628,2.628,0,0,1,2.013,2.558,2.481,2.481,0,0,1-1.116,2.1,4.815,4.815,0,0,1-2.883.8,5.029,5.029,0,0,1-2.123-.426,3.561,3.561,0,0,1-1.455-1.169,2.716,2.716,0,0,1-.527-1.6h2.408a1.326,1.326,0,0,0,.5,1.037,1.987,1.987,0,0,0,1.248.36,1.839,1.839,0,0,0,1.1-.277A.861.861,0,0,0,112.1-2.628Zm12.665-2.039a5.7,5.7,0,0,1-1,3.52A3.2,3.2,0,0,1,121.069.176a2.963,2.963,0,0,1-2.329-1V3.656H116.2V-9.51h2.355l.088.932a2.985,2.985,0,0,1,2.408-1.107,3.22,3.22,0,0,1,2.733,1.3,5.858,5.858,0,0,1,.976,3.586Zm-2.54-.185a3.743,3.743,0,0,0-.47-2.048,1.532,1.532,0,0,0-1.367-.721,1.663,1.663,0,0,0-1.644.914v3.894a1.692,1.692,0,0,0,1.661.94Q122.221-1.872,122.221-4.852Zm9.809,3.885a3.185,3.185,0,0,1-2.6,1.143A3,3,0,0,1,127.094-.7a3.752,3.752,0,0,1-.822-2.575V-9.51h2.54v6.151q0,1.487,1.354,1.487a1.834,1.834,0,0,0,1.775-.9V-9.51h2.549V0H132.1ZM140.783.176a4.668,4.668,0,0,1-3.406-1.283,4.561,4.561,0,0,1-1.314-3.419v-.246a5.745,5.745,0,0,1,.554-2.562,4.064,4.064,0,0,1,1.569-1.74,4.4,4.4,0,0,1,2.316-.611,3.947,3.947,0,0,1,3.072,1.23,5,5,0,0,1,1.121,3.489v1.037h-6.056a2.36,2.36,0,0,0,.743,1.494,2.245,2.245,0,0,0,1.569.563,2.742,2.742,0,0,0,2.294-1.063l1.248,1.4a3.813,3.813,0,0,1-1.547,1.261A5.075,5.075,0,0,1,140.783.176Zm-.29-7.813a1.587,1.587,0,0,0-1.226.512,2.651,2.651,0,0,0-.6,1.466H142.2v-.2a1.891,1.891,0,0,0-.457-1.311A1.638,1.638,0,0,0,140.493-7.638Zm10.793,5.01a.818.818,0,0,0-.461-.734,5.241,5.241,0,0,0-1.481-.479q-3.393-.712-3.393-2.883A2.613,2.613,0,0,1,147-8.837a4.237,4.237,0,0,1,2.747-.848,4.56,4.56,0,0,1,2.9.853,2.687,2.687,0,0,1,1.085,2.215h-2.54a1.229,1.229,0,0,0-.352-.9,1.488,1.488,0,0,0-1.1-.356,1.52,1.52,0,0,0-.993.29.916.916,0,0,0-.352.738.783.783,0,0,0,.4.681,4.114,4.114,0,0,0,1.349.448,11.019,11.019,0,0,1,1.6.426,2.628,2.628,0,0,1,2.013,2.558,2.481,2.481,0,0,1-1.116,2.1,4.815,4.815,0,0,1-2.883.8,5.029,5.029,0,0,1-2.123-.426,3.561,3.561,0,0,1-1.455-1.169,2.716,2.716,0,0,1-.527-1.6h2.408a1.326,1.326,0,0,0,.5,1.037,1.987,1.987,0,0,0,1.248.36,1.839,1.839,0,0,0,1.1-.277A.861.861,0,0,0,151.286-2.628Zm7.146-9.22V-9.51h1.626v1.863h-1.626V-2.9a1.133,1.133,0,0,0,.2.756,1.015,1.015,0,0,0,.773.229,4.051,4.051,0,0,0,.747-.062V-.053a5.229,5.229,0,0,1-1.538.229,2.425,2.425,0,0,1-2.725-2.7V-7.646H154.5V-9.51h1.389v-2.338ZM166.983,0a2.821,2.821,0,0,1-.255-.853,3.073,3.073,0,0,1-2.4,1.028,3.376,3.376,0,0,1-2.316-.809,2.6,2.6,0,0,1-.918-2.039,2.687,2.687,0,0,1,1.121-2.32,5.529,5.529,0,0,1,3.239-.817h1.169v-.545a1.567,1.567,0,0,0-.338-1.055,1.331,1.331,0,0,0-1.068-.4,1.513,1.513,0,0,0-1.006.308,1.045,1.045,0,0,0-.365.844h-2.54a2.551,2.551,0,0,1,.51-1.529,3.37,3.37,0,0,1,1.441-1.1,5.253,5.253,0,0,1,2.092-.4,4.15,4.15,0,0,1,2.791.883,3.09,3.09,0,0,1,1.033,2.483V-2.2a4.546,4.546,0,0,0,.378,2.048V0Zm-2.1-1.767a2.188,2.188,0,0,0,1.037-.25,1.645,1.645,0,0,0,.7-.672V-4.324h-.949q-1.907,0-2.03,1.318l-.009.149a1.017,1.017,0,0,0,.334.782A1.3,1.3,0,0,0,164.883-1.767Z" transform="translate(114.759 32.996)" fill="#12263f"/>
</svg>
