<svg xmlns="http://www.w3.org/2000/svg" xmlns:xlink="http://www.w3.org/1999/xlink" width="400.5" height="351.084" viewBox="0 0 400.5 351.084">
  <defs>
    <clipPath id="clip-path">
      <rect id="Rectángulo_391773" data-name="Rectángulo 391773" width="400" height="347" transform="translate(-6064 -9376)" fill="#fff" stroke="#707070" stroke-width="1"/>
    </clipPath>
    <clipPath id="clip-path-2">
      <rect id="Rectángulo_391763" data-name="Rectángulo 391763" width="391.937" height="344.453" transform="translate(108)" fill="none"/>
    </clipPath>
    <clipPath id="clip-path-3">
      <rect id="Rectángulo_391757" data-name="Rectángulo 391757" width="347.832" height="258.95" fill="none"/>
    </clipPath>
    <clipPath id="clip-path-4">
      <rect id="Rectángulo_391737" data-name="Rectángulo 391737" width="382.909" height="18.139" fill="none"/>
    </clipPath>
    <clipPath id="clip-path-5">
      <rect id="Rectángulo_391746" data-name="Rectángulo 391746" width="32.428" height="7.7" fill="none"/>
    </clipPath>
    <clipPath id="clip-path-7">
      <rect id="Rectángulo_391750" data-name="Rectángulo 391750" width="32.427" height="7.7" fill="none"/>
    </clipPath>
    <clipPath id="clip-path-10">
      <rect id="Rectángulo_391756" data-name="Rectángulo 391756" width="382.909" height="7.7" fill="none"/>
    </clipPath>
    <clipPath id="clip-path-11">
      <rect id="Rectángulo_391762" data-name="Rectángulo 391762" width="422.144" height="370.899" fill="none"/>
    </clipPath>
    <clipPath id="clip-path-12">
      <rect id="Rectángulo_391759" data-name="Rectángulo 391759" width="132.948" height="230.347" fill="none"/>
    </clipPath>
    <clipPath id="clip-path-13">
      <rect id="Rectángulo_391761" data-name="Rectángulo 391761" width="190.461" height="230.347" fill="none"/>
    </clipPath>
  </defs>
  <g id="Grupo_1093937" data-name="Grupo 1093937" transform="translate(6064.5 9376.293)">
    <g id="Grupo_1093935" data-name="Grupo 1093935" transform="translate(-5536.5 -8926.793)">
      <path id="Trazado_608309" data-name="Trazado 608309" d="M0,0H400V351.084H0Z" transform="translate(-528 -449.5)" fill="#1c534a"/>
    </g>
    <g id="Enmascarar_grupo_1074398" data-name="Enmascarar grupo 1074398" clip-path="url(#clip-path)">
      <path id="Trazado_627923" data-name="Trazado 627923" d="M821.818,28.559V152.551a283.848,283.848,0,0,0-27.341,89.1H730.2a214.15,214.15,0,0,1,25.931-55.885c6.1-9.318,13.074-18.446,15.777-29.258s-.217-24.036-9.987-29.391c-14.01-7.685-30.238,4.587-41.719,15.7a1013.035,1013.035,0,0,1-118.976,98.83H443.77c3.177-2.987,6.426-5.9,9.636-8.811a638.351,638.351,0,0,0,90.4-101.845c8.66-12.16,17.142-25.273,18.742-40.125s-5.935-31.727-20.269-35.9c-24.4-7.105-41.824,23.128-64.149,35.265-26.967,14.668-65.76-3.862-71.305-34.05-3.567-19.41,4.737-38.726,9.518-57.869s4.653-42.633-10.845-54.843c-12.032-9.485-29.793-8.543-43.53-1.744S337.606-39.854,327.319-28.49Q256.164,50.1,185.009,128.7c-16.412,18.134-35.566,37.606-60,38.537-33.883,1.3-58.376-34.942-61.19-68.731C59.842,50.756,84.458,5.019,114.863-32.024s67.237-68.7,95-107.758c11.151-15.688,20.776-37.182,10.126-53.216-8.722-13.135-27.82-15.626-42.616-10.2s-26.449,16.836-38.113,27.441A534.885,534.885,0,0,1-9.83-80.056v-62.45c10.3-6.76,20.358-13.8,30.155-20.664,28.656-20.079,56.158-41.786,84.022-62.979h265.1c-5.344,6.771-11.112,13.2-16.769,19.171Q289.328-140.171,225.981-73.358c-8.159,8.6-16.524,17.538-20.636,28.661s-2.876,25.117,6.113,32.852c15.76,13.559,39.5-.245,55.272-13.787q77.516-66.5,155.027-133c9.034-7.746,18.374-15.682,29.67-19.433s25.156-2.357,33.064,6.537c8.131,9.128,7.735,22.782,6.877,34.981Q486.3-64.491,481.225,7.566c26.087-11.753,51.622-24.688,77.731-36.391C589.59-42.562,666.708-65.651,636.413.071c-7.635,16.563-15.933,33.476-16.769,51.694-.825,18.235,8.1,38.353,25.345,44.3,19.243,6.643,39.189-6.008,56.442-16.808A409.608,409.608,0,0,1,821.8,28.559Z" transform="translate(-6096.17 -9150.143)" fill="#99e8dc" opacity="0.323"/>
    </g>
    <g id="Grupo_1093936" data-name="Grupo 1093936" transform="translate(-6562.5 -10770.776)">
      <g id="Grupo_1093926" data-name="Grupo 1093926" transform="translate(390 1394.483)">
        <g id="Grupo_1093925" data-name="Grupo 1093925" transform="translate(0)" clip-path="url(#clip-path-2)">
          <g id="Grupo_1093916" data-name="Grupo 1093916" transform="translate(126.431 27.318)">
            <g id="Grupo_1093915" data-name="Grupo 1093915" clip-path="url(#clip-path-3)">
              <g id="Grupo_1093896" data-name="Grupo 1093896" transform="translate(-11.648 240.81)" opacity="0.3">
                <g id="Grupo_1093895" data-name="Grupo 1093895">
                  <g id="Grupo_1093894" data-name="Grupo 1093894" clip-path="url(#clip-path-4)">
                    <rect id="Rectángulo_391736" data-name="Rectángulo 391736" width="382.908" height="18.14" transform="translate(0.001 -0.001)"/>
                  </g>
                </g>
              </g>
              <path id="Trazado_627905" data-name="Trazado 627905" d="M72.129,13.707h47.637V35.04c-1.836,0-3.561.07-5.274-.023-1.3-.069-1.761.245-1.763,1.527-.029,14.273-.173,28.544-.193,42.816q-.063,44.988-.039,89.976c0,2.24.065,2.295,2.471,2.288,1.573,0,3.144,0,4.822,0v98.213H72.171V171.686c1.713-.074,3.427-.153,5.142-.217,2.71-.1,2.9-.263,2.9-2.672q-.105-65.768-.217-131.535c0-.736,0-1.471,0-2.37H72.129Z" transform="translate(-26.312 -24.47)" fill="#fff" fill-rule="evenodd"/>
              <path id="Trazado_627906" data-name="Trazado 627906" d="M248.724,171.626v98.222H199.536V171.68c1.842-.072,3.707-.146,5.573-.222,2.135-.088,2.462-.388,2.459-2.361q-.042-58.842-.093-117.685c-.006-5.272-.057-10.54-.094-15.812a4.413,4.413,0,0,0-.135-.7h-7.708V13.717h49.114V35.033c-3.225,0-6.326-.018-9.427.007-1.362.011-3.216-.35-3.951.3s-.406,2.353-.408,3.6q-.123,65.418-.216,130.839c0,1.646.231,1.846,2.033,1.847,3.971,0,7.94,0,12.042,0" transform="translate(0.162 -24.468)" fill="#fff" fill-rule="evenodd"/>
              <path id="Trazado_627907" data-name="Trazado 627907" d="M205.935,171.685v98.163H156.118V13.715H205.9V34.849c-.617.034-1.2.094-1.788.1-6.689.035-13.379.094-20.069.064-1.323-.006-1.737.295-1.739,1.547-.036,17.726-.173,35.45-.2,53.174q-.069,39.814-.031,79.625c0,2.213.066,2.266,2.5,2.265q9.881-.005,19.764,0c.5,0,1,.037,1.6.063" transform="translate(-8.86 -24.468)" fill="#fff" fill-rule="evenodd"/>
              <path id="Trazado_627908" data-name="Trazado 627908" d="M113.74,269.829V171.621c.626,0,1.215,0,1.8,0,6.738-.054,13.478-.089,20.216-.17,2.33-.027,2.61-.335,2.606-2.5q-.105-65.766-.214-131.531c0-.785,0-1.571,0-2.46H113.84V13.716h48.476V269.829Z" transform="translate(-17.666 -24.468)" fill="#fff" fill-rule="evenodd"/>
              <path id="Trazado_627909" data-name="Trazado 627909" d="M78.206,13.756V34.942c-.685,0-1.283,0-1.882,0l-19.459.086c-2.17.01-2.219,0-2.228,2.045q-.13,31.489-.223,62.977-.062,34.636-.023,69.276c0,2.238.066,2.292,2.47,2.29q9.961-.007,19.919,0c.448,0,.9.035,1.452.059v98.158H30.271V13.756Z" transform="translate(-35.01 -24.46)" fill="#fff" fill-rule="evenodd"/>
              <path id="Trazado_627910" data-name="Trazado 627910" d="M332.708,269.865H284.769V171.618c.591,0,1.134,0,1.675,0,6.535-.053,13.072-.088,19.606-.168,2.44-.029,2.713-.325,2.709-2.551q-.107-65.766-.217-131.535c0-2.524-.016-2.519-2.869-2.5q-9.5.072-18.995.138c-.557,0-1.115,0-1.845,0V13.732h47.875Z" transform="translate(17.873 -24.464)" fill="#fff" fill-rule="evenodd"/>
              <path id="Trazado_627911" data-name="Trazado 627911" d="M290.942,269.862H242.4V171.618c.591,0,1.135.006,1.679,0,4.544-.052,9.087-.087,13.63-.169,2.231-.039,2.554-.373,2.553-2.41q-.024-48.486-.056-96.972c-.013-12.033-.114-24.067-.123-36.1,0-1.033-.48-1.139-1.374-1.126-4.7.062-9.4.094-14.094.135-.659.006-1.318,0-2.152,0V13.729h48.488V35.036c-2.067,0-4.041.064-6.01-.023-1.261-.056-1.651.307-1.654,1.48-.043,17.817-.176,35.635-.208,53.451q-.067,39.669-.03,79.34c0,2.314.035,2.343,2.571,2.336,1.727,0,3.456,0,5.324,0Z" transform="translate(9.069 -24.465)" fill="#fff" fill-rule="evenodd"/>
              <rect id="Rectángulo_391738" data-name="Rectángulo 391738" width="31.356" height="256.019" transform="translate(-38.707 -10.684)" fill="#fff"/>
              <rect id="Rectángulo_391739" data-name="Rectángulo 391739" width="23.313" height="256.286" transform="translate(353.204 -10.909)" fill="#fff"/>
              <rect id="Rectángulo_391740" data-name="Rectángulo 391740" width="29.952" height="133.127" transform="translate(88.417 12.041)" fill="#454545"/>
              <rect id="Rectángulo_391741" data-name="Rectángulo 391741" width="29.893" height="133.163" transform="translate(237.099 12.041)" fill="#454545"/>
              <rect id="Rectángulo_391742" data-name="Rectángulo 391742" width="29.847" height="133.212" transform="translate(294.413 11.998)" fill="#454545"/>
              <rect id="Rectángulo_391743" data-name="Rectángulo 391743" width="29.899" height="133.162" transform="translate(21.665 12.039)" fill="#454545"/>
              <rect id="Rectángulo_391744" data-name="Rectángulo 391744" width="29.9" height="133.097" transform="translate(175.49 12.08)" fill="#454545"/>
              <g id="Grupo_1093899" data-name="Grupo 1093899" transform="translate(293.623 144.029)" opacity="0.5">
                <g id="Grupo_1093898" data-name="Grupo 1093898">
                  <g id="Grupo_1093897" data-name="Grupo 1093897" clip-path="url(#clip-path-5)">
                    <rect id="Rectángulo_391745" data-name="Rectángulo 391745" width="32.428" height="7.7" fill="#454545"/>
                  </g>
                </g>
              </g>
              <g id="Grupo_1093902" data-name="Grupo 1093902" transform="translate(235.545 144.029)" opacity="0.5">
                <g id="Grupo_1093901" data-name="Grupo 1093901">
                  <g id="Grupo_1093900" data-name="Grupo 1093900" clip-path="url(#clip-path-5)">
                    <rect id="Rectángulo_391747" data-name="Rectángulo 391747" width="32.428" height="7.7" fill="#454545"/>
                  </g>
                </g>
              </g>
              <g id="Grupo_1093905" data-name="Grupo 1093905" transform="translate(174.484 144.029)" opacity="0.5">
                <g id="Grupo_1093904" data-name="Grupo 1093904">
                  <g id="Grupo_1093903" data-name="Grupo 1093903" clip-path="url(#clip-path-7)">
                    <rect id="Rectángulo_391749" data-name="Rectángulo 391749" width="32.428" height="7.7" transform="translate(-0.001)" fill="#454545"/>
                  </g>
                </g>
              </g>
              <g id="Grupo_1093908" data-name="Grupo 1093908" transform="translate(87.366 144.029)" opacity="0.5">
                <g id="Grupo_1093907" data-name="Grupo 1093907">
                  <g id="Grupo_1093906" data-name="Grupo 1093906" clip-path="url(#clip-path-7)">
                    <rect id="Rectángulo_391751" data-name="Rectángulo 391751" width="32.427" height="7.7" transform="translate(0)" fill="#454545"/>
                  </g>
                </g>
              </g>
              <g id="Grupo_1093911" data-name="Grupo 1093911" transform="translate(20.469 144.029)" opacity="0.5">
                <g id="Grupo_1093910" data-name="Grupo 1093910">
                  <g id="Grupo_1093909" data-name="Grupo 1093909" clip-path="url(#clip-path-7)">
                    <rect id="Rectángulo_391753" data-name="Rectángulo 391753" width="32.427" height="7.7" transform="translate(0.001)" fill="#454545"/>
                  </g>
                </g>
              </g>
              <g id="Grupo_1093914" data-name="Grupo 1093914" transform="translate(-11.648 237.68)" opacity="0.3">
                <g id="Grupo_1093913" data-name="Grupo 1093913">
                  <g id="Grupo_1093912" data-name="Grupo 1093912" clip-path="url(#clip-path-10)">
                    <rect id="Rectángulo_391755" data-name="Rectángulo 391755" width="382.908" height="7.7" transform="translate(0.001 0)"/>
                  </g>
                </g>
              </g>
              <path id="Trazado_627912" data-name="Trazado 627912" d="M1.261,11.738H3.795q27.117.007,54.235.012,165.46.054,330.921.12c9.243,0,18.485.1,27.73.19,2.974.027,3.331.4,3.331,3.112q-.015,99.426-.036,198.85-.009,27.777-.094,55.555c0,.28.01.56,0,.839-.08,1.676-.563,2.105-2.378,2.105q-82.117.015-164.234.025-124.4.011-248.806.009c-1.073,0-2.145-.034-3.216-.027-.907,0-1.246-.378-1.243-1.205.075-16.973.176-33.944.185-50.918q.04-91.239.027-182.479c0-6.717-.059-13.434.07-20.147a41.844,41.844,0,0,1,.98-6.041m85.856,2.378V35.3h7.864c0,.9,0,1.634,0,2.37q.109,65.766.216,131.535c0,2.408-.185,2.568-2.9,2.672-1.715.065-3.429.144-5.14.217v98.152h47.617V172.033c-1.679,0-3.25,0-4.822,0-2.407.007-2.472-.047-2.472-2.288q.014-44.986.04-89.976c.019-14.273.164-28.544.192-42.816,0-1.281.465-1.6,1.763-1.527,1.715.093,3.439.023,5.274.023V14.116ZM290.186,172.037c-4.1,0-8.069,0-12.04,0-1.8,0-2.036-.2-2.034-1.848q.1-65.42.217-130.839c0-1.242-.319-2.948.407-3.594s2.588-.291,3.951-.3c3.1-.025,6.2-.008,9.428-.008V14.127H241V35.312h7.707a4.4,4.4,0,0,1,.136.7c.036,5.271.087,10.54.093,15.812q.056,58.84.093,117.684c0,1.975-.324,2.274-2.459,2.361-1.866.076-3.731.151-5.572.223v98.167h49.186Zm-51.811.059c-.6-.025-1.1-.063-1.6-.063q-9.885-.005-19.766,0c-2.431,0-2.5-.052-2.5-2.265q.009-39.81.03-79.625c.03-17.724.167-35.449.2-53.174,0-1.252.415-1.553,1.739-1.547,6.69.03,13.38-.029,20.069-.064.585,0,1.17-.064,1.786-.1V14.126H188.559V270.258h49.817Zm-101,98.144h48.576V14.127H137.475V35.369h24.313c0,.89,0,1.675,0,2.46q.107,65.765.213,131.531c0,2.167-.277,2.475-2.605,2.5-6.738.081-13.479.117-20.217.17-.589,0-1.178,0-1.8,0ZM84.5,14.175H36.561V270.249h47.96V172.091c-.554-.024-1-.058-1.453-.059q-9.959,0-19.918,0c-2.4,0-2.471-.052-2.47-2.29q.005-34.64.022-69.276.054-31.489.225-62.977c.008-2.04.058-2.035,2.227-2.045q9.729-.042,19.459-.087c.6,0,1.2,0,1.883,0Zm307.385,256.1V14.148H344.008V35.422c.73,0,1.288,0,1.844,0q9.5-.065,19-.136c2.852-.023,2.865-.028,2.868,2.5q.111,65.768.216,131.535c0,2.226-.268,2.522-2.709,2.552-6.534.078-13.07.115-19.6.167-.541,0-1.086,0-1.676,0v98.247Zm-50.57,0V172.032c-1.868,0-3.6,0-5.324,0-2.535.007-2.573-.022-2.571-2.336q.009-39.671.031-79.34c.03-17.816.163-35.634.207-53.451,0-1.173.394-1.535,1.655-1.48,1.969.087,3.942.023,6.009.023V14.143H292.83V35.391c.833,0,1.492,0,2.151,0,4.7-.041,9.4-.074,14.1-.135.894-.013,1.374.093,1.374,1.126.008,12.033.109,24.067.122,36.1q.053,48.486.056,96.972c0,2.036-.322,2.371-2.552,2.41-4.544.082-9.087.117-13.63.169-.545.007-1.089,0-1.68,0v98.243ZM2.593,270.214H33.949V14.195H2.593Zm391.912.042h23.313V13.97H394.505ZM129.717,170.046H159.67V36.919H129.717ZM308.293,36.921H278.4V170.084h29.893Zm27.421,133.168H365.56V36.877H335.713ZM92.865,36.918h-29.9V170.08h29.9ZM216.791,170.056h29.9V36.959h-29.9Z" transform="translate(-41.301 -24.879)" fill-rule="evenodd"/>
            </g>
          </g>
          <g id="Grupo_1093924" data-name="Grupo 1093924" transform="translate(85.13)">
            <g id="Grupo_1093923" data-name="Grupo 1093923" clip-path="url(#clip-path-11)">
              <g id="Grupo_1093919" data-name="Grupo 1093919" transform="translate(46.132 31.289)" opacity="0.5" style="mix-blend-mode: multiply;isolation: isolate">
                <g id="Grupo_1093918" data-name="Grupo 1093918">
                  <g id="Grupo_1093917" data-name="Grupo 1093917" clip-path="url(#clip-path-12)">
                    <rect id="Rectángulo_391758" data-name="Rectángulo 391758" width="132.948" height="230.347" transform="translate(0)" fill="#99e8dc"/>
                  </g>
                </g>
              </g>
              <g id="Grupo_1093922" data-name="Grupo 1093922" transform="translate(194.638 31.289)" opacity="0.5" style="mix-blend-mode: multiply;isolation: isolate">
                <g id="Grupo_1093921" data-name="Grupo 1093921">
                  <g id="Grupo_1093920" data-name="Grupo 1093920" clip-path="url(#clip-path-13)">
                    <rect id="Rectángulo_391760" data-name="Rectángulo 391760" width="190.46" height="230.347" transform="translate(0.001)" fill="#cbb1eb"/>
                  </g>
                </g>
              </g>
              <path id="Trazado_627913" data-name="Trazado 627913" d="M81.07,252.744A22.841,22.841,0,1,1,58.23,229.9a22.84,22.84,0,0,1,22.84,22.84" transform="translate(26.449 45.427)" fill="#f8e5b1"/>
              <path id="Trazado_627914" data-name="Trazado 627914" d="M122.23,252.744A22.841,22.841,0,1,1,99.39,229.9a22.84,22.84,0,0,1,22.84,22.84" transform="translate(36.29 45.427)" fill="#f8e5b1"/>
              <path id="Trazado_627915" data-name="Trazado 627915" d="M163.2,252.744a22.841,22.841,0,1,1-22.84-22.84,22.84,22.84,0,0,1,22.84,22.84" transform="translate(46.316 45.427)" fill="#dac8f1"/>
              <path id="Trazado_627916" data-name="Trazado 627916" d="M208.753,252.744a22.841,22.841,0,1,1-22.84-22.84,22.84,22.84,0,0,1,22.84,22.84" transform="translate(52.766 45.427)" fill="#f8e5b1"/>
              <path id="Trazado_627917" data-name="Trazado 627917" d="M249.913,252.744a22.841,22.841,0,1,1-22.84-22.84,22.84,22.84,0,0,1,22.84,22.84" transform="translate(62.607 45.427)" fill="#f8e5b1"/>
              <path id="Trazado_627918" data-name="Trazado 627918" d="M290.886,252.744a22.841,22.841,0,1,1-22.84-22.84,22.84,22.84,0,0,1,22.84,22.84" transform="translate(72.633 45.427)" fill="#f8e5b1"/>
              <path id="Trazado_627919" data-name="Trazado 627919" d="M330.588,252.744a22.841,22.841,0,1,1-22.84-22.84,22.84,22.84,0,0,1,22.84,22.84" transform="translate(83.931 45.427)" fill="#dac8f1"/>
            </g>
          </g>
        </g>
        <path id="Trazado_634718" data-name="Trazado 634718" d="M6.44,12.175a5.731,5.731,0,0,1,1-3.542,3.237,3.237,0,0,1,2.729-1.318A2.913,2.913,0,0,1,12.46,8.352V3.5h2.549V17H12.715l-.123-1.011a2.989,2.989,0,0,1-2.443,1.187,3.228,3.228,0,0,1-2.694-1.323A5.916,5.916,0,0,1,6.44,12.175Zm2.54.189a3.754,3.754,0,0,0,.466,2.051,1.517,1.517,0,0,0,1.354.713,1.7,1.7,0,0,0,1.661-.995V10.375a1.675,1.675,0,0,0-1.644-.995Q8.98,9.38,8.98,12.364Zm7.6-.207a5.64,5.64,0,0,1,.545-2.522A3.989,3.989,0,0,1,18.7,7.921a4.577,4.577,0,0,1,2.377-.606,4.33,4.33,0,0,1,3.142,1.178,4.727,4.727,0,0,1,1.358,3.2l.018.65a4.97,4.97,0,0,1-1.222,3.511,4.247,4.247,0,0,1-3.278,1.323,4.268,4.268,0,0,1-3.283-1.318,5.058,5.058,0,0,1-1.226-3.586Zm2.54.18a3.555,3.555,0,0,0,.51,2.073,1.831,1.831,0,0,0,2.9.009,3.89,3.89,0,0,0,.519-2.267,3.519,3.519,0,0,0-.519-2.06,1.686,1.686,0,0,0-1.459-.731,1.658,1.658,0,0,0-1.441.726A3.955,3.955,0,0,0,19.123,12.338Z" transform="translate(133.077 243.528)" fill="#12263f"/>
        <path id="Trazado_634719" data-name="Trazado 634719" d="M14.275,9.872a6.9,6.9,0,0,0-.914-.07,1.86,1.86,0,0,0-1.89.976V17H8.932V7.49h2.4l.07,1.134a2.354,2.354,0,0,1,2.118-1.31,2.662,2.662,0,0,1,.791.114Zm5.432,7.3A4.668,4.668,0,0,1,16.3,15.893a4.561,4.561,0,0,1-1.314-3.419v-.246a5.745,5.745,0,0,1,.554-2.562,4.064,4.064,0,0,1,1.569-1.74,4.4,4.4,0,0,1,2.316-.611A3.947,3.947,0,0,1,22.5,8.545a5,5,0,0,1,1.121,3.489v1.037H17.562a2.36,2.36,0,0,0,.743,1.494,2.245,2.245,0,0,0,1.569.563,2.742,2.742,0,0,0,2.294-1.063l1.248,1.4a3.813,3.813,0,0,1-1.547,1.261A5.075,5.075,0,0,1,19.707,17.176Zm-.29-7.813a1.587,1.587,0,0,0-1.226.512,2.651,2.651,0,0,0-.6,1.466h3.533v-.2a1.891,1.891,0,0,0-.457-1.311A1.638,1.638,0,0,0,19.417,9.362Z" transform="translate(179.142 243.528)" fill="#12263f"/>
        <path id="Trazado_634720" data-name="Trazado 634720" d="M9.424,7.49l.1,1.116a3.27,3.27,0,0,1,2.716-1.292,2.407,2.407,0,0,1,2.435,1.433,3.165,3.165,0,0,1,2.795-1.433q2.892,0,2.971,3.5V17H17.466V11a1.813,1.813,0,0,0-.246-1.063,1.048,1.048,0,0,0-.9-.334,1.4,1.4,0,0,0-1.31.782l.009.123V17H12.052V11.015a1.906,1.906,0,0,0-.237-1.081,1.045,1.045,0,0,0-.905-.334,1.42,1.42,0,0,0-1.3.782V17H6.646V7.49ZM25.253,17H22.282V7.49h2.971ZM22.106,5.038A1.322,1.322,0,0,1,22.563,4a1.943,1.943,0,0,1,2.373,0,1.322,1.322,0,0,1,.457,1.037,1.322,1.322,0,0,1-.457,1.037,1.943,1.943,0,0,1-2.373,0A1.322,1.322,0,0,1,22.106,5.038Z" transform="translate(230.326 245.235)" fill="#12263f"/>
        <path id="Trazado_634721" data-name="Trazado 634721" d="M9.639,17V9.354H8.224V7.49H9.639V6.682A3.283,3.283,0,0,1,10.558,4.2a3.557,3.557,0,0,1,2.571-.883,5.938,5.938,0,0,1,1.292.176L14.394,5.46a3.238,3.238,0,0,0-.773-.079q-1.433,0-1.433,1.345V7.49h1.89V9.354h-1.89V17Zm11.268,0a2.821,2.821,0,0,1-.255-.853,3.073,3.073,0,0,1-2.4,1.028,3.376,3.376,0,0,1-2.316-.809,2.6,2.6,0,0,1-.918-2.039,2.687,2.687,0,0,1,1.121-2.32,5.529,5.529,0,0,1,3.239-.817h1.169v-.545a1.567,1.567,0,0,0-.338-1.055,1.331,1.331,0,0,0-1.068-.4,1.513,1.513,0,0,0-1.006.308,1.045,1.045,0,0,0-.365.844h-2.54a2.551,2.551,0,0,1,.51-1.529,3.37,3.37,0,0,1,1.441-1.1,5.253,5.253,0,0,1,2.092-.4,4.15,4.15,0,0,1,2.791.883A3.09,3.09,0,0,1,23.1,10.681V14.8a4.546,4.546,0,0,0,.378,2.048V17Zm-2.1-1.767a2.188,2.188,0,0,0,1.037-.25,1.645,1.645,0,0,0,.7-.672V12.676H19.6q-1.907,0-2.03,1.318l-.009.149a1.017,1.017,0,0,0,.334.782A1.3,1.3,0,0,0,18.806,15.233Z" transform="translate(284.922 243.528)" fill="#12263f"/>
        <path id="Trazado_634722" data-name="Trazado 634722" d="M21.023,14.372a.818.818,0,0,0-.461-.734,5.241,5.241,0,0,0-1.481-.479q-3.393-.712-3.393-2.883a2.613,2.613,0,0,1,1.05-2.114,4.237,4.237,0,0,1,2.747-.848,4.56,4.56,0,0,1,2.9.853,2.687,2.687,0,0,1,1.085,2.215h-2.54a1.229,1.229,0,0,0-.352-.9,1.488,1.488,0,0,0-1.1-.356,1.52,1.52,0,0,0-.993.29.916.916,0,0,0-.352.738.783.783,0,0,0,.4.681,4.114,4.114,0,0,0,1.349.448,11.019,11.019,0,0,1,1.6.426,2.628,2.628,0,0,1,2.013,2.558,2.481,2.481,0,0,1-1.116,2.1,4.815,4.815,0,0,1-2.883.8,5.029,5.029,0,0,1-2.123-.426,3.561,3.561,0,0,1-1.455-1.169,2.716,2.716,0,0,1-.527-1.6H17.8a1.326,1.326,0,0,0,.5,1.037,1.987,1.987,0,0,0,1.248.36,1.839,1.839,0,0,0,1.1-.277A.861.861,0,0,0,21.023,14.372Zm3.709-2.215a5.64,5.64,0,0,1,.545-2.522,3.989,3.989,0,0,1,1.569-1.714,4.577,4.577,0,0,1,2.377-.606,4.33,4.33,0,0,1,3.142,1.178,4.727,4.727,0,0,1,1.358,3.2l.018.65a4.97,4.97,0,0,1-1.222,3.511,4.247,4.247,0,0,1-3.278,1.323,4.268,4.268,0,0,1-3.283-1.318,5.058,5.058,0,0,1-1.226-3.586Zm2.54.18a3.555,3.555,0,0,0,.51,2.073,1.831,1.831,0,0,0,2.9.009,3.89,3.89,0,0,0,.519-2.267,3.519,3.519,0,0,0-.519-2.06,1.686,1.686,0,0,0-1.459-.731,1.658,1.658,0,0,0-1.441.726A3.955,3.955,0,0,0,27.272,12.338ZM37.986,17H35.438V3.5h2.549Z" transform="translate(325.987 242.234)" fill="#12263f"/>
        <path id="Trazado_634723" data-name="Trazado 634723" d="M12.465,17H9.916V3.5h2.549Zm7.6,0a2.821,2.821,0,0,1-.255-.853,3.073,3.073,0,0,1-2.4,1.028,3.376,3.376,0,0,1-2.316-.809,2.6,2.6,0,0,1-.918-2.039,2.687,2.687,0,0,1,1.121-2.32,5.529,5.529,0,0,1,3.239-.817h1.169v-.545a1.567,1.567,0,0,0-.338-1.055A1.331,1.331,0,0,0,18.3,9.2a1.513,1.513,0,0,0-1.006.308,1.045,1.045,0,0,0-.365.844H14.39a2.551,2.551,0,0,1,.51-1.529,3.37,3.37,0,0,1,1.441-1.1,5.253,5.253,0,0,1,2.092-.4,4.15,4.15,0,0,1,2.791.883,3.09,3.09,0,0,1,1.033,2.483V14.8a4.546,4.546,0,0,0,.378,2.048V17Zm-2.1-1.767A2.188,2.188,0,0,0,19,14.983a1.645,1.645,0,0,0,.7-.672V12.676h-.949q-1.907,0-2.03,1.318l-.009.149a1.017,1.017,0,0,0,.334.782A1.3,1.3,0,0,0,17.967,15.233Z" transform="translate(385.583 243.528)" fill="#12263f"/>
        <path id="Trazado_634724" data-name="Trazado 634724" d="M15.132,14.372a.818.818,0,0,0-.461-.734,5.241,5.241,0,0,0-1.481-.479Q9.8,12.447,9.8,10.276a2.613,2.613,0,0,1,1.05-2.114,4.237,4.237,0,0,1,2.747-.848,4.56,4.56,0,0,1,2.9.853,2.687,2.687,0,0,1,1.085,2.215h-2.54a1.229,1.229,0,0,0-.352-.9,1.488,1.488,0,0,0-1.1-.356,1.52,1.52,0,0,0-.993.29.916.916,0,0,0-.352.738.783.783,0,0,0,.4.681,4.114,4.114,0,0,0,1.349.448,11.019,11.019,0,0,1,1.6.426A2.628,2.628,0,0,1,17.6,14.267a2.481,2.481,0,0,1-1.116,2.1,4.815,4.815,0,0,1-2.883.8,5.029,5.029,0,0,1-2.123-.426,3.561,3.561,0,0,1-1.455-1.169,2.716,2.716,0,0,1-.527-1.6h2.408a1.326,1.326,0,0,0,.5,1.037,1.987,1.987,0,0,0,1.248.36,1.839,1.839,0,0,0,1.1-.277A.861.861,0,0,0,15.132,14.372ZM21.917,17H19.369V7.49h2.549Zm-2.7-11.971a1.251,1.251,0,0,1,.382-.94,1.648,1.648,0,0,1,2.079,0,1.244,1.244,0,0,1,.387.94,1.247,1.247,0,0,1-.391.949,1.629,1.629,0,0,1-2.065,0A1.247,1.247,0,0,1,19.219,5.029Z" transform="translate(436.766 243.528)" fill="#12263f"/>
        <path id="Trazado_634725" data-name="Trazado 634725" d="M24.484,15H22.227V6.3l-2.7.836V5.3l4.711-1.687h.242ZM10.273,21.469v2.078h1.445V25.2H10.273v4.219a1.007,1.007,0,0,0,.18.672.9.9,0,0,0,.688.2,3.6,3.6,0,0,0,.664-.055v1.711a4.648,4.648,0,0,1-1.367.2,2.156,2.156,0,0,1-2.422-2.4V25.2H6.781V23.547H8.016V21.469ZM12.391,27.7a5.013,5.013,0,0,1,.484-2.242A3.546,3.546,0,0,1,14.27,23.93a4.069,4.069,0,0,1,2.113-.539,3.849,3.849,0,0,1,2.793,1.047,4.2,4.2,0,0,1,1.207,2.844l.016.578a4.418,4.418,0,0,1-1.086,3.121A3.775,3.775,0,0,1,16.4,32.156a3.793,3.793,0,0,1-2.918-1.172,4.5,4.5,0,0,1-1.09-3.187Zm2.258.16A3.16,3.16,0,0,0,15.1,29.7a1.628,1.628,0,0,0,2.578.008,3.457,3.457,0,0,0,.461-2.015,3.128,3.128,0,0,0-.461-1.831,1.5,1.5,0,0,0-1.3-.649,1.474,1.474,0,0,0-1.281.646A3.516,3.516,0,0,0,14.648,27.856Zm9.219-4.309.07.977a2.951,2.951,0,0,1,2.43-1.133,2.453,2.453,0,0,1,2,.789,3.682,3.682,0,0,1,.672,2.359V32H26.781V26.594a1.465,1.465,0,0,0-.312-1.043,1.4,1.4,0,0,0-1.039-.324,1.553,1.553,0,0,0-1.43.813V32H21.742V23.547ZM30.4,27.7a5.013,5.013,0,0,1,.484-2.242,3.546,3.546,0,0,1,1.395-1.523,4.069,4.069,0,0,1,2.113-.539,3.849,3.849,0,0,1,2.793,1.047,4.2,4.2,0,0,1,1.207,2.844l.016.578A4.418,4.418,0,0,1,37.32,30.98a3.775,3.775,0,0,1-2.914,1.176,3.793,3.793,0,0,1-2.918-1.172A4.5,4.5,0,0,1,30.4,27.8Zm2.258.16a3.16,3.16,0,0,0,.453,1.843,1.628,1.628,0,0,0,2.578.008,3.457,3.457,0,0,0,.461-2.015,3.128,3.128,0,0,0-.461-1.831,1.5,1.5,0,0,0-1.3-.649,1.474,1.474,0,0,0-1.281.646A3.516,3.516,0,0,0,32.656,27.856Z" transform="translate(147.432 274.504)" fill="#12263f"/>
        <path id="Trazado_634726" data-name="Trazado 634726" d="M24.484,15H22.227V6.3l-2.7.836V5.3l4.711-1.687h.242ZM10.273,21.469v2.078h1.445V25.2H10.273v4.219a1.007,1.007,0,0,0,.18.672.9.9,0,0,0,.688.2,3.6,3.6,0,0,0,.664-.055v1.711a4.648,4.648,0,0,1-1.367.2,2.156,2.156,0,0,1-2.422-2.4V25.2H6.781V23.547H8.016V21.469ZM12.391,27.7a5.013,5.013,0,0,1,.484-2.242A3.546,3.546,0,0,1,14.27,23.93a4.069,4.069,0,0,1,2.113-.539,3.849,3.849,0,0,1,2.793,1.047,4.2,4.2,0,0,1,1.207,2.844l.016.578a4.418,4.418,0,0,1-1.086,3.121A3.775,3.775,0,0,1,16.4,32.156a3.793,3.793,0,0,1-2.918-1.172,4.5,4.5,0,0,1-1.09-3.187Zm2.258.16A3.16,3.16,0,0,0,15.1,29.7a1.628,1.628,0,0,0,2.578.008,3.457,3.457,0,0,0,.461-2.015,3.128,3.128,0,0,0-.461-1.831,1.5,1.5,0,0,0-1.3-.649,1.474,1.474,0,0,0-1.281.646A3.516,3.516,0,0,0,14.648,27.856Zm9.219-4.309.07.977a2.951,2.951,0,0,1,2.43-1.133,2.453,2.453,0,0,1,2,.789,3.682,3.682,0,0,1,.672,2.359V32H26.781V26.594a1.465,1.465,0,0,0-.312-1.043,1.4,1.4,0,0,0-1.039-.324,1.553,1.553,0,0,0-1.43.813V32H21.742V23.547ZM30.4,27.7a5.013,5.013,0,0,1,.484-2.242,3.546,3.546,0,0,1,1.395-1.523,4.069,4.069,0,0,1,2.113-.539,3.849,3.849,0,0,1,2.793,1.047,4.2,4.2,0,0,1,1.207,2.844l.016.578A4.418,4.418,0,0,1,37.32,30.98a3.775,3.775,0,0,1-2.914,1.176,3.793,3.793,0,0,1-2.918-1.172A4.5,4.5,0,0,1,30.4,27.8Zm2.258.16a3.16,3.16,0,0,0,.453,1.843,1.628,1.628,0,0,0,2.578.008,3.457,3.457,0,0,0,.461-2.015,3.128,3.128,0,0,0-.461-1.831,1.5,1.5,0,0,0-1.3-.649,1.474,1.474,0,0,0-1.281.646A3.516,3.516,0,0,0,32.656,27.856Z" transform="translate(197.763 274.504)" fill="#12263f"/>
        <path id="Trazado_634727" data-name="Trazado 634727" d="M16.906,15H14.648V6.3l-2.7.836V5.3l4.711-1.687h.242Zm4.5.977h-1.68L23.914,3.625h1.68ZM34.375,15h-7.8V13.453l3.68-3.922a9.078,9.078,0,0,0,1.121-1.445,2.322,2.322,0,0,0,.363-1.172,1.738,1.738,0,0,0-.383-1.191,1.382,1.382,0,0,0-1.094-.434,1.49,1.49,0,0,0-1.207.527A2.089,2.089,0,0,0,28.617,7.2H26.352a3.729,3.729,0,0,1,.5-1.9,3.5,3.5,0,0,1,1.4-1.348A4.262,4.262,0,0,1,30.3,3.469a4.036,4.036,0,0,1,2.73.844A2.985,2.985,0,0,1,34.008,6.7a3.825,3.825,0,0,1-.437,1.719,9.551,9.551,0,0,1-1.5,2.039L29.484,13.18h4.891Zm-24.1,6.469v2.078h1.445V25.2H10.273v4.219a1.007,1.007,0,0,0,.18.672.9.9,0,0,0,.688.2,3.6,3.6,0,0,0,.664-.055v1.711a4.648,4.648,0,0,1-1.367.2,2.156,2.156,0,0,1-2.422-2.4V25.2H6.781V23.547H8.016V21.469ZM12.391,27.7a5.013,5.013,0,0,1,.484-2.242A3.546,3.546,0,0,1,14.27,23.93a4.069,4.069,0,0,1,2.113-.539,3.849,3.849,0,0,1,2.793,1.047,4.2,4.2,0,0,1,1.207,2.844l.016.578a4.418,4.418,0,0,1-1.086,3.121A3.775,3.775,0,0,1,16.4,32.156a3.793,3.793,0,0,1-2.918-1.172,4.5,4.5,0,0,1-1.09-3.187Zm2.258.16A3.16,3.16,0,0,0,15.1,29.7a1.628,1.628,0,0,0,2.578.008,3.457,3.457,0,0,0,.461-2.015,3.128,3.128,0,0,0-.461-1.831,1.5,1.5,0,0,0-1.3-.649,1.474,1.474,0,0,0-1.281.646A3.516,3.516,0,0,0,14.648,27.856Zm9.219-4.309.07.977a2.951,2.951,0,0,1,2.43-1.133,2.453,2.453,0,0,1,2,.789,3.682,3.682,0,0,1,.672,2.359V32H26.781V26.594a1.465,1.465,0,0,0-.312-1.043,1.4,1.4,0,0,0-1.039-.324,1.553,1.553,0,0,0-1.43.813V32H21.742V23.547ZM30.4,27.7a5.013,5.013,0,0,1,.484-2.242,3.546,3.546,0,0,1,1.395-1.523,4.069,4.069,0,0,1,2.113-.539,3.849,3.849,0,0,1,2.793,1.047,4.2,4.2,0,0,1,1.207,2.844l.016.578A4.418,4.418,0,0,1,37.32,30.98a3.775,3.775,0,0,1-2.914,1.176,3.793,3.793,0,0,1-2.918-1.172A4.5,4.5,0,0,1,30.4,27.8Zm2.258.16a3.16,3.16,0,0,0,.453,1.843,1.628,1.628,0,0,0,2.578.008,3.457,3.457,0,0,0,.461-2.015,3.128,3.128,0,0,0-.461-1.831,1.5,1.5,0,0,0-1.3-.649,1.474,1.474,0,0,0-1.281.646A3.516,3.516,0,0,0,32.656,27.856Z" transform="translate(248.799 274.504)" fill="#12263f"/>
        <path id="Trazado_634728" data-name="Trazado 634728" d="M24.484,15H22.227V6.3l-2.7.836V5.3l4.711-1.687h.242ZM10.273,21.469v2.078h1.445V25.2H10.273v4.219a1.007,1.007,0,0,0,.18.672.9.9,0,0,0,.688.2,3.6,3.6,0,0,0,.664-.055v1.711a4.648,4.648,0,0,1-1.367.2,2.156,2.156,0,0,1-2.422-2.4V25.2H6.781V23.547H8.016V21.469ZM12.391,27.7a5.013,5.013,0,0,1,.484-2.242A3.546,3.546,0,0,1,14.27,23.93a4.069,4.069,0,0,1,2.113-.539,3.849,3.849,0,0,1,2.793,1.047,4.2,4.2,0,0,1,1.207,2.844l.016.578a4.418,4.418,0,0,1-1.086,3.121A3.775,3.775,0,0,1,16.4,32.156a3.793,3.793,0,0,1-2.918-1.172,4.5,4.5,0,0,1-1.09-3.187Zm2.258.16A3.16,3.16,0,0,0,15.1,29.7a1.628,1.628,0,0,0,2.578.008,3.457,3.457,0,0,0,.461-2.015,3.128,3.128,0,0,0-.461-1.831,1.5,1.5,0,0,0-1.3-.649,1.474,1.474,0,0,0-1.281.646A3.516,3.516,0,0,0,14.648,27.856Zm9.219-4.309.07.977a2.951,2.951,0,0,1,2.43-1.133,2.453,2.453,0,0,1,2,.789,3.682,3.682,0,0,1,.672,2.359V32H26.781V26.594a1.465,1.465,0,0,0-.312-1.043,1.4,1.4,0,0,0-1.039-.324,1.553,1.553,0,0,0-1.43.813V32H21.742V23.547ZM30.4,27.7a5.013,5.013,0,0,1,.484-2.242,3.546,3.546,0,0,1,1.395-1.523,4.069,4.069,0,0,1,2.113-.539,3.849,3.849,0,0,1,2.793,1.047,4.2,4.2,0,0,1,1.207,2.844l.016.578A4.418,4.418,0,0,1,37.32,30.98a3.775,3.775,0,0,1-2.914,1.176,3.793,3.793,0,0,1-2.918-1.172A4.5,4.5,0,0,1,30.4,27.8Zm2.258.16a3.16,3.16,0,0,0,.453,1.843,1.628,1.628,0,0,0,2.578.008,3.457,3.457,0,0,0,.461-2.015,3.128,3.128,0,0,0-.461-1.831,1.5,1.5,0,0,0-1.3-.649,1.474,1.474,0,0,0-1.281.646A3.516,3.516,0,0,0,32.656,27.856Z" transform="translate(301.13 274.504)" fill="#12263f"/>
        <path id="Trazado_634729" data-name="Trazado 634729" d="M24.484,15H22.227V6.3l-2.7.836V5.3l4.711-1.687h.242ZM10.273,21.469v2.078h1.445V25.2H10.273v4.219a1.007,1.007,0,0,0,.18.672.9.9,0,0,0,.688.2,3.6,3.6,0,0,0,.664-.055v1.711a4.648,4.648,0,0,1-1.367.2,2.156,2.156,0,0,1-2.422-2.4V25.2H6.781V23.547H8.016V21.469ZM12.391,27.7a5.013,5.013,0,0,1,.484-2.242A3.546,3.546,0,0,1,14.27,23.93a4.069,4.069,0,0,1,2.113-.539,3.849,3.849,0,0,1,2.793,1.047,4.2,4.2,0,0,1,1.207,2.844l.016.578a4.418,4.418,0,0,1-1.086,3.121A3.775,3.775,0,0,1,16.4,32.156a3.793,3.793,0,0,1-2.918-1.172,4.5,4.5,0,0,1-1.09-3.187Zm2.258.16A3.16,3.16,0,0,0,15.1,29.7a1.628,1.628,0,0,0,2.578.008,3.457,3.457,0,0,0,.461-2.015,3.128,3.128,0,0,0-.461-1.831,1.5,1.5,0,0,0-1.3-.649,1.474,1.474,0,0,0-1.281.646A3.516,3.516,0,0,0,14.648,27.856Zm9.219-4.309.07.977a2.951,2.951,0,0,1,2.43-1.133,2.453,2.453,0,0,1,2,.789,3.682,3.682,0,0,1,.672,2.359V32H26.781V26.594a1.465,1.465,0,0,0-.312-1.043,1.4,1.4,0,0,0-1.039-.324,1.553,1.553,0,0,0-1.43.813V32H21.742V23.547ZM30.4,27.7a5.013,5.013,0,0,1,.484-2.242,3.546,3.546,0,0,1,1.395-1.523,4.069,4.069,0,0,1,2.113-.539,3.849,3.849,0,0,1,2.793,1.047,4.2,4.2,0,0,1,1.207,2.844l.016.578A4.418,4.418,0,0,1,37.32,30.98a3.775,3.775,0,0,1-2.914,1.176,3.793,3.793,0,0,1-2.918-1.172A4.5,4.5,0,0,1,30.4,27.8Zm2.258.16a3.16,3.16,0,0,0,.453,1.843,1.628,1.628,0,0,0,2.578.008,3.457,3.457,0,0,0,.461-2.015,3.128,3.128,0,0,0-.461-1.831,1.5,1.5,0,0,0-1.3-.649,1.474,1.474,0,0,0-1.281.646A3.516,3.516,0,0,0,32.656,27.856Z" transform="translate(351.46 274.504)" fill="#12263f"/>
        <path id="Trazado_634730" data-name="Trazado 634730" d="M24.484,15H22.227V6.3l-2.7.836V5.3l4.711-1.687h.242ZM10.273,21.469v2.078h1.445V25.2H10.273v4.219a1.007,1.007,0,0,0,.18.672.9.9,0,0,0,.688.2,3.6,3.6,0,0,0,.664-.055v1.711a4.648,4.648,0,0,1-1.367.2,2.156,2.156,0,0,1-2.422-2.4V25.2H6.781V23.547H8.016V21.469ZM12.391,27.7a5.013,5.013,0,0,1,.484-2.242A3.546,3.546,0,0,1,14.27,23.93a4.069,4.069,0,0,1,2.113-.539,3.849,3.849,0,0,1,2.793,1.047,4.2,4.2,0,0,1,1.207,2.844l.016.578a4.418,4.418,0,0,1-1.086,3.121A3.775,3.775,0,0,1,16.4,32.156a3.793,3.793,0,0,1-2.918-1.172,4.5,4.5,0,0,1-1.09-3.187Zm2.258.16A3.16,3.16,0,0,0,15.1,29.7a1.628,1.628,0,0,0,2.578.008,3.457,3.457,0,0,0,.461-2.015,3.128,3.128,0,0,0-.461-1.831,1.5,1.5,0,0,0-1.3-.649,1.474,1.474,0,0,0-1.281.646A3.516,3.516,0,0,0,14.648,27.856Zm9.219-4.309.07.977a2.951,2.951,0,0,1,2.43-1.133,2.453,2.453,0,0,1,2,.789,3.682,3.682,0,0,1,.672,2.359V32H26.781V26.594a1.465,1.465,0,0,0-.312-1.043,1.4,1.4,0,0,0-1.039-.324,1.553,1.553,0,0,0-1.43.813V32H21.742V23.547ZM30.4,27.7a5.013,5.013,0,0,1,.484-2.242,3.546,3.546,0,0,1,1.395-1.523,4.069,4.069,0,0,1,2.113-.539,3.849,3.849,0,0,1,2.793,1.047,4.2,4.2,0,0,1,1.207,2.844l.016.578A4.418,4.418,0,0,1,37.32,30.98a3.775,3.775,0,0,1-2.914,1.176,3.793,3.793,0,0,1-2.918-1.172A4.5,4.5,0,0,1,30.4,27.8Zm2.258.16a3.16,3.16,0,0,0,.453,1.843,1.628,1.628,0,0,0,2.578.008,3.457,3.457,0,0,0,.461-2.015,3.128,3.128,0,0,0-.461-1.831,1.5,1.5,0,0,0-1.3-.649,1.474,1.474,0,0,0-1.281.646A3.516,3.516,0,0,0,32.656,27.856Z" transform="translate(402.791 274.504)" fill="#12263f"/>
        <path id="Trazado_634731" data-name="Trazado 634731" d="M16.906,15H14.648V6.3l-2.7.836V5.3l4.711-1.687h.242Zm4.5.977h-1.68L23.914,3.625h1.68ZM34.375,15h-7.8V13.453l3.68-3.922a9.078,9.078,0,0,0,1.121-1.445,2.322,2.322,0,0,0,.363-1.172,1.738,1.738,0,0,0-.383-1.191,1.382,1.382,0,0,0-1.094-.434,1.49,1.49,0,0,0-1.207.527A2.089,2.089,0,0,0,28.617,7.2H26.352a3.729,3.729,0,0,1,.5-1.9,3.5,3.5,0,0,1,1.4-1.348A4.262,4.262,0,0,1,30.3,3.469a4.036,4.036,0,0,1,2.73.844A2.985,2.985,0,0,1,34.008,6.7a3.825,3.825,0,0,1-.437,1.719,9.551,9.551,0,0,1-1.5,2.039L29.484,13.18h4.891Zm-24.1,6.469v2.078h1.445V25.2H10.273v4.219a1.007,1.007,0,0,0,.18.672.9.9,0,0,0,.688.2,3.6,3.6,0,0,0,.664-.055v1.711a4.648,4.648,0,0,1-1.367.2,2.156,2.156,0,0,1-2.422-2.4V25.2H6.781V23.547H8.016V21.469ZM12.391,27.7a5.013,5.013,0,0,1,.484-2.242A3.546,3.546,0,0,1,14.27,23.93a4.069,4.069,0,0,1,2.113-.539,3.849,3.849,0,0,1,2.793,1.047,4.2,4.2,0,0,1,1.207,2.844l.016.578a4.418,4.418,0,0,1-1.086,3.121A3.775,3.775,0,0,1,16.4,32.156a3.793,3.793,0,0,1-2.918-1.172,4.5,4.5,0,0,1-1.09-3.187Zm2.258.16A3.16,3.16,0,0,0,15.1,29.7a1.628,1.628,0,0,0,2.578.008,3.457,3.457,0,0,0,.461-2.015,3.128,3.128,0,0,0-.461-1.831,1.5,1.5,0,0,0-1.3-.649,1.474,1.474,0,0,0-1.281.646A3.516,3.516,0,0,0,14.648,27.856Zm9.219-4.309.07.977a2.951,2.951,0,0,1,2.43-1.133,2.453,2.453,0,0,1,2,.789,3.682,3.682,0,0,1,.672,2.359V32H26.781V26.594a1.465,1.465,0,0,0-.312-1.043,1.4,1.4,0,0,0-1.039-.324,1.553,1.553,0,0,0-1.43.813V32H21.742V23.547ZM30.4,27.7a5.013,5.013,0,0,1,.484-2.242,3.546,3.546,0,0,1,1.395-1.523,4.069,4.069,0,0,1,2.113-.539,3.849,3.849,0,0,1,2.793,1.047,4.2,4.2,0,0,1,1.207,2.844l.016.578A4.418,4.418,0,0,1,37.32,30.98a3.775,3.775,0,0,1-2.914,1.176,3.793,3.793,0,0,1-2.918-1.172A4.5,4.5,0,0,1,30.4,27.8Zm2.258.16a3.16,3.16,0,0,0,.453,1.843,1.628,1.628,0,0,0,2.578.008,3.457,3.457,0,0,0,.461-2.015,3.128,3.128,0,0,0-.461-1.831,1.5,1.5,0,0,0-1.3-.649,1.474,1.474,0,0,0-1.281.646A3.516,3.516,0,0,0,32.656,27.856Z" transform="translate(454.121 274.504)" fill="#12263f"/>
      </g>
    </g>
  </g>
</svg>
