<svg id="Grupo_1101566" data-name="Grupo 1101566" xmlns="http://www.w3.org/2000/svg" xmlns:xlink="http://www.w3.org/1999/xlink" width="1030" height="349" viewBox="0 0 1030 349">
  <defs>
    <clipPath id="clip-path">
      <rect id="Rectángulo_396378" data-name="Rectángulo 396378" width="1030" height="349" fill="none"/>
    </clipPath>
  </defs>
  <path id="Trazado_634863" data-name="Trazado 634863" d="M0,0H1030V349H0Z" fill="#c2f1ea"/>
  <path id="Trazado_634864" data-name="Trazado 634864" d="M0,0H924.742V1.353H0Z" transform="translate(39.583 163.692)" fill="#12263f"/>
  <path id="Trazado_634865" data-name="Trazado 634865" d="M0,0H4.9V21.728H0Z" transform="translate(959.428 296.06)" fill="#12263f"/>
  <path id="Trazado_634866" data-name="Trazado 634866" d="M0,0H1.5V21.463H0Z" transform="translate(952.83 296.325)" fill="#12263f"/>
  <path id="Trazado_634867" data-name="Trazado 634867" d="M0,0H1.5V21.463H0Z" transform="translate(964.325 153.093)" fill="#12263f"/>
  <path id="Trazado_634868" data-name="Trazado 634868" d="M0,0H1.5V21.463H0Z" transform="translate(774.369 153.093)" fill="#12263f"/>
  <path id="Trazado_634869" data-name="Trazado 634869" d="M0,0H1.5V21.463H0Z" transform="translate(507.943 153.093)" fill="#12263f"/>
  <path id="Trazado_634870" data-name="Trazado 634870" d="M0,0H1.5V21.463H0Z" transform="translate(277.351 153.093)" fill="#12263f"/>
  <g id="Grupo_1101565" data-name="Grupo 1101565">
    <g id="Grupo_1101564" data-name="Grupo 1101564" clip-path="url(#clip-path)">
      <path id="Trazado_634454" data-name="Trazado 634454" d="M194.166,163.089c1.176,2.469,5.13,3.107,8.835,1.426,2.991-1.358,4.906-3.81,4.916-6.005V125.276a.644.644,0,0,0-1.287,0v30.511c-1.72-1.417-4.882-1.574-7.881-.212-3.705,1.683-5.757,5.045-4.584,7.514" fill="#12263f"/>
      <path id="Trazado_634455" data-name="Trazado 634455" d="M103.452,163.089c1.176,2.469,5.13,3.107,8.835,1.426,2.991-1.358,4.906-3.81,4.916-6.005V125.276a.644.644,0,0,0-1.287,0v30.511c-1.72-1.417-4.882-1.574-7.881-.212-3.705,1.683-5.757,5.045-4.584,7.514" fill="#12263f"/>
      <path id="Trazado_634456" data-name="Trazado 634456" d="M419.826,163.089c1.176,2.469,5.13,3.107,8.835,1.426,2.991-1.358,4.906-3.81,4.916-6.005V125.276a.644.644,0,0,0-1.287,0v30.511c-1.72-1.417-4.882-1.574-7.881-.212-3.705,1.683-5.757,5.045-4.584,7.514" fill="#12263f"/>
      <path id="Trazado_634457" data-name="Trazado 634457" d="M788.9,163.089c1.176,2.469,5.13,3.107,8.835,1.426,2.991-1.358,4.906-3.81,4.916-6.005V125.276a.644.644,0,0,0-1.287,0v30.511c-1.72-1.417-4.882-1.574-7.881-.212-3.705,1.683-5.757,5.045-4.584,7.514" fill="#12263f"/>
      <path id="Trazado_634458" data-name="Trazado 634458" d="M371.156,125.055H307.5v30.627c-1.63-1.372-4.62-1.523-7.456-.2-3.508,1.627-5.45,4.887-4.339,7.276s4.855,3.01,8.36,1.381c2.829-1.316,4.641-3.69,4.65-5.817V129.444h61.228v26.238c-1.624-1.372-4.615-1.523-7.452-.2-3.508,1.627-5.451,4.887-4.341,7.276s4.856,3.01,8.361,1.381c2.831-1.316,4.641-3.69,4.65-5.817v-.045Z" fill="#12263f"/>
      <path id="Trazado_634459" data-name="Trazado 634459" d="M599.93,125.055H536.278v30.627c-1.631-1.372-4.62-1.523-7.456-.2-3.508,1.627-5.451,4.887-4.339,7.276s4.855,3.01,8.36,1.381c2.828-1.316,4.64-3.69,4.65-5.817V129.444h61.228v26.238c-1.624-1.372-4.616-1.523-7.452-.2-3.508,1.627-5.451,4.887-4.341,7.276s4.856,3.01,8.361,1.381c2.831-1.316,4.641-3.69,4.649-5.817l0-.011v-.034Z" fill="#12263f"/>
      <path id="Trazado_634460" data-name="Trazado 634460" d="M726.121,125.055H662.469v30.627c-1.63-1.372-4.62-1.523-7.456-.2-3.508,1.627-5.45,4.887-4.339,7.276s4.855,3.01,8.36,1.381c2.829-1.316,4.641-3.69,4.65-5.817V129.444h61.228v26.238c-1.624-1.372-4.615-1.523-7.452-.2-3.508,1.627-5.451,4.887-4.341,7.276s4.856,3.01,8.361,1.381c2.831-1.316,4.641-3.69,4.65-5.817v-.045Z" fill="#12263f"/>
      <path id="Trazado_634461" data-name="Trazado 634461" d="M252.142,109.651c20.007,0,33.5-3.547,40.945-10.914,3.722-3.819,5.584-7.639,5.584-11.186h2.791c0,3.547,1.862,7.367,5.584,11.186,7.444,7.367,20.938,10.914,40.945,10.914H461.986c26.056,0,45.133,10.641,45.133,24.829v4.365h-2.792V134.48c0-13.37-18.146-23.192-42.341-23.192H347.991c-20.938,0-35.362-3.82-43.272-11.732a16.481,16.481,0,0,1-4.653-8.731,16.467,16.467,0,0,1-4.653,8.731c-7.909,7.912-22.333,11.732-43.271,11.732H138.147c-24.66,0-42.341,9.822-42.341,23.192v4.365H93.014V134.48c0-14.188,19.077-24.829,45.133-24.829Z"/>
      <path id="Trazado_634462" data-name="Trazado 634462" d="M675.453,109.651c20.007,0,33.5-3.547,40.945-10.914,3.722-3.819,5.584-7.639,5.584-11.186h2.791c0,3.547,1.862,7.367,5.584,11.186,7.444,7.367,20.938,10.914,40.945,10.914H885.3c26.056,0,45.133,10.641,45.133,24.829v4.365h-2.792V134.48c0-13.37-18.146-23.192-42.341-23.192H771.3c-20.938,0-35.362-3.82-43.272-11.732a16.48,16.48,0,0,1-4.653-8.731,16.467,16.467,0,0,1-4.653,8.731c-7.909,7.912-22.333,11.732-43.271,11.732H561.458c-24.66,0-42.341,9.822-42.341,23.192v4.365h-2.792V134.48c0-14.188,19.077-24.829,45.133-24.829Z"/>
      <path id="Trazado_634463" data-name="Trazado 634463" d="M252.142,241.516c20.007,0,33.5-3.547,40.945-10.914,3.722-3.819,5.584-7.639,5.584-11.187h2.791c0,3.548,1.862,7.368,5.584,11.187,7.444,7.367,20.938,10.914,40.945,10.914H461.986c26.056,0,45.133,10.641,45.133,24.829v4.365h-2.792v-4.365c0-13.37-18.146-23.192-42.341-23.192H347.991c-20.938,0-35.362-3.82-43.272-11.732a16.48,16.48,0,0,1-4.653-8.732,16.466,16.466,0,0,1-4.653,8.732c-7.909,7.912-22.333,11.732-43.271,11.732H138.147c-24.66,0-42.341,9.822-42.341,23.192v4.365H93.014v-4.365c0-14.188,19.077-24.829,45.133-24.829Z"/>
      <path id="Trazado_634464" data-name="Trazado 634464" d="M675.453,241.516c20.007,0,33.5-3.547,40.945-10.914,3.722-3.819,5.584-7.639,5.584-11.187h2.791c0,3.548,1.862,7.368,5.584,11.187,7.444,7.367,20.938,10.914,40.945,10.914H885.3c26.056,0,45.133,10.641,45.133,24.829v4.365h-2.792v-4.365c0-13.37-18.146-23.192-42.341-23.192H771.3c-20.938,0-35.362-3.82-43.272-11.732a16.48,16.48,0,0,1-4.653-8.732,16.466,16.466,0,0,1-4.653,8.732c-7.909,7.912-22.333,11.732-43.271,11.732H561.458c-24.66,0-42.341,9.822-42.341,23.192v4.365h-2.792v-4.365c0-14.188,19.077-24.829,45.133-24.829Z"/>
      <path id="Trazado_634465" data-name="Trazado 634465" d="M880.373,133.764s10.834,6.084,10.834,11.576-7.422,7.122-7.422,10.684,7.645,9.869,6.977,10.537c-.817.818-8.458-3.266-10.094-1.632-2.894,2.894,2.525,9.346,1.636,10.239s-6.533-7.274-6.533-11.131,1.93-4.154,4.6-3.263a40.931,40.931,0,0,1,6.678,3.413s-9.644-6.381-9.644-11.129,7.268-4.6,7.268-9.054c0-4.007-4.3-10.24-4.3-10.24" fill="#12263f"/>
      <path id="Trazado_634466" data-name="Trazado 634466" d="M80.454,153.568a53.507,53.507,0,0,0-4.486,4.766,8.475,8.475,0,0,0-1.745,4.455h.623a2.2,2.2,0,0,1,2.274-2.025,9.025,9.025,0,0,1,3.365,1.168,9.406,9.406,0,0,0,4.1,1.169,3.013,3.013,0,0,0,2.679-1.387,5.923,5.923,0,0,0,.919-3.349,8.081,8.081,0,0,0-.249-1.962h-.312a1.873,1.873,0,0,1-.592,1.246,2.142,2.142,0,0,1-1.059.53,8.925,8.925,0,0,1-1.433.093,9.827,9.827,0,0,1-2.384-.4,10.582,10.582,0,0,0-2.694-.4,2.919,2.919,0,0,0-1.932.623,4.587,4.587,0,0,1,1.885-1.479,25.6,25.6,0,0,1,2.711-1.122,23.817,23.817,0,0,0,2.71-1.137,5.561,5.561,0,0,0,2.18-1.932,5.462,5.462,0,0,0,.857-3.115,3.951,3.951,0,0,0-2.056-3.52,9.3,9.3,0,0,0-5-1.278,7.28,7.28,0,0,0-4.579,1.278,3.885,3.885,0,0,0-1.636,3.178,2.9,2.9,0,0,0,.685,1.993,2.223,2.223,0,0,0,1.744.779,2.292,2.292,0,0,0,1.668-.592,1.925,1.925,0,0,0,.607-1.433,2.009,2.009,0,0,0-.42-1.339,1.908,1.908,0,0,0-.9-.64,3.826,3.826,0,0,1-.9-.389.825.825,0,0,1-.421-.763q0-.513.872-.919a4.547,4.547,0,0,1,1.932-.4,3.033,3.033,0,0,1,2.492,1.028,3.765,3.765,0,0,1,.841,2.461,5.284,5.284,0,0,1-.716,2.68,10.288,10.288,0,0,1-1.62,2.149" fill="#12263f"/>
      <path id="Trazado_634467" data-name="Trazado 634467" d="M87.868,175.452v2.056H85.562V164.455H82.447L73.6,177.508v.623h7.29v3.832H78.864v.623h8.724v-.623H85.562v-3.832h2.306v2.119h.716v-4.8Zm-6.978,2.056H74.41l6.48-9.626Z" fill="#12263f"/>
      <rect id="Rectángulo_396370" data-name="Rectángulo 396370" width="4.897" height="21.728" transform="translate(56.16 152.237)" fill="#12263f"/>
      <rect id="Rectángulo_396371" data-name="Rectángulo 396371" width="4.897" height="21.728" transform="translate(48.087 152.237)" fill="#12263f"/>
      <rect id="Rectángulo_396372" data-name="Rectángulo 396372" width="924.742" height="1.353" transform="translate(39.583 306.135)" fill="#12263f"/>
      <rect id="Rectángulo_396373" data-name="Rectángulo 396373" width="1.503" height="21.463" transform="translate(745.332 294.813)" fill="#12263f"/>
      <rect id="Rectángulo_396374" data-name="Rectángulo 396374" width="1.503" height="21.463" transform="translate(541.253 295.536)" fill="#12263f"/>
      <rect id="Rectángulo_396375" data-name="Rectángulo 396375" width="1.503" height="21.463" transform="translate(294.351 295.536)" fill="#12263f"/>
      <path id="Trazado_634468" data-name="Trazado 634468" d="M198.166,309.311c1.176,2.469,5.13,3.107,8.835,1.426,2.991-1.358,4.906-3.81,4.916-6.005V271.5a.644.644,0,0,0-1.287,0v30.511c-1.72-1.417-4.882-1.574-7.881-.212-3.705,1.683-5.757,5.045-4.584,7.514" fill="#12263f"/>
      <path id="Trazado_634469" data-name="Trazado 634469" d="M103.452,309.311c1.176,2.469,5.13,3.107,8.835,1.426,2.991-1.358,4.906-3.81,4.916-6.005V271.5a.644.644,0,0,0-1.287,0v30.511c-1.72-1.417-4.882-1.574-7.881-.212-3.705,1.683-5.757,5.045-4.584,7.514" fill="#12263f"/>
      <path id="Trazado_634470" data-name="Trazado 634470" d="M448.339,309.311c1.176,2.469,5.13,3.107,8.835,1.426,2.991-1.358,4.906-3.81,4.916-6.005V271.5a.644.644,0,0,0-1.287,0v30.511c-1.72-1.417-4.882-1.574-7.881-.212-3.705,1.683-5.757,5.045-4.584,7.514" fill="#12263f"/>
      <path id="Trazado_634471" data-name="Trazado 634471" d="M553.893,309.311c1.177,2.469,5.13,3.107,8.836,1.426,2.99-1.358,4.906-3.81,4.915-6.005l0-.011V271.5a.644.644,0,0,0-1.287,0v30.511c-1.721-1.417-4.882-1.574-7.882-.212-3.7,1.683-5.756,5.045-4.584,7.514" fill="#12263f"/>
      <path id="Trazado_634472" data-name="Trazado 634472" d="M650.946,309.311c1.176,2.469,5.13,3.107,8.835,1.426,2.991-1.358,4.906-3.81,4.916-6.005V271.5a.644.644,0,0,0-1.287,0v30.511c-1.72-1.417-4.882-1.574-7.881-.212-3.705,1.683-5.757,5.045-4.584,7.514" fill="#12263f"/>
      <path id="Trazado_634473" data-name="Trazado 634473" d="M759.6,309.311c1.176,2.469,5.13,3.107,8.835,1.426,2.991-1.358,4.906-3.81,4.916-6.005V271.5a.644.644,0,0,0-1.287,0v30.511c-1.72-1.417-4.882-1.574-7.881-.212-3.705,1.683-5.757,5.045-4.584,7.514" fill="#12263f"/>
      <path id="Trazado_634474" data-name="Trazado 634474" d="M387.049,271.686H323.4v30.627c-1.63-1.372-4.62-1.523-7.456-.2-3.508,1.627-5.45,4.887-4.339,7.276s4.855,3.01,8.36,1.381c2.829-1.316,4.641-3.689,4.65-5.817V276.075h61.228v26.238c-1.624-1.372-4.615-1.523-7.452-.2-3.508,1.627-5.451,4.887-4.341,7.276s4.856,3.011,8.361,1.381c2.831-1.315,4.641-3.689,4.65-5.817V304.9Z" fill="#12263f"/>
      <path id="Trazado_634475" data-name="Trazado 634475" d="M859.976,276.208s10.834,6.084,10.834,11.576-7.422,7.122-7.422,10.684,7.645,9.869,6.977,10.537c-.817.818-8.458-3.266-10.094-1.632-2.894,2.894,2.525,9.346,1.636,10.239s-6.533-7.274-6.533-11.131,1.93-4.154,4.6-3.263a40.93,40.93,0,0,1,6.678,3.413s-9.644-6.381-9.644-11.129,7.268-4.6,7.268-9.054c0-4.007-4.3-10.24-4.3-10.24" fill="#12263f"/>
      <path id="Trazado_634476" data-name="Trazado 634476" d="M80.454,296.012a53.5,53.5,0,0,0-4.486,4.766,8.475,8.475,0,0,0-1.745,4.455h.623a2.2,2.2,0,0,1,2.274-2.025,9.025,9.025,0,0,1,3.365,1.168,9.406,9.406,0,0,0,4.1,1.169,3.013,3.013,0,0,0,2.679-1.387,5.923,5.923,0,0,0,.919-3.349,8.081,8.081,0,0,0-.249-1.962h-.312a1.873,1.873,0,0,1-.592,1.246,2.141,2.141,0,0,1-1.059.53,8.923,8.923,0,0,1-1.433.093,9.827,9.827,0,0,1-2.384-.4,10.581,10.581,0,0,0-2.694-.4,2.919,2.919,0,0,0-1.932.623,4.587,4.587,0,0,1,1.885-1.479,25.6,25.6,0,0,1,2.711-1.122,23.822,23.822,0,0,0,2.71-1.137,5.561,5.561,0,0,0,2.18-1.932,5.462,5.462,0,0,0,.857-3.115,3.951,3.951,0,0,0-2.056-3.52,9.3,9.3,0,0,0-5-1.278,7.28,7.28,0,0,0-4.579,1.278A3.885,3.885,0,0,0,74.6,291.4a2.9,2.9,0,0,0,.685,1.993,2.223,2.223,0,0,0,1.744.779,2.292,2.292,0,0,0,1.668-.592,1.925,1.925,0,0,0,.607-1.433,2.009,2.009,0,0,0-.42-1.339,1.9,1.9,0,0,0-.9-.639,3.87,3.87,0,0,1-.9-.39.826.826,0,0,1-.421-.763q0-.513.872-.919a4.547,4.547,0,0,1,1.932-.4,3.033,3.033,0,0,1,2.492,1.028,3.765,3.765,0,0,1,.841,2.461,5.284,5.284,0,0,1-.716,2.68,10.288,10.288,0,0,1-1.62,2.149" fill="#12263f"/>
      <path id="Trazado_634477" data-name="Trazado 634477" d="M87.868,317.9v2.056H85.562V306.9H82.447L73.6,319.952v.623h7.29v3.832H78.864v.623h8.724v-.623H85.562v-3.832h2.306v2.119h.716v-4.8Zm-6.978,2.056H74.41l6.48-9.626Z" fill="#12263f"/>
      <rect id="Rectángulo_396376" data-name="Rectángulo 396376" width="4.897" height="21.728" transform="translate(56.16 294.681)" fill="#12263f"/>
      <rect id="Rectángulo_396377" data-name="Rectángulo 396377" width="4.897" height="21.728" transform="translate(48.087 294.681)" fill="#12263f"/>
    </g>
  </g>
  <path id="Trazado_634871" data-name="Trazado 634871" d="M3.779-4.509V0H1.143V-12.8H6.135a5.776,5.776,0,0,1,2.536.527,3.886,3.886,0,0,1,1.683,1.5,4.178,4.178,0,0,1,.589,2.21A3.674,3.674,0,0,1,9.655-5.594,5.363,5.363,0,0,1,6.091-4.509Zm0-2.136H6.135a2.316,2.316,0,0,0,1.6-.492,1.79,1.79,0,0,0,.549-1.406,2.111,2.111,0,0,0-.554-1.521,2.068,2.068,0,0,0-1.529-.6H3.779Zm14.15-.483a6.9,6.9,0,0,0-.914-.07,1.86,1.86,0,0,0-1.89.976V0h-2.54V-9.51h2.4l.07,1.134a2.354,2.354,0,0,1,2.118-1.31,2.662,2.662,0,0,1,.791.114Zm5.432,7.3a4.668,4.668,0,0,1-3.406-1.283,4.561,4.561,0,0,1-1.314-3.419v-.246A5.745,5.745,0,0,1,19.2-7.334a4.064,4.064,0,0,1,1.569-1.74,4.4,4.4,0,0,1,2.316-.611,3.947,3.947,0,0,1,3.072,1.23,5,5,0,0,1,1.121,3.489v1.037H21.217a2.36,2.36,0,0,0,.743,1.494,2.245,2.245,0,0,0,1.569.563,2.742,2.742,0,0,0,2.294-1.063l1.248,1.4A3.813,3.813,0,0,1,25.523-.277,5.075,5.075,0,0,1,23.361.176Zm-.29-7.813a1.587,1.587,0,0,0-1.226.512,2.651,2.651,0,0,0-.6,1.466h3.533v-.2a1.891,1.891,0,0,0-.457-1.311A1.638,1.638,0,0,0,23.071-7.638Zm5.273,2.813A5.573,5.573,0,0,1,29.386-8.35a3.375,3.375,0,0,1,2.808-1.336,2.96,2.96,0,0,1,2.435,1.072l.105-.9h2.3V-.316a4.064,4.064,0,0,1-.567,2.171,3.641,3.641,0,0,1-1.6,1.406,5.608,5.608,0,0,1-2.408.483,5.215,5.215,0,0,1-2.039-.417,3.619,3.619,0,0,1-1.5-1.077L30.05.7a2.975,2.975,0,0,0,2.3,1.063,2.178,2.178,0,0,0,1.573-.541,2.027,2.027,0,0,0,.563-1.534v-.51a2.938,2.938,0,0,1-2.312.993A3.366,3.366,0,0,1,29.4-1.165,5.572,5.572,0,0,1,28.345-4.72Zm2.54.189A3.47,3.47,0,0,0,31.4-2.607a1.65,1.65,0,0,0,1.424.735,1.764,1.764,0,0,0,1.661-.871V-6.749a1.76,1.76,0,0,0-1.644-.871,1.66,1.66,0,0,0-1.437.748A3.911,3.911,0,0,0,30.885-4.636Zm13.8,3.669a3.185,3.185,0,0,1-2.6,1.143A3,3,0,0,1,39.749-.7a3.752,3.752,0,0,1-.822-2.575V-9.51h2.54v6.151q0,1.487,1.354,1.487a1.834,1.834,0,0,0,1.775-.9V-9.51h2.549V0H44.754ZM51.4-9.51l.079,1.1a3.32,3.32,0,0,1,2.733-1.274,2.759,2.759,0,0,1,2.25.888,4.142,4.142,0,0,1,.756,2.654V0h-2.54V-6.082a1.648,1.648,0,0,0-.352-1.173,1.574,1.574,0,0,0-1.169-.365,1.747,1.747,0,0,0-1.608.914V0h-2.54V-9.51Zm10.784-2.338V-9.51h1.626v1.863H62.183V-2.9a1.133,1.133,0,0,0,.2.756,1.015,1.015,0,0,0,.773.229,4.051,4.051,0,0,0,.747-.062V-.053a5.229,5.229,0,0,1-1.538.229,2.425,2.425,0,0,1-2.725-2.7V-7.646H58.254V-9.51h1.389v-2.338ZM70.734,0a2.821,2.821,0,0,1-.255-.853A3.073,3.073,0,0,1,68.08.176a3.376,3.376,0,0,1-2.316-.809,2.6,2.6,0,0,1-.918-2.039,2.687,2.687,0,0,1,1.121-2.32,5.529,5.529,0,0,1,3.239-.817h1.169v-.545a1.567,1.567,0,0,0-.338-1.055,1.331,1.331,0,0,0-1.068-.4,1.513,1.513,0,0,0-1.006.308,1.045,1.045,0,0,0-.365.844h-2.54a2.551,2.551,0,0,1,.51-1.529,3.37,3.37,0,0,1,1.441-1.1,5.253,5.253,0,0,1,2.092-.4A4.15,4.15,0,0,1,71.89-8.8a3.09,3.09,0,0,1,1.033,2.483V-2.2A4.546,4.546,0,0,0,73.3-.149V0Zm-2.1-1.767a2.188,2.188,0,0,0,1.037-.25,1.645,1.645,0,0,0,.7-.672V-4.324h-.949q-1.907,0-2.03,1.318l-.009.149a1.017,1.017,0,0,0,.334.782A1.3,1.3,0,0,0,68.634-1.767Z" transform="translate(258.883 74.997)" fill="#12263f"/>
  <path id="Trazado_634872" data-name="Trazado 634872" d="M3.779-4.509V0H1.143V-12.8H6.135a5.776,5.776,0,0,1,2.536.527,3.886,3.886,0,0,1,1.683,1.5,4.178,4.178,0,0,1,.589,2.21A3.674,3.674,0,0,1,9.655-5.594,5.363,5.363,0,0,1,6.091-4.509Zm0-2.136H6.135a2.316,2.316,0,0,0,1.6-.492,1.79,1.79,0,0,0,.549-1.406,2.111,2.111,0,0,0-.554-1.521,2.068,2.068,0,0,0-1.529-.6H3.779Zm14.15-.483a6.9,6.9,0,0,0-.914-.07,1.86,1.86,0,0,0-1.89.976V0h-2.54V-9.51h2.4l.07,1.134a2.354,2.354,0,0,1,2.118-1.31,2.662,2.662,0,0,1,.791.114Zm5.432,7.3a4.668,4.668,0,0,1-3.406-1.283,4.561,4.561,0,0,1-1.314-3.419v-.246A5.745,5.745,0,0,1,19.2-7.334a4.064,4.064,0,0,1,1.569-1.74,4.4,4.4,0,0,1,2.316-.611,3.947,3.947,0,0,1,3.072,1.23,5,5,0,0,1,1.121,3.489v1.037H21.217a2.36,2.36,0,0,0,.743,1.494,2.245,2.245,0,0,0,1.569.563,2.742,2.742,0,0,0,2.294-1.063l1.248,1.4A3.813,3.813,0,0,1,25.523-.277,5.075,5.075,0,0,1,23.361.176Zm-.29-7.813a1.587,1.587,0,0,0-1.226.512,2.651,2.651,0,0,0-.6,1.466h3.533v-.2a1.891,1.891,0,0,0-.457-1.311A1.638,1.638,0,0,0,23.071-7.638Zm5.273,2.813A5.573,5.573,0,0,1,29.386-8.35a3.375,3.375,0,0,1,2.808-1.336,2.96,2.96,0,0,1,2.435,1.072l.105-.9h2.3V-.316a4.064,4.064,0,0,1-.567,2.171,3.641,3.641,0,0,1-1.6,1.406,5.608,5.608,0,0,1-2.408.483,5.215,5.215,0,0,1-2.039-.417,3.619,3.619,0,0,1-1.5-1.077L30.05.7a2.975,2.975,0,0,0,2.3,1.063,2.178,2.178,0,0,0,1.573-.541,2.027,2.027,0,0,0,.563-1.534v-.51a2.938,2.938,0,0,1-2.312.993A3.366,3.366,0,0,1,29.4-1.165,5.572,5.572,0,0,1,28.345-4.72Zm2.54.189A3.47,3.47,0,0,0,31.4-2.607a1.65,1.65,0,0,0,1.424.735,1.764,1.764,0,0,0,1.661-.871V-6.749a1.76,1.76,0,0,0-1.644-.871,1.66,1.66,0,0,0-1.437.748A3.911,3.911,0,0,0,30.885-4.636Zm13.8,3.669a3.185,3.185,0,0,1-2.6,1.143A3,3,0,0,1,39.749-.7a3.752,3.752,0,0,1-.822-2.575V-9.51h2.54v6.151q0,1.487,1.354,1.487a1.834,1.834,0,0,0,1.775-.9V-9.51h2.549V0H44.754ZM51.4-9.51l.079,1.1a3.32,3.32,0,0,1,2.733-1.274,2.759,2.759,0,0,1,2.25.888,4.142,4.142,0,0,1,.756,2.654V0h-2.54V-6.082a1.648,1.648,0,0,0-.352-1.173,1.574,1.574,0,0,0-1.169-.365,1.747,1.747,0,0,0-1.608.914V0h-2.54V-9.51Zm10.784-2.338V-9.51h1.626v1.863H62.183V-2.9a1.133,1.133,0,0,0,.2.756,1.015,1.015,0,0,0,.773.229,4.051,4.051,0,0,0,.747-.062V-.053a5.229,5.229,0,0,1-1.538.229,2.425,2.425,0,0,1-2.725-2.7V-7.646H58.254V-9.51h1.389v-2.338ZM70.734,0a2.821,2.821,0,0,1-.255-.853A3.073,3.073,0,0,1,68.08.176a3.376,3.376,0,0,1-2.316-.809,2.6,2.6,0,0,1-.918-2.039,2.687,2.687,0,0,1,1.121-2.32,5.529,5.529,0,0,1,3.239-.817h1.169v-.545a1.567,1.567,0,0,0-.338-1.055,1.331,1.331,0,0,0-1.068-.4,1.513,1.513,0,0,0-1.006.308,1.045,1.045,0,0,0-.365.844h-2.54a2.551,2.551,0,0,1,.51-1.529,3.37,3.37,0,0,1,1.441-1.1,5.253,5.253,0,0,1,2.092-.4A4.15,4.15,0,0,1,71.89-8.8a3.09,3.09,0,0,1,1.033,2.483V-2.2A4.546,4.546,0,0,0,73.3-.149V0Zm-2.1-1.767a2.188,2.188,0,0,0,1.037-.25,1.645,1.645,0,0,0,.7-.672V-4.324h-.949q-1.907,0-2.03,1.318l-.009.149a1.017,1.017,0,0,0,.334.782A1.3,1.3,0,0,0,68.634-1.767Z" transform="translate(258.883 212.841)" fill="#12263f"/>
  <path id="Trazado_634873" data-name="Trazado 634873" d="M5.88-4.685h-2.1V0H1.143V-12.8H5.9a5.375,5.375,0,0,1,3.5,1.011,3.488,3.488,0,0,1,1.23,2.856,3.937,3.937,0,0,1-.567,2.184A3.866,3.866,0,0,1,8.341-5.353L11.109-.123V0H8.279ZM3.779-6.82H5.906a2.178,2.178,0,0,0,1.538-.505,1.806,1.806,0,0,0,.545-1.393,1.933,1.933,0,0,0-.514-1.424A2.137,2.137,0,0,0,5.9-10.661H3.779Zm13.061,7a4.668,4.668,0,0,1-3.406-1.283A4.561,4.561,0,0,1,12.12-4.526v-.246a5.745,5.745,0,0,1,.554-2.562,4.064,4.064,0,0,1,1.569-1.74,4.4,4.4,0,0,1,2.316-.611,3.947,3.947,0,0,1,3.072,1.23,5,5,0,0,1,1.121,3.489v1.037H14.7a2.36,2.36,0,0,0,.743,1.494,2.245,2.245,0,0,0,1.569.563A2.742,2.742,0,0,0,19.3-2.936l1.248,1.4A3.813,3.813,0,0,1,19-.277,5.075,5.075,0,0,1,16.84.176Zm-.29-7.813a1.587,1.587,0,0,0-1.226.512,2.651,2.651,0,0,0-.6,1.466h3.533v-.2A1.891,1.891,0,0,0,17.8-7.174,1.638,1.638,0,0,0,16.55-7.638Zm10.793,5.01a.818.818,0,0,0-.461-.734A5.241,5.241,0,0,0,25.4-3.841q-3.393-.712-3.393-2.883a2.613,2.613,0,0,1,1.05-2.114A4.237,4.237,0,0,1,25.8-9.686a4.56,4.56,0,0,1,2.9.853,2.687,2.687,0,0,1,1.085,2.215h-2.54a1.229,1.229,0,0,0-.352-.9,1.488,1.488,0,0,0-1.1-.356,1.52,1.52,0,0,0-.993.29.916.916,0,0,0-.352.738.783.783,0,0,0,.4.681,4.114,4.114,0,0,0,1.349.448,11.019,11.019,0,0,1,1.6.426,2.628,2.628,0,0,1,2.013,2.558A2.481,2.481,0,0,1,28.7-.628a4.815,4.815,0,0,1-2.883.8A5.029,5.029,0,0,1,23.691-.25a3.561,3.561,0,0,1-1.455-1.169,2.716,2.716,0,0,1-.527-1.6h2.408a1.326,1.326,0,0,0,.5,1.037,1.987,1.987,0,0,0,1.248.36,1.839,1.839,0,0,0,1.1-.277A.861.861,0,0,0,27.343-2.628ZM40.008-4.667a5.7,5.7,0,0,1-1,3.52A3.2,3.2,0,0,1,36.316.176a2.963,2.963,0,0,1-2.329-1V3.656h-2.54V-9.51H33.8l.088.932A2.985,2.985,0,0,1,36.3-9.686a3.22,3.22,0,0,1,2.733,1.3A5.858,5.858,0,0,1,40.008-4.8Zm-2.54-.185A3.743,3.743,0,0,0,37-6.9a1.532,1.532,0,0,0-1.367-.721,1.663,1.663,0,0,0-1.644.914v3.894a1.692,1.692,0,0,0,1.661.94Q37.468-1.872,37.468-4.852ZM47.276-.967a3.185,3.185,0,0,1-2.6,1.143A3,3,0,0,1,42.341-.7a3.752,3.752,0,0,1-.822-2.575V-9.51h2.54v6.151q0,1.487,1.354,1.487a1.834,1.834,0,0,0,1.775-.9V-9.51h2.549V0H47.347ZM56.03.176a4.668,4.668,0,0,1-3.406-1.283,4.561,4.561,0,0,1-1.314-3.419v-.246a5.745,5.745,0,0,1,.554-2.562,4.064,4.064,0,0,1,1.569-1.74,4.4,4.4,0,0,1,2.316-.611,3.947,3.947,0,0,1,3.072,1.23,5,5,0,0,1,1.121,3.489v1.037H53.886a2.36,2.36,0,0,0,.743,1.494,2.245,2.245,0,0,0,1.569.563,2.742,2.742,0,0,0,2.294-1.063l1.248,1.4A3.813,3.813,0,0,1,58.192-.277,5.075,5.075,0,0,1,56.03.176Zm-.29-7.813a1.587,1.587,0,0,0-1.226.512,2.651,2.651,0,0,0-.6,1.466h3.533v-.2a1.891,1.891,0,0,0-.457-1.311A1.638,1.638,0,0,0,55.74-7.638Zm10.793,5.01a.818.818,0,0,0-.461-.734,5.241,5.241,0,0,0-1.481-.479Q61.2-4.553,61.2-6.724a2.613,2.613,0,0,1,1.05-2.114A4.237,4.237,0,0,1,65-9.686a4.56,4.56,0,0,1,2.9.853,2.687,2.687,0,0,1,1.085,2.215h-2.54a1.229,1.229,0,0,0-.352-.9,1.488,1.488,0,0,0-1.1-.356,1.52,1.52,0,0,0-.993.29.916.916,0,0,0-.352.738.783.783,0,0,0,.4.681,4.114,4.114,0,0,0,1.349.448,11.019,11.019,0,0,1,1.6.426A2.628,2.628,0,0,1,69-2.733a2.481,2.481,0,0,1-1.116,2.1A4.815,4.815,0,0,1,65,.176,5.029,5.029,0,0,1,62.881-.25a3.561,3.561,0,0,1-1.455-1.169,2.716,2.716,0,0,1-.527-1.6h2.408a1.326,1.326,0,0,0,.5,1.037,1.987,1.987,0,0,0,1.248.36,1.839,1.839,0,0,0,1.1-.277A.861.861,0,0,0,66.533-2.628Zm7.146-9.22V-9.51H75.3v1.863H73.679V-2.9a1.133,1.133,0,0,0,.2.756,1.015,1.015,0,0,0,.773.229,4.051,4.051,0,0,0,.747-.062V-.053a5.229,5.229,0,0,1-1.538.229,2.425,2.425,0,0,1-2.725-2.7V-7.646H69.75V-9.51h1.389v-2.338ZM82.23,0a2.821,2.821,0,0,1-.255-.853,3.073,3.073,0,0,1-2.4,1.028A3.376,3.376,0,0,1,77.26-.633a2.6,2.6,0,0,1-.918-2.039,2.687,2.687,0,0,1,1.121-2.32A5.529,5.529,0,0,1,80.7-5.81H81.87v-.545a1.567,1.567,0,0,0-.338-1.055,1.331,1.331,0,0,0-1.068-.4,1.513,1.513,0,0,0-1.006.308,1.045,1.045,0,0,0-.365.844h-2.54a2.551,2.551,0,0,1,.51-1.529,3.37,3.37,0,0,1,1.441-1.1,5.253,5.253,0,0,1,2.092-.4,4.15,4.15,0,0,1,2.791.883,3.09,3.09,0,0,1,1.033,2.483V-2.2A4.546,4.546,0,0,0,84.8-.149V0Zm-2.1-1.767a2.188,2.188,0,0,0,1.037-.25,1.645,1.645,0,0,0,.7-.672V-4.324h-.949q-1.907,0-2.03,1.318l-.009.149a1.017,1.017,0,0,0,.334.782A1.3,1.3,0,0,0,80.13-1.767Z" transform="translate(688.255 74.997)" fill="#12263f"/>
  <path id="Trazado_634874" data-name="Trazado 634874" d="M5.88-4.685h-2.1V0H1.143V-12.8H5.9a5.375,5.375,0,0,1,3.5,1.011,3.488,3.488,0,0,1,1.23,2.856,3.937,3.937,0,0,1-.567,2.184A3.866,3.866,0,0,1,8.341-5.353L11.109-.123V0H8.279ZM3.779-6.82H5.906a2.178,2.178,0,0,0,1.538-.505,1.806,1.806,0,0,0,.545-1.393,1.933,1.933,0,0,0-.514-1.424A2.137,2.137,0,0,0,5.9-10.661H3.779Zm13.061,7a4.668,4.668,0,0,1-3.406-1.283A4.561,4.561,0,0,1,12.12-4.526v-.246a5.745,5.745,0,0,1,.554-2.562,4.064,4.064,0,0,1,1.569-1.74,4.4,4.4,0,0,1,2.316-.611,3.947,3.947,0,0,1,3.072,1.23,5,5,0,0,1,1.121,3.489v1.037H14.7a2.36,2.36,0,0,0,.743,1.494,2.245,2.245,0,0,0,1.569.563A2.742,2.742,0,0,0,19.3-2.936l1.248,1.4A3.813,3.813,0,0,1,19-.277,5.075,5.075,0,0,1,16.84.176Zm-.29-7.813a1.587,1.587,0,0,0-1.226.512,2.651,2.651,0,0,0-.6,1.466h3.533v-.2A1.891,1.891,0,0,0,17.8-7.174,1.638,1.638,0,0,0,16.55-7.638Zm10.793,5.01a.818.818,0,0,0-.461-.734A5.241,5.241,0,0,0,25.4-3.841q-3.393-.712-3.393-2.883a2.613,2.613,0,0,1,1.05-2.114A4.237,4.237,0,0,1,25.8-9.686a4.56,4.56,0,0,1,2.9.853,2.687,2.687,0,0,1,1.085,2.215h-2.54a1.229,1.229,0,0,0-.352-.9,1.488,1.488,0,0,0-1.1-.356,1.52,1.52,0,0,0-.993.29.916.916,0,0,0-.352.738.783.783,0,0,0,.4.681,4.114,4.114,0,0,0,1.349.448,11.019,11.019,0,0,1,1.6.426,2.628,2.628,0,0,1,2.013,2.558A2.481,2.481,0,0,1,28.7-.628a4.815,4.815,0,0,1-2.883.8A5.029,5.029,0,0,1,23.691-.25a3.561,3.561,0,0,1-1.455-1.169,2.716,2.716,0,0,1-.527-1.6h2.408a1.326,1.326,0,0,0,.5,1.037,1.987,1.987,0,0,0,1.248.36,1.839,1.839,0,0,0,1.1-.277A.861.861,0,0,0,27.343-2.628ZM40.008-4.667a5.7,5.7,0,0,1-1,3.52A3.2,3.2,0,0,1,36.316.176a2.963,2.963,0,0,1-2.329-1V3.656h-2.54V-9.51H33.8l.088.932A2.985,2.985,0,0,1,36.3-9.686a3.22,3.22,0,0,1,2.733,1.3A5.858,5.858,0,0,1,40.008-4.8Zm-2.54-.185A3.743,3.743,0,0,0,37-6.9a1.532,1.532,0,0,0-1.367-.721,1.663,1.663,0,0,0-1.644.914v3.894a1.692,1.692,0,0,0,1.661.94Q37.468-1.872,37.468-4.852ZM47.276-.967a3.185,3.185,0,0,1-2.6,1.143A3,3,0,0,1,42.341-.7a3.752,3.752,0,0,1-.822-2.575V-9.51h2.54v6.151q0,1.487,1.354,1.487a1.834,1.834,0,0,0,1.775-.9V-9.51h2.549V0H47.347ZM56.03.176a4.668,4.668,0,0,1-3.406-1.283,4.561,4.561,0,0,1-1.314-3.419v-.246a5.745,5.745,0,0,1,.554-2.562,4.064,4.064,0,0,1,1.569-1.74,4.4,4.4,0,0,1,2.316-.611,3.947,3.947,0,0,1,3.072,1.23,5,5,0,0,1,1.121,3.489v1.037H53.886a2.36,2.36,0,0,0,.743,1.494,2.245,2.245,0,0,0,1.569.563,2.742,2.742,0,0,0,2.294-1.063l1.248,1.4A3.813,3.813,0,0,1,58.192-.277,5.075,5.075,0,0,1,56.03.176Zm-.29-7.813a1.587,1.587,0,0,0-1.226.512,2.651,2.651,0,0,0-.6,1.466h3.533v-.2a1.891,1.891,0,0,0-.457-1.311A1.638,1.638,0,0,0,55.74-7.638Zm10.793,5.01a.818.818,0,0,0-.461-.734,5.241,5.241,0,0,0-1.481-.479Q61.2-4.553,61.2-6.724a2.613,2.613,0,0,1,1.05-2.114A4.237,4.237,0,0,1,65-9.686a4.56,4.56,0,0,1,2.9.853,2.687,2.687,0,0,1,1.085,2.215h-2.54a1.229,1.229,0,0,0-.352-.9,1.488,1.488,0,0,0-1.1-.356,1.52,1.52,0,0,0-.993.29.916.916,0,0,0-.352.738.783.783,0,0,0,.4.681,4.114,4.114,0,0,0,1.349.448,11.019,11.019,0,0,1,1.6.426A2.628,2.628,0,0,1,69-2.733a2.481,2.481,0,0,1-1.116,2.1A4.815,4.815,0,0,1,65,.176,5.029,5.029,0,0,1,62.881-.25a3.561,3.561,0,0,1-1.455-1.169,2.716,2.716,0,0,1-.527-1.6h2.408a1.326,1.326,0,0,0,.5,1.037,1.987,1.987,0,0,0,1.248.36,1.839,1.839,0,0,0,1.1-.277A.861.861,0,0,0,66.533-2.628Zm7.146-9.22V-9.51H75.3v1.863H73.679V-2.9a1.133,1.133,0,0,0,.2.756,1.015,1.015,0,0,0,.773.229,4.051,4.051,0,0,0,.747-.062V-.053a5.229,5.229,0,0,1-1.538.229,2.425,2.425,0,0,1-2.725-2.7V-7.646H69.75V-9.51h1.389v-2.338ZM82.23,0a2.821,2.821,0,0,1-.255-.853,3.073,3.073,0,0,1-2.4,1.028A3.376,3.376,0,0,1,77.26-.633a2.6,2.6,0,0,1-.918-2.039,2.687,2.687,0,0,1,1.121-2.32A5.529,5.529,0,0,1,80.7-5.81H81.87v-.545a1.567,1.567,0,0,0-.338-1.055,1.331,1.331,0,0,0-1.068-.4,1.513,1.513,0,0,0-1.006.308,1.045,1.045,0,0,0-.365.844h-2.54a2.551,2.551,0,0,1,.51-1.529,3.37,3.37,0,0,1,1.441-1.1,5.253,5.253,0,0,1,2.092-.4,4.15,4.15,0,0,1,2.791.883,3.09,3.09,0,0,1,1.033,2.483V-2.2A4.546,4.546,0,0,0,84.8-.149V0Zm-2.1-1.767a2.188,2.188,0,0,0,1.037-.25,1.645,1.645,0,0,0,.7-.672V-4.324h-.949q-1.907,0-2.03,1.318l-.009.149a1.017,1.017,0,0,0,.334.782A1.3,1.3,0,0,0,80.13-1.767Z" transform="translate(688.255 212.841)" fill="#12263f"/>
  <path id="Trazado_634875" data-name="Trazado 634875" d="M3.779-4.509V0H1.143V-12.8H6.135a5.776,5.776,0,0,1,2.536.527,3.886,3.886,0,0,1,1.683,1.5,4.178,4.178,0,0,1,.589,2.21A3.674,3.674,0,0,1,9.655-5.594,5.363,5.363,0,0,1,6.091-4.509Zm0-2.136H6.135a2.316,2.316,0,0,0,1.6-.492,1.79,1.79,0,0,0,.549-1.406,2.111,2.111,0,0,0-.554-1.521,2.068,2.068,0,0,0-1.529-.6H3.779Zm14.15-.483a6.9,6.9,0,0,0-.914-.07,1.86,1.86,0,0,0-1.89.976V0h-2.54V-9.51h2.4l.07,1.134a2.354,2.354,0,0,1,2.118-1.31,2.662,2.662,0,0,1,.791.114Zm5.432,7.3a4.668,4.668,0,0,1-3.406-1.283,4.561,4.561,0,0,1-1.314-3.419v-.246A5.745,5.745,0,0,1,19.2-7.334a4.064,4.064,0,0,1,1.569-1.74,4.4,4.4,0,0,1,2.316-.611,3.947,3.947,0,0,1,3.072,1.23,5,5,0,0,1,1.121,3.489v1.037H21.217a2.36,2.36,0,0,0,.743,1.494,2.245,2.245,0,0,0,1.569.563,2.742,2.742,0,0,0,2.294-1.063l1.248,1.4A3.813,3.813,0,0,1,25.523-.277,5.075,5.075,0,0,1,23.361.176Zm-.29-7.813a1.587,1.587,0,0,0-1.226.512,2.651,2.651,0,0,0-.6,1.466h3.533v-.2a1.891,1.891,0,0,0-.457-1.311A1.638,1.638,0,0,0,23.071-7.638Zm5.273,2.813A5.573,5.573,0,0,1,29.386-8.35a3.375,3.375,0,0,1,2.808-1.336,2.96,2.96,0,0,1,2.435,1.072l.105-.9h2.3V-.316a4.064,4.064,0,0,1-.567,2.171,3.641,3.641,0,0,1-1.6,1.406,5.608,5.608,0,0,1-2.408.483,5.215,5.215,0,0,1-2.039-.417,3.619,3.619,0,0,1-1.5-1.077L30.05.7a2.975,2.975,0,0,0,2.3,1.063,2.178,2.178,0,0,0,1.573-.541,2.027,2.027,0,0,0,.563-1.534v-.51a2.938,2.938,0,0,1-2.312.993A3.366,3.366,0,0,1,29.4-1.165,5.572,5.572,0,0,1,28.345-4.72Zm2.54.189A3.47,3.47,0,0,0,31.4-2.607a1.65,1.65,0,0,0,1.424.735,1.764,1.764,0,0,0,1.661-.871V-6.749a1.76,1.76,0,0,0-1.644-.871,1.66,1.66,0,0,0-1.437.748A3.911,3.911,0,0,0,30.885-4.636Zm13.8,3.669a3.185,3.185,0,0,1-2.6,1.143A3,3,0,0,1,39.749-.7a3.752,3.752,0,0,1-.822-2.575V-9.51h2.54v6.151q0,1.487,1.354,1.487a1.834,1.834,0,0,0,1.775-.9V-9.51h2.549V0H44.754ZM51.4-9.51l.079,1.1a3.32,3.32,0,0,1,2.733-1.274,2.759,2.759,0,0,1,2.25.888,4.142,4.142,0,0,1,.756,2.654V0h-2.54V-6.082a1.648,1.648,0,0,0-.352-1.173,1.574,1.574,0,0,0-1.169-.365,1.747,1.747,0,0,0-1.608.914V0h-2.54V-9.51Zm10.784-2.338V-9.51h1.626v1.863H62.183V-2.9a1.133,1.133,0,0,0,.2.756,1.015,1.015,0,0,0,.773.229,4.051,4.051,0,0,0,.747-.062V-.053a5.229,5.229,0,0,1-1.538.229,2.425,2.425,0,0,1-2.725-2.7V-7.646H58.254V-9.51h1.389v-2.338ZM70.734,0a2.821,2.821,0,0,1-.255-.853A3.073,3.073,0,0,1,68.08.176a3.376,3.376,0,0,1-2.316-.809,2.6,2.6,0,0,1-.918-2.039,2.687,2.687,0,0,1,1.121-2.32,5.529,5.529,0,0,1,3.239-.817h1.169v-.545a1.567,1.567,0,0,0-.338-1.055,1.331,1.331,0,0,0-1.068-.4,1.513,1.513,0,0,0-1.006.308,1.045,1.045,0,0,0-.365.844h-2.54a2.551,2.551,0,0,1,.51-1.529,3.37,3.37,0,0,1,1.441-1.1,5.253,5.253,0,0,1,2.092-.4A4.15,4.15,0,0,1,71.89-8.8a3.09,3.09,0,0,1,1.033,2.483V-2.2A4.546,4.546,0,0,0,73.3-.149V0Zm-2.1-1.767a2.188,2.188,0,0,0,1.037-.25,1.645,1.645,0,0,0,.7-.672V-4.324h-.949q-1.907,0-2.03,1.318l-.009.149a1.017,1.017,0,0,0,.334.782A1.3,1.3,0,0,0,68.634-1.767ZM84.3-4.456H79.348V-6.5H84.3ZM96.161-7.128a6.9,6.9,0,0,0-.914-.07,1.86,1.86,0,0,0-1.89.976V0h-2.54V-9.51h2.4l.07,1.134a2.354,2.354,0,0,1,2.118-1.31,2.662,2.662,0,0,1,.791.114Zm5.432,7.3a4.668,4.668,0,0,1-3.406-1.283,4.561,4.561,0,0,1-1.314-3.419v-.246a5.745,5.745,0,0,1,.554-2.562A4.064,4.064,0,0,1,99-9.075a4.4,4.4,0,0,1,2.316-.611,3.947,3.947,0,0,1,3.072,1.23A5,5,0,0,1,105.5-4.966v1.037H99.448a2.36,2.36,0,0,0,.743,1.494,2.245,2.245,0,0,0,1.569.563,2.742,2.742,0,0,0,2.294-1.063l1.248,1.4a3.813,3.813,0,0,1-1.547,1.261A5.075,5.075,0,0,1,101.593.176Zm-.29-7.813a1.587,1.587,0,0,0-1.226.512,2.651,2.651,0,0,0-.6,1.466h3.533v-.2a1.891,1.891,0,0,0-.457-1.311A1.638,1.638,0,0,0,101.3-7.638ZM112.1-2.628a.818.818,0,0,0-.461-.734,5.241,5.241,0,0,0-1.481-.479q-3.393-.712-3.393-2.883a2.613,2.613,0,0,1,1.05-2.114,4.237,4.237,0,0,1,2.747-.848,4.56,4.56,0,0,1,2.9.853,2.687,2.687,0,0,1,1.085,2.215H112a1.229,1.229,0,0,0-.352-.9,1.488,1.488,0,0,0-1.1-.356,1.52,1.52,0,0,0-.993.29.916.916,0,0,0-.352.738.783.783,0,0,0,.4.681,4.114,4.114,0,0,0,1.349.448,11.019,11.019,0,0,1,1.6.426,2.628,2.628,0,0,1,2.013,2.558,2.481,2.481,0,0,1-1.116,2.1,4.815,4.815,0,0,1-2.883.8,5.029,5.029,0,0,1-2.123-.426,3.561,3.561,0,0,1-1.455-1.169,2.716,2.716,0,0,1-.527-1.6h2.408a1.326,1.326,0,0,0,.5,1.037,1.987,1.987,0,0,0,1.248.36,1.839,1.839,0,0,0,1.1-.277A.861.861,0,0,0,112.1-2.628Zm12.665-2.039a5.7,5.7,0,0,1-1,3.52A3.2,3.2,0,0,1,121.069.176a2.963,2.963,0,0,1-2.329-1V3.656H116.2V-9.51h2.355l.088.932a2.985,2.985,0,0,1,2.408-1.107,3.22,3.22,0,0,1,2.733,1.3,5.858,5.858,0,0,1,.976,3.586Zm-2.54-.185a3.743,3.743,0,0,0-.47-2.048,1.532,1.532,0,0,0-1.367-.721,1.663,1.663,0,0,0-1.644.914v3.894a1.692,1.692,0,0,0,1.661.94Q122.221-1.872,122.221-4.852Zm9.809,3.885a3.185,3.185,0,0,1-2.6,1.143A3,3,0,0,1,127.094-.7a3.752,3.752,0,0,1-.822-2.575V-9.51h2.54v6.151q0,1.487,1.354,1.487a1.834,1.834,0,0,0,1.775-.9V-9.51h2.549V0H132.1ZM140.783.176a4.668,4.668,0,0,1-3.406-1.283,4.561,4.561,0,0,1-1.314-3.419v-.246a5.745,5.745,0,0,1,.554-2.562,4.064,4.064,0,0,1,1.569-1.74,4.4,4.4,0,0,1,2.316-.611,3.947,3.947,0,0,1,3.072,1.23,5,5,0,0,1,1.121,3.489v1.037h-6.056a2.36,2.36,0,0,0,.743,1.494,2.245,2.245,0,0,0,1.569.563,2.742,2.742,0,0,0,2.294-1.063l1.248,1.4a3.813,3.813,0,0,1-1.547,1.261A5.075,5.075,0,0,1,140.783.176Zm-.29-7.813a1.587,1.587,0,0,0-1.226.512,2.651,2.651,0,0,0-.6,1.466H142.2v-.2a1.891,1.891,0,0,0-.457-1.311A1.638,1.638,0,0,0,140.493-7.638Zm10.793,5.01a.818.818,0,0,0-.461-.734,5.241,5.241,0,0,0-1.481-.479q-3.393-.712-3.393-2.883A2.613,2.613,0,0,1,147-8.837a4.237,4.237,0,0,1,2.747-.848,4.56,4.56,0,0,1,2.9.853,2.687,2.687,0,0,1,1.085,2.215h-2.54a1.229,1.229,0,0,0-.352-.9,1.488,1.488,0,0,0-1.1-.356,1.52,1.52,0,0,0-.993.29.916.916,0,0,0-.352.738.783.783,0,0,0,.4.681,4.114,4.114,0,0,0,1.349.448,11.019,11.019,0,0,1,1.6.426,2.628,2.628,0,0,1,2.013,2.558,2.481,2.481,0,0,1-1.116,2.1,4.815,4.815,0,0,1-2.883.8,5.029,5.029,0,0,1-2.123-.426,3.561,3.561,0,0,1-1.455-1.169,2.716,2.716,0,0,1-.527-1.6h2.408a1.326,1.326,0,0,0,.5,1.037,1.987,1.987,0,0,0,1.248.36,1.839,1.839,0,0,0,1.1-.277A.861.861,0,0,0,151.286-2.628Zm7.146-9.22V-9.51h1.626v1.863h-1.626V-2.9a1.133,1.133,0,0,0,.2.756,1.015,1.015,0,0,0,.773.229,4.051,4.051,0,0,0,.747-.062V-.053a5.229,5.229,0,0,1-1.538.229,2.425,2.425,0,0,1-2.725-2.7V-7.646H154.5V-9.51h1.389v-2.338ZM166.983,0a2.821,2.821,0,0,1-.255-.853,3.073,3.073,0,0,1-2.4,1.028,3.376,3.376,0,0,1-2.316-.809,2.6,2.6,0,0,1-.918-2.039,2.687,2.687,0,0,1,1.121-2.32,5.529,5.529,0,0,1,3.239-.817h1.169v-.545a1.567,1.567,0,0,0-.338-1.055,1.331,1.331,0,0,0-1.068-.4,1.513,1.513,0,0,0-1.006.308,1.045,1.045,0,0,0-.365.844h-2.54a2.551,2.551,0,0,1,.51-1.529,3.37,3.37,0,0,1,1.441-1.1,5.253,5.253,0,0,1,2.092-.4,4.15,4.15,0,0,1,2.791.883,3.09,3.09,0,0,1,1.033,2.483V-2.2a4.546,4.546,0,0,0,.378,2.048V0Zm-2.1-1.767a2.188,2.188,0,0,0,1.037-.25,1.645,1.645,0,0,0,.7-.672V-4.324h-.949q-1.907,0-2.03,1.318l-.009.149a1.017,1.017,0,0,0,.334.782A1.3,1.3,0,0,0,164.883-1.767Z" transform="translate(391.669 42.489)" fill="#12263f"/>
</svg>
