<svg id="Grupo_1101616" data-name="Grupo 1101616" xmlns="http://www.w3.org/2000/svg" xmlns:xlink="http://www.w3.org/1999/xlink" width="820" height="371" viewBox="0 0 820 371">
  <defs>
    <clipPath id="clip-path">
      <path id="Trazado_634772" data-name="Trazado 634772" d="M0,0H820V371H0Z" fill="none"/>
    </clipPath>
    <clipPath id="clip-path-2">
      <rect id="Rectángulo_396137" data-name="Rectángulo 396137" width="820" height="371" fill="none"/>
    </clipPath>
  </defs>
  <g id="Enmascarar_grupo_1101648" data-name="Enmascarar grupo 1101648" clip-path="url(#clip-path)">
    <path id="Trazado_634753" data-name="Trazado 634753" d="M0,0H820V371H0Z" fill="#624b7e"/>
    <g id="Grupo_1101416" data-name="Grupo 1101416">
      <g id="Grupo_1101415" data-name="Grupo 1101415" clip-path="url(#clip-path-2)">
        <g id="Grupo_1101414" data-name="Grupo 1101414" opacity="0.09">
          <g id="Grupo_1101413" data-name="Grupo 1101413">
            <g id="Grupo_1101412" data-name="Grupo 1101412" clip-path="url(#clip-path-2)">
              <path id="Trazado_634132" data-name="Trazado 634132" d="M770.464,0h-7.611q3.4,10.739,7.611,21.2Z" transform="translate(49.536)" fill="#dac8f1"/>
              <path id="Trazado_634133" data-name="Trazado 634133" d="M253.7,0H212.421a55.286,55.286,0,0,0,11.843,5.321C234.244,8.428,246.872,7.076,253.7,0" transform="translate(13.794)" fill="#dac8f1"/>
              <path id="Trazado_634134" data-name="Trazado 634134" d="M0,344.561v4.727H6.682c-1.555-1.1-3.1-2.219-4.661-3.313L0,344.561" transform="translate(0 22.374)" fill="#dac8f1"/>
              <path id="Trazado_634135" data-name="Trazado 634135" d="M485.517,340.865q-5.23-74.4-10.471-148.794c26.933,12.134,53.3,25.489,80.254,37.572,31.629,14.183,111.248,38.02,79.971-29.836-7.883-17.1-16.45-34.559-17.313-53.372s8.36-39.594,26.168-45.742c19.869-6.858,40.461,6.2,58.274,17.354a422.884,422.884,0,0,0,114.766,49.907V21.2Q812.948,10.747,809.554,0H753.842q2.43,4.094,5.031,8.089c6.3,9.621,13.5,19.045,16.289,30.209s-.225,24.816-10.311,30.345c-14.465,7.935-31.221-4.735-43.076-16.214Q693.587,25.118,663.426,0H487.119a658.947,658.947,0,0,1,52.535,64.637c8.941,12.556,17.7,26.093,19.35,41.427s-6.128,32.757-20.927,37.065c-25.19,7.335-43.181-23.878-66.23-36.409-27.843-15.143-67.895,3.987-73.62,35.156-3.683,20.04,4.891,39.982,9.827,59.746s4.8,44.02-11.2,56.623c-12.422,9.793-30.76,8.821-44.94,1.8s-25.151-19.017-35.771-30.748Q242.68,148.153,169.216,67c-16.945-18.723-36.721-38.826-61.95-39.787C72.283,25.872,46.995,63.288,44.09,98.173c-4.1,49.3,21.311,96.525,52.7,134.77s69.42,70.935,98.078,111.257c5.782,8.134,11.164,17.778,13.7,27.463h94.008l-91.061-96.04c-8.424-8.884-17.06-18.108-21.306-29.592s-2.968-25.932,6.312-33.918c16.272-14,40.776.253,57.066,14.234Q333.62,295,413.647,363.665c3.152,2.7,6.343,5.425,9.632,8h58.748c4.612-8.973,4.221-20.395,3.49-30.8" transform="translate(2.835)" fill="#dac8f1"/>
              <path id="Trazado_634136" data-name="Trazado 634136" d="M0,277.978v70.907c.672.47,1.352.945,2.021,1.414,1.561,1.094,3.106,2.21,4.661,3.313H113.825A552.176,552.176,0,0,0,0,277.978" transform="translate(0 18.051)" fill="#dac8f1"/>
              <path id="Trazado_634137" data-name="Trazado 634137" d="M660.468,339.92c10.806-2.486,22.067-.259,32.993,1.634a536.4,536.4,0,0,0,84.792,7.837q2.922.04,5.853.032V277.731c-35.288,14.764-75.575,17.632-112.459,7.368-17.049-4.744-33.372-12.138-50.755-15.452s-36.828-1.938-50.574,9.206c-18.193,14.753-20.87,42.22-14.269,64.7,1.069,3.643,2.347,7.2,3.757,10.706h81.3c3.562-7.171,11.314-12.483,19.364-14.335" transform="translate(35.894 17.407)" fill="#dac8f1"/>
              <path id="Trazado_634138" data-name="Trazado 634138" d="M274.83,57.649C300.514,52.264,319.508,27.77,323.235,1.8c.083-.585.15-1.194.219-1.8H257.724c-6.832,7.076-19.458,8.428-29.439,5.321A55.353,55.353,0,0,1,216.442,0H150.507l44.1,30.051c24.057,16.391,51.732,33.572,80.226,27.6" transform="translate(9.773)" fill="#dac8f1"/>
            </g>
          </g>
        </g>
        <path id="Trazado_634139" data-name="Trazado 634139" d="M361.033,85.687H186.583A13.885,13.885,0,0,1,172.7,71.8V33.887A13.886,13.886,0,0,1,186.583,20h174.45a13.885,13.885,0,0,1,13.885,13.886V71.8a13.884,13.884,0,0,1-13.885,13.885" transform="translate(11.214 1.299)" fill="#fcf5e0"/>
        <path id="Trazado_634140" data-name="Trazado 634140" d="M23.655,189.225l71.357,71.386a18.606,18.606,0,0,0,26.192,0l71.356-71.386a18.553,18.553,0,0,0,0-26.151l-45.193-45.21a55.677,55.677,0,0,0-78.489,0l-45.224,45.21a18.553,18.553,0,0,0,0,26.151" transform="translate(1.186 6.603)" fill="#eadff7" fill-rule="evenodd"/>
        <path id="Trazado_634141" data-name="Trazado 634141" d="M214.766,189.225l71.357,71.386a18.535,18.535,0,0,0,26.134,0l71.356-71.386a18.542,18.542,0,0,0,0-26.151l-45.189-45.21a55.643,55.643,0,0,0-78.46,0l-45.2,45.21a18.5,18.5,0,0,0,0,26.151" transform="translate(13.594 6.603)" fill="#dac8f1" fill-rule="evenodd"/>
        <path id="Trazado_634142" data-name="Trazado 634142" d="M119.3,260.241l71.386-71.37a18.569,18.569,0,0,1,26.163,0l71.36,71.37a18.559,18.559,0,0,1,0,26.154L242.986,331.6a55.678,55.678,0,0,1-78.485,0L119.3,286.4a18.559,18.559,0,0,1,0-26.154" transform="translate(7.397 11.914)" fill="#dac8f1" fill-rule="evenodd"/>
        <path id="Trazado_634143" data-name="Trazado 634143" d="M405.826,189.225l71.357,71.386a18.565,18.565,0,0,0,26.159,0l71.389-71.386a18.553,18.553,0,0,0,0-26.151l-45.223-45.21a55.681,55.681,0,0,0-78.492,0l-45.191,45.21a18.543,18.543,0,0,0,0,26.151" transform="translate(26.002 6.603)" fill="#d6f6f1" fill-rule="evenodd"/>
        <path id="Trazado_634144" data-name="Trazado 634144" d="M310.387,260.241l71.362-71.37a18.565,18.565,0,0,1,26.16,0l71.357,71.37a18.5,18.5,0,0,1,0,26.154L434.1,331.6a55.679,55.679,0,0,1-78.486,0L310.387,286.4a18.557,18.557,0,0,1,0-26.154" transform="translate(19.805 11.914)" fill="#d6f6f1" fill-rule="evenodd"/>
        <path id="Trazado_634145" data-name="Trazado 634145" d="M502.092,260.241l71.363-71.37a18.563,18.563,0,0,1,26.159,0L671,260.241a18.559,18.559,0,0,1,0,26.154l-45.2,45.21a55.679,55.679,0,0,1-78.486,0L502.092,286.4a18.557,18.557,0,0,1,0-26.154" transform="translate(32.253 11.914)" fill="#fcf5e0" fill-rule="evenodd"/>
        <path id="Trazado_634146" data-name="Trazado 634146" d="M602.634,189.225l71.357,71.386a18.566,18.566,0,0,0,26.159,0L745.374,215.4a55.7,55.7,0,0,0,0-78.488l-19.031-19.047a55.672,55.672,0,0,0-78.485,0l-45.224,45.21a18.544,18.544,0,0,0,0,26.151" transform="translate(38.782 6.603)" fill="#fcf5e0" fill-rule="evenodd"/>
      </g>
    </g>
    <path id="Trazado_634754" data-name="Trazado 634754" d="M9.221-3.472A3.85,3.85,0,0,1,7.961-.809,4.3,4.3,0,0,1,5.039.146a4.158,4.158,0,0,1-2.245-.6A3.966,3.966,0,0,1,1.3-2.175,6.2,6.2,0,0,1,.747-4.761v-1a6.243,6.243,0,0,1,.535-2.659,4.029,4.029,0,0,1,1.534-1.772,4.28,4.28,0,0,1,2.311-.623,4.122,4.122,0,0,1,2.842.956A3.994,3.994,0,0,1,9.221-7.148H7.375a2.634,2.634,0,0,0-.67-1.659,2.215,2.215,0,0,0-1.578-.509,2.164,2.164,0,0,0-1.857.883,4.415,4.415,0,0,0-.663,2.592V-4.9a4.684,4.684,0,0,0,.619,2.639,2.054,2.054,0,0,0,1.813.909A2.4,2.4,0,0,0,6.68-1.838a2.559,2.559,0,0,0,.7-1.633Zm6.284,2.7a2.76,2.76,0,0,1-2.227.923,2.46,2.46,0,0,1-1.952-.754,3.209,3.209,0,0,1-.663-2.183V-7.925h1.78v5.112Q12.444-1.3,13.7-1.3a1.759,1.759,0,0,0,1.75-.93V-7.925h1.78V0H15.549ZM23.774,0a2.747,2.747,0,0,1-.205-.74,2.77,2.77,0,0,1-2.08.886,2.8,2.8,0,0,1-1.948-.681,2.179,2.179,0,0,1-.754-1.685,2.25,2.25,0,0,1,.941-1.945,4.561,4.561,0,0,1,2.692-.677h1.091v-.52a1.388,1.388,0,0,0-.344-.985,1.365,1.365,0,0,0-1.047-.37,1.568,1.568,0,0,0-1,.3.941.941,0,0,0-.388.773h-1.78a1.975,1.975,0,0,1,.432-1.219,2.879,2.879,0,0,1,1.176-.89,4.129,4.129,0,0,1,1.659-.322,3.325,3.325,0,0,1,2.219.7,2.494,2.494,0,0,1,.85,1.967v3.574a4.051,4.051,0,0,0,.3,1.707V0ZM21.819-1.282a2.025,2.025,0,0,0,.992-.256,1.713,1.713,0,0,0,.7-.688V-3.721h-.959a2.624,2.624,0,0,0-1.487.344,1.115,1.115,0,0,0-.5.974,1.04,1.04,0,0,0,.341.817A1.319,1.319,0,0,0,21.819-1.282Zm7.566-8.569v1.926h1.4v1.318h-1.4v4.424a.974.974,0,0,0,.179.656.832.832,0,0,0,.641.2,2.742,2.742,0,0,0,.623-.073V-.022a4.383,4.383,0,0,1-1.172.168Q27.6.146,27.6-2.117v-4.49H26.3V-7.925h1.3V-9.851Zm6.248,10A3.682,3.682,0,0,1,32.889-.919a3.866,3.866,0,0,1-1.051-2.838v-.22A4.755,4.755,0,0,1,32.3-6.1a3.484,3.484,0,0,1,1.285-1.454,3.4,3.4,0,0,1,1.846-.52,3.11,3.11,0,0,1,2.5,1.033,4.367,4.367,0,0,1,.883,2.922V-3.4H33.633a2.38,2.38,0,0,0,.656,1.553,1.968,1.968,0,0,0,1.447.571,2.41,2.41,0,0,0,1.992-.989l.959.916a3.2,3.2,0,0,1-1.271,1.1A3.978,3.978,0,0,1,35.632.146Zm-.212-6.79a1.5,1.5,0,0,0-1.183.513A2.657,2.657,0,0,0,33.662-4.7h3.391v-.132a2.163,2.163,0,0,0-.476-1.351A1.487,1.487,0,0,0,35.42-6.643Zm8.921.344a4.4,4.4,0,0,0-.725-.059,1.633,1.633,0,0,0-1.648.938V0h-1.78V-7.925h1.7l.044.886a2.005,2.005,0,0,1,1.787-1.033,1.666,1.666,0,0,1,.63.1Zm2.776-1.626.051.916a2.849,2.849,0,0,1,2.307-1.062q2.476,0,2.52,2.834V0h-1.78V-5.134a1.632,1.632,0,0,0-.326-1.117,1.371,1.371,0,0,0-1.066-.363,1.715,1.715,0,0,0-1.6.974V0h-1.78V-7.925ZM58.542,0a2.747,2.747,0,0,1-.205-.74,2.77,2.77,0,0,1-2.08.886,2.8,2.8,0,0,1-1.948-.681,2.179,2.179,0,0,1-.754-1.685A2.25,2.25,0,0,1,54.5-4.164a4.561,4.561,0,0,1,2.692-.677h1.091v-.52a1.388,1.388,0,0,0-.344-.985,1.365,1.365,0,0,0-1.047-.37,1.568,1.568,0,0,0-1,.3.941.941,0,0,0-.388.773h-1.78a1.975,1.975,0,0,1,.432-1.219,2.879,2.879,0,0,1,1.176-.89,4.129,4.129,0,0,1,1.659-.322,3.325,3.325,0,0,1,2.219.7,2.494,2.494,0,0,1,.85,1.967v3.574a4.051,4.051,0,0,0,.3,1.707V0ZM56.587-1.282a2.025,2.025,0,0,0,.992-.256,1.713,1.713,0,0,0,.7-.688V-3.721h-.959a2.624,2.624,0,0,0-1.487.344,1.115,1.115,0,0,0-.5.974,1.04,1.04,0,0,0,.341.817A1.319,1.319,0,0,0,56.587-1.282ZM66.072-6.3a4.4,4.4,0,0,0-.725-.059A1.633,1.633,0,0,0,63.7-5.42V0h-1.78V-7.925h1.7l.044.886a2.005,2.005,0,0,1,1.787-1.033,1.666,1.666,0,0,1,.63.1ZM69.089,0H67.31V-7.925h1.78ZM67.2-9.983a.945.945,0,0,1,.26-.681.982.982,0,0,1,.743-.271,1,1,0,0,1,.747.271.937.937,0,0,1,.264.681.916.916,0,0,1-.264.67,1,1,0,0,1-.747.267.99.99,0,0,1-.743-.267A.923.923,0,0,1,67.2-9.983Zm3.494,5.947a4.673,4.673,0,0,1,.461-2.1,3.37,3.37,0,0,1,1.3-1.436,3.653,3.653,0,0,1,1.919-.5,3.462,3.462,0,0,1,2.6,1.033A4.062,4.062,0,0,1,78.054-4.3l.007.417a4.715,4.715,0,0,1-.45,2.095A3.329,3.329,0,0,1,76.322-.359a3.679,3.679,0,0,1-1.937.505A3.438,3.438,0,0,1,71.7-.97a4.278,4.278,0,0,1-1.007-2.977Zm1.78.154a3.193,3.193,0,0,0,.505,1.915,1.643,1.643,0,0,0,1.406.692,1.625,1.625,0,0,0,1.4-.7,3.527,3.527,0,0,0,.5-2.058,3.152,3.152,0,0,0-.516-1.9,1.649,1.649,0,0,0-1.4-.7,1.634,1.634,0,0,0-1.384.692A3.46,3.46,0,0,0,72.473-3.882ZM89.766-5.713H83.452V-7.192h6.313Zm0,3.105H83.452V-4.08h6.313ZM101.338-3.8h1.326v1.428h-1.326V0h-1.78V-2.373H94.951L94.9-3.457l4.6-7.207h1.838Zm-4.57,0h2.791V-8.254l-.132.234Zm17.864-.081A4.718,4.718,0,0,1,113.8-.948,2.674,2.674,0,0,1,111.555.146a2.692,2.692,0,0,1-2.087-.857V3.047h-1.78V-7.925h1.641l.073.806a2.614,2.614,0,0,1,2.131-.952,2.7,2.7,0,0,1,2.274,1.08,4.844,4.844,0,0,1,.824,3Zm-1.772-.154a3.305,3.305,0,0,0-.472-1.882,1.536,1.536,0,0,0-1.351-.7,1.638,1.638,0,0,0-1.567.9V-2.2a1.653,1.653,0,0,0,1.582.923,1.534,1.534,0,0,0,1.329-.685A3.638,3.638,0,0,0,112.859-4.036ZM120.872,0a2.747,2.747,0,0,1-.205-.74,2.77,2.77,0,0,1-2.08.886,2.8,2.8,0,0,1-1.948-.681,2.179,2.179,0,0,1-.754-1.685,2.25,2.25,0,0,1,.941-1.945,4.561,4.561,0,0,1,2.692-.677h1.091v-.52a1.388,1.388,0,0,0-.344-.985,1.365,1.365,0,0,0-1.047-.37,1.568,1.568,0,0,0-1,.3.941.941,0,0,0-.388.773h-1.78a1.975,1.975,0,0,1,.432-1.219,2.879,2.879,0,0,1,1.176-.89,4.129,4.129,0,0,1,1.659-.322,3.325,3.325,0,0,1,2.219.7,2.494,2.494,0,0,1,.85,1.967v3.574a4.051,4.051,0,0,0,.3,1.707V0Zm-1.956-1.282a2.025,2.025,0,0,0,.992-.256,1.713,1.713,0,0,0,.7-.688V-3.721h-.959a2.624,2.624,0,0,0-1.487.344,1.115,1.115,0,0,0-.5.974,1.04,1.04,0,0,0,.341.817A1.319,1.319,0,0,0,118.916-1.282ZM128.4-6.3a4.4,4.4,0,0,0-.725-.059,1.633,1.633,0,0,0-1.648.938V0h-1.78V-7.925h1.7l.044.886a2.005,2.005,0,0,1,1.787-1.033,1.666,1.666,0,0,1,.63.1Zm4.066-3.552v1.926h1.4v1.318h-1.4v4.424a.974.974,0,0,0,.179.656.832.832,0,0,0,.641.2,2.742,2.742,0,0,0,.623-.073V-.022a4.383,4.383,0,0,1-1.172.168q-2.051,0-2.051-2.263v-4.49h-1.3V-7.925h1.3V-9.851Zm6.248,10a3.682,3.682,0,0,1-2.743-1.066,3.866,3.866,0,0,1-1.051-2.838v-.22a4.755,4.755,0,0,1,.458-2.12,3.484,3.484,0,0,1,1.285-1.454,3.4,3.4,0,0,1,1.846-.52,3.11,3.11,0,0,1,2.5,1.033,4.367,4.367,0,0,1,.883,2.922V-3.4h-5.178a2.38,2.38,0,0,0,.656,1.553,1.968,1.968,0,0,0,1.447.571,2.41,2.41,0,0,0,1.992-.989l.959.916a3.2,3.2,0,0,1-1.271,1.1A3.978,3.978,0,0,1,138.714.146Zm-.212-6.79a1.5,1.5,0,0,0-1.183.513,2.657,2.657,0,0,0-.575,1.428h3.391v-.132a2.163,2.163,0,0,0-.476-1.351A1.487,1.487,0,0,0,138.5-6.643Zm9.214,4.49a.807.807,0,0,0-.392-.725,4.167,4.167,0,0,0-1.3-.439,6.683,6.683,0,0,1-1.516-.483,2.023,2.023,0,0,1-1.333-1.868,2.109,2.109,0,0,1,.864-1.714,3.417,3.417,0,0,1,2.2-.688,3.555,3.555,0,0,1,2.3.7,2.231,2.231,0,0,1,.875,1.824h-1.78a1.1,1.1,0,0,0-.381-.853,1.46,1.46,0,0,0-1.011-.341,1.577,1.577,0,0,0-.956.271.854.854,0,0,0-.37.725.721.721,0,0,0,.344.637,4.734,4.734,0,0,0,1.392.458,6.587,6.587,0,0,1,1.644.549,2.328,2.328,0,0,1,.886.765,1.952,1.952,0,0,1,.289,1.084,2.065,2.065,0,0,1-.886,1.732,3.779,3.779,0,0,1-2.322.663,4.1,4.1,0,0,1-1.736-.352,2.857,2.857,0,0,1-1.187-.967,2.288,2.288,0,0,1-.425-1.326h1.729a1.254,1.254,0,0,0,.476.97,1.85,1.85,0,0,0,1.165.341,1.8,1.8,0,0,0,1.069-.267A.827.827,0,0,0,147.716-2.153Z" transform="translate(24.236 185.973)"/>
    <path id="Trazado_634755" data-name="Trazado 634755" d="M6.658-2.747a1.288,1.288,0,0,0-.494-1.084A5.948,5.948,0,0,0,4.38-4.6a8.612,8.612,0,0,1-2.051-.864A2.737,2.737,0,0,1,.872-7.852,2.6,2.6,0,0,1,1.923-9.976a4.254,4.254,0,0,1,2.728-.835,4.608,4.608,0,0,1,1.985.41,3.258,3.258,0,0,1,1.37,1.168,3,3,0,0,1,.5,1.681H6.658a1.671,1.671,0,0,0-.524-1.307,2.161,2.161,0,0,0-1.5-.472,2.257,2.257,0,0,0-1.41.388,1.293,1.293,0,0,0-.5,1.084,1.169,1.169,0,0,0,.542.978,6.244,6.244,0,0,0,1.787.762,8.22,8.22,0,0,1,2,.842A3.18,3.18,0,0,1,8.159-4.193a2.823,2.823,0,0,1,.352,1.432A2.538,2.538,0,0,1,7.489-.641,4.432,4.432,0,0,1,4.717.146,5.209,5.209,0,0,1,2.589-.282,3.574,3.574,0,0,1,1.08-1.465,2.948,2.948,0,0,1,.542-3.223H2.4A1.725,1.725,0,0,0,3-1.816a2.63,2.63,0,0,0,1.721.5A2.285,2.285,0,0,0,6.171-1.71,1.264,1.264,0,0,0,6.658-2.747ZM11.858,0h-1.78V-7.925h1.78ZM9.968-9.983a.945.945,0,0,1,.26-.681.982.982,0,0,1,.743-.271,1,1,0,0,1,.747.271.937.937,0,0,1,.264.681.916.916,0,0,1-.264.67,1,1,0,0,1-.747.267.99.99,0,0,1-.743-.267A.923.923,0,0,1,9.968-9.983Zm5.5,2.058.051.828a2.852,2.852,0,0,1,2.285-.974A2.191,2.191,0,0,1,19.98-6.855a2.811,2.811,0,0,1,2.432-1.216,2.471,2.471,0,0,1,1.952.725,3.192,3.192,0,0,1,.656,2.139V0H23.24V-5.156a1.576,1.576,0,0,0-.33-1.106,1.443,1.443,0,0,0-1.091-.352,1.482,1.482,0,0,0-.992.326,1.719,1.719,0,0,0-.538.853L20.3,0h-1.78V-5.215a1.27,1.27,0,0,0-1.428-1.4,1.567,1.567,0,0,0-1.516.872V0h-1.78V-7.925ZM33.787-3.882a4.718,4.718,0,0,1-.835,2.933A2.674,2.674,0,0,1,30.71.146,2.692,2.692,0,0,1,28.623-.71V3.047h-1.78V-7.925h1.641l.073.806a2.614,2.614,0,0,1,2.131-.952,2.7,2.7,0,0,1,2.274,1.08,4.844,4.844,0,0,1,.824,3Zm-1.772-.154a3.305,3.305,0,0,0-.472-1.882,1.536,1.536,0,0,0-1.351-.7,1.638,1.638,0,0,0-1.567.9V-2.2a1.653,1.653,0,0,0,1.582.923,1.534,1.534,0,0,0,1.329-.685A3.638,3.638,0,0,0,32.014-4.036ZM37.185,0h-1.78V-11.25h1.78Zm5.427.146A3.682,3.682,0,0,1,39.869-.919a3.866,3.866,0,0,1-1.051-2.838v-.22a4.755,4.755,0,0,1,.458-2.12,3.484,3.484,0,0,1,1.285-1.454,3.4,3.4,0,0,1,1.846-.52,3.11,3.11,0,0,1,2.5,1.033,4.367,4.367,0,0,1,.883,2.922V-3.4H40.613a2.38,2.38,0,0,0,.656,1.553,1.968,1.968,0,0,0,1.447.571,2.41,2.41,0,0,0,1.992-.989l.959.916A3.2,3.2,0,0,1,44.4-.245,3.978,3.978,0,0,1,42.612.146ZM42.4-6.643a1.5,1.5,0,0,0-1.183.513A2.657,2.657,0,0,0,40.642-4.7h3.391v-.132a2.163,2.163,0,0,0-.476-1.351A1.487,1.487,0,0,0,42.4-6.643Zm8.174,2.607a4.673,4.673,0,0,1,.461-2.1,3.37,3.37,0,0,1,1.3-1.436,3.653,3.653,0,0,1,1.919-.5,3.462,3.462,0,0,1,2.6,1.033A4.062,4.062,0,0,1,57.935-4.3l.007.417a4.715,4.715,0,0,1-.45,2.095A3.329,3.329,0,0,1,56.2-.359a3.679,3.679,0,0,1-1.937.505A3.438,3.438,0,0,1,51.581-.97a4.278,4.278,0,0,1-1.007-2.977Zm1.78.154a3.193,3.193,0,0,0,.505,1.915,1.643,1.643,0,0,0,1.406.692,1.625,1.625,0,0,0,1.4-.7,3.527,3.527,0,0,0,.5-2.058,3.152,3.152,0,0,0-.516-1.9,1.649,1.649,0,0,0-1.4-.7,1.634,1.634,0,0,0-1.384.692A3.46,3.46,0,0,0,52.354-3.882Zm10.5-.139a4.712,4.712,0,0,1,.85-2.941,2.722,2.722,0,0,1,2.278-1.11,2.587,2.587,0,0,1,2.036.879V-11.25h1.78V0H68.181l-.088-.82a2.624,2.624,0,0,1-2.131.967A2.707,2.707,0,0,1,63.71-.974,4.884,4.884,0,0,1,62.849-4.021Zm1.78.154a3.3,3.3,0,0,0,.465,1.886,1.509,1.509,0,0,0,1.322.677,1.681,1.681,0,0,0,1.6-.974V-5.662a1.655,1.655,0,0,0-1.582-.952,1.52,1.52,0,0,0-1.333.685A3.674,3.674,0,0,0,64.629-3.867ZM75.139.146A3.682,3.682,0,0,1,72.4-.919a3.866,3.866,0,0,1-1.051-2.838v-.22A4.755,4.755,0,0,1,71.8-6.1a3.484,3.484,0,0,1,1.285-1.454,3.4,3.4,0,0,1,1.846-.52,3.11,3.11,0,0,1,2.5,1.033,4.367,4.367,0,0,1,.883,2.922V-3.4H73.14A2.38,2.38,0,0,0,73.8-1.846a1.968,1.968,0,0,0,1.447.571,2.41,2.41,0,0,0,1.992-.989l.959.916a3.2,3.2,0,0,1-1.271,1.1A3.978,3.978,0,0,1,75.139.146Zm-.212-6.79a1.5,1.5,0,0,0-1.183.513A2.657,2.657,0,0,0,73.169-4.7H76.56v-.132a2.163,2.163,0,0,0-.476-1.351A1.487,1.487,0,0,0,74.927-6.643Z" transform="translate(166.409 267.896)"/>
    <path id="Trazado_634756" data-name="Trazado 634756" d="M5.354-2.153a.807.807,0,0,0-.392-.725,4.167,4.167,0,0,0-1.3-.439A6.683,6.683,0,0,1,2.146-3.8,2.023,2.023,0,0,1,.813-5.669a2.109,2.109,0,0,1,.864-1.714,3.417,3.417,0,0,1,2.2-.688,3.555,3.555,0,0,1,2.3.7,2.231,2.231,0,0,1,.875,1.824H5.266A1.1,1.1,0,0,0,4.885-6.4a1.46,1.46,0,0,0-1.011-.341,1.577,1.577,0,0,0-.956.271.854.854,0,0,0-.37.725.721.721,0,0,0,.344.637,4.734,4.734,0,0,0,1.392.458A6.587,6.587,0,0,1,5.929-4.1a2.328,2.328,0,0,1,.886.765A1.952,1.952,0,0,1,7.1-2.249,2.065,2.065,0,0,1,6.218-.516,3.779,3.779,0,0,1,3.9.146,4.1,4.1,0,0,1,2.161-.205,2.857,2.857,0,0,1,.974-1.172,2.288,2.288,0,0,1,.549-2.5H2.278a1.254,1.254,0,0,0,.476.97,1.85,1.85,0,0,0,1.165.341,1.8,1.8,0,0,0,1.069-.267A.827.827,0,0,0,5.354-2.153Zm8.1,1.377a2.76,2.76,0,0,1-2.227.923A2.46,2.46,0,0,1,9.276-.608a3.209,3.209,0,0,1-.663-2.183V-7.925h1.78v5.112q0,1.509,1.252,1.509a1.759,1.759,0,0,0,1.75-.93V-7.925h1.78V0H13.5ZM23.943-3.882a4.76,4.76,0,0,1-.824,2.937A2.684,2.684,0,0,1,20.852.146a2.585,2.585,0,0,1-2.168-1L18.6,0H16.985V-11.25h1.78v4.087a2.576,2.576,0,0,1,2.073-.908,2.715,2.715,0,0,1,2.278,1.077,4.839,4.839,0,0,1,.828,3.01Zm-1.78-.154a3.365,3.365,0,0,0-.454-1.934,1.512,1.512,0,0,0-1.318-.645A1.652,1.652,0,0,0,18.765-5.6v3.267A1.669,1.669,0,0,0,20.405-1.3a1.5,1.5,0,0,0,1.289-.623,3.26,3.26,0,0,0,.469-1.882Zm2.937.015a4.712,4.712,0,0,1,.85-2.941,2.722,2.722,0,0,1,2.278-1.11,2.587,2.587,0,0,1,2.036.879V-11.25h1.78V0H30.432l-.088-.82a2.624,2.624,0,0,1-2.131.967A2.707,2.707,0,0,1,25.961-.974,4.884,4.884,0,0,1,25.1-4.021Zm1.78.154a3.3,3.3,0,0,0,.465,1.886,1.509,1.509,0,0,0,1.322.677,1.681,1.681,0,0,0,1.6-.974V-5.662a1.655,1.655,0,0,0-1.582-.952,1.52,1.52,0,0,0-1.333.685A3.674,3.674,0,0,0,26.88-3.867ZM35.793,0h-1.78V-7.925h1.78ZM33.9-9.983a.945.945,0,0,1,.26-.681.982.982,0,0,1,.743-.271,1,1,0,0,1,.747.271.937.937,0,0,1,.264.681.916.916,0,0,1-.264.67,1,1,0,0,1-.747.267.99.99,0,0,1-.743-.267A.923.923,0,0,1,33.9-9.983Zm6.621,7.727L42.2-7.925h1.838L41.294,0H39.749L36.98-7.925h1.846ZM47.043,0h-1.78V-7.925h1.78Zm-1.89-9.983a.945.945,0,0,1,.26-.681.982.982,0,0,1,.743-.271,1,1,0,0,1,.747.271.937.937,0,0,1,.264.681.916.916,0,0,1-.264.67,1,1,0,0,1-.747.267.99.99,0,0,1-.743-.267A.923.923,0,0,1,45.154-9.983Zm8.269,7.83a.807.807,0,0,0-.392-.725,4.167,4.167,0,0,0-1.3-.439A6.683,6.683,0,0,1,50.215-3.8a2.023,2.023,0,0,1-1.333-1.868,2.109,2.109,0,0,1,.864-1.714,3.417,3.417,0,0,1,2.2-.688,3.555,3.555,0,0,1,2.3.7,2.231,2.231,0,0,1,.875,1.824h-1.78a1.1,1.1,0,0,0-.381-.853,1.46,1.46,0,0,0-1.011-.341,1.577,1.577,0,0,0-.956.271.854.854,0,0,0-.37.725.721.721,0,0,0,.344.637,4.734,4.734,0,0,0,1.392.458A6.587,6.587,0,0,1,54-4.1a2.328,2.328,0,0,1,.886.765,1.952,1.952,0,0,1,.289,1.084,2.065,2.065,0,0,1-.886,1.732,3.779,3.779,0,0,1-2.322.663,4.1,4.1,0,0,1-1.736-.352,2.857,2.857,0,0,1-1.187-.967A2.288,2.288,0,0,1,48.618-2.5h1.729a1.254,1.254,0,0,0,.476.97,1.85,1.85,0,0,0,1.165.341,1.8,1.8,0,0,0,1.069-.267A.827.827,0,0,0,53.423-2.153ZM58.616,0h-1.78V-7.925h1.78Zm-1.89-9.983a.945.945,0,0,1,.26-.681.982.982,0,0,1,.743-.271,1,1,0,0,1,.747.271.937.937,0,0,1,.264.681.916.916,0,0,1-.264.67,1,1,0,0,1-.747.267.99.99,0,0,1-.743-.267A.923.923,0,0,1,56.726-9.983ZM60.22-4.036a4.673,4.673,0,0,1,.461-2.1,3.37,3.37,0,0,1,1.3-1.436,3.653,3.653,0,0,1,1.919-.5,3.462,3.462,0,0,1,2.6,1.033A4.062,4.062,0,0,1,67.581-4.3l.007.417a4.715,4.715,0,0,1-.45,2.095A3.329,3.329,0,0,1,65.848-.359a3.679,3.679,0,0,1-1.937.505A3.438,3.438,0,0,1,61.227-.97,4.278,4.278,0,0,1,60.22-3.948ZM62-3.882A3.193,3.193,0,0,0,62.5-1.967a1.643,1.643,0,0,0,1.406.692,1.625,1.625,0,0,0,1.4-.7,3.527,3.527,0,0,0,.5-2.058,3.152,3.152,0,0,0-.516-1.9,1.649,1.649,0,0,0-1.4-.7,1.634,1.634,0,0,0-1.384.692A3.46,3.46,0,0,0,62-3.882Zm2.388-7.368h2.029L64.387-9.031l-1.428,0Zm6.357,3.325.051.916A2.849,2.849,0,0,1,73.1-8.071q2.476,0,2.52,2.834V0h-1.78V-5.134a1.632,1.632,0,0,0-.326-1.117,1.371,1.371,0,0,0-1.066-.363,1.715,1.715,0,0,0-1.6.974V0h-1.78V-7.925Z" transform="translate(167.687 288.343)"/>
    <path id="Trazado_634757" data-name="Trazado 634757" d="M7.866-3.882A4.76,4.76,0,0,1,7.042-.945,2.684,2.684,0,0,1,4.775.146a2.585,2.585,0,0,1-2.168-1L2.52,0H.908V-11.25h1.78v4.087a2.576,2.576,0,0,1,2.073-.908A2.715,2.715,0,0,1,7.039-6.995a4.839,4.839,0,0,1,.828,3.01Zm-1.78-.154a3.365,3.365,0,0,0-.454-1.934,1.512,1.512,0,0,0-1.318-.645A1.652,1.652,0,0,0,2.688-5.6v3.267A1.669,1.669,0,0,0,4.329-1.3a1.5,1.5,0,0,0,1.289-.623,3.26,3.26,0,0,0,.469-1.882ZM11.25,0H9.47V-7.925h1.78ZM9.36-9.983a.945.945,0,0,1,.26-.681.982.982,0,0,1,.743-.271,1,1,0,0,1,.747.271.937.937,0,0,1,.264.681.916.916,0,0,1-.264.67,1,1,0,0,1-.747.267.99.99,0,0,1-.743-.267A.923.923,0,0,1,9.36-9.983Zm5.479,2.058.051.916A2.849,2.849,0,0,1,17.2-8.071q2.476,0,2.52,2.834V0h-1.78V-5.134a1.632,1.632,0,0,0-.326-1.117,1.371,1.371,0,0,0-1.066-.363,1.715,1.715,0,0,0-1.6.974V0h-1.78V-7.925ZM26.265,0a2.747,2.747,0,0,1-.205-.74,2.77,2.77,0,0,1-2.08.886,2.8,2.8,0,0,1-1.948-.681,2.179,2.179,0,0,1-.754-1.685,2.25,2.25,0,0,1,.941-1.945,4.561,4.561,0,0,1,2.692-.677H26v-.52a1.388,1.388,0,0,0-.344-.985,1.365,1.365,0,0,0-1.047-.37,1.568,1.568,0,0,0-1,.3.941.941,0,0,0-.388.773h-1.78a1.975,1.975,0,0,1,.432-1.219,2.879,2.879,0,0,1,1.176-.89,4.129,4.129,0,0,1,1.659-.322,3.325,3.325,0,0,1,2.219.7,2.494,2.494,0,0,1,.85,1.967v3.574a4.051,4.051,0,0,0,.3,1.707V0ZM24.309-1.282a2.025,2.025,0,0,0,.992-.256,1.713,1.713,0,0,0,.7-.688V-3.721h-.959a2.624,2.624,0,0,0-1.487.344,1.115,1.115,0,0,0-.5.974,1.04,1.04,0,0,0,.341.817A1.319,1.319,0,0,0,24.309-1.282ZM33.794-6.3a4.4,4.4,0,0,0-.725-.059,1.633,1.633,0,0,0-1.648.938V0h-1.78V-7.925h1.7l.044.886a2.005,2.005,0,0,1,1.787-1.033,1.666,1.666,0,0,1,.63.1ZM36.812,0h-1.78V-7.925h1.78Zm-1.89-9.983a.945.945,0,0,1,.26-.681.982.982,0,0,1,.743-.271,1,1,0,0,1,.747.271.937.937,0,0,1,.264.681.916.916,0,0,1-.264.67,1,1,0,0,1-.747.267.99.99,0,0,1-.743-.267A.923.923,0,0,1,34.922-9.983ZM43.484,0a2.747,2.747,0,0,1-.205-.74A2.77,2.77,0,0,1,41.2.146,2.8,2.8,0,0,1,39.25-.535,2.179,2.179,0,0,1,38.5-2.219a2.25,2.25,0,0,1,.941-1.945,4.561,4.561,0,0,1,2.692-.677H43.22v-.52a1.388,1.388,0,0,0-.344-.985,1.365,1.365,0,0,0-1.047-.37,1.568,1.568,0,0,0-1,.3.941.941,0,0,0-.388.773h-1.78A1.975,1.975,0,0,1,39.1-6.859a2.879,2.879,0,0,1,1.176-.89,4.129,4.129,0,0,1,1.659-.322,3.325,3.325,0,0,1,2.219.7A2.494,2.494,0,0,1,45-5.405v3.574a4.051,4.051,0,0,0,.3,1.707V0ZM41.528-1.282a2.025,2.025,0,0,0,.992-.256,1.713,1.713,0,0,0,.7-.688V-3.721h-.959a2.624,2.624,0,0,0-1.487.344,1.115,1.115,0,0,0-.5.974,1.04,1.04,0,0,0,.341.817A1.319,1.319,0,0,0,41.528-1.282Z" transform="translate(185.05 308.79)"/>
    <path id="Trazado_634758" data-name="Trazado 634758" d="M7.317-4.761H2.937v3.281h5.12V0H1.084V-10.664H8.005V-9.17H2.937v2.944h4.38ZM11.287,0H9.507V-11.25h1.78Zm7.324-7.925.051.916a2.849,2.849,0,0,1,2.307-1.062q2.476,0,2.52,2.834V0h-1.78V-5.134a1.632,1.632,0,0,0-.326-1.117,1.371,1.371,0,0,0-1.066-.363,1.715,1.715,0,0,0-1.6.974V0h-1.78V-7.925ZM30.1-.776a2.76,2.76,0,0,1-2.227.923,2.46,2.46,0,0,1-1.952-.754,3.209,3.209,0,0,1-.663-2.183V-7.925h1.78v5.112q0,1.509,1.252,1.509a1.759,1.759,0,0,0,1.75-.93V-7.925h1.78V0H30.146ZM35.31-7.925l.051.828a2.852,2.852,0,0,1,2.285-.974,2.191,2.191,0,0,1,2.175,1.216,2.811,2.811,0,0,1,2.432-1.216,2.471,2.471,0,0,1,1.952.725,3.192,3.192,0,0,1,.656,2.139V0h-1.78V-5.156a1.576,1.576,0,0,0-.33-1.106,1.443,1.443,0,0,0-1.091-.352,1.482,1.482,0,0,0-.992.326,1.719,1.719,0,0,0-.538.853L40.137,0h-1.78V-5.215a1.27,1.27,0,0,0-1.428-1.4,1.567,1.567,0,0,0-1.516.872V0h-1.78V-7.925ZM50.178.146A3.682,3.682,0,0,1,47.435-.919a3.866,3.866,0,0,1-1.051-2.838v-.22a4.755,4.755,0,0,1,.458-2.12,3.484,3.484,0,0,1,1.285-1.454,3.4,3.4,0,0,1,1.846-.52,3.11,3.11,0,0,1,2.5,1.033,4.367,4.367,0,0,1,.883,2.922V-3.4H48.179a2.38,2.38,0,0,0,.656,1.553,1.968,1.968,0,0,0,1.447.571,2.41,2.41,0,0,0,1.992-.989l.959.916a3.2,3.2,0,0,1-1.271,1.1A3.978,3.978,0,0,1,50.178.146Zm-.212-6.79a1.5,1.5,0,0,0-1.183.513A2.657,2.657,0,0,0,48.208-4.7H51.6v-.132a2.163,2.163,0,0,0-.476-1.351A1.487,1.487,0,0,0,49.966-6.643Zm8.921.344a4.4,4.4,0,0,0-.725-.059,1.633,1.633,0,0,0-1.648.938V0h-1.78V-7.925h1.7l.044.886a2.005,2.005,0,0,1,1.787-1.033,1.666,1.666,0,0,1,.63.1ZM64.316,0a2.747,2.747,0,0,1-.205-.74,2.77,2.77,0,0,1-2.08.886,2.8,2.8,0,0,1-1.948-.681,2.179,2.179,0,0,1-.754-1.685,2.25,2.25,0,0,1,.941-1.945,4.561,4.561,0,0,1,2.692-.677h1.091v-.52a1.388,1.388,0,0,0-.344-.985,1.365,1.365,0,0,0-1.047-.37,1.568,1.568,0,0,0-1,.3.941.941,0,0,0-.388.773H59.5a1.975,1.975,0,0,1,.432-1.219,2.879,2.879,0,0,1,1.176-.89,4.129,4.129,0,0,1,1.659-.322,3.325,3.325,0,0,1,2.219.7,2.494,2.494,0,0,1,.85,1.967v3.574a4.051,4.051,0,0,0,.3,1.707V0ZM62.361-1.282a2.025,2.025,0,0,0,.992-.256,1.713,1.713,0,0,0,.7-.688V-3.721h-.959a2.624,2.624,0,0,0-1.487.344,1.115,1.115,0,0,0-.5.974,1.04,1.04,0,0,0,.341.817A1.319,1.319,0,0,0,62.361-1.282Zm5-2.739a4.712,4.712,0,0,1,.85-2.941,2.722,2.722,0,0,1,2.278-1.11,2.587,2.587,0,0,1,2.036.879V-11.25h1.78V0H72.7l-.088-.82a2.624,2.624,0,0,1-2.131.967A2.707,2.707,0,0,1,68.224-.974,4.884,4.884,0,0,1,67.363-4.021Zm1.78.154a3.3,3.3,0,0,0,.465,1.886A1.509,1.509,0,0,0,70.93-1.3a1.681,1.681,0,0,0,1.6-.974V-5.662a1.655,1.655,0,0,0-1.582-.952,1.52,1.52,0,0,0-1.333.685A3.674,3.674,0,0,0,69.143-3.867Zm6.687-.168a4.673,4.673,0,0,1,.461-2.1,3.37,3.37,0,0,1,1.3-1.436,3.653,3.653,0,0,1,1.919-.5,3.462,3.462,0,0,1,2.6,1.033A4.062,4.062,0,0,1,83.191-4.3l.007.417a4.715,4.715,0,0,1-.45,2.095A3.329,3.329,0,0,1,81.459-.359a3.679,3.679,0,0,1-1.937.505A3.438,3.438,0,0,1,76.837-.97,4.278,4.278,0,0,1,75.83-3.948Zm1.78.154a3.193,3.193,0,0,0,.505,1.915,1.643,1.643,0,0,0,1.406.692,1.625,1.625,0,0,0,1.4-.7,3.527,3.527,0,0,0,.5-2.058,3.152,3.152,0,0,0-.516-1.9,1.649,1.649,0,0,0-1.4-.7,1.634,1.634,0,0,0-1.384.692A3.46,3.46,0,0,0,77.61-3.882ZM88.853-6.3a4.4,4.4,0,0,0-.725-.059,1.633,1.633,0,0,0-1.648.938V0H84.7V-7.925h1.7l.044.886A2.005,2.005,0,0,1,88.23-8.071a1.666,1.666,0,0,1,.63.1Z" transform="translate(262.066 158.046)"/>
    <path id="Trazado_634759" data-name="Trazado 634759" d="M6.819-3.8H8.145v1.428H6.819V0H5.039V-2.373H.432L.381-3.457l4.6-7.207H6.819Zm-4.57,0H5.039V-8.254l-.132.234ZM15.066,0h-1.78V-7.925h1.78Zm-1.89-9.983a.945.945,0,0,1,.26-.681.982.982,0,0,1,.743-.271,1,1,0,0,1,.747.271.937.937,0,0,1,.264.681.916.916,0,0,1-.264.67,1,1,0,0,1-.747.267.99.99,0,0,1-.743-.267A.923.923,0,0,1,13.176-9.983Zm5.479,2.058.051.916a2.849,2.849,0,0,1,2.307-1.062q2.476,0,2.52,2.834V0h-1.78V-5.134a1.632,1.632,0,0,0-.326-1.117,1.371,1.371,0,0,0-1.066-.363,1.715,1.715,0,0,0-1.6.974V0h-1.78V-7.925Zm6.357,3.9a4.712,4.712,0,0,1,.85-2.941,2.722,2.722,0,0,1,2.278-1.11,2.587,2.587,0,0,1,2.036.879V-11.25h1.78V0H30.344l-.088-.82a2.624,2.624,0,0,1-2.131.967A2.707,2.707,0,0,1,25.873-.974,4.884,4.884,0,0,1,25.012-4.021Zm1.78.154a3.3,3.3,0,0,0,.465,1.886,1.509,1.509,0,0,0,1.322.677,1.681,1.681,0,0,0,1.6-.974V-5.662a1.655,1.655,0,0,0-1.582-.952,1.52,1.52,0,0,0-1.333.685A3.674,3.674,0,0,0,26.792-3.867ZM35.706,0h-1.78V-7.925h1.78Zm-1.89-9.983a.945.945,0,0,1,.26-.681.982.982,0,0,1,.743-.271,1,1,0,0,1,.747.271.937.937,0,0,1,.264.681.916.916,0,0,1-.264.67,1,1,0,0,1-.747.267.99.99,0,0,1-.743-.267A.923.923,0,0,1,33.816-9.983ZM40.9-1.274A1.609,1.609,0,0,0,42-1.663a1.326,1.326,0,0,0,.469-.959H44.15a2.614,2.614,0,0,1-.461,1.381A3.027,3.027,0,0,1,42.517-.227a3.492,3.492,0,0,1-1.6.374A3.379,3.379,0,0,1,38.284-.93,4.27,4.27,0,0,1,37.31-3.9v-.183a4.2,4.2,0,0,1,.967-2.9,3.348,3.348,0,0,1,2.637-1.088,3.256,3.256,0,0,1,2.3.824,2.952,2.952,0,0,1,.934,2.164H42.473A1.63,1.63,0,0,0,42.008-6.2a1.5,1.5,0,0,0-1.11-.439,1.566,1.566,0,0,0-1.333.626,3.2,3.2,0,0,0-.476,1.9v.286a3.248,3.248,0,0,0,.465,1.923A1.565,1.565,0,0,0,40.9-1.274ZM50.229,0a2.747,2.747,0,0,1-.205-.74,2.77,2.77,0,0,1-2.08.886A2.8,2.8,0,0,1,46-.535a2.179,2.179,0,0,1-.754-1.685,2.25,2.25,0,0,1,.941-1.945,4.561,4.561,0,0,1,2.692-.677h1.091v-.52a1.388,1.388,0,0,0-.344-.985,1.365,1.365,0,0,0-1.047-.37,1.568,1.568,0,0,0-1,.3.941.941,0,0,0-.388.773H45.41a1.975,1.975,0,0,1,.432-1.219,2.879,2.879,0,0,1,1.176-.89,4.129,4.129,0,0,1,1.659-.322,3.325,3.325,0,0,1,2.219.7,2.494,2.494,0,0,1,.85,1.967v3.574a4.051,4.051,0,0,0,.3,1.707V0ZM48.274-1.282a2.025,2.025,0,0,0,.992-.256,1.713,1.713,0,0,0,.7-.688V-3.721h-.959a2.624,2.624,0,0,0-1.487.344,1.115,1.115,0,0,0-.5.974,1.04,1.04,0,0,0,.341.817A1.319,1.319,0,0,0,48.274-1.282Zm8.738-2.747a4.683,4.683,0,0,1,.85-2.952,2.761,2.761,0,0,1,2.3-1.091,2.6,2.6,0,0,1,2.1.93l.1-.784h1.582V3.047h-1.78V-.674a2.656,2.656,0,0,1-2.021.82,2.735,2.735,0,0,1-2.278-1.11A4.9,4.9,0,0,1,57.012-4.028Zm1.78.154a3.307,3.307,0,0,0,.48,1.908,1.529,1.529,0,0,0,1.329.692,1.686,1.686,0,0,0,1.567-.9v-3.6a1.687,1.687,0,0,0-1.553-.864,1.555,1.555,0,0,0-1.337.681A3.608,3.608,0,0,0,58.792-3.875Zm11.873,3.1a2.76,2.76,0,0,1-2.227.923,2.46,2.46,0,0,1-1.952-.754,3.209,3.209,0,0,1-.663-2.183V-7.925H67.6v5.112Q67.6-1.3,68.855-1.3a1.759,1.759,0,0,0,1.75-.93V-7.925h1.78V0H70.708Zm7.024.923A3.682,3.682,0,0,1,74.945-.919a3.866,3.866,0,0,1-1.051-2.838v-.22a4.755,4.755,0,0,1,.458-2.12,3.484,3.484,0,0,1,1.285-1.454,3.4,3.4,0,0,1,1.846-.52,3.11,3.11,0,0,1,2.5,1.033,4.367,4.367,0,0,1,.883,2.922V-3.4H75.688a2.38,2.38,0,0,0,.656,1.553,1.968,1.968,0,0,0,1.447.571,2.41,2.41,0,0,0,1.992-.989l.959.916a3.2,3.2,0,0,1-1.271,1.1A3.978,3.978,0,0,1,77.688.146Zm-.212-6.79a1.5,1.5,0,0,0-1.183.513A2.657,2.657,0,0,0,75.718-4.7h3.391v-.132a2.163,2.163,0,0,0-.476-1.351A1.487,1.487,0,0,0,77.476-6.643ZM88.213-9.851v1.926h1.4v1.318h-1.4v4.424a.974.974,0,0,0,.179.656.832.832,0,0,0,.641.2,2.742,2.742,0,0,0,.623-.073V-.022a4.383,4.383,0,0,1-1.172.168q-2.051,0-2.051-2.263v-4.49h-1.3V-7.925h1.3V-9.851ZM92.864,0h-1.78V-7.925h1.78Zm-1.89-9.983a.945.945,0,0,1,.26-.681.982.982,0,0,1,.743-.271,1,1,0,0,1,.747.271.937.937,0,0,1,.264.681.916.916,0,0,1-.264.67,1,1,0,0,1-.747.267.99.99,0,0,1-.743-.267A.923.923,0,0,1,90.974-9.983ZM98.291.146A3.682,3.682,0,0,1,95.548-.919,3.866,3.866,0,0,1,94.5-3.757v-.22a4.755,4.755,0,0,1,.458-2.12A3.484,3.484,0,0,1,96.24-7.551a3.4,3.4,0,0,1,1.846-.52,3.11,3.11,0,0,1,2.5,1.033,4.367,4.367,0,0,1,.883,2.922V-3.4H96.292a2.38,2.38,0,0,0,.656,1.553,1.968,1.968,0,0,0,1.447.571,2.41,2.41,0,0,0,1.992-.989l.959.916a3.2,3.2,0,0,1-1.271,1.1A3.978,3.978,0,0,1,98.291.146Zm-.212-6.79A1.5,1.5,0,0,0,96.9-6.13,2.657,2.657,0,0,0,96.321-4.7h3.391v-.132a2.163,2.163,0,0,0-.476-1.351A1.487,1.487,0,0,0,98.079-6.643ZM104.5-7.925l.051.916a2.849,2.849,0,0,1,2.307-1.062q2.476,0,2.52,2.834V0H107.6V-5.134a1.632,1.632,0,0,0-.326-1.117,1.371,1.371,0,0,0-1.066-.363,1.715,1.715,0,0,0-1.6.974V0h-1.78V-7.925ZM114.683.146A3.682,3.682,0,0,1,111.94-.919a3.866,3.866,0,0,1-1.051-2.838v-.22a4.755,4.755,0,0,1,.458-2.12,3.484,3.484,0,0,1,1.285-1.454,3.4,3.4,0,0,1,1.846-.52,3.11,3.11,0,0,1,2.5,1.033,4.367,4.367,0,0,1,.883,2.922V-3.4h-5.178a2.38,2.38,0,0,0,.656,1.553,1.968,1.968,0,0,0,1.447.571,2.41,2.41,0,0,0,1.992-.989l.959.916a3.2,3.2,0,0,1-1.271,1.1A3.978,3.978,0,0,1,114.683.146Zm-.212-6.79a1.5,1.5,0,0,0-1.183.513,2.657,2.657,0,0,0-.575,1.428H116.1v-.132a2.163,2.163,0,0,0-.476-1.351A1.487,1.487,0,0,0,114.47-6.643Z" transform="translate(245.572 178.493)"/>
    <path id="Trazado_634760" data-name="Trazado 634760" d="M6.819-3.8H8.145v1.428H6.819V0H5.039V-2.373H.432L.381-3.457l4.6-7.207H6.819Zm-4.57,0H5.039V-8.254l-.132.234Zm17.864-.081a4.718,4.718,0,0,1-.835,2.933A2.674,2.674,0,0,1,17.036.146,2.692,2.692,0,0,1,14.949-.71V3.047h-1.78V-7.925H14.81l.073.806a2.614,2.614,0,0,1,2.131-.952,2.7,2.7,0,0,1,2.274,1.08,4.844,4.844,0,0,1,.824,3ZM18.34-4.036a3.305,3.305,0,0,0-.472-1.882,1.536,1.536,0,0,0-1.351-.7,1.638,1.638,0,0,0-1.567.9V-2.2a1.653,1.653,0,0,0,1.582.923,1.534,1.534,0,0,0,1.329-.685A3.638,3.638,0,0,0,18.34-4.036ZM26.353,0a2.747,2.747,0,0,1-.205-.74,2.77,2.77,0,0,1-2.08.886,2.8,2.8,0,0,1-1.948-.681,2.179,2.179,0,0,1-.754-1.685,2.25,2.25,0,0,1,.941-1.945A4.561,4.561,0,0,1,25-4.841h1.091v-.52a1.388,1.388,0,0,0-.344-.985,1.365,1.365,0,0,0-1.047-.37,1.568,1.568,0,0,0-1,.3.941.941,0,0,0-.388.773h-1.78a1.975,1.975,0,0,1,.432-1.219,2.879,2.879,0,0,1,1.176-.89A4.129,4.129,0,0,1,24.8-8.071a3.325,3.325,0,0,1,2.219.7,2.494,2.494,0,0,1,.85,1.967v3.574a4.051,4.051,0,0,0,.3,1.707V0ZM24.4-1.282a2.025,2.025,0,0,0,.992-.256,1.713,1.713,0,0,0,.7-.688V-3.721h-.959a2.624,2.624,0,0,0-1.487.344,1.115,1.115,0,0,0-.5.974,1.04,1.04,0,0,0,.341.817A1.319,1.319,0,0,0,24.4-1.282ZM33.882-6.3a4.4,4.4,0,0,0-.725-.059,1.633,1.633,0,0,0-1.648.938V0h-1.78V-7.925h1.7l.044.886a2.005,2.005,0,0,1,1.787-1.033,1.666,1.666,0,0,1,.63.1Zm4.081-3.552v1.926h1.4v1.318h-1.4v4.424a.974.974,0,0,0,.179.656.832.832,0,0,0,.641.2,2.742,2.742,0,0,0,.623-.073V-.022a4.383,4.383,0,0,1-1.172.168q-2.051,0-2.051-2.263v-4.49h-1.3V-7.925h1.3V-9.851Zm6.248,10A3.682,3.682,0,0,1,41.467-.919a3.866,3.866,0,0,1-1.051-2.838v-.22a4.755,4.755,0,0,1,.458-2.12,3.484,3.484,0,0,1,1.285-1.454,3.4,3.4,0,0,1,1.846-.52,3.11,3.11,0,0,1,2.5,1.033,4.367,4.367,0,0,1,.883,2.922V-3.4H42.211a2.38,2.38,0,0,0,.656,1.553,1.968,1.968,0,0,0,1.447.571A2.41,2.41,0,0,0,46.3-2.263l.959.916a3.2,3.2,0,0,1-1.271,1.1A3.978,3.978,0,0,1,44.21.146ZM44-6.643a1.5,1.5,0,0,0-1.183.513A2.657,2.657,0,0,0,42.24-4.7h3.391v-.132a2.163,2.163,0,0,0-.476-1.351A1.487,1.487,0,0,0,44-6.643Zm9.214,4.49a.807.807,0,0,0-.392-.725,4.167,4.167,0,0,0-1.3-.439A6.683,6.683,0,0,1,50-3.8a2.023,2.023,0,0,1-1.333-1.868,2.109,2.109,0,0,1,.864-1.714,3.417,3.417,0,0,1,2.2-.688,3.555,3.555,0,0,1,2.3.7A2.231,2.231,0,0,1,54.9-5.544h-1.78a1.1,1.1,0,0,0-.381-.853,1.46,1.46,0,0,0-1.011-.341,1.577,1.577,0,0,0-.956.271.854.854,0,0,0-.37.725.721.721,0,0,0,.344.637,4.734,4.734,0,0,0,1.392.458,6.587,6.587,0,0,1,1.644.549,2.328,2.328,0,0,1,.886.765,1.952,1.952,0,0,1,.289,1.084,2.065,2.065,0,0,1-.886,1.732,3.779,3.779,0,0,1-2.322.663,4.1,4.1,0,0,1-1.736-.352,2.857,2.857,0,0,1-1.187-.967A2.288,2.288,0,0,1,48.407-2.5h1.729a1.254,1.254,0,0,0,.476.97,1.85,1.85,0,0,0,1.165.341,1.8,1.8,0,0,0,1.069-.267A.827.827,0,0,0,53.212-2.153Zm6.7-1.882a4.673,4.673,0,0,1,.461-2.1,3.37,3.37,0,0,1,1.3-1.436,3.653,3.653,0,0,1,1.919-.5,3.462,3.462,0,0,1,2.6,1.033A4.062,4.062,0,0,1,67.274-4.3l.007.417a4.715,4.715,0,0,1-.45,2.095A3.329,3.329,0,0,1,65.542-.359,3.679,3.679,0,0,1,63.6.146,3.438,3.438,0,0,1,60.92-.97a4.278,4.278,0,0,1-1.007-2.977Zm1.78.154A3.193,3.193,0,0,0,62.2-1.967a1.643,1.643,0,0,0,1.406.692,1.625,1.625,0,0,0,1.4-.7,3.527,3.527,0,0,0,.5-2.058,3.152,3.152,0,0,0-.516-1.9,1.649,1.649,0,0,0-1.4-.7,1.634,1.634,0,0,0-1.384.692A3.46,3.46,0,0,0,61.693-3.882Z" transform="translate(274.436 198.939)"/>
    <path id="Trazado_634761" data-name="Trazado 634761" d="M3.142-9.851v1.926h1.4v1.318h-1.4v4.424a.974.974,0,0,0,.179.656.832.832,0,0,0,.641.2A2.742,2.742,0,0,0,4.585-1.4V-.022A4.383,4.383,0,0,1,3.413.146q-2.051,0-2.051-2.263v-4.49H.059V-7.925h1.3V-9.851ZM7.793,0H6.013V-7.925h1.78ZM5.9-9.983a.945.945,0,0,1,.26-.681.982.982,0,0,1,.743-.271,1,1,0,0,1,.747.271.937.937,0,0,1,.264.681.916.916,0,0,1-.264.67,1,1,0,0,1-.747.267.99.99,0,0,1-.743-.267A.923.923,0,0,1,5.9-9.983ZM13.22.146A3.682,3.682,0,0,1,10.477-.919,3.866,3.866,0,0,1,9.426-3.757v-.22A4.755,4.755,0,0,1,9.884-6.1a3.484,3.484,0,0,1,1.285-1.454,3.4,3.4,0,0,1,1.846-.52,3.11,3.11,0,0,1,2.5,1.033A4.367,4.367,0,0,1,16.4-4.116V-3.4H11.221a2.38,2.38,0,0,0,.656,1.553,1.968,1.968,0,0,0,1.447.571,2.41,2.41,0,0,0,1.992-.989l.959.916A3.2,3.2,0,0,1,15-.245,3.978,3.978,0,0,1,13.22.146Zm-.212-6.79a1.5,1.5,0,0,0-1.183.513A2.657,2.657,0,0,0,11.25-4.7h3.391v-.132a2.163,2.163,0,0,0-.476-1.351A1.487,1.487,0,0,0,13.008-6.643Zm6.445-1.282L19.5-7.1a2.852,2.852,0,0,1,2.285-.974,2.191,2.191,0,0,1,2.175,1.216A2.811,2.811,0,0,1,26.4-8.071a2.471,2.471,0,0,1,1.952.725A3.192,3.192,0,0,1,29-5.208V0h-1.78V-5.156a1.576,1.576,0,0,0-.33-1.106A1.443,1.443,0,0,0,25.8-6.614a1.482,1.482,0,0,0-.992.326,1.719,1.719,0,0,0-.538.853L24.28,0H22.5V-5.215a1.27,1.27,0,0,0-1.428-1.4,1.567,1.567,0,0,0-1.516.872V0h-1.78V-7.925ZM37.771-3.882a4.718,4.718,0,0,1-.835,2.933A2.674,2.674,0,0,1,34.695.146,2.692,2.692,0,0,1,32.607-.71V3.047h-1.78V-7.925h1.641l.073.806a2.614,2.614,0,0,1,2.131-.952,2.7,2.7,0,0,1,2.274,1.08,4.844,4.844,0,0,1,.824,3ZM36-4.036a3.305,3.305,0,0,0-.472-1.882,1.536,1.536,0,0,0-1.351-.7,1.638,1.638,0,0,0-1.567.9V-2.2a1.653,1.653,0,0,0,1.582.923,1.534,1.534,0,0,0,1.329-.685A3.638,3.638,0,0,0,36-4.036Zm2.944,0a4.673,4.673,0,0,1,.461-2.1A3.37,3.37,0,0,1,40.7-7.57a3.653,3.653,0,0,1,1.919-.5,3.462,3.462,0,0,1,2.6,1.033A4.062,4.062,0,0,1,46.3-4.3l.007.417a4.715,4.715,0,0,1-.45,2.095A3.329,3.329,0,0,1,44.572-.359a3.679,3.679,0,0,1-1.937.505A3.438,3.438,0,0,1,39.95-.97a4.278,4.278,0,0,1-1.007-2.977Zm1.78.154a3.193,3.193,0,0,0,.505,1.915,1.643,1.643,0,0,0,1.406.692,1.625,1.625,0,0,0,1.4-.7,3.527,3.527,0,0,0,.5-2.058,3.152,3.152,0,0,0-.516-1.9,1.649,1.649,0,0,0-1.4-.7,1.634,1.634,0,0,0-1.384.692A3.46,3.46,0,0,0,40.723-3.882ZM52.258-2.153a.807.807,0,0,0-.392-.725,4.167,4.167,0,0,0-1.3-.439A6.683,6.683,0,0,1,49.05-3.8a2.023,2.023,0,0,1-1.333-1.868,2.109,2.109,0,0,1,.864-1.714,3.417,3.417,0,0,1,2.2-.688,3.555,3.555,0,0,1,2.3.7,2.231,2.231,0,0,1,.875,1.824H52.17A1.1,1.1,0,0,0,51.79-6.4a1.46,1.46,0,0,0-1.011-.341,1.577,1.577,0,0,0-.956.271.854.854,0,0,0-.37.725A.721.721,0,0,0,49.8-5.1a4.734,4.734,0,0,0,1.392.458,6.587,6.587,0,0,1,1.644.549,2.328,2.328,0,0,1,.886.765,1.952,1.952,0,0,1,.289,1.084,2.065,2.065,0,0,1-.886,1.732A3.779,3.779,0,0,1,50.8.146a4.1,4.1,0,0,1-1.736-.352,2.857,2.857,0,0,1-1.187-.967A2.288,2.288,0,0,1,47.454-2.5h1.729a1.254,1.254,0,0,0,.476.97,1.85,1.85,0,0,0,1.165.341,1.8,1.8,0,0,0,1.069-.267A.827.827,0,0,0,52.258-2.153Z" transform="translate(279.066 219.387)"/>
    <path id="Trazado_634762" data-name="Trazado 634762" d="M7.317-4.761H2.937v3.281h5.12V0H1.084V-10.664H8.005V-9.17H2.937v2.944h4.38ZM11.287,0H9.507V-11.25h1.78Z" transform="translate(716.223 137.429)"/>
    <path id="Trazado_634763" data-name="Trazado 634763" d="M.579-4.021a4.712,4.712,0,0,1,.85-2.941,2.722,2.722,0,0,1,2.278-1.11,2.587,2.587,0,0,1,2.036.879V-11.25h1.78V0H5.911L5.823-.82A2.624,2.624,0,0,1,3.691.146,2.707,2.707,0,0,1,1.439-.974,4.884,4.884,0,0,1,.579-4.021Zm1.78.154a3.3,3.3,0,0,0,.465,1.886A1.509,1.509,0,0,0,4.146-1.3a1.681,1.681,0,0,0,1.6-.974V-5.662A1.655,1.655,0,0,0,4.16-6.614a1.52,1.52,0,0,0-1.333.685A3.674,3.674,0,0,0,2.358-3.867ZM12.869.146A3.682,3.682,0,0,1,10.126-.919,3.866,3.866,0,0,1,9.075-3.757v-.22A4.755,4.755,0,0,1,9.532-6.1a3.484,3.484,0,0,1,1.285-1.454,3.4,3.4,0,0,1,1.846-.52,3.11,3.11,0,0,1,2.5,1.033,4.367,4.367,0,0,1,.883,2.922V-3.4H10.869a2.38,2.38,0,0,0,.656,1.553,1.968,1.968,0,0,0,1.447.571,2.41,2.41,0,0,0,1.992-.989l.959.916a3.2,3.2,0,0,1-1.271,1.1A3.978,3.978,0,0,1,12.869.146Zm-.212-6.79a1.5,1.5,0,0,0-1.183.513A2.657,2.657,0,0,0,10.9-4.7H14.29v-.132a2.163,2.163,0,0,0-.476-1.351A1.487,1.487,0,0,0,12.656-6.643ZM19.08-7.925l.051.916a2.849,2.849,0,0,1,2.307-1.062q2.476,0,2.52,2.834V0h-1.78V-5.134a1.632,1.632,0,0,0-.326-1.117,1.371,1.371,0,0,0-1.066-.363,1.715,1.715,0,0,0-1.6.974V0H17.4V-7.925Zm6.357,3.889a4.673,4.673,0,0,1,.461-2.1,3.37,3.37,0,0,1,1.3-1.436,3.653,3.653,0,0,1,1.919-.5,3.462,3.462,0,0,1,2.6,1.033A4.062,4.062,0,0,1,32.8-4.3l.007.417a4.715,4.715,0,0,1-.45,2.095A3.329,3.329,0,0,1,31.066-.359a3.679,3.679,0,0,1-1.937.505A3.438,3.438,0,0,1,26.444-.97a4.278,4.278,0,0,1-1.007-2.977Zm1.78.154a3.193,3.193,0,0,0,.505,1.915,1.643,1.643,0,0,0,1.406.692,1.625,1.625,0,0,0,1.4-.7,3.527,3.527,0,0,0,.5-2.058,3.152,3.152,0,0,0-.516-1.9,1.649,1.649,0,0,0-1.4-.7,1.634,1.634,0,0,0-1.384.692A3.46,3.46,0,0,0,27.217-3.882Zm8.767-4.043.051.828a2.852,2.852,0,0,1,2.285-.974A2.191,2.191,0,0,1,40.5-6.855a2.811,2.811,0,0,1,2.432-1.216,2.471,2.471,0,0,1,1.952.725,3.192,3.192,0,0,1,.656,2.139V0h-1.78V-5.156a1.576,1.576,0,0,0-.33-1.106,1.443,1.443,0,0,0-1.091-.352,1.482,1.482,0,0,0-.992.326,1.719,1.719,0,0,0-.538.853L40.811,0h-1.78V-5.215a1.27,1.27,0,0,0-1.428-1.4,1.567,1.567,0,0,0-1.516.872V0h-1.78V-7.925ZM49.255,0h-1.78V-7.925h1.78Zm-1.89-9.983a.945.945,0,0,1,.26-.681.982.982,0,0,1,.743-.271,1,1,0,0,1,.747.271.937.937,0,0,1,.264.681.916.916,0,0,1-.264.67,1,1,0,0,1-.747.267.99.99,0,0,1-.743-.267A.923.923,0,0,1,47.366-9.983Zm5.479,2.058.051.916A2.849,2.849,0,0,1,55.2-8.071q2.476,0,2.52,2.834V0h-1.78V-5.134a1.632,1.632,0,0,0-.326-1.117,1.371,1.371,0,0,0-1.066-.363,1.715,1.715,0,0,0-1.6.974V0h-1.78V-7.925ZM64.27,0a2.747,2.747,0,0,1-.205-.74,2.77,2.77,0,0,1-2.08.886,2.8,2.8,0,0,1-1.948-.681,2.179,2.179,0,0,1-.754-1.685,2.25,2.25,0,0,1,.941-1.945,4.561,4.561,0,0,1,2.692-.677h1.091v-.52a1.388,1.388,0,0,0-.344-.985,1.365,1.365,0,0,0-1.047-.37,1.568,1.568,0,0,0-1,.3.941.941,0,0,0-.388.773h-1.78a1.975,1.975,0,0,1,.432-1.219,2.879,2.879,0,0,1,1.176-.89,4.129,4.129,0,0,1,1.659-.322,3.325,3.325,0,0,1,2.219.7,2.494,2.494,0,0,1,.85,1.967v3.574a4.051,4.051,0,0,0,.3,1.707V0ZM62.314-1.282a2.025,2.025,0,0,0,.992-.256,1.713,1.713,0,0,0,.7-.688V-3.721h-.959a2.624,2.624,0,0,0-1.487.344,1.115,1.115,0,0,0-.5.974,1.04,1.04,0,0,0,.341.817A1.319,1.319,0,0,0,62.314-1.282Zm5-2.739a4.712,4.712,0,0,1,.85-2.941,2.722,2.722,0,0,1,2.278-1.11,2.587,2.587,0,0,1,2.036.879V-11.25h1.78V0H72.649l-.088-.82A2.624,2.624,0,0,1,70.43.146,2.707,2.707,0,0,1,68.177-.974,4.884,4.884,0,0,1,67.317-4.021Zm1.78.154a3.3,3.3,0,0,0,.465,1.886,1.509,1.509,0,0,0,1.322.677,1.681,1.681,0,0,0,1.6-.974V-5.662A1.655,1.655,0,0,0,70.9-6.614a1.52,1.52,0,0,0-1.333.685A3.674,3.674,0,0,0,69.1-3.867Zm6.687-.168a4.673,4.673,0,0,1,.461-2.1,3.37,3.37,0,0,1,1.3-1.436,3.653,3.653,0,0,1,1.919-.5,3.462,3.462,0,0,1,2.6,1.033A4.062,4.062,0,0,1,83.145-4.3l.007.417a4.715,4.715,0,0,1-.45,2.095A3.329,3.329,0,0,1,81.412-.359a3.679,3.679,0,0,1-1.937.505A3.438,3.438,0,0,1,76.791-.97a4.278,4.278,0,0,1-1.007-2.977Zm1.78.154a3.193,3.193,0,0,0,.505,1.915,1.643,1.643,0,0,0,1.406.692,1.625,1.625,0,0,0,1.4-.7,3.527,3.527,0,0,0,.5-2.058,3.152,3.152,0,0,0-.516-1.9,1.649,1.649,0,0,0-1.4-.7,1.634,1.634,0,0,0-1.384.692A3.46,3.46,0,0,0,77.563-3.882ZM88.806-6.3a4.4,4.4,0,0,0-.725-.059,1.633,1.633,0,0,0-1.648.938V0h-1.78V-7.925h1.7l.044.886a2.005,2.005,0,0,1,1.787-1.033,1.666,1.666,0,0,1,.63.1Z" transform="translate(672.654 157.876)"/>
    <path id="Trazado_634764" data-name="Trazado 634764" d="M10.554-3.8H11.88v1.428H10.554V0H8.774V-2.373H4.167L4.116-3.457l4.6-7.207h1.838Zm-4.57,0H8.774V-8.254l-.132.234ZM18.8,0h-1.78V-7.925H18.8Zm-1.89-9.983a.945.945,0,0,1,.26-.681.982.982,0,0,1,.743-.271,1,1,0,0,1,.747.271.937.937,0,0,1,.264.681.916.916,0,0,1-.264.67,1,1,0,0,1-.747.267.99.99,0,0,1-.743-.267A.923.923,0,0,1,16.912-9.983ZM22.39-7.925l.051.916a2.849,2.849,0,0,1,2.307-1.062q2.476,0,2.52,2.834V0h-1.78V-5.134a1.632,1.632,0,0,0-.326-1.117A1.371,1.371,0,0,0,24.1-6.614a1.715,1.715,0,0,0-1.6.974V0h-1.78V-7.925Zm6.357,3.9a4.712,4.712,0,0,1,.85-2.941,2.722,2.722,0,0,1,2.278-1.11,2.587,2.587,0,0,1,2.036.879V-11.25h1.78V0H34.08l-.088-.82A2.624,2.624,0,0,1,31.86.146,2.707,2.707,0,0,1,29.608-.974,4.884,4.884,0,0,1,28.748-4.021Zm1.78.154a3.3,3.3,0,0,0,.465,1.886,1.509,1.509,0,0,0,1.322.677,1.681,1.681,0,0,0,1.6-.974V-5.662a1.655,1.655,0,0,0-1.582-.952A1.52,1.52,0,0,0,31-5.929,3.674,3.674,0,0,0,30.527-3.867ZM39.441,0h-1.78V-7.925h1.78Zm-1.89-9.983a.945.945,0,0,1,.26-.681.982.982,0,0,1,.743-.271,1,1,0,0,1,.747.271.937.937,0,0,1,.264.681.916.916,0,0,1-.264.67,1,1,0,0,1-.747.267.99.99,0,0,1-.743-.267A.923.923,0,0,1,37.551-9.983Zm7.083,8.708a1.609,1.609,0,0,0,1.106-.388,1.326,1.326,0,0,0,.469-.959h1.677a2.614,2.614,0,0,1-.461,1.381A3.027,3.027,0,0,1,46.252-.227a3.492,3.492,0,0,1-1.6.374A3.379,3.379,0,0,1,42.019-.93,4.27,4.27,0,0,1,41.045-3.9v-.183a4.2,4.2,0,0,1,.967-2.9,3.348,3.348,0,0,1,2.637-1.088,3.256,3.256,0,0,1,2.3.824,2.952,2.952,0,0,1,.934,2.164H46.208A1.63,1.63,0,0,0,45.743-6.2a1.5,1.5,0,0,0-1.11-.439,1.566,1.566,0,0,0-1.333.626,3.2,3.2,0,0,0-.476,1.9v.286a3.248,3.248,0,0,0,.465,1.923A1.565,1.565,0,0,0,44.634-1.274ZM53.965,0a2.747,2.747,0,0,1-.205-.74,2.77,2.77,0,0,1-2.08.886,2.8,2.8,0,0,1-1.948-.681,2.179,2.179,0,0,1-.754-1.685,2.25,2.25,0,0,1,.941-1.945,4.561,4.561,0,0,1,2.692-.677H53.7v-.52a1.388,1.388,0,0,0-.344-.985,1.365,1.365,0,0,0-1.047-.37,1.568,1.568,0,0,0-1,.3.941.941,0,0,0-.388.773h-1.78a1.975,1.975,0,0,1,.432-1.219,2.879,2.879,0,0,1,1.176-.89,4.129,4.129,0,0,1,1.659-.322,3.325,3.325,0,0,1,2.219.7,2.494,2.494,0,0,1,.85,1.967v3.574a4.051,4.051,0,0,0,.3,1.707V0ZM52.009-1.282A2.025,2.025,0,0,0,53-1.538a1.713,1.713,0,0,0,.7-.688V-3.721h-.959a2.624,2.624,0,0,0-1.487.344,1.115,1.115,0,0,0-.5.974,1.04,1.04,0,0,0,.341.817A1.319,1.319,0,0,0,52.009-1.282Zm8.738-2.747A4.683,4.683,0,0,1,61.6-6.98a2.761,2.761,0,0,1,2.3-1.091,2.6,2.6,0,0,1,2.1.93l.1-.784h1.582V3.047H65.9V-.674a2.656,2.656,0,0,1-2.021.82A2.735,2.735,0,0,1,61.6-.963,4.9,4.9,0,0,1,60.747-4.028Zm1.78.154a3.307,3.307,0,0,0,.48,1.908,1.529,1.529,0,0,0,1.329.692,1.686,1.686,0,0,0,1.567-.9v-3.6a1.687,1.687,0,0,0-1.553-.864,1.555,1.555,0,0,0-1.337.681A3.608,3.608,0,0,0,62.527-3.875ZM74.4-.776a2.76,2.76,0,0,1-2.227.923,2.46,2.46,0,0,1-1.952-.754,3.209,3.209,0,0,1-.663-2.183V-7.925h1.78v5.112q0,1.509,1.252,1.509a1.759,1.759,0,0,0,1.75-.93V-7.925h1.78V0H74.443Zm7.024.923A3.682,3.682,0,0,1,78.68-.919a3.866,3.866,0,0,1-1.051-2.838v-.22a4.755,4.755,0,0,1,.458-2.12,3.484,3.484,0,0,1,1.285-1.454,3.4,3.4,0,0,1,1.846-.52,3.11,3.11,0,0,1,2.5,1.033A4.367,4.367,0,0,1,84.6-4.116V-3.4H79.424a2.38,2.38,0,0,0,.656,1.553,1.968,1.968,0,0,0,1.447.571,2.41,2.41,0,0,0,1.992-.989l.959.916a3.2,3.2,0,0,1-1.271,1.1A3.978,3.978,0,0,1,81.423.146Zm-.212-6.79a1.5,1.5,0,0,0-1.183.513A2.657,2.657,0,0,0,79.453-4.7h3.391v-.132a2.163,2.163,0,0,0-.476-1.351A1.487,1.487,0,0,0,81.211-6.643Z" transform="translate(674.903 178.322)"/>
    <path id="Trazado_634765" data-name="Trazado 634765" d="M4.4.146A3.682,3.682,0,0,1,1.659-.919,3.866,3.866,0,0,1,.608-3.757v-.22A4.755,4.755,0,0,1,1.066-6.1,3.484,3.484,0,0,1,2.351-7.551,3.4,3.4,0,0,1,4.2-8.071,3.11,3.11,0,0,1,6.7-7.039a4.367,4.367,0,0,1,.883,2.922V-3.4H2.4a2.38,2.38,0,0,0,.656,1.553A1.968,1.968,0,0,0,4.5-1.274,2.41,2.41,0,0,0,6.5-2.263l.959.916a3.2,3.2,0,0,1-1.271,1.1A3.978,3.978,0,0,1,4.4.146Zm-.212-6.79a1.5,1.5,0,0,0-1.183.513A2.657,2.657,0,0,0,2.432-4.7H5.823v-.132a2.163,2.163,0,0,0-.476-1.351A1.487,1.487,0,0,0,4.189-6.643Zm6.423-1.282.051.916a2.849,2.849,0,0,1,2.307-1.062q2.476,0,2.52,2.834V0h-1.78V-5.134a1.632,1.632,0,0,0-.326-1.117,1.371,1.371,0,0,0-1.066-.363,1.715,1.715,0,0,0-1.6.974V0H8.936V-7.925Zm8.921-1.926v1.926h1.4v1.318h-1.4v4.424a.974.974,0,0,0,.179.656.832.832,0,0,0,.641.2,2.742,2.742,0,0,0,.623-.073V-.022A4.383,4.383,0,0,1,19.8.146q-2.051,0-2.051-2.263v-4.49h-1.3V-7.925h1.3V-9.851ZM26.44-6.3a4.4,4.4,0,0,0-.725-.059,1.633,1.633,0,0,0-1.648.938V0h-1.78V-7.925h1.7l.044.886a2.005,2.005,0,0,1,1.787-1.033,1.666,1.666,0,0,1,.63.1ZM31.855,0a2.747,2.747,0,0,1-.205-.74,2.77,2.77,0,0,1-2.08.886,2.8,2.8,0,0,1-1.948-.681,2.179,2.179,0,0,1-.754-1.685,2.25,2.25,0,0,1,.941-1.945A4.561,4.561,0,0,1,30.5-4.841h1.091v-.52a1.388,1.388,0,0,0-.344-.985,1.365,1.365,0,0,0-1.047-.37,1.568,1.568,0,0,0-1,.3.941.941,0,0,0-.388.773h-1.78a1.975,1.975,0,0,1,.432-1.219,2.879,2.879,0,0,1,1.176-.89A4.129,4.129,0,0,1,30.3-8.071a3.325,3.325,0,0,1,2.219.7,2.494,2.494,0,0,1,.85,1.967v3.574a4.051,4.051,0,0,0,.3,1.707V0ZM29.9-1.282a2.025,2.025,0,0,0,.992-.256,1.713,1.713,0,0,0,.7-.688V-3.721h-.959a2.624,2.624,0,0,0-1.487.344,1.115,1.115,0,0,0-.5.974,1.04,1.04,0,0,0,.341.817A1.319,1.319,0,0,0,29.9-1.282Zm13.872.505a2.76,2.76,0,0,1-2.227.923,2.46,2.46,0,0,1-1.952-.754,3.209,3.209,0,0,1-.663-2.183V-7.925h1.78v5.112q0,1.509,1.252,1.509a1.759,1.759,0,0,0,1.75-.93V-7.925h1.78V0H43.816Zm5.186-7.148.051.916a2.849,2.849,0,0,1,2.307-1.062q2.476,0,2.52,2.834V0h-1.78V-5.134a1.632,1.632,0,0,0-.326-1.117,1.371,1.371,0,0,0-1.066-.363,1.715,1.715,0,0,0-1.6.974V0H47.28V-7.925ZM60.383,0a2.747,2.747,0,0,1-.205-.74A2.77,2.77,0,0,1,58.1.146,2.8,2.8,0,0,1,56.15-.535,2.179,2.179,0,0,1,55.4-2.219a2.25,2.25,0,0,1,.941-1.945,4.561,4.561,0,0,1,2.692-.677h1.091v-.52a1.388,1.388,0,0,0-.344-.985,1.365,1.365,0,0,0-1.047-.37,1.568,1.568,0,0,0-1,.3.941.941,0,0,0-.388.773h-1.78A1.975,1.975,0,0,1,56-6.859a2.879,2.879,0,0,1,1.176-.89,4.129,4.129,0,0,1,1.659-.322,3.325,3.325,0,0,1,2.219.7,2.494,2.494,0,0,1,.85,1.967v3.574a4.051,4.051,0,0,0,.3,1.707V0ZM58.427-1.282a2.025,2.025,0,0,0,.992-.256,1.713,1.713,0,0,0,.7-.688V-3.721H59.16a2.624,2.624,0,0,0-1.487.344,1.115,1.115,0,0,0-.5.974,1.04,1.04,0,0,0,.341.817A1.319,1.319,0,0,0,58.427-1.282Z" transform="translate(687.393 198.768)"/>
    <path id="Trazado_634766" data-name="Trazado 634766" d="M2.563-7.925l.051.916A2.849,2.849,0,0,1,4.922-8.071q2.476,0,2.52,2.834V0H5.662V-5.134a1.632,1.632,0,0,0-.326-1.117A1.371,1.371,0,0,0,4.27-6.614a1.715,1.715,0,0,0-1.6.974V0H.886V-7.925ZM12.744.146A3.682,3.682,0,0,1,10-.919,3.866,3.866,0,0,1,8.95-3.757v-.22A4.755,4.755,0,0,1,9.408-6.1a3.484,3.484,0,0,1,1.285-1.454,3.4,3.4,0,0,1,1.846-.52,3.11,3.11,0,0,1,2.5,1.033,4.367,4.367,0,0,1,.883,2.922V-3.4H10.745A2.38,2.38,0,0,0,11.4-1.846a1.968,1.968,0,0,0,1.447.571,2.41,2.41,0,0,0,1.992-.989l.959.916a3.2,3.2,0,0,1-1.271,1.1A3.978,3.978,0,0,1,12.744.146Zm-.212-6.79a1.5,1.5,0,0,0-1.183.513A2.657,2.657,0,0,0,10.774-4.7h3.391v-.132a2.163,2.163,0,0,0-.476-1.351A1.487,1.487,0,0,0,12.532-6.643Zm4.46,2.622a4.635,4.635,0,0,1,.868-2.948,2.786,2.786,0,0,1,2.3-1.1,2.61,2.61,0,0,1,2.131.945l.081-.8h1.6V-.242a3.193,3.193,0,0,1-.97,2.461,3.7,3.7,0,0,1-2.618.9,4.22,4.22,0,0,1-1.7-.363,3.026,3.026,0,0,1-1.263-.948L18.267.74a2.544,2.544,0,0,0,2.021.974,1.966,1.966,0,0,0,1.4-.48A1.839,1.839,0,0,0,22.2-.176V-.71a2.62,2.62,0,0,1-2.051.857A2.779,2.779,0,0,1,17.875-.959,4.785,4.785,0,0,1,16.992-4.021Zm1.772.154a3.191,3.191,0,0,0,.487,1.879A1.566,1.566,0,0,0,20.6-1.3a1.713,1.713,0,0,0,1.6-.923V-5.713a1.688,1.688,0,0,0-1.582-.9,1.572,1.572,0,0,0-1.366.7A3.572,3.572,0,0,0,18.765-3.867ZM29.956-6.3a4.4,4.4,0,0,0-.725-.059,1.633,1.633,0,0,0-1.648.938V0H25.8V-7.925h1.7l.044.886a2.005,2.005,0,0,1,1.787-1.033,1.666,1.666,0,0,1,.63.1ZM35.386,0a2.747,2.747,0,0,1-.205-.74A2.77,2.77,0,0,1,33.1.146a2.8,2.8,0,0,1-1.948-.681A2.179,2.179,0,0,1,30.4-2.219a2.25,2.25,0,0,1,.941-1.945,4.561,4.561,0,0,1,2.692-.677h1.091v-.52a1.388,1.388,0,0,0-.344-.985,1.365,1.365,0,0,0-1.047-.37,1.568,1.568,0,0,0-1,.3.941.941,0,0,0-.388.773h-1.78A1.975,1.975,0,0,1,31-6.859a2.879,2.879,0,0,1,1.176-.89,4.129,4.129,0,0,1,1.659-.322,3.325,3.325,0,0,1,2.219.7,2.494,2.494,0,0,1,.85,1.967v3.574a4.051,4.051,0,0,0,.3,1.707V0ZM33.43-1.282a2.025,2.025,0,0,0,.992-.256,1.713,1.713,0,0,0,.7-.688V-3.721h-.959a2.624,2.624,0,0,0-1.487.344,1.115,1.115,0,0,0-.5.974,1.04,1.04,0,0,0,.341.817A1.319,1.319,0,0,0,33.43-1.282ZM45.991.146A3.682,3.682,0,0,1,43.248-.919,3.866,3.866,0,0,1,42.2-3.757v-.22a4.755,4.755,0,0,1,.458-2.12A3.484,3.484,0,0,1,43.94-7.551a3.4,3.4,0,0,1,1.846-.52,3.11,3.11,0,0,1,2.5,1.033,4.367,4.367,0,0,1,.883,2.922V-3.4H43.992a2.38,2.38,0,0,0,.656,1.553,1.968,1.968,0,0,0,1.447.571,2.41,2.41,0,0,0,1.992-.989l.959.916a3.2,3.2,0,0,1-1.271,1.1A3.978,3.978,0,0,1,45.991.146Zm-.212-6.79A1.5,1.5,0,0,0,44.6-6.13,2.657,2.657,0,0,0,44.021-4.7h3.391v-.132a2.163,2.163,0,0,0-.476-1.351A1.487,1.487,0,0,0,45.779-6.643ZM52.2-7.925l.051.916a2.849,2.849,0,0,1,2.307-1.062q2.476,0,2.52,2.834V0H55.3V-5.134a1.632,1.632,0,0,0-.326-1.117,1.371,1.371,0,0,0-1.066-.363,1.715,1.715,0,0,0-1.6.974V0h-1.78V-7.925Zm13.682,6.65a1.609,1.609,0,0,0,1.106-.388,1.326,1.326,0,0,0,.469-.959h1.677a2.614,2.614,0,0,1-.461,1.381A3.027,3.027,0,0,1,67.5-.227a3.492,3.492,0,0,1-1.6.374A3.379,3.379,0,0,1,63.269-.93,4.27,4.27,0,0,1,62.295-3.9v-.183a4.2,4.2,0,0,1,.967-2.9A3.348,3.348,0,0,1,65.9-8.071a3.256,3.256,0,0,1,2.3.824,2.952,2.952,0,0,1,.934,2.164H67.458A1.63,1.63,0,0,0,66.993-6.2a1.5,1.5,0,0,0-1.11-.439,1.566,1.566,0,0,0-1.333.626,3.2,3.2,0,0,0-.476,1.9v.286a3.248,3.248,0,0,0,.465,1.923A1.565,1.565,0,0,0,65.884-1.274ZM75.215,0a2.747,2.747,0,0,1-.205-.74,2.77,2.77,0,0,1-2.08.886,2.8,2.8,0,0,1-1.948-.681,2.179,2.179,0,0,1-.754-1.685,2.25,2.25,0,0,1,.941-1.945,4.561,4.561,0,0,1,2.692-.677h1.091v-.52a1.388,1.388,0,0,0-.344-.985,1.365,1.365,0,0,0-1.047-.37,1.568,1.568,0,0,0-1,.3.941.941,0,0,0-.388.773H70.4a1.975,1.975,0,0,1,.432-1.219A2.879,2.879,0,0,1,72-7.749a4.129,4.129,0,0,1,1.659-.322,3.325,3.325,0,0,1,2.219.7,2.494,2.494,0,0,1,.85,1.967v3.574a4.051,4.051,0,0,0,.3,1.707V0ZM73.259-1.282a2.025,2.025,0,0,0,.992-.256,1.713,1.713,0,0,0,.7-.688V-3.721h-.959a2.624,2.624,0,0,0-1.487.344,1.115,1.115,0,0,0-.5.974,1.04,1.04,0,0,0,.341.817A1.319,1.319,0,0,0,73.259-1.282Zm5-2.739a4.712,4.712,0,0,1,.85-2.941,2.722,2.722,0,0,1,2.278-1.11,2.587,2.587,0,0,1,2.036.879V-11.25h1.78V0H83.594l-.088-.82a2.624,2.624,0,0,1-2.131.967A2.707,2.707,0,0,1,79.122-.974,4.884,4.884,0,0,1,78.262-4.021Zm1.78.154a3.3,3.3,0,0,0,.465,1.886,1.509,1.509,0,0,0,1.322.677,1.681,1.681,0,0,0,1.6-.974V-5.662a1.655,1.655,0,0,0-1.582-.952,1.52,1.52,0,0,0-1.333.685A3.674,3.674,0,0,0,80.041-3.867ZM91.8,0a2.747,2.747,0,0,1-.205-.74,2.77,2.77,0,0,1-2.08.886,2.8,2.8,0,0,1-1.948-.681,2.179,2.179,0,0,1-.754-1.685,2.25,2.25,0,0,1,.941-1.945,4.561,4.561,0,0,1,2.692-.677h1.091v-.52a1.388,1.388,0,0,0-.344-.985,1.365,1.365,0,0,0-1.047-.37,1.568,1.568,0,0,0-1,.3.941.941,0,0,0-.388.773h-1.78a1.975,1.975,0,0,1,.432-1.219,2.879,2.879,0,0,1,1.176-.89,4.129,4.129,0,0,1,1.659-.322,3.325,3.325,0,0,1,2.219.7,2.494,2.494,0,0,1,.85,1.967v3.574a4.051,4.051,0,0,0,.3,1.707V0ZM89.841-1.282a2.025,2.025,0,0,0,.992-.256,1.713,1.713,0,0,0,.7-.688V-3.721h-.959a2.624,2.624,0,0,0-1.487.344,1.115,1.115,0,0,0-.5.974,1.04,1.04,0,0,0,.341.817A1.319,1.319,0,0,0,89.841-1.282Z" transform="translate(669.553 219.215)"/>
    <path id="Trazado_634767" data-name="Trazado 634767" d="M6.877-9.851v1.926h1.4v1.318h-1.4v4.424a.974.974,0,0,0,.179.656.832.832,0,0,0,.641.2A2.742,2.742,0,0,0,8.32-1.4V-.022A4.383,4.383,0,0,1,7.148.146Q5.1.146,5.1-2.117v-4.49h-1.3V-7.925H5.1V-9.851ZM11.528,0H9.749V-7.925h1.78ZM9.639-9.983a.945.945,0,0,1,.26-.681.982.982,0,0,1,.743-.271,1,1,0,0,1,.747.271.937.937,0,0,1,.264.681.916.916,0,0,1-.264.67,1,1,0,0,1-.747.267A.99.99,0,0,1,9.9-9.313.923.923,0,0,1,9.639-9.983ZM16.956.146A3.682,3.682,0,0,1,14.213-.919a3.866,3.866,0,0,1-1.051-2.838v-.22a4.755,4.755,0,0,1,.458-2.12A3.484,3.484,0,0,1,14.9-7.551a3.4,3.4,0,0,1,1.846-.52,3.11,3.11,0,0,1,2.5,1.033,4.367,4.367,0,0,1,.883,2.922V-3.4H14.956a2.38,2.38,0,0,0,.656,1.553,1.968,1.968,0,0,0,1.447.571,2.41,2.41,0,0,0,1.992-.989l.959.916a3.2,3.2,0,0,1-1.271,1.1A3.978,3.978,0,0,1,16.956.146Zm-.212-6.79a1.5,1.5,0,0,0-1.183.513A2.657,2.657,0,0,0,14.985-4.7h3.391v-.132A2.163,2.163,0,0,0,17.9-6.185,1.487,1.487,0,0,0,16.743-6.643Zm6.445-1.282.051.828a2.852,2.852,0,0,1,2.285-.974A2.191,2.191,0,0,1,27.7-6.855a2.811,2.811,0,0,1,2.432-1.216,2.471,2.471,0,0,1,1.952.725,3.192,3.192,0,0,1,.656,2.139V0h-1.78V-5.156a1.576,1.576,0,0,0-.33-1.106,1.443,1.443,0,0,0-1.091-.352,1.482,1.482,0,0,0-.992.326,1.719,1.719,0,0,0-.538.853L28.015,0h-1.78V-5.215a1.27,1.27,0,0,0-1.428-1.4,1.567,1.567,0,0,0-1.516.872V0h-1.78V-7.925ZM41.506-3.882a4.718,4.718,0,0,1-.835,2.933A2.674,2.674,0,0,1,38.43.146,2.692,2.692,0,0,1,36.343-.71V3.047h-1.78V-7.925H36.2l.073.806a2.614,2.614,0,0,1,2.131-.952,2.7,2.7,0,0,1,2.274,1.08,4.844,4.844,0,0,1,.824,3Zm-1.772-.154a3.305,3.305,0,0,0-.472-1.882,1.536,1.536,0,0,0-1.351-.7,1.638,1.638,0,0,0-1.567.9V-2.2a1.653,1.653,0,0,0,1.582.923,1.534,1.534,0,0,0,1.329-.685A3.638,3.638,0,0,0,39.734-4.036Zm2.944,0a4.673,4.673,0,0,1,.461-2.1,3.37,3.37,0,0,1,1.3-1.436,3.653,3.653,0,0,1,1.919-.5,3.462,3.462,0,0,1,2.6,1.033A4.062,4.062,0,0,1,50.039-4.3l.007.417a4.715,4.715,0,0,1-.45,2.095A3.329,3.329,0,0,1,48.307-.359,3.679,3.679,0,0,1,46.37.146,3.438,3.438,0,0,1,43.685-.97a4.278,4.278,0,0,1-1.007-2.977Zm1.78.154a3.193,3.193,0,0,0,.505,1.915,1.643,1.643,0,0,0,1.406.692,1.625,1.625,0,0,0,1.4-.7,3.527,3.527,0,0,0,.5-2.058,3.152,3.152,0,0,0-.516-1.9,1.649,1.649,0,0,0-1.4-.7,1.634,1.634,0,0,0-1.384.692A3.46,3.46,0,0,0,44.458-3.882Z" transform="translate(694.447 239.662)"/>
    <path id="Trazado_634768" data-name="Trazado 634768" d="M5.713-.776A2.76,2.76,0,0,1,3.486.146,2.46,2.46,0,0,1,1.534-.608,3.209,3.209,0,0,1,.872-2.791V-7.925h1.78v5.112Q2.651-1.3,3.9-1.3a1.759,1.759,0,0,0,1.75-.93V-7.925h1.78V0H5.757Zm4.644-1.1a1.017,1.017,0,0,1,.769.282.979.979,0,0,1,.271.707.945.945,0,0,1-.271.692,1.032,1.032,0,0,1-.769.275A1.035,1.035,0,0,1,9.6-.19a.929.929,0,0,1-.278-.7.979.979,0,0,1,.271-.707A1.007,1.007,0,0,1,10.356-1.875Zm5.31-7.976v1.926h1.4v1.318h-1.4v4.424a.974.974,0,0,0,.179.656.832.832,0,0,0,.641.2,2.742,2.742,0,0,0,.623-.073V-.022a4.383,4.383,0,0,1-1.172.168q-2.051,0-2.051-2.263v-4.49h-1.3V-7.925h1.3V-9.851ZM28.623-5.713H22.31V-7.192h6.313Zm0,3.105H22.31V-4.08h6.313Z" transform="translate(381.083 294.255)"/>
    <path id="Trazado_634769" data-name="Trazado 634769" d="M5.713-.776A2.76,2.76,0,0,1,3.486.146,2.46,2.46,0,0,1,1.534-.608,3.209,3.209,0,0,1,.872-2.791V-7.925h1.78v5.112Q2.651-1.3,3.9-1.3a1.759,1.759,0,0,0,1.75-.93V-7.925h1.78V0H5.757Zm4.644-1.1a1.017,1.017,0,0,1,.769.282.979.979,0,0,1,.271.707.945.945,0,0,1-.271.692,1.032,1.032,0,0,1-.769.275A1.035,1.035,0,0,1,9.6-.19a.929.929,0,0,1-.278-.7.979.979,0,0,1,.271-.707A1.007,1.007,0,0,1,10.356-1.875Zm6.335.6A1.609,1.609,0,0,0,17.8-1.663a1.326,1.326,0,0,0,.469-.959h1.677a2.614,2.614,0,0,1-.461,1.381A3.027,3.027,0,0,1,18.311-.227a3.492,3.492,0,0,1-1.6.374A3.379,3.379,0,0,1,14.077-.93,4.27,4.27,0,0,1,13.1-3.9v-.183a4.2,4.2,0,0,1,.967-2.9,3.348,3.348,0,0,1,2.637-1.088,3.256,3.256,0,0,1,2.3.824,2.952,2.952,0,0,1,.934,2.164H18.267A1.63,1.63,0,0,0,17.8-6.2a1.5,1.5,0,0,0-1.11-.439,1.566,1.566,0,0,0-1.333.626,3.2,3.2,0,0,0-.476,1.9v.286a3.248,3.248,0,0,0,.465,1.923A1.565,1.565,0,0,0,16.692-1.274ZM31.487-5.713H25.173V-7.192h6.313Zm0,3.105H25.173V-4.08h6.313Z" transform="translate(485.685 187.761)"/>
    <g id="Grupo_1101418" data-name="Grupo 1101418">
      <g id="Grupo_1101417" data-name="Grupo 1101417" clip-path="url(#clip-path-2)">
        <path id="Trazado_634147" data-name="Trazado 634147" d="M397.765,281.6c1.429,3.084,6.261,3.881,10.782,1.781,3.647-1.7,5.984-4.759,6-7.5V234.37a.785.785,0,1,0-1.57,0v38.113c-2.1-1.77-5.957-1.966-9.614-.265-4.525,2.1-7.031,6.3-5.6,9.386" transform="translate(25.803 15.168)" fill="#12263f"/>
        <path id="Trazado_634148" data-name="Trazado 634148" d="M552.491,286.215c1.429,3.084,6.261,3.881,10.782,1.781,3.647-1.7,5.984-4.759,6-7.5V238.981a.785.785,0,1,0-1.57,0v38.113c-2.1-1.77-5.958-1.966-9.614-.265-4.525,2.1-7.031,6.3-5.6,9.386" transform="translate(35.85 15.467)" fill="#12263f"/>
        <path id="Trazado_634149" data-name="Trazado 634149" d="M574.34,286.215c1.429,3.084,6.261,3.881,10.781,1.781,3.648-1.7,5.985-4.759,6-7.5V238.981a.785.785,0,1,0-1.57,0v38.113c-2.1-1.77-5.958-1.966-9.614-.265-4.525,2.1-7.031,6.3-5.6,9.386" transform="translate(37.269 15.467)" fill="#12263f"/>
        <path id="Trazado_634150" data-name="Trazado 634150" d="M596.189,286.215c1.429,3.084,6.261,3.881,10.783,1.781,3.647-1.7,5.984-4.759,6-7.5V238.981a.785.785,0,1,0-1.57,0v38.113c-2.1-1.77-5.957-1.966-9.614-.265-4.525,2.1-7.031,6.3-5.6,9.386" transform="translate(38.687 15.467)" fill="#12263f"/>
        <path id="Trazado_634151" data-name="Trazado 634151" d="M618.038,286.215C619.467,289.3,624.3,290.1,628.82,288c3.647-1.7,5.985-4.759,6-7.5l0-.012v-41.5a.785.785,0,1,0-1.57,0v38.113c-2.1-1.77-5.959-1.966-9.615-.265-4.525,2.1-7.03,6.3-5.6,9.386" transform="translate(40.106 15.467)" fill="#12263f"/>
        <path id="Trazado_634152" data-name="Trazado 634152" d="M560.174,85.687H385.724A13.885,13.885,0,0,1,371.838,71.8V33.887A13.886,13.886,0,0,1,385.724,20h174.45a13.885,13.885,0,0,1,13.885,13.886V71.8a13.884,13.884,0,0,1-13.885,13.885" transform="translate(24.145 1.299)" fill="#fcf5e0"/>
        <path id="Trazado_634153" data-name="Trazado 634153" d="M277.094,41.942v2.687h-3.013V27.573H270.01L258.45,44.629v.814h9.525V50.45h-2.646v.814h11.4V50.45h-2.645V45.443h3.013v2.769h.935V41.942Zm-9.119,2.687h-8.467l8.467-12.579Z" transform="translate(16.782 1.79)" fill="#12263f"/>
        <path id="Trazado_634154" data-name="Trazado 634154" d="M277.094,68.918h-3.013V51.863H270.01L258.45,68.918v.815h9.525v5.006h-2.646v.816h11.4v-.816h-2.645V69.733h3.013V72.5h.935V66.232h-.935Zm-9.119,0h-8.467l8.467-12.578Z" transform="translate(16.782 3.368)" fill="#12263f"/>
      </g>
    </g>
    <path id="Trazado_634770" data-name="Trazado 634770" d="M8.789-9.17H5.464V0H3.625V-9.17H.33v-1.494H8.789ZM12.291,0a2.747,2.747,0,0,1-.205-.74,2.77,2.77,0,0,1-2.08.886A2.8,2.8,0,0,1,8.057-.535,2.179,2.179,0,0,1,7.3-2.219a2.25,2.25,0,0,1,.941-1.945,4.561,4.561,0,0,1,2.692-.677h1.091v-.52a1.388,1.388,0,0,0-.344-.985,1.365,1.365,0,0,0-1.047-.37,1.568,1.568,0,0,0-1,.3.941.941,0,0,0-.388.773H7.471A1.975,1.975,0,0,1,7.9-6.859a2.879,2.879,0,0,1,1.176-.89,4.129,4.129,0,0,1,1.659-.322,3.325,3.325,0,0,1,2.219.7,2.494,2.494,0,0,1,.85,1.967v3.574a4.051,4.051,0,0,0,.3,1.707V0ZM10.335-1.282a2.025,2.025,0,0,0,.992-.256,1.713,1.713,0,0,0,.7-.688V-3.721h-.959a2.624,2.624,0,0,0-1.487.344,1.115,1.115,0,0,0-.5.974,1.04,1.04,0,0,0,.341.817A1.319,1.319,0,0,0,10.335-1.282Zm7.009-6.643L17.4-7.1a2.852,2.852,0,0,1,2.285-.974,2.191,2.191,0,0,1,2.175,1.216,2.811,2.811,0,0,1,2.432-1.216,2.471,2.471,0,0,1,1.952.725A3.192,3.192,0,0,1,26.9-5.208V0h-1.78V-5.156a1.576,1.576,0,0,0-.33-1.106,1.443,1.443,0,0,0-1.091-.352,1.482,1.482,0,0,0-.992.326,1.719,1.719,0,0,0-.538.853L22.171,0h-1.78V-5.215a1.27,1.27,0,0,0-1.428-1.4,1.567,1.567,0,0,0-1.516.872V0h-1.78V-7.925ZM35.677-3.882a4.76,4.76,0,0,1-.824,2.937A2.684,2.684,0,0,1,32.586.146a2.585,2.585,0,0,1-2.168-1L30.33,0H28.719V-11.25H30.5v4.087a2.576,2.576,0,0,1,2.073-.908,2.715,2.715,0,0,1,2.278,1.077,4.839,4.839,0,0,1,.828,3.01ZM33.9-4.036a3.365,3.365,0,0,0-.454-1.934,1.512,1.512,0,0,0-1.318-.645A1.652,1.652,0,0,0,30.5-5.6v3.267A1.669,1.669,0,0,0,32.139-1.3a1.5,1.5,0,0,0,1.289-.623A3.26,3.26,0,0,0,33.9-3.809ZM39.061,0h-1.78V-7.925h1.78Zm-1.89-9.983a.945.945,0,0,1,.26-.681.982.982,0,0,1,.743-.271,1,1,0,0,1,.747.271.937.937,0,0,1,.264.681.916.916,0,0,1-.264.67,1,1,0,0,1-.747.267.99.99,0,0,1-.743-.267A.923.923,0,0,1,37.171-9.983ZM44.488.146A3.682,3.682,0,0,1,41.745-.919a3.866,3.866,0,0,1-1.051-2.838v-.22a4.755,4.755,0,0,1,.458-2.12,3.484,3.484,0,0,1,1.285-1.454,3.4,3.4,0,0,1,1.846-.52,3.11,3.11,0,0,1,2.5,1.033,4.367,4.367,0,0,1,.883,2.922V-3.4H42.488a2.38,2.38,0,0,0,.656,1.553,1.968,1.968,0,0,0,1.447.571,2.41,2.41,0,0,0,1.992-.989l.959.916a3.2,3.2,0,0,1-1.271,1.1A3.978,3.978,0,0,1,44.488.146Zm-.212-6.79a1.5,1.5,0,0,0-1.183.513A2.657,2.657,0,0,0,42.518-4.7h3.391v-.132a2.163,2.163,0,0,0-.476-1.351A1.487,1.487,0,0,0,44.275-6.643Zm.4-4.607h2.029L44.678-9.031l-1.428,0ZM50.7-7.925l.051.916a2.849,2.849,0,0,1,2.307-1.062q2.476,0,2.52,2.834V0H53.8V-5.134a1.632,1.632,0,0,0-.326-1.117,1.371,1.371,0,0,0-1.066-.363,1.715,1.715,0,0,0-1.6.974V0h-1.78V-7.925ZM65.567-2.153a.807.807,0,0,0-.392-.725,4.167,4.167,0,0,0-1.3-.439A6.683,6.683,0,0,1,62.359-3.8a2.023,2.023,0,0,1-1.333-1.868,2.109,2.109,0,0,1,.864-1.714,3.417,3.417,0,0,1,2.2-.688,3.555,3.555,0,0,1,2.3.7,2.231,2.231,0,0,1,.875,1.824h-1.78A1.1,1.1,0,0,0,65.1-6.4a1.46,1.46,0,0,0-1.011-.341,1.577,1.577,0,0,0-.956.271.854.854,0,0,0-.37.725.721.721,0,0,0,.344.637,4.734,4.734,0,0,0,1.392.458,6.587,6.587,0,0,1,1.644.549,2.329,2.329,0,0,1,.886.765,1.952,1.952,0,0,1,.289,1.084,2.065,2.065,0,0,1-.886,1.732,3.779,3.779,0,0,1-2.322.663,4.1,4.1,0,0,1-1.736-.352,2.857,2.857,0,0,1-1.187-.967A2.288,2.288,0,0,1,60.762-2.5h1.729a1.254,1.254,0,0,0,.476.97,1.85,1.85,0,0,0,1.165.341A1.8,1.8,0,0,0,65.2-1.454.827.827,0,0,0,65.567-2.153Zm6.79,2.3A3.682,3.682,0,0,1,69.614-.919a3.866,3.866,0,0,1-1.051-2.838v-.22A4.755,4.755,0,0,1,69.02-6.1a3.484,3.484,0,0,1,1.285-1.454,3.4,3.4,0,0,1,1.846-.52,3.11,3.11,0,0,1,2.5,1.033,4.367,4.367,0,0,1,.883,2.922V-3.4H70.357a2.38,2.38,0,0,0,.656,1.553,1.968,1.968,0,0,0,1.447.571,2.41,2.41,0,0,0,1.992-.989l.959.916a3.2,3.2,0,0,1-1.271,1.1A3.978,3.978,0,0,1,72.356.146Zm-.212-6.79a1.5,1.5,0,0,0-1.183.513A2.657,2.657,0,0,0,70.386-4.7h3.391v-.132A2.163,2.163,0,0,0,73.3-6.185,1.487,1.487,0,0,0,72.144-6.643ZM84.8-6.3a4.4,4.4,0,0,0-.725-.059,1.633,1.633,0,0,0-1.648.938V0h-1.78V-7.925h1.7l.044.886a2.005,2.005,0,0,1,1.787-1.033,1.666,1.666,0,0,1,.63.1ZM89.14.146A3.682,3.682,0,0,1,86.4-.919a3.866,3.866,0,0,1-1.051-2.838v-.22A4.755,4.755,0,0,1,85.8-6.1,3.484,3.484,0,0,1,87.09-7.551a3.4,3.4,0,0,1,1.846-.52,3.11,3.11,0,0,1,2.5,1.033,4.367,4.367,0,0,1,.883,2.922V-3.4H87.141A2.38,2.38,0,0,0,87.8-1.846a1.968,1.968,0,0,0,1.447.571,2.41,2.41,0,0,0,1.992-.989l.959.916a3.2,3.2,0,0,1-1.271,1.1A3.978,3.978,0,0,1,89.14.146Zm-.212-6.79a1.5,1.5,0,0,0-1.183.513A2.657,2.657,0,0,0,87.17-4.7h3.391v-.132a2.163,2.163,0,0,0-.476-1.351A1.487,1.487,0,0,0,88.928-6.643Zm11.711,2.761A4.718,4.718,0,0,1,99.8-.948,2.674,2.674,0,0,1,97.563.146,2.692,2.692,0,0,1,95.476-.71V3.047H93.7V-7.925h1.641l.073.806a2.614,2.614,0,0,1,2.131-.952,2.7,2.7,0,0,1,2.274,1.08,4.844,4.844,0,0,1,.824,3Zm-1.772-.154a3.305,3.305,0,0,0-.472-1.882,1.536,1.536,0,0,0-1.351-.7,1.638,1.638,0,0,0-1.567.9V-2.2a1.653,1.653,0,0,0,1.582.923,1.534,1.534,0,0,0,1.329-.685A3.638,3.638,0,0,0,98.867-4.036ZM106.294-6.3a4.4,4.4,0,0,0-.725-.059,1.633,1.633,0,0,0-1.648.938V0h-1.78V-7.925h1.7l.044.886a2.005,2.005,0,0,1,1.787-1.033,1.666,1.666,0,0,1,.63.1Zm4.34,6.445a3.682,3.682,0,0,1-2.743-1.066,3.866,3.866,0,0,1-1.051-2.838v-.22A4.755,4.755,0,0,1,107.3-6.1a3.484,3.484,0,0,1,1.285-1.454,3.4,3.4,0,0,1,1.846-.52,3.11,3.11,0,0,1,2.5,1.033,4.367,4.367,0,0,1,.883,2.922V-3.4h-5.178a2.38,2.38,0,0,0,.656,1.553,1.968,1.968,0,0,0,1.447.571,2.41,2.41,0,0,0,1.992-.989l.959.916a3.2,3.2,0,0,1-1.271,1.1A3.978,3.978,0,0,1,110.634.146Zm-.212-6.79a1.5,1.5,0,0,0-1.183.513,2.657,2.657,0,0,0-.575,1.428h3.391v-.132a2.163,2.163,0,0,0-.476-1.351A1.487,1.487,0,0,0,110.421-6.643Zm9.214,4.49a.807.807,0,0,0-.392-.725,4.167,4.167,0,0,0-1.3-.439,6.683,6.683,0,0,1-1.516-.483,2.023,2.023,0,0,1-1.333-1.868,2.109,2.109,0,0,1,.864-1.714,3.417,3.417,0,0,1,2.2-.688,3.555,3.555,0,0,1,2.3.7,2.231,2.231,0,0,1,.875,1.824h-1.78a1.1,1.1,0,0,0-.381-.853,1.46,1.46,0,0,0-1.011-.341,1.577,1.577,0,0,0-.956.271.854.854,0,0,0-.37.725.721.721,0,0,0,.344.637,4.734,4.734,0,0,0,1.392.458,6.587,6.587,0,0,1,1.644.549,2.328,2.328,0,0,1,.886.765,1.952,1.952,0,0,1,.289,1.084A2.065,2.065,0,0,1,120.5-.516a3.779,3.779,0,0,1-2.322.663,4.1,4.1,0,0,1-1.736-.352,2.857,2.857,0,0,1-1.187-.967,2.288,2.288,0,0,1-.425-1.326h1.729a1.254,1.254,0,0,0,.476.97,1.85,1.85,0,0,0,1.165.341,1.8,1.8,0,0,0,1.069-.267A.827.827,0,0,0,119.635-2.153Zm6.79,2.3a3.682,3.682,0,0,1-2.743-1.066,3.866,3.866,0,0,1-1.051-2.838v-.22a4.755,4.755,0,0,1,.458-2.12,3.484,3.484,0,0,1,1.285-1.454,3.4,3.4,0,0,1,1.846-.52,3.11,3.11,0,0,1,2.5,1.033,4.367,4.367,0,0,1,.883,2.922V-3.4h-5.178a2.38,2.38,0,0,0,.656,1.553,1.968,1.968,0,0,0,1.447.571,2.41,2.41,0,0,0,1.992-.989l.959.916a3.2,3.2,0,0,1-1.271,1.1A3.978,3.978,0,0,1,126.425.146Zm-.212-6.79a1.5,1.5,0,0,0-1.183.513,2.657,2.657,0,0,0-.575,1.428h3.391v-.132a2.163,2.163,0,0,0-.476-1.351A1.487,1.487,0,0,0,126.212-6.643Zm6.423-1.282.051.916a2.849,2.849,0,0,1,2.307-1.062q2.476,0,2.52,2.834V0h-1.78V-5.134a1.632,1.632,0,0,0-.326-1.117,1.371,1.371,0,0,0-1.066-.363,1.715,1.715,0,0,0-1.6.974V0h-1.78V-7.925Zm8.921-1.926v1.926h1.4v1.318h-1.4v4.424a.974.974,0,0,0,.179.656.832.832,0,0,0,.641.2A2.742,2.742,0,0,0,143-1.4V-.022a4.383,4.383,0,0,1-1.172.168q-2.051,0-2.051-2.263v-4.49h-1.3V-7.925h1.3V-9.851ZM149.049,0a2.747,2.747,0,0,1-.205-.74,2.77,2.77,0,0,1-2.08.886,2.8,2.8,0,0,1-1.948-.681,2.179,2.179,0,0,1-.754-1.685A2.25,2.25,0,0,1,145-4.164a4.561,4.561,0,0,1,2.692-.677h1.091v-.52a1.388,1.388,0,0,0-.344-.985,1.365,1.365,0,0,0-1.047-.37,1.568,1.568,0,0,0-1,.3.941.941,0,0,0-.388.773h-1.78a1.975,1.975,0,0,1,.432-1.219,2.879,2.879,0,0,1,1.176-.89,4.129,4.129,0,0,1,1.659-.322,3.325,3.325,0,0,1,2.219.7,2.494,2.494,0,0,1,.85,1.967v3.574a4.051,4.051,0,0,0,.3,1.707V0Zm-1.956-1.282a2.025,2.025,0,0,0,.992-.256,1.713,1.713,0,0,0,.7-.688V-3.721h-.959a2.624,2.624,0,0,0-1.487.344,1.115,1.115,0,0,0-.5.974,1.04,1.04,0,0,0,.341.817A1.319,1.319,0,0,0,147.094-1.282Z" transform="translate(410.185 46.795)"/>
    <path id="Trazado_634771" data-name="Trazado 634771" d="M4.167-1.274a1.609,1.609,0,0,0,1.106-.388,1.326,1.326,0,0,0,.469-.959H7.419a2.614,2.614,0,0,1-.461,1.381A3.027,3.027,0,0,1,5.786-.227a3.492,3.492,0,0,1-1.6.374A3.379,3.379,0,0,1,1.553-.93,4.27,4.27,0,0,1,.579-3.9v-.183a4.2,4.2,0,0,1,.967-2.9A3.348,3.348,0,0,1,4.182-8.071a3.256,3.256,0,0,1,2.3.824,2.952,2.952,0,0,1,.934,2.164H5.742A1.63,1.63,0,0,0,5.277-6.2a1.5,1.5,0,0,0-1.11-.439,1.566,1.566,0,0,0-1.333.626,3.2,3.2,0,0,0-.476,1.9v.286a3.248,3.248,0,0,0,.465,1.923A1.565,1.565,0,0,0,4.167-1.274ZM8.43-4.036a4.673,4.673,0,0,1,.461-2.1,3.37,3.37,0,0,1,1.3-1.436,3.653,3.653,0,0,1,1.919-.5,3.462,3.462,0,0,1,2.6,1.033A4.062,4.062,0,0,1,15.791-4.3l.007.417a4.715,4.715,0,0,1-.45,2.095A3.329,3.329,0,0,1,14.059-.359a3.679,3.679,0,0,1-1.937.505A3.438,3.438,0,0,1,9.437-.97,4.278,4.278,0,0,1,8.43-3.948Zm1.78.154a3.193,3.193,0,0,0,.505,1.915,1.643,1.643,0,0,0,1.406.692,1.625,1.625,0,0,0,1.4-.7,3.527,3.527,0,0,0,.5-2.058,3.152,3.152,0,0,0-.516-1.9,1.649,1.649,0,0,0-1.4-.7,1.634,1.634,0,0,0-1.384.692A3.46,3.46,0,0,0,10.21-3.882Zm8.745-4.043.051.916a2.849,2.849,0,0,1,2.307-1.062q2.476,0,2.52,2.834V0h-1.78V-5.134a1.632,1.632,0,0,0-.326-1.117,1.371,1.371,0,0,0-1.066-.363,1.715,1.715,0,0,0-1.6.974V0h-1.78V-7.925ZM34.182-.776a2.76,2.76,0,0,1-2.227.923A2.46,2.46,0,0,1,30-.608a3.209,3.209,0,0,1-.663-2.183V-7.925h1.78v5.112q0,1.509,1.252,1.509a1.759,1.759,0,0,0,1.75-.93V-7.925H35.9V0H34.226Zm5.186-7.148.051.916a2.849,2.849,0,0,1,2.307-1.062q2.476,0,2.52,2.834V0h-1.78V-5.134a1.632,1.632,0,0,0-.326-1.117,1.371,1.371,0,0,0-1.066-.363,1.715,1.715,0,0,0-1.6.974V0H37.69V-7.925ZM50.793,0a2.747,2.747,0,0,1-.205-.74,2.77,2.77,0,0,1-2.08.886A2.8,2.8,0,0,1,46.56-.535a2.179,2.179,0,0,1-.754-1.685,2.25,2.25,0,0,1,.941-1.945,4.561,4.561,0,0,1,2.692-.677H50.53v-.52a1.388,1.388,0,0,0-.344-.985,1.365,1.365,0,0,0-1.047-.37,1.568,1.568,0,0,0-1,.3.941.941,0,0,0-.388.773h-1.78a1.975,1.975,0,0,1,.432-1.219,2.879,2.879,0,0,1,1.176-.89,4.129,4.129,0,0,1,1.659-.322,3.325,3.325,0,0,1,2.219.7,2.494,2.494,0,0,1,.85,1.967v3.574a4.051,4.051,0,0,0,.3,1.707V0ZM48.838-1.282a2.025,2.025,0,0,0,.992-.256,1.713,1.713,0,0,0,.7-.688V-3.721H49.57a2.624,2.624,0,0,0-1.487.344,1.115,1.115,0,0,0-.5.974,1.04,1.04,0,0,0,.341.817A1.319,1.319,0,0,0,48.838-1.282Zm17.38-2.19a3.85,3.85,0,0,1-1.26,2.662,4.3,4.3,0,0,1-2.922.956,4.158,4.158,0,0,1-2.245-.6,3.966,3.966,0,0,1-1.5-1.718,6.2,6.2,0,0,1-.549-2.585v-1a6.243,6.243,0,0,1,.535-2.659,4.029,4.029,0,0,1,1.534-1.772,4.28,4.28,0,0,1,2.311-.623,4.122,4.122,0,0,1,2.842.956,3.994,3.994,0,0,1,1.252,2.706H64.373a2.634,2.634,0,0,0-.67-1.659,2.215,2.215,0,0,0-1.578-.509,2.164,2.164,0,0,0-1.857.883A4.415,4.415,0,0,0,59.6-5.842V-4.9a4.684,4.684,0,0,0,.619,2.639,2.054,2.054,0,0,0,1.813.909,2.4,2.4,0,0,0,1.641-.491,2.559,2.559,0,0,0,.7-1.633Zm5.244-.864a11.161,11.161,0,0,1,.454-3.212,8.815,8.815,0,0,1,1.333-2.717,5.293,5.293,0,0,1,1.86-1.681l.352,1.04a5.437,5.437,0,0,0-1.674,2.391,10.71,10.71,0,0,0-.7,3.68l-.007.63a11.643,11.643,0,0,0,.626,3.959A5.835,5.835,0,0,0,75.461,2.4l-.352.989A5.3,5.3,0,0,1,73.246,1.7a8.814,8.814,0,0,1-1.333-2.717A11.6,11.6,0,0,1,71.462-4.336Zm8.459,3.062a1.609,1.609,0,0,0,1.106-.388,1.326,1.326,0,0,0,.469-.959h1.677a2.614,2.614,0,0,1-.461,1.381A3.027,3.027,0,0,1,81.541-.227a3.492,3.492,0,0,1-1.6.374A3.379,3.379,0,0,1,77.307-.93,4.27,4.27,0,0,1,76.333-3.9v-.183a4.2,4.2,0,0,1,.967-2.9,3.348,3.348,0,0,1,2.637-1.088,3.256,3.256,0,0,1,2.3.824,2.952,2.952,0,0,1,.934,2.164H81.5A1.63,1.63,0,0,0,81.031-6.2a1.5,1.5,0,0,0-1.11-.439,1.566,1.566,0,0,0-1.333.626,3.2,3.2,0,0,0-.476,1.9v.286a3.248,3.248,0,0,0,.465,1.923A1.565,1.565,0,0,0,79.922-1.274Zm4.263-2.761a4.673,4.673,0,0,1,.461-2.1,3.37,3.37,0,0,1,1.3-1.436,3.653,3.653,0,0,1,1.919-.5,3.462,3.462,0,0,1,2.6,1.033A4.062,4.062,0,0,1,91.545-4.3l.007.417a4.715,4.715,0,0,1-.45,2.095A3.329,3.329,0,0,1,89.813-.359a3.679,3.679,0,0,1-1.937.505A3.438,3.438,0,0,1,85.192-.97a4.278,4.278,0,0,1-1.007-2.977Zm1.78.154a3.193,3.193,0,0,0,.505,1.915,1.643,1.643,0,0,0,1.406.692,1.625,1.625,0,0,0,1.4-.7,3.527,3.527,0,0,0,.5-2.058,3.152,3.152,0,0,0-.516-1.9,1.649,1.649,0,0,0-1.4-.7,1.634,1.634,0,0,0-1.384.692A3.46,3.46,0,0,0,85.964-3.882Zm8.767-4.043.051.828a2.852,2.852,0,0,1,2.285-.974,2.191,2.191,0,0,1,2.175,1.216,2.811,2.811,0,0,1,2.432-1.216,2.471,2.471,0,0,1,1.952.725,3.192,3.192,0,0,1,.656,2.139V0H102.5V-5.156a1.576,1.576,0,0,0-.33-1.106,1.443,1.443,0,0,0-1.091-.352,1.482,1.482,0,0,0-.992.326,1.719,1.719,0,0,0-.538.853L99.558,0h-1.78V-5.215a1.27,1.27,0,0,0-1.428-1.4,1.567,1.567,0,0,0-1.516.872V0h-1.78V-7.925Zm18.318,4.043a4.718,4.718,0,0,1-.835,2.933A2.674,2.674,0,0,1,109.973.146a2.692,2.692,0,0,1-2.087-.857V3.047h-1.78V-7.925h1.641l.073.806a2.614,2.614,0,0,1,2.131-.952,2.7,2.7,0,0,1,2.274,1.08,4.844,4.844,0,0,1,.824,3Zm-1.772-.154a3.305,3.305,0,0,0-.472-1.882,1.536,1.536,0,0,0-1.351-.7,1.638,1.638,0,0,0-1.567.9V-2.2a1.653,1.653,0,0,0,1.582.923,1.534,1.534,0,0,0,1.329-.685A3.638,3.638,0,0,0,111.277-4.036ZM119.29,0a2.747,2.747,0,0,1-.205-.74A2.77,2.77,0,0,1,117,.146a2.8,2.8,0,0,1-1.948-.681,2.179,2.179,0,0,1-.754-1.685,2.25,2.25,0,0,1,.941-1.945,4.561,4.561,0,0,1,2.692-.677h1.091v-.52a1.388,1.388,0,0,0-.344-.985,1.365,1.365,0,0,0-1.047-.37,1.568,1.568,0,0,0-1,.3.941.941,0,0,0-.388.773h-1.78a1.975,1.975,0,0,1,.432-1.219,2.879,2.879,0,0,1,1.176-.89,4.129,4.129,0,0,1,1.659-.322,3.325,3.325,0,0,1,2.219.7,2.494,2.494,0,0,1,.85,1.967v3.574a4.051,4.051,0,0,0,.3,1.707V0Zm-1.956-1.282a2.025,2.025,0,0,0,.992-.256,1.713,1.713,0,0,0,.7-.688V-3.721h-.959a2.624,2.624,0,0,0-1.487.344,1.115,1.115,0,0,0-.5.974,1.04,1.04,0,0,0,.341.817A1.319,1.319,0,0,0,117.334-1.282Zm9.778-.872a.807.807,0,0,0-.392-.725,4.167,4.167,0,0,0-1.3-.439A6.683,6.683,0,0,1,123.9-3.8a2.023,2.023,0,0,1-1.333-1.868,2.109,2.109,0,0,1,.864-1.714,3.417,3.417,0,0,1,2.2-.688,3.555,3.555,0,0,1,2.3.7,2.231,2.231,0,0,1,.875,1.824h-1.78a1.1,1.1,0,0,0-.381-.853,1.46,1.46,0,0,0-1.011-.341,1.577,1.577,0,0,0-.956.271.854.854,0,0,0-.37.725.721.721,0,0,0,.344.637,4.734,4.734,0,0,0,1.392.458,6.587,6.587,0,0,1,1.644.549,2.328,2.328,0,0,1,.886.765,1.952,1.952,0,0,1,.289,1.084,2.065,2.065,0,0,1-.886,1.732,3.779,3.779,0,0,1-2.322.663,4.1,4.1,0,0,1-1.736-.352,2.857,2.857,0,0,1-1.187-.967,2.288,2.288,0,0,1-.425-1.326h1.729a1.254,1.254,0,0,0,.476.97,1.85,1.85,0,0,0,1.165.341,1.8,1.8,0,0,0,1.069-.267A.827.827,0,0,0,127.112-2.153ZM132.3,0h-1.78V-7.925h1.78Zm-1.89-9.983a.945.945,0,0,1,.26-.681.982.982,0,0,1,.743-.271,1,1,0,0,1,.747.271.937.937,0,0,1,.264.681.916.916,0,0,1-.264.67,1,1,0,0,1-.747.267.99.99,0,0,1-.743-.267A.923.923,0,0,1,130.415-9.983ZM136.135,0h-1.78V-11.25h1.78Zm3.831,0h-1.78V-11.25h1.78Zm1.6-4.036a4.673,4.673,0,0,1,.461-2.1,3.37,3.37,0,0,1,1.3-1.436,3.653,3.653,0,0,1,1.919-.5,3.462,3.462,0,0,1,2.6,1.033,4.062,4.062,0,0,1,1.08,2.739l.007.417a4.715,4.715,0,0,1-.45,2.095A3.329,3.329,0,0,1,147.2-.359a3.679,3.679,0,0,1-1.937.505A3.438,3.438,0,0,1,142.577-.97a4.278,4.278,0,0,1-1.007-2.977Zm1.78.154a3.193,3.193,0,0,0,.505,1.915,1.643,1.643,0,0,0,1.406.692,1.625,1.625,0,0,0,1.4-.7,3.527,3.527,0,0,0,.5-2.058,3.152,3.152,0,0,0-.516-1.9,1.649,1.649,0,0,0-1.4-.7,1.634,1.634,0,0,0-1.384.692A3.46,3.46,0,0,0,143.35-3.882Zm10.525-.337a11.02,11.02,0,0,1-.447,3.138,8.892,8.892,0,0,1-1.355,2.754,5.306,5.306,0,0,1-1.9,1.718l-.352-.989a5.629,5.629,0,0,0,1.74-2.6,11.533,11.533,0,0,0,.641-3.988v-.168a11.7,11.7,0,0,0-.557-3.71,6.544,6.544,0,0,0-1.6-2.684l-.227-.205.352-1a5.251,5.251,0,0,1,1.816,1.611,8.743,8.743,0,0,1,1.348,2.589,10.785,10.785,0,0,1,.527,2.955Z" transform="translate(409.163 67.242)"/>
    <g id="Grupo_1101420" data-name="Grupo 1101420">
      <g id="Grupo_1101419" data-name="Grupo 1101419" clip-path="url(#clip-path-2)">
        <path id="Trazado_634155" data-name="Trazado 634155" d="M506.563,180.054c5.466.034,9.918-2.71,9.939-6.132s-4.394-6.225-9.862-6.258-9.917,2.71-9.938,6.129,4.391,6.227,9.861,6.261m-1.295-11.495c1.951-.494,4.13,1.482,4.868,4.411s-.249,5.7-2.2,6.189-4.133-1.481-4.87-4.411.249-5.7,2.2-6.189" transform="translate(32.253 10.887)" fill="#12263f"/>
        <path id="Trazado_634156" data-name="Trazado 634156" d="M544.122,253.19v2.687h-3.013V238.821h-4.071l-11.56,17.056v.814H535V261.7h-2.646v.814h11.4V261.7h-2.645v-5.007h3.013v2.769h.935V253.19ZM535,255.877h-8.467L535,243.3Z" transform="translate(34.122 15.508)" fill="#12263f"/>
        <path id="Trazado_634157" data-name="Trazado 634157" d="M544.122,280.166h-3.013V263.111h-4.071l-11.56,17.055v.815H535v5.006h-2.646v.815h11.4v-.815h-2.645v-5.006h3.013v2.768h.935V277.48h-.935Zm-9.119,0h-8.467L535,267.588Z" transform="translate(34.122 17.085)" fill="#12263f"/>
      </g>
    </g>
  </g>
</svg>
