<svg xmlns="http://www.w3.org/2000/svg" xmlns:xlink="http://www.w3.org/1999/xlink" width="820" height="371.662" viewBox="0 0 820 371.662">
  <defs>
    <clipPath id="clip-path">
      <rect id="Rectángulo_396126" data-name="Rectángulo 396126" width="820" height="371.662" fill="none"/>
    </clipPath>
  </defs>
  <g id="Grupo_1101574" data-name="Grupo 1101574" transform="translate(-390 -1760.514)">
    <path id="Trazado_634689" data-name="Trazado 634689" d="M0,0H820V371.662H0Z" transform="translate(390 1760.514)" fill="#624b7e"/>
    <g id="Grupo_1101396" data-name="Grupo 1101396" transform="translate(390 1760.514)" opacity="0.09">
      <g id="Grupo_1101395" data-name="Grupo 1101395">
        <g id="Grupo_1101394" data-name="Grupo 1101394" clip-path="url(#clip-path)">
          <path id="Trazado_634084" data-name="Trazado 634084" d="M770.464,0h-7.611q3.4,10.739,7.611,21.2Z" transform="translate(49.536)" fill="#dac8f1"/>
          <path id="Trazado_634085" data-name="Trazado 634085" d="M253.7,0H212.421a55.285,55.285,0,0,0,11.843,5.321C234.244,8.428,246.872,7.076,253.7,0" transform="translate(13.794)" fill="#dac8f1"/>
          <path id="Trazado_634086" data-name="Trazado 634086" d="M0,344.561v4.727H6.682c-1.555-1.1-3.1-2.219-4.661-3.313L0,344.561" transform="translate(0 22.374)" fill="#dac8f1"/>
          <path id="Trazado_634087" data-name="Trazado 634087" d="M485.517,340.865q-5.23-74.4-10.472-148.794c26.933,12.134,53.3,25.489,80.254,37.572,31.629,14.183,111.248,38.02,79.971-29.836-7.883-17.1-16.45-34.559-17.313-53.372s8.36-39.594,26.168-45.742c19.869-6.858,40.461,6.2,58.274,17.354a422.885,422.885,0,0,0,114.766,49.907V21.2Q812.948,10.747,809.554,0H753.842q2.43,4.094,5.031,8.089c6.3,9.621,13.5,19.045,16.289,30.209s-.225,24.816-10.311,30.345c-14.465,7.935-31.221-4.735-43.076-16.214Q693.587,25.118,663.426,0H487.119a658.946,658.946,0,0,1,52.535,64.637c8.941,12.556,17.7,26.093,19.35,41.427s-6.128,32.757-20.927,37.065c-25.19,7.335-43.181-23.878-66.23-36.409-27.843-15.143-67.895,3.987-73.62,35.156-3.683,20.04,4.891,39.982,9.827,59.746s4.8,44.02-11.2,56.623c-12.422,9.793-30.76,8.821-44.94,1.8s-25.151-19.017-35.771-30.748Q242.68,148.153,169.216,67c-16.945-18.723-36.721-38.826-61.95-39.787C72.283,25.872,46.995,63.288,44.09,98.173c-4.1,49.3,21.311,96.525,52.7,134.77s69.42,70.935,98.078,111.257c5.782,8.134,11.164,17.778,13.7,27.463h94.008l-91.062-96.04c-8.424-8.884-17.06-18.108-21.306-29.592s-2.968-25.932,6.312-33.918c16.272-14,40.776.253,57.066,14.234Q333.62,295,413.647,363.665c3.152,2.7,6.343,5.425,9.632,8h58.748c4.612-8.973,4.221-20.395,3.49-30.8" transform="translate(2.835)" fill="#dac8f1"/>
          <path id="Trazado_634088" data-name="Trazado 634088" d="M0,277.978v70.907c.672.47,1.352.945,2.021,1.414,1.561,1.094,3.106,2.21,4.661,3.313H113.825A552.175,552.175,0,0,0,0,277.978" transform="translate(0 18.05)" fill="#dac8f1"/>
          <path id="Trazado_634089" data-name="Trazado 634089" d="M660.468,339.92c10.806-2.486,22.067-.259,32.993,1.634a536.4,536.4,0,0,0,84.792,7.837q2.922.04,5.853.032V277.731c-35.288,14.764-75.575,17.632-112.459,7.368-17.049-4.744-33.372-12.138-50.755-15.452s-36.829-1.938-50.574,9.206c-18.193,14.753-20.87,42.22-14.269,64.7,1.069,3.643,2.347,7.2,3.757,10.706h81.3c3.562-7.171,11.314-12.483,19.364-14.335" transform="translate(35.894 17.407)" fill="#dac8f1"/>
          <path id="Trazado_634090" data-name="Trazado 634090" d="M274.83,57.649C300.514,52.264,319.508,27.77,323.235,1.8c.083-.585.15-1.194.219-1.8H257.724c-6.832,7.076-19.458,8.428-29.439,5.321A55.354,55.354,0,0,1,216.442,0H150.507l44.1,30.051c24.057,16.391,51.732,33.572,80.226,27.6" transform="translate(9.773)" fill="#dac8f1"/>
        </g>
      </g>
    </g>
    <path id="Trazado_634091" data-name="Trazado 634091" d="M467.2,81.33H303.386a13.038,13.038,0,0,1-13.039-13.038v-35.6a13.039,13.039,0,0,1,13.039-13.039H467.2a13.038,13.038,0,0,1,13.038,13.039v35.6A13.038,13.038,0,0,1,467.2,81.33" transform="translate(415 1760.514)" fill="#fcf5e0"/>
    <path id="Trazado_634092" data-name="Trazado 634092" d="M23.326,183.887,90.332,250.92a17.471,17.471,0,0,0,24.6,0l67.005-67.033a17.422,17.422,0,0,0,0-24.556l-42.437-42.453a52.283,52.283,0,0,0-73.7,0L23.326,159.331a17.422,17.422,0,0,0,0,24.556" transform="translate(415 1760.514)" fill="#eadff7" fill-rule="evenodd"/>
    <path id="Trazado_634093" data-name="Trazado 634093" d="M214.436,183.887l67.006,67.033a17.4,17.4,0,0,0,24.54,0l67.005-67.033a17.411,17.411,0,0,0,0-24.556l-42.434-42.453a52.25,52.25,0,0,0-73.676,0l-42.441,42.453a17.373,17.373,0,0,0,0,24.556" transform="translate(415 1760.514)" fill="#dac8f1" fill-rule="evenodd"/>
    <path id="Trazado_634094" data-name="Trazado 634094" d="M118.975,255.561l67.033-67.018a17.436,17.436,0,0,1,24.568,0l67.009,67.018a17.427,17.427,0,0,1,0,24.559l-42.469,42.453a52.283,52.283,0,0,1-73.7,0L118.975,280.12a17.427,17.427,0,0,1,0-24.559" transform="translate(415 1760.514)" fill="#dac8f1" fill-rule="evenodd"/>
    <path id="Trazado_634095" data-name="Trazado 634095" d="M405.5,183.887,472.5,250.92a17.433,17.433,0,0,0,24.564,0L564.1,183.887a17.422,17.422,0,0,0,0-24.556l-42.465-42.453a52.286,52.286,0,0,0-73.706,0L405.5,159.331a17.413,17.413,0,0,0,0,24.556" transform="translate(415 1760.514)" fill="#d6f6f1" fill-rule="evenodd"/>
    <path id="Trazado_634096" data-name="Trazado 634096" d="M310.058,255.561l67.011-67.018a17.433,17.433,0,0,1,24.565,0l67.006,67.018a17.373,17.373,0,0,1,0,24.559l-42.411,42.453a52.284,52.284,0,0,1-73.7,0L310.058,280.12a17.425,17.425,0,0,1,0-24.559" transform="translate(415 1760.514)" fill="#d6f6f1" fill-rule="evenodd"/>
    <path id="Trazado_634097" data-name="Trazado 634097" d="M501.763,255.561l67.012-67.018a17.432,17.432,0,0,1,24.564,0l67.036,67.018a17.427,17.427,0,0,1,0,24.559l-42.441,42.453a52.284,52.284,0,0,1-73.7,0L501.763,280.12a17.426,17.426,0,0,1,0-24.559" transform="translate(415 1760.514)" fill="#fcf5e0" fill-rule="evenodd"/>
    <path id="Trazado_634098" data-name="Trazado 634098" d="M669.311,250.92a17.433,17.433,0,0,0,24.564,0l42.466-42.454a52.3,52.3,0,0,0,0-73.7L718.47,116.878a52.278,52.278,0,0,0-73.7,0L602.3,159.331a17.413,17.413,0,0,0,0,24.556" transform="translate(415 1760.514)" fill="#fcf5e0" fill-rule="evenodd"/>
    <path id="Trazado_634690" data-name="Trazado 634690" d="M0,0H795V349H0Z" transform="translate(415 1760.514)" fill="none"/>
    <path id="Trazado_634691" data-name="Trazado 634691" d="M1.156,0V-11.375h3.9a4.76,4.76,0,0,1,2.938.773A2.724,2.724,0,0,1,9-8.3a2.456,2.456,0,0,1-.422,1.406,2.715,2.715,0,0,1-1.234.969A2.511,2.511,0,0,1,8.77-4.98a2.742,2.742,0,0,1,.5,1.66A3.028,3.028,0,0,1,8.246-.859,4.467,4.467,0,0,1,5.3,0ZM3.133-5.133v3.555h2.2a2.124,2.124,0,0,0,1.453-.461A1.618,1.618,0,0,0,7.3-3.32,1.623,1.623,0,0,0,5.492-5.133Zm0-1.453H5.07A2.241,2.241,0,0,0,6.512-7a1.432,1.432,0,0,0,.52-1.184,1.452,1.452,0,0,0-.48-1.219,2.426,2.426,0,0,0-1.5-.375H3.133ZM13.086,0h-1.9V-8.453h1.9ZM11.07-10.648a1.008,1.008,0,0,1,.277-.727,1.048,1.048,0,0,1,.793-.289,1.061,1.061,0,0,1,.8.289,1,1,0,0,1,.281.727.977.977,0,0,1-.281.715,1.069,1.069,0,0,1-.8.285,1.056,1.056,0,0,1-.793-.285A.984.984,0,0,1,11.07-10.648Zm5.844,2.2.055.977A3.039,3.039,0,0,1,19.43-8.609q2.641,0,2.688,3.023V0h-1.9V-5.477a1.741,1.741,0,0,0-.348-1.191,1.462,1.462,0,0,0-1.137-.387,1.829,1.829,0,0,0-1.711,1.039V0h-1.9V-8.453ZM29.1,0a2.93,2.93,0,0,1-.219-.789,2.955,2.955,0,0,1-2.219.945A2.982,2.982,0,0,1,24.586-.57a2.325,2.325,0,0,1-.8-1.8,2.4,2.4,0,0,1,1-2.074,4.865,4.865,0,0,1,2.871-.723H28.82v-.555a1.481,1.481,0,0,0-.367-1.051,1.456,1.456,0,0,0-1.117-.395,1.672,1.672,0,0,0-1.062.324,1,1,0,0,0-.414.824h-1.9a2.107,2.107,0,0,1,.461-1.3,3.071,3.071,0,0,1,1.254-.949,4.4,4.4,0,0,1,1.77-.344,3.547,3.547,0,0,1,2.367.746,2.661,2.661,0,0,1,.906,2.1v3.813a4.321,4.321,0,0,0,.32,1.82V0ZM27.016-1.367a2.159,2.159,0,0,0,1.059-.273,1.827,1.827,0,0,0,.746-.734V-3.969H27.8a2.8,2.8,0,0,0-1.586.367,1.189,1.189,0,0,0-.531,1.039,1.109,1.109,0,0,0,.363.871A1.407,1.407,0,0,0,27.016-1.367ZM37.133-6.719a4.7,4.7,0,0,0-.773-.062,1.741,1.741,0,0,0-1.758,1V0H32.7V-8.453h1.813l.047.945a2.139,2.139,0,0,1,1.906-1.1,1.777,1.777,0,0,1,.672.109ZM40.352,0h-1.9V-8.453h1.9ZM38.336-10.648a1.008,1.008,0,0,1,.277-.727,1.048,1.048,0,0,1,.793-.289,1.061,1.061,0,0,1,.8.289,1,1,0,0,1,.281.727.977.977,0,0,1-.281.715,1.069,1.069,0,0,1-.8.285,1.056,1.056,0,0,1-.793-.285A.984.984,0,0,1,38.336-10.648ZM42.063-4.3a4.984,4.984,0,0,1,.492-2.238,3.6,3.6,0,0,1,1.383-1.531,3.9,3.9,0,0,1,2.047-.535,3.692,3.692,0,0,1,2.777,1.1,4.333,4.333,0,0,1,1.152,2.922l.008.445a5.029,5.029,0,0,1-.48,2.234A3.551,3.551,0,0,1,48.066-.383,3.925,3.925,0,0,1,46,.156a3.667,3.667,0,0,1-2.863-1.191,4.563,4.563,0,0,1-1.074-3.176Zm1.9.164A3.406,3.406,0,0,0,44.5-2.1a1.752,1.752,0,0,0,1.5.738,1.733,1.733,0,0,0,1.5-.75,3.762,3.762,0,0,0,.535-2.2,3.362,3.362,0,0,0-.551-2.031,1.759,1.759,0,0,0-1.5-.75,1.743,1.743,0,0,0-1.477.738A3.691,3.691,0,0,0,43.961-4.141ZM62.406-6.094H55.672V-7.672h6.734Zm0,3.313H55.672v-1.57h6.734ZM75.977,0H68.328V-1.3l3.789-4.133a9.436,9.436,0,0,0,1.168-1.527,2.475,2.475,0,0,0,.348-1.23,1.87,1.87,0,0,0-.457-1.312,1.585,1.585,0,0,0-1.23-.5,1.827,1.827,0,0,0-1.43.563,2.212,2.212,0,0,0-.508,1.539h-1.9a3.721,3.721,0,0,1,.473-1.871,3.255,3.255,0,0,1,1.352-1.293,4.3,4.3,0,0,1,2.027-.461,3.848,3.848,0,0,1,2.613.832,2.888,2.888,0,0,1,.957,2.3,3.9,3.9,0,0,1-.48,1.785,10.151,10.151,0,0,1-1.574,2.121L70.7-1.516h5.281ZM88.93-4.141a5.033,5.033,0,0,1-.891,3.129A2.852,2.852,0,0,1,85.648.156a2.871,2.871,0,0,1-2.227-.914V3.25h-1.9v-11.7h1.75l.078.859a2.788,2.788,0,0,1,2.273-1.016,2.881,2.881,0,0,1,2.426,1.152,5.167,5.167,0,0,1,.879,3.2ZM87.039-4.3a3.526,3.526,0,0,0-.5-2.008,1.638,1.638,0,0,0-1.441-.742,1.747,1.747,0,0,0-1.672.961v3.75a1.763,1.763,0,0,0,1.688.984,1.636,1.636,0,0,0,1.418-.73A3.881,3.881,0,0,0,87.039-4.3ZM95.586,0a2.93,2.93,0,0,1-.219-.789,2.955,2.955,0,0,1-2.219.945A2.982,2.982,0,0,1,91.07-.57a2.325,2.325,0,0,1-.8-1.8,2.4,2.4,0,0,1,1-2.074,4.865,4.865,0,0,1,2.871-.723H95.3v-.555a1.481,1.481,0,0,0-.367-1.051,1.456,1.456,0,0,0-1.117-.395,1.672,1.672,0,0,0-1.062.324,1,1,0,0,0-.414.824h-1.9a2.107,2.107,0,0,1,.461-1.3,3.071,3.071,0,0,1,1.254-.949,4.4,4.4,0,0,1,1.77-.344,3.547,3.547,0,0,1,2.367.746,2.661,2.661,0,0,1,.906,2.1v3.813a4.321,4.321,0,0,0,.32,1.82V0ZM93.5-1.367a2.159,2.159,0,0,0,1.059-.273,1.827,1.827,0,0,0,.746-.734V-3.969H94.281A2.8,2.8,0,0,0,92.7-3.6a1.189,1.189,0,0,0-.531,1.039,1.109,1.109,0,0,0,.363.871A1.407,1.407,0,0,0,93.5-1.367Zm10.117-5.352a4.7,4.7,0,0,0-.773-.062,1.741,1.741,0,0,0-1.758,1V0h-1.9V-8.453H101l.047.945a2.139,2.139,0,0,1,1.906-1.1,1.777,1.777,0,0,1,.672.109Zm4.369-3.789v2.055h1.492v1.406h-1.492v4.719a1.039,1.039,0,0,0,.191.7.888.888,0,0,0,.684.215,2.924,2.924,0,0,0,.664-.078V-.023a4.676,4.676,0,0,1-1.25.18q-2.188,0-2.187-2.414V-7.047H104.7V-8.453h1.391v-2.055ZM114.65.156A3.928,3.928,0,0,1,111.724-.98,4.124,4.124,0,0,1,110.6-4.008v-.234a5.072,5.072,0,0,1,.488-2.262,3.716,3.716,0,0,1,1.371-1.551,3.625,3.625,0,0,1,1.969-.555,3.318,3.318,0,0,1,2.668,1.1,4.658,4.658,0,0,1,.941,3.117v.766h-5.523a2.539,2.539,0,0,0,.7,1.656,2.1,2.1,0,0,0,1.543.609,2.571,2.571,0,0,0,2.125-1.055l1.023.977a3.418,3.418,0,0,1-1.355,1.176A4.244,4.244,0,0,1,114.65.156Zm-.227-7.242a1.6,1.6,0,0,0-1.262.547,2.835,2.835,0,0,0-.613,1.523h3.617v-.141a2.307,2.307,0,0,0-.508-1.441A1.586,1.586,0,0,0,114.423-7.086ZM124.252-2.3a.861.861,0,0,0-.418-.773,4.445,4.445,0,0,0-1.387-.469,7.129,7.129,0,0,1-1.617-.516,2.158,2.158,0,0,1-1.422-1.992,2.25,2.25,0,0,1,.922-1.828,3.644,3.644,0,0,1,2.344-.734,3.792,3.792,0,0,1,2.449.75,2.38,2.38,0,0,1,.934,1.945h-1.9a1.17,1.17,0,0,0-.406-.91,1.557,1.557,0,0,0-1.078-.363,1.682,1.682,0,0,0-1.02.289.911.911,0,0,0-.395.773.769.769,0,0,0,.367.68,5.049,5.049,0,0,0,1.484.488,7.027,7.027,0,0,1,1.754.586,2.484,2.484,0,0,1,.945.816,2.082,2.082,0,0,1,.309,1.156,2.2,2.2,0,0,1-.945,1.848A4.031,4.031,0,0,1,122.7.156a4.371,4.371,0,0,1-1.852-.375A3.047,3.047,0,0,1,119.58-1.25a2.441,2.441,0,0,1-.453-1.414h1.844a1.338,1.338,0,0,0,.508,1.035,1.973,1.973,0,0,0,1.242.363,1.92,1.92,0,0,0,1.141-.285A.883.883,0,0,0,124.252-2.3Z" transform="translate(454.43 1937.121)"/>
    <path id="Trazado_634692" data-name="Trazado 634692" d="M7.1-2.93a1.374,1.374,0,0,0-.527-1.156,6.345,6.345,0,0,0-1.9-.82,9.186,9.186,0,0,1-2.187-.922A2.919,2.919,0,0,1,.93-8.375a2.772,2.772,0,0,1,1.121-2.266,4.538,4.538,0,0,1,2.91-.891,4.916,4.916,0,0,1,2.117.438A3.475,3.475,0,0,1,8.539-9.848,3.2,3.2,0,0,1,9.07-8.055H7.1a1.782,1.782,0,0,0-.559-1.395,2.305,2.305,0,0,0-1.6-.5,2.408,2.408,0,0,0-1.5.414,1.379,1.379,0,0,0-.535,1.156A1.247,1.247,0,0,0,3.484-7.34a6.66,6.66,0,0,0,1.906.813,8.768,8.768,0,0,1,2.133.9A3.392,3.392,0,0,1,8.7-4.473a3.011,3.011,0,0,1,.375,1.527A2.707,2.707,0,0,1,7.988-.684a4.727,4.727,0,0,1-2.957.84A5.557,5.557,0,0,1,2.762-.3,3.812,3.812,0,0,1,1.152-1.562,3.144,3.144,0,0,1,.578-3.437H2.555a1.84,1.84,0,0,0,.641,1.5,2.805,2.805,0,0,0,1.836.531,2.437,2.437,0,0,0,1.551-.418A1.349,1.349,0,0,0,7.1-2.93ZM12.648,0h-1.9V-8.453h1.9ZM10.633-10.648a1.008,1.008,0,0,1,.277-.727,1.048,1.048,0,0,1,.793-.289,1.061,1.061,0,0,1,.8.289,1,1,0,0,1,.281.727.977.977,0,0,1-.281.715,1.069,1.069,0,0,1-.8.285,1.056,1.056,0,0,1-.793-.285A.984.984,0,0,1,10.633-10.648Zm5.867,2.2.055.883a3.042,3.042,0,0,1,2.438-1.039,2.337,2.337,0,0,1,2.32,1.3,3,3,0,0,1,2.594-1.3,2.636,2.636,0,0,1,2.082.773,3.405,3.405,0,0,1,.7,2.281V0h-1.9V-5.5a1.681,1.681,0,0,0-.352-1.18,1.539,1.539,0,0,0-1.164-.375,1.581,1.581,0,0,0-1.059.348,1.833,1.833,0,0,0-.574.91L21.648,0h-1.9V-5.562a1.354,1.354,0,0,0-1.523-1.492,1.671,1.671,0,0,0-1.617.93V0h-1.9V-8.453ZM36.039-4.141a5.033,5.033,0,0,1-.891,3.129A2.852,2.852,0,0,1,32.758.156a2.871,2.871,0,0,1-2.227-.914V3.25h-1.9v-11.7h1.75l.078.859a2.788,2.788,0,0,1,2.273-1.016A2.881,2.881,0,0,1,35.16-7.457a5.167,5.167,0,0,1,.879,3.2ZM34.148-4.3a3.526,3.526,0,0,0-.5-2.008A1.638,1.638,0,0,0,32.2-7.055a1.747,1.747,0,0,0-1.672.961v3.75a1.763,1.763,0,0,0,1.688.984,1.636,1.636,0,0,0,1.418-.73A3.881,3.881,0,0,0,34.148-4.3ZM39.664,0h-1.9V-12h1.9Zm5.789.156A3.928,3.928,0,0,1,42.527-.98a4.124,4.124,0,0,1-1.121-3.027v-.234A5.072,5.072,0,0,1,41.895-6.5a3.716,3.716,0,0,1,1.371-1.551,3.625,3.625,0,0,1,1.969-.555,3.318,3.318,0,0,1,2.668,1.1,4.658,4.658,0,0,1,.941,3.117v.766H43.32a2.539,2.539,0,0,0,.7,1.656,2.1,2.1,0,0,0,1.543.609,2.571,2.571,0,0,0,2.125-1.055l1.023.977A3.418,3.418,0,0,1,47.355-.262,4.244,4.244,0,0,1,45.453.156Zm-.227-7.242a1.6,1.6,0,0,0-1.262.547,2.835,2.835,0,0,0-.613,1.523h3.617v-.141A2.307,2.307,0,0,0,46.461-6.6,1.586,1.586,0,0,0,45.227-7.086ZM53.945-4.3a4.984,4.984,0,0,1,.492-2.238A3.6,3.6,0,0,1,55.82-8.074a3.9,3.9,0,0,1,2.047-.535,3.692,3.692,0,0,1,2.777,1.1A4.333,4.333,0,0,1,61.8-4.586l.008.445a5.029,5.029,0,0,1-.48,2.234A3.551,3.551,0,0,1,59.949-.383a3.925,3.925,0,0,1-2.066.539A3.667,3.667,0,0,1,55.02-1.035a4.563,4.563,0,0,1-1.074-3.176Zm1.9.164A3.406,3.406,0,0,0,56.383-2.1a1.752,1.752,0,0,0,1.5.738,1.733,1.733,0,0,0,1.5-.75,3.762,3.762,0,0,0,.535-2.2,3.362,3.362,0,0,0-.551-2.031,1.759,1.759,0,0,0-1.5-.75,1.743,1.743,0,0,0-1.477.738A3.691,3.691,0,0,0,55.844-4.141Zm11.2-.148a5.026,5.026,0,0,1,.906-3.137,2.9,2.9,0,0,1,2.43-1.184,2.759,2.759,0,0,1,2.172.938V-12h1.9V0H72.727l-.094-.875A2.8,2.8,0,0,1,70.359.156a2.887,2.887,0,0,1-2.4-1.2A5.21,5.21,0,0,1,67.039-4.289Zm1.9.164a3.519,3.519,0,0,0,.5,2.012,1.61,1.61,0,0,0,1.41.723,1.793,1.793,0,0,0,1.7-1.039V-6.039a1.766,1.766,0,0,0-1.687-1.016,1.622,1.622,0,0,0-1.422.73A3.918,3.918,0,0,0,68.938-4.125ZM80.148.156A3.928,3.928,0,0,1,77.223-.98,4.124,4.124,0,0,1,76.1-4.008v-.234A5.072,5.072,0,0,1,76.59-6.5a3.716,3.716,0,0,1,1.371-1.551,3.625,3.625,0,0,1,1.969-.555,3.318,3.318,0,0,1,2.668,1.1,4.658,4.658,0,0,1,.941,3.117v.766H78.016a2.539,2.539,0,0,0,.7,1.656,2.1,2.1,0,0,0,1.543.609,2.571,2.571,0,0,0,2.125-1.055l1.023.977A3.418,3.418,0,0,1,82.051-.262,4.244,4.244,0,0,1,80.148.156Zm-.227-7.242a1.6,1.6,0,0,0-1.262.547,2.835,2.835,0,0,0-.613,1.523h3.617v-.141A2.307,2.307,0,0,0,81.156-6.6,1.586,1.586,0,0,0,79.922-7.086Z" transform="translate(571.262 2014.05)"/>
    <path id="Trazado_634693" data-name="Trazado 634693" d="M5.711-2.3a.861.861,0,0,0-.418-.773,4.445,4.445,0,0,0-1.387-.469,7.129,7.129,0,0,1-1.617-.516A2.158,2.158,0,0,1,.867-6.047a2.25,2.25,0,0,1,.922-1.828,3.644,3.644,0,0,1,2.344-.734,3.792,3.792,0,0,1,2.449.75,2.38,2.38,0,0,1,.934,1.945h-1.9a1.17,1.17,0,0,0-.406-.91,1.557,1.557,0,0,0-1.078-.363,1.682,1.682,0,0,0-1.02.289.911.911,0,0,0-.395.773.769.769,0,0,0,.367.68,5.049,5.049,0,0,0,1.484.488,7.027,7.027,0,0,1,1.754.586,2.484,2.484,0,0,1,.945.816A2.082,2.082,0,0,1,7.578-2.4,2.2,2.2,0,0,1,6.633-.551,4.031,4.031,0,0,1,4.156.156,4.371,4.371,0,0,1,2.3-.219,3.047,3.047,0,0,1,1.039-1.25,2.441,2.441,0,0,1,.586-2.664H2.43a1.338,1.338,0,0,0,.508,1.035,1.973,1.973,0,0,0,1.242.363A1.92,1.92,0,0,0,5.32-1.551.883.883,0,0,0,5.711-2.3ZM14.352-.828a2.944,2.944,0,0,1-2.375.984,2.624,2.624,0,0,1-2.082-.8,3.423,3.423,0,0,1-.707-2.328V-8.453h1.9V-3q0,1.609,1.336,1.609a1.876,1.876,0,0,0,1.867-.992v-6.07h1.9V0H14.4ZM25.539-4.141a5.078,5.078,0,0,1-.879,3.133A2.863,2.863,0,0,1,22.242.156,2.758,2.758,0,0,1,19.93-.914L19.836,0H18.117V-12h1.9v4.359a2.748,2.748,0,0,1,2.211-.969,2.9,2.9,0,0,1,2.43,1.148,5.162,5.162,0,0,1,.883,3.211Zm-1.9-.164a3.589,3.589,0,0,0-.484-2.062,1.613,1.613,0,0,0-1.406-.687,1.763,1.763,0,0,0-1.734,1.078v3.484a1.781,1.781,0,0,0,1.75,1.1,1.6,1.6,0,0,0,1.375-.664,3.477,3.477,0,0,0,.5-2.008Zm3.133.016a5.026,5.026,0,0,1,.906-3.137,2.9,2.9,0,0,1,2.43-1.184,2.759,2.759,0,0,1,2.172.938V-12h1.9V0H32.461l-.094-.875A2.8,2.8,0,0,1,30.094.156a2.887,2.887,0,0,1-2.4-1.2A5.21,5.21,0,0,1,26.773-4.289Zm1.9.164a3.519,3.519,0,0,0,.5,2.012,1.61,1.61,0,0,0,1.41.723,1.793,1.793,0,0,0,1.7-1.039V-6.039a1.766,1.766,0,0,0-1.687-1.016,1.622,1.622,0,0,0-1.422.73A3.918,3.918,0,0,0,28.672-4.125ZM38.18,0h-1.9V-8.453h1.9ZM36.164-10.648a1.008,1.008,0,0,1,.277-.727,1.048,1.048,0,0,1,.793-.289,1.061,1.061,0,0,1,.8.289,1,1,0,0,1,.281.727.977.977,0,0,1-.281.715,1.069,1.069,0,0,1-.8.285,1.056,1.056,0,0,1-.793-.285A.984.984,0,0,1,36.164-10.648Zm7.063,8.242,1.789-6.047h1.961L44.047,0H42.4L39.445-8.453h1.969ZM50.18,0h-1.9V-8.453h1.9ZM48.164-10.648a1.008,1.008,0,0,1,.277-.727,1.048,1.048,0,0,1,.793-.289,1.061,1.061,0,0,1,.8.289,1,1,0,0,1,.281.727.977.977,0,0,1-.281.715,1.069,1.069,0,0,1-.8.285,1.056,1.056,0,0,1-.793-.285A.984.984,0,0,1,48.164-10.648ZM56.984-2.3a.861.861,0,0,0-.418-.773,4.445,4.445,0,0,0-1.387-.469,7.129,7.129,0,0,1-1.617-.516,2.158,2.158,0,0,1-1.422-1.992,2.25,2.25,0,0,1,.922-1.828,3.644,3.644,0,0,1,2.344-.734,3.792,3.792,0,0,1,2.449.75,2.38,2.38,0,0,1,.934,1.945h-1.9a1.17,1.17,0,0,0-.406-.91,1.557,1.557,0,0,0-1.078-.363,1.682,1.682,0,0,0-1.02.289.911.911,0,0,0-.395.773.769.769,0,0,0,.367.68,5.049,5.049,0,0,0,1.484.488,7.027,7.027,0,0,1,1.754.586,2.484,2.484,0,0,1,.945.816A2.082,2.082,0,0,1,58.852-2.4a2.2,2.2,0,0,1-.945,1.848A4.031,4.031,0,0,1,55.43.156a4.371,4.371,0,0,1-1.852-.375A3.047,3.047,0,0,1,52.313-1.25a2.441,2.441,0,0,1-.453-1.414H53.7a1.338,1.338,0,0,0,.508,1.035,1.973,1.973,0,0,0,1.242.363,1.92,1.92,0,0,0,1.141-.285A.883.883,0,0,0,56.984-2.3ZM62.523,0h-1.9V-8.453h1.9ZM60.508-10.648a1.008,1.008,0,0,1,.277-.727,1.048,1.048,0,0,1,.793-.289,1.061,1.061,0,0,1,.8.289,1,1,0,0,1,.281.727.977.977,0,0,1-.281.715,1.069,1.069,0,0,1-.8.285,1.056,1.056,0,0,1-.793-.285A.984.984,0,0,1,60.508-10.648ZM64.234-4.3a4.984,4.984,0,0,1,.492-2.238,3.6,3.6,0,0,1,1.383-1.531,3.9,3.9,0,0,1,2.047-.535,3.692,3.692,0,0,1,2.777,1.1,4.333,4.333,0,0,1,1.152,2.922l.008.445a5.029,5.029,0,0,1-.48,2.234A3.551,3.551,0,0,1,70.238-.383a3.925,3.925,0,0,1-2.066.539,3.667,3.667,0,0,1-2.863-1.191,4.563,4.563,0,0,1-1.074-3.176Zm1.9.164A3.406,3.406,0,0,0,66.672-2.1a1.752,1.752,0,0,0,1.5.738,1.733,1.733,0,0,0,1.5-.75A3.762,3.762,0,0,0,70.2-4.3a3.362,3.362,0,0,0-.551-2.031,1.759,1.759,0,0,0-1.5-.75,1.743,1.743,0,0,0-1.477.738A3.691,3.691,0,0,0,66.133-4.141ZM68.68-12h2.164L68.68-9.633l-1.523,0Zm6.781,3.547.055.977a3.039,3.039,0,0,1,2.461-1.133q2.641,0,2.688,3.023V0h-1.9V-5.477a1.741,1.741,0,0,0-.348-1.191,1.462,1.462,0,0,0-1.137-.387A1.829,1.829,0,0,0,75.57-6.016V0h-1.9V-8.453Z" transform="translate(572.462 2033.25)"/>
    <path id="Trazado_634694" data-name="Trazado 634694" d="M8.391-4.141a5.078,5.078,0,0,1-.879,3.133A2.863,2.863,0,0,1,5.094.156,2.758,2.758,0,0,1,2.781-.914L2.688,0H.969V-12h1.9v4.359a2.748,2.748,0,0,1,2.211-.969,2.9,2.9,0,0,1,2.43,1.148A5.162,5.162,0,0,1,8.391-4.25ZM6.492-4.3a3.589,3.589,0,0,0-.484-2.062A1.613,1.613,0,0,0,4.6-7.055,1.763,1.763,0,0,0,2.867-5.977v3.484a1.781,1.781,0,0,0,1.75,1.1,1.6,1.6,0,0,0,1.375-.664,3.477,3.477,0,0,0,.5-2.008ZM12,0H10.1V-8.453H12ZM9.984-10.648a1.008,1.008,0,0,1,.277-.727,1.048,1.048,0,0,1,.793-.289,1.061,1.061,0,0,1,.8.289,1,1,0,0,1,.281.727.977.977,0,0,1-.281.715,1.069,1.069,0,0,1-.8.285,1.056,1.056,0,0,1-.793-.285A.984.984,0,0,1,9.984-10.648Zm5.844,2.2.055.977a3.039,3.039,0,0,1,2.461-1.133q2.641,0,2.688,3.023V0h-1.9V-5.477a1.741,1.741,0,0,0-.348-1.191,1.462,1.462,0,0,0-1.137-.387,1.829,1.829,0,0,0-1.711,1.039V0h-1.9V-8.453ZM28.016,0A2.93,2.93,0,0,1,27.8-.789a2.955,2.955,0,0,1-2.219.945A2.982,2.982,0,0,1,23.5-.57a2.325,2.325,0,0,1-.8-1.8,2.4,2.4,0,0,1,1-2.074,4.865,4.865,0,0,1,2.871-.723h1.164v-.555a1.481,1.481,0,0,0-.367-1.051,1.456,1.456,0,0,0-1.117-.395,1.672,1.672,0,0,0-1.062.324,1,1,0,0,0-.414.824h-1.9a2.107,2.107,0,0,1,.461-1.3,3.071,3.071,0,0,1,1.254-.949,4.4,4.4,0,0,1,1.77-.344,3.547,3.547,0,0,1,2.367.746,2.661,2.661,0,0,1,.906,2.1v3.813a4.321,4.321,0,0,0,.32,1.82V0ZM25.93-1.367a2.159,2.159,0,0,0,1.059-.273,1.827,1.827,0,0,0,.746-.734V-3.969H26.711a2.8,2.8,0,0,0-1.586.367,1.189,1.189,0,0,0-.531,1.039,1.109,1.109,0,0,0,.363.871A1.407,1.407,0,0,0,25.93-1.367ZM36.047-6.719a4.7,4.7,0,0,0-.773-.062,1.741,1.741,0,0,0-1.758,1V0h-1.9V-8.453H33.43l.047.945a2.139,2.139,0,0,1,1.906-1.1,1.777,1.777,0,0,1,.672.109ZM39.266,0h-1.9V-8.453h1.9ZM37.25-10.648a1.008,1.008,0,0,1,.277-.727,1.048,1.048,0,0,1,.793-.289,1.061,1.061,0,0,1,.8.289,1,1,0,0,1,.281.727.977.977,0,0,1-.281.715,1.069,1.069,0,0,1-.8.285,1.056,1.056,0,0,1-.793-.285A.984.984,0,0,1,37.25-10.648ZM46.383,0a2.93,2.93,0,0,1-.219-.789,2.955,2.955,0,0,1-2.219.945A2.982,2.982,0,0,1,41.867-.57a2.325,2.325,0,0,1-.8-1.8,2.4,2.4,0,0,1,1-2.074,4.865,4.865,0,0,1,2.871-.723H46.1v-.555a1.481,1.481,0,0,0-.367-1.051,1.456,1.456,0,0,0-1.117-.395,1.672,1.672,0,0,0-1.062.324,1,1,0,0,0-.414.824h-1.9a2.107,2.107,0,0,1,.461-1.3,3.071,3.071,0,0,1,1.254-.949,4.4,4.4,0,0,1,1.77-.344,3.547,3.547,0,0,1,2.367.746A2.661,2.661,0,0,1,48-5.766v3.813a4.321,4.321,0,0,0,.32,1.82V0ZM44.3-1.367a2.16,2.16,0,0,0,1.059-.273,1.827,1.827,0,0,0,.746-.734V-3.969H45.078a2.8,2.8,0,0,0-1.586.367,1.189,1.189,0,0,0-.531,1.039,1.109,1.109,0,0,0,.363.871A1.407,1.407,0,0,0,44.3-1.367Z" transform="translate(588.766 2052.449)"/>
    <path id="Trazado_634695" data-name="Trazado 634695" d="M7.8-5.078H3.133v3.5H8.594V0H1.156V-11.375H8.539v1.594H3.133v3.141H7.8ZM12.039,0h-1.9V-12h1.9Zm7.813-8.453.055.977a3.039,3.039,0,0,1,2.461-1.133q2.641,0,2.688,3.023V0h-1.9V-5.477a1.741,1.741,0,0,0-.348-1.191,1.462,1.462,0,0,0-1.137-.387,1.829,1.829,0,0,0-1.711,1.039V0h-1.9V-8.453ZM32.109-.828a2.944,2.944,0,0,1-2.375.984,2.624,2.624,0,0,1-2.082-.8,3.423,3.423,0,0,1-.707-2.328V-8.453h1.9V-3q0,1.609,1.336,1.609a1.876,1.876,0,0,0,1.867-.992v-6.07h1.9V0H32.156Zm5.555-7.625.055.883a3.042,3.042,0,0,1,2.438-1.039,2.337,2.337,0,0,1,2.32,1.3,3,3,0,0,1,2.594-1.3,2.636,2.636,0,0,1,2.082.773,3.405,3.405,0,0,1,.7,2.281V0h-1.9V-5.5A1.681,1.681,0,0,0,45.6-6.68a1.539,1.539,0,0,0-1.164-.375,1.581,1.581,0,0,0-1.059.348,1.833,1.833,0,0,0-.574.91L42.813,0h-1.9V-5.562a1.354,1.354,0,0,0-1.523-1.492,1.671,1.671,0,0,0-1.617.93V0h-1.9V-8.453ZM53.523.156A3.928,3.928,0,0,1,50.6-.98a4.124,4.124,0,0,1-1.121-3.027v-.234A5.072,5.072,0,0,1,49.965-6.5a3.716,3.716,0,0,1,1.371-1.551A3.625,3.625,0,0,1,53.3-8.609a3.318,3.318,0,0,1,2.668,1.1,4.658,4.658,0,0,1,.941,3.117v.766H51.391a2.539,2.539,0,0,0,.7,1.656,2.1,2.1,0,0,0,1.543.609,2.571,2.571,0,0,0,2.125-1.055l1.023.977A3.418,3.418,0,0,1,55.426-.262,4.244,4.244,0,0,1,53.523.156ZM53.3-7.086a1.6,1.6,0,0,0-1.262.547,2.835,2.835,0,0,0-.613,1.523h3.617v-.141A2.307,2.307,0,0,0,54.531-6.6,1.586,1.586,0,0,0,53.3-7.086Zm9.516.367a4.7,4.7,0,0,0-.773-.062,1.741,1.741,0,0,0-1.758,1V0h-1.9V-8.453H60.2l.047.945a2.139,2.139,0,0,1,1.906-1.1,1.777,1.777,0,0,1,.672.109ZM68.6,0a2.93,2.93,0,0,1-.219-.789,2.955,2.955,0,0,1-2.219.945A2.982,2.982,0,0,1,64.089-.57a2.325,2.325,0,0,1-.8-1.8,2.4,2.4,0,0,1,1-2.074,4.865,4.865,0,0,1,2.871-.723h1.164v-.555a1.481,1.481,0,0,0-.367-1.051,1.456,1.456,0,0,0-1.117-.395,1.672,1.672,0,0,0-1.062.324,1,1,0,0,0-.414.824h-1.9a2.107,2.107,0,0,1,.461-1.3,3.071,3.071,0,0,1,1.254-.949,4.4,4.4,0,0,1,1.77-.344,3.547,3.547,0,0,1,2.367.746,2.661,2.661,0,0,1,.906,2.1v3.813a4.321,4.321,0,0,0,.32,1.82V0ZM66.518-1.367a2.159,2.159,0,0,0,1.059-.273,1.827,1.827,0,0,0,.746-.734V-3.969H67.3a2.8,2.8,0,0,0-1.586.367,1.189,1.189,0,0,0-.531,1.039,1.109,1.109,0,0,0,.363.871A1.407,1.407,0,0,0,66.518-1.367Zm5.336-2.922a5.026,5.026,0,0,1,.906-3.137,2.9,2.9,0,0,1,2.43-1.184,2.759,2.759,0,0,1,2.172.938V-12h1.9V0H77.542l-.094-.875A2.8,2.8,0,0,1,75.174.156a2.887,2.887,0,0,1-2.4-1.2A5.21,5.21,0,0,1,71.854-4.289Zm1.9.164a3.519,3.519,0,0,0,.5,2.012,1.61,1.61,0,0,0,1.41.723,1.793,1.793,0,0,0,1.7-1.039V-6.039a1.766,1.766,0,0,0-1.687-1.016,1.622,1.622,0,0,0-1.422.73A3.918,3.918,0,0,0,73.753-4.125Zm7.133-.18a4.984,4.984,0,0,1,.492-2.238A3.6,3.6,0,0,1,82.76-8.074a3.9,3.9,0,0,1,2.047-.535,3.692,3.692,0,0,1,2.777,1.1,4.333,4.333,0,0,1,1.152,2.922l.008.445a5.029,5.029,0,0,1-.48,2.234A3.551,3.551,0,0,1,86.889-.383a3.925,3.925,0,0,1-2.066.539A3.667,3.667,0,0,1,81.96-1.035a4.563,4.563,0,0,1-1.074-3.176Zm1.9.164A3.406,3.406,0,0,0,83.323-2.1a1.752,1.752,0,0,0,1.5.738,1.733,1.733,0,0,0,1.5-.75,3.762,3.762,0,0,0,.535-2.2A3.362,3.362,0,0,0,86.3-6.336a1.759,1.759,0,0,0-1.5-.75,1.743,1.743,0,0,0-1.477.738A3.691,3.691,0,0,0,82.784-4.141ZM94.776-6.719A4.7,4.7,0,0,0,94-6.781a1.741,1.741,0,0,0-1.758,1V0h-1.9V-8.453h1.813l.047.945a2.139,2.139,0,0,1,1.906-1.1,1.777,1.777,0,0,1,.672.109Z" transform="translate(661.086 1910.897)"/>
    <path id="Trazado_634696" data-name="Trazado 634696" d="M8.5,0H.852V-1.3L4.641-5.437A9.436,9.436,0,0,0,5.809-6.965,2.475,2.475,0,0,0,6.156-8.2,1.87,1.87,0,0,0,5.7-9.508a1.585,1.585,0,0,0-1.23-.5,1.827,1.827,0,0,0-1.43.563,2.212,2.212,0,0,0-.508,1.539H.633a3.721,3.721,0,0,1,.473-1.871A3.255,3.255,0,0,1,2.457-11.07a4.3,4.3,0,0,1,2.027-.461A3.848,3.848,0,0,1,7.1-10.7a2.888,2.888,0,0,1,.957,2.3,3.9,3.9,0,0,1-.48,1.785A10.151,10.151,0,0,1,6-4.492L3.219-1.516H8.5Zm7.57,0h-1.9V-8.453h1.9ZM14.055-10.648a1.008,1.008,0,0,1,.277-.727,1.048,1.048,0,0,1,.793-.289,1.061,1.061,0,0,1,.8.289,1,1,0,0,1,.281.727.977.977,0,0,1-.281.715,1.069,1.069,0,0,1-.8.285,1.056,1.056,0,0,1-.793-.285A.984.984,0,0,1,14.055-10.648Zm5.844,2.2.055.977a3.039,3.039,0,0,1,2.461-1.133q2.641,0,2.688,3.023V0H23.2V-5.477a1.741,1.741,0,0,0-.348-1.191,1.462,1.462,0,0,0-1.137-.387,1.829,1.829,0,0,0-1.711,1.039V0h-1.9V-8.453ZM26.68-4.289a5.026,5.026,0,0,1,.906-3.137,2.9,2.9,0,0,1,2.43-1.184,2.759,2.759,0,0,1,2.172.938V-12h1.9V0H32.367l-.094-.875A2.8,2.8,0,0,1,30,.156a2.887,2.887,0,0,1-2.4-1.2A5.21,5.21,0,0,1,26.68-4.289Zm1.9.164a3.519,3.519,0,0,0,.5,2.012,1.61,1.61,0,0,0,1.41.723,1.793,1.793,0,0,0,1.7-1.039V-6.039A1.766,1.766,0,0,0,30.5-7.055a1.622,1.622,0,0,0-1.422.73A3.918,3.918,0,0,0,28.578-4.125ZM38.086,0h-1.9V-8.453h1.9ZM36.07-10.648a1.008,1.008,0,0,1,.277-.727,1.048,1.048,0,0,1,.793-.289,1.061,1.061,0,0,1,.8.289,1,1,0,0,1,.281.727.977.977,0,0,1-.281.715,1.069,1.069,0,0,1-.8.285,1.056,1.056,0,0,1-.793-.285A.984.984,0,0,1,36.07-10.648Zm7.555,9.289a1.716,1.716,0,0,0,1.18-.414A1.415,1.415,0,0,0,45.3-2.8h1.789A2.789,2.789,0,0,1,46.6-1.324a3.228,3.228,0,0,1-1.25,1.082,3.725,3.725,0,0,1-1.7.4A3.6,3.6,0,0,1,40.836-.992,4.555,4.555,0,0,1,39.8-4.164v-.2a4.479,4.479,0,0,1,1.031-3.09,3.571,3.571,0,0,1,2.813-1.16A3.473,3.473,0,0,1,46.1-7.73a3.148,3.148,0,0,1,1,2.309H45.3a1.738,1.738,0,0,0-.5-1.2,1.6,1.6,0,0,0-1.184-.469,1.671,1.671,0,0,0-1.422.668A3.408,3.408,0,0,0,41.7-4.391v.3a3.465,3.465,0,0,0,.5,2.051A1.669,1.669,0,0,0,43.625-1.359ZM53.578,0a2.93,2.93,0,0,1-.219-.789,2.955,2.955,0,0,1-2.219.945A2.982,2.982,0,0,1,49.063-.57a2.325,2.325,0,0,1-.8-1.8,2.4,2.4,0,0,1,1-2.074,4.865,4.865,0,0,1,2.871-.723H53.3v-.555A1.481,1.481,0,0,0,52.93-6.77a1.456,1.456,0,0,0-1.117-.395,1.672,1.672,0,0,0-1.062.324,1,1,0,0,0-.414.824h-1.9a2.107,2.107,0,0,1,.461-1.3,3.071,3.071,0,0,1,1.254-.949,4.4,4.4,0,0,1,1.77-.344,3.547,3.547,0,0,1,2.367.746,2.661,2.661,0,0,1,.906,2.1v3.813a4.321,4.321,0,0,0,.32,1.82V0ZM51.492-1.367a2.16,2.16,0,0,0,1.059-.273,1.827,1.827,0,0,0,.746-.734V-3.969H52.273a2.8,2.8,0,0,0-1.586.367,1.189,1.189,0,0,0-.531,1.039,1.109,1.109,0,0,0,.363.871A1.407,1.407,0,0,0,51.492-1.367Zm9.32-2.93a5,5,0,0,1,.906-3.148,2.945,2.945,0,0,1,2.453-1.164,2.768,2.768,0,0,1,2.242.992l.109-.836h1.688V3.25h-1.9V-.719a2.834,2.834,0,0,1-2.156.875,2.917,2.917,0,0,1-2.43-1.184A5.23,5.23,0,0,1,60.813-4.3Zm1.9.164A3.528,3.528,0,0,0,63.223-2.1a1.631,1.631,0,0,0,1.418.738,1.8,1.8,0,0,0,1.672-.961V-6.164a1.8,1.8,0,0,0-1.656-.922,1.659,1.659,0,0,0-1.426.727A3.849,3.849,0,0,0,62.711-4.133Zm12.664,3.3A2.944,2.944,0,0,1,73,.156a2.624,2.624,0,0,1-2.082-.8,3.423,3.423,0,0,1-.707-2.328V-8.453h1.9V-3q0,1.609,1.336,1.609a1.876,1.876,0,0,0,1.867-.992v-6.07h1.9V0H75.422Zm7.492.984A3.928,3.928,0,0,1,79.941-.98,4.124,4.124,0,0,1,78.82-4.008v-.234A5.072,5.072,0,0,1,79.309-6.5,3.716,3.716,0,0,1,80.68-8.055a3.625,3.625,0,0,1,1.969-.555,3.318,3.318,0,0,1,2.668,1.1,4.658,4.658,0,0,1,.941,3.117v.766H80.734a2.539,2.539,0,0,0,.7,1.656,2.1,2.1,0,0,0,1.543.609A2.571,2.571,0,0,0,85.1-2.414l1.023.977A3.418,3.418,0,0,1,84.77-.262,4.244,4.244,0,0,1,82.867.156Zm-.227-7.242a1.6,1.6,0,0,0-1.262.547,2.835,2.835,0,0,0-.613,1.523h3.617v-.141A2.307,2.307,0,0,0,83.875-6.6,1.586,1.586,0,0,0,82.641-7.086Zm11.453-3.422v2.055h1.492v1.406H94.094v4.719a1.039,1.039,0,0,0,.191.7.888.888,0,0,0,.684.215,2.924,2.924,0,0,0,.664-.078V-.023a4.676,4.676,0,0,1-1.25.18Q92.2.156,92.2-2.258V-7.047H90.8V-8.453H92.2v-2.055ZM99.055,0h-1.9V-8.453h1.9ZM97.039-10.648a1.008,1.008,0,0,1,.277-.727,1.048,1.048,0,0,1,.793-.289,1.061,1.061,0,0,1,.8.289,1,1,0,0,1,.281.727.977.977,0,0,1-.281.715,1.069,1.069,0,0,1-.8.285,1.056,1.056,0,0,1-.793-.285A.984.984,0,0,1,97.039-10.648Zm7.8,10.8A3.928,3.928,0,0,1,101.918-.98,4.124,4.124,0,0,1,100.8-4.008v-.234a5.072,5.072,0,0,1,.488-2.262,3.716,3.716,0,0,1,1.371-1.551,3.625,3.625,0,0,1,1.969-.555,3.318,3.318,0,0,1,2.668,1.1,4.658,4.658,0,0,1,.941,3.117v.766h-5.523a2.539,2.539,0,0,0,.7,1.656,2.1,2.1,0,0,0,1.543.609,2.571,2.571,0,0,0,2.125-1.055l1.023.977a3.418,3.418,0,0,1-1.355,1.176A4.244,4.244,0,0,1,104.844.156Zm-.227-7.242a1.6,1.6,0,0,0-1.262.547,2.835,2.835,0,0,0-.613,1.523h3.617v-.141a2.307,2.307,0,0,0-.508-1.441A1.586,1.586,0,0,0,104.617-7.086Zm6.852-1.367.055.977a3.039,3.039,0,0,1,2.461-1.133q2.641,0,2.688,3.023V0h-1.9V-5.477a1.741,1.741,0,0,0-.348-1.191,1.462,1.462,0,0,0-1.137-.387,1.829,1.829,0,0,0-1.711,1.039V0h-1.9V-8.453ZM122.328.156A3.928,3.928,0,0,1,119.4-.98a4.124,4.124,0,0,1-1.121-3.027v-.234A5.072,5.072,0,0,1,118.77-6.5a3.716,3.716,0,0,1,1.371-1.551,3.625,3.625,0,0,1,1.969-.555,3.318,3.318,0,0,1,2.668,1.1,4.658,4.658,0,0,1,.941,3.117v.766H120.2a2.539,2.539,0,0,0,.7,1.656,2.1,2.1,0,0,0,1.543.609,2.571,2.571,0,0,0,2.125-1.055l1.023.977A3.418,3.418,0,0,1,124.23-.262,4.244,4.244,0,0,1,122.328.156ZM122.1-7.086a1.6,1.6,0,0,0-1.262.547,2.835,2.835,0,0,0-.613,1.523h3.617v-.141a2.307,2.307,0,0,0-.508-1.441A1.586,1.586,0,0,0,122.1-7.086Z" transform="translate(645.582 1930.098)"/>
    <path id="Trazado_634697" data-name="Trazado 634697" d="M8.5,0H.852V-1.3L4.641-5.437A9.436,9.436,0,0,0,5.809-6.965,2.475,2.475,0,0,0,6.156-8.2,1.87,1.87,0,0,0,5.7-9.508a1.585,1.585,0,0,0-1.23-.5,1.827,1.827,0,0,0-1.43.563,2.212,2.212,0,0,0-.508,1.539H.633a3.721,3.721,0,0,1,.473-1.871A3.255,3.255,0,0,1,2.457-11.07a4.3,4.3,0,0,1,2.027-.461A3.848,3.848,0,0,1,7.1-10.7a2.888,2.888,0,0,1,.957,2.3,3.9,3.9,0,0,1-.48,1.785A10.151,10.151,0,0,1,6-4.492L3.219-1.516H8.5ZM21.453-4.141a5.033,5.033,0,0,1-.891,3.129A2.852,2.852,0,0,1,18.172.156a2.871,2.871,0,0,1-2.227-.914V3.25h-1.9v-11.7H15.8l.078.859a2.788,2.788,0,0,1,2.273-1.016,2.881,2.881,0,0,1,2.426,1.152,5.167,5.167,0,0,1,.879,3.2ZM19.563-4.3a3.526,3.526,0,0,0-.5-2.008,1.638,1.638,0,0,0-1.441-.742,1.747,1.747,0,0,0-1.672.961v3.75a1.763,1.763,0,0,0,1.688.984,1.636,1.636,0,0,0,1.418-.73A3.881,3.881,0,0,0,19.563-4.3ZM28.109,0a2.93,2.93,0,0,1-.219-.789,2.955,2.955,0,0,1-2.219.945A2.982,2.982,0,0,1,23.594-.57a2.325,2.325,0,0,1-.8-1.8,2.4,2.4,0,0,1,1-2.074,4.865,4.865,0,0,1,2.871-.723h1.164v-.555a1.481,1.481,0,0,0-.367-1.051,1.456,1.456,0,0,0-1.117-.395,1.672,1.672,0,0,0-1.062.324,1,1,0,0,0-.414.824h-1.9a2.107,2.107,0,0,1,.461-1.3,3.071,3.071,0,0,1,1.254-.949,4.4,4.4,0,0,1,1.77-.344,3.547,3.547,0,0,1,2.367.746,2.661,2.661,0,0,1,.906,2.1v3.813a4.321,4.321,0,0,0,.32,1.82V0ZM26.023-1.367a2.159,2.159,0,0,0,1.059-.273,1.827,1.827,0,0,0,.746-.734V-3.969H26.8a2.8,2.8,0,0,0-1.586.367,1.189,1.189,0,0,0-.531,1.039,1.109,1.109,0,0,0,.363.871A1.407,1.407,0,0,0,26.023-1.367ZM36.141-6.719a4.7,4.7,0,0,0-.773-.062,1.741,1.741,0,0,0-1.758,1V0h-1.9V-8.453h1.813l.047.945a2.139,2.139,0,0,1,1.906-1.1,1.777,1.777,0,0,1,.672.109Zm4.353-3.789v2.055h1.492v1.406H40.493v4.719a1.039,1.039,0,0,0,.191.7.888.888,0,0,0,.684.215,2.924,2.924,0,0,0,.664-.078V-.023a4.676,4.676,0,0,1-1.25.18q-2.187,0-2.187-2.414V-7.047H37.2V-8.453h1.391v-2.055ZM47.157.156A3.928,3.928,0,0,1,44.232-.98a4.124,4.124,0,0,1-1.121-3.027v-.234A5.072,5.072,0,0,1,43.6-6.5,3.716,3.716,0,0,1,44.97-8.055a3.625,3.625,0,0,1,1.969-.555,3.318,3.318,0,0,1,2.668,1.1,4.658,4.658,0,0,1,.941,3.117v.766H45.025a2.539,2.539,0,0,0,.7,1.656,2.1,2.1,0,0,0,1.543.609,2.571,2.571,0,0,0,2.125-1.055l1.023.977A3.418,3.418,0,0,1,49.06-.262,4.244,4.244,0,0,1,47.157.156Zm-.227-7.242a1.6,1.6,0,0,0-1.262.547,2.835,2.835,0,0,0-.613,1.523h3.617v-.141A2.307,2.307,0,0,0,48.165-6.6,1.586,1.586,0,0,0,46.931-7.086ZM56.759-2.3a.861.861,0,0,0-.418-.773,4.445,4.445,0,0,0-1.387-.469,7.129,7.129,0,0,1-1.617-.516,2.158,2.158,0,0,1-1.422-1.992,2.25,2.25,0,0,1,.922-1.828,3.644,3.644,0,0,1,2.344-.734,3.792,3.792,0,0,1,2.449.75,2.38,2.38,0,0,1,.934,1.945h-1.9a1.17,1.17,0,0,0-.406-.91,1.557,1.557,0,0,0-1.078-.363,1.682,1.682,0,0,0-1.02.289.911.911,0,0,0-.395.773.769.769,0,0,0,.367.68,5.049,5.049,0,0,0,1.484.488,7.027,7.027,0,0,1,1.754.586,2.484,2.484,0,0,1,.945.816A2.082,2.082,0,0,1,58.626-2.4a2.2,2.2,0,0,1-.945,1.848A4.031,4.031,0,0,1,55.2.156a4.371,4.371,0,0,1-1.852-.375A3.047,3.047,0,0,1,52.087-1.25a2.441,2.441,0,0,1-.453-1.414h1.844a1.338,1.338,0,0,0,.508,1.035,1.973,1.973,0,0,0,1.242.363,1.92,1.92,0,0,0,1.141-.285A.883.883,0,0,0,56.759-2.3ZM63.907-4.3A4.984,4.984,0,0,1,64.4-6.543a3.6,3.6,0,0,1,1.383-1.531,3.9,3.9,0,0,1,2.047-.535,3.692,3.692,0,0,1,2.777,1.1,4.333,4.333,0,0,1,1.152,2.922l.008.445a5.029,5.029,0,0,1-.48,2.234A3.551,3.551,0,0,1,69.911-.383a3.925,3.925,0,0,1-2.066.539,3.667,3.667,0,0,1-2.863-1.191,4.563,4.563,0,0,1-1.074-3.176Zm1.9.164A3.406,3.406,0,0,0,66.345-2.1a1.752,1.752,0,0,0,1.5.738,1.733,1.733,0,0,0,1.5-.75,3.762,3.762,0,0,0,.535-2.2,3.362,3.362,0,0,0-.551-2.031,1.759,1.759,0,0,0-1.5-.75,1.743,1.743,0,0,0-1.477.738A3.691,3.691,0,0,0,65.806-4.141Z" transform="translate(672.686 1949.298)"/>
    <path id="Trazado_634698" data-name="Trazado 634698" d="M3.352-10.508v2.055H4.844v1.406H3.352v4.719a1.039,1.039,0,0,0,.191.7.888.888,0,0,0,.684.215,2.924,2.924,0,0,0,.664-.078V-.023a4.676,4.676,0,0,1-1.25.18q-2.188,0-2.187-2.414V-7.047H.063V-8.453H1.453v-2.055ZM8.313,0h-1.9V-8.453h1.9ZM6.3-10.648a1.008,1.008,0,0,1,.277-.727,1.048,1.048,0,0,1,.793-.289,1.061,1.061,0,0,1,.8.289,1,1,0,0,1,.281.727.977.977,0,0,1-.281.715,1.069,1.069,0,0,1-.8.285,1.056,1.056,0,0,1-.793-.285A.984.984,0,0,1,6.3-10.648ZM14.1.156A3.928,3.928,0,0,1,11.176-.98a4.124,4.124,0,0,1-1.121-3.027v-.234A5.072,5.072,0,0,1,10.543-6.5a3.716,3.716,0,0,1,1.371-1.551,3.625,3.625,0,0,1,1.969-.555,3.318,3.318,0,0,1,2.668,1.1,4.658,4.658,0,0,1,.941,3.117v.766H11.969a2.539,2.539,0,0,0,.7,1.656,2.1,2.1,0,0,0,1.543.609,2.571,2.571,0,0,0,2.125-1.055l1.023.977A3.418,3.418,0,0,1,16-.262,4.244,4.244,0,0,1,14.1.156Zm-.227-7.242a1.6,1.6,0,0,0-1.262.547A2.835,2.835,0,0,0,12-5.016h3.617v-.141A2.307,2.307,0,0,0,15.109-6.6,1.586,1.586,0,0,0,13.875-7.086ZM20.75-8.453l.055.883a3.042,3.042,0,0,1,2.438-1.039,2.337,2.337,0,0,1,2.32,1.3,3,3,0,0,1,2.594-1.3,2.636,2.636,0,0,1,2.082.773,3.405,3.405,0,0,1,.7,2.281V0h-1.9V-5.5a1.681,1.681,0,0,0-.352-1.18,1.539,1.539,0,0,0-1.164-.375,1.581,1.581,0,0,0-1.059.348,1.833,1.833,0,0,0-.574.91L25.9,0H24V-5.562a1.354,1.354,0,0,0-1.523-1.492,1.671,1.671,0,0,0-1.617.93V0h-1.9V-8.453ZM40.289-4.141A5.033,5.033,0,0,1,39.4-1.012,2.852,2.852,0,0,1,37.008.156a2.871,2.871,0,0,1-2.227-.914V3.25h-1.9v-11.7h1.75l.078.859a2.788,2.788,0,0,1,2.273-1.016A2.881,2.881,0,0,1,39.41-7.457a5.167,5.167,0,0,1,.879,3.2ZM38.4-4.3a3.526,3.526,0,0,0-.5-2.008,1.638,1.638,0,0,0-1.441-.742,1.747,1.747,0,0,0-1.672.961v3.75a1.763,1.763,0,0,0,1.688.984,1.636,1.636,0,0,0,1.418-.73A3.881,3.881,0,0,0,38.4-4.3Zm3.141,0a4.984,4.984,0,0,1,.492-2.238,3.6,3.6,0,0,1,1.383-1.531,3.9,3.9,0,0,1,2.047-.535,3.692,3.692,0,0,1,2.777,1.1,4.333,4.333,0,0,1,1.152,2.922l.008.445a5.029,5.029,0,0,1-.48,2.234A3.551,3.551,0,0,1,47.543-.383a3.925,3.925,0,0,1-2.066.539,3.667,3.667,0,0,1-2.863-1.191,4.563,4.563,0,0,1-1.074-3.176Zm1.9.164A3.406,3.406,0,0,0,43.977-2.1a1.752,1.752,0,0,0,1.5.738,1.733,1.733,0,0,0,1.5-.75,3.762,3.762,0,0,0,.535-2.2,3.362,3.362,0,0,0-.551-2.031,1.759,1.759,0,0,0-1.5-.75,1.743,1.743,0,0,0-1.477.738A3.691,3.691,0,0,0,43.438-4.141ZM55.742-2.3a.861.861,0,0,0-.418-.773,4.445,4.445,0,0,0-1.387-.469,7.129,7.129,0,0,1-1.617-.516A2.158,2.158,0,0,1,50.9-6.047a2.25,2.25,0,0,1,.922-1.828,3.644,3.644,0,0,1,2.344-.734,3.792,3.792,0,0,1,2.449.75,2.38,2.38,0,0,1,.934,1.945h-1.9a1.17,1.17,0,0,0-.406-.91,1.557,1.557,0,0,0-1.078-.363,1.682,1.682,0,0,0-1.02.289.911.911,0,0,0-.395.773.769.769,0,0,0,.367.68,5.049,5.049,0,0,0,1.484.488,7.027,7.027,0,0,1,1.754.586,2.484,2.484,0,0,1,.945.816A2.082,2.082,0,0,1,57.609-2.4a2.2,2.2,0,0,1-.945,1.848,4.031,4.031,0,0,1-2.477.707,4.371,4.371,0,0,1-1.852-.375A3.047,3.047,0,0,1,51.07-1.25a2.441,2.441,0,0,1-.453-1.414h1.844a1.338,1.338,0,0,0,.508,1.035,1.973,1.973,0,0,0,1.242.363,1.92,1.92,0,0,0,1.141-.285A.883.883,0,0,0,55.742-2.3Z" transform="translate(666.478 1968.498)"/>
    <path id="Trazado_634699" data-name="Trazado 634699" d="M7.8-5.078H3.133v3.5H8.594V0H1.156V-11.375H8.539v1.594H3.133v3.141H7.8ZM12.039,0h-1.9V-12h1.9Z" transform="translate(1087.534 1891.537)"/>
    <path id="Trazado_634700" data-name="Trazado 634700" d="M.617-4.289a5.026,5.026,0,0,1,.906-3.137,2.9,2.9,0,0,1,2.43-1.184,2.759,2.759,0,0,1,2.172.938V-12h1.9V0H6.3L6.211-.875A2.8,2.8,0,0,1,3.938.156a2.887,2.887,0,0,1-2.4-1.2A5.21,5.21,0,0,1,.617-4.289Zm1.9.164a3.519,3.519,0,0,0,.5,2.012,1.61,1.61,0,0,0,1.41.723,1.793,1.793,0,0,0,1.7-1.039V-6.039A1.766,1.766,0,0,0,4.438-7.055a1.622,1.622,0,0,0-1.422.73A3.918,3.918,0,0,0,2.516-4.125ZM13.727.156A3.928,3.928,0,0,1,10.8-.98,4.124,4.124,0,0,1,9.68-4.008v-.234A5.072,5.072,0,0,1,10.168-6.5a3.716,3.716,0,0,1,1.371-1.551,3.625,3.625,0,0,1,1.969-.555,3.318,3.318,0,0,1,2.668,1.1,4.658,4.658,0,0,1,.941,3.117v.766H11.594a2.539,2.539,0,0,0,.7,1.656,2.1,2.1,0,0,0,1.543.609,2.571,2.571,0,0,0,2.125-1.055l1.023.977A3.418,3.418,0,0,1,15.629-.262,4.244,4.244,0,0,1,13.727.156ZM13.5-7.086a1.6,1.6,0,0,0-1.262.547,2.835,2.835,0,0,0-.613,1.523h3.617v-.141A2.307,2.307,0,0,0,14.734-6.6,1.586,1.586,0,0,0,13.5-7.086Zm6.852-1.367.055.977a3.039,3.039,0,0,1,2.461-1.133q2.641,0,2.688,3.023V0h-1.9V-5.477a1.741,1.741,0,0,0-.348-1.191,1.462,1.462,0,0,0-1.137-.387,1.829,1.829,0,0,0-1.711,1.039V0h-1.9V-8.453ZM27.133-4.3a4.984,4.984,0,0,1,.492-2.238,3.6,3.6,0,0,1,1.383-1.531,3.9,3.9,0,0,1,2.047-.535,3.692,3.692,0,0,1,2.777,1.1,4.333,4.333,0,0,1,1.152,2.922l.008.445a5.029,5.029,0,0,1-.48,2.234A3.551,3.551,0,0,1,33.137-.383,3.925,3.925,0,0,1,31.07.156a3.667,3.667,0,0,1-2.863-1.191,4.563,4.563,0,0,1-1.074-3.176Zm1.9.164A3.406,3.406,0,0,0,29.57-2.1a1.752,1.752,0,0,0,1.5.738,1.733,1.733,0,0,0,1.5-.75A3.762,3.762,0,0,0,33.1-4.3a3.362,3.362,0,0,0-.551-2.031,1.759,1.759,0,0,0-1.5-.75,1.743,1.743,0,0,0-1.477.738A3.691,3.691,0,0,0,29.031-4.141Zm9.352-4.312.055.883a3.042,3.042,0,0,1,2.438-1.039,2.337,2.337,0,0,1,2.32,1.3,3,3,0,0,1,2.594-1.3,2.636,2.636,0,0,1,2.082.773,3.405,3.405,0,0,1,.7,2.281V0h-1.9V-5.5a1.681,1.681,0,0,0-.352-1.18,1.539,1.539,0,0,0-1.164-.375,1.581,1.581,0,0,0-1.059.348,1.833,1.833,0,0,0-.574.91L43.531,0h-1.9V-5.562a1.354,1.354,0,0,0-1.523-1.492,1.671,1.671,0,0,0-1.617.93V0h-1.9V-8.453ZM52.539,0h-1.9V-8.453h1.9ZM50.523-10.648a1.008,1.008,0,0,1,.277-.727,1.048,1.048,0,0,1,.793-.289,1.061,1.061,0,0,1,.8.289,1,1,0,0,1,.281.727.977.977,0,0,1-.281.715,1.069,1.069,0,0,1-.8.285,1.056,1.056,0,0,1-.793-.285A.984.984,0,0,1,50.523-10.648Zm5.844,2.2.055.977a3.039,3.039,0,0,1,2.461-1.133q2.641,0,2.688,3.023V0h-1.9V-5.477a1.741,1.741,0,0,0-.348-1.191,1.462,1.462,0,0,0-1.137-.387,1.829,1.829,0,0,0-1.711,1.039V0h-1.9V-8.453ZM68.555,0a2.93,2.93,0,0,1-.219-.789,2.955,2.955,0,0,1-2.219.945A2.982,2.982,0,0,1,64.039-.57a2.325,2.325,0,0,1-.8-1.8,2.4,2.4,0,0,1,1-2.074,4.865,4.865,0,0,1,2.871-.723h1.164v-.555a1.481,1.481,0,0,0-.367-1.051,1.456,1.456,0,0,0-1.117-.395,1.672,1.672,0,0,0-1.062.324,1,1,0,0,0-.414.824h-1.9a2.107,2.107,0,0,1,.461-1.3,3.071,3.071,0,0,1,1.254-.949,4.4,4.4,0,0,1,1.77-.344,3.547,3.547,0,0,1,2.367.746,2.661,2.661,0,0,1,.906,2.1v3.813a4.321,4.321,0,0,0,.32,1.82V0ZM66.469-1.367a2.159,2.159,0,0,0,1.059-.273,1.827,1.827,0,0,0,.746-.734V-3.969H67.25a2.8,2.8,0,0,0-1.586.367,1.189,1.189,0,0,0-.531,1.039,1.109,1.109,0,0,0,.363.871A1.407,1.407,0,0,0,66.469-1.367ZM71.8-4.289a5.026,5.026,0,0,1,.906-3.137,2.9,2.9,0,0,1,2.43-1.184,2.759,2.759,0,0,1,2.172.938V-12h1.9V0H77.492L77.4-.875A2.8,2.8,0,0,1,75.125.156a2.887,2.887,0,0,1-2.4-1.2A5.21,5.21,0,0,1,71.8-4.289Zm1.9.164a3.519,3.519,0,0,0,.5,2.012,1.61,1.61,0,0,0,1.41.723,1.793,1.793,0,0,0,1.7-1.039V-6.039a1.766,1.766,0,0,0-1.687-1.016,1.622,1.622,0,0,0-1.422.73A3.918,3.918,0,0,0,73.7-4.125Zm7.133-.18a4.984,4.984,0,0,1,.492-2.238,3.6,3.6,0,0,1,1.383-1.531,3.9,3.9,0,0,1,2.047-.535,3.692,3.692,0,0,1,2.777,1.1,4.333,4.333,0,0,1,1.152,2.922l.008.445a5.029,5.029,0,0,1-.48,2.234A3.551,3.551,0,0,1,86.84-.383a3.925,3.925,0,0,1-2.066.539A3.667,3.667,0,0,1,81.91-1.035a4.563,4.563,0,0,1-1.074-3.176Zm1.9.164A3.406,3.406,0,0,0,83.273-2.1a1.752,1.752,0,0,0,1.5.738,1.733,1.733,0,0,0,1.5-.75A3.762,3.762,0,0,0,86.8-4.3a3.362,3.362,0,0,0-.551-2.031,1.759,1.759,0,0,0-1.5-.75,1.743,1.743,0,0,0-1.477.738A3.691,3.691,0,0,0,82.734-4.141ZM94.727-6.719a4.7,4.7,0,0,0-.773-.062,1.741,1.741,0,0,0-1.758,1V0H90.3V-8.453h1.813l.047.945a2.139,2.139,0,0,1,1.906-1.1,1.777,1.777,0,0,1,.672.109Z" transform="translate(1046.622 1910.738)"/>
    <path id="Trazado_634701" data-name="Trazado 634701" d="M11.258-4.055h1.414v1.523H11.258V0h-1.9V-2.531H4.445L4.391-3.687,9.3-11.375h1.961Zm-4.875,0H9.359V-8.8l-.141.25ZM20.055,0h-1.9V-8.453h1.9ZM18.039-10.648a1.008,1.008,0,0,1,.277-.727,1.048,1.048,0,0,1,.793-.289,1.061,1.061,0,0,1,.8.289,1,1,0,0,1,.281.727.977.977,0,0,1-.281.715,1.069,1.069,0,0,1-.8.285,1.056,1.056,0,0,1-.793-.285A.984.984,0,0,1,18.039-10.648Zm5.844,2.2.055.977A3.039,3.039,0,0,1,26.4-8.609q2.641,0,2.688,3.023V0h-1.9V-5.477a1.741,1.741,0,0,0-.348-1.191A1.462,1.462,0,0,0,25.7-7.055a1.829,1.829,0,0,0-1.711,1.039V0h-1.9V-8.453Zm6.781,4.164a5.026,5.026,0,0,1,.906-3.137A2.9,2.9,0,0,1,34-8.609a2.759,2.759,0,0,1,2.172.938V-12h1.9V0H36.352l-.094-.875A2.8,2.8,0,0,1,33.984.156a2.887,2.887,0,0,1-2.4-1.2A5.21,5.21,0,0,1,30.664-4.289Zm1.9.164a3.519,3.519,0,0,0,.5,2.012,1.61,1.61,0,0,0,1.41.723,1.793,1.793,0,0,0,1.7-1.039V-6.039a1.766,1.766,0,0,0-1.687-1.016,1.622,1.622,0,0,0-1.422.73A3.919,3.919,0,0,0,32.563-4.125ZM42.07,0h-1.9V-8.453h1.9ZM40.055-10.648a1.008,1.008,0,0,1,.277-.727,1.048,1.048,0,0,1,.793-.289,1.061,1.061,0,0,1,.8.289,1,1,0,0,1,.281.727.977.977,0,0,1-.281.715,1.069,1.069,0,0,1-.8.285,1.056,1.056,0,0,1-.793-.285A.984.984,0,0,1,40.055-10.648Zm7.555,9.289a1.716,1.716,0,0,0,1.18-.414,1.415,1.415,0,0,0,.5-1.023h1.789a2.789,2.789,0,0,1-.492,1.473,3.228,3.228,0,0,1-1.25,1.082,3.725,3.725,0,0,1-1.7.4A3.6,3.6,0,0,1,44.82-.992a4.555,4.555,0,0,1-1.039-3.172v-.2a4.479,4.479,0,0,1,1.031-3.09,3.571,3.571,0,0,1,2.813-1.16,3.473,3.473,0,0,1,2.457.879,3.148,3.148,0,0,1,1,2.309H49.289a1.738,1.738,0,0,0-.5-1.2,1.6,1.6,0,0,0-1.184-.469,1.671,1.671,0,0,0-1.422.668,3.408,3.408,0,0,0-.508,2.027v.3a3.465,3.465,0,0,0,.5,2.051A1.669,1.669,0,0,0,47.609-1.359ZM57.563,0a2.93,2.93,0,0,1-.219-.789,2.955,2.955,0,0,1-2.219.945A2.982,2.982,0,0,1,53.047-.57a2.325,2.325,0,0,1-.8-1.8,2.4,2.4,0,0,1,1-2.074,4.865,4.865,0,0,1,2.871-.723h1.164v-.555a1.481,1.481,0,0,0-.367-1.051A1.456,1.456,0,0,0,55.8-7.164a1.672,1.672,0,0,0-1.062.324,1,1,0,0,0-.414.824h-1.9a2.107,2.107,0,0,1,.461-1.3,3.071,3.071,0,0,1,1.254-.949,4.4,4.4,0,0,1,1.77-.344,3.547,3.547,0,0,1,2.367.746,2.661,2.661,0,0,1,.906,2.1v3.813a4.321,4.321,0,0,0,.32,1.82V0ZM55.477-1.367a2.16,2.16,0,0,0,1.059-.273,1.827,1.827,0,0,0,.746-.734V-3.969H56.258a2.8,2.8,0,0,0-1.586.367,1.189,1.189,0,0,0-.531,1.039,1.109,1.109,0,0,0,.363.871A1.407,1.407,0,0,0,55.477-1.367ZM64.8-4.3A5,5,0,0,1,65.7-7.445a2.945,2.945,0,0,1,2.453-1.164,2.768,2.768,0,0,1,2.242.992l.109-.836H72.2V3.25H70.3V-.719a2.834,2.834,0,0,1-2.156.875,2.917,2.917,0,0,1-2.43-1.184A5.23,5.23,0,0,1,64.8-4.3Zm1.9.164A3.528,3.528,0,0,0,67.207-2.1a1.631,1.631,0,0,0,1.418.738A1.8,1.8,0,0,0,70.3-2.32V-6.164a1.8,1.8,0,0,0-1.656-.922,1.659,1.659,0,0,0-1.426.727A3.849,3.849,0,0,0,66.7-4.133Zm12.664,3.3a2.944,2.944,0,0,1-2.375.984,2.624,2.624,0,0,1-2.082-.8A3.423,3.423,0,0,1,74.2-2.977V-8.453h1.9V-3q0,1.609,1.336,1.609A1.876,1.876,0,0,0,79.3-2.383v-6.07h1.9V0H79.406Zm7.492.984A3.928,3.928,0,0,1,83.926-.98,4.124,4.124,0,0,1,82.8-4.008v-.234A5.072,5.072,0,0,1,83.293-6.5a3.716,3.716,0,0,1,1.371-1.551,3.625,3.625,0,0,1,1.969-.555,3.318,3.318,0,0,1,2.668,1.1,4.658,4.658,0,0,1,.941,3.117v.766H84.719a2.539,2.539,0,0,0,.7,1.656,2.1,2.1,0,0,0,1.543.609,2.571,2.571,0,0,0,2.125-1.055l1.023.977A3.418,3.418,0,0,1,88.754-.262,4.244,4.244,0,0,1,86.852.156Zm-.227-7.242a1.6,1.6,0,0,0-1.262.547,2.835,2.835,0,0,0-.613,1.523h3.617v-.141A2.307,2.307,0,0,0,87.859-6.6,1.586,1.586,0,0,0,86.625-7.086Z" transform="translate(1048.734 1929.938)"/>
    <path id="Trazado_634702" data-name="Trazado 634702" d="M4.7.156A3.928,3.928,0,0,1,1.77-.98,4.124,4.124,0,0,1,.648-4.008v-.234A5.072,5.072,0,0,1,1.137-6.5,3.716,3.716,0,0,1,2.508-8.055a3.625,3.625,0,0,1,1.969-.555,3.318,3.318,0,0,1,2.668,1.1,4.658,4.658,0,0,1,.941,3.117v.766H2.563a2.539,2.539,0,0,0,.7,1.656A2.1,2.1,0,0,0,4.8-1.359,2.571,2.571,0,0,0,6.93-2.414l1.023.977A3.418,3.418,0,0,1,6.6-.262,4.244,4.244,0,0,1,4.7.156ZM4.469-7.086a1.6,1.6,0,0,0-1.262.547,2.835,2.835,0,0,0-.613,1.523H6.211v-.141A2.307,2.307,0,0,0,5.7-6.6,1.586,1.586,0,0,0,4.469-7.086ZM11.32-8.453l.055.977a3.039,3.039,0,0,1,2.461-1.133q2.641,0,2.688,3.023V0h-1.9V-5.477a1.741,1.741,0,0,0-.348-1.191,1.462,1.462,0,0,0-1.137-.387A1.829,1.829,0,0,0,11.43-6.016V0h-1.9V-8.453Zm9.516-2.055v2.055h1.492v1.406H20.836v4.719a1.039,1.039,0,0,0,.191.7.888.888,0,0,0,.684.215,2.924,2.924,0,0,0,.664-.078V-.023a4.676,4.676,0,0,1-1.25.18q-2.188,0-2.187-2.414V-7.047H17.547V-8.453h1.391v-2.055ZM28.2-6.719a4.7,4.7,0,0,0-.773-.062,1.741,1.741,0,0,0-1.758,1V0h-1.9V-8.453h1.813l.047.945a2.139,2.139,0,0,1,1.906-1.1,1.777,1.777,0,0,1,.672.109ZM33.979,0a2.93,2.93,0,0,1-.219-.789,2.955,2.955,0,0,1-2.219.945A2.982,2.982,0,0,1,29.463-.57a2.325,2.325,0,0,1-.8-1.8,2.4,2.4,0,0,1,1-2.074,4.865,4.865,0,0,1,2.871-.723H33.7v-.555A1.481,1.481,0,0,0,33.33-6.77a1.456,1.456,0,0,0-1.117-.395,1.672,1.672,0,0,0-1.063.324,1,1,0,0,0-.414.824h-1.9a2.107,2.107,0,0,1,.461-1.3,3.071,3.071,0,0,1,1.254-.949,4.4,4.4,0,0,1,1.77-.344,3.547,3.547,0,0,1,2.367.746,2.661,2.661,0,0,1,.906,2.1v3.813a4.321,4.321,0,0,0,.32,1.82V0ZM31.893-1.367a2.16,2.16,0,0,0,1.059-.273,1.827,1.827,0,0,0,.746-.734V-3.969H32.674a2.8,2.8,0,0,0-1.586.367,1.189,1.189,0,0,0-.531,1.039,1.109,1.109,0,0,0,.363.871A1.407,1.407,0,0,0,31.893-1.367Zm14.8.539a2.944,2.944,0,0,1-2.375.984,2.624,2.624,0,0,1-2.082-.8,3.423,3.423,0,0,1-.707-2.328V-8.453h1.9V-3q0,1.609,1.336,1.609a1.876,1.876,0,0,0,1.867-.992v-6.07h1.9V0H46.737Zm5.531-7.625.055.977a3.039,3.039,0,0,1,2.461-1.133q2.641,0,2.688,3.023V0h-1.9V-5.477a1.741,1.741,0,0,0-.348-1.191,1.462,1.462,0,0,0-1.137-.387A1.829,1.829,0,0,0,52.33-6.016V0h-1.9V-8.453ZM64.408,0a2.93,2.93,0,0,1-.219-.789,2.955,2.955,0,0,1-2.219.945A2.982,2.982,0,0,1,59.893-.57a2.325,2.325,0,0,1-.8-1.8,2.4,2.4,0,0,1,1-2.074,4.865,4.865,0,0,1,2.871-.723h1.164v-.555A1.481,1.481,0,0,0,63.76-6.77a1.456,1.456,0,0,0-1.117-.395,1.672,1.672,0,0,0-1.062.324,1,1,0,0,0-.414.824h-1.9a2.107,2.107,0,0,1,.461-1.3,3.071,3.071,0,0,1,1.254-.949,4.4,4.4,0,0,1,1.77-.344,3.547,3.547,0,0,1,2.367.746,2.661,2.661,0,0,1,.906,2.1v3.813a4.321,4.321,0,0,0,.32,1.82V0ZM62.323-1.367a2.16,2.16,0,0,0,1.059-.273,1.827,1.827,0,0,0,.746-.734V-3.969H63.1a2.8,2.8,0,0,0-1.586.367,1.189,1.189,0,0,0-.531,1.039,1.109,1.109,0,0,0,.363.871A1.407,1.407,0,0,0,62.323-1.367Z" transform="translate(1060.462 1949.138)"/>
    <path id="Trazado_634703" data-name="Trazado 634703" d="M2.734-8.453l.055.977A3.039,3.039,0,0,1,5.25-8.609q2.641,0,2.688,3.023V0h-1.9V-5.477a1.741,1.741,0,0,0-.348-1.191,1.462,1.462,0,0,0-1.137-.387A1.829,1.829,0,0,0,2.844-6.016V0H.945V-8.453ZM13.594.156A3.928,3.928,0,0,1,10.668-.98,4.124,4.124,0,0,1,9.547-4.008v-.234A5.072,5.072,0,0,1,10.035-6.5a3.716,3.716,0,0,1,1.371-1.551,3.625,3.625,0,0,1,1.969-.555,3.318,3.318,0,0,1,2.668,1.1,4.658,4.658,0,0,1,.941,3.117v.766H11.461a2.539,2.539,0,0,0,.7,1.656,2.1,2.1,0,0,0,1.543.609,2.571,2.571,0,0,0,2.125-1.055l1.023.977A3.418,3.418,0,0,1,15.5-.262,4.244,4.244,0,0,1,13.594.156Zm-.227-7.242a1.6,1.6,0,0,0-1.262.547,2.835,2.835,0,0,0-.613,1.523h3.617v-.141A2.307,2.307,0,0,0,14.6-6.6,1.586,1.586,0,0,0,13.367-7.086Zm4.758,2.8a4.944,4.944,0,0,1,.926-3.145,2.971,2.971,0,0,1,2.457-1.176A2.784,2.784,0,0,1,23.781-7.6l.086-.852h1.711v8.2a3.406,3.406,0,0,1-1.035,2.625,3.943,3.943,0,0,1-2.793.961,4.5,4.5,0,0,1-1.816-.387A3.227,3.227,0,0,1,18.586,1.93l.9-1.141a2.713,2.713,0,0,0,2.156,1.039,2.1,2.1,0,0,0,1.492-.512,1.961,1.961,0,0,0,.547-1.5v-.57a2.8,2.8,0,0,1-2.187.914,2.964,2.964,0,0,1-2.426-1.18A5.1,5.1,0,0,1,18.125-4.289Zm1.891.164a3.4,3.4,0,0,0,.52,2,1.671,1.671,0,0,0,1.441.73,1.827,1.827,0,0,0,1.7-.984V-6.094a1.8,1.8,0,0,0-1.687-.961,1.677,1.677,0,0,0-1.457.742A3.811,3.811,0,0,0,20.016-4.125ZM31.953-6.719a4.7,4.7,0,0,0-.773-.062,1.741,1.741,0,0,0-1.758,1V0h-1.9V-8.453h1.813l.047.945a2.139,2.139,0,0,1,1.906-1.1,1.777,1.777,0,0,1,.672.109ZM37.745,0a2.93,2.93,0,0,1-.219-.789,2.955,2.955,0,0,1-2.219.945A2.982,2.982,0,0,1,33.229-.57a2.325,2.325,0,0,1-.8-1.8,2.4,2.4,0,0,1,1-2.074A4.865,4.865,0,0,1,36.3-5.164h1.164v-.555A1.481,1.481,0,0,0,37.1-6.77a1.456,1.456,0,0,0-1.117-.395,1.672,1.672,0,0,0-1.062.324,1,1,0,0,0-.414.824H32.6a2.107,2.107,0,0,1,.461-1.3,3.071,3.071,0,0,1,1.254-.949,4.4,4.4,0,0,1,1.77-.344,3.547,3.547,0,0,1,2.367.746,2.661,2.661,0,0,1,.906,2.1v3.813a4.321,4.321,0,0,0,.32,1.82V0ZM35.659-1.367a2.16,2.16,0,0,0,1.059-.273,1.827,1.827,0,0,0,.746-.734V-3.969H36.44a2.8,2.8,0,0,0-1.586.367,1.189,1.189,0,0,0-.531,1.039,1.109,1.109,0,0,0,.363.871A1.407,1.407,0,0,0,35.659-1.367ZM49.057.156A3.928,3.928,0,0,1,46.131-.98,4.124,4.124,0,0,1,45.01-4.008v-.234A5.072,5.072,0,0,1,45.5-6.5,3.716,3.716,0,0,1,46.87-8.055a3.625,3.625,0,0,1,1.969-.555,3.318,3.318,0,0,1,2.668,1.1,4.658,4.658,0,0,1,.941,3.117v.766H46.924a2.539,2.539,0,0,0,.7,1.656,2.1,2.1,0,0,0,1.543.609,2.571,2.571,0,0,0,2.125-1.055l1.023.977A3.418,3.418,0,0,1,50.96-.262,4.244,4.244,0,0,1,49.057.156Zm-.227-7.242a1.6,1.6,0,0,0-1.262.547,2.835,2.835,0,0,0-.613,1.523h3.617v-.141A2.307,2.307,0,0,0,50.065-6.6,1.586,1.586,0,0,0,48.831-7.086Zm6.852-1.367.055.977A3.039,3.039,0,0,1,58.2-8.609q2.641,0,2.688,3.023V0h-1.9V-5.477a1.741,1.741,0,0,0-.348-1.191A1.462,1.462,0,0,0,57.5-7.055a1.829,1.829,0,0,0-1.711,1.039V0h-1.9V-8.453ZM70.276-1.359a1.716,1.716,0,0,0,1.18-.414,1.415,1.415,0,0,0,.5-1.023h1.789a2.789,2.789,0,0,1-.492,1.473A3.228,3.228,0,0,1,72-.242a3.725,3.725,0,0,1-1.7.4A3.6,3.6,0,0,1,67.487-.992a4.555,4.555,0,0,1-1.039-3.172v-.2a4.479,4.479,0,0,1,1.031-3.09,3.571,3.571,0,0,1,2.813-1.16,3.473,3.473,0,0,1,2.457.879,3.148,3.148,0,0,1,1,2.309H71.956a1.738,1.738,0,0,0-.5-1.2,1.6,1.6,0,0,0-1.184-.469,1.671,1.671,0,0,0-1.422.668,3.408,3.408,0,0,0-.508,2.027v.3a3.465,3.465,0,0,0,.5,2.051A1.669,1.669,0,0,0,70.276-1.359ZM80.229,0a2.93,2.93,0,0,1-.219-.789,2.955,2.955,0,0,1-2.219.945A2.982,2.982,0,0,1,75.714-.57a2.325,2.325,0,0,1-.8-1.8,2.4,2.4,0,0,1,1-2.074,4.865,4.865,0,0,1,2.871-.723h1.164v-.555a1.481,1.481,0,0,0-.367-1.051,1.456,1.456,0,0,0-1.117-.395A1.672,1.672,0,0,0,77.4-6.84a1,1,0,0,0-.414.824h-1.9a2.107,2.107,0,0,1,.461-1.3A3.071,3.071,0,0,1,76.8-8.266a4.4,4.4,0,0,1,1.77-.344,3.547,3.547,0,0,1,2.367.746,2.661,2.661,0,0,1,.906,2.1v3.813a4.321,4.321,0,0,0,.32,1.82V0ZM78.143-1.367A2.159,2.159,0,0,0,79.2-1.641a1.827,1.827,0,0,0,.746-.734V-3.969H78.924a2.8,2.8,0,0,0-1.586.367,1.189,1.189,0,0,0-.531,1.039,1.109,1.109,0,0,0,.363.871A1.407,1.407,0,0,0,78.143-1.367Zm5.336-2.922a5.026,5.026,0,0,1,.906-3.137,2.9,2.9,0,0,1,2.43-1.184,2.759,2.759,0,0,1,2.172.938V-12h1.9V0H89.167l-.094-.875A2.8,2.8,0,0,1,86.8.156a2.887,2.887,0,0,1-2.4-1.2A5.21,5.21,0,0,1,83.479-4.289Zm1.9.164a3.519,3.519,0,0,0,.5,2.012,1.61,1.61,0,0,0,1.41.723,1.793,1.793,0,0,0,1.7-1.039V-6.039A1.766,1.766,0,0,0,87.3-7.055a1.622,1.622,0,0,0-1.422.73A3.918,3.918,0,0,0,85.378-4.125ZM97.917,0A2.93,2.93,0,0,1,97.7-.789a2.955,2.955,0,0,1-2.219.945A2.982,2.982,0,0,1,93.4-.57a2.325,2.325,0,0,1-.8-1.8,2.4,2.4,0,0,1,1-2.074,4.865,4.865,0,0,1,2.871-.723h1.164v-.555a1.481,1.481,0,0,0-.367-1.051,1.456,1.456,0,0,0-1.117-.395,1.672,1.672,0,0,0-1.062.324,1,1,0,0,0-.414.824h-1.9a2.107,2.107,0,0,1,.461-1.3,3.071,3.071,0,0,1,1.254-.949,4.4,4.4,0,0,1,1.77-.344,3.547,3.547,0,0,1,2.367.746,2.661,2.661,0,0,1,.906,2.1v3.813a4.321,4.321,0,0,0,.32,1.82V0ZM95.831-1.367a2.159,2.159,0,0,0,1.059-.273,1.827,1.827,0,0,0,.746-.734V-3.969H96.612a2.8,2.8,0,0,0-1.586.367,1.189,1.189,0,0,0-.531,1.039,1.109,1.109,0,0,0,.363.871A1.407,1.407,0,0,0,95.831-1.367Z" transform="translate(1043.71 1968.338)"/>
    <path id="Trazado_634704" data-name="Trazado 634704" d="M7.336-10.508v2.055H8.828v1.406H7.336v4.719a1.039,1.039,0,0,0,.191.7.888.888,0,0,0,.684.215,2.924,2.924,0,0,0,.664-.078V-.023a4.676,4.676,0,0,1-1.25.18q-2.188,0-2.187-2.414V-7.047H4.047V-8.453H5.438v-2.055ZM12.3,0H10.4V-8.453h1.9ZM10.281-10.648a1.008,1.008,0,0,1,.277-.727,1.048,1.048,0,0,1,.793-.289,1.061,1.061,0,0,1,.8.289,1,1,0,0,1,.281.727.977.977,0,0,1-.281.715,1.069,1.069,0,0,1-.8.285,1.056,1.056,0,0,1-.793-.285A.984.984,0,0,1,10.281-10.648Zm7.8,10.8A3.928,3.928,0,0,1,15.16-.98a4.124,4.124,0,0,1-1.121-3.027v-.234A5.072,5.072,0,0,1,14.527-6.5,3.716,3.716,0,0,1,15.9-8.055a3.625,3.625,0,0,1,1.969-.555,3.318,3.318,0,0,1,2.668,1.1,4.658,4.658,0,0,1,.941,3.117v.766H15.953a2.539,2.539,0,0,0,.7,1.656,2.1,2.1,0,0,0,1.543.609A2.571,2.571,0,0,0,20.32-2.414l1.023.977A3.418,3.418,0,0,1,19.988-.262,4.244,4.244,0,0,1,18.086.156Zm-.227-7.242a1.6,1.6,0,0,0-1.262.547,2.835,2.835,0,0,0-.613,1.523H19.6v-.141A2.307,2.307,0,0,0,19.094-6.6,1.586,1.586,0,0,0,17.859-7.086Zm6.875-1.367.055.883a3.042,3.042,0,0,1,2.438-1.039,2.337,2.337,0,0,1,2.32,1.3,3,3,0,0,1,2.594-1.3,2.636,2.636,0,0,1,2.082.773,3.405,3.405,0,0,1,.7,2.281V0h-1.9V-5.5a1.681,1.681,0,0,0-.352-1.18,1.539,1.539,0,0,0-1.164-.375,1.581,1.581,0,0,0-1.059.348,1.833,1.833,0,0,0-.574.91L29.883,0h-1.9V-5.562a1.354,1.354,0,0,0-1.523-1.492,1.671,1.671,0,0,0-1.617.93V0h-1.9V-8.453ZM44.273-4.141a5.033,5.033,0,0,1-.891,3.129A2.852,2.852,0,0,1,40.992.156a2.871,2.871,0,0,1-2.227-.914V3.25h-1.9v-11.7h1.75l.078.859a2.788,2.788,0,0,1,2.273-1.016,2.881,2.881,0,0,1,2.426,1.152,5.167,5.167,0,0,1,.879,3.2ZM42.383-4.3a3.526,3.526,0,0,0-.5-2.008,1.638,1.638,0,0,0-1.441-.742,1.747,1.747,0,0,0-1.672.961v3.75a1.763,1.763,0,0,0,1.688.984,1.636,1.636,0,0,0,1.418-.73A3.881,3.881,0,0,0,42.383-4.3Zm3.141,0a4.984,4.984,0,0,1,.492-2.238A3.6,3.6,0,0,1,47.4-8.074a3.9,3.9,0,0,1,2.047-.535,3.692,3.692,0,0,1,2.777,1.1,4.333,4.333,0,0,1,1.152,2.922l.008.445a5.029,5.029,0,0,1-.48,2.234A3.551,3.551,0,0,1,51.527-.383a3.925,3.925,0,0,1-2.066.539A3.667,3.667,0,0,1,46.6-1.035a4.563,4.563,0,0,1-1.074-3.176Zm1.9.164A3.406,3.406,0,0,0,47.961-2.1a1.752,1.752,0,0,0,1.5.738,1.733,1.733,0,0,0,1.5-.75,3.762,3.762,0,0,0,.535-2.2,3.362,3.362,0,0,0-.551-2.031,1.759,1.759,0,0,0-1.5-.75,1.743,1.743,0,0,0-1.477.738A3.691,3.691,0,0,0,47.422-4.141Z" transform="translate(1067.086 1987.537)"/>
    <path id="Trazado_634705" data-name="Trazado 634705" d="M6.094-.828A2.944,2.944,0,0,1,3.719.156a2.624,2.624,0,0,1-2.082-.8A3.423,3.423,0,0,1,.93-2.977V-8.453h1.9V-3q0,1.609,1.336,1.609a1.876,1.876,0,0,0,1.867-.992v-6.07h1.9V0H6.141ZM11.047-2a1.084,1.084,0,0,1,.82.3,1.045,1.045,0,0,1,.289.754,1.008,1.008,0,0,1-.289.738,1.1,1.1,0,0,1-.82.293,1.1,1.1,0,0,1-.8-.289.991.991,0,0,1-.3-.742,1.045,1.045,0,0,1,.289-.754A1.074,1.074,0,0,1,11.047-2Zm5.664-8.508v2.055H18.2v1.406H16.711v4.719a1.039,1.039,0,0,0,.191.7.888.888,0,0,0,.684.215,2.924,2.924,0,0,0,.664-.078V-.023A4.676,4.676,0,0,1,17,.156q-2.187,0-2.187-2.414V-7.047H13.422V-8.453h1.391v-2.055Zm13.82,4.414H23.8V-7.672h6.734Zm0,3.313H23.8v-1.57h6.734Z" transform="translate(772.83 2038.802)"/>
    <path id="Trazado_634706" data-name="Trazado 634706" d="M6.094-.828A2.944,2.944,0,0,1,3.719.156a2.624,2.624,0,0,1-2.082-.8A3.423,3.423,0,0,1,.93-2.977V-8.453h1.9V-3q0,1.609,1.336,1.609a1.876,1.876,0,0,0,1.867-.992v-6.07h1.9V0H6.141ZM11.047-2a1.084,1.084,0,0,1,.82.3,1.045,1.045,0,0,1,.289.754,1.008,1.008,0,0,1-.289.738,1.1,1.1,0,0,1-.82.293,1.1,1.1,0,0,1-.8-.289.991.991,0,0,1-.3-.742,1.045,1.045,0,0,1,.289-.754A1.074,1.074,0,0,1,11.047-2Zm6.758.641a1.716,1.716,0,0,0,1.18-.414,1.415,1.415,0,0,0,.5-1.023h1.789a2.789,2.789,0,0,1-.492,1.473,3.228,3.228,0,0,1-1.25,1.082,3.725,3.725,0,0,1-1.7.4A3.6,3.6,0,0,1,15.016-.992a4.555,4.555,0,0,1-1.039-3.172v-.2a4.479,4.479,0,0,1,1.031-3.09,3.571,3.571,0,0,1,2.813-1.16,3.473,3.473,0,0,1,2.457.879,3.148,3.148,0,0,1,1,2.309H19.484a1.738,1.738,0,0,0-.5-1.2A1.6,1.6,0,0,0,17.8-7.086a1.671,1.671,0,0,0-1.422.668,3.408,3.408,0,0,0-.508,2.027v.3a3.465,3.465,0,0,0,.5,2.051A1.669,1.669,0,0,0,17.8-1.359ZM33.586-6.094H26.852V-7.672h6.734Zm0,3.313H26.852v-1.57h6.734Z" transform="translate(871.054 1948.802)"/>
    <path id="Trazado_634099" data-name="Trazado 634099" d="M397.74,278.676c1.342,2.9,5.879,3.644,10.125,1.672,3.425-1.592,5.619-4.469,5.631-7.045V234.322a.737.737,0,1,0-1.474,0v35.789c-1.974-1.662-5.594-1.846-9.028-.249-4.249,1.973-6.6,5.918-5.255,8.814" transform="translate(415 1760.514)" fill="#12263f"/>
    <path id="Trazado_634100" data-name="Trazado 634100" d="M512.86,142.346a.736.736,0,0,0-.735.739v35.787c-1.976-1.661-5.6-1.847-9.03-.251-4.245,1.973-6.6,5.918-5.255,8.817s5.881,3.64,10.124,1.671c3.425-1.593,5.62-4.471,5.633-7.046V143.085a.739.739,0,0,0-.738-.739m-6.17,44.31c-3.753,1.877-7.343,2.3-8.022.94s1.809-3.978,5.558-5.854,7.342-2.3,8.02-.941-1.806,3.979-5.556,5.855" transform="translate(415 1760.514)" fill="#12263f"/>
    <path id="Trazado_634101" data-name="Trazado 634101" d="M556.434,249.887a65.738,65.738,0,0,0-5.505,5.848,10.41,10.41,0,0,0-2.141,5.466h.766a2.7,2.7,0,0,1,2.79-2.484,11.069,11.069,0,0,1,4.128,1.433,11.555,11.555,0,0,0,5.027,1.434,3.7,3.7,0,0,0,3.287-1.7,7.265,7.265,0,0,0,1.127-4.11,9.888,9.888,0,0,0-.305-2.407h-.382a2.3,2.3,0,0,1-.727,1.528,2.619,2.619,0,0,1-1.3.651,11.117,11.117,0,0,1-1.759.114,12.068,12.068,0,0,1-2.924-.5,13,13,0,0,0-3.307-.5,3.578,3.578,0,0,0-2.37.765,5.639,5.639,0,0,1,2.313-1.816,31.577,31.577,0,0,1,3.326-1.376,29.151,29.151,0,0,0,3.325-1.4,6.833,6.833,0,0,0,2.676-2.37,6.7,6.7,0,0,0,1.051-3.823,4.852,4.852,0,0,0-2.522-4.319,11.4,11.4,0,0,0-6.135-1.567,8.927,8.927,0,0,0-5.619,1.567,4.767,4.767,0,0,0-2.007,3.9,3.568,3.568,0,0,0,.84,2.446,2.726,2.726,0,0,0,2.14.956,2.812,2.812,0,0,0,2.046-.726,2.366,2.366,0,0,0,.746-1.759,2.465,2.465,0,0,0-.516-1.643,2.34,2.34,0,0,0-1.109-.784,4.746,4.746,0,0,1-1.108-.478,1.014,1.014,0,0,1-.517-.936q0-.63,1.07-1.128a5.579,5.579,0,0,1,2.37-.5,3.719,3.719,0,0,1,3.059,1.262,4.618,4.618,0,0,1,1.032,3.019,6.489,6.489,0,0,1-.879,3.288,12.618,12.618,0,0,1-1.988,2.637" transform="translate(415 1760.514)" fill="#12263f"/>
    <path id="Trazado_634102" data-name="Trazado 634102" d="M565.531,276.738v2.523H562.7V263.245H558.88l-10.856,16.016v.765h8.945v4.7h-2.485v.765h10.7v-.765H562.7v-4.7h2.829v2.6h.879v-5.887Zm-8.562,2.523h-7.951l7.951-11.812Z" transform="translate(415 1760.514)" fill="#12263f"/>
    <path id="Trazado_634103" data-name="Trazado 634103" d="M576.466,283.287c1.342,2.9,5.879,3.644,10.125,1.672,3.425-1.592,5.619-4.469,5.631-7.045V238.933a.737.737,0,1,0-1.474,0v35.789c-1.974-1.662-5.6-1.846-9.028-.249-4.249,1.973-6.6,5.918-5.255,8.814" transform="translate(415 1760.514)" fill="#12263f"/>
    <path id="Trazado_634104" data-name="Trazado 634104" d="M602.013,283.287c1.342,2.9,5.88,3.644,10.125,1.672,3.425-1.592,5.62-4.469,5.631-7.045l0-.011v-38.97a.737.737,0,1,0-1.474,0v35.789c-1.974-1.662-5.6-1.846-9.029-.249-4.249,1.973-6.6,5.918-5.255,8.814" transform="translate(415 1760.514)" fill="#12263f"/>
    <path id="Trazado_634105" data-name="Trazado 634105" d="M384.509,38.249A65.735,65.735,0,0,0,379,44.1a10.4,10.4,0,0,0-2.14,5.466h.765a2.7,2.7,0,0,1,2.79-2.484,11.069,11.069,0,0,1,4.128,1.433,11.555,11.555,0,0,0,5.027,1.434,3.7,3.7,0,0,0,3.287-1.7,7.266,7.266,0,0,0,1.128-4.11,9.907,9.907,0,0,0-.306-2.408H393.3a2.3,2.3,0,0,1-.727,1.529,2.619,2.619,0,0,1-1.3.651,11.117,11.117,0,0,1-1.759.114,12.068,12.068,0,0,1-2.924-.5,13,13,0,0,0-3.307-.5,3.583,3.583,0,0,0-2.37.764,5.638,5.638,0,0,1,2.313-1.815,31.585,31.585,0,0,1,3.326-1.376,29.148,29.148,0,0,0,3.325-1.395,6.828,6.828,0,0,0,2.676-2.371,6.7,6.7,0,0,0,1.051-3.822,4.852,4.852,0,0,0-2.522-4.319,11.4,11.4,0,0,0-6.135-1.568,8.927,8.927,0,0,0-5.619,1.568,4.767,4.767,0,0,0-2.007,3.9,3.568,3.568,0,0,0,.84,2.446,2.726,2.726,0,0,0,2.14.956,2.812,2.812,0,0,0,2.046-.726,2.366,2.366,0,0,0,.746-1.759,2.465,2.465,0,0,0-.516-1.643,2.354,2.354,0,0,0-1.109-.785,4.7,4.7,0,0,1-1.108-.477,1.014,1.014,0,0,1-.517-.937q0-.629,1.07-1.128a5.578,5.578,0,0,1,2.37-.5,3.719,3.719,0,0,1,3.059,1.262,4.618,4.618,0,0,1,1.032,3.019,6.489,6.489,0,0,1-.879,3.288,12.617,12.617,0,0,1-1.988,2.637" transform="translate(415 1760.514)" fill="#12263f"/>
    <path id="Trazado_634106" data-name="Trazado 634106" d="M393.607,65.1v2.523h-2.829V51.607h-3.822L376.1,67.623v.765h8.945v4.7H382.56v.765h10.7v-.765h-2.485v-4.7h2.829v2.6h.879V65.1Zm-8.562,2.523h-7.951l7.951-11.811Z" transform="translate(415 1760.514)" fill="#12263f"/>
    <path id="Trazado_634707" data-name="Trazado 634707" d="M0,0H770V349H0Z" transform="translate(415 1760.514)" fill="none"/>
    <path id="Trazado_634708" data-name="Trazado 634708" d="M0,0H770V349H0Z" transform="translate(415 1760.514)" fill="none"/>
  </g>
</svg>
