<svg id="Grupo_1101481" data-name="Grupo 1101481" xmlns="http://www.w3.org/2000/svg" xmlns:xlink="http://www.w3.org/1999/xlink" width="400" height="301.826" viewBox="0 0 400 301.826">
  <defs>
    <clipPath id="clip-path">
      <rect id="Rectángulo_396256" data-name="Rectángulo 396256" width="400" height="301.826" fill="none"/>
    </clipPath>
  </defs>
  <rect id="Rectángulo_396253" data-name="Rectángulo 396253" width="400" height="301.826" fill="#d6f6f1"/>
  <g id="Grupo_1101480" data-name="Grupo 1101480">
    <g id="Grupo_1101479" data-name="Grupo 1101479" clip-path="url(#clip-path)">
      <path id="Trazado_634293" data-name="Trazado 634293" d="M11.578,154.09c1.13,2.373,4.929,2.986,8.49,1.37,2.874-1.3,4.714-3.661,4.723-5.771V117.755a.618.618,0,0,0-1.237,0v29.319c-1.652-1.361-4.691-1.512-7.572-.2-3.56,1.618-5.532,4.849-4.406,7.221" transform="translate(1.251 13.017)" fill="#12263f"/>
      <path id="Trazado_634294" data-name="Trazado 634294" d="M83.086,154.09c1.13,2.373,4.929,2.986,8.49,1.37,2.874-1.3,4.714-3.661,4.723-5.771V117.755a.618.618,0,0,0-1.237,0v29.319c-1.652-1.361-4.691-1.512-7.572-.2-3.56,1.618-5.532,4.849-4.406,7.221" transform="translate(9.197 13.017)" fill="#12263f"/>
      <path id="Trazado_634295" data-name="Trazado 634295" d="M188.051,154.09c1.13,2.373,4.929,2.986,8.49,1.37,2.874-1.3,4.714-3.661,4.723-5.771V117.755a.618.618,0,0,0-1.237,0v29.319c-1.652-1.361-4.691-1.512-7.572-.2-3.56,1.618-5.532,4.849-4.406,7.221" transform="translate(20.859 13.017)" fill="#12263f"/>
      <path id="Trazado_634296" data-name="Trazado 634296" d="M52.4,126.493s6.707,3.767,6.707,7.167-4.594,4.409-4.594,6.613,4.732,6.11,4.319,6.523c-.506.507-5.236-2.021-6.248-1.01-1.792,1.791,1.562,5.786,1.012,6.338s-4.044-4.5-4.044-6.89,1.194-2.571,2.849-2.02a25.362,25.362,0,0,1,4.134,2.112s-5.971-3.95-5.971-6.889,4.5-2.849,4.5-5.606c0-2.48-2.663-6.339-2.663-6.339" transform="translate(5.506 14.055)" fill="#00000c"/>
      <path id="Trazado_634297" data-name="Trazado 634297" d="M127.282,126.493s6.707,3.767,6.707,7.167-4.594,4.409-4.594,6.613,4.733,6.11,4.319,6.523c-.5.507-5.234-2.021-6.248-1.01-1.792,1.791,1.562,5.786,1.013,6.338s-4.046-4.5-4.046-6.89,1.194-2.571,2.849-2.02a25.362,25.362,0,0,1,4.134,2.112s-5.971-3.95-5.971-6.889,4.5-2.849,4.5-5.606c0-2.48-2.664-6.339-2.664-6.339" transform="translate(13.826 14.055)" fill="#00000c"/>
      <path id="Trazado_634298" data-name="Trazado 634298" d="M238.915,126.493s6.707,3.767,6.707,7.167-4.594,4.409-4.594,6.613,4.732,6.11,4.319,6.523c-.506.507-5.236-2.021-6.248-1.01-1.792,1.791,1.562,5.786,1.012,6.338s-4.044-4.5-4.044-6.89,1.194-2.571,2.849-2.02a25.361,25.361,0,0,1,4.134,2.112s-5.971-3.95-5.971-6.889,4.5-2.849,4.5-5.606c0-2.48-2.663-6.339-2.663-6.339" transform="translate(26.23 14.055)" fill="#00000c"/>
      <path id="Trazado_634299" data-name="Trazado 634299" d="M55.88,166.679a1.842,1.842,0,1,1-1.842-1.842,1.842,1.842,0,0,1,1.842,1.842" transform="translate(5.8 18.315)"/>
      <path id="Trazado_634300" data-name="Trazado 634300" d="M54.789,178.609a6.432,6.432,0,0,1-.864-.058,6.777,6.777,0,0,1-.841-.167,7.218,7.218,0,0,1-.816-.269,7.876,7.876,0,0,1-.787-.363,8.588,8.588,0,0,1-.753-.45c-.248-.164-.488-.341-.718-.528s-.461-.39-.679-.6-.432-.433-.636-.662-.4-.471-.59-.718-.369-.5-.54-.766-.333-.532-.487-.807-.3-.553-.431-.838-.257-.571-.371-.863-.216-.582-.308-.879-.172-.59-.242-.889-.126-.591-.171-.89-.079-.588-.1-.883c-.01-.134-.022-.268-.027-.4,0-.116-.024-.262.059-.353a.867.867,0,0,1,.093-.088.528.528,0,0,1,.286-.128.4.4,0,0,1,.231.05.649.649,0,0,1,.123.09.71.71,0,0,1,.063.066c.131.149.076.37.087.55.01.149.022.3.044.444a7.441,7.441,0,0,0,.178.867,8.906,8.906,0,0,0,.28.87c.11.292.236.579.372.86s.292.568.457.842.343.548.531.811.388.521.6.77.427.488.654.718.459.447.7.656.486.4.741.581a9,9,0,0,0,.77.5,8,8,0,0,0,.791.4,6.864,6.864,0,0,0,.8.294,5.893,5.893,0,0,0,.806.178,4.976,4.976,0,0,0,.692.05,5.2,5.2,0,0,0,1.371-.192,7.047,7.047,0,0,0,1.367-.538,9.233,9.233,0,0,0,1.318-.832,11.194,11.194,0,0,0,1.224-1.07,12.154,12.154,0,0,0,1.086-1.254,11.839,11.839,0,0,0,.9-1.384,10.547,10.547,0,0,0,.676-1.461,8.46,8.46,0,0,0,.4-1.483c.03-.182.051-.366.067-.549.011-.14.017-.277.016-.416s.06-.193.168-.266a.618.618,0,0,1,.27-.106.476.476,0,0,1,.278.06.561.561,0,0,1,.178.126c.068.089.033.22.03.321-.007.193-.017.386-.032.578-.011.128-.024.257-.039.383a3.292,3.292,0,0,0-.051.372,12.088,12.088,0,0,1-.34,1.519,13.351,13.351,0,0,1-.536,1.5,13.864,13.864,0,0,1-.714,1.439,13.5,13.5,0,0,1-.878,1.341,12.174,12.174,0,0,1-1.023,1.206,10.67,10.67,0,0,1-1.151,1.031,9.131,9.131,0,0,1-1.264.818,7.646,7.646,0,0,1-1.359.567,6.893,6.893,0,0,1-1.438.277c-.176.014-.351.021-.527.021" transform="translate(5.047 18.556)"/>
      <path id="Trazado_634301" data-name="Trazado 634301" d="M17.771,105.332a1.842,1.842,0,1,1,1.843,1.842,1.843,1.843,0,0,1-1.843-1.842" transform="translate(1.975 11.499)"/>
      <path id="Trazado_634302" data-name="Trazado 634302" d="M20.366,94.194a6.43,6.43,0,0,1,.864.058,6.782,6.782,0,0,1,.841.167,7.218,7.218,0,0,1,.816.269,7.873,7.873,0,0,1,.787.363,8.584,8.584,0,0,1,.753.45c.248.164.488.341.718.528s.461.39.679.6.432.433.636.662.4.471.59.718.369.5.54.766.333.532.487.807.3.553.431.838.257.571.371.863.216.582.308.879.172.59.242.889.126.591.171.89.079.588.1.883c.01.134.022.268.027.4,0,.116.024.262-.059.353a.871.871,0,0,1-.093.088.528.528,0,0,1-.286.128.4.4,0,0,1-.231-.05.648.648,0,0,1-.123-.09.709.709,0,0,1-.063-.066c-.131-.149-.076-.37-.087-.55-.01-.149-.022-.3-.044-.444a7.444,7.444,0,0,0-.178-.867,8.907,8.907,0,0,0-.28-.87c-.11-.292-.236-.579-.372-.86s-.292-.568-.457-.842-.343-.548-.531-.811-.388-.521-.6-.77-.427-.488-.654-.718-.459-.447-.7-.656-.486-.4-.741-.581a9,9,0,0,0-.77-.5,8,8,0,0,0-.791-.4,6.864,6.864,0,0,0-.8-.294,5.891,5.891,0,0,0-.806-.178,4.979,4.979,0,0,0-.692-.05A5.2,5.2,0,0,0,19,96.391a7.045,7.045,0,0,0-1.367.538,9.233,9.233,0,0,0-1.318.832,11.2,11.2,0,0,0-1.224,1.07A12.155,12.155,0,0,0,14,100.085a11.838,11.838,0,0,0-.9,1.384,10.546,10.546,0,0,0-.676,1.461,8.46,8.46,0,0,0-.4,1.483c-.03.182-.051.366-.067.549-.011.14-.017.277-.016.416s-.06.193-.168.266a.617.617,0,0,1-.27.106.475.475,0,0,1-.278-.06.561.561,0,0,1-.178-.126c-.068-.089-.033-.22-.03-.321.007-.193.017-.386.032-.578.011-.128.024-.257.039-.383a3.291,3.291,0,0,0,.051-.372,12.086,12.086,0,0,1,.34-1.519,13.35,13.35,0,0,1,.536-1.5,13.861,13.861,0,0,1,.714-1.439,13.5,13.5,0,0,1,.878-1.341,12.167,12.167,0,0,1,1.023-1.206,10.666,10.666,0,0,1,1.151-1.031,9.131,9.131,0,0,1,1.264-.818,7.647,7.647,0,0,1,1.359-.567,6.894,6.894,0,0,1,1.438-.277c.176-.014.351-.021.527-.021" transform="translate(1.222 10.466)"/>
      <path id="Trazado_634303" data-name="Trazado 634303" d="M174.874,105.332a1.842,1.842,0,1,1,1.842,1.842,1.842,1.842,0,0,1-1.842-1.842" transform="translate(19.43 11.499)"/>
      <path id="Trazado_634304" data-name="Trazado 634304" d="M177.468,94.194a6.43,6.43,0,0,1,.864.058,6.783,6.783,0,0,1,.841.167,7.218,7.218,0,0,1,.816.269,7.873,7.873,0,0,1,.787.363,8.583,8.583,0,0,1,.753.45c.248.164.488.341.718.528s.461.39.679.6.432.433.636.662.4.471.59.718.369.5.54.766.333.532.487.807.3.553.431.838.257.571.371.863.216.582.308.879.172.59.242.889.126.591.171.89.079.588.1.883c.01.134.022.268.027.4,0,.116.024.262-.059.353a.867.867,0,0,1-.093.088.528.528,0,0,1-.286.128.4.4,0,0,1-.231-.05.649.649,0,0,1-.123-.09.708.708,0,0,1-.063-.066c-.131-.149-.076-.37-.087-.55-.01-.149-.022-.3-.044-.444a7.448,7.448,0,0,0-.178-.867,8.9,8.9,0,0,0-.28-.87c-.11-.292-.236-.579-.372-.86s-.292-.568-.457-.842-.343-.548-.531-.811-.388-.521-.6-.77-.427-.488-.654-.718-.459-.447-.7-.656-.486-.4-.741-.581a9,9,0,0,0-.77-.5,8,8,0,0,0-.791-.4,6.863,6.863,0,0,0-.8-.294,5.892,5.892,0,0,0-.806-.178,4.978,4.978,0,0,0-.692-.05,5.2,5.2,0,0,0-1.371.192,7.045,7.045,0,0,0-1.367.538,9.234,9.234,0,0,0-1.318.832,11.2,11.2,0,0,0-1.224,1.07,12.158,12.158,0,0,0-1.086,1.254,11.836,11.836,0,0,0-.9,1.384,10.547,10.547,0,0,0-.676,1.461,8.46,8.46,0,0,0-.4,1.483c-.03.182-.051.366-.067.549-.011.14-.017.277-.016.416s-.06.193-.168.266a.618.618,0,0,1-.27.106.475.475,0,0,1-.278-.06.562.562,0,0,1-.178-.126c-.068-.089-.033-.22-.03-.321.007-.193.017-.386.032-.578.011-.128.023-.257.039-.383a3.293,3.293,0,0,0,.051-.372,12.081,12.081,0,0,1,.34-1.519,13.35,13.35,0,0,1,.536-1.5,13.864,13.864,0,0,1,.714-1.439,13.5,13.5,0,0,1,.878-1.341,12.164,12.164,0,0,1,1.023-1.206,10.667,10.667,0,0,1,1.151-1.031,9.13,9.13,0,0,1,1.264-.818,7.647,7.647,0,0,1,1.359-.567,6.894,6.894,0,0,1,1.438-.277c.176-.014.351-.021.527-.021" transform="translate(18.678 10.466)"/>
      <path id="Trazado_634305" data-name="Trazado 634305" d="M313.362,105.332a1.842,1.842,0,1,1,1.842,1.842,1.842,1.842,0,0,1-1.842-1.842" transform="translate(34.818 11.499)"/>
      <path id="Trazado_634306" data-name="Trazado 634306" d="M315.956,94.194a6.43,6.43,0,0,1,.864.058,6.782,6.782,0,0,1,.841.167,7.221,7.221,0,0,1,.816.269,7.873,7.873,0,0,1,.787.363,8.583,8.583,0,0,1,.753.45c.248.164.488.341.718.528s.461.39.679.6.432.433.636.662.4.471.59.718.369.5.54.766.333.532.487.807.3.553.431.838.257.571.371.863.216.582.308.879.172.59.242.889.126.591.171.89.079.588.1.883c.01.134.022.268.027.4,0,.116.024.262-.059.353a.873.873,0,0,1-.093.088.528.528,0,0,1-.286.128.4.4,0,0,1-.231-.05.647.647,0,0,1-.123-.09.709.709,0,0,1-.063-.066c-.131-.149-.076-.37-.087-.55-.01-.149-.022-.3-.044-.444a7.429,7.429,0,0,0-.178-.867,8.9,8.9,0,0,0-.28-.87c-.11-.292-.236-.579-.372-.86s-.292-.568-.457-.842-.343-.548-.531-.811-.388-.521-.6-.77-.427-.488-.654-.718-.459-.447-.7-.656-.486-.4-.741-.581a9,9,0,0,0-.77-.5,8,8,0,0,0-.791-.4,6.863,6.863,0,0,0-.8-.294,5.891,5.891,0,0,0-.806-.178,4.979,4.979,0,0,0-.692-.05,5.2,5.2,0,0,0-1.371.192,7.044,7.044,0,0,0-1.367.538,9.235,9.235,0,0,0-1.318.832,11.2,11.2,0,0,0-1.224,1.07,12.154,12.154,0,0,0-1.086,1.254,11.836,11.836,0,0,0-.9,1.384,10.547,10.547,0,0,0-.676,1.461,8.46,8.46,0,0,0-.4,1.483c-.03.182-.051.366-.067.549-.011.14-.017.277-.016.416s-.06.193-.168.266a.617.617,0,0,1-.27.106.475.475,0,0,1-.278-.06.561.561,0,0,1-.178-.126c-.068-.089-.033-.22-.03-.321.007-.193.017-.386.032-.578.011-.128.023-.257.039-.383a3.293,3.293,0,0,0,.051-.372,12.081,12.081,0,0,1,.34-1.519,13.344,13.344,0,0,1,.536-1.5,13.852,13.852,0,0,1,.714-1.439,13.5,13.5,0,0,1,.878-1.341,12.164,12.164,0,0,1,1.023-1.206,10.667,10.667,0,0,1,1.151-1.031,9.133,9.133,0,0,1,1.264-.818,7.649,7.649,0,0,1,1.359-.567,6.894,6.894,0,0,1,1.438-.277c.176-.014.351-.021.527-.021" transform="translate(34.066 10.466)"/>
      <rect id="Rectángulo_396254" data-name="Rectángulo 396254" width="1.444" height="42.262" transform="translate(195.423 138.273)" fill="#12263f"/>
      <rect id="Rectángulo_396255" data-name="Rectángulo 396255" width="1.444" height="42.262" transform="translate(386.331 138.273)" fill="#12263f"/>
      <path id="Trazado_634307" data-name="Trazado 634307" d="M313.569,126.493s6.707,3.767,6.707,7.167-4.594,4.409-4.594,6.613,4.732,6.11,4.319,6.523c-.506.507-5.236-2.021-6.248-1.01-1.792,1.791,1.562,5.786,1.012,6.338s-4.044-4.5-4.044-6.89,1.194-2.571,2.849-2.02a25.362,25.362,0,0,1,4.134,2.112s-5.971-3.95-5.971-6.889,4.5-2.849,4.5-5.606c0-2.48-2.663-6.339-2.663-6.339" transform="translate(34.524 14.055)" fill="#00000c"/>
      <path id="Trazado_634308" data-name="Trazado 634308" d="M268.033,154.09c1.13,2.373,4.929,2.986,8.49,1.37,2.874-1.3,4.714-3.661,4.723-5.771V117.755a.618.618,0,0,0-1.237,0v29.319c-1.652-1.361-4.691-1.512-7.572-.2-3.56,1.618-5.532,4.849-4.406,7.221" transform="translate(29.746 13.017)" fill="#12263f"/>
    </g>
  </g>
</svg>
