<svg id="Grupo_1101475" data-name="Grupo 1101475" xmlns="http://www.w3.org/2000/svg" xmlns:xlink="http://www.w3.org/1999/xlink" width="400" height="301.826" viewBox="0 0 400 301.826">
  <defs>
    <clipPath id="clip-path">
      <rect id="Rectángulo_396243" data-name="Rectángulo 396243" width="400" height="301.826" fill="none"/>
    </clipPath>
  </defs>
  <path id="Trazado_634292" data-name="Trazado 634292" d="M0,0H400V301.826H0Z" fill="#eadff7"/>
  <rect id="Rectángulo_396236" data-name="Rectángulo 396236" width="376.078" height="1.333" transform="translate(13.997 122.912)" fill="#12263f"/>
  <rect id="Rectángulo_396237" data-name="Rectángulo 396237" width="376.078" height="1.333" transform="translate(13.997 136.244)" fill="#12263f"/>
  <rect id="Rectángulo_396238" data-name="Rectángulo 396238" width="376.078" height="1.333" transform="translate(13.997 149.579)" fill="#12263f"/>
  <rect id="Rectángulo_396239" data-name="Rectángulo 396239" width="376.078" height="1.334" transform="translate(13.997 162.912)" fill="#12263f"/>
  <rect id="Rectángulo_396240" data-name="Rectángulo 396240" width="376.078" height="1.333" transform="translate(13.997 176.248)" fill="#12263f"/>
  <rect id="Rectángulo_396241" data-name="Rectángulo 396241" width="5.129" height="54.67" transform="translate(384.946 122.911)" fill="#12263f"/>
  <g id="Grupo_1101474" data-name="Grupo 1101474">
    <g id="Grupo_1101473" data-name="Grupo 1101473" clip-path="url(#clip-path)">
      <path id="Trazado_634260" data-name="Trazado 634260" d="M43.466,149.5c-2.018-6.61-8.607-11.163-14.45-10.248-.663-3.178-1.3-6.241-1.883-9.018,6.049-6.1,11.172-13.594,8.256-27.544-.852-4.086-3.417-11.106-5.633-10.642-9.574,2-7.426,23.363-7.426,23.363s.574,2.746,1.476,7.059C16.067,130.77,7,139.417,9.3,150.426c2.246,10.742,11.971,18.213,22.48,16.018.4-.083.782-.179,1.159-.28.9,4.292,1.554,7.437,1.789,8.559,1.147,5.488-1.307,11.24-6.21,12.264-5.578,1.166-6.759-2.364-6.759-2.364s.786.567,2.879.129c1.694-.353,3.7-3.293,3.151-5.92s-2.991-5.46-6.027-4.826c-3.271.682-5.679,3.23-4.788,7.486.439,2.1,3.81,9.306,11.982,7.6,10.04-2.1,7.7-13.307,7.236-15.526-.107-.506-.736-3.516-1.652-7.9,8.276-3.011,10.623-10.613,8.93-16.163M24.5,117.638c-1.342-6.42,1.756-16.086,6.077-16.989,1.983-.414,2.921,2.314,2.921,2.314,1.329,6.368-2.956,12.127-8.3,18-.362-1.736-.609-2.909-.694-3.323m6.208,47.2c-12.141,2.538-16.994-9.609-16.994-9.609-2.4-11.487,5.041-16.9,12-23.6.531,2.539,1.1,5.246,1.678,8.02-5.49,1.806-10.187,8.089-7.506,14.944,2.147,5.487,8.111,4.373,8.111,4.373a7.1,7.1,0,0,1-5.407-3.977c-1.911-4.553,1.366-8.529,5.924-9.956,1.446,6.914,2.893,13.844,4.038,19.314a17.169,17.169,0,0,1-1.848.492m3.422-1.119c-1.119-5.352-2.56-12.244-3.986-19.068,4.809-.591,8.754,5.133,9.226,7.394.426,2.031,1.241,8.6-5.24,11.673" transform="translate(0.993 10.225)" fill="#12263f"/>
      <path id="Trazado_634261" data-name="Trazado 634261" d="M64.9,116.628l-3.172.628v-8.22l2.928-.579v-5.748l-2.928.578V92.741H59.962v10.894l-4.412.872V94.7H53.786v10.152l-3.026.6L50.8,111.2l2.99-.592v8.214L51,119.372l.036,5.748,2.746-.542v10.8H55.55V124.227l4.412-.872v10.067h1.763V123l3.172-.628Zm-9.348,1.848V110.26l4.412-.873V117.6Z" transform="translate(5.64 10.305)" fill="#12263f"/>
      <path id="Trazado_634262" data-name="Trazado 634262" d="M76.6,134.029l-3.172.627v-8.219l2.928-.579V120.11l-2.928.579V110.142H71.662v10.894l-4.411.871v-9.8H65.488v10.152l-3.027.6L62.5,128.6l2.99-.592v8.214l-2.781.55.034,5.747,2.747-.542v10.8h1.763V141.629l4.411-.873v10.067h1.764V140.405l3.172-.628Zm-9.348,1.848v-8.216l4.411-.874V135Z" transform="translate(6.94 12.238)" fill="#12263f"/>
      <path id="Trazado_634263" data-name="Trazado 634263" d="M102.008,122.841v2.8H98.865v-17.8H94.617l-12.061,17.8v.849h9.938v5.224H89.733v.849h11.892v-.849h-2.76v-5.224h3.143v2.889h.976v-6.541Zm-9.514,2.8H83.659l8.834-13.123Z" transform="translate(9.173 11.983)" fill="#12263f"/>
      <path id="Trazado_634264" data-name="Trazado 634264" d="M102.008,149.933H98.865V132.139H94.617L82.556,149.933v.85h9.938v5.223H89.733v.85h11.892v-.85h-2.76v-5.223h3.143v2.888h.976v-6.54h-.976Zm-9.514,0H83.659l8.834-13.123Z" transform="translate(9.173 14.682)" fill="#12263f"/>
      <path id="Trazado_634265" data-name="Trazado 634265" d="M107.59,125.7s9.607,5.394,9.607,10.264-6.581,6.316-6.581,9.474,6.779,8.751,6.187,9.343c-.724.726-7.5-2.9-8.95-1.447-2.567,2.566,2.239,8.288,1.45,9.079s-5.792-6.45-5.792-9.87,1.711-3.683,4.08-2.893a36.3,36.3,0,0,1,5.921,3.026s-8.551-5.658-8.551-9.868,6.444-4.08,6.444-8.029c0-3.552-3.814-9.08-3.814-9.08" transform="translate(11.501 13.967)" fill="#12263f"/>
      <path id="Trazado_634266" data-name="Trazado 634266" d="M131.919,148.744c1.042,2.19,4.549,2.754,7.834,1.264,2.652-1.2,4.35-3.379,4.359-5.326v-29.47a.571.571,0,0,0-1.141,0v27.056c-1.524-1.256-4.329-1.394-6.989-.188-3.284,1.492-5.1,4.474-4.064,6.663" transform="translate(14.625 12.739)" fill="#12263f"/>
      <path id="Trazado_634267" data-name="Trazado 634267" d="M164.167,148.923c1.042,2.19,4.549,2.754,7.834,1.264,2.652-1.2,4.35-3.379,4.359-5.326v-29.47a.571.571,0,0,0-1.141,0v27.056c-1.524-1.256-4.329-1.394-6.989-.188-3.284,1.492-5.1,4.474-4.064,6.663" transform="translate(18.208 12.759)" fill="#12263f"/>
      <path id="Trazado_634268" data-name="Trazado 634268" d="M205.27,114.15c-1.042-2.19-4.549-2.754-7.834-1.264-2.652,1.2-4.35,3.379-4.359,5.326v29.47a.571.571,0,0,0,1.141,0V120.625c1.524,1.256,4.329,1.394,6.989.188,3.284-1.492,5.1-4.474,4.064-6.663" transform="translate(21.453 12.45)" fill="#12263f"/>
      <path id="Trazado_634269" data-name="Trazado 634269" d="M238.785,115.243c-1.042-2.19-4.549-2.754-7.834-1.264-2.652,1.2-4.35,3.379-4.359,5.326v29.47a.571.571,0,0,0,1.141,0V121.718c1.524,1.256,4.329,1.394,6.989.188,3.284-1.492,5.1-4.474,4.064-6.663" transform="translate(25.177 12.572)" fill="#12263f"/>
      <path id="Trazado_634270" data-name="Trazado 634270" d="M288.333,125.358a.561.561,0,0,0-.56.562v27.254c-1.5-1.266-4.262-1.407-6.877-.191-3.233,1.5-5.027,4.507-4,6.713s4.478,2.773,7.709,1.273c2.609-1.213,4.28-3.4,4.29-5.366V125.92a.564.564,0,0,0-.562-.562m-4.7,33.744c-2.858,1.429-5.592,1.75-6.109.717s1.378-3.03,4.232-4.46,5.591-1.751,6.108-.716-1.374,3.031-4.231,4.459" transform="translate(30.734 13.929)" fill="#12263f"/>
      <path id="Trazado_634271" data-name="Trazado 634271" d="M273.028,144.038c0-4.907-2.07-7.252-6.159-10.086-3.6-2.494-4.457-7.386-4.654-9.176v-.617a.592.592,0,1,0-1.183,0V152.9c-1.584-1.333-4.492-1.483-7.252-.2-3.41,1.586-5.3,4.753-4.219,7.08s4.722,2.924,8.13,1.343c2.753-1.28,4.512-3.591,4.522-5.659l0-.009V132.789c.809,3.8,10.244,4.953,10.244,11.776a17.685,17.685,0,0,1-1.7,7.556,14.9,14.9,0,0,0,2.272-8.082" transform="translate(27.695 13.73)" fill="#12263f"/>
      <path id="Trazado_634272" data-name="Trazado 634272" d="M233.039,110.364l-.393-.223c-.257-.144-.644-.339-1.13-.593s-1.09-.532-1.779-.856-1.483-.644-2.348-.992-1.82-.67-2.831-1c-.511-.147-1.03-.317-1.569-.454-.542-.122-1.084-.291-1.65-.408s-1.134-.251-1.721-.333-1.174-.194-1.774-.249-1.2-.142-1.809-.151-1.234-.059-1.81-.027c-.621.029-1.27.014-1.866.074s-1.191.1-1.788.19-1.19.169-1.772.282-1.161.216-1.721.357c-1.122.273-2.206.561-3.222.878s-1.968.653-2.842.979c-1.747.663-3.179,1.294-4.172,1.761l-1.149.556-.4.208s.484-.406,1.4-1.029c.459-.309,1.022-.678,1.688-1.068s1.427-.817,2.282-1.239,1.793-.854,2.813-1.252a33.447,33.447,0,0,1,3.267-1.107,31.057,31.057,0,0,1,3.619-.8c.623-.109,1.278-.153,1.921-.231s1.259-.068,1.891-.1a27.367,27.367,0,0,1,7.494.987c.581.15,1.142.337,1.692.511s1.071.4,1.586.584,1,.417,1.47.622l1.339.652,1.206.648c.372.222.726.432,1.057.631.658.407,1.211.79,1.662,1.112s.787.6,1.017.784l.347.292" transform="translate(21.699 11.504)" fill="#12263f"/>
      <path id="Trazado_634273" data-name="Trazado 634273" d="M252.656,160.79l.393.223c.257.144.644.339,1.13.593s1.09.532,1.779.856,1.483.644,2.348.992,1.82.67,2.831,1c.511.147,1.03.317,1.569.454.542.122,1.084.291,1.65.408s1.134.251,1.721.333,1.174.193,1.774.249,1.2.142,1.809.151,1.234.059,1.81.027c.621-.029,1.27-.014,1.866-.074s1.191-.1,1.788-.19,1.191-.169,1.772-.282,1.161-.216,1.721-.357c1.122-.273,2.206-.561,3.222-.878s1.968-.653,2.842-.979c1.747-.663,3.179-1.294,4.172-1.761L290,161l.4-.208s-.484.406-1.4,1.029c-.459.309-1.022.678-1.688,1.068s-1.427.817-2.282,1.239-1.793.854-2.813,1.252a33.445,33.445,0,0,1-3.267,1.107,31.049,31.049,0,0,1-3.619.8c-.623.109-1.278.153-1.921.231s-1.259.068-1.891.1a27.366,27.366,0,0,1-7.494-.987c-.581-.15-1.142-.337-1.692-.511s-1.071-.4-1.586-.584-1-.417-1.47-.622l-1.339-.652-1.206-.648c-.372-.222-.726-.432-1.057-.631-.658-.407-1.211-.79-1.662-1.112s-.787-.6-1.017-.784l-.347-.292" transform="translate(28.073 17.866)" fill="#12263f"/>
      <path id="Trazado_634274" data-name="Trazado 634274" d="M326.042,161.154c5.7.036,10.348-2.827,10.37-6.4s-4.584-6.494-10.29-6.529-10.347,2.828-10.369,6.394,4.581,6.5,10.289,6.532m-1.351-11.993c2.036-.516,4.309,1.547,5.079,4.6s-.26,5.948-2.3,6.458-4.312-1.546-5.081-4.6.26-5.947,2.3-6.458" transform="translate(35.084 16.47)" fill="#12263f"/>
      <path id="Trazado_634275" data-name="Trazado 634275" d="M245.454,117.485a2.015,2.015,0,1,1-2.014-2.014,2.014,2.014,0,0,1,2.014,2.014" transform="translate(26.825 12.83)" fill="#12263f"/>
      <rect id="Rectángulo_396242" data-name="Rectángulo 396242" width="1.333" height="53.337" transform="translate(340.509 123.578)" fill="#12263f"/>
    </g>
  </g>
</svg>
