<svg id="Grupo_1101463" data-name="Grupo 1101463" xmlns="http://www.w3.org/2000/svg" xmlns:xlink="http://www.w3.org/1999/xlink" width="400" height="301.826" viewBox="0 0 400 301.826">
  <defs>
    <clipPath id="clip-path">
      <rect id="Rectángulo_396228" data-name="Rectángulo 396228" width="400" height="301.826" fill="none"/>
    </clipPath>
  </defs>
  <path id="Trazado_634510" data-name="Trazado 634510" d="M0,0H400V301.826H0Z" fill="#fcf5e0"/>
  <text id="_" data-name="=" transform="translate(89.799 62.204)" font-size="16" font-family="MyriadPro-Regular, Myriad Pro"><tspan x="0" y="0">=</tspan></text>
  <g id="Grupo_1101458" data-name="Grupo 1101458">
    <g id="Grupo_1101457" data-name="Grupo 1101457" clip-path="url(#clip-path)">
      <path id="Trazado_634212" data-name="Trazado 634212" d="M197.531,15.223a.727.727,0,0,0-.727.728v35.3c-1.946-1.639-5.518-1.822-8.908-.248-4.187,1.946-6.507,5.837-5.182,8.694s5.8,3.591,9.984,1.65c3.382-1.572,5.546-4.411,5.557-6.95l0-.011V15.951a.728.728,0,0,0-.727-.728" transform="translate(20.26 1.691)" fill="#12263f"/>
      <path id="Trazado_634213" data-name="Trazado 634213" d="M125.684,15.223a.726.726,0,0,0-.726.728v35.3c-1.948-1.639-5.519-1.822-8.9-.248-4.188,1.946-6.51,5.837-5.183,8.694s5.8,3.591,9.986,1.649c3.378-1.571,5.541-4.41,5.553-6.949l0-.011V15.951a.729.729,0,0,0-.728-.728m-6.086,43.7c-3.7,1.851-7.242,2.267-7.911.927s1.784-3.922,5.481-5.774,7.241-2.268,7.91-.928-1.781,3.926-5.48,5.776" transform="translate(12.277 1.691)" fill="#12263f"/>
      <path id="Trazado_634214" data-name="Trazado 634214" d="M57.949,54.5a2.107,2.107,0,1,1-2.107-2.107A2.107,2.107,0,0,1,57.949,54.5" transform="translate(5.971 5.821)"/>
      <path id="Trazado_634215" data-name="Trazado 634215" d="M53.246,15.223a.726.726,0,0,0-.726.728v35.3C50.572,49.607,47,49.424,43.616,51c-4.188,1.946-6.51,5.837-5.183,8.694s5.8,3.591,9.986,1.649c3.378-1.571,5.541-4.41,5.553-6.949l0-.011V15.951a.729.729,0,0,0-.728-.728m-6.086,43.7c-3.7,1.851-7.242,2.267-7.911.927s1.784-3.922,5.481-5.774,7.241-2.268,7.91-.928-1.781,3.926-5.48,5.776" transform="translate(4.229 1.691)" fill="#12263f"/>
      <path id="Trazado_634216" data-name="Trazado 634216" d="M117.731,59.72a8.449,8.449,0,0,0,.686.609c.23.191.517.421.871.67s.759.534,1.224.839A36.431,36.431,0,0,0,124,63.8c.691.341,1.451.658,2.237,1.017l2.536.991,2.813.916,3.056.827c1.059.243,2.154.464,3.268.706,1.118.22,2.274.384,3.442.586l.88.146.894.1,1.808.2,1.83.2,1.858.126,1.871.128.94.064.946.02,3.8.074.474.012c.118,0,.308,0,.458-.006l.958-.02,1.909-.037,1.9-.038,1.864-.124,1.849-.128c.614-.037,1.226-.067,1.83-.149l3.59-.407q1.752-.293,3.442-.573c1.123-.2,2.2-.47,3.269-.692a59.435,59.435,0,0,0,5.866-1.726c.9-.293,1.722-.688,2.532-.994.8-.329,1.524-.71,2.227-1.031.681-.36,1.31-.717,1.893-1.042.559-.361,1.1-.666,1.544-.992a19.365,19.365,0,0,0,2.031-1.589,7.018,7.018,0,0,0,.651-.646,7.141,7.141,0,0,1-.586.71c-.2.228-.454.494-.771.8-.3.317-.693.631-1.121,1s-.941.72-1.481,1.136c-.56.383-1.179.781-1.846,1.2-.689.374-1.4.816-2.194,1.206l-1.226.583c-.418.2-.846.407-1.3.576l-1.376.551c-.467.192-.946.379-1.443.532l-1.512.494c-.513.168-1.032.34-1.572.468-1.074.269-2.17.592-3.308.836l-3.5.681-3.646.5c-1.23.183-2.5.232-3.763.342l-1.91.141-1.9.052-1.91.053-.957.026c-.169,0-.3.011-.5.011l-.483-.011-3.852-.106-.96-.027-.956-.073-1.9-.146-1.887-.146-1.86-.247-1.836-.249c-.3-.042-.607-.083-.908-.127l-.894-.169c-1.186-.238-2.361-.417-3.491-.693s-2.234-.56-3.3-.849l-3.079-.972c-.973-.376-1.914-.738-2.816-1.087-.881-.4-1.732-.771-2.524-1.153-.777-.421-1.524-.793-2.2-1.189a30.926,30.926,0,0,1-3.374-2.257c-.446-.343-.839-.656-1.157-.956-.33-.284-.6-.546-.807-.759a8.448,8.448,0,0,1-.623-.677" transform="translate(13.081 6.636)" fill="#12263f"/>
    </g>
  </g>
  <text id="_2" data-name="=" transform="translate(89.799 132.463)" font-size="16" font-family="MyriadPro-Regular, Myriad Pro"><tspan x="0" y="0">=</tspan></text>
  <g id="Grupo_1101460" data-name="Grupo 1101460">
    <g id="Grupo_1101459" data-name="Grupo 1101459" clip-path="url(#clip-path)">
      <path id="Trazado_634217" data-name="Trazado 634217" d="M188.213,127.266l.634.362c.414.232,1.04.546,1.821.957s1.76.858,2.87,1.379c1.119.5,2.392,1.039,3.787,1.6,1.4.541,2.936,1.078,4.564,1.609.823.236,1.66.509,2.53.731.876.2,1.751.471,2.661.658s1.831.4,2.774.539c.948.119,1.894.312,2.862.4s1.938.23,2.918.243,1.99.1,2.919.044c1-.047,2.048-.024,3.008-.121s1.921-.154,2.882-.307c.959-.169,1.921-.272,2.859-.454.937-.2,1.872-.347,2.776-.577,1.81-.439,3.556-.9,5.2-1.413,1.634-.526,3.174-1.053,4.586-1.58,2.816-1.069,5.124-2.087,6.727-2.84l1.854-.894.647-.337s-.781.656-2.257,1.66c-.74.5-1.648,1.093-2.721,1.722s-2.3,1.318-3.68,2-2.892,1.377-4.537,2.02a53.461,53.461,0,0,1-5.269,1.784,50.155,50.155,0,0,1-5.836,1.287c-1.006.173-2.06.247-3.1.371s-2.03.108-3.049.164a44.046,44.046,0,0,1-12.086-1.59c-.939-.242-1.842-.543-2.73-.826s-1.727-.638-2.557-.942c-.821-.326-1.609-.671-2.37-1l-2.16-1.052-1.942-1.043-1.707-1.018c-1.06-.656-1.952-1.274-2.678-1.793s-1.27-.966-1.641-1.264l-.559-.473" transform="translate(20.913 14.141)" fill="#12263f"/>
      <path id="Trazado_634218" data-name="Trazado 634218" d="M57.949,121.544a2.107,2.107,0,1,1-2.107-2.107,2.107,2.107,0,0,1,2.107,2.107" transform="translate(5.971 13.271)"/>
      <path id="Trazado_634219" data-name="Trazado 634219" d="M64.018,121.544a2.107,2.107,0,1,1-2.107-2.107,2.107,2.107,0,0,1,2.107,2.107" transform="translate(6.645 13.271)"/>
      <path id="Trazado_634220" data-name="Trazado 634220" d="M53.246,82.268A.726.726,0,0,0,52.52,83v35.3c-1.948-1.639-5.519-1.822-8.9-.248-4.188,1.946-6.51,5.837-5.183,8.694s5.8,3.591,9.986,1.649c3.378-1.571,5.541-4.41,5.553-6.949l0-.011V83a.729.729,0,0,0-.728-.728m-6.086,43.7c-3.7,1.851-7.242,2.267-7.911.927s1.784-3.922,5.481-5.774,7.241-2.268,7.91-.928-1.781,3.926-5.48,5.776" transform="translate(4.229 9.141)" fill="#12263f"/>
      <path id="Trazado_634221" data-name="Trazado 634221" d="M265.412,106.95c0-6.183-2.609-9.14-7.761-12.71-4.536-3.143-5.617-9.308-5.867-11.564V81.9a.746.746,0,1,0-1.491,0v36.222c-2-1.681-5.661-1.869-9.14-.253-4.3,2-6.681,5.99-5.317,8.923s5.951,3.686,10.246,1.692c3.471-1.612,5.688-4.526,5.7-7.131l0-.011V92.774c1.02,4.79,12.911,6.241,12.911,14.839a22.277,22.277,0,0,1-2.147,9.521,18.77,18.77,0,0,0,2.863-10.184" transform="translate(26.161 9.017)" fill="#12263f"/>
      <path id="Trazado_634222" data-name="Trazado 634222" d="M196.24,82.268a.727.727,0,0,0-.727.728v35.3c-1.946-1.639-5.518-1.822-8.908-.248-4.187,1.946-6.507,5.837-5.182,8.694s5.8,3.591,9.984,1.65c3.382-1.572,5.546-4.411,5.557-6.95l0-.011V83a.728.728,0,0,0-.727-.728" transform="translate(20.117 9.141)" fill="#12263f"/>
      <path id="Trazado_634223" data-name="Trazado 634223" d="M124.393,82.268a.726.726,0,0,0-.726.728v35.3c-1.948-1.639-5.519-1.822-8.9-.248-4.188,1.946-6.51,5.837-5.183,8.694s5.8,3.591,9.986,1.649c3.378-1.571,5.541-4.41,5.553-6.949l0-.011V83a.729.729,0,0,0-.728-.728m-6.086,43.7c-3.7,1.851-7.242,2.267-7.911.927s1.784-3.922,5.481-5.774,7.241-2.268,7.91-.928-1.781,3.926-5.48,5.776" transform="translate(12.134 9.141)" fill="#12263f"/>
      <path id="Trazado_634224" data-name="Trazado 634224" d="M116.367,126.868a8.374,8.374,0,0,0,.687.609c.229.191.516.421.87.67s.759.534,1.224.839a36.432,36.432,0,0,0,3.486,1.96c.691.341,1.451.658,2.237,1.017l2.536.991,2.813.916,3.056.827c1.059.243,2.154.464,3.268.706,1.118.22,2.274.384,3.442.586l.88.146.894.1,1.808.2,1.83.2,1.858.126,1.871.128.94.064.946.02,3.8.074.474.012c.118,0,.308,0,.458-.006l.958-.02,1.909-.037,1.9-.038,1.864-.124,1.849-.128c.614-.037,1.226-.067,1.83-.149l3.59-.407q1.752-.293,3.442-.573c1.123-.2,2.2-.47,3.269-.692a59.429,59.429,0,0,0,5.866-1.726c.9-.293,1.722-.688,2.532-.994.8-.329,1.524-.71,2.227-1.031.681-.36,1.31-.717,1.893-1.042.559-.361,1.1-.666,1.544-.992a19.363,19.363,0,0,0,2.031-1.589,7.016,7.016,0,0,0,.651-.646,7.138,7.138,0,0,1-.586.71c-.2.228-.454.494-.771.8-.3.317-.693.631-1.121,1s-.941.72-1.481,1.136c-.56.383-1.179.781-1.846,1.2-.689.374-1.4.816-2.194,1.206l-1.226.583c-.418.2-.846.407-1.3.576l-1.376.551c-.467.192-.946.379-1.443.532l-1.512.494c-.513.168-1.032.34-1.572.468-1.074.269-2.17.592-3.308.836l-3.5.681-3.646.5c-1.23.183-2.5.232-3.763.342l-1.91.141-1.9.052-1.91.053-.957.026c-.169,0-.3.011-.5.011l-.483-.011-3.852-.106-.96-.027-.956-.073-1.9-.146-1.887-.146-1.86-.247-1.836-.249c-.3-.042-.607-.083-.908-.127l-.894-.169c-1.186-.238-2.361-.417-3.491-.693s-2.234-.56-3.3-.849l-3.079-.972c-.973-.376-1.914-.738-2.816-1.087-.881-.4-1.732-.771-2.524-1.153-.777-.421-1.524-.793-2.2-1.189a30.922,30.922,0,0,1-3.374-2.257c-.446-.343-.839-.656-1.157-.956-.33-.284-.6-.546-.807-.759a8.443,8.443,0,0,1-.623-.677" transform="translate(12.93 14.096)" fill="#12263f"/>
    </g>
  </g>
  <text id="_3" data-name="=" transform="translate(89.799 201.063)" font-size="16" font-family="MyriadPro-Regular, Myriad Pro"><tspan x="0" y="0">=</tspan></text>
  <g id="Grupo_1101462" data-name="Grupo 1101462">
    <g id="Grupo_1101461" data-name="Grupo 1101461" clip-path="url(#clip-path)">
      <path id="Trazado_634225" data-name="Trazado 634225" d="M188.213,193.89l.634.362c.416.232,1.04.546,1.821.957s1.76.858,2.87,1.379c1.119.5,2.393,1.039,3.787,1.6,1.4.541,2.936,1.078,4.564,1.609.824.236,1.66.509,2.53.732.876.2,1.751.47,2.661.657s1.831.4,2.776.539c.947.119,1.894.312,2.861.4s1.938.23,2.919.243,1.989.1,2.918.044c1-.046,2.048-.023,3.009-.121s1.92-.154,2.882-.307c.959-.169,1.92-.272,2.859-.454.936-.2,1.871-.347,2.774-.577,1.81-.439,3.557-.9,5.2-1.413,1.634-.526,3.173-1.053,4.584-1.58,2.816-1.069,5.124-2.087,6.727-2.84l1.856-.894.647-.337s-.781.656-2.257,1.66c-.741.5-1.648,1.093-2.721,1.722s-2.3,1.318-3.68,2-2.892,1.377-4.537,2.02a53.651,53.651,0,0,1-5.269,1.784,50.176,50.176,0,0,1-5.837,1.287c-1,.173-2.06.247-3.1.372s-2.03.108-3.049.164a47.2,47.2,0,0,1-6.22-.392,46.658,46.658,0,0,1-5.866-1.2c-.939-.242-1.842-.543-2.73-.824s-1.727-.639-2.557-.943c-.821-.326-1.609-.671-2.37-1l-2.159-1.052q-1.017-.543-1.943-1.043l-1.707-1.018c-1.06-.656-1.952-1.274-2.678-1.793s-1.27-.966-1.641-1.264l-.559-.473" transform="translate(20.913 21.543)" fill="#12263f"/>
      <path id="Trazado_634226" data-name="Trazado 634226" d="M245.4,193.89l.634.362c.416.232,1.04.546,1.821.957s1.76.858,2.87,1.379c1.119.5,2.393,1.039,3.787,1.6,1.4.541,2.936,1.078,4.564,1.609.826.236,1.66.509,2.531.732.876.2,1.75.47,2.66.657s1.832.4,2.776.539c.948.119,1.894.312,2.861.4s1.938.23,2.919.243,1.989.1,2.918.044c1-.046,2.049-.023,3.009-.121s1.92-.154,2.882-.307c.959-.169,1.92-.272,2.859-.454.936-.2,1.872-.347,2.774-.577,1.81-.439,3.557-.9,5.2-1.413,1.636-.526,3.173-1.053,4.586-1.58,2.814-1.069,5.124-2.087,6.726-2.84l1.857-.894.647-.337s-.782.656-2.258,1.66c-.74.5-1.648,1.093-2.721,1.722s-2.3,1.318-3.68,2-2.892,1.377-4.536,2.02a53.771,53.771,0,0,1-5.27,1.784,50.125,50.125,0,0,1-5.837,1.287c-1,.173-2.059.247-3.1.372s-2.03.108-3.049.164a47.171,47.171,0,0,1-6.219-.392,46.636,46.636,0,0,1-5.867-1.2c-.939-.242-1.842-.543-2.73-.824s-1.727-.639-2.557-.943c-.82-.326-1.609-.671-2.37-1l-2.159-1.052q-1.017-.543-1.943-1.043l-1.707-1.018c-1.06-.656-1.952-1.274-2.678-1.793s-1.27-.966-1.641-1.264l-.559-.473" transform="translate(27.266 21.543)" fill="#12263f"/>
      <path id="Trazado_634227" data-name="Trazado 634227" d="M57.949,187.113a2.107,2.107,0,1,1-2.107-2.107,2.107,2.107,0,0,1,2.107,2.107" transform="translate(5.971 20.556)"/>
      <path id="Trazado_634228" data-name="Trazado 634228" d="M64.018,187.113a2.107,2.107,0,1,1-2.107-2.107,2.107,2.107,0,0,1,2.107,2.107" transform="translate(6.645 20.556)"/>
      <path id="Trazado_634229" data-name="Trazado 634229" d="M70.087,187.113a2.107,2.107,0,1,1-2.107-2.107,2.107,2.107,0,0,1,2.107,2.107" transform="translate(7.319 20.556)"/>
      <path id="Trazado_634230" data-name="Trazado 634230" d="M53.246,147.838a.726.726,0,0,0-.726.728v35.3c-1.948-1.639-5.519-1.822-8.9-.248-4.188,1.946-6.51,5.837-5.183,8.694s5.8,3.591,9.986,1.649c3.378-1.571,5.541-4.41,5.553-6.949l0-.011V148.566a.729.729,0,0,0-.728-.728m-6.086,43.7c-3.7,1.851-7.242,2.267-7.911.927s1.784-3.922,5.481-5.774,7.241-2.268,7.91-.928-1.781,3.926-5.48,5.776" transform="translate(4.229 16.426)" fill="#12263f"/>
      <path id="Trazado_634231" data-name="Trazado 634231" d="M265.412,172.519c0-6.183-2.609-9.14-7.761-12.71-4.536-3.143-5.617-9.308-5.867-11.564v-.777a.746.746,0,1,0-1.491,0V183.69c-2-1.68-5.661-1.869-9.14-.253-4.3,2-6.681,5.99-5.317,8.923s5.951,3.686,10.246,1.692c3.471-1.612,5.688-4.526,5.7-7.131l0-.011V158.343c1.02,4.79,12.911,6.241,12.911,14.839a22.292,22.292,0,0,1-2.147,9.522,18.776,18.776,0,0,0,2.863-10.186" transform="translate(26.161 16.302)" fill="#12263f"/>
      <path id="Trazado_634232" data-name="Trazado 634232" d="M320.961,161.642c0-6.181-2.612-9.136-7.766-12.71-4.531-3.141-5.613-9.309-5.863-11.563v-1.062a.746.746,0,1,0-1.491,0v48.624c-2-1.681-5.664-1.87-9.139-.254-4.3,2-6.681,5.99-5.319,8.923s5.952,3.686,10.247,1.692c3.468-1.612,5.689-4.526,5.7-7.131V159.583c.81,3.8,8.437,5.5,11.574,10.316a15.938,15.938,0,0,1-.813,1.932,12.749,12.749,0,0,0,.959-1.7,8.063,8.063,0,0,1,1.188,4.292,22.286,22.286,0,0,1-2.147,9.522,18.756,18.756,0,0,0,2.868-10.186,13.809,13.809,0,0,0-1.06-5.71,19.934,19.934,0,0,0,1.06-6.407m-7.766-.593c-4.531-3.143-5.613-9.308-5.863-11.564v-2.013c1.021,4.788,12.908,6.238,12.908,14.839a22.171,22.171,0,0,1-.62,5.159c-1.257-2.444-3.4-4.328-6.424-6.42" transform="translate(32.333 15.062)" fill="#12263f"/>
      <path id="Trazado_634233" data-name="Trazado 634233" d="M196.24,147.838a.727.727,0,0,0-.727.728v35.3c-1.946-1.639-5.518-1.822-8.908-.248-4.187,1.946-6.507,5.837-5.182,8.694s5.8,3.591,9.984,1.65c3.382-1.572,5.546-4.411,5.557-6.95l0-.011V148.566a.728.728,0,0,0-.727-.728" transform="translate(20.117 16.426)" fill="#12263f"/>
      <path id="Trazado_634234" data-name="Trazado 634234" d="M124.393,147.838a.726.726,0,0,0-.726.728v35.3c-1.948-1.639-5.519-1.822-8.9-.248-4.188,1.946-6.51,5.837-5.183,8.694s5.8,3.591,9.986,1.649c3.378-1.571,5.541-4.41,5.553-6.949l0-.011V148.566a.729.729,0,0,0-.728-.728m-6.086,43.7c-3.7,1.851-7.242,2.267-7.911.927s1.784-3.922,5.481-5.774,7.241-2.268,7.91-.928-1.781,3.926-5.48,5.776" transform="translate(12.134 16.426)" fill="#12263f"/>
      <path id="Trazado_634235" data-name="Trazado 634235" d="M116.367,193.493a8.374,8.374,0,0,0,.687.609c.229.191.516.421.87.67s.759.534,1.224.839a36.432,36.432,0,0,0,3.486,1.96c.691.341,1.451.658,2.237,1.017l2.536.991,2.813.916,3.056.827c1.059.243,2.154.464,3.268.706,1.118.22,2.274.384,3.442.586l.88.146.894.1,1.808.2,1.83.2,1.858.126,1.871.128.94.064.946.02,3.8.074.474.012c.118,0,.308,0,.458-.006l.958-.02,1.909-.037,1.9-.038,1.864-.124,1.849-.128c.614-.037,1.226-.067,1.83-.149l3.59-.407q1.752-.293,3.442-.573c1.123-.2,2.2-.47,3.269-.692a59.437,59.437,0,0,0,5.866-1.726c.9-.293,1.722-.688,2.532-.994.8-.329,1.524-.71,2.227-1.031.681-.36,1.31-.717,1.893-1.042.559-.361,1.1-.666,1.544-.992a19.362,19.362,0,0,0,2.031-1.589,7.019,7.019,0,0,0,.651-.646,7.14,7.14,0,0,1-.586.71c-.2.228-.454.494-.771.8-.3.317-.693.631-1.121,1s-.941.72-1.481,1.136c-.56.383-1.179.781-1.846,1.2-.689.374-1.4.816-2.194,1.206l-1.226.583c-.418.2-.846.407-1.3.576l-1.376.551c-.467.192-.946.379-1.443.532l-1.512.494c-.513.168-1.032.34-1.572.468-1.074.269-2.17.592-3.308.836l-3.5.681-3.646.5c-1.23.183-2.5.232-3.763.342l-1.91.141-1.9.052-1.91.053-.957.026c-.169,0-.3.011-.5.011l-.483-.011-3.852-.106-.96-.027-.956-.073-1.9-.146-1.887-.146-1.86-.247-1.836-.249c-.3-.042-.607-.083-.908-.127l-.894-.169c-1.186-.238-2.361-.418-3.491-.693-1.128-.291-2.234-.56-3.3-.849l-3.079-.972c-.973-.376-1.914-.738-2.816-1.087-.881-.4-1.732-.771-2.524-1.153-.777-.421-1.524-.793-2.2-1.189a30.922,30.922,0,0,1-3.374-2.257c-.446-.343-.839-.656-1.157-.956-.33-.284-.6-.546-.807-.759a8.443,8.443,0,0,1-.623-.677" transform="translate(12.93 21.499)" fill="#12263f"/>
    </g>
  </g>
</svg>
