<svg id="Grupo_1101613" data-name="Grupo 1101613" xmlns="http://www.w3.org/2000/svg" xmlns:xlink="http://www.w3.org/1999/xlink" width="820" height="372" viewBox="0 0 820 372">
  <defs>
    <clipPath id="clip-path">
      <path id="Trazado_634739" data-name="Trazado 634739" d="M0,0H820V372H0Z" fill="none" stroke="rgba(0,0,0,0)" stroke-width="1"/>
    </clipPath>
    <clipPath id="clip-path-2">
      <rect id="Rectángulo_396132" data-name="Rectángulo 396132" width="820" height="372" fill="none" stroke="rgba(0,0,0,0)" stroke-width="1"/>
    </clipPath>
  </defs>
  <g id="Enmascarar_grupo_1101647" data-name="Enmascarar grupo 1101647" clip-path="url(#clip-path)">
    <path id="Trazado_634722" data-name="Trazado 634722" d="M0,0H820V372H0Z" fill="#624b7e" stroke="rgba(0,0,0,0)" stroke-width="1"/>
    <g id="Grupo_1101407" data-name="Grupo 1101407">
      <g id="Grupo_1101406" data-name="Grupo 1101406" clip-path="url(#clip-path-2)">
        <g id="Grupo_1101405" data-name="Grupo 1101405" opacity="0.09">
          <g id="Grupo_1101404" data-name="Grupo 1101404">
            <g id="Grupo_1101403" data-name="Grupo 1101403" clip-path="url(#clip-path-2)">
              <path id="Trazado_634107" data-name="Trazado 634107" d="M770.464,0h-7.611q3.4,10.739,7.611,21.2Z" transform="translate(49.536)" fill="#dac8f1" stroke="rgba(0,0,0,0)" stroke-width="1"/>
              <path id="Trazado_634108" data-name="Trazado 634108" d="M253.7,0H212.421a55.285,55.285,0,0,0,11.843,5.321C234.244,8.428,246.872,7.076,253.7,0" transform="translate(13.794)" fill="#dac8f1" stroke="rgba(0,0,0,0)" stroke-width="1"/>
              <path id="Trazado_634109" data-name="Trazado 634109" d="M0,344.561v4.727H6.682c-1.555-1.1-3.1-2.219-4.661-3.313L0,344.561" transform="translate(0 22.374)" fill="#dac8f1" stroke="rgba(0,0,0,0)" stroke-width="1"/>
              <path id="Trazado_634110" data-name="Trazado 634110" d="M485.517,340.865q-5.23-74.4-10.472-148.794c26.933,12.134,53.3,25.489,80.254,37.572,31.629,14.183,111.248,38.02,79.971-29.836-7.883-17.1-16.45-34.559-17.313-53.372s8.36-39.594,26.168-45.742c19.869-6.858,40.461,6.2,58.274,17.354a422.885,422.885,0,0,0,114.766,49.907V21.2Q812.948,10.747,809.554,0H753.842q2.43,4.094,5.031,8.089c6.3,9.621,13.5,19.045,16.289,30.209s-.225,24.816-10.311,30.345c-14.465,7.935-31.221-4.735-43.076-16.214Q693.587,25.118,663.426,0H487.119a658.946,658.946,0,0,1,52.535,64.637c8.941,12.556,17.7,26.093,19.35,41.427s-6.128,32.757-20.927,37.065c-25.19,7.335-43.181-23.878-66.23-36.409-27.843-15.143-67.895,3.987-73.62,35.156-3.683,20.04,4.891,39.982,9.827,59.746s4.8,44.02-11.2,56.623c-12.422,9.793-30.76,8.821-44.94,1.8s-25.151-19.017-35.771-30.748Q242.68,148.153,169.216,67c-16.945-18.723-36.721-38.826-61.95-39.787C72.283,25.872,46.995,63.288,44.09,98.173c-4.1,49.3,21.311,96.525,52.7,134.77s69.42,70.935,98.078,111.257c5.782,8.134,11.164,17.778,13.7,27.463h94.008l-91.062-96.04c-8.424-8.884-17.06-18.108-21.306-29.592s-2.968-25.932,6.312-33.918c16.272-14,40.776.253,57.066,14.234Q333.62,295,413.647,363.665c3.152,2.7,6.343,5.425,9.632,8h58.748c4.612-8.973,4.221-20.395,3.49-30.8" transform="translate(2.835)" fill="#dac8f1" stroke="rgba(0,0,0,0)" stroke-width="1"/>
              <path id="Trazado_634111" data-name="Trazado 634111" d="M0,277.978v70.907c.672.47,1.352.945,2.021,1.414,1.561,1.094,3.106,2.21,4.661,3.313H113.825A552.175,552.175,0,0,0,0,277.978" transform="translate(0 18.05)" fill="#dac8f1" stroke="rgba(0,0,0,0)" stroke-width="1"/>
              <path id="Trazado_634112" data-name="Trazado 634112" d="M660.468,339.92c10.806-2.486,22.067-.259,32.993,1.634a536.4,536.4,0,0,0,84.792,7.837q2.922.04,5.853.032V277.731c-35.288,14.764-75.575,17.632-112.459,7.368-17.049-4.744-33.372-12.138-50.755-15.452s-36.829-1.938-50.574,9.206c-18.193,14.753-20.87,42.22-14.269,64.7,1.069,3.643,2.347,7.2,3.757,10.706h81.3c3.562-7.171,11.314-12.483,19.364-14.335" transform="translate(35.894 17.407)" fill="#dac8f1" stroke="rgba(0,0,0,0)" stroke-width="1"/>
              <path id="Trazado_634113" data-name="Trazado 634113" d="M274.83,57.649C300.514,52.264,319.508,27.77,323.235,1.8c.083-.585.15-1.194.219-1.8H257.724c-6.832,7.076-19.458,8.428-29.439,5.321A55.354,55.354,0,0,1,216.442,0H150.507l44.1,30.051c24.057,16.391,51.732,33.572,80.226,27.6" transform="translate(9.773)" fill="#dac8f1" stroke="rgba(0,0,0,0)" stroke-width="1"/>
            </g>
          </g>
        </g>
        <path id="Trazado_634114" data-name="Trazado 634114" d="M478.391,85.687H303.941A13.885,13.885,0,0,1,290.055,71.8V33.887A13.886,13.886,0,0,1,303.941,20h174.45a13.885,13.885,0,0,1,13.885,13.886V71.8a13.884,13.884,0,0,1-13.885,13.885" transform="translate(18.835 1.299)" fill="#fcf5e0" stroke="rgba(0,0,0,0)" stroke-width="1"/>
        <path id="Trazado_634115" data-name="Trazado 634115" d="M23.655,189.225l71.357,71.386a18.606,18.606,0,0,0,26.192,0l71.356-71.386a18.553,18.553,0,0,0,0-26.151l-45.193-45.21a55.677,55.677,0,0,0-78.489,0l-45.224,45.21a18.553,18.553,0,0,0,0,26.151" transform="translate(1.186 6.603)" fill="#eadff7" stroke="rgba(0,0,0,0)" stroke-width="1" fill-rule="evenodd"/>
        <path id="Trazado_634116" data-name="Trazado 634116" d="M214.766,189.225l71.357,71.386a18.534,18.534,0,0,0,26.134,0l71.356-71.386a18.542,18.542,0,0,0,0-26.151l-45.189-45.21a55.643,55.643,0,0,0-78.46,0l-45.2,45.21a18.5,18.5,0,0,0,0,26.151" transform="translate(13.594 6.603)" fill="#dac8f1" stroke="rgba(0,0,0,0)" stroke-width="1" fill-rule="evenodd"/>
        <path id="Trazado_634117" data-name="Trazado 634117" d="M119.3,260.242l71.386-71.37a18.569,18.569,0,0,1,26.163,0l71.36,71.37a18.559,18.559,0,0,1,0,26.154L242.986,331.6a55.678,55.678,0,0,1-78.485,0L119.3,286.4a18.559,18.559,0,0,1,0-26.154" transform="translate(7.397 11.914)" fill="#dac8f1" stroke="rgba(0,0,0,0)" stroke-width="1" fill-rule="evenodd"/>
        <path id="Trazado_634118" data-name="Trazado 634118" d="M405.826,189.225l71.357,71.386a18.565,18.565,0,0,0,26.159,0l71.389-71.386a18.553,18.553,0,0,0,0-26.151l-45.222-45.21a55.681,55.681,0,0,0-78.492,0l-45.191,45.21a18.543,18.543,0,0,0,0,26.151" transform="translate(26.002 6.603)" fill="#d6f6f1" stroke="rgba(0,0,0,0)" stroke-width="1" fill-rule="evenodd"/>
        <path id="Trazado_634119" data-name="Trazado 634119" d="M310.387,260.242l71.362-71.37a18.565,18.565,0,0,1,26.16,0l71.357,71.37a18.5,18.5,0,0,1,0,26.154L434.1,331.6a55.68,55.68,0,0,1-78.486,0L310.387,286.4a18.557,18.557,0,0,1,0-26.154" transform="translate(19.805 11.914)" fill="#d6f6f1" stroke="rgba(0,0,0,0)" stroke-width="1" fill-rule="evenodd"/>
        <path id="Trazado_634120" data-name="Trazado 634120" d="M502.092,260.242l71.363-71.37a18.563,18.563,0,0,1,26.159,0L671,260.242a18.559,18.559,0,0,1,0,26.154l-45.2,45.21a55.68,55.68,0,0,1-78.486,0L502.092,286.4a18.557,18.557,0,0,1,0-26.154" transform="translate(32.253 11.914)" fill="#fcf5e0" stroke="rgba(0,0,0,0)" stroke-width="1" fill-rule="evenodd"/>
        <path id="Trazado_634121" data-name="Trazado 634121" d="M602.634,189.225l71.357,71.386a18.565,18.565,0,0,0,26.159,0L745.374,215.4a55.7,55.7,0,0,0,0-78.488l-19.031-19.047a55.672,55.672,0,0,0-78.485,0l-45.224,45.21a18.544,18.544,0,0,0,0,26.151" transform="translate(38.782 6.603)" fill="#fcf5e0" stroke="rgba(0,0,0,0)" stroke-width="1" fill-rule="evenodd"/>
      </g>
    </g>
    <path id="Trazado_634723" data-name="Trazado 634723" d="M9.375-9.781H5.828V0H3.867V-9.781H.352v-1.594H9.375ZM13.023.156A3.928,3.928,0,0,1,10.1-.98,4.124,4.124,0,0,1,8.976-4.008v-.234A5.072,5.072,0,0,1,9.464-6.5a3.716,3.716,0,0,1,1.371-1.551A3.625,3.625,0,0,1,12.8-8.609a3.318,3.318,0,0,1,2.668,1.1,4.658,4.658,0,0,1,.941,3.117v.766H10.89a2.539,2.539,0,0,0,.7,1.656,2.1,2.1,0,0,0,1.543.609,2.571,2.571,0,0,0,2.125-1.055l1.023.977A3.418,3.418,0,0,1,14.925-.262,4.244,4.244,0,0,1,13.023.156ZM12.8-7.086a1.6,1.6,0,0,0-1.262.547,2.835,2.835,0,0,0-.613,1.523h3.617v-.141A2.307,2.307,0,0,0,14.031-6.6,1.586,1.586,0,0,0,12.8-7.086Zm9.516.367a4.7,4.7,0,0,0-.773-.062,1.741,1.741,0,0,0-1.758,1V0h-1.9V-8.453h1.813l.047.945a2.139,2.139,0,0,1,1.906-1.1,1.777,1.777,0,0,1,.672.109Zm2.961-1.734.055.977a3.039,3.039,0,0,1,2.461-1.133q2.641,0,2.688,3.023V0h-1.9V-5.477a1.741,1.741,0,0,0-.348-1.191,1.462,1.462,0,0,0-1.137-.387,1.829,1.829,0,0,0-1.711,1.039V0h-1.9V-8.453ZM37.46,0a2.93,2.93,0,0,1-.219-.789,2.955,2.955,0,0,1-2.219.945A2.982,2.982,0,0,1,32.945-.57a2.325,2.325,0,0,1-.8-1.8,2.4,2.4,0,0,1,1-2.074,4.865,4.865,0,0,1,2.871-.723h1.164v-.555a1.481,1.481,0,0,0-.367-1.051,1.456,1.456,0,0,0-1.117-.395,1.672,1.672,0,0,0-1.062.324,1,1,0,0,0-.414.824h-1.9a2.107,2.107,0,0,1,.461-1.3,3.071,3.071,0,0,1,1.254-.949,4.4,4.4,0,0,1,1.77-.344,3.547,3.547,0,0,1,2.367.746,2.661,2.661,0,0,1,.906,2.1v3.813a4.321,4.321,0,0,0,.32,1.82V0ZM35.375-1.367a2.16,2.16,0,0,0,1.059-.273,1.827,1.827,0,0,0,.746-.734V-3.969H36.156A2.8,2.8,0,0,0,34.57-3.6a1.189,1.189,0,0,0-.531,1.039,1.109,1.109,0,0,0,.363.871A1.407,1.407,0,0,0,35.375-1.367ZM45.492-6.719a4.7,4.7,0,0,0-.773-.062,1.741,1.741,0,0,0-1.758,1V0h-1.9V-8.453h1.813l.047.945a2.139,2.139,0,0,1,1.906-1.1A1.777,1.777,0,0,1,45.5-8.5ZM48.71,0h-1.9V-8.453h1.9ZM46.695-10.648a1.008,1.008,0,0,1,.277-.727,1.048,1.048,0,0,1,.793-.289,1.061,1.061,0,0,1,.8.289,1,1,0,0,1,.281.727.977.977,0,0,1-.281.715,1.069,1.069,0,0,1-.8.285,1.056,1.056,0,0,1-.793-.285A.984.984,0,0,1,46.695-10.648ZM50.421-4.3a4.984,4.984,0,0,1,.492-2.238A3.6,3.6,0,0,1,52.3-8.074a3.9,3.9,0,0,1,2.047-.535,3.692,3.692,0,0,1,2.777,1.1,4.333,4.333,0,0,1,1.152,2.922l.008.445a5.029,5.029,0,0,1-.48,2.234A3.551,3.551,0,0,1,56.425-.383a3.925,3.925,0,0,1-2.066.539A3.667,3.667,0,0,1,51.5-1.035a4.563,4.563,0,0,1-1.074-3.176Zm1.9.164A3.406,3.406,0,0,0,52.859-2.1a1.752,1.752,0,0,0,1.5.738,1.733,1.733,0,0,0,1.5-.75,3.762,3.762,0,0,0,.535-2.2,3.362,3.362,0,0,0-.551-2.031,1.759,1.759,0,0,0-1.5-.75,1.743,1.743,0,0,0-1.477.738A3.691,3.691,0,0,0,52.32-4.141ZM70.765-6.094H64.031V-7.672h6.734Zm0,3.313H64.031v-1.57h6.734Zm8.117-3.773h1.156a2.069,2.069,0,0,0,1.387-.453A1.617,1.617,0,0,0,81.937-8.3a1.762,1.762,0,0,0-.426-1.262,1.714,1.714,0,0,0-1.3-.449,1.813,1.813,0,0,0-1.258.441,1.475,1.475,0,0,0-.492,1.152h-1.9a2.874,2.874,0,0,1,.465-1.594,3.123,3.123,0,0,1,1.3-1.121,4.225,4.225,0,0,1,1.863-.4,3.912,3.912,0,0,1,2.676.855A3,3,0,0,1,83.835-8.3a2.417,2.417,0,0,1-.488,1.441,3.062,3.062,0,0,1-1.262,1.02,2.791,2.791,0,0,1,1.426,1.008A2.759,2.759,0,0,1,84-3.187,3.055,3.055,0,0,1,82.949-.75a4.08,4.08,0,0,1-2.762.906A4.049,4.049,0,0,1,77.5-.719a2.882,2.882,0,0,1-1.047-2.328h1.9a1.588,1.588,0,0,0,.5,1.219,1.911,1.911,0,0,0,1.355.469A1.971,1.971,0,0,0,81.6-1.828a1.758,1.758,0,0,0,.508-1.359,1.776,1.776,0,0,0-.531-1.383A2.271,2.271,0,0,0,80-5.055H78.882ZM97.289-4.141A5.033,5.033,0,0,1,96.4-1.012,2.852,2.852,0,0,1,94.007.156a2.871,2.871,0,0,1-2.227-.914V3.25h-1.9v-11.7h1.75l.078.859a2.788,2.788,0,0,1,2.273-1.016A2.881,2.881,0,0,1,96.41-7.457a5.167,5.167,0,0,1,.879,3.2ZM95.4-4.3a3.526,3.526,0,0,0-.5-2.008,1.638,1.638,0,0,0-1.441-.742,1.747,1.747,0,0,0-1.672.961v3.75a1.763,1.763,0,0,0,1.688.984,1.636,1.636,0,0,0,1.418-.73A3.881,3.881,0,0,0,95.4-4.3ZM103.945,0a2.93,2.93,0,0,1-.219-.789,2.955,2.955,0,0,1-2.219.945A2.982,2.982,0,0,1,99.429-.57a2.325,2.325,0,0,1-.8-1.8,2.4,2.4,0,0,1,1-2.074,4.865,4.865,0,0,1,2.871-.723h1.164v-.555A1.481,1.481,0,0,0,103.3-6.77a1.456,1.456,0,0,0-1.117-.395,1.672,1.672,0,0,0-1.062.324,1,1,0,0,0-.414.824H98.8a2.107,2.107,0,0,1,.461-1.3,3.071,3.071,0,0,1,1.254-.949,4.4,4.4,0,0,1,1.77-.344,3.547,3.547,0,0,1,2.367.746,2.661,2.661,0,0,1,.906,2.1v3.813a4.321,4.321,0,0,0,.32,1.82V0Zm-2.086-1.367a2.159,2.159,0,0,0,1.059-.273,1.827,1.827,0,0,0,.746-.734V-3.969H102.64a2.8,2.8,0,0,0-1.586.367,1.189,1.189,0,0,0-.531,1.039,1.109,1.109,0,0,0,.363.871A1.407,1.407,0,0,0,101.859-1.367Zm10.117-5.352a4.7,4.7,0,0,0-.773-.062,1.741,1.741,0,0,0-1.758,1V0h-1.9V-8.453h1.813l.047.945a2.139,2.139,0,0,1,1.906-1.1,1.777,1.777,0,0,1,.672.109Zm4.353-3.789v2.055h1.492v1.406h-1.492v4.719a1.039,1.039,0,0,0,.191.7.888.888,0,0,0,.684.215,2.924,2.924,0,0,0,.664-.078V-.023a4.676,4.676,0,0,1-1.25.18q-2.188,0-2.187-2.414V-7.047H113.04V-8.453h1.391v-2.055ZM122.993.156A3.928,3.928,0,0,1,120.067-.98a4.124,4.124,0,0,1-1.121-3.027v-.234a5.072,5.072,0,0,1,.488-2.262,3.716,3.716,0,0,1,1.371-1.551,3.625,3.625,0,0,1,1.969-.555,3.318,3.318,0,0,1,2.668,1.1,4.658,4.658,0,0,1,.941,3.117v.766H120.86a2.539,2.539,0,0,0,.7,1.656,2.1,2.1,0,0,0,1.543.609,2.571,2.571,0,0,0,2.125-1.055l1.023.977A3.418,3.418,0,0,1,124.9-.262,4.244,4.244,0,0,1,122.993.156Zm-.227-7.242a1.6,1.6,0,0,0-1.262.547,2.835,2.835,0,0,0-.613,1.523h3.617v-.141A2.307,2.307,0,0,0,124-6.6,1.586,1.586,0,0,0,122.766-7.086ZM132.594-2.3a.861.861,0,0,0-.418-.773,4.445,4.445,0,0,0-1.387-.469,7.129,7.129,0,0,1-1.617-.516,2.158,2.158,0,0,1-1.422-1.992,2.25,2.25,0,0,1,.922-1.828,3.644,3.644,0,0,1,2.344-.734,3.792,3.792,0,0,1,2.449.75,2.38,2.38,0,0,1,.934,1.945h-1.9a1.17,1.17,0,0,0-.406-.91,1.557,1.557,0,0,0-1.078-.363A1.682,1.682,0,0,0,130-6.9a.911.911,0,0,0-.395.773.769.769,0,0,0,.367.68,5.049,5.049,0,0,0,1.484.488,7.027,7.027,0,0,1,1.754.586,2.484,2.484,0,0,1,.945.816,2.082,2.082,0,0,1,.309,1.156,2.2,2.2,0,0,1-.945,1.848,4.031,4.031,0,0,1-2.477.707,4.371,4.371,0,0,1-1.852-.375,3.047,3.047,0,0,1-1.266-1.031,2.441,2.441,0,0,1-.453-1.414h1.844a1.338,1.338,0,0,0,.508,1.035,1.973,1.973,0,0,0,1.242.363,1.92,1.92,0,0,0,1.141-.285A.883.883,0,0,0,132.594-2.3Z" transform="translate(37.173 186.972)"/>
    <path id="Trazado_634724" data-name="Trazado 634724" d="M7.1-2.93a1.374,1.374,0,0,0-.527-1.156,6.345,6.345,0,0,0-1.9-.82,9.186,9.186,0,0,1-2.187-.922A2.919,2.919,0,0,1,.93-8.375a2.772,2.772,0,0,1,1.121-2.266,4.538,4.538,0,0,1,2.91-.891,4.916,4.916,0,0,1,2.117.438A3.475,3.475,0,0,1,8.539-9.848,3.2,3.2,0,0,1,9.07-8.055H7.1a1.782,1.782,0,0,0-.559-1.395,2.305,2.305,0,0,0-1.6-.5,2.408,2.408,0,0,0-1.5.414,1.379,1.379,0,0,0-.535,1.156A1.247,1.247,0,0,0,3.484-7.34a6.66,6.66,0,0,0,1.906.813,8.768,8.768,0,0,1,2.133.9A3.392,3.392,0,0,1,8.7-4.473a3.011,3.011,0,0,1,.375,1.527A2.707,2.707,0,0,1,7.988-.684a4.727,4.727,0,0,1-2.957.84A5.557,5.557,0,0,1,2.762-.3,3.812,3.812,0,0,1,1.152-1.562,3.144,3.144,0,0,1,.578-3.437H2.555a1.84,1.84,0,0,0,.641,1.5,2.805,2.805,0,0,0,1.836.531,2.437,2.437,0,0,0,1.551-.418A1.349,1.349,0,0,0,7.1-2.93ZM12.648,0h-1.9V-8.453h1.9ZM10.633-10.648a1.008,1.008,0,0,1,.277-.727,1.048,1.048,0,0,1,.793-.289,1.061,1.061,0,0,1,.8.289,1,1,0,0,1,.281.727.977.977,0,0,1-.281.715,1.069,1.069,0,0,1-.8.285,1.056,1.056,0,0,1-.793-.285A.984.984,0,0,1,10.633-10.648Zm5.867,2.2.055.883a3.042,3.042,0,0,1,2.438-1.039,2.337,2.337,0,0,1,2.32,1.3,3,3,0,0,1,2.594-1.3,2.636,2.636,0,0,1,2.082.773,3.405,3.405,0,0,1,.7,2.281V0h-1.9V-5.5a1.681,1.681,0,0,0-.352-1.18,1.539,1.539,0,0,0-1.164-.375,1.581,1.581,0,0,0-1.059.348,1.833,1.833,0,0,0-.574.91L21.648,0h-1.9V-5.562a1.354,1.354,0,0,0-1.523-1.492,1.671,1.671,0,0,0-1.617.93V0h-1.9V-8.453ZM36.039-4.141a5.033,5.033,0,0,1-.891,3.129A2.852,2.852,0,0,1,32.758.156a2.871,2.871,0,0,1-2.227-.914V3.25h-1.9v-11.7h1.75l.078.859a2.788,2.788,0,0,1,2.273-1.016A2.881,2.881,0,0,1,35.16-7.457a5.167,5.167,0,0,1,.879,3.2ZM34.148-4.3a3.526,3.526,0,0,0-.5-2.008A1.638,1.638,0,0,0,32.2-7.055a1.747,1.747,0,0,0-1.672.961v3.75a1.763,1.763,0,0,0,1.688.984,1.636,1.636,0,0,0,1.418-.73A3.881,3.881,0,0,0,34.148-4.3ZM39.664,0h-1.9V-12h1.9Zm5.789.156A3.928,3.928,0,0,1,42.527-.98a4.124,4.124,0,0,1-1.121-3.027v-.234A5.072,5.072,0,0,1,41.895-6.5a3.716,3.716,0,0,1,1.371-1.551,3.625,3.625,0,0,1,1.969-.555,3.318,3.318,0,0,1,2.668,1.1,4.658,4.658,0,0,1,.941,3.117v.766H43.32a2.539,2.539,0,0,0,.7,1.656,2.1,2.1,0,0,0,1.543.609,2.571,2.571,0,0,0,2.125-1.055l1.023.977A3.418,3.418,0,0,1,47.355-.262,4.244,4.244,0,0,1,45.453.156Zm-.227-7.242a1.6,1.6,0,0,0-1.262.547,2.835,2.835,0,0,0-.613,1.523h3.617v-.141A2.307,2.307,0,0,0,46.461-6.6,1.586,1.586,0,0,0,45.227-7.086ZM53.945-4.3a4.984,4.984,0,0,1,.492-2.238A3.6,3.6,0,0,1,55.82-8.074a3.9,3.9,0,0,1,2.047-.535,3.692,3.692,0,0,1,2.777,1.1A4.333,4.333,0,0,1,61.8-4.586l.008.445a5.029,5.029,0,0,1-.48,2.234A3.551,3.551,0,0,1,59.949-.383a3.925,3.925,0,0,1-2.066.539A3.667,3.667,0,0,1,55.02-1.035a4.563,4.563,0,0,1-1.074-3.176Zm1.9.164A3.406,3.406,0,0,0,56.383-2.1a1.752,1.752,0,0,0,1.5.738,1.733,1.733,0,0,0,1.5-.75,3.762,3.762,0,0,0,.535-2.2,3.362,3.362,0,0,0-.551-2.031,1.759,1.759,0,0,0-1.5-.75,1.743,1.743,0,0,0-1.477.738A3.691,3.691,0,0,0,55.844-4.141Zm11.2-.148a5.026,5.026,0,0,1,.906-3.137,2.9,2.9,0,0,1,2.43-1.184,2.759,2.759,0,0,1,2.172.938V-12h1.9V0H72.727l-.094-.875A2.8,2.8,0,0,1,70.359.156a2.887,2.887,0,0,1-2.4-1.2A5.21,5.21,0,0,1,67.039-4.289Zm1.9.164a3.519,3.519,0,0,0,.5,2.012,1.61,1.61,0,0,0,1.41.723,1.793,1.793,0,0,0,1.7-1.039V-6.039a1.766,1.766,0,0,0-1.687-1.016,1.622,1.622,0,0,0-1.422.73A3.918,3.918,0,0,0,68.938-4.125ZM80.148.156A3.928,3.928,0,0,1,77.223-.98,4.124,4.124,0,0,1,76.1-4.008v-.234A5.072,5.072,0,0,1,76.59-6.5a3.716,3.716,0,0,1,1.371-1.551,3.625,3.625,0,0,1,1.969-.555,3.318,3.318,0,0,1,2.668,1.1,4.658,4.658,0,0,1,.941,3.117v.766H78.016a2.539,2.539,0,0,0,.7,1.656,2.1,2.1,0,0,0,1.543.609,2.571,2.571,0,0,0,2.125-1.055l1.023.977A3.418,3.418,0,0,1,82.051-.262,4.244,4.244,0,0,1,80.148.156Zm-.227-7.242a1.6,1.6,0,0,0-1.262.547,2.835,2.835,0,0,0-.613,1.523h3.617v-.141A2.307,2.307,0,0,0,81.156-6.6,1.586,1.586,0,0,0,79.922-7.086Z" transform="translate(166.414 268.896)"/>
    <path id="Trazado_634725" data-name="Trazado 634725" d="M5.711-2.3a.861.861,0,0,0-.418-.773,4.445,4.445,0,0,0-1.387-.469,7.129,7.129,0,0,1-1.617-.516A2.158,2.158,0,0,1,.867-6.047a2.25,2.25,0,0,1,.922-1.828,3.644,3.644,0,0,1,2.344-.734,3.792,3.792,0,0,1,2.449.75,2.38,2.38,0,0,1,.934,1.945h-1.9a1.17,1.17,0,0,0-.406-.91,1.557,1.557,0,0,0-1.078-.363,1.682,1.682,0,0,0-1.02.289.911.911,0,0,0-.395.773.769.769,0,0,0,.367.68,5.049,5.049,0,0,0,1.484.488,7.027,7.027,0,0,1,1.754.586,2.484,2.484,0,0,1,.945.816A2.082,2.082,0,0,1,7.578-2.4,2.2,2.2,0,0,1,6.633-.551,4.031,4.031,0,0,1,4.156.156,4.371,4.371,0,0,1,2.3-.219,3.047,3.047,0,0,1,1.039-1.25,2.441,2.441,0,0,1,.586-2.664H2.43a1.338,1.338,0,0,0,.508,1.035,1.973,1.973,0,0,0,1.242.363A1.92,1.92,0,0,0,5.32-1.551.883.883,0,0,0,5.711-2.3ZM14.352-.828a2.944,2.944,0,0,1-2.375.984,2.624,2.624,0,0,1-2.082-.8,3.423,3.423,0,0,1-.707-2.328V-8.453h1.9V-3q0,1.609,1.336,1.609a1.876,1.876,0,0,0,1.867-.992v-6.07h1.9V0H14.4ZM25.539-4.141a5.078,5.078,0,0,1-.879,3.133A2.863,2.863,0,0,1,22.242.156,2.758,2.758,0,0,1,19.93-.914L19.836,0H18.117V-12h1.9v4.359a2.748,2.748,0,0,1,2.211-.969,2.9,2.9,0,0,1,2.43,1.148,5.162,5.162,0,0,1,.883,3.211Zm-1.9-.164a3.589,3.589,0,0,0-.484-2.062,1.613,1.613,0,0,0-1.406-.687,1.763,1.763,0,0,0-1.734,1.078v3.484a1.781,1.781,0,0,0,1.75,1.1,1.6,1.6,0,0,0,1.375-.664,3.477,3.477,0,0,0,.5-2.008Zm3.133.016a5.026,5.026,0,0,1,.906-3.137,2.9,2.9,0,0,1,2.43-1.184,2.759,2.759,0,0,1,2.172.938V-12h1.9V0H32.461l-.094-.875A2.8,2.8,0,0,1,30.094.156a2.887,2.887,0,0,1-2.4-1.2A5.21,5.21,0,0,1,26.773-4.289Zm1.9.164a3.519,3.519,0,0,0,.5,2.012,1.61,1.61,0,0,0,1.41.723,1.793,1.793,0,0,0,1.7-1.039V-6.039a1.766,1.766,0,0,0-1.687-1.016,1.622,1.622,0,0,0-1.422.73A3.918,3.918,0,0,0,28.672-4.125ZM38.18,0h-1.9V-8.453h1.9ZM36.164-10.648a1.008,1.008,0,0,1,.277-.727,1.048,1.048,0,0,1,.793-.289,1.061,1.061,0,0,1,.8.289,1,1,0,0,1,.281.727.977.977,0,0,1-.281.715,1.069,1.069,0,0,1-.8.285,1.056,1.056,0,0,1-.793-.285A.984.984,0,0,1,36.164-10.648Zm7.063,8.242,1.789-6.047h1.961L44.047,0H42.4L39.445-8.453h1.969ZM50.18,0h-1.9V-8.453h1.9ZM48.164-10.648a1.008,1.008,0,0,1,.277-.727,1.048,1.048,0,0,1,.793-.289,1.061,1.061,0,0,1,.8.289,1,1,0,0,1,.281.727.977.977,0,0,1-.281.715,1.069,1.069,0,0,1-.8.285,1.056,1.056,0,0,1-.793-.285A.984.984,0,0,1,48.164-10.648ZM56.984-2.3a.861.861,0,0,0-.418-.773,4.445,4.445,0,0,0-1.387-.469,7.129,7.129,0,0,1-1.617-.516,2.158,2.158,0,0,1-1.422-1.992,2.25,2.25,0,0,1,.922-1.828,3.644,3.644,0,0,1,2.344-.734,3.792,3.792,0,0,1,2.449.75,2.38,2.38,0,0,1,.934,1.945h-1.9a1.17,1.17,0,0,0-.406-.91,1.557,1.557,0,0,0-1.078-.363,1.682,1.682,0,0,0-1.02.289.911.911,0,0,0-.395.773.769.769,0,0,0,.367.68,5.049,5.049,0,0,0,1.484.488,7.027,7.027,0,0,1,1.754.586,2.484,2.484,0,0,1,.945.816A2.082,2.082,0,0,1,58.852-2.4a2.2,2.2,0,0,1-.945,1.848A4.031,4.031,0,0,1,55.43.156a4.371,4.371,0,0,1-1.852-.375A3.047,3.047,0,0,1,52.313-1.25a2.441,2.441,0,0,1-.453-1.414H53.7a1.338,1.338,0,0,0,.508,1.035,1.973,1.973,0,0,0,1.242.363,1.92,1.92,0,0,0,1.141-.285A.883.883,0,0,0,56.984-2.3ZM62.523,0h-1.9V-8.453h1.9ZM60.508-10.648a1.008,1.008,0,0,1,.277-.727,1.048,1.048,0,0,1,.793-.289,1.061,1.061,0,0,1,.8.289,1,1,0,0,1,.281.727.977.977,0,0,1-.281.715,1.069,1.069,0,0,1-.8.285,1.056,1.056,0,0,1-.793-.285A.984.984,0,0,1,60.508-10.648ZM64.234-4.3a4.984,4.984,0,0,1,.492-2.238,3.6,3.6,0,0,1,1.383-1.531,3.9,3.9,0,0,1,2.047-.535,3.692,3.692,0,0,1,2.777,1.1,4.333,4.333,0,0,1,1.152,2.922l.008.445a5.029,5.029,0,0,1-.48,2.234A3.551,3.551,0,0,1,70.238-.383a3.925,3.925,0,0,1-2.066.539,3.667,3.667,0,0,1-2.863-1.191,4.563,4.563,0,0,1-1.074-3.176Zm1.9.164A3.406,3.406,0,0,0,66.672-2.1a1.752,1.752,0,0,0,1.5.738,1.733,1.733,0,0,0,1.5-.75A3.762,3.762,0,0,0,70.2-4.3a3.362,3.362,0,0,0-.551-2.031,1.759,1.759,0,0,0-1.5-.75,1.743,1.743,0,0,0-1.477.738A3.691,3.691,0,0,0,66.133-4.141ZM68.68-12h2.164L68.68-9.633l-1.523,0Zm6.781,3.547.055.977a3.039,3.039,0,0,1,2.461-1.133q2.641,0,2.688,3.023V0h-1.9V-5.477a1.741,1.741,0,0,0-.348-1.191,1.462,1.462,0,0,0-1.137-.387A1.829,1.829,0,0,0,75.57-6.016V0h-1.9V-8.453Z" transform="translate(167.692 289.343)"/>
    <path id="Trazado_634726" data-name="Trazado 634726" d="M8.391-4.141a5.078,5.078,0,0,1-.879,3.133A2.863,2.863,0,0,1,5.094.156,2.758,2.758,0,0,1,2.781-.914L2.688,0H.969V-12h1.9v4.359a2.748,2.748,0,0,1,2.211-.969,2.9,2.9,0,0,1,2.43,1.148A5.162,5.162,0,0,1,8.391-4.25ZM6.492-4.3a3.589,3.589,0,0,0-.484-2.062A1.613,1.613,0,0,0,4.6-7.055,1.763,1.763,0,0,0,2.867-5.977v3.484a1.781,1.781,0,0,0,1.75,1.1,1.6,1.6,0,0,0,1.375-.664,3.477,3.477,0,0,0,.5-2.008ZM12,0H10.1V-8.453H12ZM9.984-10.648a1.008,1.008,0,0,1,.277-.727,1.048,1.048,0,0,1,.793-.289,1.061,1.061,0,0,1,.8.289,1,1,0,0,1,.281.727.977.977,0,0,1-.281.715,1.069,1.069,0,0,1-.8.285,1.056,1.056,0,0,1-.793-.285A.984.984,0,0,1,9.984-10.648Zm5.844,2.2.055.977a3.039,3.039,0,0,1,2.461-1.133q2.641,0,2.688,3.023V0h-1.9V-5.477a1.741,1.741,0,0,0-.348-1.191,1.462,1.462,0,0,0-1.137-.387,1.829,1.829,0,0,0-1.711,1.039V0h-1.9V-8.453ZM28.016,0A2.93,2.93,0,0,1,27.8-.789a2.955,2.955,0,0,1-2.219.945A2.982,2.982,0,0,1,23.5-.57a2.325,2.325,0,0,1-.8-1.8,2.4,2.4,0,0,1,1-2.074,4.865,4.865,0,0,1,2.871-.723h1.164v-.555a1.481,1.481,0,0,0-.367-1.051,1.456,1.456,0,0,0-1.117-.395,1.672,1.672,0,0,0-1.062.324,1,1,0,0,0-.414.824h-1.9a2.107,2.107,0,0,1,.461-1.3,3.071,3.071,0,0,1,1.254-.949,4.4,4.4,0,0,1,1.77-.344,3.547,3.547,0,0,1,2.367.746,2.661,2.661,0,0,1,.906,2.1v3.813a4.321,4.321,0,0,0,.32,1.82V0ZM25.93-1.367a2.159,2.159,0,0,0,1.059-.273,1.827,1.827,0,0,0,.746-.734V-3.969H26.711a2.8,2.8,0,0,0-1.586.367,1.189,1.189,0,0,0-.531,1.039,1.109,1.109,0,0,0,.363.871A1.407,1.407,0,0,0,25.93-1.367ZM36.047-6.719a4.7,4.7,0,0,0-.773-.062,1.741,1.741,0,0,0-1.758,1V0h-1.9V-8.453H33.43l.047.945a2.139,2.139,0,0,1,1.906-1.1,1.777,1.777,0,0,1,.672.109ZM39.266,0h-1.9V-8.453h1.9ZM37.25-10.648a1.008,1.008,0,0,1,.277-.727,1.048,1.048,0,0,1,.793-.289,1.061,1.061,0,0,1,.8.289,1,1,0,0,1,.281.727.977.977,0,0,1-.281.715,1.069,1.069,0,0,1-.8.285,1.056,1.056,0,0,1-.793-.285A.984.984,0,0,1,37.25-10.648ZM46.383,0a2.93,2.93,0,0,1-.219-.789,2.955,2.955,0,0,1-2.219.945A2.982,2.982,0,0,1,41.867-.57a2.325,2.325,0,0,1-.8-1.8,2.4,2.4,0,0,1,1-2.074,4.865,4.865,0,0,1,2.871-.723H46.1v-.555a1.481,1.481,0,0,0-.367-1.051,1.456,1.456,0,0,0-1.117-.395,1.672,1.672,0,0,0-1.062.324,1,1,0,0,0-.414.824h-1.9a2.107,2.107,0,0,1,.461-1.3,3.071,3.071,0,0,1,1.254-.949,4.4,4.4,0,0,1,1.77-.344,3.547,3.547,0,0,1,2.367.746A2.661,2.661,0,0,1,48-5.766v3.813a4.321,4.321,0,0,0,.32,1.82V0ZM44.3-1.367a2.16,2.16,0,0,0,1.059-.273,1.827,1.827,0,0,0,.746-.734V-3.969H45.078a2.8,2.8,0,0,0-1.586.367,1.189,1.189,0,0,0-.531,1.039,1.109,1.109,0,0,0,.363.871A1.407,1.407,0,0,0,44.3-1.367Z" transform="translate(185.054 309.789)"/>
    <path id="Trazado_634727" data-name="Trazado 634727" d="M7.8-5.078H3.133v3.5H8.594V0H1.156V-11.375H8.539v1.594H3.133v3.141H7.8ZM12.039,0h-1.9V-12h1.9Zm7.813-8.453.055.977a3.039,3.039,0,0,1,2.461-1.133q2.641,0,2.688,3.023V0h-1.9V-5.477a1.741,1.741,0,0,0-.348-1.191,1.462,1.462,0,0,0-1.137-.387,1.829,1.829,0,0,0-1.711,1.039V0h-1.9V-8.453ZM32.109-.828a2.944,2.944,0,0,1-2.375.984,2.624,2.624,0,0,1-2.082-.8,3.423,3.423,0,0,1-.707-2.328V-8.453h1.9V-3q0,1.609,1.336,1.609a1.876,1.876,0,0,0,1.867-.992v-6.07h1.9V0H32.156Zm5.555-7.625.055.883a3.042,3.042,0,0,1,2.438-1.039,2.337,2.337,0,0,1,2.32,1.3,3,3,0,0,1,2.594-1.3,2.636,2.636,0,0,1,2.082.773,3.405,3.405,0,0,1,.7,2.281V0h-1.9V-5.5A1.681,1.681,0,0,0,45.6-6.68a1.539,1.539,0,0,0-1.164-.375,1.581,1.581,0,0,0-1.059.348,1.833,1.833,0,0,0-.574.91L42.813,0h-1.9V-5.562a1.354,1.354,0,0,0-1.523-1.492,1.671,1.671,0,0,0-1.617.93V0h-1.9V-8.453ZM53.523.156A3.928,3.928,0,0,1,50.6-.98a4.124,4.124,0,0,1-1.121-3.027v-.234A5.072,5.072,0,0,1,49.965-6.5a3.716,3.716,0,0,1,1.371-1.551A3.625,3.625,0,0,1,53.3-8.609a3.318,3.318,0,0,1,2.668,1.1,4.658,4.658,0,0,1,.941,3.117v.766H51.391a2.539,2.539,0,0,0,.7,1.656,2.1,2.1,0,0,0,1.543.609,2.571,2.571,0,0,0,2.125-1.055l1.023.977A3.418,3.418,0,0,1,55.426-.262,4.244,4.244,0,0,1,53.523.156ZM53.3-7.086a1.6,1.6,0,0,0-1.262.547,2.835,2.835,0,0,0-.613,1.523h3.617v-.141A2.307,2.307,0,0,0,54.531-6.6,1.586,1.586,0,0,0,53.3-7.086Zm9.516.367a4.7,4.7,0,0,0-.773-.062,1.741,1.741,0,0,0-1.758,1V0h-1.9V-8.453H60.2l.047.945a2.139,2.139,0,0,1,1.906-1.1,1.777,1.777,0,0,1,.672.109ZM68.6,0a2.93,2.93,0,0,1-.219-.789,2.955,2.955,0,0,1-2.219.945A2.982,2.982,0,0,1,64.089-.57a2.325,2.325,0,0,1-.8-1.8,2.4,2.4,0,0,1,1-2.074,4.865,4.865,0,0,1,2.871-.723h1.164v-.555a1.481,1.481,0,0,0-.367-1.051,1.456,1.456,0,0,0-1.117-.395,1.672,1.672,0,0,0-1.062.324,1,1,0,0,0-.414.824h-1.9a2.107,2.107,0,0,1,.461-1.3,3.071,3.071,0,0,1,1.254-.949,4.4,4.4,0,0,1,1.77-.344,3.547,3.547,0,0,1,2.367.746,2.661,2.661,0,0,1,.906,2.1v3.813a4.321,4.321,0,0,0,.32,1.82V0ZM66.518-1.367a2.159,2.159,0,0,0,1.059-.273,1.827,1.827,0,0,0,.746-.734V-3.969H67.3a2.8,2.8,0,0,0-1.586.367,1.189,1.189,0,0,0-.531,1.039,1.109,1.109,0,0,0,.363.871A1.407,1.407,0,0,0,66.518-1.367Zm5.336-2.922a5.026,5.026,0,0,1,.906-3.137,2.9,2.9,0,0,1,2.43-1.184,2.759,2.759,0,0,1,2.172.938V-12h1.9V0H77.542l-.094-.875A2.8,2.8,0,0,1,75.174.156a2.887,2.887,0,0,1-2.4-1.2A5.21,5.21,0,0,1,71.854-4.289Zm1.9.164a3.519,3.519,0,0,0,.5,2.012,1.61,1.61,0,0,0,1.41.723,1.793,1.793,0,0,0,1.7-1.039V-6.039a1.766,1.766,0,0,0-1.687-1.016,1.622,1.622,0,0,0-1.422.73A3.918,3.918,0,0,0,73.753-4.125Zm7.133-.18a4.984,4.984,0,0,1,.492-2.238A3.6,3.6,0,0,1,82.76-8.074a3.9,3.9,0,0,1,2.047-.535,3.692,3.692,0,0,1,2.777,1.1,4.333,4.333,0,0,1,1.152,2.922l.008.445a5.029,5.029,0,0,1-.48,2.234A3.551,3.551,0,0,1,86.889-.383a3.925,3.925,0,0,1-2.066.539A3.667,3.667,0,0,1,81.96-1.035a4.563,4.563,0,0,1-1.074-3.176Zm1.9.164A3.406,3.406,0,0,0,83.323-2.1a1.752,1.752,0,0,0,1.5.738,1.733,1.733,0,0,0,1.5-.75,3.762,3.762,0,0,0,.535-2.2A3.362,3.362,0,0,0,86.3-6.336a1.759,1.759,0,0,0-1.5-.75,1.743,1.743,0,0,0-1.477.738A3.691,3.691,0,0,0,82.784-4.141ZM94.776-6.719A4.7,4.7,0,0,0,94-6.781a1.741,1.741,0,0,0-1.758,1V0h-1.9V-8.453h1.813l.047.945a2.139,2.139,0,0,1,1.906-1.1,1.777,1.777,0,0,1,.672.109Z" transform="translate(262.071 159.045)"/>
    <path id="Trazado_634728" data-name="Trazado 634728" d="M3.047-6.555H4.2A2.069,2.069,0,0,0,5.59-7.008,1.617,1.617,0,0,0,6.1-8.3a1.762,1.762,0,0,0-.426-1.262,1.714,1.714,0,0,0-1.3-.449,1.813,1.813,0,0,0-1.258.441,1.475,1.475,0,0,0-.492,1.152H.727a2.874,2.874,0,0,1,.465-1.594,3.123,3.123,0,0,1,1.3-1.121,4.225,4.225,0,0,1,1.863-.4,3.912,3.912,0,0,1,2.676.855A3,3,0,0,1,8-8.3a2.417,2.417,0,0,1-.488,1.441A3.062,3.062,0,0,1,6.25-5.836,2.791,2.791,0,0,1,7.676-4.828a2.759,2.759,0,0,1,.488,1.641A3.055,3.055,0,0,1,7.113-.75,4.08,4.08,0,0,1,4.352.156,4.049,4.049,0,0,1,1.664-.719,2.882,2.882,0,0,1,.617-3.047h1.9a1.588,1.588,0,0,0,.5,1.219,1.911,1.911,0,0,0,1.355.469,1.971,1.971,0,0,0,1.391-.469,1.758,1.758,0,0,0,.508-1.359A1.776,1.776,0,0,0,5.742-4.57a2.271,2.271,0,0,0-1.578-.484H3.047ZM16.07,0h-1.9V-8.453h1.9ZM14.055-10.648a1.008,1.008,0,0,1,.277-.727,1.048,1.048,0,0,1,.793-.289,1.061,1.061,0,0,1,.8.289,1,1,0,0,1,.281.727.977.977,0,0,1-.281.715,1.069,1.069,0,0,1-.8.285,1.056,1.056,0,0,1-.793-.285A.984.984,0,0,1,14.055-10.648Zm5.844,2.2.055.977a3.039,3.039,0,0,1,2.461-1.133q2.641,0,2.688,3.023V0H23.2V-5.477a1.741,1.741,0,0,0-.348-1.191,1.462,1.462,0,0,0-1.137-.387,1.829,1.829,0,0,0-1.711,1.039V0h-1.9V-8.453ZM26.68-4.289a5.026,5.026,0,0,1,.906-3.137,2.9,2.9,0,0,1,2.43-1.184,2.759,2.759,0,0,1,2.172.938V-12h1.9V0H32.367l-.094-.875A2.8,2.8,0,0,1,30,.156a2.887,2.887,0,0,1-2.4-1.2A5.21,5.21,0,0,1,26.68-4.289Zm1.9.164a3.519,3.519,0,0,0,.5,2.012,1.61,1.61,0,0,0,1.41.723,1.793,1.793,0,0,0,1.7-1.039V-6.039A1.766,1.766,0,0,0,30.5-7.055a1.622,1.622,0,0,0-1.422.73A3.918,3.918,0,0,0,28.578-4.125ZM38.086,0h-1.9V-8.453h1.9ZM36.07-10.648a1.008,1.008,0,0,1,.277-.727,1.048,1.048,0,0,1,.793-.289,1.061,1.061,0,0,1,.8.289,1,1,0,0,1,.281.727.977.977,0,0,1-.281.715,1.069,1.069,0,0,1-.8.285,1.056,1.056,0,0,1-.793-.285A.984.984,0,0,1,36.07-10.648Zm7.555,9.289a1.716,1.716,0,0,0,1.18-.414A1.415,1.415,0,0,0,45.3-2.8h1.789A2.789,2.789,0,0,1,46.6-1.324a3.228,3.228,0,0,1-1.25,1.082,3.725,3.725,0,0,1-1.7.4A3.6,3.6,0,0,1,40.836-.992,4.555,4.555,0,0,1,39.8-4.164v-.2a4.479,4.479,0,0,1,1.031-3.09,3.571,3.571,0,0,1,2.813-1.16A3.473,3.473,0,0,1,46.1-7.73a3.148,3.148,0,0,1,1,2.309H45.3a1.738,1.738,0,0,0-.5-1.2,1.6,1.6,0,0,0-1.184-.469,1.671,1.671,0,0,0-1.422.668A3.408,3.408,0,0,0,41.7-4.391v.3a3.465,3.465,0,0,0,.5,2.051A1.669,1.669,0,0,0,43.625-1.359ZM53.578,0a2.93,2.93,0,0,1-.219-.789,2.955,2.955,0,0,1-2.219.945A2.982,2.982,0,0,1,49.063-.57a2.325,2.325,0,0,1-.8-1.8,2.4,2.4,0,0,1,1-2.074,4.865,4.865,0,0,1,2.871-.723H53.3v-.555A1.481,1.481,0,0,0,52.93-6.77a1.456,1.456,0,0,0-1.117-.395,1.672,1.672,0,0,0-1.062.324,1,1,0,0,0-.414.824h-1.9a2.107,2.107,0,0,1,.461-1.3,3.071,3.071,0,0,1,1.254-.949,4.4,4.4,0,0,1,1.77-.344,3.547,3.547,0,0,1,2.367.746,2.661,2.661,0,0,1,.906,2.1v3.813a4.321,4.321,0,0,0,.32,1.82V0ZM51.492-1.367a2.16,2.16,0,0,0,1.059-.273,1.827,1.827,0,0,0,.746-.734V-3.969H52.273a2.8,2.8,0,0,0-1.586.367,1.189,1.189,0,0,0-.531,1.039,1.109,1.109,0,0,0,.363.871A1.407,1.407,0,0,0,51.492-1.367Zm9.32-2.93a5,5,0,0,1,.906-3.148,2.945,2.945,0,0,1,2.453-1.164,2.768,2.768,0,0,1,2.242.992l.109-.836h1.688V3.25h-1.9V-.719a2.834,2.834,0,0,1-2.156.875,2.917,2.917,0,0,1-2.43-1.184A5.23,5.23,0,0,1,60.813-4.3Zm1.9.164A3.528,3.528,0,0,0,63.223-2.1a1.631,1.631,0,0,0,1.418.738,1.8,1.8,0,0,0,1.672-.961V-6.164a1.8,1.8,0,0,0-1.656-.922,1.659,1.659,0,0,0-1.426.727A3.849,3.849,0,0,0,62.711-4.133Zm12.664,3.3A2.944,2.944,0,0,1,73,.156a2.624,2.624,0,0,1-2.082-.8,3.423,3.423,0,0,1-.707-2.328V-8.453h1.9V-3q0,1.609,1.336,1.609a1.876,1.876,0,0,0,1.867-.992v-6.07h1.9V0H75.422Zm7.492.984A3.928,3.928,0,0,1,79.941-.98,4.124,4.124,0,0,1,78.82-4.008v-.234A5.072,5.072,0,0,1,79.309-6.5,3.716,3.716,0,0,1,80.68-8.055a3.625,3.625,0,0,1,1.969-.555,3.318,3.318,0,0,1,2.668,1.1,4.658,4.658,0,0,1,.941,3.117v.766H80.734a2.539,2.539,0,0,0,.7,1.656,2.1,2.1,0,0,0,1.543.609A2.571,2.571,0,0,0,85.1-2.414l1.023.977A3.418,3.418,0,0,1,84.77-.262,4.244,4.244,0,0,1,82.867.156Zm-.227-7.242a1.6,1.6,0,0,0-1.262.547,2.835,2.835,0,0,0-.613,1.523h3.617v-.141A2.307,2.307,0,0,0,83.875-6.6,1.586,1.586,0,0,0,82.641-7.086Zm11.453-3.422v2.055h1.492v1.406H94.094v4.719a1.039,1.039,0,0,0,.191.7.888.888,0,0,0,.684.215,2.924,2.924,0,0,0,.664-.078V-.023a4.676,4.676,0,0,1-1.25.18Q92.2.156,92.2-2.258V-7.047H90.8V-8.453H92.2v-2.055ZM99.055,0h-1.9V-8.453h1.9ZM97.039-10.648a1.008,1.008,0,0,1,.277-.727,1.048,1.048,0,0,1,.793-.289,1.061,1.061,0,0,1,.8.289,1,1,0,0,1,.281.727.977.977,0,0,1-.281.715,1.069,1.069,0,0,1-.8.285,1.056,1.056,0,0,1-.793-.285A.984.984,0,0,1,97.039-10.648Zm7.8,10.8A3.928,3.928,0,0,1,101.918-.98,4.124,4.124,0,0,1,100.8-4.008v-.234a5.072,5.072,0,0,1,.488-2.262,3.716,3.716,0,0,1,1.371-1.551,3.625,3.625,0,0,1,1.969-.555,3.318,3.318,0,0,1,2.668,1.1,4.658,4.658,0,0,1,.941,3.117v.766h-5.523a2.539,2.539,0,0,0,.7,1.656,2.1,2.1,0,0,0,1.543.609,2.571,2.571,0,0,0,2.125-1.055l1.023.977a3.418,3.418,0,0,1-1.355,1.176A4.244,4.244,0,0,1,104.844.156Zm-.227-7.242a1.6,1.6,0,0,0-1.262.547,2.835,2.835,0,0,0-.613,1.523h3.617v-.141a2.307,2.307,0,0,0-.508-1.441A1.586,1.586,0,0,0,104.617-7.086Zm6.852-1.367.055.977a3.039,3.039,0,0,1,2.461-1.133q2.641,0,2.688,3.023V0h-1.9V-5.477a1.741,1.741,0,0,0-.348-1.191,1.462,1.462,0,0,0-1.137-.387,1.829,1.829,0,0,0-1.711,1.039V0h-1.9V-8.453ZM122.328.156A3.928,3.928,0,0,1,119.4-.98a4.124,4.124,0,0,1-1.121-3.027v-.234A5.072,5.072,0,0,1,118.77-6.5a3.716,3.716,0,0,1,1.371-1.551,3.625,3.625,0,0,1,1.969-.555,3.318,3.318,0,0,1,2.668,1.1,4.658,4.658,0,0,1,.941,3.117v.766H120.2a2.539,2.539,0,0,0,.7,1.656,2.1,2.1,0,0,0,1.543.609,2.571,2.571,0,0,0,2.125-1.055l1.023.977A3.418,3.418,0,0,1,124.23-.262,4.244,4.244,0,0,1,122.328.156ZM122.1-7.086a1.6,1.6,0,0,0-1.262.547,2.835,2.835,0,0,0-.613,1.523h3.617v-.141a2.307,2.307,0,0,0-.508-1.441A1.586,1.586,0,0,0,122.1-7.086Z" transform="translate(245.56 179.492)"/>
    <path id="Trazado_634729" data-name="Trazado 634729" d="M3.047-6.555H4.2A2.069,2.069,0,0,0,5.59-7.008,1.617,1.617,0,0,0,6.1-8.3a1.762,1.762,0,0,0-.426-1.262,1.714,1.714,0,0,0-1.3-.449,1.813,1.813,0,0,0-1.258.441,1.475,1.475,0,0,0-.492,1.152H.727a2.874,2.874,0,0,1,.465-1.594,3.123,3.123,0,0,1,1.3-1.121,4.225,4.225,0,0,1,1.863-.4,3.912,3.912,0,0,1,2.676.855A3,3,0,0,1,8-8.3a2.417,2.417,0,0,1-.488,1.441A3.062,3.062,0,0,1,6.25-5.836,2.791,2.791,0,0,1,7.676-4.828a2.759,2.759,0,0,1,.488,1.641A3.055,3.055,0,0,1,7.113-.75,4.08,4.08,0,0,1,4.352.156,4.049,4.049,0,0,1,1.664-.719,2.882,2.882,0,0,1,.617-3.047h1.9a1.588,1.588,0,0,0,.5,1.219,1.911,1.911,0,0,0,1.355.469,1.971,1.971,0,0,0,1.391-.469,1.758,1.758,0,0,0,.508-1.359A1.776,1.776,0,0,0,5.742-4.57a2.271,2.271,0,0,0-1.578-.484H3.047ZM21.453-4.141a5.033,5.033,0,0,1-.891,3.129A2.852,2.852,0,0,1,18.172.156a2.871,2.871,0,0,1-2.227-.914V3.25h-1.9v-11.7H15.8l.078.859a2.788,2.788,0,0,1,2.273-1.016,2.881,2.881,0,0,1,2.426,1.152,5.167,5.167,0,0,1,.879,3.2ZM19.563-4.3a3.526,3.526,0,0,0-.5-2.008,1.638,1.638,0,0,0-1.441-.742,1.747,1.747,0,0,0-1.672.961v3.75a1.763,1.763,0,0,0,1.688.984,1.636,1.636,0,0,0,1.418-.73A3.881,3.881,0,0,0,19.563-4.3ZM28.109,0a2.93,2.93,0,0,1-.219-.789,2.955,2.955,0,0,1-2.219.945A2.982,2.982,0,0,1,23.594-.57a2.325,2.325,0,0,1-.8-1.8,2.4,2.4,0,0,1,1-2.074,4.865,4.865,0,0,1,2.871-.723h1.164v-.555a1.481,1.481,0,0,0-.367-1.051,1.456,1.456,0,0,0-1.117-.395,1.672,1.672,0,0,0-1.062.324,1,1,0,0,0-.414.824h-1.9a2.107,2.107,0,0,1,.461-1.3,3.071,3.071,0,0,1,1.254-.949,4.4,4.4,0,0,1,1.77-.344,3.547,3.547,0,0,1,2.367.746,2.661,2.661,0,0,1,.906,2.1v3.813a4.321,4.321,0,0,0,.32,1.82V0ZM26.023-1.367a2.159,2.159,0,0,0,1.059-.273,1.827,1.827,0,0,0,.746-.734V-3.969H26.8a2.8,2.8,0,0,0-1.586.367,1.189,1.189,0,0,0-.531,1.039,1.109,1.109,0,0,0,.363.871A1.407,1.407,0,0,0,26.023-1.367ZM36.141-6.719a4.7,4.7,0,0,0-.773-.062,1.741,1.741,0,0,0-1.758,1V0h-1.9V-8.453h1.813l.047.945a2.139,2.139,0,0,1,1.906-1.1,1.777,1.777,0,0,1,.672.109Zm4.353-3.789v2.055h1.492v1.406H40.493v4.719a1.039,1.039,0,0,0,.191.7.888.888,0,0,0,.684.215,2.924,2.924,0,0,0,.664-.078V-.023a4.676,4.676,0,0,1-1.25.18q-2.187,0-2.187-2.414V-7.047H37.2V-8.453h1.391v-2.055ZM47.157.156A3.928,3.928,0,0,1,44.232-.98a4.124,4.124,0,0,1-1.121-3.027v-.234A5.072,5.072,0,0,1,43.6-6.5,3.716,3.716,0,0,1,44.97-8.055a3.625,3.625,0,0,1,1.969-.555,3.318,3.318,0,0,1,2.668,1.1,4.658,4.658,0,0,1,.941,3.117v.766H45.025a2.539,2.539,0,0,0,.7,1.656,2.1,2.1,0,0,0,1.543.609,2.571,2.571,0,0,0,2.125-1.055l1.023.977A3.418,3.418,0,0,1,49.06-.262,4.244,4.244,0,0,1,47.157.156Zm-.227-7.242a1.6,1.6,0,0,0-1.262.547,2.835,2.835,0,0,0-.613,1.523h3.617v-.141A2.307,2.307,0,0,0,48.165-6.6,1.586,1.586,0,0,0,46.931-7.086ZM56.759-2.3a.861.861,0,0,0-.418-.773,4.445,4.445,0,0,0-1.387-.469,7.129,7.129,0,0,1-1.617-.516,2.158,2.158,0,0,1-1.422-1.992,2.25,2.25,0,0,1,.922-1.828,3.644,3.644,0,0,1,2.344-.734,3.792,3.792,0,0,1,2.449.75,2.38,2.38,0,0,1,.934,1.945h-1.9a1.17,1.17,0,0,0-.406-.91,1.557,1.557,0,0,0-1.078-.363,1.682,1.682,0,0,0-1.02.289.911.911,0,0,0-.395.773.769.769,0,0,0,.367.68,5.049,5.049,0,0,0,1.484.488,7.027,7.027,0,0,1,1.754.586,2.484,2.484,0,0,1,.945.816A2.082,2.082,0,0,1,58.626-2.4a2.2,2.2,0,0,1-.945,1.848A4.031,4.031,0,0,1,55.2.156a4.371,4.371,0,0,1-1.852-.375A3.047,3.047,0,0,1,52.087-1.25a2.441,2.441,0,0,1-.453-1.414h1.844a1.338,1.338,0,0,0,.508,1.035,1.973,1.973,0,0,0,1.242.363,1.92,1.92,0,0,0,1.141-.285A.883.883,0,0,0,56.759-2.3ZM63.907-4.3A4.984,4.984,0,0,1,64.4-6.543a3.6,3.6,0,0,1,1.383-1.531,3.9,3.9,0,0,1,2.047-.535,3.692,3.692,0,0,1,2.777,1.1,4.333,4.333,0,0,1,1.152,2.922l.008.445a5.029,5.029,0,0,1-.48,2.234A3.551,3.551,0,0,1,69.911-.383a3.925,3.925,0,0,1-2.066.539,3.667,3.667,0,0,1-2.863-1.191,4.563,4.563,0,0,1-1.074-3.176Zm1.9.164A3.406,3.406,0,0,0,66.345-2.1a1.752,1.752,0,0,0,1.5.738,1.733,1.733,0,0,0,1.5-.75,3.762,3.762,0,0,0,.535-2.2,3.362,3.362,0,0,0-.551-2.031,1.759,1.759,0,0,0-1.5-.75,1.743,1.743,0,0,0-1.477.738A3.691,3.691,0,0,0,65.806-4.141Z" transform="translate(274.424 199.939)"/>
    <path id="Trazado_634730" data-name="Trazado 634730" d="M3.352-10.508v2.055H4.844v1.406H3.352v4.719a1.039,1.039,0,0,0,.191.7.888.888,0,0,0,.684.215,2.924,2.924,0,0,0,.664-.078V-.023a4.676,4.676,0,0,1-1.25.18q-2.188,0-2.187-2.414V-7.047H.063V-8.453H1.453v-2.055ZM8.313,0h-1.9V-8.453h1.9ZM6.3-10.648a1.008,1.008,0,0,1,.277-.727,1.048,1.048,0,0,1,.793-.289,1.061,1.061,0,0,1,.8.289,1,1,0,0,1,.281.727.977.977,0,0,1-.281.715,1.069,1.069,0,0,1-.8.285,1.056,1.056,0,0,1-.793-.285A.984.984,0,0,1,6.3-10.648ZM14.1.156A3.928,3.928,0,0,1,11.176-.98a4.124,4.124,0,0,1-1.121-3.027v-.234A5.072,5.072,0,0,1,10.543-6.5a3.716,3.716,0,0,1,1.371-1.551,3.625,3.625,0,0,1,1.969-.555,3.318,3.318,0,0,1,2.668,1.1,4.658,4.658,0,0,1,.941,3.117v.766H11.969a2.539,2.539,0,0,0,.7,1.656,2.1,2.1,0,0,0,1.543.609,2.571,2.571,0,0,0,2.125-1.055l1.023.977A3.418,3.418,0,0,1,16-.262,4.244,4.244,0,0,1,14.1.156Zm-.227-7.242a1.6,1.6,0,0,0-1.262.547A2.835,2.835,0,0,0,12-5.016h3.617v-.141A2.307,2.307,0,0,0,15.109-6.6,1.586,1.586,0,0,0,13.875-7.086ZM20.75-8.453l.055.883a3.042,3.042,0,0,1,2.438-1.039,2.337,2.337,0,0,1,2.32,1.3,3,3,0,0,1,2.594-1.3,2.636,2.636,0,0,1,2.082.773,3.405,3.405,0,0,1,.7,2.281V0h-1.9V-5.5a1.681,1.681,0,0,0-.352-1.18,1.539,1.539,0,0,0-1.164-.375,1.581,1.581,0,0,0-1.059.348,1.833,1.833,0,0,0-.574.91L25.9,0H24V-5.562a1.354,1.354,0,0,0-1.523-1.492,1.671,1.671,0,0,0-1.617.93V0h-1.9V-8.453ZM40.289-4.141A5.033,5.033,0,0,1,39.4-1.012,2.852,2.852,0,0,1,37.008.156a2.871,2.871,0,0,1-2.227-.914V3.25h-1.9v-11.7h1.75l.078.859a2.788,2.788,0,0,1,2.273-1.016A2.881,2.881,0,0,1,39.41-7.457a5.167,5.167,0,0,1,.879,3.2ZM38.4-4.3a3.526,3.526,0,0,0-.5-2.008,1.638,1.638,0,0,0-1.441-.742,1.747,1.747,0,0,0-1.672.961v3.75a1.763,1.763,0,0,0,1.688.984,1.636,1.636,0,0,0,1.418-.73A3.881,3.881,0,0,0,38.4-4.3Zm3.141,0a4.984,4.984,0,0,1,.492-2.238,3.6,3.6,0,0,1,1.383-1.531,3.9,3.9,0,0,1,2.047-.535,3.692,3.692,0,0,1,2.777,1.1,4.333,4.333,0,0,1,1.152,2.922l.008.445a5.029,5.029,0,0,1-.48,2.234A3.551,3.551,0,0,1,47.543-.383a3.925,3.925,0,0,1-2.066.539,3.667,3.667,0,0,1-2.863-1.191,4.563,4.563,0,0,1-1.074-3.176Zm1.9.164A3.406,3.406,0,0,0,43.977-2.1a1.752,1.752,0,0,0,1.5.738,1.733,1.733,0,0,0,1.5-.75,3.762,3.762,0,0,0,.535-2.2,3.362,3.362,0,0,0-.551-2.031,1.759,1.759,0,0,0-1.5-.75,1.743,1.743,0,0,0-1.477.738A3.691,3.691,0,0,0,43.438-4.141ZM55.742-2.3a.861.861,0,0,0-.418-.773,4.445,4.445,0,0,0-1.387-.469,7.129,7.129,0,0,1-1.617-.516A2.158,2.158,0,0,1,50.9-6.047a2.25,2.25,0,0,1,.922-1.828,3.644,3.644,0,0,1,2.344-.734,3.792,3.792,0,0,1,2.449.75,2.38,2.38,0,0,1,.934,1.945h-1.9a1.17,1.17,0,0,0-.406-.91,1.557,1.557,0,0,0-1.078-.363,1.682,1.682,0,0,0-1.02.289.911.911,0,0,0-.395.773.769.769,0,0,0,.367.68,5.049,5.049,0,0,0,1.484.488,7.027,7.027,0,0,1,1.754.586,2.484,2.484,0,0,1,.945.816A2.082,2.082,0,0,1,57.609-2.4a2.2,2.2,0,0,1-.945,1.848,4.031,4.031,0,0,1-2.477.707,4.371,4.371,0,0,1-1.852-.375A3.047,3.047,0,0,1,51.07-1.25a2.441,2.441,0,0,1-.453-1.414h1.844a1.338,1.338,0,0,0,.508,1.035,1.973,1.973,0,0,0,1.242.363,1.92,1.92,0,0,0,1.141-.285A.883.883,0,0,0,55.742-2.3Z" transform="translate(279.56 220.387)"/>
    <path id="Trazado_634731" data-name="Trazado 634731" d="M7.8-5.078H3.133v3.5H8.594V0H1.156V-11.375H8.539v1.594H3.133v3.141H7.8ZM12.039,0h-1.9V-12h1.9Z" transform="translate(716.21 138.428)"/>
    <path id="Trazado_634732" data-name="Trazado 634732" d="M.617-4.289a5.026,5.026,0,0,1,.906-3.137,2.9,2.9,0,0,1,2.43-1.184,2.759,2.759,0,0,1,2.172.938V-12h1.9V0H6.3L6.211-.875A2.8,2.8,0,0,1,3.938.156a2.887,2.887,0,0,1-2.4-1.2A5.21,5.21,0,0,1,.617-4.289Zm1.9.164a3.519,3.519,0,0,0,.5,2.012,1.61,1.61,0,0,0,1.41.723,1.793,1.793,0,0,0,1.7-1.039V-6.039A1.766,1.766,0,0,0,4.438-7.055a1.622,1.622,0,0,0-1.422.73A3.918,3.918,0,0,0,2.516-4.125ZM13.727.156A3.928,3.928,0,0,1,10.8-.98,4.124,4.124,0,0,1,9.68-4.008v-.234A5.072,5.072,0,0,1,10.168-6.5a3.716,3.716,0,0,1,1.371-1.551,3.625,3.625,0,0,1,1.969-.555,3.318,3.318,0,0,1,2.668,1.1,4.658,4.658,0,0,1,.941,3.117v.766H11.594a2.539,2.539,0,0,0,.7,1.656,2.1,2.1,0,0,0,1.543.609,2.571,2.571,0,0,0,2.125-1.055l1.023.977A3.418,3.418,0,0,1,15.629-.262,4.244,4.244,0,0,1,13.727.156ZM13.5-7.086a1.6,1.6,0,0,0-1.262.547,2.835,2.835,0,0,0-.613,1.523h3.617v-.141A2.307,2.307,0,0,0,14.734-6.6,1.586,1.586,0,0,0,13.5-7.086Zm6.852-1.367.055.977a3.039,3.039,0,0,1,2.461-1.133q2.641,0,2.688,3.023V0h-1.9V-5.477a1.741,1.741,0,0,0-.348-1.191,1.462,1.462,0,0,0-1.137-.387,1.829,1.829,0,0,0-1.711,1.039V0h-1.9V-8.453ZM27.133-4.3a4.984,4.984,0,0,1,.492-2.238,3.6,3.6,0,0,1,1.383-1.531,3.9,3.9,0,0,1,2.047-.535,3.692,3.692,0,0,1,2.777,1.1,4.333,4.333,0,0,1,1.152,2.922l.008.445a5.029,5.029,0,0,1-.48,2.234A3.551,3.551,0,0,1,33.137-.383,3.925,3.925,0,0,1,31.07.156a3.667,3.667,0,0,1-2.863-1.191,4.563,4.563,0,0,1-1.074-3.176Zm1.9.164A3.406,3.406,0,0,0,29.57-2.1a1.752,1.752,0,0,0,1.5.738,1.733,1.733,0,0,0,1.5-.75A3.762,3.762,0,0,0,33.1-4.3a3.362,3.362,0,0,0-.551-2.031,1.759,1.759,0,0,0-1.5-.75,1.743,1.743,0,0,0-1.477.738A3.691,3.691,0,0,0,29.031-4.141Zm9.352-4.312.055.883a3.042,3.042,0,0,1,2.438-1.039,2.337,2.337,0,0,1,2.32,1.3,3,3,0,0,1,2.594-1.3,2.636,2.636,0,0,1,2.082.773,3.405,3.405,0,0,1,.7,2.281V0h-1.9V-5.5a1.681,1.681,0,0,0-.352-1.18,1.539,1.539,0,0,0-1.164-.375,1.581,1.581,0,0,0-1.059.348,1.833,1.833,0,0,0-.574.91L43.531,0h-1.9V-5.562a1.354,1.354,0,0,0-1.523-1.492,1.671,1.671,0,0,0-1.617.93V0h-1.9V-8.453ZM52.539,0h-1.9V-8.453h1.9ZM50.523-10.648a1.008,1.008,0,0,1,.277-.727,1.048,1.048,0,0,1,.793-.289,1.061,1.061,0,0,1,.8.289,1,1,0,0,1,.281.727.977.977,0,0,1-.281.715,1.069,1.069,0,0,1-.8.285,1.056,1.056,0,0,1-.793-.285A.984.984,0,0,1,50.523-10.648Zm5.844,2.2.055.977a3.039,3.039,0,0,1,2.461-1.133q2.641,0,2.688,3.023V0h-1.9V-5.477a1.741,1.741,0,0,0-.348-1.191,1.462,1.462,0,0,0-1.137-.387,1.829,1.829,0,0,0-1.711,1.039V0h-1.9V-8.453ZM68.555,0a2.93,2.93,0,0,1-.219-.789,2.955,2.955,0,0,1-2.219.945A2.982,2.982,0,0,1,64.039-.57a2.325,2.325,0,0,1-.8-1.8,2.4,2.4,0,0,1,1-2.074,4.865,4.865,0,0,1,2.871-.723h1.164v-.555a1.481,1.481,0,0,0-.367-1.051,1.456,1.456,0,0,0-1.117-.395,1.672,1.672,0,0,0-1.062.324,1,1,0,0,0-.414.824h-1.9a2.107,2.107,0,0,1,.461-1.3,3.071,3.071,0,0,1,1.254-.949,4.4,4.4,0,0,1,1.77-.344,3.547,3.547,0,0,1,2.367.746,2.661,2.661,0,0,1,.906,2.1v3.813a4.321,4.321,0,0,0,.32,1.82V0ZM66.469-1.367a2.159,2.159,0,0,0,1.059-.273,1.827,1.827,0,0,0,.746-.734V-3.969H67.25a2.8,2.8,0,0,0-1.586.367,1.189,1.189,0,0,0-.531,1.039,1.109,1.109,0,0,0,.363.871A1.407,1.407,0,0,0,66.469-1.367ZM71.8-4.289a5.026,5.026,0,0,1,.906-3.137,2.9,2.9,0,0,1,2.43-1.184,2.759,2.759,0,0,1,2.172.938V-12h1.9V0H77.492L77.4-.875A2.8,2.8,0,0,1,75.125.156a2.887,2.887,0,0,1-2.4-1.2A5.21,5.21,0,0,1,71.8-4.289Zm1.9.164a3.519,3.519,0,0,0,.5,2.012,1.61,1.61,0,0,0,1.41.723,1.793,1.793,0,0,0,1.7-1.039V-6.039a1.766,1.766,0,0,0-1.687-1.016,1.622,1.622,0,0,0-1.422.73A3.918,3.918,0,0,0,73.7-4.125Zm7.133-.18a4.984,4.984,0,0,1,.492-2.238,3.6,3.6,0,0,1,1.383-1.531,3.9,3.9,0,0,1,2.047-.535,3.692,3.692,0,0,1,2.777,1.1,4.333,4.333,0,0,1,1.152,2.922l.008.445a5.029,5.029,0,0,1-.48,2.234A3.551,3.551,0,0,1,86.84-.383a3.925,3.925,0,0,1-2.066.539A3.667,3.667,0,0,1,81.91-1.035a4.563,4.563,0,0,1-1.074-3.176Zm1.9.164A3.406,3.406,0,0,0,83.273-2.1a1.752,1.752,0,0,0,1.5.738,1.733,1.733,0,0,0,1.5-.75A3.762,3.762,0,0,0,86.8-4.3a3.362,3.362,0,0,0-.551-2.031,1.759,1.759,0,0,0-1.5-.75,1.743,1.743,0,0,0-1.477.738A3.691,3.691,0,0,0,82.734-4.141ZM94.727-6.719a4.7,4.7,0,0,0-.773-.062,1.741,1.741,0,0,0-1.758,1V0H90.3V-8.453h1.813l.047.945a2.139,2.139,0,0,1,1.906-1.1,1.777,1.777,0,0,1,.672.109Z" transform="translate(672.642 158.875)"/>
    <path id="Trazado_634733" data-name="Trazado 634733" d="M11.258-4.055h1.414v1.523H11.258V0h-1.9V-2.531H4.445L4.391-3.687,9.3-11.375h1.961Zm-4.875,0H9.359V-8.8l-.141.25ZM20.055,0h-1.9V-8.453h1.9ZM18.039-10.648a1.008,1.008,0,0,1,.277-.727,1.048,1.048,0,0,1,.793-.289,1.061,1.061,0,0,1,.8.289,1,1,0,0,1,.281.727.977.977,0,0,1-.281.715,1.069,1.069,0,0,1-.8.285,1.056,1.056,0,0,1-.793-.285A.984.984,0,0,1,18.039-10.648Zm5.844,2.2.055.977A3.039,3.039,0,0,1,26.4-8.609q2.641,0,2.688,3.023V0h-1.9V-5.477a1.741,1.741,0,0,0-.348-1.191A1.462,1.462,0,0,0,25.7-7.055a1.829,1.829,0,0,0-1.711,1.039V0h-1.9V-8.453Zm6.781,4.164a5.026,5.026,0,0,1,.906-3.137A2.9,2.9,0,0,1,34-8.609a2.759,2.759,0,0,1,2.172.938V-12h1.9V0H36.352l-.094-.875A2.8,2.8,0,0,1,33.984.156a2.887,2.887,0,0,1-2.4-1.2A5.21,5.21,0,0,1,30.664-4.289Zm1.9.164a3.519,3.519,0,0,0,.5,2.012,1.61,1.61,0,0,0,1.41.723,1.793,1.793,0,0,0,1.7-1.039V-6.039a1.766,1.766,0,0,0-1.687-1.016,1.622,1.622,0,0,0-1.422.73A3.919,3.919,0,0,0,32.563-4.125ZM42.07,0h-1.9V-8.453h1.9ZM40.055-10.648a1.008,1.008,0,0,1,.277-.727,1.048,1.048,0,0,1,.793-.289,1.061,1.061,0,0,1,.8.289,1,1,0,0,1,.281.727.977.977,0,0,1-.281.715,1.069,1.069,0,0,1-.8.285,1.056,1.056,0,0,1-.793-.285A.984.984,0,0,1,40.055-10.648Zm7.555,9.289a1.716,1.716,0,0,0,1.18-.414,1.415,1.415,0,0,0,.5-1.023h1.789a2.789,2.789,0,0,1-.492,1.473,3.228,3.228,0,0,1-1.25,1.082,3.725,3.725,0,0,1-1.7.4A3.6,3.6,0,0,1,44.82-.992a4.555,4.555,0,0,1-1.039-3.172v-.2a4.479,4.479,0,0,1,1.031-3.09,3.571,3.571,0,0,1,2.813-1.16,3.473,3.473,0,0,1,2.457.879,3.148,3.148,0,0,1,1,2.309H49.289a1.738,1.738,0,0,0-.5-1.2,1.6,1.6,0,0,0-1.184-.469,1.671,1.671,0,0,0-1.422.668,3.408,3.408,0,0,0-.508,2.027v.3a3.465,3.465,0,0,0,.5,2.051A1.669,1.669,0,0,0,47.609-1.359ZM57.563,0a2.93,2.93,0,0,1-.219-.789,2.955,2.955,0,0,1-2.219.945A2.982,2.982,0,0,1,53.047-.57a2.325,2.325,0,0,1-.8-1.8,2.4,2.4,0,0,1,1-2.074,4.865,4.865,0,0,1,2.871-.723h1.164v-.555a1.481,1.481,0,0,0-.367-1.051A1.456,1.456,0,0,0,55.8-7.164a1.672,1.672,0,0,0-1.062.324,1,1,0,0,0-.414.824h-1.9a2.107,2.107,0,0,1,.461-1.3,3.071,3.071,0,0,1,1.254-.949,4.4,4.4,0,0,1,1.77-.344,3.547,3.547,0,0,1,2.367.746,2.661,2.661,0,0,1,.906,2.1v3.813a4.321,4.321,0,0,0,.32,1.82V0ZM55.477-1.367a2.16,2.16,0,0,0,1.059-.273,1.827,1.827,0,0,0,.746-.734V-3.969H56.258a2.8,2.8,0,0,0-1.586.367,1.189,1.189,0,0,0-.531,1.039,1.109,1.109,0,0,0,.363.871A1.407,1.407,0,0,0,55.477-1.367ZM64.8-4.3A5,5,0,0,1,65.7-7.445a2.945,2.945,0,0,1,2.453-1.164,2.768,2.768,0,0,1,2.242.992l.109-.836H72.2V3.25H70.3V-.719a2.834,2.834,0,0,1-2.156.875,2.917,2.917,0,0,1-2.43-1.184A5.23,5.23,0,0,1,64.8-4.3Zm1.9.164A3.528,3.528,0,0,0,67.207-2.1a1.631,1.631,0,0,0,1.418.738A1.8,1.8,0,0,0,70.3-2.32V-6.164a1.8,1.8,0,0,0-1.656-.922,1.659,1.659,0,0,0-1.426.727A3.849,3.849,0,0,0,66.7-4.133Zm12.664,3.3a2.944,2.944,0,0,1-2.375.984,2.624,2.624,0,0,1-2.082-.8A3.423,3.423,0,0,1,74.2-2.977V-8.453h1.9V-3q0,1.609,1.336,1.609A1.876,1.876,0,0,0,79.3-2.383v-6.07h1.9V0H79.406Zm7.492.984A3.928,3.928,0,0,1,83.926-.98,4.124,4.124,0,0,1,82.8-4.008v-.234A5.072,5.072,0,0,1,83.293-6.5a3.716,3.716,0,0,1,1.371-1.551,3.625,3.625,0,0,1,1.969-.555,3.318,3.318,0,0,1,2.668,1.1,4.658,4.658,0,0,1,.941,3.117v.766H84.719a2.539,2.539,0,0,0,.7,1.656,2.1,2.1,0,0,0,1.543.609,2.571,2.571,0,0,0,2.125-1.055l1.023.977A3.418,3.418,0,0,1,88.754-.262,4.244,4.244,0,0,1,86.852.156Zm-.227-7.242a1.6,1.6,0,0,0-1.262.547,2.835,2.835,0,0,0-.613,1.523h3.617v-.141A2.307,2.307,0,0,0,87.859-6.6,1.586,1.586,0,0,0,86.625-7.086Z" transform="translate(674.89 179.321)"/>
    <path id="Trazado_634734" data-name="Trazado 634734" d="M4.7.156A3.928,3.928,0,0,1,1.77-.98,4.124,4.124,0,0,1,.648-4.008v-.234A5.072,5.072,0,0,1,1.137-6.5,3.716,3.716,0,0,1,2.508-8.055a3.625,3.625,0,0,1,1.969-.555,3.318,3.318,0,0,1,2.668,1.1,4.658,4.658,0,0,1,.941,3.117v.766H2.563a2.539,2.539,0,0,0,.7,1.656A2.1,2.1,0,0,0,4.8-1.359,2.571,2.571,0,0,0,6.93-2.414l1.023.977A3.418,3.418,0,0,1,6.6-.262,4.244,4.244,0,0,1,4.7.156ZM4.469-7.086a1.6,1.6,0,0,0-1.262.547,2.835,2.835,0,0,0-.613,1.523H6.211v-.141A2.307,2.307,0,0,0,5.7-6.6,1.586,1.586,0,0,0,4.469-7.086ZM11.32-8.453l.055.977a3.039,3.039,0,0,1,2.461-1.133q2.641,0,2.688,3.023V0h-1.9V-5.477a1.741,1.741,0,0,0-.348-1.191,1.462,1.462,0,0,0-1.137-.387A1.829,1.829,0,0,0,11.43-6.016V0h-1.9V-8.453Zm9.516-2.055v2.055h1.492v1.406H20.836v4.719a1.039,1.039,0,0,0,.191.7.888.888,0,0,0,.684.215,2.924,2.924,0,0,0,.664-.078V-.023a4.676,4.676,0,0,1-1.25.18q-2.188,0-2.187-2.414V-7.047H17.547V-8.453h1.391v-2.055ZM28.2-6.719a4.7,4.7,0,0,0-.773-.062,1.741,1.741,0,0,0-1.758,1V0h-1.9V-8.453h1.813l.047.945a2.139,2.139,0,0,1,1.906-1.1,1.777,1.777,0,0,1,.672.109ZM33.979,0a2.93,2.93,0,0,1-.219-.789,2.955,2.955,0,0,1-2.219.945A2.982,2.982,0,0,1,29.463-.57a2.325,2.325,0,0,1-.8-1.8,2.4,2.4,0,0,1,1-2.074,4.865,4.865,0,0,1,2.871-.723H33.7v-.555A1.481,1.481,0,0,0,33.33-6.77a1.456,1.456,0,0,0-1.117-.395,1.672,1.672,0,0,0-1.063.324,1,1,0,0,0-.414.824h-1.9a2.107,2.107,0,0,1,.461-1.3,3.071,3.071,0,0,1,1.254-.949,4.4,4.4,0,0,1,1.77-.344,3.547,3.547,0,0,1,2.367.746,2.661,2.661,0,0,1,.906,2.1v3.813a4.321,4.321,0,0,0,.32,1.82V0ZM31.893-1.367a2.16,2.16,0,0,0,1.059-.273,1.827,1.827,0,0,0,.746-.734V-3.969H32.674a2.8,2.8,0,0,0-1.586.367,1.189,1.189,0,0,0-.531,1.039,1.109,1.109,0,0,0,.363.871A1.407,1.407,0,0,0,31.893-1.367Zm14.8.539a2.944,2.944,0,0,1-2.375.984,2.624,2.624,0,0,1-2.082-.8,3.423,3.423,0,0,1-.707-2.328V-8.453h1.9V-3q0,1.609,1.336,1.609a1.876,1.876,0,0,0,1.867-.992v-6.07h1.9V0H46.737Zm5.531-7.625.055.977a3.039,3.039,0,0,1,2.461-1.133q2.641,0,2.688,3.023V0h-1.9V-5.477a1.741,1.741,0,0,0-.348-1.191,1.462,1.462,0,0,0-1.137-.387A1.829,1.829,0,0,0,52.33-6.016V0h-1.9V-8.453ZM64.408,0a2.93,2.93,0,0,1-.219-.789,2.955,2.955,0,0,1-2.219.945A2.982,2.982,0,0,1,59.893-.57a2.325,2.325,0,0,1-.8-1.8,2.4,2.4,0,0,1,1-2.074,4.865,4.865,0,0,1,2.871-.723h1.164v-.555A1.481,1.481,0,0,0,63.76-6.77a1.456,1.456,0,0,0-1.117-.395,1.672,1.672,0,0,0-1.062.324,1,1,0,0,0-.414.824h-1.9a2.107,2.107,0,0,1,.461-1.3,3.071,3.071,0,0,1,1.254-.949,4.4,4.4,0,0,1,1.77-.344,3.547,3.547,0,0,1,2.367.746,2.661,2.661,0,0,1,.906,2.1v3.813a4.321,4.321,0,0,0,.32,1.82V0ZM62.323-1.367a2.16,2.16,0,0,0,1.059-.273,1.827,1.827,0,0,0,.746-.734V-3.969H63.1a2.8,2.8,0,0,0-1.586.367,1.189,1.189,0,0,0-.531,1.039,1.109,1.109,0,0,0,.363.871A1.407,1.407,0,0,0,62.323-1.367Z" transform="translate(687.38 199.768)"/>
    <path id="Trazado_634735" data-name="Trazado 634735" d="M2.734-8.453l.055.977A3.039,3.039,0,0,1,5.25-8.609q2.641,0,2.688,3.023V0h-1.9V-5.477a1.741,1.741,0,0,0-.348-1.191,1.462,1.462,0,0,0-1.137-.387A1.829,1.829,0,0,0,2.844-6.016V0H.945V-8.453ZM13.594.156A3.928,3.928,0,0,1,10.668-.98,4.124,4.124,0,0,1,9.547-4.008v-.234A5.072,5.072,0,0,1,10.035-6.5a3.716,3.716,0,0,1,1.371-1.551,3.625,3.625,0,0,1,1.969-.555,3.318,3.318,0,0,1,2.668,1.1,4.658,4.658,0,0,1,.941,3.117v.766H11.461a2.539,2.539,0,0,0,.7,1.656,2.1,2.1,0,0,0,1.543.609,2.571,2.571,0,0,0,2.125-1.055l1.023.977A3.418,3.418,0,0,1,15.5-.262,4.244,4.244,0,0,1,13.594.156Zm-.227-7.242a1.6,1.6,0,0,0-1.262.547,2.835,2.835,0,0,0-.613,1.523h3.617v-.141A2.307,2.307,0,0,0,14.6-6.6,1.586,1.586,0,0,0,13.367-7.086Zm4.758,2.8a4.944,4.944,0,0,1,.926-3.145,2.971,2.971,0,0,1,2.457-1.176A2.784,2.784,0,0,1,23.781-7.6l.086-.852h1.711v8.2a3.406,3.406,0,0,1-1.035,2.625,3.943,3.943,0,0,1-2.793.961,4.5,4.5,0,0,1-1.816-.387A3.227,3.227,0,0,1,18.586,1.93l.9-1.141a2.713,2.713,0,0,0,2.156,1.039,2.1,2.1,0,0,0,1.492-.512,1.961,1.961,0,0,0,.547-1.5v-.57a2.8,2.8,0,0,1-2.187.914,2.964,2.964,0,0,1-2.426-1.18A5.1,5.1,0,0,1,18.125-4.289Zm1.891.164a3.4,3.4,0,0,0,.52,2,1.671,1.671,0,0,0,1.441.73,1.827,1.827,0,0,0,1.7-.984V-6.094a1.8,1.8,0,0,0-1.687-.961,1.677,1.677,0,0,0-1.457.742A3.811,3.811,0,0,0,20.016-4.125ZM31.953-6.719a4.7,4.7,0,0,0-.773-.062,1.741,1.741,0,0,0-1.758,1V0h-1.9V-8.453h1.813l.047.945a2.139,2.139,0,0,1,1.906-1.1,1.777,1.777,0,0,1,.672.109ZM37.745,0a2.93,2.93,0,0,1-.219-.789,2.955,2.955,0,0,1-2.219.945A2.982,2.982,0,0,1,33.229-.57a2.325,2.325,0,0,1-.8-1.8,2.4,2.4,0,0,1,1-2.074A4.865,4.865,0,0,1,36.3-5.164h1.164v-.555A1.481,1.481,0,0,0,37.1-6.77a1.456,1.456,0,0,0-1.117-.395,1.672,1.672,0,0,0-1.062.324,1,1,0,0,0-.414.824H32.6a2.107,2.107,0,0,1,.461-1.3,3.071,3.071,0,0,1,1.254-.949,4.4,4.4,0,0,1,1.77-.344,3.547,3.547,0,0,1,2.367.746,2.661,2.661,0,0,1,.906,2.1v3.813a4.321,4.321,0,0,0,.32,1.82V0ZM35.659-1.367a2.16,2.16,0,0,0,1.059-.273,1.827,1.827,0,0,0,.746-.734V-3.969H36.44a2.8,2.8,0,0,0-1.586.367,1.189,1.189,0,0,0-.531,1.039,1.109,1.109,0,0,0,.363.871A1.407,1.407,0,0,0,35.659-1.367ZM49.057.156A3.928,3.928,0,0,1,46.131-.98,4.124,4.124,0,0,1,45.01-4.008v-.234A5.072,5.072,0,0,1,45.5-6.5,3.716,3.716,0,0,1,46.87-8.055a3.625,3.625,0,0,1,1.969-.555,3.318,3.318,0,0,1,2.668,1.1,4.658,4.658,0,0,1,.941,3.117v.766H46.924a2.539,2.539,0,0,0,.7,1.656,2.1,2.1,0,0,0,1.543.609,2.571,2.571,0,0,0,2.125-1.055l1.023.977A3.418,3.418,0,0,1,50.96-.262,4.244,4.244,0,0,1,49.057.156Zm-.227-7.242a1.6,1.6,0,0,0-1.262.547,2.835,2.835,0,0,0-.613,1.523h3.617v-.141A2.307,2.307,0,0,0,50.065-6.6,1.586,1.586,0,0,0,48.831-7.086Zm6.852-1.367.055.977A3.039,3.039,0,0,1,58.2-8.609q2.641,0,2.688,3.023V0h-1.9V-5.477a1.741,1.741,0,0,0-.348-1.191A1.462,1.462,0,0,0,57.5-7.055a1.829,1.829,0,0,0-1.711,1.039V0h-1.9V-8.453ZM70.276-1.359a1.716,1.716,0,0,0,1.18-.414,1.415,1.415,0,0,0,.5-1.023h1.789a2.789,2.789,0,0,1-.492,1.473A3.228,3.228,0,0,1,72-.242a3.725,3.725,0,0,1-1.7.4A3.6,3.6,0,0,1,67.487-.992a4.555,4.555,0,0,1-1.039-3.172v-.2a4.479,4.479,0,0,1,1.031-3.09,3.571,3.571,0,0,1,2.813-1.16,3.473,3.473,0,0,1,2.457.879,3.148,3.148,0,0,1,1,2.309H71.956a1.738,1.738,0,0,0-.5-1.2,1.6,1.6,0,0,0-1.184-.469,1.671,1.671,0,0,0-1.422.668,3.408,3.408,0,0,0-.508,2.027v.3a3.465,3.465,0,0,0,.5,2.051A1.669,1.669,0,0,0,70.276-1.359ZM80.229,0a2.93,2.93,0,0,1-.219-.789,2.955,2.955,0,0,1-2.219.945A2.982,2.982,0,0,1,75.714-.57a2.325,2.325,0,0,1-.8-1.8,2.4,2.4,0,0,1,1-2.074,4.865,4.865,0,0,1,2.871-.723h1.164v-.555a1.481,1.481,0,0,0-.367-1.051,1.456,1.456,0,0,0-1.117-.395A1.672,1.672,0,0,0,77.4-6.84a1,1,0,0,0-.414.824h-1.9a2.107,2.107,0,0,1,.461-1.3A3.071,3.071,0,0,1,76.8-8.266a4.4,4.4,0,0,1,1.77-.344,3.547,3.547,0,0,1,2.367.746,2.661,2.661,0,0,1,.906,2.1v3.813a4.321,4.321,0,0,0,.32,1.82V0ZM78.143-1.367A2.159,2.159,0,0,0,79.2-1.641a1.827,1.827,0,0,0,.746-.734V-3.969H78.924a2.8,2.8,0,0,0-1.586.367,1.189,1.189,0,0,0-.531,1.039,1.109,1.109,0,0,0,.363.871A1.407,1.407,0,0,0,78.143-1.367Zm5.336-2.922a5.026,5.026,0,0,1,.906-3.137,2.9,2.9,0,0,1,2.43-1.184,2.759,2.759,0,0,1,2.172.938V-12h1.9V0H89.167l-.094-.875A2.8,2.8,0,0,1,86.8.156a2.887,2.887,0,0,1-2.4-1.2A5.21,5.21,0,0,1,83.479-4.289Zm1.9.164a3.519,3.519,0,0,0,.5,2.012,1.61,1.61,0,0,0,1.41.723,1.793,1.793,0,0,0,1.7-1.039V-6.039A1.766,1.766,0,0,0,87.3-7.055a1.622,1.622,0,0,0-1.422.73A3.918,3.918,0,0,0,85.378-4.125ZM97.917,0A2.93,2.93,0,0,1,97.7-.789a2.955,2.955,0,0,1-2.219.945A2.982,2.982,0,0,1,93.4-.57a2.325,2.325,0,0,1-.8-1.8,2.4,2.4,0,0,1,1-2.074,4.865,4.865,0,0,1,2.871-.723h1.164v-.555a1.481,1.481,0,0,0-.367-1.051,1.456,1.456,0,0,0-1.117-.395,1.672,1.672,0,0,0-1.062.324,1,1,0,0,0-.414.824h-1.9a2.107,2.107,0,0,1,.461-1.3,3.071,3.071,0,0,1,1.254-.949,4.4,4.4,0,0,1,1.77-.344,3.547,3.547,0,0,1,2.367.746,2.661,2.661,0,0,1,.906,2.1v3.813a4.321,4.321,0,0,0,.32,1.82V0ZM95.831-1.367a2.159,2.159,0,0,0,1.059-.273,1.827,1.827,0,0,0,.746-.734V-3.969H96.612a2.8,2.8,0,0,0-1.586.367,1.189,1.189,0,0,0-.531,1.039,1.109,1.109,0,0,0,.363.871A1.407,1.407,0,0,0,95.831-1.367Z" transform="translate(669.54 220.215)"/>
    <path id="Trazado_634736" data-name="Trazado 634736" d="M7.336-10.508v2.055H8.828v1.406H7.336v4.719a1.039,1.039,0,0,0,.191.7.888.888,0,0,0,.684.215,2.924,2.924,0,0,0,.664-.078V-.023a4.676,4.676,0,0,1-1.25.18q-2.188,0-2.187-2.414V-7.047H4.047V-8.453H5.438v-2.055ZM12.3,0H10.4V-8.453h1.9ZM10.281-10.648a1.008,1.008,0,0,1,.277-.727,1.048,1.048,0,0,1,.793-.289,1.061,1.061,0,0,1,.8.289,1,1,0,0,1,.281.727.977.977,0,0,1-.281.715,1.069,1.069,0,0,1-.8.285,1.056,1.056,0,0,1-.793-.285A.984.984,0,0,1,10.281-10.648Zm7.8,10.8A3.928,3.928,0,0,1,15.16-.98a4.124,4.124,0,0,1-1.121-3.027v-.234A5.072,5.072,0,0,1,14.527-6.5,3.716,3.716,0,0,1,15.9-8.055a3.625,3.625,0,0,1,1.969-.555,3.318,3.318,0,0,1,2.668,1.1,4.658,4.658,0,0,1,.941,3.117v.766H15.953a2.539,2.539,0,0,0,.7,1.656,2.1,2.1,0,0,0,1.543.609A2.571,2.571,0,0,0,20.32-2.414l1.023.977A3.418,3.418,0,0,1,19.988-.262,4.244,4.244,0,0,1,18.086.156Zm-.227-7.242a1.6,1.6,0,0,0-1.262.547,2.835,2.835,0,0,0-.613,1.523H19.6v-.141A2.307,2.307,0,0,0,19.094-6.6,1.586,1.586,0,0,0,17.859-7.086Zm6.875-1.367.055.883a3.042,3.042,0,0,1,2.438-1.039,2.337,2.337,0,0,1,2.32,1.3,3,3,0,0,1,2.594-1.3,2.636,2.636,0,0,1,2.082.773,3.405,3.405,0,0,1,.7,2.281V0h-1.9V-5.5a1.681,1.681,0,0,0-.352-1.18,1.539,1.539,0,0,0-1.164-.375,1.581,1.581,0,0,0-1.059.348,1.833,1.833,0,0,0-.574.91L29.883,0h-1.9V-5.562a1.354,1.354,0,0,0-1.523-1.492,1.671,1.671,0,0,0-1.617.93V0h-1.9V-8.453ZM44.273-4.141a5.033,5.033,0,0,1-.891,3.129A2.852,2.852,0,0,1,40.992.156a2.871,2.871,0,0,1-2.227-.914V3.25h-1.9v-11.7h1.75l.078.859a2.788,2.788,0,0,1,2.273-1.016,2.881,2.881,0,0,1,2.426,1.152,5.167,5.167,0,0,1,.879,3.2ZM42.383-4.3a3.526,3.526,0,0,0-.5-2.008,1.638,1.638,0,0,0-1.441-.742,1.747,1.747,0,0,0-1.672.961v3.75a1.763,1.763,0,0,0,1.688.984,1.636,1.636,0,0,0,1.418-.73A3.881,3.881,0,0,0,42.383-4.3Zm3.141,0a4.984,4.984,0,0,1,.492-2.238A3.6,3.6,0,0,1,47.4-8.074a3.9,3.9,0,0,1,2.047-.535,3.692,3.692,0,0,1,2.777,1.1,4.333,4.333,0,0,1,1.152,2.922l.008.445a5.029,5.029,0,0,1-.48,2.234A3.551,3.551,0,0,1,51.527-.383a3.925,3.925,0,0,1-2.066.539A3.667,3.667,0,0,1,46.6-1.035a4.563,4.563,0,0,1-1.074-3.176Zm1.9.164A3.406,3.406,0,0,0,47.961-2.1a1.752,1.752,0,0,0,1.5.738,1.733,1.733,0,0,0,1.5-.75,3.762,3.762,0,0,0,.535-2.2,3.362,3.362,0,0,0-.551-2.031,1.759,1.759,0,0,0-1.5-.75,1.743,1.743,0,0,0-1.477.738A3.691,3.691,0,0,0,47.422-4.141Z" transform="translate(694.434 240.661)"/>
    <path id="Trazado_634737" data-name="Trazado 634737" d="M6.094-.828A2.944,2.944,0,0,1,3.719.156a2.624,2.624,0,0,1-2.082-.8A3.423,3.423,0,0,1,.93-2.977V-8.453h1.9V-3q0,1.609,1.336,1.609a1.876,1.876,0,0,0,1.867-.992v-6.07h1.9V0H6.141ZM11.047-2a1.084,1.084,0,0,1,.82.3,1.045,1.045,0,0,1,.289.754,1.008,1.008,0,0,1-.289.738,1.1,1.1,0,0,1-.82.293,1.1,1.1,0,0,1-.8-.289.991.991,0,0,1-.3-.742,1.045,1.045,0,0,1,.289-.754A1.074,1.074,0,0,1,11.047-2Zm5.664-8.508v2.055H18.2v1.406H16.711v4.719a1.039,1.039,0,0,0,.191.7.888.888,0,0,0,.684.215,2.924,2.924,0,0,0,.664-.078V-.023A4.676,4.676,0,0,1,17,.156q-2.187,0-2.187-2.414V-7.047H13.422V-8.453h1.391v-2.055Zm13.82,4.414H23.8V-7.672h6.734Zm0,3.313H23.8v-1.57h6.734Z" transform="translate(381.07 295.255)"/>
    <path id="Trazado_634738" data-name="Trazado 634738" d="M6.094-.828A2.944,2.944,0,0,1,3.719.156a2.624,2.624,0,0,1-2.082-.8A3.423,3.423,0,0,1,.93-2.977V-8.453h1.9V-3q0,1.609,1.336,1.609a1.876,1.876,0,0,0,1.867-.992v-6.07h1.9V0H6.141ZM11.047-2a1.084,1.084,0,0,1,.82.3,1.045,1.045,0,0,1,.289.754,1.008,1.008,0,0,1-.289.738,1.1,1.1,0,0,1-.82.293,1.1,1.1,0,0,1-.8-.289.991.991,0,0,1-.3-.742,1.045,1.045,0,0,1,.289-.754A1.074,1.074,0,0,1,11.047-2Zm6.758.641a1.716,1.716,0,0,0,1.18-.414,1.415,1.415,0,0,0,.5-1.023h1.789a2.789,2.789,0,0,1-.492,1.473,3.228,3.228,0,0,1-1.25,1.082,3.725,3.725,0,0,1-1.7.4A3.6,3.6,0,0,1,15.016-.992a4.555,4.555,0,0,1-1.039-3.172v-.2a4.479,4.479,0,0,1,1.031-3.09,3.571,3.571,0,0,1,2.813-1.16,3.473,3.473,0,0,1,2.457.879,3.148,3.148,0,0,1,1,2.309H19.484a1.738,1.738,0,0,0-.5-1.2A1.6,1.6,0,0,0,17.8-7.086a1.671,1.671,0,0,0-1.422.668,3.408,3.408,0,0,0-.508,2.027v.3a3.465,3.465,0,0,0,.5,2.051A1.669,1.669,0,0,0,17.8-1.359ZM33.586-6.094H26.852V-7.672h6.734Zm0,3.313H26.852v-1.57h6.734Z" transform="translate(485.673 199.411)"/>
    <g id="Grupo_1101409" data-name="Grupo 1101409">
      <g id="Grupo_1101408" data-name="Grupo 1101408" clip-path="url(#clip-path-2)">
        <path id="Trazado_634122" data-name="Trazado 634122" d="M397.765,281.6c1.429,3.084,6.261,3.881,10.782,1.781,3.647-1.7,5.984-4.759,6-7.5V234.37a.785.785,0,1,0-1.57,0v38.113c-2.1-1.77-5.957-1.966-9.614-.265-4.525,2.1-7.031,6.3-5.6,9.386" transform="translate(25.803 15.168)" fill="#12263f" stroke="rgba(0,0,0,0)" stroke-width="1"/>
        <path id="Trazado_634123" data-name="Trazado 634123" d="M513.86,142.346a.784.784,0,0,0-.783.787v38.111c-2.1-1.769-5.96-1.967-9.616-.267-4.521,2.1-7.029,6.3-5.6,9.39s6.263,3.876,10.781,1.779c3.647-1.7,5.985-4.761,6-7.5V143.133a.787.787,0,0,0-.786-.787m-6.571,47.187c-4,2-7.82,2.447-8.543,1s1.926-4.236,5.919-6.234,7.819-2.449,8.541-1-1.923,4.237-5.917,6.235" transform="translate(32.303 9.243)" fill="#12263f" stroke="rgba(0,0,0,0)" stroke-width="1"/>
        <path id="Trazado_634124" data-name="Trazado 634124" d="M566.491,286.215c1.429,3.084,6.261,3.881,10.782,1.781,3.647-1.7,5.984-4.759,6-7.5V238.981a.785.785,0,1,0-1.57,0v38.113c-2.1-1.77-5.958-1.966-9.614-.265-4.525,2.1-7.031,6.3-5.6,9.386" transform="translate(36.759 15.467)" fill="#12263f" stroke="rgba(0,0,0,0)" stroke-width="1"/>
        <path id="Trazado_634125" data-name="Trazado 634125" d="M589.265,286.215c1.429,3.084,6.261,3.881,10.782,1.781,3.647-1.7,5.984-4.759,6-7.5V238.981a.785.785,0,1,0-1.57,0v38.113c-2.1-1.77-5.958-1.966-9.614-.265-4.525,2.1-7.031,6.3-5.6,9.386" transform="translate(38.238 15.467)" fill="#12263f" stroke="rgba(0,0,0,0)" stroke-width="1"/>
        <path id="Trazado_634126" data-name="Trazado 634126" d="M612.038,286.215C613.467,289.3,618.3,290.1,622.82,288c3.647-1.7,5.985-4.759,6-7.5l0-.012v-41.5a.785.785,0,1,0-1.57,0v38.113c-2.1-1.77-5.959-1.966-9.615-.265-4.525,2.1-7.03,6.3-5.6,9.386" transform="translate(39.716 15.467)" fill="#12263f" stroke="rgba(0,0,0,0)" stroke-width="1"/>
        <path id="Trazado_634127" data-name="Trazado 634127" d="M381.187,47.872a2.627,2.627,0,0,0,1.344-.814,2.492,2.492,0,0,0,.61-1.771,2.543,2.543,0,0,0-.793-1.892,3.049,3.049,0,0,0-2.218-.774,2.885,2.885,0,0,0-2.3,1.017,3.919,3.919,0,0,0-.876,2.647,5.058,5.058,0,0,0,1.975,4.171,8.663,8.663,0,0,0,5.515,1.568q5.089,0,7.876-1.934a6.194,6.194,0,0,0,2.789-5.394,5.153,5.153,0,0,0-2.3-4.437,10.371,10.371,0,0,0-6-1.669,8.1,8.1,0,0,0,5.068-1.71,4.839,4.839,0,0,0,1.77-3.785q0-5.62-9.281-5.619a7.54,7.54,0,0,0-4.987,1.547,4.756,4.756,0,0,0-1.852,3.786,3.494,3.494,0,0,0,.814,2.442,2.681,2.681,0,0,0,2.077.9,2.643,2.643,0,0,0,1.954-.693,2.272,2.272,0,0,0,.692-1.669,2.236,2.236,0,0,0-.509-1.546,2.18,2.18,0,0,0-1.141-.714,4.163,4.163,0,0,1-1.138-.427.97.97,0,0,1-.51-.916q0-.629.9-1.2a5,5,0,0,1,2.646-.57,3.632,3.632,0,0,1,2.89,1.344,4.985,4.985,0,0,1,1.139,3.339,5.906,5.906,0,0,1-1.139,3.561,4.318,4.318,0,0,1-3.744,1.567H381.8v.816h.652q3.377,0,4.66,1.383a6.154,6.154,0,0,1,1.283,4.295,6.852,6.852,0,0,1-1.466,4.619,4.8,4.8,0,0,1-3.826,1.71,6.35,6.35,0,0,1-2.667-.529q-1.16-.529-1.16-1.363t1.913-1.282" transform="translate(24.477 1.784)" fill="#12263f" stroke="rgba(0,0,0,0)" stroke-width="1"/>
        <path id="Trazado_634128" data-name="Trazado 634128" d="M394.45,66.328v2.687h-3.012V51.959h-4.07L375.807,69.015v.815h9.526v5.006h-2.646v.815h11.4v-.815h-2.646V69.83h3.012V72.6h.937V66.328Zm-9.117,2.687h-8.467l8.467-12.578Z" transform="translate(24.403 3.374)" fill="#12263f" stroke="rgba(0,0,0,0)" stroke-width="1"/>
        <path id="Trazado_634129" data-name="Trazado 634129" d="M543.978,259.025a2.627,2.627,0,0,0,1.344-.814,2.492,2.492,0,0,0,.61-1.771,2.543,2.543,0,0,0-.793-1.892,3.049,3.049,0,0,0-2.218-.774,2.885,2.885,0,0,0-2.3,1.017,3.919,3.919,0,0,0-.876,2.647,5.058,5.058,0,0,0,1.975,4.171,8.663,8.663,0,0,0,5.515,1.568q5.089,0,7.877-1.934a6.2,6.2,0,0,0,2.788-5.394,5.153,5.153,0,0,0-2.3-4.437,10.371,10.371,0,0,0-6-1.669,8.1,8.1,0,0,0,5.068-1.71,4.839,4.839,0,0,0,1.77-3.785q0-5.62-9.281-5.619a7.54,7.54,0,0,0-4.987,1.547,4.756,4.756,0,0,0-1.852,3.786,3.493,3.493,0,0,0,.814,2.442,2.681,2.681,0,0,0,2.077.9,2.643,2.643,0,0,0,1.954-.693,2.272,2.272,0,0,0,.692-1.669,2.236,2.236,0,0,0-.509-1.546,2.18,2.18,0,0,0-1.141-.714,4.162,4.162,0,0,1-1.138-.427.97.97,0,0,1-.51-.916q0-.629.9-1.2a5,5,0,0,1,2.646-.57,3.632,3.632,0,0,1,2.89,1.344,4.985,4.985,0,0,1,1.14,3.339,5.906,5.906,0,0,1-1.14,3.561,4.318,4.318,0,0,1-3.744,1.566h-.652v.816h.652q3.377,0,4.66,1.383a6.153,6.153,0,0,1,1.283,4.295,6.857,6.857,0,0,1-1.466,4.62,4.8,4.8,0,0,1-3.826,1.709,6.35,6.35,0,0,1-2.667-.529q-1.16-.529-1.16-1.363t1.913-1.282" transform="translate(35.048 15.495)" fill="#12263f" stroke="rgba(0,0,0,0)" stroke-width="1"/>
        <path id="Trazado_634130" data-name="Trazado 634130" d="M557.241,277.48v2.687h-3.012V263.111H550.16L538.6,280.167v.815h9.526v5.006h-2.646v.815h11.4v-.815h-2.647v-5.006h3.012v2.768h.937V277.48Zm-9.116,2.687h-8.467l8.467-12.578Z" transform="translate(34.974 17.085)" fill="#12263f" stroke="rgba(0,0,0,0)" stroke-width="1"/>
        <path id="Trazado_634131" data-name="Trazado 634131" d="M516.964,191.519a2.568,2.568,0,1,0-2.567-2.568,2.568,2.568,0,0,0,2.567,2.568" transform="translate(33.402 12.103)" fill="#12263f" stroke="rgba(0,0,0,0)" stroke-width="1"/>
      </g>
    </g>
  </g>
</svg>
