<svg xmlns="http://www.w3.org/2000/svg" xmlns:xlink="http://www.w3.org/1999/xlink" width="139.02" height="139.398" viewBox="0 0 139.02 139.398">
  <defs>
    <clipPath id="clip-path">
      <path id="Trazado_610742" data-name="Trazado 610742" d="M137.107,62.03a69.352,69.352,0,1,0,17.608-2.279,69.7,69.7,0,0,0-17.608,2.279" transform="translate(-85.163 -59.751)" fill="none" stroke="#624b7e" stroke-width="1"/>
    </clipPath>
  </defs>
  <g id="Grupo_1073782" data-name="Grupo 1073782" transform="translate(-322.49 -6391)">
    <g id="Grupo_1073730" data-name="Grupo 1073730" transform="translate(322.49 6391)">
      <g id="Grupo_1073704" data-name="Grupo 1073704">
        <g id="Grupo_1073463" data-name="Grupo 1073463" clip-path="url(#clip-path)">
          <line id="Línea_2945" data-name="Línea 2945" x1="164.179" y2="43.007" transform="translate(-30.339 -16.758)" fill="none" stroke="#624b7e" stroke-miterlimit="10" stroke-width="1.728"/>
          <line id="Línea_2946" data-name="Línea 2946" x1="164.178" y2="43.007" transform="translate(-27.739 -6.781)" fill="none" stroke="#624b7e" stroke-miterlimit="10" stroke-width="1.728"/>
          <line id="Línea_2947" data-name="Línea 2947" x1="164.178" y2="43.008" transform="translate(-25.139 3.196)" fill="none" stroke="#624b7e" stroke-miterlimit="10" stroke-width="1.728"/>
          <line id="Línea_2948" data-name="Línea 2948" x1="164.18" y2="43.008" transform="translate(-22.539 13.173)" fill="none" stroke="#624b7e" stroke-miterlimit="10" stroke-width="1.728"/>
          <line id="Línea_2949" data-name="Línea 2949" x1="164.178" y2="43.009" transform="translate(-19.939 23.151)" fill="none" stroke="#624b7e" stroke-miterlimit="10" stroke-width="1.728"/>
          <line id="Línea_2950" data-name="Línea 2950" x1="164.178" y2="43.008" transform="translate(-17.342 33.128)" fill="none" stroke="#624b7e" stroke-miterlimit="10" stroke-width="1.728"/>
          <line id="Línea_2951" data-name="Línea 2951" x1="164.179" y2="43.007" transform="translate(-14.741 43.106)" fill="none" stroke="#624b7e" stroke-miterlimit="10" stroke-width="1.728"/>
          <line id="Línea_2952" data-name="Línea 2952" x1="164.18" y2="43.007" transform="translate(-12.141 53.083)" fill="none" stroke="#624b7e" stroke-miterlimit="10" stroke-width="1.728"/>
          <line id="Línea_2953" data-name="Línea 2953" x1="164.178" y2="43.008" transform="translate(-9.542 63.06)" fill="none" stroke="#624b7e" stroke-miterlimit="10" stroke-width="1.728"/>
          <line id="Línea_2954" data-name="Línea 2954" x1="164.177" y2="43.007" transform="translate(-6.943 73.038)" fill="none" stroke="#624b7e" stroke-miterlimit="10" stroke-width="1.728"/>
          <line id="Línea_2955" data-name="Línea 2955" x1="164.178" y2="43.007" transform="translate(-4.343 83.016)" fill="none" stroke="#624b7e" stroke-miterlimit="10" stroke-width="1.728"/>
          <line id="Línea_2956" data-name="Línea 2956" x1="164.178" y2="43.006" transform="translate(-1.744 92.995)" fill="none" stroke="#624b7e" stroke-miterlimit="10" stroke-width="1.728"/>
          <line id="Línea_2957" data-name="Línea 2957" x1="164.18" y2="43.009" transform="translate(0.881 103.073)" fill="none" stroke="#624b7e" stroke-miterlimit="10" stroke-width="1.728"/>
          <line id="Línea_2958" data-name="Línea 2958" x1="164.179" y2="43.006" transform="translate(3.407 112.764)" fill="none" stroke="#624b7e" stroke-miterlimit="10" stroke-width="1.728"/>
          <line id="Línea_2959" data-name="Línea 2959" x1="164.179" y2="43.007" transform="translate(-31.72 -22.06)" fill="none" stroke="#624b7e" stroke-miterlimit="10" stroke-width="1.728"/>
          <line id="Línea_2960" data-name="Línea 2960" x1="164.178" y2="43.007" transform="translate(-29.12 -12.083)" fill="none" stroke="#624b7e" stroke-miterlimit="10" stroke-width="1.728"/>
          <line id="Línea_2961" data-name="Línea 2961" x1="164.178" y2="43.007" transform="translate(-26.521 -2.106)" fill="none" stroke="#624b7e" stroke-miterlimit="10" stroke-width="1.728"/>
          <line id="Línea_2962" data-name="Línea 2962" x1="164.18" y2="43.008" transform="translate(-23.921 7.872)" fill="none" stroke="#624b7e" stroke-miterlimit="10" stroke-width="1.728"/>
          <line id="Línea_2963" data-name="Línea 2963" x1="164.178" y2="43.008" transform="translate(-21.321 17.849)" fill="none" stroke="#624b7e" stroke-miterlimit="10" stroke-width="1.728"/>
          <line id="Línea_2964" data-name="Línea 2964" x1="164.178" y2="43.009" transform="translate(-18.723 27.826)" fill="none" stroke="#624b7e" stroke-miterlimit="10" stroke-width="1.728"/>
          <line id="Línea_2965" data-name="Línea 2965" x1="164.178" y2="43.006" transform="translate(-16.123 37.804)" fill="none" stroke="#624b7e" stroke-miterlimit="10" stroke-width="1.728"/>
          <line id="Línea_2966" data-name="Línea 2966" x1="164.18" y2="43.007" transform="translate(-13.523 47.781)" fill="none" stroke="#624b7e" stroke-miterlimit="10" stroke-width="1.728"/>
          <line id="Línea_2967" data-name="Línea 2967" x1="164.178" y2="43.007" transform="translate(-10.924 57.758)" fill="none" stroke="#624b7e" stroke-miterlimit="10" stroke-width="1.728"/>
          <line id="Línea_2968" data-name="Línea 2968" x1="164.177" y2="43.007" transform="translate(-8.325 67.736)" fill="none" stroke="#624b7e" stroke-miterlimit="10" stroke-width="1.728"/>
          <line id="Línea_2969" data-name="Línea 2969" x1="164.177" y2="43.006" transform="translate(-5.724 77.715)" fill="none" stroke="#624b7e" stroke-miterlimit="10" stroke-width="1.728"/>
          <line id="Línea_2970" data-name="Línea 2970" x1="164.178" y2="43.006" transform="translate(-3.125 87.692)" fill="none" stroke="#624b7e" stroke-miterlimit="10" stroke-width="1.728"/>
          <line id="Línea_2971" data-name="Línea 2971" x1="164.18" y2="43.008" transform="translate(-0.5 97.772)" fill="none" stroke="#624b7e" stroke-miterlimit="10" stroke-width="1.728"/>
          <line id="Línea_2972" data-name="Línea 2972" x1="164.178" y2="43.006" transform="translate(2.025 107.462)" fill="none" stroke="#624b7e" stroke-miterlimit="10" stroke-width="1.728"/>
        </g>
      </g>
      <g id="Grupo_1073705" data-name="Grupo 1073705" transform="translate(11.302 11.3)">
        <path id="Trazado_608385" data-name="Trazado 608385" d="M58.354,0A58.354,58.354,0,1,1,0,58.354,58.354,58.354,0,0,1,58.354,0Z" fill="#fff"/>
      </g>
      <g id="Grupo_1073706" data-name="Grupo 1073706" transform="translate(113.11 45.427)">
        <path id="Trazado_611008" data-name="Trazado 611008" d="M9.007,26.64,23.763,11.516,0,5.99Z" transform="translate(0 -4.687)" fill="#474747"/>
        <path id="Trazado_611009" data-name="Trazado 611009" d="M16.158,19.415,31.992,4.484,7.771,0Z" transform="translate(-6.082 0)" fill="#79cbbf"/>
      </g>
      <g id="Grupo_1073707" data-name="Grupo 1073707" transform="translate(0 101.98)">
        <path id="Trazado_610799" data-name="Trazado 610799" d="M0,2.961,6.668,14.811,15.812,7.6,21.52,17.747l9.148-7.213,5.72,10.15,10.683-8.418L45,9.641l-7.62,6L31.663,5.494l-9.145,7.211L16.809,2.557,7.665,9.77,2.912,1.323Z" transform="translate(0 -0.881)" fill="#474747"/>
        <path id="Trazado_610800" data-name="Trazado 610800" d="M13.3,0,10.387,1.638l6.667,11.851L26.2,6.276l5.708,10.149,9.148-7.214,5.719,10.15,10.684-8.418L55.389,8.319l-7.62,6L42.05,4.172,32.9,11.383,27.2,1.235,18.051,8.448Z" transform="translate(-6.917 0)" fill="#fff4a9"/>
      </g>
      <path id="Trazado_611010" data-name="Trazado 611010" d="M21.817,10.674,5.225,2.789l-.38,10.135Z" transform="translate(7.335 16.244)" fill="none" stroke="#fd3cae" stroke-miterlimit="10" stroke-width="2"/>
    </g>
    <g id="Grupo_1101355" data-name="Grupo 1101355" transform="translate(363.001 6422.413)">
      <path id="Trazado_634014" data-name="Trazado 634014" d="M53.512,143.449,55.5,141.46a4.925,4.925,0,0,0,.318-6.768,4.765,4.765,0,0,0-2.447-1.467l.4-.4a4.916,4.916,0,0,0,.318-6.771,4.779,4.779,0,0,0-3.451-1.6,4.939,4.939,0,0,0-3.548,1.4l-.222.222a4.766,4.766,0,0,0-3.143-1.309,4.9,4.9,0,0,0-3.533,1.409l-2.291,2.291a4.822,4.822,0,0,0-4.679-3.7h-.007a4.78,4.78,0,0,0-3.393,1.409l-8.742,8.743a5.993,5.993,0,0,0-1.87-3.7,3.582,3.582,0,0,0-4.947.138l-8.282,8.282a19.725,19.725,0,0,0-1.016,27.246,19.3,19.3,0,0,0,18.783,5.885,19.952,19.952,0,0,0,2.633.181,19.264,19.264,0,0,0,13.7-5.7L55.647,151.7a4.946,4.946,0,0,0,.315-6.779A4.762,4.762,0,0,0,53.512,143.449Zm.6-7.221a2.662,2.662,0,0,1-.23,3.6l-5.1,5.1c-.033-.032-.07-.057-.1-.088-.082-.072-.165-.142-.25-.208s-.2-.147-.307-.216c-.083-.054-.166-.115-.252-.16-.124-.07-.253-.13-.382-.189-.075-.034-.146-.072-.222-.1a4.529,4.529,0,0,0-.643-.205l1.59-1.591.4-.4a5.223,5.223,0,0,0,.554-.669c.07-.1.129-.2.191-.3.076-.126.148-.253.214-.384s.143-.3.2-.45c.021-.056.037-.115.057-.168a4.994,4.994,0,0,0,.27-1.972v-.011a4.931,4.931,0,0,0-.09-.647c-.009-.045-.022-.092-.032-.138-.026-.115-.045-.23-.079-.333l.575-.575.018-.019a2.463,2.463,0,0,1,1.823-.722A2.49,2.49,0,0,1,54.109,136.228Zm-5.387-8.743a2.542,2.542,0,0,1,1.859-.735,2.5,2.5,0,0,1,1.805.841,2.654,2.654,0,0,1-.237,3.6l-3.294,3.292-.023.024-.2.205c-.029-.027-.06-.048-.088-.074a3.336,3.336,0,0,0-.281-.23c-.1-.069-.18-.13-.272-.191s-.185-.125-.283-.181-.23-.115-.345-.168c-.088-.041-.172-.086-.262-.122a4.778,4.778,0,0,0-.619-.2h-.012l.4-.4a5.094,5.094,0,0,0,.585-.714c.03-.042.056-.085.084-.129a5,5,0,0,0,.353-.635c.029-.061.06-.115.086-.181a5.032,5.032,0,0,0,.256-.775c.021-.084.03-.169.046-.253a5.144,5.144,0,0,0,.076-.54c.01-.115.014-.23.015-.353,0-.159-.008-.316-.022-.475-.01-.115-.015-.23-.032-.336a4.781,4.781,0,0,0-.165-.7ZM11.7,169.162a17.226,17.226,0,0,1-5.031-3.821,17.43,17.43,0,0,1,.943-24.071l8.282-8.282a1.336,1.336,0,0,1,.941-.394,1.167,1.167,0,0,1,.805.307,3.741,3.741,0,0,1,.089,5.375l-7.789,7.785a1.15,1.15,0,1,0,1.627,1.627l7.781-7.78,12.1-12.1a2.488,2.488,0,0,1,1.772-.735,2.519,2.519,0,0,1,1.781,4.3l-12.957,12.96a1.15,1.15,0,1,0,1.627,1.627L36.633,133l5.2-5.194a2.519,2.519,0,0,1,3.655.1,2.351,2.351,0,0,1,.575,1.283.564.564,0,0,0,.006.1,2.55,2.55,0,0,1,.009.365c0,.043-.008.085-.011.128a2.879,2.879,0,0,1-.054.345c-.009.042-.019.083-.031.124a2.96,2.96,0,0,1-.124.358c-.011.029-.023.057-.036.085a2.853,2.853,0,0,1-.575.825l-2.67,2.67-.628.627-.007.008v.006l-14.7,14.695a1.15,1.15,0,1,0,1.627,1.627l14.7-14.7c.047-.047.1-.08.151-.123a2.6,2.6,0,0,1,1.625-.609H45.4a2.581,2.581,0,0,1,.508.065,2.507,2.507,0,0,1,1.3.775,2.288,2.288,0,0,1,.522,1.036,2.788,2.788,0,0,1-.761,2.566l-.23.23-4.667,4.656c-.01.01-.012.023-.023.033l-9.629,9.63a1.15,1.15,0,1,0,1.626,1.627l9.663-9.656a2.5,2.5,0,0,1,1.3-.69l.033-.009a2.435,2.435,0,0,1,.511-.037,2.546,2.546,0,0,1,.46.059l.048.007c.058.013.115.04.169.057a2.513,2.513,0,0,1,1.128.717,2.3,2.3,0,0,1,.284.392,2.73,2.73,0,0,1-.526,3.212L31.554,165.944c-.316.316-.643.616-.977.9-.062.052-.126.1-.188.152q-.4.333-.814.64c-.108.08-.22.156-.329.23q-.356.249-.72.479c-.134.084-.267.165-.4.245-.23.133-.453.259-.684.382-.152.081-.305.161-.461.237-.213.106-.431.2-.65.3-.174.077-.345.156-.525.23s-.372.138-.559.206c-.216.078-.43.16-.649.23-.043.014-.087.024-.129.037-.336.1-.676.2-1.018.282-.01,0-.019.01-.03.013A17.153,17.153,0,0,1,11.7,169.162Zm26.751-3.539a17.041,17.041,0,0,1-8.734,4.7c.069-.044.131-.1.2-.143.371-.238.727-.5,1.084-.766.207-.153.421-.3.621-.461.429-.345.84-.722,1.244-1.11.1-.1.213-.178.311-.276l15.565-15.565a5.116,5.116,0,0,0,.563-.69c.058-.081.106-.166.159-.249a5.089,5.089,0,0,0,.249-.45c.065-.131.124-.261.177-.4.033-.087.06-.175.088-.263a4.971,4.971,0,0,0,.251-1.841v-.1a4.64,4.64,0,0,0-.079-.584c-.015-.077-.036-.152-.054-.23s-.038-.189-.067-.28l.567-.568a2.516,2.516,0,0,1,3.658.093,2.682,2.682,0,0,1-.237,3.619Zm0,0" transform="translate(0 -106.452)" fill="#12263f"/>
      <path id="Trazado_634015" data-name="Trazado 634015" d="M409.024,32.357a1.15,1.15,0,0,0-1.627,0l-6.9,6.9a1.15,1.15,0,1,0,1.627,1.627l6.9-6.9A1.15,1.15,0,0,0,409.024,32.357Zm0,0" transform="translate(-342.606 -27.312)" fill="#12263f"/>
      <path id="Trazado_634016" data-name="Trazado 634016" d="M421.476,96.135l-4.6,2.3a1.151,1.151,0,1,0,1.028,2.059l4.6-2.3a1.151,1.151,0,0,0-1.028-2.059Zm0,0" transform="translate(-356.386 -82.104)" fill="#12263f"/>
      <path id="Trazado_634017" data-name="Trazado 634017" d="M368.8,32.012a1.15,1.15,0,0,0,1.578-.394l3.451-5.752a1.15,1.15,0,0,0-1.972-1.185l-3.451,5.752A1.151,1.151,0,0,0,368.8,32.012Zm0,0" transform="translate(-315.293 -20.566)" fill="#12263f"/>
      <path id="Trazado_634018" data-name="Trazado 634018" d="M155.825,9.762a1.15,1.15,0,0,0,2.114-.907L154.488.8a1.15,1.15,0,0,0-2.114.907Zm0,0" transform="translate(-130.389 0)" fill="#12263f"/>
      <path id="Trazado_634019" data-name="Trazado 634019" d="M209.393,17.222a1.15,1.15,0,0,0,1.15-1.15V9.17a1.15,1.15,0,1,0-2.3,0v6.9A1.15,1.15,0,0,0,209.393,17.222Zm0,0" transform="translate(-178.299 -6.763)" fill="#12263f"/>
      <path id="Trazado_634020" data-name="Trazado 634020" d="M117.095,39.637a1.151,1.151,0,0,0,1.8-1.438l-4.6-5.752a1.151,1.151,0,1,0-1.8,1.438Zm0,0" transform="translate(-96.102 -27.308)" fill="#12263f"/>
    </g>
  </g>
</svg>
