<svg xmlns="http://www.w3.org/2000/svg" xmlns:xlink="http://www.w3.org/1999/xlink" width="120" height="120" viewBox="0 0 120 120">
  <defs>
    <clipPath id="clip-path">
      <path id="Trazado_610742" data-name="Trazado 610742" d="M130,61.713a59.921,59.921,0,1,0,15.2-1.962A59.99,59.99,0,0,0,130,61.713" transform="translate(-85.163 -59.751)" fill="none" stroke="#624b7e" stroke-width="1"/>
    </clipPath>
  </defs>
  <g id="Grupo_1101586" data-name="Grupo 1101586" transform="translate(3795 7549)">
    <g id="Grupo_1073778" data-name="Grupo 1073778" transform="translate(-3795 -7549)">
      <g id="Grupo_1073765" data-name="Grupo 1073765" transform="translate(0)">
        <g id="Grupo_1073704" data-name="Grupo 1073704">
          <g id="Grupo_1073463" data-name="Grupo 1073463" clip-path="url(#clip-path)">
            <line id="Línea_2945" data-name="Línea 2945" x1="141.717" y2="37.022" transform="translate(-26.188 -14.426)" fill="none" stroke="#624b7e" stroke-miterlimit="10" stroke-width="1.728"/>
            <line id="Línea_2946" data-name="Línea 2946" x1="141.716" y2="37.022" transform="translate(-23.944 -5.837)" fill="none" stroke="#624b7e" stroke-miterlimit="10" stroke-width="1.728"/>
            <line id="Línea_2947" data-name="Línea 2947" x1="141.716" y2="37.023" transform="translate(-21.7 2.751)" fill="none" stroke="#624b7e" stroke-miterlimit="10" stroke-width="1.728"/>
            <line id="Línea_2948" data-name="Línea 2948" x1="141.718" y2="37.023" transform="translate(-19.455 11.34)" fill="none" stroke="#624b7e" stroke-miterlimit="10" stroke-width="1.728"/>
            <line id="Línea_2949" data-name="Línea 2949" x1="141.716" y2="37.024" transform="translate(-17.211 19.929)" fill="none" stroke="#624b7e" stroke-miterlimit="10" stroke-width="1.728"/>
            <line id="Línea_2950" data-name="Línea 2950" x1="141.716" y2="37.023" transform="translate(-14.969 28.518)" fill="none" stroke="#624b7e" stroke-miterlimit="10" stroke-width="1.728"/>
            <line id="Línea_2951" data-name="Línea 2951" x1="141.717" y2="37.022" transform="translate(-12.724 37.108)" fill="none" stroke="#624b7e" stroke-miterlimit="10" stroke-width="1.728"/>
            <line id="Línea_2952" data-name="Línea 2952" x1="141.718" y2="37.022" transform="translate(-10.48 45.697)" fill="none" stroke="#624b7e" stroke-miterlimit="10" stroke-width="1.728"/>
            <line id="Línea_2953" data-name="Línea 2953" x1="141.716" y2="37.023" transform="translate(-8.237 54.285)" fill="none" stroke="#624b7e" stroke-miterlimit="10" stroke-width="1.728"/>
            <line id="Línea_2954" data-name="Línea 2954" x1="141.715" y2="37.023" transform="translate(-5.993 62.874)" fill="none" stroke="#624b7e" stroke-miterlimit="10" stroke-width="1.728"/>
            <line id="Línea_2955" data-name="Línea 2955" x1="141.716" y2="37.022" transform="translate(-3.749 71.464)" fill="none" stroke="#624b7e" stroke-miterlimit="10" stroke-width="1.728"/>
            <line id="Línea_2956" data-name="Línea 2956" x1="141.716" y2="37.022" transform="translate(-1.505 80.054)" fill="none" stroke="#624b7e" stroke-miterlimit="10" stroke-width="1.728"/>
            <line id="Línea_2957" data-name="Línea 2957" x1="141.718" y2="37.024" transform="translate(0.761 88.73)" fill="none" stroke="#624b7e" stroke-miterlimit="10" stroke-width="1.728"/>
            <line id="Línea_2958" data-name="Línea 2958" x1="141.717" y2="37.022" transform="translate(2.94 97.072)" fill="none" stroke="#624b7e" stroke-miterlimit="10" stroke-width="1.728"/>
            <line id="Línea_2959" data-name="Línea 2959" x1="141.717" y2="37.022" transform="translate(-27.38 -18.99)" fill="none" stroke="#624b7e" stroke-miterlimit="10" stroke-width="1.728"/>
            <line id="Línea_2960" data-name="Línea 2960" x1="141.716" y2="37.022" transform="translate(-25.136 -10.401)" fill="none" stroke="#624b7e" stroke-miterlimit="10" stroke-width="1.728"/>
            <line id="Línea_2961" data-name="Línea 2961" x1="141.716" y2="37.023" transform="translate(-22.892 -1.813)" fill="none" stroke="#624b7e" stroke-miterlimit="10" stroke-width="1.728"/>
            <line id="Línea_2962" data-name="Línea 2962" x1="141.718" y2="37.023" transform="translate(-20.648 6.776)" fill="none" stroke="#624b7e" stroke-miterlimit="10" stroke-width="1.728"/>
            <line id="Línea_2963" data-name="Línea 2963" x1="141.716" y2="37.023" transform="translate(-18.404 15.365)" fill="none" stroke="#624b7e" stroke-miterlimit="10" stroke-width="1.728"/>
            <line id="Línea_2964" data-name="Línea 2964" x1="141.716" y2="37.024" transform="translate(-16.162 23.954)" fill="none" stroke="#624b7e" stroke-miterlimit="10" stroke-width="1.728"/>
            <line id="Línea_2965" data-name="Línea 2965" x1="141.716" y2="37.021" transform="translate(-13.917 32.544)" fill="none" stroke="#624b7e" stroke-miterlimit="10" stroke-width="1.728"/>
            <line id="Línea_2966" data-name="Línea 2966" x1="141.718" y2="37.022" transform="translate(-11.673 41.132)" fill="none" stroke="#624b7e" stroke-miterlimit="10" stroke-width="1.728"/>
            <line id="Línea_2967" data-name="Línea 2967" x1="141.716" y2="37.022" transform="translate(-9.429 49.721)" fill="none" stroke="#624b7e" stroke-miterlimit="10" stroke-width="1.728"/>
            <line id="Línea_2968" data-name="Línea 2968" x1="141.715" y2="37.022" transform="translate(-7.186 58.31)" fill="none" stroke="#624b7e" stroke-miterlimit="10" stroke-width="1.728"/>
            <line id="Línea_2969" data-name="Línea 2969" x1="141.715" y2="37.022" transform="translate(-4.941 66.9)" fill="none" stroke="#624b7e" stroke-miterlimit="10" stroke-width="1.728"/>
            <line id="Línea_2970" data-name="Línea 2970" x1="141.716" y2="37.022" transform="translate(-2.698 75.489)" fill="none" stroke="#624b7e" stroke-miterlimit="10" stroke-width="1.728"/>
            <line id="Línea_2971" data-name="Línea 2971" x1="141.717" y2="37.023" transform="translate(-0.432 84.166)" fill="none" stroke="#624b7e" stroke-miterlimit="10" stroke-width="1.728"/>
            <line id="Línea_2972" data-name="Línea 2972" x1="141.716" y2="37.021" transform="translate(1.748 92.508)" fill="none" stroke="#624b7e" stroke-miterlimit="10" stroke-width="1.728"/>
          </g>
        </g>
        <g id="Grupo_1073705" data-name="Grupo 1073705" transform="translate(9.797 9.795)">
          <path id="Trazado_608385" data-name="Trazado 608385" d="M50.33,0A50.166,50.166,0,1,1,0,50.166,50.248,50.248,0,0,1,50.33,0Z" transform="translate(0 0)" fill="#fff"/>
        </g>
        <g id="Grupo_1073706" data-name="Grupo 1073706" transform="translate(97.541 39.055)">
          <path id="Trazado_611008" data-name="Trazado 611008" d="M7.807,23.89,20.6,10.78,0,5.99Z" transform="translate(0 -4.861)" fill="#474747"/>
          <path id="Trazado_611009" data-name="Trazado 611009" d="M15.041,16.829,28.765,3.886,7.771,0Z" transform="translate(-6.307 0)" fill="#79cbbf"/>
        </g>
        <g id="Grupo_1073707" data-name="Grupo 1073707" transform="translate(0 87.567)">
          <path id="Trazado_610799" data-name="Trazado 610799" d="M0,2.743,5.78,13.015l7.926-6.252,4.948,8.8,7.929-6.253,4.958,8.8,9.26-7.3L39.008,8.533l-6.6,5.2-4.958-8.8-7.927,6.251-4.948-8.8L6.644,8.645,2.524,1.323Z" transform="translate(0 -0.94)" fill="#474747"/>
          <path id="Trazado_610800" data-name="Trazado 610800" d="M12.91,0,10.387,1.42l5.779,10.272L24.092,5.44l4.947,8.8,7.93-6.253,4.957,8.8,9.26-7.3L49.394,7.211l-6.6,5.2-4.958-8.8L29.9,9.867l-4.948-8.8L17.03,7.323Z" transform="translate(-7.379 0)" fill="#fff4a9"/>
        </g>
        <path id="Trazado_611010" data-name="Trazado 611010" d="M19.556,9.623,5.175,2.789l-.329,8.785Z" transform="translate(5.712 13.709)" fill="none" stroke="#fd3cae" stroke-miterlimit="10" stroke-width="2"/>
      </g>
      <g id="Page-1" transform="translate(22.345 24)">
        <g id="_090---Person-Speaking" data-name="090---Person-Speaking" transform="translate(0 0)">
          <path id="Shape" d="M14.281,34.163a1.1,1.1,0,0,0-1.508.357,5.343,5.343,0,0,0,0,5.536,1.1,1.1,0,1,0,1.864-1.151,3.159,3.159,0,0,1,0-3.234,1.1,1.1,0,0,0-.355-1.508Z" transform="translate(1.155 2.191)" fill="#12263f"/>
          <path id="Shape-2" data-name="Shape" d="M11.946,30.219a1.1,1.1,0,0,0-1.535.228,12.059,12.059,0,0,0,0,14.462,1.1,1.1,0,1,0,1.754-1.316,9.866,9.866,0,0,1,0-11.848,1.1,1.1,0,0,0-.219-1.526Z" transform="translate(0.77 1.806)" fill="#12263f"/>
          <path id="Shape-3" data-name="Shape" d="M9.262,28.754a1.1,1.1,0,1,0-1.754-1.316,17.54,17.54,0,0,0,0,21.048,1.1,1.1,0,1,0,1.754-1.316A15.348,15.348,0,0,1,9.262,28.754Z" transform="translate(0.385 1.517)" fill="#12263f"/>
          <path id="Shape-4" data-name="Shape" d="M4.6,52.064a1.1,1.1,0,1,0,1.754-1.316,20.829,20.829,0,0,1,0-24.995A1.1,1.1,0,1,0,4.6,24.439a23.022,23.022,0,0,0,0,27.626Z" transform="translate(0 1.228)" fill="#12263f"/>
          <path id="Shape-5" data-name="Shape" d="M60.39,31.388c1.77-2.4,3.778-5.108,3.842-9.741A26.811,26.811,0,0,0,63.3,14.06a14.9,14.9,0,0,0-5.352-7.731c-7.037-5.538-13.095-6.556-24-4.04-2.972.686-6.338,1.734-8.77,4.315a17.067,17.067,0,0,0-3.589,5.868l-.149.4c-1,2.649-2.153,5.936-2.153,7.864A3.856,3.856,0,0,0,20.7,23.755c.429.412.5.514.5.722a3.637,3.637,0,0,1-1.38,2.57l-.282.3c-2.651,2.86-3.643,4.056-3.532,5.262A2.761,2.761,0,0,0,17.382,34.5a6.425,6.425,0,0,0,.953.557,3.324,3.324,0,0,1,.95.607,1.3,1.3,0,0,1-.08.761c-.128.273-.262.508-.377.713-.329.59-.95,1.687,0,2.486a2.616,2.616,0,0,0,.851.449,2.5,2.5,0,0,0-.346,1.411,1.371,1.371,0,0,0,.566.956c.2.145.42.271.636.395.492.283.644.392.692.58a1.741,1.741,0,0,1-.076.895,5.208,5.208,0,0,0,.147,3.277,3.515,3.515,0,0,0,4.1,2.481,70.835,70.835,0,0,0,7.3-2.184c1.857,1.7,2.508,8.015,1.652,16.474a2.193,2.193,0,0,0,2.177,2.418H62.043a2.208,2.208,0,0,0,1.644-.732,2.163,2.163,0,0,0,.543-1.677,36.938,36.938,0,0,0-5.383-14.1c-1.279-1.677-1.518-3.931-1.77-6.318-.043-.4-.086-.808-.134-1.211a14.82,14.82,0,0,1,1.138-7.674,19.225,19.225,0,0,1,2.309-3.672Zm-4.768,17.16a9.562,9.562,0,0,0,1.043,2.4c-2.724,2.593-8.56,6.412-19.768,7.577.011-.658.014-1.328,0-1.993,10.19-1.176,15.806-4.97,18.725-7.983Zm-19.1,16.037c.116-1.151.219-2.467.294-3.851C48.067,59.615,54.4,56.02,57.884,52.809a36.038,36.038,0,0,1,4.159,11.776Zm19.539-30.4A17.008,17.008,0,0,0,54.759,43c.047.389.09.782.132,1.177.058.555.119,1.114.193,1.672-2.216,2.8-7.375,7.2-18.29,8.489a15.512,15.512,0,0,0-1.91-7.208l.591-.207c.67-.236,1.176-.414,1.425-.493,3.886-1.227,5.831-3.021,5.777-5.34a1.125,1.125,0,0,0-1.123-1.07,1.1,1.1,0,0,0-1.07,1.121c.016.69-.514,2.02-4.245,3.2-.264.083-.795.269-1.5.516-.629.219-1.4.491-2.24.779H32.5a73.253,73.253,0,0,1-7.558,2.291,1.343,1.343,0,0,1-1.576-1.051,3.076,3.076,0,0,1-.086-2.054,3.8,3.8,0,0,0,.069-1.939,3.04,3.04,0,0,0-1.661-1.905,7.388,7.388,0,0,1,.641-.906,1.1,1.1,0,0,0-.685-1.785c-.283-.042-.593-.1-.849-.162.124-.219.261-.47.394-.752a3.486,3.486,0,0,0,.254-2.109c-.219-1.187-1.316-1.745-2.106-2.151a5.123,5.123,0,0,1-.64-.362,5.51,5.51,0,0,1-.475-.383,23.632,23.632,0,0,1,2.928-3.53l.264-.28a5.713,5.713,0,0,0,1.983-4.08,3.045,3.045,0,0,0-1.168-2.3,1.728,1.728,0,0,1-.745-1.438c0-1.774,1.512-5.775,2.008-7.088l.157-.417a14.886,14.886,0,0,1,3.124-5.12c2.03-2.15,4.887-3.041,7.674-3.683C45.917,1.777,50.9,3.571,56.6,8.055a12.59,12.59,0,0,1,4.6,6.6,24.635,24.635,0,0,1,.849,6.954c-.055,3.928-1.686,6.133-3.413,8.468A21.123,21.123,0,0,0,56.064,34.186Z" transform="translate(1.54 -0.987)" fill="#12263f"/>
        </g>
      </g>
    </g>
  </g>
</svg>
