<svg xmlns="http://www.w3.org/2000/svg" xmlns:xlink="http://www.w3.org/1999/xlink" width="120" height="120" viewBox="0 0 120 120">
  <defs>
    <clipPath id="clip-path">
      <path id="Trazado_610742" data-name="Trazado 610742" d="M130,61.713a59.921,59.921,0,1,0,15.2-1.962A59.99,59.99,0,0,0,130,61.713" transform="translate(-85.163 -59.751)" fill="none" stroke="#624b7e" stroke-width="1"/>
    </clipPath>
    <clipPath id="clip-path-2">
      <rect id="Rectángulo_396112" data-name="Rectángulo 396112" width="60.9" height="16.261" transform="translate(0 0)" fill="none"/>
    </clipPath>
  </defs>
  <g id="Grupo_1073774" data-name="Grupo 1073774" transform="translate(-757 -4900)">
    <g id="Grupo_1073765" data-name="Grupo 1073765" transform="translate(757 4900)">
      <g id="Grupo_1073704" data-name="Grupo 1073704">
        <g id="Grupo_1073463" data-name="Grupo 1073463" clip-path="url(#clip-path)">
          <line id="Línea_2945" data-name="Línea 2945" x1="141.717" y2="37.022" transform="translate(-26.188 -14.426)" fill="none" stroke="#624b7e" stroke-miterlimit="10" stroke-width="1.728"/>
          <line id="Línea_2946" data-name="Línea 2946" x1="141.716" y2="37.022" transform="translate(-23.944 -5.837)" fill="none" stroke="#624b7e" stroke-miterlimit="10" stroke-width="1.728"/>
          <line id="Línea_2947" data-name="Línea 2947" x1="141.716" y2="37.023" transform="translate(-21.7 2.751)" fill="none" stroke="#624b7e" stroke-miterlimit="10" stroke-width="1.728"/>
          <line id="Línea_2948" data-name="Línea 2948" x1="141.718" y2="37.023" transform="translate(-19.455 11.34)" fill="none" stroke="#624b7e" stroke-miterlimit="10" stroke-width="1.728"/>
          <line id="Línea_2949" data-name="Línea 2949" x1="141.716" y2="37.024" transform="translate(-17.211 19.929)" fill="none" stroke="#624b7e" stroke-miterlimit="10" stroke-width="1.728"/>
          <line id="Línea_2950" data-name="Línea 2950" x1="141.716" y2="37.023" transform="translate(-14.969 28.518)" fill="none" stroke="#624b7e" stroke-miterlimit="10" stroke-width="1.728"/>
          <line id="Línea_2951" data-name="Línea 2951" x1="141.717" y2="37.022" transform="translate(-12.724 37.108)" fill="none" stroke="#624b7e" stroke-miterlimit="10" stroke-width="1.728"/>
          <line id="Línea_2952" data-name="Línea 2952" x1="141.718" y2="37.022" transform="translate(-10.48 45.697)" fill="none" stroke="#624b7e" stroke-miterlimit="10" stroke-width="1.728"/>
          <line id="Línea_2953" data-name="Línea 2953" x1="141.716" y2="37.023" transform="translate(-8.237 54.285)" fill="none" stroke="#624b7e" stroke-miterlimit="10" stroke-width="1.728"/>
          <line id="Línea_2954" data-name="Línea 2954" x1="141.715" y2="37.023" transform="translate(-5.993 62.874)" fill="none" stroke="#624b7e" stroke-miterlimit="10" stroke-width="1.728"/>
          <line id="Línea_2955" data-name="Línea 2955" x1="141.716" y2="37.022" transform="translate(-3.749 71.464)" fill="none" stroke="#624b7e" stroke-miterlimit="10" stroke-width="1.728"/>
          <line id="Línea_2956" data-name="Línea 2956" x1="141.716" y2="37.022" transform="translate(-1.505 80.054)" fill="none" stroke="#624b7e" stroke-miterlimit="10" stroke-width="1.728"/>
          <line id="Línea_2957" data-name="Línea 2957" x1="141.718" y2="37.024" transform="translate(0.761 88.73)" fill="none" stroke="#624b7e" stroke-miterlimit="10" stroke-width="1.728"/>
          <line id="Línea_2958" data-name="Línea 2958" x1="141.717" y2="37.022" transform="translate(2.94 97.072)" fill="none" stroke="#624b7e" stroke-miterlimit="10" stroke-width="1.728"/>
          <line id="Línea_2959" data-name="Línea 2959" x1="141.717" y2="37.022" transform="translate(-27.38 -18.99)" fill="none" stroke="#624b7e" stroke-miterlimit="10" stroke-width="1.728"/>
          <line id="Línea_2960" data-name="Línea 2960" x1="141.716" y2="37.022" transform="translate(-25.136 -10.401)" fill="none" stroke="#624b7e" stroke-miterlimit="10" stroke-width="1.728"/>
          <line id="Línea_2961" data-name="Línea 2961" x1="141.716" y2="37.023" transform="translate(-22.892 -1.813)" fill="none" stroke="#624b7e" stroke-miterlimit="10" stroke-width="1.728"/>
          <line id="Línea_2962" data-name="Línea 2962" x1="141.718" y2="37.023" transform="translate(-20.648 6.776)" fill="none" stroke="#624b7e" stroke-miterlimit="10" stroke-width="1.728"/>
          <line id="Línea_2963" data-name="Línea 2963" x1="141.716" y2="37.023" transform="translate(-18.404 15.365)" fill="none" stroke="#624b7e" stroke-miterlimit="10" stroke-width="1.728"/>
          <line id="Línea_2964" data-name="Línea 2964" x1="141.716" y2="37.024" transform="translate(-16.162 23.954)" fill="none" stroke="#624b7e" stroke-miterlimit="10" stroke-width="1.728"/>
          <line id="Línea_2965" data-name="Línea 2965" x1="141.716" y2="37.021" transform="translate(-13.917 32.544)" fill="none" stroke="#624b7e" stroke-miterlimit="10" stroke-width="1.728"/>
          <line id="Línea_2966" data-name="Línea 2966" x1="141.718" y2="37.022" transform="translate(-11.673 41.132)" fill="none" stroke="#624b7e" stroke-miterlimit="10" stroke-width="1.728"/>
          <line id="Línea_2967" data-name="Línea 2967" x1="141.716" y2="37.022" transform="translate(-9.429 49.721)" fill="none" stroke="#624b7e" stroke-miterlimit="10" stroke-width="1.728"/>
          <line id="Línea_2968" data-name="Línea 2968" x1="141.715" y2="37.022" transform="translate(-7.186 58.31)" fill="none" stroke="#624b7e" stroke-miterlimit="10" stroke-width="1.728"/>
          <line id="Línea_2969" data-name="Línea 2969" x1="141.715" y2="37.022" transform="translate(-4.941 66.9)" fill="none" stroke="#624b7e" stroke-miterlimit="10" stroke-width="1.728"/>
          <line id="Línea_2970" data-name="Línea 2970" x1="141.716" y2="37.022" transform="translate(-2.698 75.489)" fill="none" stroke="#624b7e" stroke-miterlimit="10" stroke-width="1.728"/>
          <line id="Línea_2971" data-name="Línea 2971" x1="141.717" y2="37.023" transform="translate(-0.432 84.166)" fill="none" stroke="#624b7e" stroke-miterlimit="10" stroke-width="1.728"/>
          <line id="Línea_2972" data-name="Línea 2972" x1="141.716" y2="37.021" transform="translate(1.748 92.508)" fill="none" stroke="#624b7e" stroke-miterlimit="10" stroke-width="1.728"/>
        </g>
      </g>
      <g id="Grupo_1073705" data-name="Grupo 1073705" transform="translate(9.797 9.795)">
        <path id="Trazado_608385" data-name="Trazado 608385" d="M50.33,0A50.166,50.166,0,1,1,0,50.166,50.248,50.248,0,0,1,50.33,0Z" transform="translate(0 0)" fill="#fff"/>
      </g>
      <g id="Grupo_1073706" data-name="Grupo 1073706" transform="translate(97.541 39.055)">
        <path id="Trazado_611008" data-name="Trazado 611008" d="M7.807,23.89,20.6,10.78,0,5.99Z" transform="translate(0 -4.861)" fill="#474747"/>
        <path id="Trazado_611009" data-name="Trazado 611009" d="M15.041,16.829,28.765,3.886,7.771,0Z" transform="translate(-6.307 0)" fill="#79cbbf"/>
      </g>
      <g id="Grupo_1073707" data-name="Grupo 1073707" transform="translate(0 87.567)">
        <path id="Trazado_610799" data-name="Trazado 610799" d="M0,2.743,5.78,13.015l7.926-6.252,4.948,8.8,7.929-6.253,4.958,8.8,9.26-7.3L39.008,8.533l-6.6,5.2-4.958-8.8-7.927,6.251-4.948-8.8L6.644,8.645,2.524,1.323Z" transform="translate(0 -0.94)" fill="#474747"/>
        <path id="Trazado_610800" data-name="Trazado 610800" d="M12.91,0,10.387,1.42l5.779,10.272L24.092,5.44l4.947,8.8,7.93-6.253,4.957,8.8,9.26-7.3L49.394,7.211l-6.6,5.2-4.958-8.8L29.9,9.867l-4.948-8.8L17.03,7.323Z" transform="translate(-7.379 0)" fill="#fff4a9"/>
      </g>
      <path id="Trazado_611010" data-name="Trazado 611010" d="M19.556,9.623,5.175,2.789l-.329,8.785Z" transform="translate(5.712 13.709)" fill="none" stroke="#fd3cae" stroke-miterlimit="10" stroke-width="2"/>
    </g>
    <g id="Grupo_1101367" data-name="Grupo 1101367" transform="translate(787.55 4950.869)">
      <g id="Grupo_1101366" data-name="Grupo 1101366" clip-path="url(#clip-path-2)">
        <path id="Trazado_634030" data-name="Trazado 634030" d="M10.617,15.853a6,6,0,0,1-1.545.178q-1.947,0-2.446-1.164A4.828,4.828,0,0,1,2.993,16.1a3.589,3.589,0,0,1-2.149-.6A2.063,2.063,0,0,1,0,13.7a2.824,2.824,0,0,1,1.235-2.458,9.915,9.915,0,0,1,4.323-1.224l.95-.119V8.74A8.161,8.161,0,0,0,6.2,5.96a1.2,1.2,0,0,0-1.223-.711A1.845,1.845,0,0,0,3.8,5.5a.574.574,0,0,0-.189.57c.046.214.126.5.237.842a2.97,2.97,0,0,1,.166.832A1.745,1.745,0,0,1,2.268,9.5a1.721,1.721,0,0,1-1.247-.511A1.681,1.681,0,0,1,.5,7.742,2.5,2.5,0,0,1,1.745,5.664,6.554,6.554,0,0,1,5.474,4.8a5.175,5.175,0,0,1,3.54.975A4.566,4.566,0,0,1,10.07,9.215V13.49a2.556,2.556,0,0,0,.309,1.579q.309.321,1.14.131v.237a2.073,2.073,0,0,1-.9.416M3.966,14.618a1.851,1.851,0,0,0,1.271.487,1.584,1.584,0,0,0,1.271-.712V10.355l-.855.118a2.931,2.931,0,0,0-1.77.832A2.355,2.355,0,0,0,3.3,13.229a2.162,2.162,0,0,0,.665,1.389" fill="#12263f"/>
        <path id="Trazado_634031" data-name="Trazado 634031" d="M12.707,10.45A5.376,5.376,0,0,1,14.346,6.2,6.059,6.059,0,0,1,18.514,4.75a5.038,5.038,0,0,1,3.765,1.27,2.674,2.674,0,0,1,.878,2.625,1.65,1.65,0,0,1-.8,1.08,1.761,1.761,0,0,1-1.318.179,1.68,1.68,0,0,1-1.5-1.734,10.565,10.565,0,0,1,.083-1.081,6.31,6.31,0,0,0,.06-1.056,1.146,1.146,0,0,0-.143-.523c-.158-.268-.531-.372-1.116-.309q-2.137.333-2.138,5.237t3.492,4.905a3.55,3.55,0,0,0,1.638-.428,3.231,3.231,0,0,0,1.235-1.021l.333.238a3.875,3.875,0,0,1-1.639,1.448,5.4,5.4,0,0,1-2.446.547q-6.2,0-6.2-5.677" fill="#12263f"/>
        <path id="Trazado_634032" data-name="Trazado 634032" d="M24.653,10.45A5.372,5.372,0,0,1,26.292,6.2,6.059,6.059,0,0,1,30.46,4.75a5.034,5.034,0,0,1,3.764,1.27,2.676,2.676,0,0,1,.88,2.625,1.656,1.656,0,0,1-.8,1.08,1.764,1.764,0,0,1-1.319.179,1.68,1.68,0,0,1-1.5-1.734,10.281,10.281,0,0,1,.083-1.081,6.282,6.282,0,0,0,.059-1.056,1.134,1.134,0,0,0-.142-.523c-.158-.268-.531-.372-1.116-.309q-2.139.333-2.138,5.237t3.492,4.905a3.553,3.553,0,0,0,1.638-.428A3.224,3.224,0,0,0,34.6,13.894l.333.238A3.881,3.881,0,0,1,33.3,15.58a5.393,5.393,0,0,1-2.446.547q-6.2,0-6.2-5.677" fill="#12263f"/>
        <path id="Trazado_634033" data-name="Trazado 634033" d="M47.334,11.163H40.162q.237,4.18,3.254,4.18a5.429,5.429,0,0,0,1.841-.38A3.038,3.038,0,0,0,46.765,13.9l.332.237a3.81,3.81,0,0,1-1.781,1.449,6.049,6.049,0,0,1-2.506.569,9.233,9.233,0,0,1-2.244-.249,6.761,6.761,0,0,1-1.948-.843,3.924,3.924,0,0,1-1.484-1.781A6.982,6.982,0,0,1,36.6,10.4,5.362,5.362,0,0,1,38.191,6.14a5.662,5.662,0,0,1,3.86-1.39,5.1,5.1,0,0,1,3.775,1.521q1.509,1.52,1.508,4.892m-7.2-.475H44.01a14.16,14.16,0,0,0-.463-3.824q-.464-1.638-1.485-1.639T40.59,6.8a13.211,13.211,0,0,0-.452,3.623Z" fill="#12263f"/>
        <path id="Trazado_634034" data-name="Trazado 634034" d="M53.819,15.438h1.188v.475H49.068v-.475h1.188V.475H49.068V0h4.751Z" fill="#12263f"/>
        <path id="Trazado_634035" data-name="Trazado 634035" d="M60.9,14.183a2.066,2.066,0,0,1-2.079,2.078,2.046,2.046,0,0,1-1.484-.6,1.985,1.985,0,0,1-.617-1.473,2.108,2.108,0,0,1,2.1-2.1,1.988,1.988,0,0,1,1.474.618,2.044,2.044,0,0,1,.605,1.484" fill="#12263f"/>
      </g>
    </g>
  </g>
</svg>
