<svg xmlns="http://www.w3.org/2000/svg" xmlns:xlink="http://www.w3.org/1999/xlink" width="120" height="120" viewBox="0 0 120 120">
  <defs>
    <clipPath id="clip-path">
      <path id="Trazado_610742" data-name="Trazado 610742" d="M130,61.713a59.921,59.921,0,1,0,15.2-1.962A59.99,59.99,0,0,0,130,61.713" transform="translate(-85.163 -59.751)" fill="none" stroke="#624b7e" stroke-width="1"/>
    </clipPath>
  </defs>
  <g id="Grupo_1101665" data-name="Grupo 1101665" transform="translate(-810 -1181)">
    <g id="Grupo_1073774" data-name="Grupo 1073774" transform="translate(53 -3719)">
      <g id="Grupo_1073765" data-name="Grupo 1073765" transform="translate(757 4900)">
        <g id="Grupo_1073704" data-name="Grupo 1073704">
          <g id="Grupo_1073463" data-name="Grupo 1073463" clip-path="url(#clip-path)">
            <line id="Línea_2945" data-name="Línea 2945" x1="141.717" y2="37.022" transform="translate(-26.188 -14.426)" fill="none" stroke="#624b7e" stroke-miterlimit="10" stroke-width="1.728"/>
            <line id="Línea_2946" data-name="Línea 2946" x1="141.716" y2="37.022" transform="translate(-23.944 -5.837)" fill="none" stroke="#624b7e" stroke-miterlimit="10" stroke-width="1.728"/>
            <line id="Línea_2947" data-name="Línea 2947" x1="141.716" y2="37.023" transform="translate(-21.7 2.751)" fill="none" stroke="#624b7e" stroke-miterlimit="10" stroke-width="1.728"/>
            <line id="Línea_2948" data-name="Línea 2948" x1="141.718" y2="37.023" transform="translate(-19.455 11.34)" fill="none" stroke="#624b7e" stroke-miterlimit="10" stroke-width="1.728"/>
            <line id="Línea_2949" data-name="Línea 2949" x1="141.716" y2="37.024" transform="translate(-17.211 19.929)" fill="none" stroke="#624b7e" stroke-miterlimit="10" stroke-width="1.728"/>
            <line id="Línea_2950" data-name="Línea 2950" x1="141.716" y2="37.023" transform="translate(-14.969 28.518)" fill="none" stroke="#624b7e" stroke-miterlimit="10" stroke-width="1.728"/>
            <line id="Línea_2951" data-name="Línea 2951" x1="141.717" y2="37.022" transform="translate(-12.724 37.108)" fill="none" stroke="#624b7e" stroke-miterlimit="10" stroke-width="1.728"/>
            <line id="Línea_2952" data-name="Línea 2952" x1="141.718" y2="37.022" transform="translate(-10.48 45.697)" fill="none" stroke="#624b7e" stroke-miterlimit="10" stroke-width="1.728"/>
            <line id="Línea_2953" data-name="Línea 2953" x1="141.716" y2="37.023" transform="translate(-8.237 54.285)" fill="none" stroke="#624b7e" stroke-miterlimit="10" stroke-width="1.728"/>
            <line id="Línea_2954" data-name="Línea 2954" x1="141.715" y2="37.023" transform="translate(-5.993 62.874)" fill="none" stroke="#624b7e" stroke-miterlimit="10" stroke-width="1.728"/>
            <line id="Línea_2955" data-name="Línea 2955" x1="141.716" y2="37.022" transform="translate(-3.749 71.464)" fill="none" stroke="#624b7e" stroke-miterlimit="10" stroke-width="1.728"/>
            <line id="Línea_2956" data-name="Línea 2956" x1="141.716" y2="37.022" transform="translate(-1.505 80.054)" fill="none" stroke="#624b7e" stroke-miterlimit="10" stroke-width="1.728"/>
            <line id="Línea_2957" data-name="Línea 2957" x1="141.718" y2="37.024" transform="translate(0.761 88.73)" fill="none" stroke="#624b7e" stroke-miterlimit="10" stroke-width="1.728"/>
            <line id="Línea_2958" data-name="Línea 2958" x1="141.717" y2="37.022" transform="translate(2.94 97.072)" fill="none" stroke="#624b7e" stroke-miterlimit="10" stroke-width="1.728"/>
            <line id="Línea_2959" data-name="Línea 2959" x1="141.717" y2="37.022" transform="translate(-27.38 -18.99)" fill="none" stroke="#624b7e" stroke-miterlimit="10" stroke-width="1.728"/>
            <line id="Línea_2960" data-name="Línea 2960" x1="141.716" y2="37.022" transform="translate(-25.136 -10.401)" fill="none" stroke="#624b7e" stroke-miterlimit="10" stroke-width="1.728"/>
            <line id="Línea_2961" data-name="Línea 2961" x1="141.716" y2="37.023" transform="translate(-22.892 -1.813)" fill="none" stroke="#624b7e" stroke-miterlimit="10" stroke-width="1.728"/>
            <line id="Línea_2962" data-name="Línea 2962" x1="141.718" y2="37.023" transform="translate(-20.648 6.776)" fill="none" stroke="#624b7e" stroke-miterlimit="10" stroke-width="1.728"/>
            <line id="Línea_2963" data-name="Línea 2963" x1="141.716" y2="37.023" transform="translate(-18.404 15.365)" fill="none" stroke="#624b7e" stroke-miterlimit="10" stroke-width="1.728"/>
            <line id="Línea_2964" data-name="Línea 2964" x1="141.716" y2="37.024" transform="translate(-16.162 23.954)" fill="none" stroke="#624b7e" stroke-miterlimit="10" stroke-width="1.728"/>
            <line id="Línea_2965" data-name="Línea 2965" x1="141.716" y2="37.021" transform="translate(-13.917 32.544)" fill="none" stroke="#624b7e" stroke-miterlimit="10" stroke-width="1.728"/>
            <line id="Línea_2966" data-name="Línea 2966" x1="141.718" y2="37.022" transform="translate(-11.673 41.132)" fill="none" stroke="#624b7e" stroke-miterlimit="10" stroke-width="1.728"/>
            <line id="Línea_2967" data-name="Línea 2967" x1="141.716" y2="37.022" transform="translate(-9.429 49.721)" fill="none" stroke="#624b7e" stroke-miterlimit="10" stroke-width="1.728"/>
            <line id="Línea_2968" data-name="Línea 2968" x1="141.715" y2="37.022" transform="translate(-7.186 58.31)" fill="none" stroke="#624b7e" stroke-miterlimit="10" stroke-width="1.728"/>
            <line id="Línea_2969" data-name="Línea 2969" x1="141.715" y2="37.022" transform="translate(-4.941 66.9)" fill="none" stroke="#624b7e" stroke-miterlimit="10" stroke-width="1.728"/>
            <line id="Línea_2970" data-name="Línea 2970" x1="141.716" y2="37.022" transform="translate(-2.698 75.489)" fill="none" stroke="#624b7e" stroke-miterlimit="10" stroke-width="1.728"/>
            <line id="Línea_2971" data-name="Línea 2971" x1="141.717" y2="37.023" transform="translate(-0.432 84.166)" fill="none" stroke="#624b7e" stroke-miterlimit="10" stroke-width="1.728"/>
            <line id="Línea_2972" data-name="Línea 2972" x1="141.716" y2="37.021" transform="translate(1.748 92.508)" fill="none" stroke="#624b7e" stroke-miterlimit="10" stroke-width="1.728"/>
          </g>
        </g>
        <g id="Grupo_1073705" data-name="Grupo 1073705" transform="translate(9.797 9.795)">
          <path id="Trazado_608385" data-name="Trazado 608385" d="M50.33,0A50.166,50.166,0,1,1,0,50.166,50.248,50.248,0,0,1,50.33,0Z" transform="translate(0 0)" fill="#fff"/>
        </g>
        <g id="Grupo_1073706" data-name="Grupo 1073706" transform="translate(97.541 39.055)">
          <path id="Trazado_611008" data-name="Trazado 611008" d="M7.807,23.89,20.6,10.78,0,5.99Z" transform="translate(0 -4.861)" fill="#474747"/>
          <path id="Trazado_611009" data-name="Trazado 611009" d="M15.041,16.829,28.765,3.886,7.771,0Z" transform="translate(-6.307 0)" fill="#79cbbf"/>
        </g>
        <g id="Grupo_1073707" data-name="Grupo 1073707" transform="translate(0 87.567)">
          <path id="Trazado_610799" data-name="Trazado 610799" d="M0,2.743,5.78,13.015l7.926-6.252,4.948,8.8,7.929-6.253,4.958,8.8,9.26-7.3L39.008,8.533l-6.6,5.2-4.958-8.8-7.927,6.251-4.948-8.8L6.644,8.645,2.524,1.323Z" transform="translate(0 -0.94)" fill="#474747"/>
          <path id="Trazado_610800" data-name="Trazado 610800" d="M12.91,0,10.387,1.42l5.779,10.272L24.092,5.44l4.947,8.8,7.93-6.253,4.957,8.8,9.26-7.3L49.394,7.211l-6.6,5.2-4.958-8.8L29.9,9.867l-4.948-8.8L17.03,7.323Z" transform="translate(-7.379 0)" fill="#fff4a9"/>
        </g>
        <path id="Trazado_611010" data-name="Trazado 611010" d="M19.556,9.623,5.175,2.789l-.329,8.785Z" transform="translate(5.712 13.709)" fill="none" stroke="#fd3cae" stroke-miterlimit="10" stroke-width="2"/>
      </g>
    </g>
    <path id="Trazado_634667" data-name="Trazado 634667" d="M-14.968-11.591l-2.463,8.442-.254,1.028a1.6,1.6,0,0,0-.038.279.376.376,0,0,0,.108.267.309.309,0,0,0,.222.114,1.34,1.34,0,0,0,.736-.406,10.147,10.147,0,0,0,.914-1.168l.444.229A7.272,7.272,0,0,1-17.221-.4a3.634,3.634,0,0,1-2.2.755,1.511,1.511,0,0,1-1.1-.375,1.271,1.271,0,0,1-.381-.946A7.863,7.863,0,0,1-20.5-2.806l.3-1.028a12.522,12.522,0,0,1-2.831,3.58,2.691,2.691,0,0,1-1.676.609A1.778,1.778,0,0,1-26.394-.6a4.462,4.462,0,0,1-.521-2.165,9.849,9.849,0,0,1,1.092-4.107A10.207,10.207,0,0,1-22.953-10.6a4.5,4.5,0,0,1,2.742-1.168,1.585,1.585,0,0,1,1.143.413,2.8,2.8,0,0,1,.635,1.5l.457-1.562ZM-19.03-9.179a2.67,2.67,0,0,0-.317-1.485.726.726,0,0,0-.622-.317,1.235,1.235,0,0,0-.812.381,9.517,9.517,0,0,0-1.834,3.193A11.3,11.3,0,0,0-23.6-3.25a1.652,1.652,0,0,0,.222.971.619.619,0,0,0,.489.3,1.609,1.609,0,0,0,1.155-.66,10.3,10.3,0,0,0,1.511-2.3A9.7,9.7,0,0,0-19.03-9.179ZM-4.659-3.06l.381.343A9.368,9.368,0,0,1-6.7-.559,6.5,6.5,0,0,1-9.991.355a4.109,4.109,0,0,1-2.025-.489,3.019,3.019,0,0,1-1.3-1.371,4.175,4.175,0,0,1-.419-1.809,8.275,8.275,0,0,1,1.13-4.094,8.79,8.79,0,0,1,2.983-3.187,6.79,6.79,0,0,1,3.644-1.174,3.19,3.19,0,0,1,2.158.635A2.011,2.011,0,0,1-3.1-9.56a2.067,2.067,0,0,1-.546,1.447,1.626,1.626,0,0,1-1.219.6A1.329,1.329,0,0,1-5.833-7.9a1.222,1.222,0,0,1-.387-.9,1.466,1.466,0,0,1,.686-1.193q.47-.355.47-.622a.435.435,0,0,0-.19-.368,1.025,1.025,0,0,0-.66-.2,2.926,2.926,0,0,0-2.006.863,7.393,7.393,0,0,0-1.9,2.895,9.439,9.439,0,0,0-.66,3.326,2.846,2.846,0,0,0,.673,1.987,2.089,2.089,0,0,0,1.6.743A4.368,4.368,0,0,0-6.456-1.79,5.98,5.98,0,0,0-4.659-3.06Zm11.54,0,.381.343A9.368,9.368,0,0,1,4.837-.559,6.5,6.5,0,0,1,1.549.355,4.109,4.109,0,0,1-.476-.133,3.019,3.019,0,0,1-1.777-1.5,4.175,4.175,0,0,1-2.2-3.313a8.275,8.275,0,0,1,1.13-4.094,8.79,8.79,0,0,1,2.983-3.187,6.79,6.79,0,0,1,3.644-1.174,3.19,3.19,0,0,1,2.158.635A2.011,2.011,0,0,1,8.442-9.56,2.067,2.067,0,0,1,7.9-8.112a1.626,1.626,0,0,1-1.219.6A1.329,1.329,0,0,1,5.707-7.9a1.222,1.222,0,0,1-.387-.9A1.466,1.466,0,0,1,6-9.991q.47-.355.47-.622a.435.435,0,0,0-.19-.368,1.025,1.025,0,0,0-.66-.2,2.926,2.926,0,0,0-2.006.863,7.393,7.393,0,0,0-1.9,2.895A9.439,9.439,0,0,0,1.054-4.1a2.846,2.846,0,0,0,.673,1.987,2.089,2.089,0,0,0,1.6.743A4.368,4.368,0,0,0,5.084-1.79,5.98,5.98,0,0,0,6.881-3.06Zm5.84-1.7A10.28,10.28,0,0,0,12.606-3.4a2.1,2.1,0,0,0,.552,1.523,1.962,1.962,0,0,0,1.479.571,4.077,4.077,0,0,0,1.784-.432A9.186,9.186,0,0,0,18.5-3.25l.381.343A10.134,10.134,0,0,1,16.034-.394a6.323,6.323,0,0,1-3.06.749A3.578,3.578,0,0,1,10.042-.66a3.652,3.652,0,0,1-.812-2.349,8.213,8.213,0,0,1,1.212-4.164,9.311,9.311,0,0,1,3.3-3.339,8.071,8.071,0,0,1,4.2-1.257,2.288,2.288,0,0,1,1.612.508A1.676,1.676,0,0,1,20.1-9.979a3.425,3.425,0,0,1-.533,1.8A6.061,6.061,0,0,1,17.71-6.252a8.814,8.814,0,0,1-2.5,1.111A14.122,14.122,0,0,1,12.721-4.761Zm.114-.66a6.523,6.523,0,0,0,1.733-.451,3.99,3.99,0,0,0,1.206-.914A5.732,5.732,0,0,0,16.8-8.373a4.393,4.393,0,0,0,.432-1.8.769.769,0,0,0-.2-.559.668.668,0,0,0-.5-.2,2.046,2.046,0,0,0-1.371.851A12.117,12.117,0,0,0,12.835-5.421Zm15.59-12.187-4.2,14.295a8.381,8.381,0,0,0-.368,1.587.392.392,0,0,0,.108.279.32.32,0,0,0,.235.114.647.647,0,0,0,.432-.178,7.092,7.092,0,0,0,1.358-1.676l.5.229A9.509,9.509,0,0,1,24.108-.2a2.919,2.919,0,0,1-1.7.559A1.9,1.9,0,0,1,21.074-.1a1.416,1.416,0,0,1-.5-1.085,6.16,6.16,0,0,1,.3-1.511L24.312-14.4a5.95,5.95,0,0,0,.279-1.282.552.552,0,0,0-.267-.482,1.7,1.7,0,0,0-1.079-.216l.14-.482,4.278-.749Z" transform="translate(869.5 1249.5)" fill="#12263f"/>
  </g>
</svg>
